<svg xmlns="http://www.w3.org/2000/svg" xmlns:xlink="http://www.w3.org/1999/xlink" width="1595" height="1630" viewBox="0 0 1595 1630"><defs><clipPath id="b"><rect width="1595" height="1630"/></clipPath></defs><g id="a" clip-path="url(#b)"><g transform="translate(-162.13 -469.613)"><g transform="translate(261.733 545.798)"><rect width="82.379" height="82.383" transform="translate(1082.091 359.476) rotate(-42.353)" fill="none" stroke="#b3e2ee" stroke-miterlimit="10" stroke-width="4"/><path d="M531.435,676.041a41.2,41.2,0,1,1,2.692-58.2A41.206,41.206,0,0,1,531.435,676.041Z" transform="translate(637.179 -283.446)" fill="none" stroke="#b3e2ee" stroke-miterlimit="10" stroke-width="4"/><rect width="187.361" height="187.349" transform="translate(1015.362 1052.076) rotate(-35.616)" fill="none" stroke="#b3e2ee" stroke-miterlimit="10" stroke-width="4"/><rect width="187.362" height="187.357" transform="matrix(0.767, -0.642, 0.642, 0.767, 1055.083, 792.83)" fill="none" stroke="#b3e2ee" stroke-miterlimit="10" stroke-width="4"/><rect width="187.363" height="187.357" transform="translate(1072.555 534.977) rotate(-42.358)" fill="none" stroke="#b3e2ee" stroke-miterlimit="10" stroke-width="4"/><rect width="329.432" height="329.432" transform="matrix(0.739, -0.674, 0.674, 0.739, 928.2, 222.054)" fill="none" stroke="#b3e2ee" stroke-miterlimit="10" stroke-width="4"/><path d="M520.41,826.683a41.195,41.195,0,1,1,9.509-57.479A41.2,41.2,0,0,1,520.41,826.683Z" transform="translate(604.713 377.554)" fill="none" stroke="#b3e2ee" stroke-miterlimit="10" stroke-width="4"/><path d="M510.594,815.241a34.191,34.191,0,1,1,7.871-47.7A34.185,34.185,0,0,1,510.594,815.241Z" transform="translate(610.466 383.301)" fill="none" stroke="#b3e2ee" stroke-miterlimit="10" stroke-width="4"/><rect width="82.377" height="82.388" transform="matrix(0.813, -0.582, 0.582, 0.813, 1043.634, 1161.214)" fill="none" stroke="#b3e2ee" stroke-miterlimit="10" stroke-width="4"/><path d="M505.519,647.11a20.53,20.53,0,1,1-29-1.329A20.542,20.542,0,0,1,505.519,647.11Z" transform="translate(669.635 -122.028)" fill="none" stroke="#b3e2ee" stroke-miterlimit="10" stroke-width="4"/><rect width="41.002" height="40.999" transform="matrix(0.739, -0.674, 0.674, 0.739, 1130.965, 537.553)" fill="none" stroke="#b3e2ee" stroke-miterlimit="10" stroke-width="4"/><rect width="40.999" height="41.003" opacity="0.5" fill="none" stroke="#b3e2ee" stroke-miterlimit="10" stroke-width="4" transform="matrix(0.739, -0.674, 0.674, 0.739, 1211.14, 408.995)"/><path d="M496.756,670.863a20.526,20.526,0,1,1-28.987-1.34A20.513,20.513,0,0,1,496.756,670.863Z" transform="translate(630.997 -15.684)" fill="none" stroke="#b3e2ee" stroke-miterlimit="10" stroke-width="4"/><rect width="41.001" height="41.002" transform="matrix(0.739, -0.674, 0.674, 0.739, 1083.556, 667.65)" fill="none" stroke="#b3e2ee" stroke-miterlimit="10" stroke-width="4"/><path d="M501.95,724.3a20.528,20.528,0,1,1,1.335-28.987A20.5,20.5,0,0,1,501.95,724.3Z" transform="translate(659.631 93.8)" fill="none" stroke="#b3e2ee" stroke-miterlimit="10" stroke-width="4"/><rect width="41.001" height="40.997" transform="translate(1118.729 801.583) rotate(-42.356)" fill="none" stroke="#b3e2ee" stroke-miterlimit="10" stroke-width="4"/><path d="M493.316,718.77a20.529,20.529,0,1,1-28.839-3.2A20.508,20.508,0,0,1,493.316,718.77Z" transform="translate(611.742 194.381)" fill="none" stroke="#b3e2ee" stroke-miterlimit="10" stroke-width="4"/><rect width="41" height="41.009" transform="translate(1060.15 922.74) rotate(-38.665)" fill="none" stroke="#b3e2ee" stroke-miterlimit="10" stroke-width="4"/><path d="M495.985,743.9a20.528,20.528,0,1,1-28.806-3.477A20.521,20.521,0,0,1,495.985,743.9Z" transform="translate(623.109 306.26)" fill="none" stroke="#b3e2ee" stroke-miterlimit="10" stroke-width="4"/><rect width="40.999" height="41.006" transform="translate(1074.351 1057.62) rotate(-34.745)" fill="none" stroke="#b3e2ee" stroke-miterlimit="10" stroke-width="4"/><path d="M521.837,649.361a41.206,41.206,0,1,1-58.2-2.681A41.212,41.212,0,0,1,521.837,649.361Z" transform="translate(582.164 -142.182)" fill="none" stroke="#b3e2ee" stroke-miterlimit="10" stroke-width="4"/><rect width="82.383" height="82.38" transform="matrix(0.739, -0.674, 0.674, 0.739, 1015.346, 532.271)" fill="none" stroke="#b3e2ee" stroke-miterlimit="10" stroke-width="4"/><rect width="82.38" height="82.384" transform="translate(1155.503 348.316) rotate(-42.35)" fill="none" stroke="#b3e2ee" stroke-miterlimit="10" stroke-width="4"/><rect width="82.378" height="82.378" transform="translate(1094.623 403.662) rotate(-42.353)" fill="none" stroke="#b3e2ee" stroke-miterlimit="10" stroke-width="4"/><rect width="82.379" height="82.38" transform="translate(1039.793 342.958) rotate(-42.353)" fill="none" stroke="#b3e2ee" stroke-miterlimit="10" stroke-width="4"/><rect width="82.378" height="82.377" transform="translate(1099.998 287.61) rotate(-42.353)" fill="none" stroke="#b3e2ee" stroke-miterlimit="10" stroke-width="4"/><rect width="82.376" height="82.376" transform="translate(1045.145 227.378) rotate(-42.353)" fill="none" stroke="#b3e2ee" stroke-miterlimit="10" stroke-width="4"/><rect width="82.376" height="82.379" transform="translate(989.791 166.503) rotate(-42.353)" fill="none" stroke="#b3e2ee" stroke-miterlimit="10" stroke-width="4"/><g transform="translate(928.983 166.506)"><rect width="82.378" height="82.378" transform="translate(55.507 116.369) rotate(-42.351)" fill="none" stroke="#b3e2ee" stroke-miterlimit="10" stroke-width="4"/><rect width="82.378" height="82.377" transform="translate(0 55.499) rotate(-42.354)" fill="none" stroke="#b3e2ee" stroke-miterlimit="10" stroke-width="4"/></g><rect width="82.38" height="82.382" transform="translate(1166.243 116.383) rotate(-42.357)" fill="none" stroke="#b3e2ee" stroke-miterlimit="10" stroke-width="4"/><rect width="82.383" height="82.382" transform="translate(1110.734 55.503) rotate(-42.354)" fill="none" stroke="#b3e2ee" stroke-miterlimit="10" stroke-width="4"/><g transform="translate(1049.879 55.506)"><rect width="82.375" height="82.378" transform="matrix(0.739, -0.674, 0.674, 0.739, 55.51, 116.373)" fill="none" stroke="#b3e2ee" stroke-miterlimit="10" stroke-width="4"/><rect width="82.375" height="82.382" transform="matrix(0.739, -0.674, 0.674, 0.739, 0, 55.499)" fill="none" stroke="#b3e2ee" stroke-miterlimit="10" stroke-width="4"/></g><path d="M872.356,808.51c-5.905,127.812-114.272,226.583-242.04,220.677-127.867-5.911-226.583-114.239-220.677-242.046,5.9-127.834,114.173-226.577,242.045-220.677C779.447,572.364,878.261,680.681,872.356,808.51Z" transform="translate(398.13 -454.071)" fill="none" stroke="#b3e2ee" stroke-miterlimit="10" stroke-width="4"/><path d="M542.128,732.783a41.2,41.2,0,1,1,2.692-58.2A41.2,41.2,0,0,1,542.128,732.783Z" transform="translate(684.656 -29.341)" fill="none" stroke="#b3e2ee" stroke-miterlimit="10" stroke-width="4"/><rect width="82.379" height="82.381" transform="translate(1140.838 670.311) rotate(-42.348)" fill="none" stroke="#b3e2ee" stroke-miterlimit="10" stroke-width="4"/><path d="M519.613,697.563a41.2,41.2,0,1,1-58.2-2.7A41.179,41.179,0,0,1,519.613,697.563Z" transform="translate(572.21 73.581)" fill="none" stroke="#b3e2ee" stroke-miterlimit="10" stroke-width="4"/><rect width="82.381" height="82.383" transform="matrix(0.739, -0.674, 0.674, 0.739, 1003.16, 796.209)" fill="none" stroke="#b3e2ee" stroke-miterlimit="10" stroke-width="4"/><path d="M542.162,724.51a41.2,41.2,0,1,1-57.913-6.432A41.225,41.225,0,0,1,542.162,724.51Z" transform="translate(664.968 185.304)" fill="none" stroke="#b3e2ee" stroke-miterlimit="10" stroke-width="4"/><rect width="82.377" height="82.373" transform="matrix(0.781, -0.625, 0.625, 0.781, 1117.073, 929.117)" fill="none" stroke="#b3e2ee" stroke-miterlimit="10" stroke-width="4"/><path d="M513.4,746.142a41.2,41.2,0,1,1-57.853-7A41.191,41.191,0,0,1,513.4,746.142Z" transform="translate(535.541 280.711)" fill="none" stroke="#b3e2ee" stroke-miterlimit="10" stroke-width="4"/><rect width="82.377" height="82.378" transform="translate(958.672 1045.262) rotate(-38.104)" fill="none" stroke="#b3e2ee" stroke-miterlimit="10" stroke-width="4"/><rect width="41.192" height="41.19" transform="matrix(0.739, -0.674, 0.674, 0.739, 1097.947, 345.605)" fill="none" stroke="#b3e2ee" stroke-miterlimit="10" stroke-width="4"/><rect width="20.593" height="20.589" transform="translate(1126.406 346.925) rotate(-42.352)" fill="none" stroke="#b3e2ee" stroke-miterlimit="10" stroke-width="4"/><path d="M510.3,576.441a34.346,34.346,0,1,1-48.52-2.23A34.372,34.372,0,0,1,510.3,576.441Z" transform="translate(583.922 -458.417)" fill="none" stroke="#b3e2ee" stroke-miterlimit="10" stroke-width="4"/><path d="M600.746,743.255a82.438,82.438,0,1,1,5.339-116.469A82.441,82.441,0,0,1,600.746,743.255Z" transform="translate(638.029 -303.58)" fill="none" stroke="#b3e2ee" stroke-miterlimit="10" stroke-width="4"/><line x1="597.889" y1="27.614" transform="translate(740.179 329.093)" fill="none" stroke="#b3e2ee" stroke-miterlimit="10" stroke-width="4"/><line x1="27.61" y2="597.894" transform="translate(1026.203 44.812)" fill="none" stroke="#b3e2ee" stroke-miterlimit="10" stroke-width="4"/><g transform="translate(1084.562 280.103)"><line x1="197.325" y1="9.123" transform="translate(0 94.111)" fill="none" stroke="#b3e2ee" stroke-miterlimit="10" stroke-width="4"/><line x1="9.109" y2="197.333" transform="translate(94.111)" fill="none" stroke="#b3e2ee" stroke-miterlimit="10" stroke-width="4"/></g><g transform="translate(1090.436 312.313)"><line x1="99.679" y1="4.601" transform="translate(0 47.54)" fill="none" stroke="#b3e2ee" stroke-miterlimit="10" stroke-width="4"/><line x1="4.603" y2="99.69" transform="translate(47.538)" fill="none" stroke="#b3e2ee" stroke-miterlimit="10" stroke-width="4"/></g><g transform="translate(1019.229 91.579)"><line x1="99.165" y1="4.582" transform="translate(0 47.292)" fill="none" stroke="#b3e2ee" stroke-miterlimit="10" stroke-width="4"/><line x1="4.576" y2="99.164" transform="translate(47.297)" fill="none" stroke="#b3e2ee" stroke-miterlimit="10" stroke-width="4"/></g><g transform="translate(1043.858 590.356)"><line x1="233.824" y1="10.805" transform="translate(0 75.517)" fill="none" stroke="#b3e2ee" stroke-miterlimit="10" stroke-width="4"/><line x1="7.263" y2="157.335" transform="translate(151.531 4.023)" fill="none" stroke="#b3e2ee" stroke-miterlimit="10" stroke-width="4"/><line x1="7.263" y2="157.334" transform="translate(64.409)" fill="none" stroke="#b3e2ee" stroke-miterlimit="10" stroke-width="4"/></g><g transform="translate(1020.577 847.654)"><line x1="232.65" y1="25.835" transform="translate(0 70.744)" fill="none" stroke="#b3e2ee" stroke-miterlimit="10" stroke-width="4"/><line x1="17.375" y2="156.541" transform="translate(145.689 9.613)" fill="none" stroke="#b3e2ee" stroke-miterlimit="10" stroke-width="4"/><line x1="17.381" y2="156.53" transform="translate(59.013)" fill="none" stroke="#b3e2ee" stroke-miterlimit="10" stroke-width="4"/></g><g transform="translate(981.675 720.212)"><line x2="233.824" y2="10.803" transform="translate(0 75.021)" fill="none" stroke="#b3e2ee" stroke-miterlimit="10" stroke-width="4"/><line y1="157.331" x2="7.263" transform="translate(75.277)" fill="none" stroke="#b3e2ee" stroke-miterlimit="10" stroke-width="4"/><line y1="157.334" x2="7.263" transform="translate(162.442 4.019)" fill="none" stroke="#b3e2ee" stroke-miterlimit="10" stroke-width="4"/></g><g transform="translate(937.867 974.08)"><line x2="232.376" y2="28.109" transform="translate(0 68.684)" fill="none" stroke="#b3e2ee" stroke-miterlimit="10" stroke-width="4"/><line y1="156.358" x2="18.904" transform="translate(68.969)" fill="none" stroke="#b3e2ee" stroke-miterlimit="10" stroke-width="4"/><line y1="156.359" x2="18.909" transform="translate(155.591 10.471)" fill="none" stroke="#b3e2ee" stroke-miterlimit="10" stroke-width="4"/></g><g transform="translate(1014.735 1084.3)"><line x1="171.454" y1="28.313" transform="translate(0 71.57)" fill="none" stroke="#b3e2ee" stroke-miterlimit="10" stroke-width="4"/><line x1="28.329" y2="171.452" transform="translate(71.56)" fill="none" stroke="#b3e2ee" stroke-miterlimit="10" stroke-width="4"/></g><path d="M911.5,827.124c-6.449,139.7-124.9,247.648-264.55,241.2-139.76-6.46-247.659-124.857-241.2-264.556,6.454-139.727,124.8-247.654,264.561-241.2C809.956,569.017,917.95,687.392,911.5,827.124Z" transform="translate(380.507 -471.685)" fill="none" stroke="#b3e2ee" stroke-miterlimit="10" stroke-width="4"/><g transform="translate(1161.274 483.901)"><path d="M481.576,640.611a19.44,19.44,0,1,1-1.274,27.454A19.426,19.426,0,0,1,481.576,640.611Z" transform="translate(-467.24 -627.662)" fill="none" stroke="#b3e2ee" stroke-miterlimit="10" stroke-width="4"/><rect width="38.751" height="38.809" transform="translate(0 26.085) rotate(-42.31)" fill="none" stroke="#b3e2ee" stroke-miterlimit="10" stroke-width="4"/></g><g transform="translate(1161.274 544.068)"><path d="M481.576,651.591a19.44,19.44,0,1,1-1.274,27.454A19.427,19.427,0,0,1,481.576,651.591Z" transform="translate(-467.24 -638.644)" fill="none" stroke="#b3e2ee" stroke-miterlimit="10" stroke-width="4"/><rect width="38.751" height="38.808" transform="matrix(0.74, -0.673, 0.673, 0.74, 0, 26.085)" fill="none" stroke="#b3e2ee" stroke-miterlimit="10" stroke-width="4"/></g><g transform="translate(1202.373 590.991)"><path d="M489.058,660.158a19.438,19.438,0,1,1-1.274,27.454A19.422,19.422,0,0,1,489.058,660.158Z" transform="translate(-474.722 -647.205)" fill="none" stroke="#b3e2ee" stroke-miterlimit="10" stroke-width="4"/><rect width="38.757" height="38.809" transform="matrix(0.739, -0.673, 0.673, 0.739, 0, 26.09)" fill="none" stroke="#b3e2ee" stroke-miterlimit="10" stroke-width="4"/></g><g transform="translate(1209.814 439.037)"><path d="M490.414,632.421a19.434,19.434,0,1,1-1.28,27.454A19.432,19.432,0,0,1,490.414,632.421Z" transform="translate(-476.075 -619.466)" fill="none" stroke="#b3e2ee" stroke-miterlimit="10" stroke-width="4"/><rect width="38.758" height="38.807" transform="matrix(0.739, -0.673, 0.673, 0.739, 0, 26.091)" fill="none" stroke="#b3e2ee" stroke-miterlimit="10" stroke-width="4"/></g><g transform="translate(1254.96 388.637)"><path d="M493.967,628.824a19.44,19.44,0,1,1,9,25.971A19.428,19.428,0,0,1,493.967,628.824Z" transform="translate(-485.533 -611.487)" fill="none" stroke="#b3e2ee" stroke-miterlimit="10" stroke-width="4"/><rect width="38.758" height="38.807" transform="translate(0 34.86) rotate(-64.083)" fill="none" stroke="#b3e2ee" stroke-miterlimit="10" stroke-width="4"/></g><g transform="translate(1278.472 326.408)"><path d="M495.3,623.975a19.436,19.436,0,1,1,18.462,20.363A19.428,19.428,0,0,1,495.3,623.975Z" transform="translate(-494.413 -604.693)" fill="none" stroke="#b3e2ee" stroke-miterlimit="10" stroke-width="4"/><rect width="38.757" height="38.806" transform="translate(0 38.71) rotate(-87.179)" fill="none" stroke="#b3e2ee" stroke-miterlimit="10" stroke-width="4"/></g><g transform="translate(1273.469 250.551)"><path d="M495.133,615.133a19.435,19.435,0,1,1,22.719,15.479A19.433,19.433,0,0,1,495.133,615.133Z" transform="translate(-491.612 -588.939)" fill="none" stroke="#b3e2ee" stroke-miterlimit="10" stroke-width="4"/><rect width="38.805" height="38.757" transform="translate(0 7.208) rotate(-10.705)" fill="none" stroke="#b3e2ee" stroke-miterlimit="10" stroke-width="4"/></g><g transform="translate(1245.866 179.179)"><path d="M493.125,608.942a19.435,19.435,0,1,1,26.6,6.943A19.438,19.438,0,0,1,493.125,608.942Z" transform="translate(-483.43 -572.651)" fill="none" stroke="#b3e2ee" stroke-miterlimit="10" stroke-width="4"/><path d="M489.188,598l33.505-19.581,19.559,33.435-33.479,19.617Z" transform="translate(-489.188 -578.417)" fill="none" stroke="#b3e2ee" stroke-miterlimit="10" stroke-width="4"/></g><g transform="translate(1149.031 747.926)"><path d="M479.351,688.8a19.44,19.44,0,1,1-1.28,27.459A19.427,19.427,0,0,1,479.351,688.8Z" transform="translate(-465.009 -675.855)" fill="none" stroke="#b3e2ee" stroke-miterlimit="10" stroke-width="4"/><rect width="38.756" height="38.81" transform="matrix(0.74, -0.673, 0.673, 0.74, 0, 26.084)" fill="none" stroke="#b3e2ee" stroke-miterlimit="10" stroke-width="4"/></g><g transform="translate(1146.316 809.582)"><path d="M479.581,699.4a19.441,19.441,0,1,1-2.664,27.355A19.424,19.424,0,0,1,479.581,699.4Z" transform="translate(-464.595 -687.191)" fill="none" stroke="#b3e2ee" stroke-miterlimit="10" stroke-width="4"/><rect width="38.756" height="38.814" transform="translate(0 24.603) rotate(-39.406)" fill="none" stroke="#b3e2ee" stroke-miterlimit="10" stroke-width="4"/></g><g transform="translate(1185.437 858.613)"><path d="M486.926,708.161a19.435,19.435,0,1,1-3.082,27.3A19.414,19.414,0,0,1,486.926,708.161Z" transform="translate(-471.754 -696.176)" fill="none" stroke="#b3e2ee" stroke-miterlimit="10" stroke-width="4"/><rect width="38.753" height="38.808" transform="matrix(0.782, -0.623, 0.623, 0.782, 0, 24.152)" fill="none" stroke="#b3e2ee" stroke-miterlimit="10" stroke-width="4"/></g><g transform="translate(1190.172 710.446)"><path d="M486.84,681.958a19.438,19.438,0,1,1-1.28,27.454A19.432,19.432,0,0,1,486.84,681.958Z" transform="translate(-472.502 -669.012)" fill="none" stroke="#b3e2ee" stroke-miterlimit="10" stroke-width="4"/><rect width="38.751" height="38.809" transform="translate(0 26.084) rotate(-42.309)" fill="none" stroke="#b3e2ee" stroke-miterlimit="10" stroke-width="4"/></g><g transform="translate(1108.484 1011.279)"><path d="M473.607,735.356a19.438,19.438,0,1,1-4.554,27.1A19.427,19.427,0,0,1,473.607,735.356Z" transform="translate(-457.799 -724.207)" fill="none" stroke="#b3e2ee" stroke-miterlimit="10" stroke-width="4"/><rect width="38.761" height="38.806" transform="translate(0 22.476) rotate(-35.441)" fill="none" stroke="#b3e2ee" stroke-miterlimit="10" stroke-width="4"/></g><g transform="translate(1103.619 1079.08)"><path d="M473.152,747.384a19.439,19.439,0,1,1-5.334,26.966A19.434,19.434,0,0,1,473.152,747.384Z" transform="translate(-457.03 -736.699)" fill="none" stroke="#b3e2ee" stroke-miterlimit="10" stroke-width="4"/><rect width="38.751" height="38.815" transform="translate(0 21.546) rotate(-33.78)" fill="none" stroke="#b3e2ee" stroke-miterlimit="10" stroke-width="4"/></g><g transform="translate(1153.665 978.589)"><path d="M481.962,729.367a19.437,19.437,0,1,1-4.592,27.1A19.429,19.429,0,0,1,481.962,729.367Z" transform="translate(-466.142 -718.251)" fill="none" stroke="#b3e2ee" stroke-miterlimit="10" stroke-width="4"/><rect width="38.751" height="38.804" transform="translate(0 22.424) rotate(-35.357)" fill="none" stroke="#b3e2ee" stroke-miterlimit="10" stroke-width="4"/></g><path d="M496.755,576.776a16.545,16.545,0,1,1-23.373-1.071A16.566,16.566,0,0,1,496.755,576.776Z" transform="translate(661.393 -430.792)" fill="none" stroke="#b3e2ee" stroke-miterlimit="10" stroke-width="4"/><rect width="33.03" height="33.035" transform="matrix(0.739, -0.674, 0.674, 0.739, 1122.539, 156.034)" fill="none" stroke="#b3e2ee" stroke-miterlimit="10" stroke-width="4"/><line x1="442.292" y2="403.248" transform="translate(817.978 142.132)" fill="none" stroke="#b3e2ee" stroke-miterlimit="10" stroke-width="4"/><rect width="146.016" height="146.013" transform="translate(1130.965 537.636) rotate(-42.357)" fill="none" stroke="#b3e2ee" stroke-miterlimit="10" stroke-width="4"/><rect width="82.383" height="82.379" transform="translate(529.963 364.859) rotate(-47.647)" fill="none" stroke="#b3e2ee" stroke-miterlimit="10" stroke-width="4"/><path d="M375.019,676.041a41.2,41.2,0,1,0-2.692-58.2A41.207,41.207,0,0,0,375.019,676.041Z" transform="translate(185.366 -283.446)" fill="none" stroke="#b3e2ee" stroke-miterlimit="10" stroke-width="4"/><rect width="187.349" height="187.361" transform="translate(451.714 1095.269) rotate(-54.384)" fill="none" stroke="#b3e2ee" stroke-miterlimit="10" stroke-width="4"/><rect width="187.357" height="187.362" transform="matrix(0.642, -0.767, 0.767, 0.642, 409.615, 816.315)" fill="none" stroke="#b3e2ee" stroke-miterlimit="10" stroke-width="4"/><rect width="187.357" height="187.363" transform="translate(391.436 547.186) rotate(-47.642)" fill="none" stroke="#b3e2ee" stroke-miterlimit="10" stroke-width="4"/><rect width="329.432" height="329.432" transform="matrix(0.674, -0.739, 0.739, 0.674, 335.036, 243.558)" fill="none" stroke="#b3e2ee" stroke-miterlimit="10" stroke-width="4"/><path d="M386.043,826.683a41.195,41.195,0,1,0-9.508-57.479A41.2,41.2,0,0,0,386.043,826.683Z" transform="translate(217.832 377.554)" fill="none" stroke="#b3e2ee" stroke-miterlimit="10" stroke-width="4"/><path d="M384.374,815.241a34.191,34.191,0,1,0-7.872-47.7A34.185,34.185,0,0,0,384.374,815.241Z" transform="translate(223.576 383.301)" fill="none" stroke="#b3e2ee" stroke-miterlimit="10" stroke-width="4"/><rect width="82.388" height="82.377" transform="matrix(0.582, -0.813, 0.813, 0.582, 570.397, 1180.221)" fill="none" stroke="#b3e2ee" stroke-miterlimit="10" stroke-width="4"/><path d="M367.109,647.11a20.532,20.532,0,1,0,29-1.329A20.542,20.542,0,0,0,367.109,647.11Z" transform="translate(186.205 -122.028)" fill="none" stroke="#b3e2ee" stroke-miterlimit="10" stroke-width="4"/><rect width="40.999" height="41.002" transform="matrix(0.674, -0.739, 0.739, 0.674, 539.587, 540.227)" fill="none" stroke="#b3e2ee" stroke-miterlimit="10" stroke-width="4"/><rect width="41.003" height="40.999" opacity="0.5" fill="none" stroke="#b3e2ee" stroke-miterlimit="10" stroke-width="4" transform="matrix(0.674, -0.739, 0.739, 0.674, 459.625, 411.685)"/><path d="M375.864,670.863a20.526,20.526,0,1,0,28.987-1.34A20.519,20.519,0,0,0,375.864,670.863Z" transform="translate(225.41 -15.684)" fill="none" stroke="#b3e2ee" stroke-miterlimit="10" stroke-width="4"/><rect width="41.002" height="41.001" transform="matrix(0.674, -0.739, 0.739, 0.674, 587.538, 670.318)" fill="none" stroke="#b3e2ee" stroke-miterlimit="10" stroke-width="4"/><path d="M370.67,724.3a20.528,20.528,0,1,0-1.329-28.987A20.5,20.5,0,0,0,370.67,724.3Z" transform="translate(196.185 93.8)" fill="none" stroke="#b3e2ee" stroke-miterlimit="10" stroke-width="4"/><rect width="40.997" height="41.001" transform="translate(551.792 804.254) rotate(-47.644)" fill="none" stroke="#b3e2ee" stroke-miterlimit="10" stroke-width="4"/><path d="M379.313,718.77a20.527,20.527,0,1,0,28.833-3.2A20.507,20.507,0,0,0,379.313,718.77Z" transform="translate(244.663 194.381)" fill="none" stroke="#b3e2ee" stroke-miterlimit="10" stroke-width="4"/><rect width="41.009" height="41" transform="translate(611.231 929.145) rotate(-51.335)" fill="none" stroke="#b3e2ee" stroke-miterlimit="10" stroke-width="4"/><path d="M376.641,743.9a20.528,20.528,0,1,0,28.805-3.477A20.521,20.521,0,0,0,376.641,743.9Z" transform="translate(233.292 306.26)" fill="none" stroke="#b3e2ee" stroke-miterlimit="10" stroke-width="4"/><rect width="41.006" height="40.999" transform="translate(597.607 1067.948) rotate(-55.255)" fill="none" stroke="#b3e2ee" stroke-miterlimit="10" stroke-width="4"/><path d="M384.614,649.361a41.206,41.206,0,1,0,58.2-2.681A41.212,41.212,0,0,0,384.614,649.361Z" transform="translate(240.385 -142.182)" fill="none" stroke="#b3e2ee" stroke-miterlimit="10" stroke-width="4"/><rect width="82.38" height="82.383" transform="matrix(0.674, -0.739, 0.739, 0.674, 597.249, 537.645)" fill="none" stroke="#b3e2ee" stroke-miterlimit="10" stroke-width="4"/><rect width="82.384" height="82.38" transform="translate(456.755 353.705) rotate(-47.65)" fill="none" stroke="#b3e2ee" stroke-miterlimit="10" stroke-width="4"/><rect width="82.378" height="82.378" transform="translate(517.47 409.042) rotate(-47.647)" fill="none" stroke="#b3e2ee" stroke-miterlimit="10" stroke-width="4"/><rect width="82.38" height="82.379" transform="translate(572.805 348.339) rotate(-47.647)" fill="none" stroke="#b3e2ee" stroke-miterlimit="10" stroke-width="4"/><rect width="82.377" height="82.378" transform="translate(512.11 292.99) rotate(-47.647)" fill="none" stroke="#b3e2ee" stroke-miterlimit="10" stroke-width="4"/><rect width="82.376" height="82.376" transform="translate(567.458 232.759) rotate(-47.647)" fill="none" stroke="#b3e2ee" stroke-miterlimit="10" stroke-width="4"/><rect width="82.379" height="82.376" transform="translate(622.81 171.886) rotate(-47.647)" fill="none" stroke="#b3e2ee" stroke-miterlimit="10" stroke-width="4"/><g transform="translate(628.068 166.506)"><rect width="82.378" height="82.378" transform="translate(0 121.754) rotate(-47.649)" fill="none" stroke="#b3e2ee" stroke-miterlimit="10" stroke-width="4"/><rect width="82.377" height="82.378" transform="translate(55.507 60.877) rotate(-47.646)" fill="none" stroke="#b3e2ee" stroke-miterlimit="10" stroke-width="4"/></g><rect width="82.382" height="82.38" transform="translate(446.044 121.756) rotate(-47.643)" fill="none" stroke="#b3e2ee" stroke-miterlimit="10" stroke-width="4"/><rect width="82.382" height="82.383" transform="translate(501.398 60.88) rotate(-47.646)" fill="none" stroke="#b3e2ee" stroke-miterlimit="10" stroke-width="4"/><g transform="translate(506.673 55.506)"><rect width="82.378" height="82.375" transform="matrix(0.674, -0.739, 0.739, 0.674, 0, 121.755)" fill="none" stroke="#b3e2ee" stroke-miterlimit="10" stroke-width="4"/><rect width="82.382" height="82.375" transform="matrix(0.674, -0.739, 0.739, 0.674, 55.507, 60.877)" fill="none" stroke="#b3e2ee" stroke-miterlimit="10" stroke-width="4"/></g><path d="M345.576,808.51c5.905,127.812,114.272,226.583,242.04,220.677,127.872-5.911,226.582-114.239,220.677-242.046-5.9-127.834-114.173-226.577-242.045-220.677C438.485,572.364,339.671,680.681,345.576,808.51Z" transform="translate(112.099 -454.071)" fill="none" stroke="#b3e2ee" stroke-miterlimit="10" stroke-width="4"/><path d="M364.322,732.783a41.2,41.2,0,1,0-2.686-58.2A41.2,41.2,0,0,0,364.322,732.783Z" transform="translate(137.479 -29.341)" fill="none" stroke="#b3e2ee" stroke-miterlimit="10" stroke-width="4"/><rect width="82.381" height="82.379" transform="translate(471.381 675.702) rotate(-47.652)" fill="none" stroke="#b3e2ee" stroke-miterlimit="10" stroke-width="4"/><path d="M386.843,697.563a41.2,41.2,0,1,0,58.2-2.7A41.179,41.179,0,0,0,386.843,697.563Z" transform="translate(250.339 73.581)" fill="none" stroke="#b3e2ee" stroke-miterlimit="10" stroke-width="4"/><rect width="82.383" height="82.381" transform="matrix(0.674, -0.739, 0.739, 0.674, 609.435, 801.584)" fill="none" stroke="#b3e2ee" stroke-miterlimit="10" stroke-width="4"/><path d="M364.29,724.51a41.2,41.2,0,1,0,57.913-6.432A41.225,41.225,0,0,0,364.29,724.51Z" transform="translate(157.1 185.304)" fill="none" stroke="#b3e2ee" stroke-miterlimit="10" stroke-width="4"/><rect width="82.373" height="82.377" transform="matrix(0.625, -0.781, 0.781, 0.625, 495.675, 941.985)" fill="none" stroke="#b3e2ee" stroke-miterlimit="10" stroke-width="4"/><path d="M393.05,746.142a41.2,41.2,0,1,0,57.853-7A41.191,41.191,0,0,0,393.05,746.142Z" transform="translate(287.004 280.711)" fill="none" stroke="#b3e2ee" stroke-miterlimit="10" stroke-width="4"/><rect width="82.378" height="82.377" transform="translate(654.648 1059.251) rotate(-51.896)" fill="none" stroke="#b3e2ee" stroke-miterlimit="10" stroke-width="4"/><rect width="41.189" height="41.192" transform="matrix(0.674, -0.739, 0.739, 0.674, 572.879, 348.288)" fill="none" stroke="#b3e2ee" stroke-miterlimit="10" stroke-width="4"/><rect width="20.589" height="20.593" transform="translate(572.922 348.268) rotate(-47.648)" fill="none" stroke="#b3e2ee" stroke-miterlimit="10" stroke-width="4"/><path d="M384.924,576.441a34.346,34.346,0,1,0,48.52-2.23A34.372,34.372,0,0,0,384.924,576.441Z" transform="translate(249.866 -458.417)" fill="none" stroke="#b3e2ee" stroke-miterlimit="10" stroke-width="4"/><path d="M373.12,743.255a82.438,82.438,0,1,0-5.339-116.469A82.441,82.441,0,0,0,373.12,743.255Z" transform="translate(116.674 -303.58)" fill="none" stroke="#b3e2ee" stroke-miterlimit="10" stroke-width="4"/><line y1="27.614" x2="597.889" transform="translate(390.098 329.093)" fill="none" stroke="#b3e2ee" stroke-miterlimit="10" stroke-width="4"/><line x2="27.61" y2="597.894" transform="translate(675.223 44.812)" fill="none" stroke="#b3e2ee" stroke-miterlimit="10" stroke-width="4"/><g transform="translate(446.694 280.103)"><line y1="9.123" x2="197.325" transform="translate(0 94.111)" fill="none" stroke="#b3e2ee" stroke-miterlimit="10" stroke-width="4"/><line x2="9.109" y2="197.333" transform="translate(94.106)" fill="none" stroke="#b3e2ee" stroke-miterlimit="10" stroke-width="4"/></g><g transform="translate(538.315 312.313)"><line y1="4.601" x2="99.679" transform="translate(0 47.54)" fill="none" stroke="#b3e2ee" stroke-miterlimit="10" stroke-width="4"/><line x2="4.603" y2="99.69" transform="translate(47.538)" fill="none" stroke="#b3e2ee" stroke-miterlimit="10" stroke-width="4"/></g><g transform="translate(610.594 91.579)"><line y1="4.582" x2="99.165" transform="translate(0 47.292)" fill="none" stroke="#b3e2ee" stroke-miterlimit="10" stroke-width="4"/><line x2="4.576" y2="99.164" transform="translate(47.292)" fill="none" stroke="#b3e2ee" stroke-miterlimit="10" stroke-width="4"/></g><g transform="translate(450.845 590.356)"><line y1="10.805" x2="233.824" transform="translate(0 75.517)" fill="none" stroke="#b3e2ee" stroke-miterlimit="10" stroke-width="4"/><line x2="7.263" y2="157.335" transform="translate(75.031 4.023)" fill="none" stroke="#b3e2ee" stroke-miterlimit="10" stroke-width="4"/><line x2="7.263" y2="157.334" transform="translate(162.152)" fill="none" stroke="#b3e2ee" stroke-miterlimit="10" stroke-width="4"/></g><g transform="translate(475.228 847.654)"><line y1="25.835" x2="232.65" transform="translate(0 70.744)" fill="none" stroke="#b3e2ee" stroke-miterlimit="10" stroke-width="4"/><line x2="17.375" y2="156.541" transform="translate(69.586 9.613)" fill="none" stroke="#b3e2ee" stroke-miterlimit="10" stroke-width="4"/><line x2="17.381" y2="156.53" transform="translate(156.257)" fill="none" stroke="#b3e2ee" stroke-miterlimit="10" stroke-width="4"/></g><g transform="translate(512.838 720.212)"><line x1="233.824" y2="10.803" transform="translate(0 75.021)" fill="none" stroke="#b3e2ee" stroke-miterlimit="10" stroke-width="4"/><line x1="7.263" y1="157.331" transform="translate(151.284)" fill="none" stroke="#b3e2ee" stroke-miterlimit="10" stroke-width="4"/><line x1="7.263" y1="157.334" transform="translate(64.12 4.019)" fill="none" stroke="#b3e2ee" stroke-miterlimit="10" stroke-width="4"/></g><g transform="translate(558.64 974.08)"><line x1="232.376" y2="28.109" transform="translate(0 68.684)" fill="none" stroke="#b3e2ee" stroke-miterlimit="10" stroke-width="4"/><line x1="18.904" y1="156.358" transform="translate(144.503)" fill="none" stroke="#b3e2ee" stroke-miterlimit="10" stroke-width="4"/><line x1="18.909" y1="156.359" transform="translate(57.875 10.471)" fill="none" stroke="#b3e2ee" stroke-miterlimit="10" stroke-width="4"/></g><g transform="translate(542.143 1084.3)"><line y1="28.313" x2="171.454" transform="translate(0 71.57)" fill="none" stroke="#b3e2ee" stroke-miterlimit="10" stroke-width="4"/><line x2="28.329" y2="171.452" transform="translate(71.565)" fill="none" stroke="#b3e2ee" stroke-miterlimit="10" stroke-width="4"/></g><path d="M341.678,827.124c6.449,139.7,124.9,247.648,264.55,241.2,139.76-6.46,247.659-124.857,241.2-264.556-6.454-139.727-124.8-247.654-264.561-241.2C443.217,569.017,335.224,687.392,341.678,827.124Z" transform="translate(94.482 -471.685)" fill="none" stroke="#b3e2ee" stroke-miterlimit="10" stroke-width="4"/><g transform="translate(512.494 483.901)"><path d="M389.229,640.611a19.44,19.44,0,1,0,1.274,27.454A19.426,19.426,0,0,0,389.229,640.611Z" transform="translate(-348.786 -627.662)" fill="none" stroke="#b3e2ee" stroke-miterlimit="10" stroke-width="4"/><rect width="38.809" height="38.751" transform="translate(0 28.7) rotate(-47.69)" fill="none" stroke="#b3e2ee" stroke-miterlimit="10" stroke-width="4"/></g><g transform="translate(512.494 544.068)"><path d="M389.229,651.591a19.44,19.44,0,1,0,1.274,27.454A19.427,19.427,0,0,0,389.229,651.591Z" transform="translate(-348.786 -638.644)" fill="none" stroke="#b3e2ee" stroke-miterlimit="10" stroke-width="4"/><rect width="38.808" height="38.751" transform="matrix(0.673, -0.74, 0.74, 0.673, 0, 28.699)" fill="none" stroke="#b3e2ee" stroke-miterlimit="10" stroke-width="4"/></g><g transform="translate(471.499 590.991)"><path d="M381.75,660.158a19.438,19.438,0,1,0,1.274,27.454A19.422,19.422,0,0,0,381.75,660.158Z" transform="translate(-341.301 -647.205)" fill="none" stroke="#b3e2ee" stroke-miterlimit="10" stroke-width="4"/><rect width="38.809" height="38.757" transform="matrix(0.673, -0.739, 0.739, 0.673, 0, 28.699)" fill="none" stroke="#b3e2ee" stroke-miterlimit="10" stroke-width="4"/></g><g transform="translate(464.078 439.037)"><path d="M380.392,632.421a19.434,19.434,0,1,0,1.28,27.454A19.431,19.431,0,0,0,380.392,632.421Z" transform="translate(-339.947 -619.466)" fill="none" stroke="#b3e2ee" stroke-miterlimit="10" stroke-width="4"/><rect width="38.807" height="38.758" transform="matrix(0.673, -0.739, 0.739, 0.673, 0, 28.697)" fill="none" stroke="#b3e2ee" stroke-miterlimit="10" stroke-width="4"/></g><g transform="translate(421.987 388.637)"><path d="M376.862,628.824a19.438,19.438,0,1,0-9,25.971A19.428,19.428,0,0,0,376.862,628.824Z" transform="translate(-333.453 -611.487)" fill="none" stroke="#b3e2ee" stroke-miterlimit="10" stroke-width="4"/><rect width="38.807" height="38.758" transform="translate(0 16.961) rotate(-25.917)" fill="none" stroke="#b3e2ee" stroke-miterlimit="10" stroke-width="4"/></g><g transform="translate(409.694 326.408)"><path d="M375.53,623.975a19.436,19.436,0,1,0-18.462,20.363A19.425,19.425,0,0,0,375.53,623.975Z" transform="translate(-335.755 -604.694)" fill="none" stroke="#b3e2ee" stroke-miterlimit="10" stroke-width="4"/><rect width="38.806" height="38.757" transform="translate(0 1.91) rotate(-2.821)" fill="none" stroke="#b3e2ee" stroke-miterlimit="10" stroke-width="4"/></g><g transform="translate(410.03 250.551)"><path d="M375.709,615.133a19.435,19.435,0,1,0-22.719,15.479A19.433,19.433,0,0,0,375.709,615.133Z" transform="translate(-333.901 -588.939)" fill="none" stroke="#b3e2ee" stroke-miterlimit="10" stroke-width="4"/><rect width="38.757" height="38.805" transform="translate(0 38.082) rotate(-79.295)" fill="none" stroke="#b3e2ee" stroke-miterlimit="10" stroke-width="4"/></g><g transform="translate(429.839 179.179)"><path d="M377.712,608.942a19.435,19.435,0,1,0-26.592,6.943A19.438,19.438,0,0,0,377.712,608.942Z" transform="translate(-334.344 -572.651)" fill="none" stroke="#b3e2ee" stroke-miterlimit="10" stroke-width="4"/><path d="M393.256,598,359.75,578.417l-19.559,33.435,33.479,19.617Z" transform="translate(-340.192 -578.417)" fill="none" stroke="#b3e2ee" stroke-miterlimit="10" stroke-width="4"/></g><g transform="translate(524.701 747.926)"><path d="M391.46,688.8a19.442,19.442,0,1,0,1.274,27.459A19.426,19.426,0,0,0,391.46,688.8Z" transform="translate(-351.012 -675.855)" fill="none" stroke="#b3e2ee" stroke-miterlimit="10" stroke-width="4"/><rect width="38.81" height="38.756" transform="matrix(0.673, -0.74, 0.74, 0.673, 0, 28.705)" fill="none" stroke="#b3e2ee" stroke-miterlimit="10" stroke-width="4"/></g><g transform="translate(527.608 809.582)"><path d="M391.23,699.4a19.443,19.443,0,1,0,2.659,27.355A19.43,19.43,0,0,0,391.23,699.4Z" transform="translate(-351.626 -687.192)" fill="none" stroke="#b3e2ee" stroke-miterlimit="10" stroke-width="4"/><rect width="38.814" height="38.756" transform="translate(0 29.99) rotate(-50.594)" fill="none" stroke="#b3e2ee" stroke-miterlimit="10" stroke-width="4"/></g><g transform="translate(488.683 858.613)"><path d="M383.878,708.161a19.435,19.435,0,1,0,3.082,27.3A19.407,19.407,0,0,0,383.878,708.161Z" transform="translate(-344.559 -696.176)" fill="none" stroke="#b3e2ee" stroke-miterlimit="10" stroke-width="4"/><rect width="38.808" height="38.753" transform="matrix(0.623, -0.782, 0.782, 0.623, 0, 30.349)" fill="none" stroke="#b3e2ee" stroke-miterlimit="10" stroke-width="4"/></g><g transform="translate(483.673 710.447)"><path d="M383.968,681.958a19.438,19.438,0,1,0,1.28,27.454A19.432,19.432,0,0,0,383.968,681.958Z" transform="translate(-343.526 -669.013)" fill="none" stroke="#b3e2ee" stroke-miterlimit="10" stroke-width="4"/><rect width="38.809" height="38.751" transform="translate(0 28.7) rotate(-47.691)" fill="none" stroke="#b3e2ee" stroke-miterlimit="10" stroke-width="4"/></g><g transform="translate(566.454 1011.279)"><path d="M397.2,735.356a19.438,19.438,0,1,0,4.554,27.1A19.42,19.42,0,0,0,397.2,735.356Z" transform="translate(-358.925 -724.207)" fill="none" stroke="#b3e2ee" stroke-miterlimit="10" stroke-width="4"/><rect width="38.806" height="38.761" transform="translate(0 31.616) rotate(-54.559)" fill="none" stroke="#b3e2ee" stroke-miterlimit="10" stroke-width="4"/></g><g transform="translate(571.61 1079.08)"><path d="M397.652,747.384a19.439,19.439,0,1,0,5.334,26.966A19.434,19.434,0,0,0,397.652,747.384Z" transform="translate(-359.985 -736.699)" fill="none" stroke="#b3e2ee" stroke-miterlimit="10" stroke-width="4"/><rect width="38.815" height="38.751" transform="translate(0 32.262) rotate(-56.22)" fill="none" stroke="#b3e2ee" stroke-miterlimit="10" stroke-width="4"/></g><g transform="translate(520.804 978.589)"><path d="M388.839,729.367a19.437,19.437,0,1,0,4.592,27.1A19.422,19.422,0,0,0,388.839,729.367Z" transform="translate(-350.602 -718.251)" fill="none" stroke="#b3e2ee" stroke-miterlimit="10" stroke-width="4"/><rect width="38.804" height="38.751" transform="translate(0 31.647) rotate(-54.643)" fill="none" stroke="#b3e2ee" stroke-miterlimit="10" stroke-width="4"/></g><path d="M369.35,576.776a16.545,16.545,0,1,0,23.373-1.071A16.566,16.566,0,0,0,369.35,576.776Z" transform="translate(200.932 -430.792)" fill="none" stroke="#b3e2ee" stroke-miterlimit="10" stroke-width="4"/><rect width="33.035" height="33.03" transform="matrix(0.674, -0.739, 0.739, 0.674, 559.229, 158.19)" fill="none" stroke="#b3e2ee" stroke-miterlimit="10" stroke-width="4"/><line x2="442.292" y2="403.248" transform="translate(467.891 142.132)" fill="none" stroke="#b3e2ee" stroke-miterlimit="10" stroke-width="4"/><rect width="146.013" height="146.016" transform="translate(391.496 547.155) rotate(-47.643)" fill="none" stroke="#b3e2ee" stroke-miterlimit="10" stroke-width="4"/><path d="M512.765,1589.445C421.037,1366.718,388.732,1136.1,388.732,898.228c0-102.544,6.542-205.308,23.659-306.446H499.9C478.752,688,472.188,786.637,472.188,884.891c0,206.461,25.614,425.963,85.356,624.888,59.737-198.925,85.351-418.427,85.351-624.888,0-98.254-6.559-196.893-27.707-293.109H702.7c17.1,101.138,23.653,203.9,23.653,306.446,0,237.871-32.3,468.49-124.033,691.217Z" transform="translate(306.54 -341.164)" fill="none" stroke="#b3e2ee" stroke-miterlimit="10" stroke-width="4"/><path d="M634.947,564.749H311.1v1110.9H634.947" transform="translate(-40.804 -460.649)" fill="none" stroke="#b3e2ee" stroke-miterlimit="10" stroke-width="4"/><path d="M749.686,564.749H285.567V1710.905H959.141" transform="translate(-154.646 -460.649)" fill="none" stroke="#b3e2ee" stroke-miterlimit="10" stroke-width="4"/><path d="M977.132,591.782h-715.4v997.661H902.7" transform="translate(-261.733 -341.162)" fill="none" stroke="#b3e2ee" stroke-miterlimit="10" stroke-width="4"/><path d="M337.712,601.574V1794.866h898.047V596.941" transform="translate(76.088 -319.774)" fill="none" stroke="#b3e2ee" stroke-miterlimit="10" stroke-width="4"/><path d="M411.292,776.179V898.045h89.691V775.786" transform="translate(406.007 483.788)" fill="none" stroke="#b3e2ee" stroke-miterlimit="10" stroke-width="4"/></g><g transform="translate(668.878 646.571)"><path d="M511.309,1588.838c-91.728-222.721-124.033-453.346-124.033-691.217,0-102.544,6.542-205.3,23.653-306.446h87.515C477.3,687.391,470.732,786.03,470.732,884.284c0,206.461,25.614,425.963,85.356,624.888,59.737-198.925,85.345-418.427,85.345-624.888,0-98.254-6.553-196.893-27.7-293.109h87.515c17.1,101.144,23.653,203.9,23.653,306.446,0,237.871-32.3,468.5-124.033,691.217Z" transform="translate(-101.361 -442.69)" fill="none" stroke="#000" stroke-miterlimit="10" stroke-width="4"/><path d="M480.121,640a19.442,19.442,0,1,1-1.28,27.459A19.437,19.437,0,0,1,480.121,640Z" transform="translate(287.346 -245.979)" fill="none" stroke="#000" stroke-miterlimit="10" stroke-width="4"/><path d="M480.121,650.984a19.44,19.44,0,1,1-1.28,27.454A19.427,19.427,0,0,1,480.121,650.984Z" transform="translate(287.346 -196.635)" fill="none" stroke="#000" stroke-miterlimit="10" stroke-width="4"/><path d="M487.6,659.551a19.438,19.438,0,1,1-1.274,27.455A19.422,19.422,0,0,1,487.6,659.551Z" transform="translate(320.964 -158.149)" fill="none" stroke="#000" stroke-miterlimit="10" stroke-width="4"/><path d="M477.892,688.194a19.444,19.444,0,1,1-1.275,27.459A19.426,19.426,0,0,1,477.892,688.194Z" transform="translate(277.332 -29.449)" fill="none" stroke="#000" stroke-miterlimit="10" stroke-width="4"/><path d="M478.125,698.792a19.441,19.441,0,1,1-2.664,27.361A19.429,19.429,0,0,1,478.125,698.792Z" transform="translate(275.034 21.036)" fill="none" stroke="#000" stroke-miterlimit="10" stroke-width="4"/><path d="M485.47,707.554a19.435,19.435,0,1,1-3.082,27.3A19.414,19.414,0,0,1,485.47,707.554Z" transform="translate(306.996 61.211)" fill="none" stroke="#000" stroke-miterlimit="10" stroke-width="4"/><path d="M485.384,681.352a19.438,19.438,0,1,1-1.28,27.454A19.436,19.436,0,0,1,485.384,681.352Z" transform="translate(310.983 -60.185)" fill="none" stroke="#000" stroke-miterlimit="10" stroke-width="4"/><path d="M472.151,734.749a19.438,19.438,0,1,1-4.554,27.1A19.427,19.427,0,0,1,472.151,734.749Z" transform="translate(243.385 186.25)" fill="none" stroke="#000" stroke-miterlimit="10" stroke-width="4"/><path d="M471.7,746.775a19.439,19.439,0,1,1-5.334,26.965A19.439,19.439,0,0,1,471.7,746.775Z" transform="translate(239.275 241.739)" fill="none" stroke="#000" stroke-miterlimit="10" stroke-width="4"/><path d="M480.507,728.765a19.435,19.435,0,1,1-4.592,27.1A19.415,19.415,0,0,1,480.507,728.765Z" transform="translate(280.836 159.429)" fill="none" stroke="#000" stroke-miterlimit="10" stroke-width="4"/><path d="M492.511,628.217a19.439,19.439,0,1,1,9,25.971A19.428,19.428,0,0,1,492.511,628.217Z" transform="translate(362.741 -325.322)" fill="none" stroke="#000" stroke-miterlimit="10" stroke-width="4"/><path d="M493.848,623.368a19.436,19.436,0,1,1,18.462,20.363A19.425,19.425,0,0,1,493.848,623.368Z" transform="translate(377.372 -380.93)" fill="none" stroke="#000" stroke-miterlimit="10" stroke-width="4"/><path d="M493.677,614.526A19.436,19.436,0,1,1,516.4,630.006,19.433,19.433,0,0,1,493.677,614.526Z" transform="translate(375.17 -441.229)" fill="none" stroke="#000" stroke-miterlimit="10" stroke-width="4"/><path d="M491.669,608.339a19.437,19.437,0,1,1,26.592,6.938A19.435,19.435,0,0,1,491.669,608.339Z" transform="translate(355.75 -496.97)" fill="none" stroke="#000" stroke-miterlimit="10" stroke-width="4"/><path d="M488.958,631.817a19.436,19.436,0,1,1-1.28,27.454A19.421,19.421,0,0,1,488.958,631.817Z" transform="translate(327.052 -282.77)" fill="none" stroke="#000" stroke-miterlimit="10" stroke-width="4"/><path d="M592.77,1288.745a41.209,41.209,0,0,0-2.7-58.227l-92.9-84.6a20.513,20.513,0,0,1-1.34-29l84.714-92.838a41.178,41.178,0,0,0-2.686-58.21l-123-112.371c-16.82-15.331-16.4-40.214-2.692-58.2l128.059-170.96c12.59-16.5,11.772-35.727-2.247-48.5-7-6.383-20.808-13.826-46.081-11.113C411.165,577.72,330.109,683.587,343.457,806c6.7,61.5,28.63,83.588,40.671,94.563l92.618,84.587a20.511,20.511,0,0,1,1.34,29l-84.659,92.827a41.2,41.2,0,0,0,2.692,58.2l92.865,84.67a20.509,20.509,0,0,1,1.329,29l-74.541,93.415a41.225,41.225,0,0,0,6.427,57.925l111.124,79.264a20.5,20.5,0,0,1,3.5,28.816l-47.872,71.574a41.2,41.2,0,0,0,66.993,47.976l83.774-117.353a41.194,41.194,0,0,0-7-57.847l-110.916-78.2a20.507,20.507,0,0,1-3.208-28.86Z" transform="translate(-304.691 -564.144)" fill="none" stroke="#000" stroke-miterlimit="10" stroke-width="4"/><path d="M370.034,578.365a16.545,16.545,0,1,0,23.367-1.071A16.556,16.556,0,0,0,370.034,578.365Z" transform="translate(-208.232 -532.437)" fill="none" stroke="#000" stroke-miterlimit="10" stroke-width="4"/><path d="M387.774,640a19.442,19.442,0,1,0,1.274,27.459A19.437,19.437,0,0,0,387.774,640Z" transform="translate(-245.172 -245.979)" fill="none" stroke="#000" stroke-miterlimit="10" stroke-width="4"/><path d="M387.774,650.984a19.44,19.44,0,1,0,1.274,27.454A19.427,19.427,0,0,0,387.774,650.984Z" transform="translate(-245.172 -196.635)" fill="none" stroke="#000" stroke-miterlimit="10" stroke-width="4"/><path d="M380.294,659.551a19.438,19.438,0,1,0,1.274,27.455A19.429,19.429,0,0,0,380.294,659.551Z" transform="translate(-278.792 -158.149)" fill="none" stroke="#000" stroke-miterlimit="10" stroke-width="4"/><path d="M390.007,688.194a19.444,19.444,0,1,0,1.274,27.459A19.433,19.433,0,0,0,390.007,688.194Z" transform="translate(-235.161 -29.449)" fill="none" stroke="#000" stroke-miterlimit="10" stroke-width="4"/><path d="M389.774,698.792a19.443,19.443,0,1,0,2.659,27.361A19.435,19.435,0,0,0,389.774,698.792Z" transform="translate(-232.858 21.036)" fill="none" stroke="#000" stroke-miterlimit="10" stroke-width="4"/><path d="M382.422,707.554a19.435,19.435,0,1,0,3.082,27.3A19.407,19.407,0,0,0,382.422,707.554Z" transform="translate(-264.82 61.211)" fill="none" stroke="#000" stroke-miterlimit="10" stroke-width="4"/><path d="M382.512,681.352a19.438,19.438,0,1,0,1.28,27.454A19.436,19.436,0,0,0,382.512,681.352Z" transform="translate(-268.81 -60.185)" fill="none" stroke="#000" stroke-miterlimit="10" stroke-width="4"/><path d="M395.741,734.749a19.438,19.438,0,1,0,4.554,27.1A19.42,19.42,0,0,0,395.741,734.749Z" transform="translate(-201.209 186.25)" fill="none" stroke="#000" stroke-miterlimit="10" stroke-width="4"/><path d="M396.2,746.775a19.439,19.439,0,1,0,5.334,26.965A19.439,19.439,0,0,0,396.2,746.775Z" transform="translate(-197.099 241.739)" fill="none" stroke="#000" stroke-miterlimit="10" stroke-width="4"/><path d="M387.383,728.765a19.435,19.435,0,1,0,4.592,27.1A19.415,19.415,0,0,0,387.383,728.765Z" transform="translate(-238.657 159.429)" fill="none" stroke="#000" stroke-miterlimit="10" stroke-width="4"/><path d="M375.407,628.217a19.439,19.439,0,1,0-9,25.971A19.428,19.428,0,0,0,375.407,628.217Z" transform="translate(-320.59 -325.322)" fill="none" stroke="#000" stroke-miterlimit="10" stroke-width="4"/><path d="M374.074,623.368a19.436,19.436,0,1,0-18.462,20.363A19.425,19.425,0,0,0,374.074,623.368Z" transform="translate(-335.226 -380.93)" fill="none" stroke="#000" stroke-miterlimit="10" stroke-width="4"/><path d="M374.253,614.526a19.436,19.436,0,1,0-22.719,15.479A19.433,19.433,0,0,0,374.253,614.526Z" transform="translate(-333.031 -441.229)" fill="none" stroke="#000" stroke-miterlimit="10" stroke-width="4"/><path d="M376.256,608.339a19.437,19.437,0,1,0-26.592,6.938A19.435,19.435,0,0,0,376.256,608.339Z" transform="translate(-313.606 -496.97)" fill="none" stroke="#000" stroke-miterlimit="10" stroke-width="4"/><path d="M378.936,631.817a19.438,19.438,0,1,0,1.28,27.454A19.421,19.421,0,0,0,378.936,631.817Z" transform="translate(-284.877 -282.77)" fill="none" stroke="#000" stroke-miterlimit="10" stroke-width="4"/><g transform="translate(566.255)"><path d="M494.041,1288.745a41.219,41.219,0,0,1,2.7-58.227l92.9-84.6a20.514,20.514,0,0,0,1.346-29l-84.714-92.838a41.178,41.178,0,0,1,2.686-58.21l123-112.371c16.814-15.331,16.4-40.214,2.692-58.2L506.582,624.334c-12.59-16.5-11.766-35.727,2.247-48.5,7.009-6.383,20.813-13.826,46.081-11.113C675.652,577.72,756.7,683.587,743.359,806c-6.707,61.5-28.63,83.588-40.676,94.563l-92.618,84.587a20.51,20.51,0,0,0-1.335,29l84.653,92.827a41.205,41.205,0,0,1-2.686,58.2l-92.865,84.67a20.51,20.51,0,0,0-1.335,29l74.546,93.415a41.23,41.23,0,0,1-6.427,57.925l-111.13,79.264a20.5,20.5,0,0,0-3.493,28.816l47.872,71.574a41.2,41.2,0,0,1-67,47.976l-83.774-117.353a41.2,41.2,0,0,1,7-57.847l110.916-78.2a20.512,20.512,0,0,0,3.208-28.86Z" transform="translate(-438.311 -564.144)" fill="none" stroke="#000" stroke-miterlimit="10" stroke-width="4"/><path d="M493.162,578.365a16.545,16.545,0,1,1-23.373-1.071A16.566,16.566,0,0,1,493.162,578.365Z" transform="translate(-306.15 -534.437)" fill="none" stroke="#000" stroke-miterlimit="10" stroke-width="4"/></g></g></g></g></svg>