<svg xmlns="http://www.w3.org/2000/svg" xmlns:xlink="http://www.w3.org/1999/xlink" width="1534" height="984" viewBox="0 0 1534 984"><defs><clipPath id="b"><rect width="1534" height="984"/></clipPath></defs><g id="a" clip-path="url(#b)"><rect width="1534" height="984" fill="#fff"/><g transform="translate(-340.702 -56.339)"><path d="M1694.479,541.586a41.445,41.445,0,0,0,1.933-12.6v-22.2a41.856,41.856,0,0,0-2.447-14.14,41.693,41.693,0,0,0,4.074-17.991V452.73a41.708,41.708,0,0,0-41.71-41.71h-81.46a41.658,41.658,0,0,0-9.746,1.14c-.667-.167-1.362-.306-2.043-.431A82.129,82.129,0,0,0,1569.2,401.2a85,85,0,0,0,0-74.021,80.322,80.322,0,0,0-24.553-29.6,77.007,77.007,0,0,0-25.651-12.346,101.169,101.169,0,0,0-26.709-3.226H1464.17a41.531,41.531,0,0,0-26.708,9.677,41.712,41.712,0,0,0-27.515-10.372h-2.614a41.736,41.736,0,0,0-35.315,19.506c-1.307-1.1-2.655-2.169-4.06-3.211a77.246,77.246,0,0,0-25.693-12.374,101.165,101.165,0,0,0-26.708-3.226h-28.113a41.417,41.417,0,0,0-15.947,3.17,41.607,41.607,0,0,0-15.975-3.17h-7.007a41.522,41.522,0,0,0-18.922,4.532,77.487,77.487,0,0,0-7.633-2.642,75.15,75.15,0,0,0-20.786-2.934c-14.417,0-27.6,3.99-38.554,11.637-11.206-7.049-24.8-10.594-40.486-10.594h-19.7a41.838,41.838,0,0,0-13.528,2.238,41.764,41.764,0,0,0-13.528-2.238H1031.47a41.2,41.2,0,0,0-9.7,1.14,41.558,41.558,0,0,0-9.663-1.14h-6.9a41.743,41.743,0,0,0-27.876,10.678,41.681,41.681,0,0,0-27.862-10.678h-7.132a41.9,41.9,0,0,0-9.885,1.182,42.36,42.36,0,0,0-9.927-1.182H915.5a41.691,41.691,0,0,0-15.892,3.142,41.814,41.814,0,0,0-15.905-3.142h-6.493a41.577,41.577,0,0,0-29.67,12.388,41.7,41.7,0,0,0-29.669-12.388H811.1a42.166,42.166,0,0,0-6.41.487,41.586,41.586,0,0,0-22.7-6.715h-7.814a41.652,41.652,0,0,0-30.851,13.639,41.6,41.6,0,0,0-30.838-13.639h-7.591a41.319,41.319,0,0,0-21.369,6.062,47.2,47.2,0,0,0-25.36-17.782A107.615,107.615,0,0,0,591.5,231.569a72.928,72.928,0,0,0-7.716-.417c-15.057,0-29.016,5.172-39.332,14.571a51.72,51.72,0,0,0-16.935,35.412,41.6,41.6,0,0,0-14.432,6.854,41.824,41.824,0,0,0-14.529-6.868,51.681,51.681,0,0,0-16.823-35.4c-7.41-6.7-20.132-14.571-39.374-14.571a73.119,73.119,0,0,0-7.716.417,107.721,107.721,0,0,0-66.681,32.492,47.14,47.14,0,0,0-34.313,42.586,46.493,46.493,0,0,0-5.353,15.794,47.172,47.172,0,0,0,.515,16.615A46.516,46.516,0,0,0,328,356.728a47.087,47.087,0,0,0,4.839,15.1,47.273,47.273,0,0,0,17.532,35.106c.682,1.376,1.432,2.725,2.239,4.046a47.309,47.309,0,0,0-5.3,37.456,53.242,53.242,0,0,0-.083,7.146,58.751,58.751,0,0,0,.862,7.007,47.616,47.616,0,0,0-.292,12.9,46.953,46.953,0,0,0,9.746,23.761,46.581,46.581,0,0,0-4.2,25.416,47.547,47.547,0,0,0,3.128,12.444,54.033,54.033,0,0,0,.779,7.132,48.537,48.537,0,0,0,1.6,6.785,46.826,46.826,0,0,0,1.2,12.986,46.349,46.349,0,0,0,20.924,29.281c.25.153.487.32.751.459.069.32.139.64.194.945.153.653.32,1.293.487,1.933A54.736,54.736,0,0,0,457.4,655.511a41.708,41.708,0,0,0,36.4,21.369h38.541a41.746,41.746,0,0,0,36.413-21.369,54.695,54.695,0,0,0,74.967-58.825c.181-.625.334-1.265.487-1.891.083-.362.153-.7.208-1.043.348-.195.681-.4,1-.612a46.285,46.285,0,0,0,17.727-20.382v11.554a41.716,41.716,0,0,0,41.71,41.71H795.71a41.079,41.079,0,0,0,8.537-.89,41.679,41.679,0,0,0,8.578.89h83.518a41.617,41.617,0,0,0,27.292-10.177,41.691,41.691,0,0,0,27.32,10.177h50.734c24.039,0,44.463-6.409,60.716-19.02a113.006,113.006,0,0,0,66.1,21.258,114.055,114.055,0,0,0,42.335-7.967,111.874,111.874,0,0,0,16.837-8.411,93.326,93.326,0,0,0,21.551,10.983,99.884,99.884,0,0,0,33.146,5.395c20.632,0,39.207-6.437,53.987-18.645a111.972,111.972,0,0,0,26.43,12.611,204.55,204.55,0,0,0,34.772,19.033c15.684,6.507,30.754,9.816,44.825,9.816,2.168,0,3.74-.055,4.81-.1a57.4,57.4,0,0,0,7.98-1.015l.765-.139a41.727,41.727,0,0,0,19.354-9.441l19.229-16.7a39.125,39.125,0,0,0,3.086-2.976,108.855,108.855,0,0,0,40.654,7.55c18.505,0,35.523-3.976,50.247-11.623a41.514,41.514,0,0,0,26.36,9.385h83.337a41.708,41.708,0,0,0,41.71-41.71V562.205A41.581,41.581,0,0,0,1694.479,541.586Z" transform="translate(94.676 94.692)" fill="#f1d700"/><g transform="translate(463.911 367.557)"><path d="M617.12,308.13a5.353,5.353,0,0,0-3.532-2.114,7.6,7.6,0,0,0-.765-.056,5.37,5.37,0,0,0-5.3,4.491l.027-.264a74.956,74.956,0,0,0-.278-18.547,5.392,5.392,0,0,0,5.255,4.31,4.906,4.906,0,0,0,.778-.056,5.373,5.373,0,0,0,4.546-6.09,5.378,5.378,0,0,0-5.311-4.6,7.59,7.59,0,0,0-.779.056,5.387,5.387,0,0,0-4.574,5.812,69.527,69.527,0,0,0-5.214-17.936,5.288,5.288,0,0,0,2.906,2.573,5.4,5.4,0,0,0,1.863.347,5.253,5.253,0,0,0,2.238-.5,5.325,5.325,0,0,0,2.795-3.017,5.256,5.256,0,0,0-.153-4.1,5.367,5.367,0,0,0-9.885,4.171,65.635,65.635,0,0,0-53.431-38.276c-7.939-.848-12.291,1.488-14.487,3.49-4.408,4.018-4.658,10.066-.709,15.252l42.058,53.361a12.962,12.962,0,0,1-.89,17.323L534.937,363.1a12.939,12.939,0,0,0,0,18.311l27,27.042a5.3,5.3,0,0,1-.431,7.953l-29.864,23.844a12.954,12.954,0,0,0-4.616,7.522,691.175,691.175,0,0,0,4.115-75.523,689.925,689.925,0,0,0-5.8-89.413H499.108a689.925,689.925,0,0,1,5.8,89.413A685.373,685.373,0,0,1,474.36,575.089a684.924,684.924,0,0,1-30.574-202.836,692.44,692.44,0,0,1,5.8-89.413H423.348a695.548,695.548,0,0,0-1.682,164.936,12.931,12.931,0,0,0-4.6-7.522L387.2,416.41a5.286,5.286,0,0,1-.444-7.953l27-27.042a12.906,12.906,0,0,0,0-18.311l-39.333-39.347a12.963,12.963,0,0,1-.9-17.323l42.058-53.361c3.963-5.186,3.712-11.234-.709-15.252-2.2-2-6.548-4.338-14.487-3.49a65.636,65.636,0,0,0-53.431,38.276,5.332,5.332,0,1,0-5,3.448,5.535,5.535,0,0,0,1.876-.347,5.307,5.307,0,0,0,2.892-2.573,70.089,70.089,0,0,0-5.214,17.936,5.365,5.365,0,0,0-4.574-5.812,7.307,7.307,0,0,0-.779-.056,5.374,5.374,0,0,0-.764,10.692,5.027,5.027,0,0,0,.778.056,5.364,5.364,0,0,0,5.255-4.31,74.956,74.956,0,0,0-.278,18.547l.042.264a5.391,5.391,0,0,0-5.3-4.491,7.072,7.072,0,0,0-.765.056,5.382,5.382,0,0,0-3.545,2.114,5.392,5.392,0,0,0,1.084,7.508,5.342,5.342,0,0,0,3.212,1.071,4.749,4.749,0,0,0,.779-.056,5.339,5.339,0,0,0,4.588-5.617,59.139,59.139,0,0,0,4.686,17.977,5.376,5.376,0,1,0,.236.5,31.852,31.852,0,0,0,7.772,10.386l3.587,3.587a5.392,5.392,0,1,0,.417.417l14.1,14.1a5.384,5.384,0,0,0-3.587-1.362,5.33,5.33,0,0,0-3.8,1.571,5.387,5.387,0,0,0,0,7.591,5.367,5.367,0,0,0,7.8-7.369l13.847,13.82-13.833,13.834a5.384,5.384,0,1,0-4.018,1.793,5.3,5.3,0,0,0,3.573-1.363L357.933,400.6a5.147,5.147,0,1,0-.431.445l-3.573,3.573a12.933,12.933,0,0,0,1.084,19.284l3.962,3.156a5.318,5.318,0,0,0-3.1-1,4.53,4.53,0,0,0-.612.042,5.377,5.377,0,0,0,.584,10.72,4.969,4.969,0,0,0,.625-.056,5.357,5.357,0,0,0,2.961-9.329l15.586,12.416a5.389,5.389,0,0,0-7.3,1.029,5.367,5.367,0,0,0,.848,7.55,5.207,5.207,0,0,0,3.337,1.182,4.52,4.52,0,0,0,.612-.042,5.354,5.354,0,0,0,2.976-9.329l15.293,12.193-12.207,15.308a5.3,5.3,0,0,0,.959-3.726,5.361,5.361,0,0,0-9.524-2.753,5.383,5.383,0,0,0,4.171,8.731,4.36,4.36,0,0,0,.611-.042,5.3,5.3,0,0,0,3.42-1.766l-12.429,15.586a5.369,5.369,0,1,0-7.73,1.1,5.306,5.306,0,0,0,3.337,1.168,5.378,5.378,0,0,0,4.018-1.793l-3.156,3.962a12.951,12.951,0,0,0,3.226,19.034l4.3,2.7a5.376,5.376,0,0,0-5.478,9.246,5.408,5.408,0,0,0,7.425-1.682,5.388,5.388,0,0,0-1.446-7.244l16.878,10.608a5.372,5.372,0,0,0-5.464,9.246,5.259,5.259,0,0,0,2.85.82,5.721,5.721,0,0,0,1.2-.125,5.355,5.355,0,0,0,4.046-6.437,5.268,5.268,0,0,0-2.127-3.184L404.231,531.6,393.79,548.213a5.366,5.366,0,0,0-1.807-7.2,5.361,5.361,0,0,0-4.06-.7,5.276,5.276,0,0,0-3.351,2.391,5.361,5.361,0,0,0,1.682,7.4,5.263,5.263,0,0,0,2.851.82,5.113,5.113,0,0,0,1.209-.125,5.391,5.391,0,0,0,3.212-2.169l-6.757,10.747a12.952,12.952,0,1,0,21.926,13.792l24.358-38.763a12.771,12.771,0,0,0,1.933-7.9,680.647,680.647,0,0,0,20.1,69.948h38.527a684.172,684.172,0,0,0,20.09-69.948,12.863,12.863,0,0,0,1.933,7.9L540,573.17a12.952,12.952,0,1,0,21.926-13.792l-6.744-10.747a5.365,5.365,0,0,0,3.2,2.169,5.5,5.5,0,0,0,4.06-.7,5.37,5.37,0,1,0-8.106-5.742,5.456,5.456,0,0,0,.57,3.851L544.46,531.6l16.573-10.414a5.27,5.27,0,0,0-2.127,3.184,5.355,5.355,0,0,0,4.046,6.437,5.747,5.747,0,0,0,1.209.125,5.211,5.211,0,0,0,2.836-.82,5.337,5.337,0,0,0,2.377-3.351,5.354,5.354,0,0,0-4.045-6.437,5.27,5.27,0,0,0-3.782.542l16.865-10.608a5.374,5.374,0,0,0,5.979,8.926,5.285,5.285,0,0,0,2.363-3.351,5.366,5.366,0,0,0-7.828-5.895l4.283-2.7a12.967,12.967,0,0,0,3.239-19.034l-3.17-3.962a5.485,5.485,0,1,0-.361-.473l-12.429-15.586a5.236,5.236,0,0,0,3.406,1.766,4.362,4.362,0,0,0,.612.042,5.371,5.371,0,0,0,3.336-1.182,5.251,5.251,0,0,0,1.974-3.6,5.349,5.349,0,0,0-4.727-5.937,5.383,5.383,0,0,0-4.977,8.467l-12.207-15.308L573.2,440.24a5.377,5.377,0,0,0-.612,7.355,5.309,5.309,0,0,0,3.6,1.974,4.372,4.372,0,0,0,.612.042,5.377,5.377,0,0,0,4.171-8.731,5.386,5.386,0,0,0-7.3-1.029l15.586-12.416a5.354,5.354,0,0,0,2.975,9.329,4.544,4.544,0,0,0,.612.056,5.343,5.343,0,0,0,3.337-1.182,5.372,5.372,0,0,0,.848-7.55,5.328,5.328,0,0,0-3.6-1.988,4.321,4.321,0,0,0-.6-.042,5.329,5.329,0,0,0-3.114,1l3.977-3.156a12.961,12.961,0,0,0,1.084-19.284l-3.587-3.573a5.463,5.463,0,1,0-.431-.445l-14.084-14.084a5.3,5.3,0,0,0,3.573,1.363,5.368,5.368,0,1,0-4-1.793L562.41,372.253l13.834-13.82a5.354,5.354,0,0,0,.208,7.369,5.371,5.371,0,0,0,7.591,0,5.372,5.372,0,0,0-7.383-7.8l14.1-14.1a5.451,5.451,0,1,0,.431-.417l3.573-3.587a31.852,31.852,0,0,0,7.772-10.386,5.363,5.363,0,0,0,2.739,6.924,5.27,5.27,0,0,0,2.225.487,5.37,5.37,0,1,0-4.727-7.911,59.125,59.125,0,0,0,4.686-17.977,5.339,5.339,0,0,0,4.588,5.617,4.982,4.982,0,0,0,.779.056,5.364,5.364,0,0,0,4.3-8.578Zm-46.007-51.582a5.358,5.358,0,1,1,0-7.577A5.345,5.345,0,0,1,571.113,256.549Zm-193.534-7.577a5.358,5.358,0,1,1,0,7.577A5.345,5.345,0,0,1,377.579,248.971Zm51.4,267.584L396.64,496.2a5.277,5.277,0,0,1-1.349-7.841l23.817-29.906a12.838,12.838,0,0,0,2.822-8.328,684.092,684.092,0,0,0,12.235,72.729A12.806,12.806,0,0,0,428.979,516.556Zm125.533-23.983a5.294,5.294,0,0,1-2.447,3.629l-32.353,20.355a12.878,12.878,0,0,0-5.186,6.3,684.216,684.216,0,0,0,12.235-72.729,12.913,12.913,0,0,0,2.822,8.328L553.4,488.36A5.3,5.3,0,0,1,554.512,492.572Z" transform="translate(-330.512 -234.152)"/></g><path d="M393.136,332.378q17.727,0,28.183-11.025t10.455-29.809V237.362h-7.786v54.584q0,14.974-8.4,23.817-8.4,8.821-22.454,8.829t-22.454-8.829q-8.4-8.822-8.4-23.817V237.362h-7.6v54.181q0,18.853,10.4,29.851T393.136,332.378Zm74.244-79.4,60.09,71.686H533.5V243.591h-6.493v70.74l-59.339-70.74H460.9v81.071h6.479Zm97.936,71.686h7.007V243.591h-7.007Zm62.287,1.446,34.3-82.517h-6.9L627.018,311.62l-27.751-68.029h-7.119l34.411,82.517Zm98.492-6.91H687.734V286.177h36.218v-5.214H687.734V248.8h37.441v-5.214h-43.92v81.071h44.838Zm32.631-33.479h6.66a45.289,45.289,0,0,1,10.386.89,12.2,12.2,0,0,1,5.672,3.045,51.648,51.648,0,0,1,4.394,5.422c1.863,2.531,4.06,5.742,6.618,9.649l12.9,19.938h7.369l-22.315-34.188a21.79,21.79,0,0,0-7.23-6.785c5.172-1.655,9.037-4.143,11.623-7.411a19.578,19.578,0,0,0,3.837-12.4q0-9.8-6.9-15.03c-4.588-3.5-11.206-5.256-19.812-5.256h-19.7v81.071h6.493Zm0-36.677h13.57q9.2,0,14.209,3.879c3.336,2.586,5.019,6.242,5.019,10.956a15.938,15.938,0,0,1-2.239,8.745,14.589,14.589,0,0,1-6.687,5.506,21.036,21.036,0,0,1-6.02,1.557,114.993,114.993,0,0,1-12.875.473h-4.978Zm89.413,76.774q10.49,0,17.2-6.229a20.692,20.692,0,0,0,6.715-15.905,22.173,22.173,0,0,0-1.348-7.772,19.959,19.959,0,0,0-3.962-6.493c-2.517-2.808-7.522-5.756-15.03-8.8-.765-.306-1.334-.542-1.724-.7-6.646-2.809-10.97-5.353-12.986-7.591a12.537,12.537,0,0,1-3-8.689,14.115,14.115,0,0,1,4.686-10.859,17.158,17.158,0,0,1,12.054-4.324,26.616,26.616,0,0,1,9.009,1.626,42.835,42.835,0,0,1,9.594,5.047v-7.243a39.053,39.053,0,0,0-9.093-4.032,33.659,33.659,0,0,0-9.273-1.307q-10.49,0-17,6.006a19.98,19.98,0,0,0-6.521,15.433c0,5.061,1.418,9.218,4.282,12.485s8.175,6.493,15.933,9.7q11.241,4.713,14.4,8.2a12.969,12.969,0,0,1,3.156,9.009q0,7.487-4.644,11.818t-12.569,4.338a25.2,25.2,0,0,1-9.941-2.169,49.052,49.052,0,0,1-10.858-6.632v7.883a44.7,44.7,0,0,0,10.469,5.395A31.736,31.736,0,0,0,848.137,325.815Zm57.185-82.225h-7.007v81.071h7.007Zm75.731,79.263a34.646,34.646,0,0,0,11.818-5.686,38.861,38.861,0,0,0,11.916-14.39,43.286,43.286,0,0,0,0-37.428,39.125,39.125,0,0,0-11.916-14.4,35.045,35.045,0,0,0-11.734-5.575,60.161,60.161,0,0,0-15.794-1.78h-28.1v81.071h28.1A60.412,60.412,0,0,0,981.053,322.854Zm-36.913-3.879V249.444h19.59a62.839,62.839,0,0,1,13.764,1.307,28.641,28.641,0,0,1,9.927,4.143,31.037,31.037,0,0,1,10.636,12.3,39.439,39.439,0,0,1,0,33.994,31.049,31.049,0,0,1-10.636,12.277,29.215,29.215,0,0,1-9.927,4.171,61.87,61.87,0,0,1-13.764,1.334ZM1059.747,242.9h-2.614l-35.342,81.766h6.9l11.929-28.224h35.634l12,28.224h6.841Zm-16.865,48.036,15.586-36.8,15.53,36.8Zm114.9,31.922a34.715,34.715,0,0,0,11.832-5.686,38.961,38.961,0,0,0,11.9-14.39,43.286,43.286,0,0,0,0-37.428,39.226,39.226,0,0,0-11.9-14.4,35.243,35.243,0,0,0-11.748-5.575,60.27,60.27,0,0,0-15.781-1.78h-28.1v81.071h28.1A60.3,60.3,0,0,0,1157.779,322.854Zm-36.9-3.879V249.444h19.577a62.758,62.758,0,0,1,13.764,1.307,28.711,28.711,0,0,1,9.94,4.143,31.113,31.113,0,0,1,10.623,12.3,39.434,39.434,0,0,1,0,33.994,31.125,31.125,0,0,1-10.623,12.277,29.287,29.287,0,0,1-9.94,4.171,61.79,61.79,0,0,1-13.764,1.334ZM380.094,443.493h61.564V419.746H380.094V383.9h63.33V360.435H354.651V504.182H445.5V480.5h-65.4ZM486.33,372.6H462.611V504.182h83.532V482.075H486.33Zm188.446,54.807a30.9,30.9,0,0,0,9.565-8.606c3.685-5.214,5.576-11.762,5.576-19.437,0-12.36-4.13-22.065-12.249-28.863-7.967-6.688-19.3-10.066-33.674-10.066H600.741V504.182h50.747c14.932,0,27.014-3.657,35.9-10.873,9.051-7.341,13.653-17.324,13.653-29.628a36.408,36.408,0,0,0-8.954-24.72A42.7,42.7,0,0,0,674.776,427.407Zm-48.592-43.3H642.02c7.675,0,13.236,1.335,16.517,3.962,3.128,2.516,4.658,6.6,4.658,12.471,0,6.479-2,11.109-6.1,14.167-4.31,3.212-11.234,4.824-20.577,4.824h-10.33Zm42.46,91.748c-3.879,2.961-10.358,4.449-19.228,4.449H626.184V443.493H646.26c9.955,0,17.254,1.6,21.689,4.727,4.143,2.948,6.173,7.563,6.173,14.084C674.123,468.6,672.329,473.038,668.645,475.86Zm159.25-85.436a68.142,68.142,0,0,0-22.579-14.7,73.6,73.6,0,0,0-53.625-.042A70.672,70.672,0,0,0,729,390.4a67.277,67.277,0,0,0-15.21,21.9,64.431,64.431,0,0,0-5.367,25.6,66.666,66.666,0,0,0,20.563,48.745,69.518,69.518,0,0,0,22.565,14.626,71.27,71.27,0,0,0,26.75,5.158,72.589,72.589,0,0,0,26.917-5,71.3,71.3,0,0,0,22.83-14.765,66.609,66.609,0,0,0,15.085-21.773,64.93,64.93,0,0,0,5.311-25.819,65.674,65.674,0,0,0-20.549-48.634ZM819.969,455.7a44.485,44.485,0,0,1-9.746,14.5,43.385,43.385,0,0,1-14.5,9.8,46.621,46.621,0,0,1-34.745-.083,42.741,42.741,0,0,1-14.445-9.732,44.4,44.4,0,0,1-9.677-14.473,45.061,45.061,0,0,1-3.364-17.185,45.683,45.683,0,0,1,3.378-17.379,41.989,41.989,0,0,1,9.649-14.362,47.5,47.5,0,0,1,14.835-9.9,43.464,43.464,0,0,1,16.948-3.448,44.485,44.485,0,0,1,17.268,3.406,43.7,43.7,0,0,1,14.473,9.9,46.728,46.728,0,0,1,9.982,14.738,45,45,0,0,1-.056,34.216Zm81.613-28.975-2.642-1.585c-18.089-11.276-20.786-17.782-20.786-20.66a10.123,10.123,0,0,1,4.2-8.4c5.617-4.38,15.572-4.727,24.8-.765a65.082,65.082,0,0,1,14.584,9.232l4.811,3.879V380.191l-1.4-.862A63.836,63.836,0,0,0,910.2,372.5a52.665,52.665,0,0,0-15.168-2.238c-11.6,0-21.258,3.42-28.71,10.149-7.536,6.826-11.346,15.641-11.346,26.222a32.923,32.923,0,0,0,5.979,19.7c3.893,5.381,12.889,12.583,27.543,22.065,11.011,6.966,15.126,10.733,16.642,12.666a13.819,13.819,0,0,1,3,8.884,11.453,11.453,0,0,1-4.3,9.51c-3.017,2.447-7.355,3.7-12.861,3.7a31,31,0,0,1-15.126-3.935c-4.853-2.711-10.08-7.229-15.5-13.472l-5.2-5.965v33.021l1.07.89a53.877,53.877,0,0,0,16.628,9.677,57.882,57.882,0,0,0,19.3,3.045c11.54,0,21.175-3.406,28.655-10.149a33.568,33.568,0,0,0,11.4-25.957c0-8.982-2.03-16.67-6.048-22.857C922.173,441.311,914.15,434.54,901.582,426.726Zm162.488,53.167a62.036,62.036,0,0,0,14.612-40.834,68.477,68.477,0,0,0-43.142-63.33,73.566,73.566,0,0,0-53.611-.042,70.225,70.225,0,0,0-22.691,14.71,67.326,67.326,0,0,0-15.224,21.9,64.195,64.195,0,0,0-5.366,25.6c0,16,4.866,30.226,14.432,42.266,9.468,11.887,22.134,19.9,37.664,23.8a172.4,172.4,0,0,0,32.673,18.673c10.524,4.38,20.2,6.6,28.752,6.6,1.209,0,2.113-.014,2.7-.056a13.391,13.391,0,0,0,2.113-.278l.765-.153,19.229-16.684-2.35-6.159-2.447.473q-3.566.688-6.549,1.043a47.821,47.821,0,0,1-5.366.347,64.312,64.312,0,0,1-15.92-2.155,109.675,109.675,0,0,1-12.11-4.018C1045.3,496.84,1055.979,489.555,1064.07,479.892ZM1050.2,455.7a44.744,44.744,0,0,1-58.784,24.456,45.477,45.477,0,0,1-14.64-9.969,43.99,43.99,0,0,1-9.69-14.473,45.061,45.061,0,0,1-3.365-17.185,45.943,45.943,0,0,1,3.365-17.379,42.017,42.017,0,0,1,9.662-14.362,47.663,47.663,0,0,1,14.835-9.9,43.565,43.565,0,0,1,16.948-3.448,44.535,44.535,0,0,1,17.268,3.406,43.753,43.753,0,0,1,14.487,9.9,46.928,46.928,0,0,1,9.969,14.738,44.837,44.837,0,0,1-.055,34.216Zm131.192.07c0,8.384-2.92,14.918-8.912,20.007-6.076,5.13-14.279,7.73-24.4,7.73a41.119,41.119,0,0,1-16.184-3,32.275,32.275,0,0,1-12.068-8.94,19.089,19.089,0,0,1-3.768-7.563c-.807-3.1-1.209-8.578-1.209-16.323V372.6h-23.817v75.8c0,10.3.709,17.8,2.142,22.9a38.237,38.237,0,0,0,7.41,14.084,54.425,54.425,0,0,0,20.508,15.71,66.537,66.537,0,0,0,26.986,5.325c16.768,0,30.587-4.643,41.1-13.792,10.636-9.26,16.016-21.48,16.016-36.33V372.6h-23.8Zm66.986,26.305V448.86H1304.5v-22.2h-56.128V394.526h57.741V372.6h-81.459V504.182h83.351V482.075Z" transform="translate(444.877 174.822)"/></g><line y1="1198" x2="1886" transform="translate(-175.5 -108.5)" fill="none" stroke="red" stroke-width="20"/></g></svg>