<svg xmlns="http://www.w3.org/2000/svg" xmlns:xlink="http://www.w3.org/1999/xlink" width="1534" height="984" viewBox="0 0 1534 984"><defs><clipPath id="b"><rect width="1534" height="984"/></clipPath></defs><g id="a" clip-path="url(#b)"><rect width="1534" height="984" fill="#fff"/><g transform="translate(-84.235 -287.762)"><g transform="translate(190.871 594.316)"><path d="M355.208,540.547a5.5,5.5,0,0,0-3.636-2.154,4.852,4.852,0,0,0-.784-.057,5.492,5.492,0,0,0-5.419,4.592l.029-.271a76.775,76.775,0,0,0-.285-19.009,5.507,5.507,0,0,0,5.391,4.406,7.764,7.764,0,0,0,.8-.043,5.533,5.533,0,0,0,4.663-6.246,5.545,5.545,0,0,0-5.462-4.734,7.448,7.448,0,0,0-.784.057,5.531,5.531,0,0,0-4.692,5.961,71.96,71.96,0,0,0-5.348-18.383,5.472,5.472,0,0,0,2.966,2.625,5.459,5.459,0,0,0,4.221-.143,5.52,5.52,0,1,0-7.43-3.023,67.339,67.339,0,0,0-54.8-39.275c-8.157-.883-12.607,1.526-14.86,3.594-4.521,4.107-4.792,10.311-.727,15.63l43.139,54.747a13.294,13.294,0,0,1-.913,17.755L270.9,596.934a13.307,13.307,0,0,0,0,18.782l27.709,27.737a5.421,5.421,0,0,1-.456,8.157l-30.632,24.457a13.273,13.273,0,0,0-4.72,7.7,712.139,712.139,0,0,0,4.221-77.437,710.368,710.368,0,0,0-5.947-91.725h-26.91a710.368,710.368,0,0,1,5.947,91.725,702.61,702.61,0,0,1-31.345,208.051,707.4,707.4,0,0,1-25.4-299.776h-26.91a711.3,711.3,0,0,0-1.726,169.161,13.224,13.224,0,0,0-4.735-7.7l-30.632-24.457a5.381,5.381,0,0,1-2.068-3.965,5.533,5.533,0,0,1,1.611-4.193l27.709-27.737a13.272,13.272,0,0,0,0-18.782l-40.344-40.358a13.264,13.264,0,0,1-.927-17.755l43.139-54.747c4.05-5.319,3.793-11.523-.727-15.63-2.267-2.068-6.717-4.477-14.86-3.594a67.339,67.339,0,0,0-54.8,39.275,5.515,5.515,0,1,0-7.43,3.023,5.424,5.424,0,0,0,4.207.143,5.452,5.452,0,0,0,2.981-2.625A70.824,70.824,0,0,0,72.5,523.049a5.543,5.543,0,0,0-4.706-5.961,6.929,6.929,0,0,0-.784-.057,5.53,5.53,0,0,0-5.448,4.734,5.419,5.419,0,0,0,1.041,4.079,5.49,5.49,0,0,0,3.622,2.167,7.361,7.361,0,0,0,.8.043,5.507,5.507,0,0,0,5.391-4.406,76.776,76.776,0,0,0-.285,19.009l.029.271a5.5,5.5,0,0,0-5.433-4.592,4.68,4.68,0,0,0-.77.057,5.5,5.5,0,0,0-2.524,9.854,5.415,5.415,0,0,0,3.294,1.1,7.618,7.618,0,0,0,.8-.043,5.526,5.526,0,0,0,3.622-2.153,5.448,5.448,0,0,0,1.084-3.622,60.655,60.655,0,0,0,4.806,18.439,5.528,5.528,0,1,0,.243.513,32.469,32.469,0,0,0,7.972,10.653l3.665,3.679a5.5,5.5,0,1,0,.228,8,5.506,5.506,0,0,0,.214-7.558l14.46,14.446a5.516,5.516,0,1,0,.428.428l14.189,14.2-14.189,14.176a5.327,5.327,0,1,0-.442.456L89.358,635.41a5.537,5.537,0,0,0-.214-7.572,5.468,5.468,0,0,0-3.893-1.612,5.512,5.512,0,1,0,3.665,9.626l-3.665,3.665a13.264,13.264,0,0,0,1.112,19.78l4.064,3.237a5.45,5.45,0,0,0-3.194-1.013,4.454,4.454,0,0,0-.613.028,5.471,5.471,0,0,0-3.708,2.039,5.531,5.531,0,0,0-1.155,4.05,5.408,5.408,0,0,0,2.039,3.694,5.468,5.468,0,0,0,3.423,1.2,4.576,4.576,0,0,0,.627-.029,5.516,5.516,0,0,0,3.052-9.6l15.972,12.749a5.512,5.512,0,1,0-3.194,10.011,4.482,4.482,0,0,0,.627-.029,5.513,5.513,0,0,0,3.066-9.583l15.687,12.507-12.521,15.7a5.511,5.511,0,0,0-8.8-6.631,5.435,5.435,0,0,0-1.155,4.05,5.474,5.474,0,0,0,5.448,4.892,4.441,4.441,0,0,0,.627-.043,5.409,5.409,0,0,0,3.508-1.811l-12.763,16a5.432,5.432,0,1,0-.371.471l-3.237,4.064A13.274,13.274,0,0,0,97.1,744.79l4.392,2.752a5.515,5.515,0,0,0-7.33,1.9,5.517,5.517,0,0,0,4.649,8.443,5.515,5.515,0,0,0,3.209-10.011l17.3,10.881a5.53,5.53,0,0,0-7.33,1.9,5.512,5.512,0,0,0,1.74,7.587,5.364,5.364,0,0,0,2.909.856,5.1,5.1,0,0,0,1.241-.142,5.487,5.487,0,0,0,4.15-6.589,5.437,5.437,0,0,0-2.182-3.28l17,10.682L126.137,786.8a5.517,5.517,0,0,0,.57-3.95,5.523,5.523,0,0,0-10.04-1.711,5.536,5.536,0,0,0,1.74,7.615,5.48,5.48,0,0,0,2.923.841,6.264,6.264,0,0,0,1.241-.142,5.516,5.516,0,0,0,3.294-2.224l-6.931,11.038A13.281,13.281,0,0,0,141.425,812.4L166.4,772.656a13.171,13.171,0,0,0,2-8.114A698.052,698.052,0,0,0,189,836.287h39.531a701.711,701.711,0,0,0,20.607-71.745,13.158,13.158,0,0,0,1.982,8.114L276.1,812.4a13.281,13.281,0,0,0,22.489-14.132l-6.931-11.038a5.474,5.474,0,0,0,3.294,2.224,6.144,6.144,0,0,0,1.241.142,5.514,5.514,0,1,0-5.391-6.745,5.6,5.6,0,0,0,.585,3.95l-10.71-17.041,17-10.682a5.506,5.506,0,0,0,1.968,9.869,5.064,5.064,0,0,0,1.226.142,5.376,5.376,0,0,0,2.924-.856,5.491,5.491,0,0,0,1.725-7.587,5.377,5.377,0,0,0-3.437-2.438,5.45,5.45,0,0,0-3.893.542l17.313-10.881a5.512,5.512,0,0,0,3.195,10.011,5.538,5.538,0,0,0,5.362-4.292,5.509,5.509,0,0,0-8.043-6.047l4.407-2.752a13.318,13.318,0,0,0,3.323-19.538l-3.251-4.064a5.516,5.516,0,0,0,4.121,1.839,5.417,5.417,0,0,0,3.423-1.2,5.51,5.51,0,1,0-7.929-1.112l-12.749-16a5.342,5.342,0,0,0,3.494,1.811,4.754,4.754,0,0,0,.628.043,5.517,5.517,0,0,0,.613-11,5.525,5.525,0,0,0-4.064,1.183,5.446,5.446,0,0,0-2.025,3.68,5.505,5.505,0,0,0,.984,3.822l-12.521-15.7,15.687-12.507a5.506,5.506,0,0,0,3.052,9.583,4.585,4.585,0,0,0,.628.029,5.465,5.465,0,0,0,3.423-1.2,5.509,5.509,0,0,0,.87-7.744,5.513,5.513,0,0,0-7.487-1.069L326.629,662.9a5.537,5.537,0,0,0-1.811,3.508,5.514,5.514,0,0,0,4.849,6.089,4.889,4.889,0,0,0,.642.029,5.468,5.468,0,0,0,3.423-1.2,5.408,5.408,0,0,0,2.039-3.694,5.541,5.541,0,0,0-1.169-4.05,5.439,5.439,0,0,0-3.694-2.039,4.663,4.663,0,0,0-.627-.028,5.482,5.482,0,0,0-3.194,1.013l4.079-3.237a13.264,13.264,0,0,0,1.112-19.78l-3.665-3.665a5.51,5.51,0,1,0,3.665-9.626,5.444,5.444,0,0,0-3.893,1.612,5.509,5.509,0,0,0-.214,7.572l-14.446-14.446a5.609,5.609,0,1,0-.442-.456l-14.189-14.176,14.189-14.2a5.515,5.515,0,1,0,8-.214,5.524,5.524,0,0,0-7.572-.213l14.46-14.446a5.469,5.469,0,0,0,.214,7.558,5.506,5.506,0,1,0,.214-8l3.679-3.679a32.672,32.672,0,0,0,7.972-10.653,5.487,5.487,0,0,0,2.809,7.1,5.355,5.355,0,0,0,2.282.5,5.511,5.511,0,1,0-4.849-8.114,60.288,60.288,0,0,0,4.792-18.439A5.5,5.5,0,0,0,350,549.3a7.417,7.417,0,0,0,.8.043,5.515,5.515,0,0,0,4.407-8.8ZM308.019,487.64a5.5,5.5,0,1,1,0-7.772A5.483,5.483,0,0,1,308.019,487.64Zm-198.51-7.772a5.5,5.5,0,1,1,0,7.772A5.482,5.482,0,0,1,109.509,479.868Zm52.708,274.463-33.171-20.864a5.449,5.449,0,0,1-1.369-8.071l24.429-30.661A13.18,13.18,0,0,0,155,686.207a700.844,700.844,0,0,0,12.55,74.584A13.167,13.167,0,0,0,162.217,754.331Zm128.775-24.586a5.513,5.513,0,0,1-2.524,3.722L255.3,754.331a13.214,13.214,0,0,0-5.319,6.46,700.828,700.828,0,0,0,12.549-74.584,13.181,13.181,0,0,0,2.895,8.527L289.851,725.4A5.553,5.553,0,0,1,290.992,729.745Z" transform="translate(-61.22 -464.663)" fill="#b3b3b3"/></g><path d="M124.834,565.346q18.182,0,28.907-11.323,10.717-11.3,10.724-30.575V467.873h-8v55.988q0,15.358-8.6,24.428-8.621,9.07-23.031,9.056-14.439,0-23.045-9.056t-8.614-24.428V467.873H85.389v55.574q0,19.338,10.667,30.618T124.834,565.346ZM200.986,483.9l61.635,73.5H268.8v-83.14h-6.66v72.573l-60.851-72.573h-6.959V557.4h6.66Zm100.439,73.5h7.2v-83.14h-7.2Zm63.888,1.5,35.2-84.637h-7.073L364.729,544.04l-28.464-69.778h-7.316l35.3,84.637Zm101.038-7.073H427.005V517.943h37.149V512.6H427.005V479.61h38.4v-5.348H420.36V557.4h45.991Zm33.456-34.354h6.845a46.112,46.112,0,0,1,10.639.927,12.329,12.329,0,0,1,5.818,3.123,50.727,50.727,0,0,1,4.521,5.547c1.9,2.6,4.164,5.9,6.774,9.9L547.652,557.4h7.558l-22.888-35.053A22.248,22.248,0,0,0,529,518.428a22.54,22.54,0,0,0-4.107-3.038q7.979-2.545,11.922-7.6t3.95-12.721q0-10.032-7.073-15.415t-20.322-5.391H493.161V557.4h6.645Zm0-37.62h13.919c6.289,0,11.166,1.326,14.589,3.979s5.134,6.4,5.134,11.237a16.468,16.468,0,0,1-2.282,8.97,14.881,14.881,0,0,1-6.859,5.647,22.142,22.142,0,0,1-6.189,1.612,122.276,122.276,0,0,1-13.191.471h-5.12ZM591.518,558.6q10.76,0,17.655-6.389a21.274,21.274,0,0,0,6.888-16.314,22.8,22.8,0,0,0-1.383-7.972,20.439,20.439,0,0,0-4.078-6.645q-3.872-4.343-15.4-9.041c-.784-.314-1.383-.556-1.783-.7-6.8-2.909-11.252-5.49-13.305-7.786a12.919,12.919,0,0,1-3.08-8.927,14.478,14.478,0,0,1,4.806-11.138,17.55,17.55,0,0,1,12.364-4.435,27.346,27.346,0,0,1,9.241,1.669,44.5,44.5,0,0,1,9.84,5.177v-7.43a39.556,39.556,0,0,0-9.341-4.136,33.849,33.849,0,0,0-9.512-1.326q-10.738,0-17.441,6.146a20.543,20.543,0,0,0-6.688,15.829q0,7.787,4.407,12.806,4.385,5.027,16.343,9.954,11.53,4.813,14.774,8.414a13.3,13.3,0,0,1,3.223,9.241c0,5.106-1.583,9.156-4.749,12.121q-4.749,4.471-12.892,4.464a26.1,26.1,0,0,1-10.2-2.225,51.211,51.211,0,0,1-11.138-6.817v8.086a46.047,46.047,0,0,0,10.724,5.533A32.677,32.677,0,0,0,591.518,558.6Zm58.669-84.338h-7.2V557.4h7.2Zm77.678,81.3a35.783,35.783,0,0,0,12.122-5.818,39.937,39.937,0,0,0,12.207-14.76,44.3,44.3,0,0,0,0-38.4,40.1,40.1,0,0,0-12.207-14.774,36.251,36.251,0,0,0-12.036-5.733,63.059,63.059,0,0,0-16.2-1.811H682.93V557.4H711.75A62.1,62.1,0,0,0,727.865,555.563ZM690,551.584V480.266H710.1a64.238,64.238,0,0,1,14.1,1.341,29.339,29.339,0,0,1,10.2,4.25,31.735,31.735,0,0,1,10.91,12.621,40.445,40.445,0,0,1,0,34.867,31.743,31.743,0,0,1-10.91,12.592,29.915,29.915,0,0,1-10.2,4.278,63.226,63.226,0,0,1-14.1,1.369Zm118.564-78.035H805.9L769.649,557.4h7.059l12.25-28.935h36.55L837.816,557.4h7Zm-17.3,49.271,15.986-37.734,15.929,37.734Zm117.865,32.743a35.781,35.781,0,0,0,12.122-5.818,39.8,39.8,0,0,0,12.207-14.76,44.3,44.3,0,0,0,0-38.4,39.959,39.959,0,0,0-12.207-14.774,36.383,36.383,0,0,0-12.036-5.733,63.135,63.135,0,0,0-16.2-1.811H864.2V557.4h28.821A62.021,62.021,0,0,0,909.134,555.563Zm-37.862-3.979V480.266h20.093a64.238,64.238,0,0,1,14.1,1.341,29.341,29.341,0,0,1,10.2,4.25,31.736,31.736,0,0,1,10.91,12.621,40.446,40.446,0,0,1,0,34.867,31.744,31.744,0,0,1-10.91,12.592,29.917,29.917,0,0,1-10.2,4.278,63.226,63.226,0,0,1-14.1,1.369ZM111.457,679.318H174.6V654.946H111.457V618.182h64.958V594.11H85.36V741.552h93.18V717.28H111.457Zm108.967-72.73H196.095V741.552h85.679v-22.66h-61.35ZM413.7,662.8a31.173,31.173,0,0,0,9.811-8.813c3.793-5.362,5.719-12.065,5.719-19.951,0-12.664-4.221-22.632-12.564-29.62-8.157-6.831-19.794-10.31-34.525-10.31H337.776V741.552h52.038c15.33,0,27.723-3.751,36.821-11.138,9.3-7.544,14.018-17.769,14.018-30.4,0-9.868-3.095-18.4-9.2-25.342A43.73,43.73,0,0,0,413.7,662.8ZM363.859,618.4h16.257c7.872,0,13.576,1.369,16.942,4.064,3.209,2.581,4.777,6.774,4.777,12.792,0,6.66-2.054,11.409-6.261,14.531-4.421,3.28-11.523,4.949-21.12,4.949h-10.6Zm43.552,94.093c-3.979,3.052-10.61,4.592-19.708,4.592H363.859V679.318h20.607c10.211,0,17.683,1.625,22.232,4.834,4.264,3.023,6.346,7.758,6.346,14.446C413.044,705.059,411.2,709.608,407.411,712.488ZM570.754,624.87A69.909,69.909,0,0,0,547.609,609.8a75.5,75.5,0,0,0-55-.043,72.141,72.141,0,0,0-23.273,15.1,68.79,68.79,0,0,0-15.6,22.446,65.84,65.84,0,0,0-5.5,26.254,68.175,68.175,0,0,0,21.092,50,71.587,71.587,0,0,0,23.145,15.016,73.371,73.371,0,0,0,27.438,5.276,74.453,74.453,0,0,0,27.609-5.134,73.128,73.128,0,0,0,23.416-15.144A68.251,68.251,0,0,0,586.4,701.251a66.96,66.96,0,0,0,5.448-26.5,67.25,67.25,0,0,0-21.092-49.885Zm-8.114,66.955a45.853,45.853,0,0,1-10,14.888,44.869,44.869,0,0,1-14.874,10.054,47.822,47.822,0,0,1-35.638-.1,43.8,43.8,0,0,1-14.817-9.968,45.59,45.59,0,0,1-13.377-32.486,46.9,46.9,0,0,1,3.451-17.826,43.07,43.07,0,0,1,9.9-14.717,48.7,48.7,0,0,1,15.23-10.154,44.6,44.6,0,0,1,17.384-3.551,45.822,45.822,0,0,1,17.7,3.494,44.553,44.553,0,0,1,14.86,10.168,47.442,47.442,0,0,1,10.225,15.1,44.881,44.881,0,0,1,3.451,17.484A45.341,45.341,0,0,1,562.64,691.825Zm83.711-29.719-2.724-1.626c-18.553-11.565-21.32-18.24-21.32-21.177a10.4,10.4,0,0,1,4.321-8.628c5.747-4.478,15.958-4.849,25.427-.784a67.243,67.243,0,0,1,14.96,9.469l4.948,3.979V614.374l-1.455-.883a65.974,65.974,0,0,0-15.316-7,54.1,54.1,0,0,0-15.559-2.3c-11.908,0-21.819,3.508-29.448,10.424-7.729,6.988-11.651,16.029-11.651,26.9a33.763,33.763,0,0,0,6.146,20.193c3.979,5.519,13.206,12.92,28.251,22.632,11.295,7.159,15.5,11.01,17.07,12.992a14.161,14.161,0,0,1,3.066,9.112,11.8,11.8,0,0,1-4.392,9.755c-3.109,2.51-7.544,3.793-13.191,3.793a31.6,31.6,0,0,1-15.516-4.036c-4.991-2.767-10.339-7.416-15.9-13.8l-5.348-6.132V729.9l1.1.913a56.181,56.181,0,0,0,17.056,9.925,59.753,59.753,0,0,0,19.808,3.109c11.836,0,21.719-3.494,29.392-10.4a34.481,34.481,0,0,0,11.694-26.639c0-9.212-2.082-17.1-6.2-23.444C667.471,677.064,659.242,670.12,646.351,662.105ZM813,716.638a63.6,63.6,0,0,0,14.988-41.884A70.258,70.258,0,0,0,783.753,609.8a75.5,75.5,0,0,0-55-.043,72.142,72.142,0,0,0-23.274,15.1,68.793,68.793,0,0,0-15.6,22.446,65.844,65.844,0,0,0-5.5,26.254c0,16.414,4.977,31,14.8,43.353,9.7,12.193,22.689,20.407,38.633,24.414a176.027,176.027,0,0,0,33.513,19.152c10.8,4.492,20.721,6.774,29.491,6.774,1.241,0,2.153-.014,2.767-.057a15.131,15.131,0,0,0,2.153-.271l.8-.157,19.723-17.127-2.41-6.318-2.51.5c-2.439.457-4.678.827-6.731,1.056a48.931,48.931,0,0,1-5.5.356,65.809,65.809,0,0,1-16.314-2.211,106.833,106.833,0,0,1-12.436-4.121C793.764,734.023,804.716,726.564,813,716.638Zm-14.218-24.813a46.035,46.035,0,0,1-9.983,14.888,46.52,46.52,0,0,1-15.1,10.339,45.422,45.422,0,0,1-35.21-.143,46.682,46.682,0,0,1-15.017-10.21,45.343,45.343,0,0,1-9.94-14.86,45.956,45.956,0,0,1-3.451-17.627,46.9,46.9,0,0,1,3.451-17.826,42.9,42.9,0,0,1,9.911-14.717,48.475,48.475,0,0,1,15.216-10.154,44.6,44.6,0,0,1,17.384-3.551,45.945,45.945,0,0,1,17.712,3.494A44.642,44.642,0,0,1,788.6,641.627a47.441,47.441,0,0,1,10.225,15.1,44.881,44.881,0,0,1,3.451,17.484A45.34,45.34,0,0,1,798.784,691.825Zm134.565.071c0,8.6-2.995,15.316-9.155,20.521-6.218,5.276-14.646,7.944-25.028,7.944a42.408,42.408,0,0,1-16.585-3.081A32.875,32.875,0,0,1,870.2,708.1a19.783,19.783,0,0,1-3.879-7.758c-.813-3.166-1.241-8.8-1.241-16.742V606.588H840.668v77.749c0,10.567.713,18.254,2.2,23.488a38.8,38.8,0,0,0,7.6,14.446A55.7,55.7,0,0,0,871.5,738.386a68,68,0,0,0,27.666,5.462c17.2,0,31.388-4.749,42.169-14.147,10.9-9.5,16.429-22.033,16.429-37.249V606.588H933.349Zm68.694,27V684.808h57.585v-22.76h-57.585V629.077h59.239V606.588H977.728V741.552h85.493v-22.66Z" transform="translate(449.768 172.222)" fill="#b3b3b3"/></g><line y1="1198" x2="1886" transform="translate(-175.5 -108.5)" fill="none" stroke="red" stroke-width="20"/></g></svg>