<svg xmlns="http://www.w3.org/2000/svg" xmlns:xlink="http://www.w3.org/1999/xlink" width="1534" height="984" viewBox="0 0 1534 984"><defs><linearGradient id="a" x1="0.5" y1="1" x2="0.5" gradientUnits="objectBoundingBox"><stop offset="0.493" stop-color="#fff" stop-opacity="0.902"/><stop offset="1" stop-color="#fff" stop-opacity="0.502"/></linearGradient><clipPath id="c"><rect width="1534" height="984"/></clipPath></defs><g id="b" clip-path="url(#c)"><rect width="1534" height="984" fill="#fff"/><g transform="translate(-87.126 -568.866)"><g transform="translate(50.882 929.622)"><rect width="1607.875" height="662.735" fill="none"/><g transform="translate(146.598 146.61)"><path d="M354.575,860.356a5.481,5.481,0,0,0-5.4-4.694,4.929,4.929,0,0,0-.794.057,5.466,5.466,0,0,0-4.694,5.729,60.07,60.07,0,0,0-4.765-18.335,5.478,5.478,0,1,0,4.821-8.055,5.313,5.313,0,0,0-2.269.482,5.47,5.47,0,0,0-2.793,7.062,32.639,32.639,0,0,0-7.927-10.592l-3.659-3.658a5.479,5.479,0,1,0-.213-7.956,5.456,5.456,0,0,0-.213,7.53l-14.379-14.379a5.455,5.455,0,0,0,7.53-.213,5.48,5.48,0,1,0-7.955-.213l-14.11-14.109,14.11-14.1a5.3,5.3,0,1,0,.44-.454L326.668,770.1a5.476,5.476,0,1,0,4.084-1.829,5.407,5.407,0,0,0-3.644,1.389L330.752,766a13.174,13.174,0,0,0-1.106-19.654l-4.056-3.234a5.47,5.47,0,0,0,3.176,1.021,3.083,3.083,0,0,0,.624-.042,5.407,5.407,0,0,0,3.673-2.028,5.476,5.476,0,0,0,1.163-4.027,5.5,5.5,0,0,0-5.431-4.864c-.213,0-.411.014-.638.029a5.484,5.484,0,0,0-3.021,9.543l-15.9-12.677a5.48,5.48,0,0,0,7.445-1.049,5.49,5.49,0,0,0-4.268-8.906,4.552,4.552,0,0,0-.624.044,5.4,5.4,0,0,0-3.673,2.028,5.515,5.515,0,0,0,.638,7.5l-15.6-12.451,12.451-15.612a5.513,5.513,0,0,0,1.035,7.473,5.473,5.473,0,0,0,7.7-.865,5.49,5.49,0,0,0-4.268-8.906,4.817,4.817,0,0,0-.624.043,5.44,5.44,0,0,0-3.474,1.8l12.677-15.9a5.424,5.424,0,1,0,.383-.482l3.233-4.042a13.225,13.225,0,0,0-3.3-19.413l-4.382-2.751a5.5,5.5,0,1,0-2.68-3.574,5.371,5.371,0,0,0,2.17,3.247l-17.215-10.8a5.485,5.485,0,1,0,2.666-10.281,5.048,5.048,0,0,0-1.22.142,5.457,5.457,0,0,0-4.126,6.552,5.449,5.449,0,0,0,2.17,3.261l-16.9-10.622,10.65-16.96a5.576,5.576,0,0,0-.581,3.928,5.491,5.491,0,0,0,6.566,4.127,5.475,5.475,0,0,0,1.7-9.983,5.368,5.368,0,0,0-2.907-.837,6.04,6.04,0,0,0-1.234.128,5.5,5.5,0,0,0-3.276,2.212l6.892-10.962a13.21,13.21,0,0,0-22.363-14.067l-24.844,39.535a13.023,13.023,0,0,0-1.971,8.055,698.532,698.532,0,0,0-20.491-71.328H188.28a694.876,694.876,0,0,0-20.491,71.328,13.036,13.036,0,0,0-1.985-8.055l-24.83-39.535a13.21,13.21,0,0,0-22.363,14.067l6.892,10.962a5.54,5.54,0,0,0-3.276-2.212,6.146,6.146,0,0,0-1.234-.128,5.333,5.333,0,0,0-2.907.837,5.475,5.475,0,0,0,1.7,9.983,5.485,5.485,0,0,0,6.551-4.127,5.5,5.5,0,0,0-.567-3.928l10.65,16.96-16.9,10.622a5.475,5.475,0,0,0-1.957-9.813,5.081,5.081,0,0,0-1.234-.142,5.468,5.468,0,0,0-5.318,4.255,5.461,5.461,0,0,0,4.127,6.565,5.446,5.446,0,0,0,3.857-.539l-17.2,10.8a5.371,5.371,0,0,0,2.17-3.247,5.476,5.476,0,1,0-10.678-2.439,5.406,5.406,0,0,0,.695,4.127,5.47,5.47,0,0,0,7.289,1.886L96.9,661.331a13.18,13.18,0,0,0-3.29,19.413l3.219,4.042a5.468,5.468,0,0,0-4.1-1.815,5.549,5.549,0,0,0-3.418,1.177,5.484,5.484,0,1,0,7.884,1.12l12.692,15.9a5.51,5.51,0,0,0-3.488-1.8,4.494,4.494,0,0,0-.624-.043,5.48,5.48,0,0,0-3.4,1.206,5.479,5.479,0,1,0,8.863,4.892,5.493,5.493,0,0,0-.978-3.8l12.451,15.612-15.6,12.451a5.485,5.485,0,0,0,.624-7.5,5.372,5.372,0,0,0-3.673-2.028,4.4,4.4,0,0,0-.624-.044,5.37,5.37,0,0,0-3.4,1.206,5.476,5.476,0,0,0,6.58,8.75L90.732,742.742A5.483,5.483,0,0,0,87.7,733.2c-.213-.015-.411-.029-.624-.029a5.5,5.5,0,0,0-5.431,4.864,5.454,5.454,0,0,0,4.836,6.055,2.947,2.947,0,0,0,.61.042,5.438,5.438,0,0,0,3.176-1.021l-4.041,3.234A13.174,13.174,0,0,0,85.116,766l3.644,3.658a5.407,5.407,0,0,0-3.644-1.389,5.481,5.481,0,0,0,0,10.961A5.487,5.487,0,0,0,89.2,770.1l14.365,14.365a5.568,5.568,0,1,0,.44.454l14.11,14.1L104,813.12a5.479,5.479,0,1,0-7.955.213,5.455,5.455,0,0,0,7.53.213L89.2,827.925a5.579,5.579,0,1,0-.44.426l-3.644,3.658A32.439,32.439,0,0,0,77.189,842.6a5.479,5.479,0,1,0-7.36,2.907,5.5,5.5,0,0,0,7.119-2.4,60.435,60.435,0,0,0-4.779,18.335,5.47,5.47,0,0,0-4.68-5.729,5.047,5.047,0,0,0-.794-.057,5.479,5.479,0,0,0-.766,10.9,4.582,4.582,0,0,0,.766.057,5.478,5.478,0,0,0,5.4-4.566l-.028.27a76.361,76.361,0,0,0,.284,18.9,5.471,5.471,0,0,0-5.36-4.4,7.123,7.123,0,0,0-.794.057,5.5,5.5,0,0,0-3.6,2.142,5.48,5.48,0,0,0,4.382,8.763,4.759,4.759,0,0,0,.78-.056,5.489,5.489,0,0,0,4.68-5.913A70.423,70.423,0,0,0,77.756,900.1a5.39,5.39,0,0,0-2.964-2.623,5.469,5.469,0,0,0-1.9-.341,5.559,5.559,0,0,0-2.283.5A5.482,5.482,0,1,0,78,900.643a66.916,66.916,0,0,0,54.5,39.039c8.1.879,12.521-1.5,14.776-3.559,4.5-4.085,4.75-10.253.723-15.542l-42.9-54.454a13.19,13.19,0,0,1,.922-17.655l40.117-40.116a13.215,13.215,0,0,0,0-18.69l-27.553-27.582a5.49,5.49,0,0,1-1.6-4.154,5.408,5.408,0,0,1,2.056-3.957l30.46-24.319A13.067,13.067,0,0,0,154.2,722,707.412,707.412,0,0,0,155.92,890.22h26.759a703.425,703.425,0,0,1,25.256-298.09A698.582,698.582,0,0,1,239.1,799.011a706.385,706.385,0,0,1-5.913,91.209h26.759a706.374,706.374,0,0,0,5.913-91.209,708.167,708.167,0,0,0-4.2-77.015,13.115,13.115,0,0,0,4.694,7.658l30.46,24.319a5.471,5.471,0,0,1,2.07,3.957,5.4,5.4,0,0,1-1.617,4.154l-27.553,27.582a13.249,13.249,0,0,0,0,18.69l40.145,40.116a13.22,13.22,0,0,1,.908,17.655l-42.9,54.454c-4.041,5.289-3.772,11.457.723,15.542,2.24,2.056,6.665,4.438,14.776,3.559a66.916,66.916,0,0,0,54.5-39.039,5.472,5.472,0,1,0,7.388-3.006,5.513,5.513,0,0,0-4.2-.156,5.409,5.409,0,0,0-2.95,2.623,71.538,71.538,0,0,0,5.318-18.279,5.478,5.478,0,0,0,4.665,5.913,5,5,0,0,0,.78.056,5.5,5.5,0,0,0,5.431-4.694,5.481,5.481,0,0,0-4.637-6.211,7.64,7.64,0,0,0-.794-.057,5.471,5.471,0,0,0-5.36,4.4,76.355,76.355,0,0,0,.284-18.9l-.028-.27a5.474,5.474,0,0,0,5.389,4.566,4.752,4.752,0,0,0,.78-.057,5.525,5.525,0,0,0,3.616-2.141A5.429,5.429,0,0,0,354.575,860.356Zm-47.944,64.408a5.47,5.47,0,1,1,0-7.742A5.477,5.477,0,0,1,306.631,924.764Zm-197.394-7.742a5.47,5.47,0,1,1,0,7.742A5.451,5.451,0,0,1,109.237,917.022Zm57.715-271.615a697.742,697.742,0,0,0-12.479,74.178,13.173,13.173,0,0,0-2.879-8.494L127.3,680.6a5.406,5.406,0,0,1,1.361-8.012l32.984-20.761A13.092,13.092,0,0,0,166.952,645.407Zm121.613,35.2-24.291,30.488a13.174,13.174,0,0,0-2.879,8.494,697.742,697.742,0,0,0-12.479-74.178,13.138,13.138,0,0,0,5.289,6.423l32.984,20.761a5.417,5.417,0,0,1,2.51,3.7A5.491,5.491,0,0,1,288.565,680.6Z" transform="translate(-61.22 -570.349)" fill="#f77619"/></g><path d="M96,784.176q-10.614,11.232-10.607,30.46v55.248h7.743V814.224q0-15.294,8.565-24.291,8.572-9.02,22.916-9.005t22.9,9.005q8.551,9,8.551,24.291v55.659h7.955V814.636q0-19.187-10.664-30.417-10.678-11.252-28.744-11.246Q106.6,772.973,96,784.176Zm104.341-3.318h-6.622v82.673h6.92l60.509-72.151v72.151h6.622V780.858h-6.14l-61.288,73.1Zm99.874,82.673h7.161V780.858H300.21Zm62.465-84.148-35.1,84.148h7.275l28.3-69.386L391.7,863.531h7.034l-35-84.148Zm101.533,1.475H418.476v82.673h44.8v-5.318H425.084v-32.8h36.94v-5.318h-36.94V786.416h39.124Zm33.268,0h-6.608v82.673h20.094q13.166,0,20.207-5.346t7.034-15.329c0-5.091-1.3-9.3-3.928-12.664q-3.935-5-11.855-7.558a22.367,22.367,0,0,0,4.084-3.006,23.189,23.189,0,0,0,3.3-3.9l22.76-34.87h-7.516l-13.174,20.335c-2.6,3.97-4.85,7.246-6.736,9.827a50.965,50.965,0,0,1-4.5,5.53,12.249,12.249,0,0,1-5.786,3.106,45.834,45.834,0,0,1-10.579.921h-6.807Zm0,45.392h5.091a121.352,121.352,0,0,1,13.117.468,21.538,21.538,0,0,1,6.154,1.6,14.857,14.857,0,0,1,6.821,5.6,16.46,16.46,0,0,1,2.269,8.934q0,7.21-5.105,11.16c-3.4,2.638-8.253,3.957-14.507,3.957h-13.84Zm80.531-44.739a45.238,45.238,0,0,0-10.664,5.5v8.026a50.261,50.261,0,0,1,11.075-6.764,25.95,25.95,0,0,1,10.139-2.212q8.1,0,12.819,4.424,4.722,4.445,4.722,12.053a13.28,13.28,0,0,1-3.2,9.2q-3.233,3.574-14.691,8.352-11.891,4.914-16.251,9.9-4.382,5-4.382,12.734a20.48,20.48,0,0,0,6.651,15.755q6.658,6.126,17.343,6.111a33.616,33.616,0,0,0,9.458-1.333,39.805,39.805,0,0,0,9.288-4.1v-7.388a43.565,43.565,0,0,1-9.785,5.133,27.21,27.21,0,0,1-9.189,1.659q-7.509,0-12.295-4.4a14.426,14.426,0,0,1-4.779-11.089,12.81,12.81,0,0,1,3.063-8.863c2.042-2.283,6.466-4.864,13.23-7.743l1.773-.709c7.643-3.105,12.748-6.111,15.315-8.976a20.239,20.239,0,0,0,4.056-6.622,22.544,22.544,0,0,0,1.376-7.914,21.113,21.113,0,0,0-6.849-16.222q-6.849-6.36-17.556-6.367A32.525,32.525,0,0,0,578.007,781.51Zm69-.652h-7.161v82.673h7.161Zm61.217,0H679.569v82.673h28.659a62.115,62.115,0,0,0,16.109-1.8,36.047,36.047,0,0,0,11.969-5.7,39.7,39.7,0,0,0,12.138-14.677,44.049,44.049,0,0,0,0-38.188,39.709,39.709,0,0,0-12.138-14.677,35.352,35.352,0,0,0-12.054-5.8A61.745,61.745,0,0,0,708.227,780.858Zm-1.645,5.786A62.911,62.911,0,0,1,720.607,788a29.746,29.746,0,0,1,10.139,4.255,31.66,31.66,0,0,1,10.848,12.521,40.217,40.217,0,0,1,0,34.672A31.46,31.46,0,0,1,730.746,852a28.9,28.9,0,0,1-10.139,4.226,63.885,63.885,0,0,1-14.025,1.333H686.6V786.644Zm133.964-5.786h-6.963L821.346,809.63H785L772.82,780.858H765.8l36.047,83.382H804.5Zm-21.512,34.4-15.84,37.523-15.9-37.523Zm69.442-34.4H859.818v82.673h28.659a62.192,62.192,0,0,0,16.109-1.8,36.18,36.18,0,0,0,11.969-5.7,39.568,39.568,0,0,0,12.138-14.677,44.049,44.049,0,0,0,0-38.188,39.574,39.574,0,0,0-12.138-14.677,35.352,35.352,0,0,0-12.054-5.8A61.669,61.669,0,0,0,888.477,780.858Zm-1.645,5.786A62.911,62.911,0,0,1,900.856,788,29.744,29.744,0,0,1,911,792.259a31.661,31.661,0,0,1,10.848,12.521,40.22,40.22,0,0,1,0,34.672A31.461,31.461,0,0,1,911,852a28.9,28.9,0,0,1-10.139,4.226,63.885,63.885,0,0,1-14.025,1.333h-19.98V786.644ZM111.31,621.893h66.705V597.758H85.36v146.6H175.9V720.42H111.31V683.877H174.1V659.642H111.31Zm108.354-1.6h61V597.758h-85.2V731.963h24.192Zm209.844,43.974c6.069-6.906,9.147-15.386,9.147-25.213,0-12.55-4.694-22.717-13.94-30.219-9.047-7.36-21.37-11.075-36.614-11.075H336.356v146.6h44.116c14.648,0,26.22-3.46,34.331-10.252,8.3-6.934,12.493-16.846,12.493-29.439,0-7.843-1.914-14.522-5.686-19.839a31.2,31.2,0,0,0-9.756-8.777A43.458,43.458,0,0,0,429.508,664.265Zm-67.216,19.81h10.536c9.543,0,16.605,1.659,21,4.935,4.183,3.105,6.225,7.828,6.225,14.45,0,5.984-1.56,10.14-4.751,12.706-3.347,2.694-9.019,4.056-16.847,4.056H362.292ZM411.2,640.469c0,6.651-2.07,11.345-6.31,14.351-4.523,3.2-11.954,4.821-22.107,4.821H362.292v-37.55H386c9.047,0,15.641,1.531,19.6,4.552C409.372,629.508,411.2,634.032,411.2,640.469Zm172.521,50.709A68.944,68.944,0,0,0,589,664.166a66.589,66.589,0,0,0-5.417-26.348,68.163,68.163,0,0,0-15.386-22.192A72.671,72.671,0,0,0,544.91,600.58a74.037,74.037,0,0,0-27.453-5.119,72.691,72.691,0,0,0-27.283,5.261,70.712,70.712,0,0,0-23.015,14.932,67.791,67.791,0,0,0-20.973,49.7,65.592,65.592,0,0,0,5.474,26.121,68.709,68.709,0,0,0,15.514,22.32,71.671,71.671,0,0,0,23.143,15,74.994,74.994,0,0,0,54.695-.042,71.609,71.609,0,0,0,38.713-37.579Zm-20.292-26.46A44.683,44.683,0,0,1,560,682.1a47.48,47.48,0,0,1-10.168,15.016,44.477,44.477,0,0,1-14.776,10.1,45.325,45.325,0,0,1-17.6,3.488,44.353,44.353,0,0,1-17.286-3.53,48.687,48.687,0,0,1-15.145-10.1,42.976,42.976,0,0,1-9.841-14.635,46.693,46.693,0,0,1-3.432-17.726,45.593,45.593,0,0,1,3.432-17.527,45.127,45.127,0,0,1,9.87-14.776,43.606,43.606,0,0,1,14.734-9.927,47.621,47.621,0,0,1,35.437-.085,44.393,44.393,0,0,1,14.79,10,45.675,45.675,0,0,1,9.941,14.79A45.1,45.1,0,0,1,563.43,664.719ZM668.267,655.6c4.1-6.3,6.168-14.152,6.168-23.313a34.237,34.237,0,0,0-11.628-26.475c-7.629-6.863-17.456-10.352-29.226-10.352a59.413,59.413,0,0,0-19.7,3.106,55.257,55.257,0,0,0-16.96,9.87l-1.092.907v33.679l5.318-6.1c5.53-6.353,10.848-10.962,15.811-13.712A31.425,31.425,0,0,1,632.39,619.2c5.616,0,10.026,1.262,13.117,3.772a11.684,11.684,0,0,1,4.368,9.686,14.149,14.149,0,0,1-3.049,9.075c-1.56,1.971-5.743,5.8-16.974,12.918-14.96,9.658-24.135,17-28.092,22.49a33.619,33.619,0,0,0-6.112,20.094c0,10.792,3.9,19.8,11.586,26.745,7.587,6.864,17.442,10.352,29.283,10.352a54.287,54.287,0,0,0,15.471-2.269,65.649,65.649,0,0,0,15.23-6.963l1.446-.893V695.419l-4.921,3.942a66.475,66.475,0,0,1-14.876,9.43c-9.416,4.042-19.569,3.673-25.284-.793a10.319,10.319,0,0,1-4.3-8.565c0-2.922,2.751-9.572,21.2-21.073l2.708-1.616C656.015,668.775,664.2,661.868,668.267,655.6Zm108.169-55.219a111.808,111.808,0,0,1,12.366-4.1,65.443,65.443,0,0,1,16.223-2.184,48.438,48.438,0,0,1,5.474.34c2.042.241,4.268.6,6.693,1.064l2.5.5,2.4-6.3-19.612-17.017-.794-.156a17.422,17.422,0,0,0-2.141-.284c-.61-.028-1.518-.042-2.751-.042-8.721,0-18.591,2.254-29.325,6.735a175.007,175.007,0,0,0-33.324,19.03c-15.854,4-28.772,12.153-38.415,24.277C685.95,634.528,681,649.035,681,665.357a65.592,65.592,0,0,0,5.474,26.121,68.71,68.71,0,0,0,15.513,22.32,71.674,71.674,0,0,0,23.143,15,74.994,74.994,0,0,0,54.694-.042,71.609,71.609,0,0,0,38.713-37.579,68.943,68.943,0,0,0,5.275-27.013,63.3,63.3,0,0,0-14.9-41.648C800.671,612.661,789.78,605.231,776.436,600.382Zm21.81,64.337a44.685,44.685,0,0,1-3.432,17.386,47.484,47.484,0,0,1-10.167,15.016,44.565,44.565,0,0,1-14.762,10.1,45.446,45.446,0,0,1-17.612,3.488,44.352,44.352,0,0,1-17.286-3.53,48.46,48.46,0,0,1-15.131-10.1A42.808,42.808,0,0,1,710,682.444a46.69,46.69,0,0,1-3.432-17.726A45.591,45.591,0,0,1,710,647.191a44.943,44.943,0,0,1,9.884-14.776,46.232,46.232,0,0,1,14.932-10.167,45.231,45.231,0,0,1,35.012-.128,47.754,47.754,0,0,1,24.943,25.072A45.1,45.1,0,0,1,798.246,664.719Zm130.334,67.245h24.277V646.582c0-15.145-5.5-27.61-16.336-37.04-10.721-9.345-24.83-14.082-41.932-14.082a67.607,67.607,0,0,0-27.51,5.446,55.34,55.34,0,0,0-20.916,16.009A38.71,38.71,0,0,0,838.6,631.28c-1.475,5.219-2.184,12.848-2.184,23.37v77.313H860.7v-76.59c0-7.885.425-13.486,1.234-16.648a19.609,19.609,0,0,1,3.857-7.7,32.868,32.868,0,0,1,12.309-9.147,42.173,42.173,0,0,1,16.492-3.049c10.324,0,18.7,2.652,24.887,7.885,6.126,5.19,9.1,11.869,9.1,20.42Zm129.143-111.672V597.758H972.709V731.963h83.084V709.6H996.887V676.814h57.261V654.183H996.887V620.291Z" transform="translate(403.559 -399.275)" fill="#33371d"/></g><rect width="1607.875" height="662.735" transform="translate(50.882 929.622)" fill="url(#a)"/><g transform="translate(197.48 665.702)"><g transform="translate(0 0)"><path d="M353.555,616.842a5.53,5.53,0,0,0-3.616-2.141,4.812,4.812,0,0,0-.78-.056,5.473,5.473,0,0,0-5.389,4.58l.028-.284a76.36,76.36,0,0,0-.284-18.9,5.47,5.47,0,0,0,5.36,4.4,5.105,5.105,0,0,0,.794-.056,5.481,5.481,0,0,0-.794-10.905,4.935,4.935,0,0,0-.78.057,5.486,5.486,0,0,0-4.665,5.913,71.542,71.542,0,0,0-5.318-18.279,5.412,5.412,0,0,0,2.95,2.624,5.526,5.526,0,0,0,4.2-.156,5.5,5.5,0,0,0,2.709-7.261,5.48,5.48,0,0,0-10.1,4.254,66.947,66.947,0,0,0-54.5-39.039c-8.111-.879-12.536,1.517-14.776,3.56-4.5,4.1-4.765,10.266-.723,15.541l42.9,54.454a13.218,13.218,0,0,1-.908,17.654l-40.145,40.131a13.233,13.233,0,0,0,0,18.676l27.553,27.58a5.39,5.39,0,0,1-.454,8.112l-30.46,24.32a13.112,13.112,0,0,0-4.694,7.657,708.176,708.176,0,0,0,4.2-77.015,706.533,706.533,0,0,0-5.913-91.209H233.19a706.544,706.544,0,0,1,5.913,91.209,698.522,698.522,0,0,1-31.169,206.881,703.425,703.425,0,0,1-25.256-298.09H155.92A707.412,707.412,0,0,0,154.2,759.272a13.064,13.064,0,0,0-4.708-7.657l-30.46-24.32a5.4,5.4,0,0,1-2.056-3.942,5.5,5.5,0,0,1,1.6-4.169l27.553-27.58a13.2,13.2,0,0,0,0-18.676l-40.117-40.131a13.189,13.189,0,0,1-.922-17.654l42.9-54.454c4.027-5.275,3.772-11.443-.723-15.541-2.255-2.043-6.679-4.439-14.776-3.56A66.947,66.947,0,0,0,78,580.625a5.484,5.484,0,1,0-7.388,3.007,5.567,5.567,0,0,0,2.283.5,5.492,5.492,0,0,0,1.9-.34,5.393,5.393,0,0,0,2.964-2.624,70.427,70.427,0,0,0-5.318,18.279,5.5,5.5,0,0,0-4.68-5.913,4.7,4.7,0,0,0-.78-.057,5.481,5.481,0,0,0-.78,10.905,4.872,4.872,0,0,0,.794.056,5.469,5.469,0,0,0,5.36-4.4,76.367,76.367,0,0,0-.284,18.9l.028.284a5.476,5.476,0,0,0-5.4-4.58,4.64,4.64,0,0,0-.766.056,5.5,5.5,0,0,0-3.616,2.141,5.439,5.439,0,0,0-1.035,4.07,5.5,5.5,0,0,0,2.141,3.6,5.387,5.387,0,0,0,3.276,1.091,5.1,5.1,0,0,0,.794-.056,5.469,5.469,0,0,0,4.68-5.729,60.418,60.418,0,0,0,4.779,18.335,5.48,5.48,0,1,0,.312,4.5,5.446,5.446,0,0,0-.071-3.985,32.449,32.449,0,0,0,7.927,10.593l3.644,3.658a5.473,5.473,0,1,0,.227,7.955A5.437,5.437,0,0,0,90.59,657a5.493,5.493,0,0,0-1.39-3.659l14.379,14.379a5.474,5.474,0,1,0,.425.425l14.11,14.109L104,696.367a5.476,5.476,0,1,0-4.084,1.829,5.4,5.4,0,0,0,3.644-1.39L89.2,711.171a5.489,5.489,0,0,0-.213-7.516,5.381,5.381,0,0,0-3.871-1.6,5.473,5.473,0,1,0,3.644,9.557l-3.644,3.658a13.175,13.175,0,0,0,1.106,19.655l4.041,3.232a5.437,5.437,0,0,0-3.176-1.02,4.358,4.358,0,0,0-.61.042,5.476,5.476,0,0,0,.6,10.918c.213,0,.411-.014.624-.028a5.525,5.525,0,0,0,3.673-2.028,5.484,5.484,0,0,0-.638-7.516L106.614,751.2a5.476,5.476,0,0,0-6.58,8.75,5.367,5.367,0,0,0,3.4,1.206c.213,0,.425-.014.624-.029a5.489,5.489,0,0,0,3.049-9.53l15.6,12.437-12.451,15.613a5.493,5.493,0,0,0,.978-3.8,5.433,5.433,0,0,0-2.028-3.673,5.367,5.367,0,0,0-4.027-1.162,5.476,5.476,0,0,0,.6,10.919,4.442,4.442,0,0,0,.624-.029,5.378,5.378,0,0,0,3.488-1.8L97.2,796.014a5.48,5.48,0,1,0-7.884,1.106,5.569,5.569,0,0,0,3.418,1.191,5.486,5.486,0,0,0,4.1-1.828l-3.219,4.041a13.181,13.181,0,0,0,3.29,19.414l4.368,2.751a5.489,5.489,0,1,0,2.694,3.573,5.415,5.415,0,0,0-2.17-3.247l17.2,10.806a5.482,5.482,0,0,0-5.559,9.444,5.456,5.456,0,0,0,2.893.851,5.062,5.062,0,0,0,1.234-.156,5.409,5.409,0,0,0,3.432-2.424,5.5,5.5,0,0,0-1.475-7.388l16.9,10.62-10.65,16.946a5.453,5.453,0,1,0-4.779,2.794,6.257,6.257,0,0,0,1.234-.142,5.51,5.51,0,0,0,3.276-2.226l-6.892,10.975a13.206,13.206,0,0,0,22.363,14.053l24.83-39.521a13.035,13.035,0,0,0,1.985-8.055,695.174,695.174,0,0,0,20.491,71.343h39.309a698.832,698.832,0,0,0,20.491-71.343,13.022,13.022,0,0,0,1.971,8.055l24.844,39.521a13.206,13.206,0,1,0,22.363-14.053l-6.892-10.975a5.468,5.468,0,0,0,3.276,2.226,6.136,6.136,0,0,0,1.234.142,5.506,5.506,0,1,0-4.779-2.794l-10.65-16.946,16.9-10.62a5.445,5.445,0,0,0-2.17,3.261,5.455,5.455,0,0,0,4.126,6.551,5.036,5.036,0,0,0,1.22.156,5.486,5.486,0,0,0,1.205-10.834,5.566,5.566,0,0,0-3.871.539l17.215-10.806a5.415,5.415,0,0,0-2.17,3.247,5.48,5.48,0,0,0,8.253,5.857,5.451,5.451,0,0,0,2.425-3.418,5.472,5.472,0,0,0-8-6.013l4.382-2.751a13.226,13.226,0,0,0,3.3-19.414l-3.233-4.041a5.425,5.425,0,1,0-.383-.468L305.979,780.1a5.312,5.312,0,0,0,3.474,1.8,4.649,4.649,0,0,0,.624.029,5.484,5.484,0,1,0-5.445-6.084,5.493,5.493,0,0,0,.978,3.8l-12.451-15.613,15.6-12.437a5.482,5.482,0,0,0,3.035,9.53c.213.014.411.029.624.029a5.475,5.475,0,0,0,4.268-8.892,5.455,5.455,0,0,0-7.445-1.064l15.9-12.677a5.485,5.485,0,0,0,3.021,9.544c.227.014.425.028.638.028a5.476,5.476,0,0,0,.6-10.918,4.56,4.56,0,0,0-.624-.042,5.47,5.47,0,0,0-3.176,1.02l4.056-3.232a13.175,13.175,0,0,0,1.106-19.655l-3.644-3.658a5.472,5.472,0,1,0-.227-7.955,5.461,5.461,0,0,0-.213,7.516L312.3,696.806a5.378,5.378,0,0,0,3.644,1.39,5.482,5.482,0,1,0-4.084-1.829l-14.11-14.11,14.11-14.109a5.479,5.479,0,1,0,7.955-.212,5.456,5.456,0,0,0-7.53-.213l14.379-14.379a5.479,5.479,0,1,0,7.955-.228,5.493,5.493,0,0,0-7.53-.2l3.659-3.658a32.649,32.649,0,0,0,7.927-10.593,5.469,5.469,0,0,0,2.793,7.062,5.321,5.321,0,0,0,2.269.5,5.48,5.48,0,1,0-4.821-8.069,60.053,60.053,0,0,0,4.765-18.335,5.465,5.465,0,0,0,4.694,5.729,4.984,4.984,0,0,0,.794.056,5.48,5.48,0,0,0,5.4-4.694A5.43,5.43,0,0,0,353.555,616.842Zm-46.924-52.6a5.47,5.47,0,1,1,0-7.743A5.452,5.452,0,0,1,306.631,564.247ZM109.237,556.5a5.47,5.47,0,1,1,0,7.743A5.478,5.478,0,0,1,109.237,556.5Zm52.411,272.934-32.984-20.76a5.406,5.406,0,0,1-1.361-8.012l24.291-30.488a13.16,13.16,0,0,0,2.879-8.479,697.267,697.267,0,0,0,12.479,74.15A13.122,13.122,0,0,0,161.649,829.437ZM289.7,804.976a5.42,5.42,0,0,1-2.51,3.7l-32.984,20.76a13.169,13.169,0,0,0-5.289,6.41,697.267,697.267,0,0,0,12.479-74.15,13.16,13.16,0,0,0,2.879,8.479l24.291,30.488A5.491,5.491,0,0,1,289.7,804.976Z" transform="translate(-61.22 -541.399)" fill="#ff893b"/></g><path d="M124.612,641.518q18.08,0,28.744-11.245t10.664-30.417V544.608h-7.955v55.659q0,15.294-8.551,24.305-8.572,9-22.9,9-14.358,0-22.916-9t-8.565-24.305V544.608H85.388v55.248q0,19.249,10.607,30.445Q106.588,641.533,124.612,641.518Zm75.724-80.985,61.288,73.1h6.14V550.962h-6.622v72.151l-60.509-72.151h-6.92v82.672h6.622Zm99.874,73.1h7.161V550.962H300.21Zm63.529,1.475,35-84.147H391.7l-28.546,69.385-28.3-69.385h-7.275l35.1,84.147Zm100.469-7.02H425.084V594.4h36.94v-5.318h-36.94v-32.8h38.188v-5.318h-44.8v82.672h45.732Zm33.268-34.161h6.807a45.948,45.948,0,0,1,10.579.908,12.253,12.253,0,0,1,5.786,3.105,52.323,52.323,0,0,1,4.5,5.531c1.886,2.566,4.141,5.856,6.736,9.841l13.174,20.321h7.516l-22.76-34.87a23.183,23.183,0,0,0-3.3-3.9,22.33,22.33,0,0,0-4.084-3.007c5.289-1.7,9.232-4.211,11.855-7.572q3.935-5.019,3.928-12.634,0-10-7.034-15.343t-20.207-5.346H490.868v82.672h6.608Zm0-37.408h13.84c6.254,0,11.1,1.319,14.507,3.957s5.105,6.367,5.105,11.174a16.41,16.41,0,0,1-2.269,8.92,14.97,14.97,0,0,1-6.821,5.615,21.6,21.6,0,0,1-6.154,1.589,117.977,117.977,0,0,1-13.117.467h-5.091Zm91.2,78.306q10.7,0,17.556-6.368a21.1,21.1,0,0,0,6.849-16.208,22.558,22.558,0,0,0-1.376-7.927,20.034,20.034,0,0,0-4.056-6.609q-3.85-4.338-15.315-8.991c-.78-.312-1.376-.552-1.773-.709-6.764-2.878-11.188-5.46-13.23-7.742a12.808,12.808,0,0,1-3.063-8.863,14.375,14.375,0,0,1,4.779-11.075,17.45,17.45,0,0,1,12.295-4.411,27.515,27.515,0,0,1,9.189,1.646,44.26,44.26,0,0,1,9.785,5.147v-7.388a39.854,39.854,0,0,0-9.288-4.1,33.656,33.656,0,0,0-9.458-1.333q-10.678,0-17.343,6.112a20.478,20.478,0,0,0-6.651,15.754q0,7.743,4.382,12.734,4.361,5,16.251,9.9,11.465,4.786,14.691,8.367a13.218,13.218,0,0,1,3.2,9.188q0,7.616-4.722,12.054c-3.148,2.964-7.416,4.424-12.819,4.424a25.95,25.95,0,0,1-10.139-2.212,50.246,50.246,0,0,1-11.075-6.764v8.04a45.708,45.708,0,0,0,10.664,5.488A32.155,32.155,0,0,0,588.671,634.826Zm58.339-83.864h-7.161v82.672h7.161ZM724.252,631.8a35.57,35.57,0,0,0,12.054-5.786,39.866,39.866,0,0,0,12.138-14.69,44.019,44.019,0,0,0,0-38.174,39.754,39.754,0,0,0-12.138-14.691,36.036,36.036,0,0,0-11.969-5.7,62.1,62.1,0,0,0-16.109-1.8H679.569v82.672h28.659A61.74,61.74,0,0,0,724.252,631.8ZM686.6,627.849V556.932h19.98a63.818,63.818,0,0,1,14.025,1.333,28.882,28.882,0,0,1,10.139,4.226,31.553,31.553,0,0,1,10.848,12.55,40.184,40.184,0,0,1,0,34.657,31.606,31.606,0,0,1-10.848,12.536,29.766,29.766,0,0,1-10.139,4.254,62.841,62.841,0,0,1-14.025,1.362Zm117.9-77.6h-2.652L765.8,633.634h7.02L785,604.861h36.345l12.238,28.773h6.963Zm-17.2,48.993,15.9-37.535,15.84,37.535ZM904.5,631.8a35.57,35.57,0,0,0,12.054-5.786,39.731,39.731,0,0,0,12.138-14.69,44.019,44.019,0,0,0,0-38.174,39.619,39.619,0,0,0-12.138-14.691,36.17,36.17,0,0,0-11.969-5.7,62.173,62.173,0,0,0-16.109-1.8H859.818v82.672h28.659A61.664,61.664,0,0,0,904.5,631.8Zm-37.649-3.956V556.932h19.98a63.818,63.818,0,0,1,14.025,1.333A28.88,28.88,0,0,1,911,562.49a31.554,31.554,0,0,1,10.848,12.55,40.187,40.187,0,0,1,0,34.657A31.607,31.607,0,0,1,911,622.233a29.763,29.763,0,0,1-10.139,4.254,62.841,62.841,0,0,1-14.025,1.362ZM111.31,754.863H174.1V730.615H111.31V694.072H175.9V670.135H85.36v146.6h92.656V792.613H111.31Zm108.354-72.32H195.472V816.734h85.2V794.2h-61Zm192.189,55.9a31.209,31.209,0,0,0,9.756-8.778c3.772-5.318,5.686-12,5.686-19.825,0-12.606-4.2-22.519-12.493-29.453-8.111-6.793-19.683-10.253-34.331-10.253H336.356v146.6H388.1c15.244,0,27.567-3.716,36.614-11.061,9.246-7.516,13.94-17.684,13.94-30.232,0-9.828-3.077-18.307-9.147-25.214A43.457,43.457,0,0,0,411.854,738.443Zm-49.561-44.172h16.166c7.828,0,13.5,1.375,16.847,4.055,3.191,2.567,4.751,6.722,4.751,12.721,0,6.608-2.042,11.331-6.225,14.436-4.4,3.275-11.458,4.934-21,4.934H362.292ZM405.6,787.848c-3.956,3.02-10.55,4.552-19.6,4.552h-23.71V754.863h20.491c10.153,0,17.584,1.617,22.107,4.808,4.24,3.006,6.31,7.7,6.31,14.365C411.2,780.46,409.372,784.983,405.6,787.848Zm162.424-87.126a69.525,69.525,0,0,0-23.015-14.989,75,75,0,0,0-54.695-.043,71.454,71.454,0,0,0-23.143,15,68.7,68.7,0,0,0-15.514,22.32,65.593,65.593,0,0,0-5.474,26.121,67.856,67.856,0,0,0,20.973,49.717,70.935,70.935,0,0,0,23.015,14.918,72.711,72.711,0,0,0,27.283,5.26,74.037,74.037,0,0,0,27.453-5.119,72.222,72.222,0,0,0,23.285-15.059,67.964,67.964,0,0,0,15.386-22.178A66.588,66.588,0,0,0,589,750.326a66.869,66.869,0,0,0-20.973-49.6ZM559.955,767.3a45.538,45.538,0,0,1-9.941,14.791,44.175,44.175,0,0,1-14.79,10A47.547,47.547,0,0,1,499.787,792a43.583,43.583,0,0,1-14.734-9.927,44.967,44.967,0,0,1-9.87-14.776,45.59,45.59,0,0,1-3.432-17.527,46.691,46.691,0,0,1,3.432-17.726,42.968,42.968,0,0,1,9.841-14.635,48.676,48.676,0,0,1,15.145-10.1,44.338,44.338,0,0,1,17.286-3.516,45.285,45.285,0,0,1,17.6,3.474,44.254,44.254,0,0,1,14.776,10.1A47.5,47.5,0,0,1,560,732.388a45.85,45.85,0,0,1-.043,34.912Zm83.24-29.552-2.708-1.617c-18.449-11.5-21.2-18.137-21.2-21.072a10.337,10.337,0,0,1,4.3-8.565c5.715-4.467,15.868-4.835,25.284-.781a66.386,66.386,0,0,1,14.876,9.416l4.921,3.957v-28.8l-1.446-.894a66.127,66.127,0,0,0-15.23-6.948,53.781,53.781,0,0,0-15.471-2.282c-11.841,0-21.7,3.474-29.283,10.352-7.686,6.948-11.586,15.938-11.586,26.744a33.614,33.614,0,0,0,6.112,20.094c3.956,5.488,13.131,12.834,28.092,22.49,11.231,7.119,15.414,10.962,16.974,12.919a14.149,14.149,0,0,1,3.049,9.076,11.681,11.681,0,0,1-4.368,9.685c-3.091,2.51-7.5,3.786-13.117,3.786a31.439,31.439,0,0,1-15.428-4.027c-4.963-2.738-10.281-7.36-15.811-13.713l-5.318-6.1v33.679l1.092.908a55.286,55.286,0,0,0,16.96,9.869,59.412,59.412,0,0,0,19.7,3.105c11.77,0,21.6-3.488,29.226-10.352A34.238,34.238,0,0,0,674.435,782.2c0-9.161-2.07-17-6.168-23.313C664.2,752.624,656.015,745.718,643.2,737.748ZM808.91,791.974a63.271,63.271,0,0,0,14.9-41.648,66.869,66.869,0,0,0-20.973-49.6,69.669,69.669,0,0,0-23.015-14.989,75,75,0,0,0-54.694-.043,71.458,71.458,0,0,0-23.143,15,68.7,68.7,0,0,0-15.513,22.32A65.593,65.593,0,0,0,681,749.135c0,16.322,4.949,30.828,14.719,43.094,9.643,12.139,22.561,20.293,38.415,24.278a174.325,174.325,0,0,0,33.324,19.044c10.735,4.481,20.6,6.736,29.325,6.736,1.234,0,2.141-.015,2.751-.043a13.33,13.33,0,0,0,2.141-.284l.794-.156,19.612-17.031-2.4-6.268-2.5.482c-2.425.468-4.651.837-6.693,1.064a48.525,48.525,0,0,1-5.474.354,65.484,65.484,0,0,1-16.223-2.2,112.051,112.051,0,0,1-12.366-4.1C789.78,809.26,800.671,801.83,808.91,791.974ZM794.771,767.3a47.741,47.741,0,0,1-24.943,25.071,45.229,45.229,0,0,1-35.012-.127,46.233,46.233,0,0,1-14.932-10.168A44.784,44.784,0,0,1,710,767.3a45.588,45.588,0,0,1-3.432-17.527A46.689,46.689,0,0,1,710,732.048a42.8,42.8,0,0,1,9.856-14.635,48.449,48.449,0,0,1,15.131-10.1,44.337,44.337,0,0,1,17.286-3.516,45.406,45.406,0,0,1,17.612,3.474,44.341,44.341,0,0,1,14.762,10.1,47.5,47.5,0,0,1,10.167,15.017,45.849,45.849,0,0,1-.043,34.912Zm133.808.057c0,8.551-2.978,15.244-9.1,20.42-6.183,5.232-14.563,7.884-24.887,7.884a42.173,42.173,0,0,1-16.492-3.048,32.854,32.854,0,0,1-12.309-9.133,19.676,19.676,0,0,1-3.857-7.714c-.808-3.148-1.234-8.763-1.234-16.647V682.543H836.42v77.313c0,10.507.709,18.137,2.184,23.355a38.529,38.529,0,0,0,7.558,14.351A55.418,55.418,0,0,0,867.078,813.6a67.851,67.851,0,0,0,27.51,5.431c17.1,0,31.211-4.736,41.932-14.081,10.834-9.431,16.336-21.895,16.336-37.039V682.543H928.579ZM996.887,794.2V760.309h57.261V737.691H996.887v-32.8h58.906V682.543H972.709V816.734h85.013V794.2Z" transform="translate(256.961 -499.086)" fill="#394024"/></g></g><line y1="1198" x2="1886" transform="translate(-175.5 -108.5)" fill="none" stroke="red" stroke-width="20"/></g></svg>