<svg xmlns="http://www.w3.org/2000/svg" xmlns:xlink="http://www.w3.org/1999/xlink" width="1534" height="984" viewBox="0 0 1534 984"><defs><clipPath id="b"><rect width="1534" height="984"/></clipPath></defs><g id="a" clip-path="url(#b)"><rect width="1534" height="984" fill="#fff"/><g transform="translate(-84.281 -210.736)"><g transform="translate(190.871 517.277)"><path d="M355.228,463.5a5.617,5.617,0,0,0-3.637-2.153,7.313,7.313,0,0,0-.784-.057,5.505,5.505,0,0,0-5.42,4.606l.029-.271a76.925,76.925,0,0,0-.285-19.026,5.5,5.5,0,0,0,5.391,4.421,5.145,5.145,0,0,0,.8-.057,5.512,5.512,0,0,0,4.664-6.246,5.545,5.545,0,0,0-5.462-4.72,7.588,7.588,0,0,0-.784.057,5.532,5.532,0,0,0-4.692,5.962A71.791,71.791,0,0,0,339.7,427.63a5.473,5.473,0,0,0,2.966,2.624,5.681,5.681,0,0,0,1.925.356,5.559,5.559,0,0,0,5.163-3.594,5.511,5.511,0,1,0-10.3.057,67.328,67.328,0,0,0-54.808-39.263c-8.158-.884-12.608,1.526-14.861,3.58-4.521,4.121-4.792,10.325-.727,15.645l43.142,54.75a13.3,13.3,0,0,1-.913,17.756L270.913,519.9a13.307,13.307,0,0,0,0,18.782l27.711,27.739a5.421,5.421,0,0,1-.456,8.158l-30.634,24.459a13.232,13.232,0,0,0-4.721,7.7,712.181,712.181,0,0,0,4.221-77.442,710.429,710.429,0,0,0-5.947-91.731H234.174a710.429,710.429,0,0,1,5.947,91.731,702.49,702.49,0,0,1-31.347,208.051,707.386,707.386,0,0,1-25.4-299.782H156.462a711.346,711.346,0,0,0-1.726,169.173,13.183,13.183,0,0,0-4.735-7.7l-30.634-24.459a5.381,5.381,0,0,1-2.068-3.964,5.533,5.533,0,0,1,1.612-4.193l27.711-27.739a13.272,13.272,0,0,0,0-18.782l-40.347-40.361a13.265,13.265,0,0,1-.927-17.756l43.142-54.75c4.05-5.32,3.794-11.524-.727-15.645-2.268-2.053-6.717-4.464-14.861-3.58a67.328,67.328,0,0,0-54.808,39.263,5.506,5.506,0,1,0-10.311-.057,5.459,5.459,0,0,0,2.881,3.08,5.4,5.4,0,0,0,2.3.513,5.539,5.539,0,0,0,1.911-.356,5.454,5.454,0,0,0,2.981-2.624A70.659,70.659,0,0,0,72.5,446.014a5.544,5.544,0,0,0-4.706-5.962,7.053,7.053,0,0,0-.784-.057,5.53,5.53,0,0,0-5.448,4.72,5.512,5.512,0,0,0,4.664,6.246,4.909,4.909,0,0,0,.8.057,5.5,5.5,0,0,0,5.391-4.421,76.925,76.925,0,0,0-.285,19.026l.029.271a5.509,5.509,0,0,0-5.434-4.606,7.053,7.053,0,0,0-.77.057A5.583,5.583,0,0,0,62.32,463.5a5.512,5.512,0,0,0,4.407,8.814,7.759,7.759,0,0,0,.8-.043,5.49,5.49,0,0,0,3.623-2.168,5.387,5.387,0,0,0,1.084-3.608,60.662,60.662,0,0,0,4.806,18.44,5.528,5.528,0,1,0,.243.513,32.733,32.733,0,0,0,7.972,10.668l3.665,3.665a5.3,5.3,0,1,0,.442.428l14.461,14.462a5.516,5.516,0,1,0,.428.428l14.19,14.2-14.19,14.176a5.32,5.32,0,1,0-.442.457L89.36,558.382a5.539,5.539,0,0,0-.214-7.573,5.468,5.468,0,0,0-3.893-1.612,5.512,5.512,0,1,0,3.665,9.627l-3.665,3.665a13.264,13.264,0,0,0,1.112,19.781l4.065,3.237a5.465,5.465,0,0,0-3.195-1.027,4.463,4.463,0,0,0-.613.043,5.485,5.485,0,0,0-4.863,6.09,5.407,5.407,0,0,0,2.039,3.694,5.465,5.465,0,0,0,3.423,1.2,4.577,4.577,0,0,0,.628-.029,5.437,5.437,0,0,0,3.694-2.04,5.515,5.515,0,0,0-.642-7.559l15.973,12.75a5.513,5.513,0,1,0-3.195,10.012c.214,0,.428-.014.628-.028a5.514,5.514,0,0,0,3.066-9.584l15.688,12.507-12.522,15.7a5.515,5.515,0,1,0-9.955-2.582,5.506,5.506,0,0,0,5.448,4.892,4.526,4.526,0,0,0,.628-.043,5.41,5.41,0,0,0,3.508-1.811L97.4,643.7a5.432,5.432,0,1,0-.371.471L93.8,648.231A13.275,13.275,0,0,0,97.1,667.769l4.393,2.753a5.515,5.515,0,0,0-7.331,1.9,5.447,5.447,0,0,0-.7,4.15,5.508,5.508,0,1,0,8.557-5.719l17.3,10.882a5.4,5.4,0,0,0-3.879-.542,5.5,5.5,0,0,0-1.711,10.026,5.36,5.36,0,0,0,2.909.856,5.918,5.918,0,0,0,1.241-.142,5.493,5.493,0,0,0,4.15-6.6,5.446,5.446,0,0,0-2.182-3.266l17,10.682-10.711,17.043a5.521,5.521,0,0,0-6.019-8.1,5.515,5.515,0,0,0-1.711,10.054,5.481,5.481,0,0,0,2.924.841,6.268,6.268,0,0,0,1.241-.142,5.578,5.578,0,0,0,3.294-2.225l-6.931,11.039a13.281,13.281,0,0,0,22.491,14.133L166.4,695.637a13.172,13.172,0,0,0,2-8.115,698.115,698.115,0,0,0,20.608,71.751h39.534a701.774,701.774,0,0,0,20.608-71.751,13.159,13.159,0,0,0,1.982,8.115l24.987,39.748a13.281,13.281,0,0,0,22.491-14.133l-6.931-11.039a5.535,5.535,0,0,0,3.294,2.225,6.148,6.148,0,0,0,1.241.142,5.517,5.517,0,0,0,4.664-8.457,5.525,5.525,0,0,0-7.616-1.725,5.506,5.506,0,0,0-2.439,3.451,5.569,5.569,0,0,0,.585,3.936L280.7,692.742l17-10.682a5.506,5.506,0,0,0,1.968,9.869,5.894,5.894,0,0,0,1.227.142,5.372,5.372,0,0,0,2.924-.856,5.511,5.511,0,0,0-5.6-9.484l17.314-10.882a5.477,5.477,0,1,0,.513-.328l4.407-2.753a13.319,13.319,0,0,0,3.323-19.539l-3.252-4.064a5.516,5.516,0,0,0,4.122,1.839,5.415,5.415,0,0,0,3.423-1.2,5.511,5.511,0,1,0-7.93-1.112l-12.75-16a5.344,5.344,0,0,0,3.494,1.811,4.847,4.847,0,0,0,.628.043,5.533,5.533,0,0,0,5.462-4.892,5.436,5.436,0,0,0-1.169-4.065,5.518,5.518,0,0,0-3.68-2.04,5.578,5.578,0,0,0-4.064,1.169,5.546,5.546,0,0,0-1.041,7.516l-12.522-15.7,15.688-12.507a5.507,5.507,0,0,0,3.052,9.584c.214.014.414.028.628.028a5.5,5.5,0,0,0,5.462-4.892,5.384,5.384,0,0,0-1.17-4.05,5.513,5.513,0,0,0-7.487-1.07l15.987-12.75a5.515,5.515,0,0,0-.642,7.559,5.405,5.405,0,0,0,3.68,2.04,4.89,4.89,0,0,0,.642.029,5.465,5.465,0,0,0,3.423-1.2,5.408,5.408,0,0,0,2.039-3.694,5.524,5.524,0,0,0-1.17-4.05,5.44,5.44,0,0,0-3.694-2.04,4.673,4.673,0,0,0-.628-.043,5.5,5.5,0,0,0-3.195,1.027l4.079-3.237a13.265,13.265,0,0,0,1.112-19.781l-3.665-3.665A5.511,5.511,0,1,0,332.3,549.2a5.444,5.444,0,0,0-3.893,1.612,5.51,5.51,0,0,0-.214,7.573l-14.447-14.447a5.479,5.479,0,0,0,3.665,1.4,5.527,5.527,0,1,0-4.107-1.854L299.108,529.3l14.19-14.2a5.515,5.515,0,1,0,8-.214,5.525,5.525,0,0,0-7.573-.213l14.461-14.462a5.506,5.506,0,1,0,.428-.428l3.68-3.665a32.938,32.938,0,0,0,7.972-10.668,5.488,5.488,0,0,0,2.81,7.1,5.363,5.363,0,0,0,2.282.5,5.511,5.511,0,1,0-4.849-8.115,60.3,60.3,0,0,0,4.792-18.44,5.465,5.465,0,0,0,1.084,3.608,5.521,5.521,0,0,0,3.637,2.168,7.553,7.553,0,0,0,.8.043,5.512,5.512,0,0,0,5.434-4.72A5.461,5.461,0,0,0,355.228,463.5Zm-47.192-52.9a5.5,5.5,0,1,1,0-7.773A5.484,5.484,0,0,1,308.036,410.6Zm-198.524-7.773a5.5,5.5,0,1,1,0,7.773A5.483,5.483,0,0,1,109.512,402.829Zm52.711,274.5-33.173-20.88a5.45,5.45,0,0,1-1.369-8.072l24.431-30.663a13.209,13.209,0,0,0,2.9-8.529,701.48,701.48,0,0,0,12.55,74.589A13.073,13.073,0,0,0,162.224,677.325Zm128.784-24.6a5.512,5.512,0,0,1-2.524,3.722l-33.173,20.88a13.119,13.119,0,0,0-5.32,6.446,701.465,701.465,0,0,0,12.55-74.589,13.21,13.21,0,0,0,2.9,8.529l24.43,30.663A5.554,5.554,0,0,1,291.007,652.723Z" transform="translate(-61.22 -387.623)" fill="#b3b3b3"/></g><path d="M124.836,488.312q18.184,0,28.909-11.324,10.718-11.3,10.725-30.577V390.833h-8v55.992q0,15.359-8.6,24.43-8.621,9.049-23.033,9.056-14.44,0-23.047-9.056t-8.614-24.43V390.833H85.389v55.578q0,19.339,10.668,30.62T124.836,488.312Zm76.158-81.449,61.639,73.5h6.175V397.222h-6.66V469.8l-60.855-72.578h-6.96v83.146h6.66Zm100.446,73.5h7.2V397.222h-7.2Zm63.893,1.5,35.2-84.643h-7.074L364.748,467l-28.466-69.783h-7.316l35.3,84.643Zm101.045-7.074H427.029V440.906h37.152v-5.348H427.029V402.571h38.407v-5.348H420.383v83.146h45.994Zm33.458-34.356h6.846a46.268,46.268,0,0,1,10.639.912,12.468,12.468,0,0,1,5.819,3.138,50.7,50.7,0,0,1,4.521,5.548c1.9,2.595,4.164,5.89,6.774,9.9l13.249,20.437h7.559l-22.89-35.055a22.253,22.253,0,0,0-3.323-3.922,21.892,21.892,0,0,0-4.107-3.037q7.979-2.546,11.923-7.6c2.639-3.38,3.951-7.6,3.951-12.722q0-10.054-7.074-15.417-7.081-5.39-20.323-5.391H493.189v83.146h6.646Zm0-37.623h13.92c6.289,0,11.167,1.326,14.59,3.979s5.134,6.4,5.134,11.238A16.467,16.467,0,0,1,531.2,427a14.973,14.973,0,0,1-6.86,5.648,22.145,22.145,0,0,1-6.19,1.611,122.239,122.239,0,0,1-13.192.471h-5.12Zm91.717,78.753q10.761,0,17.656-6.389a21.277,21.277,0,0,0,6.888-16.315,22.8,22.8,0,0,0-1.383-7.972,20.289,20.289,0,0,0-4.079-6.646q-3.872-4.343-15.4-9.042c-.784-.314-1.383-.556-1.783-.713-6.8-2.895-11.253-5.491-13.306-7.773a12.9,12.9,0,0,1-3.081-8.928,14.458,14.458,0,0,1,4.806-11.138,17.551,17.551,0,0,1,12.365-4.435,27.36,27.36,0,0,1,9.242,1.668,45.04,45.04,0,0,1,9.841,5.163v-7.416a39.58,39.58,0,0,0-9.341-4.136,33.864,33.864,0,0,0-9.513-1.34q-10.739,0-17.442,6.161a20.545,20.545,0,0,0-6.689,15.831c0,5.191,1.469,9.47,4.407,12.807s8.372,6.675,16.344,9.955q11.531,4.813,14.775,8.415a13.294,13.294,0,0,1,3.223,9.241c0,5.106-1.583,9.156-4.749,12.123s-7.459,4.464-12.893,4.464a25.881,25.881,0,0,1-10.2-2.239,50.552,50.552,0,0,1-11.138-6.8v8.087a46.069,46.069,0,0,0,10.725,5.533A32.68,32.68,0,0,0,591.553,481.566Zm58.673-84.344h-7.2v83.146h7.2Zm77.684,81.306a35.776,35.776,0,0,0,12.123-5.819,39.871,39.871,0,0,0,12.208-14.775,44.268,44.268,0,0,0,0-38.392,39.941,39.941,0,0,0-12.208-14.761,36.023,36.023,0,0,0-12.037-5.747,63.087,63.087,0,0,0-16.2-1.811H682.971v83.146h28.823A62.1,62.1,0,0,0,727.909,478.528Zm-37.865-3.979V403.226h20.095a64.242,64.242,0,0,1,14.1,1.341,29.351,29.351,0,0,1,10.2,4.25,31.78,31.78,0,0,1,10.91,12.636,40.416,40.416,0,0,1,0,34.856,31.752,31.752,0,0,1-10.91,12.593,29.926,29.926,0,0,1-10.2,4.278,63.228,63.228,0,0,1-14.1,1.369Zm118.572-78.041H805.95L769.7,480.368h7.06l12.251-28.937H825.56l12.308,28.937h7Zm-17.3,49.274L807.3,408.047l15.93,37.736Zm117.873,32.745a35.774,35.774,0,0,0,12.123-5.819,39.737,39.737,0,0,0,12.208-14.775,44.269,44.269,0,0,0,0-38.392,39.806,39.806,0,0,0-12.208-14.761,36.154,36.154,0,0,0-12.037-5.747,63.164,63.164,0,0,0-16.2-1.811H864.252v83.146h28.823A62.024,62.024,0,0,0,909.191,478.528Zm-37.865-3.979V403.226H891.42a64.241,64.241,0,0,1,14.1,1.341,29.353,29.353,0,0,1,10.2,4.25,31.781,31.781,0,0,1,10.91,12.636,40.418,40.418,0,0,1,0,34.856,31.754,31.754,0,0,1-10.91,12.593,29.928,29.928,0,0,1-10.2,4.278,63.228,63.228,0,0,1-14.1,1.369ZM111.459,602.292H174.61V577.919H111.459V541.152h64.962V517.092H85.36V664.516h93.186v-24.26H111.459Zm108.974-72.735H196.1V664.516h85.685V641.854H220.433Zm193.29,56.22a31.383,31.383,0,0,0,9.812-8.828c3.794-5.348,5.719-12.051,5.719-19.938,0-12.679-4.221-22.648-12.565-29.622-8.158-6.831-19.8-10.3-34.528-10.3H337.793V664.516h52.041c15.331,0,27.725-3.737,36.824-11.124,9.3-7.545,14.019-17.77,14.019-30.407,0-9.869-3.095-18.4-9.2-25.343A43.728,43.728,0,0,0,413.723,585.777Zm-49.845-44.412h16.258c7.872,0,13.577,1.369,16.943,4.065,3.209,2.6,4.778,6.76,4.778,12.793,0,6.66-2.054,11.409-6.261,14.533-4.421,3.28-11.523,4.949-21.122,4.949h-10.6Zm43.555,94.1c-3.979,3.053-10.611,4.593-19.71,4.593H363.878V602.292h20.608c10.211,0,17.685,1.626,22.234,4.835,4.264,3.023,6.346,7.758,6.346,14.447C413.067,628.035,411.227,632.584,407.433,635.465Zm163.354-87.624a69.908,69.908,0,0,0-23.147-15.075,75.5,75.5,0,0,0-55.008-.043,71.907,71.907,0,0,0-23.275,15.1,68.8,68.8,0,0,0-15.6,22.448,65.847,65.847,0,0,0-5.505,26.256,68.177,68.177,0,0,0,21.093,50,71.315,71.315,0,0,0,23.147,15,72.823,72.823,0,0,0,27.44,5.291,74.749,74.749,0,0,0,27.611-5.134,73.143,73.143,0,0,0,23.418-15.146,68.407,68.407,0,0,0,15.474-22.32,66.965,66.965,0,0,0,5.448-26.5,67.314,67.314,0,0,0-21.093-49.888ZM562.673,614.8a46,46,0,0,1-10,14.889A44.866,44.866,0,0,1,537.8,639.744a47.826,47.826,0,0,1-35.64-.1,43.8,43.8,0,0,1-14.818-9.969,45.592,45.592,0,0,1-13.377-32.488,46.906,46.906,0,0,1,3.451-17.827,43.274,43.274,0,0,1,9.9-14.733,48.9,48.9,0,0,1,15.232-10.14,44.34,44.34,0,0,1,17.385-3.552,45.825,45.825,0,0,1,17.7,3.494,44.735,44.735,0,0,1,14.861,10.155A47.661,47.661,0,0,1,562.715,579.7a44.888,44.888,0,0,1,3.451,17.485A45.344,45.344,0,0,1,562.673,614.8Zm83.716-29.721-2.724-1.626c-18.555-11.566-21.321-18.241-21.321-21.179a10.4,10.4,0,0,1,4.321-8.628c5.747-4.478,15.959-4.849,25.429-.784a67.268,67.268,0,0,1,14.961,9.47L672,566.309V537.344l-1.455-.884a65.952,65.952,0,0,0-15.317-7,54.1,54.1,0,0,0-15.56-2.3c-11.909,0-21.82,3.508-29.451,10.411-7.73,7-11.652,16.044-11.652,26.9a33.778,33.778,0,0,0,6.147,20.209c3.979,5.52,13.206,12.921,28.253,22.633,11.3,7.16,15.5,11.01,17.071,12.993a14.175,14.175,0,0,1,3.066,9.127,11.767,11.767,0,0,1-4.393,9.741c-3.109,2.51-7.544,3.794-13.192,3.794A31.607,31.607,0,0,1,620,638.931c-4.992-2.767-10.34-7.416-15.9-13.806l-5.348-6.133v33.872l1.1.913A55.311,55.311,0,0,0,616.91,663.7a59.4,59.4,0,0,0,19.81,3.123c11.837,0,21.721-3.508,29.394-10.4a34.482,34.482,0,0,0,11.695-26.641c0-9.214-2.082-17.1-6.2-23.446C667.511,600.039,659.282,593.094,646.389,585.078Zm166.663,54.537a63.608,63.608,0,0,0,14.989-41.887,67.312,67.312,0,0,0-21.093-49.888A70.05,70.05,0,0,0,783.8,532.766a75.5,75.5,0,0,0-55.007-.043,71.906,71.906,0,0,0-23.275,15.1,68.8,68.8,0,0,0-15.6,22.448,65.852,65.852,0,0,0-5.505,26.256c0,16.415,4.977,31,14.8,43.355,9.7,12.194,22.69,20.395,38.635,24.417,11.752,8.329,23.019,14.775,33.515,19.139,10.8,4.506,20.722,6.788,29.493,6.788,1.241,0,2.153-.014,2.767-.057a15.042,15.042,0,0,0,2.153-.271l.8-.157L826.3,672.617l-2.41-6.318-2.51.5c-2.439.456-4.678.827-6.732,1.055a48.818,48.818,0,0,1-5.505.357A65.168,65.168,0,0,1,792.829,666a112.615,112.615,0,0,1-12.436-4.122C793.813,657,804.766,649.541,813.052,639.615ZM798.833,614.8a46.186,46.186,0,0,1-9.983,14.889,46.739,46.739,0,0,1-15.1,10.34,45.549,45.549,0,0,1-35.212-.143,46.678,46.678,0,0,1-15.018-10.211,45.342,45.342,0,0,1-9.941-14.861,45.959,45.959,0,0,1-3.451-17.627,46.909,46.909,0,0,1,3.451-17.827,43.105,43.105,0,0,1,9.912-14.733,48.669,48.669,0,0,1,15.217-10.14,44.339,44.339,0,0,1,17.385-3.552,45.948,45.948,0,0,1,17.713,3.494,44.825,44.825,0,0,1,14.847,10.155A47.661,47.661,0,0,1,798.876,579.7a44.889,44.889,0,0,1,3.451,17.485A45.342,45.342,0,0,1,798.833,614.8Zm134.574.071c0,8.6-2.995,15.317-9.156,20.523-6.218,5.262-14.647,7.944-25.029,7.944a42.41,42.41,0,0,1-16.586-3.081,32.879,32.879,0,0,1-12.379-9.184,19.787,19.787,0,0,1-3.879-7.758c-.813-3.167-1.241-8.8-1.241-16.744V529.557H840.72v77.755c0,10.568.713,18.255,2.2,23.489a38.806,38.806,0,0,0,7.6,14.447,55.7,55.7,0,0,0,21.036,16.116,68,68,0,0,0,27.668,5.462c17.2,0,31.39-4.763,42.172-14.148,10.9-9.5,16.43-22.034,16.43-37.252v-85.87H933.407Zm68.7,26.983V607.783H1059.7V585.021h-57.589V552.048h59.243V529.557H977.79V664.516h85.5V641.854Z" transform="translate(449.792 172.227)" fill="#33371d"/></g><line y1="1198" x2="1886" transform="translate(-175.5 -108.5)" fill="none" stroke="red" stroke-width="20"/></g></svg>