<svg xmlns="http://www.w3.org/2000/svg" xmlns:xlink="http://www.w3.org/1999/xlink" width="1534" height="984" viewBox="0 0 1534 984"><defs><clipPath id="b"><rect width="1534" height="984"/></clipPath></defs><g id="a" clip-path="url(#b)"><rect width="1534" height="984" fill="#fff"/><g transform="translate(-100.888 -237.817)"><g transform="translate(213.655 624.417)"><path d="M348.211,377.208a5.306,5.306,0,0,0-3.831-1.457,6.705,6.705,0,0,0-.763.084,5.345,5.345,0,0,0-4.428,5.316l-.028-.264a74.559,74.559,0,0,0-3.47-18.184,5.236,5.236,0,0,0,2.568,2.832,5.364,5.364,0,0,0,3.331.5,6.984,6.984,0,0,0,.763-.18,5.35,5.35,0,0,0,3.109-2.679,5.26,5.26,0,0,0,.305-4.095,5.383,5.383,0,0,0-6.024-3.623c-.25.055-.486.112-.75.195a5.391,5.391,0,0,0-3.5,6.5,69.371,69.371,0,0,0-8.231-16.712,5.361,5.361,0,0,0,3.3,2.026,5.471,5.471,0,0,0,1.9,0,5.265,5.265,0,0,0,2.11-.861,5.363,5.363,0,1,0-7.634-1.638,65.538,65.538,0,0,0-59.172-28.386c-7.967.541-11.812,3.6-13.631,5.941-3.637,4.719-2.845,10.7,1.943,15.116L306.7,382.829a12.931,12.931,0,0,1,2.11,17.184l-31.856,45.5a12.9,12.9,0,0,0,3.179,18l31.245,21.9a5.3,5.3,0,0,1,.93,7.9l-25.221,28.621a12.9,12.9,0,0,0-3.234,8.175,690.481,690.481,0,0,0-9.05-74.954,690.409,690.409,0,0,0-21.182-86.9l-25.8,4.539a694.289,694.289,0,0,1,21.209,86.919,684.136,684.136,0,0,1,5.108,204.722,689.031,689.031,0,0,1-75.01-283.05l-25.79,4.553a692.812,692.812,0,0,0,26.928,162.443,12.872,12.872,0,0,0-5.816-6.579l-33.507-18.267a5.287,5.287,0,0,1-1.818-7.745l21.876-31.273a12.93,12.93,0,0,0-3.179-18l-45.5-31.855a12.912,12.912,0,0,1-3.887-16.865l32.092-59.782c3-5.789,1.693-11.674-3.331-14.866-2.512-1.582-7.19-3.137-14.852-.916a65.5,65.5,0,0,0-45.889,46.9,5.366,5.366,0,1,0-6.621,4.15,5.561,5.561,0,0,0,2.29.1,5.434,5.434,0,0,0,1.777-.666,5.261,5.261,0,0,0,2.4-3.026,70.029,70.029,0,0,0-2.013,18.53,5.38,5.38,0,0,0-5.51-4.914,6.7,6.7,0,0,0-.763.084,5.365,5.365,0,0,0,1.1,10.646,7.177,7.177,0,0,0,.777-.083A5.348,5.348,0,0,0,74.3,408.8a73.743,73.743,0,0,0,2.957,18.28l.069.25a5.368,5.368,0,0,0-5.982-3.484,5.012,5.012,0,0,0-.75.181A5.367,5.367,0,0,0,73.2,434.409a4.456,4.456,0,0,0,.736-.195,5.35,5.35,0,0,0,3.553-6.315,59.091,59.091,0,0,0,7.718,16.864,5.591,5.591,0,1,0,.305.444,32.241,32.241,0,0,0,9.453,8.87l4.15,2.9a5.242,5.242,0,1,0,.486.333l16.3,11.423a5.367,5.367,0,0,0-7.218,1.485A5.365,5.365,0,0,0,110,477.688a5.39,5.39,0,0,0,7.468-1.319,5.364,5.364,0,0,0-1.083-7.287l16,11.2L121.2,496.274a5.369,5.369,0,1,0-7.648,1.569,5.307,5.307,0,0,0,4.011.888,5.38,5.38,0,0,0,3.276-1.944l-11.41,16.282a5.359,5.359,0,0,0-5.5-8.105,5.368,5.368,0,0,0-4.345,6.218,5.367,5.367,0,0,0,9.494,2.387l-2.887,4.136a12.918,12.918,0,0,0,4.4,18.766l4.442,2.429a5.366,5.366,0,0,0-3.22-.458c-.194.041-.389.1-.6.152a5.362,5.362,0,0,0,2.443,10.424,5.075,5.075,0,0,0,.6-.139,5.356,5.356,0,0,0,1.291-9.7l17.475,9.508a5.361,5.361,0,0,0-7,2.29,5.358,5.358,0,0,0,5.622,7.843c.208-.028.4-.083.611-.125a5.386,5.386,0,0,0,1.3-9.716l17.156,9.341-9.355,17.17a5.362,5.362,0,0,0-9.55-4.872,5.362,5.362,0,0,0,5.635,7.843,3.385,3.385,0,0,0,.6-.139,5.275,5.275,0,0,0,3.04-2.332l-9.522,17.49a5.431,5.431,0,1,0-.291.527l-2.415,4.442a12.936,12.936,0,0,0,6.482,18.156l4.678,1.915a5.354,5.354,0,0,0-6.677,7.148,5.37,5.37,0,0,0,5.858,3.193,5.361,5.361,0,0,0,4.025-7.37,5.284,5.284,0,0,0-2.651-2.749l18.419,7.5a5.358,5.358,0,0,0-3.748,10.035,5.23,5.23,0,0,0,2.943.319,5.366,5.366,0,0,0,1.36-10.133l18.1,7.371-7.384,18.141a5.259,5.259,0,0,0-.111-3.872,5.353,5.353,0,0,0-2.915-2.887,5.378,5.378,0,0,0-7,2.943,5.368,5.368,0,0,0,5.885,7.315,5.66,5.66,0,0,0,1.166-.347,5.34,5.34,0,0,0,2.79-2.693L165.3,664.172a12.934,12.934,0,0,0,23.958,9.758l17.226-42.335a12.824,12.824,0,0,0,.541-8.092,682.375,682.375,0,0,0,31.869,65.28l12.09-2.138,13.7-2.415,12.1-2.123a676.85,676.85,0,0,0,7.607-72.248,13.024,13.024,0,0,0,3.29,7.426l30.662,33.882A12.937,12.937,0,0,0,337.523,633.8L329,624.4a5.38,5.38,0,0,0,3.539,1.583,5.88,5.88,0,0,0,1.208-.083,5.246,5.246,0,0,0,2.665-1.3,5.358,5.358,0,0,0-3.331-9.328,5.293,5.293,0,0,0-3.873,1.374,5.345,5.345,0,0,0-.527,7.4L315.537,609.51l14.477-13.1a5.374,5.374,0,0,0-.167,7.371,5.43,5.43,0,0,0,3.706,1.763,5.681,5.681,0,0,0,1.208-.083,5.373,5.373,0,0,0,4.428-5.011,5.365,5.365,0,0,0-1.388-3.873,5.286,5.286,0,0,0-3.706-1.762A5.377,5.377,0,0,0,330.458,596L345.2,582.652a5.367,5.367,0,0,0,7.426,7.746,5.273,5.273,0,0,0,1.749-3.706,5.353,5.353,0,0,0-8.717-4.442l3.748-3.387a12.952,12.952,0,0,0-.125-19.294l-3.8-3.345a5.4,5.4,0,0,0,7.357-.652,5.365,5.365,0,1,0-7.787.263l-14.935-13.173a5.34,5.34,0,0,0,3.664,1.152,4.648,4.648,0,0,0,.611-.083,5.377,5.377,0,0,0,3.081-1.722,5.406,5.406,0,0,0-.472-7.578,5.37,5.37,0,0,0-7.579.472,5.372,5.372,0,0,0,.264,7.384l-14.658-12.937,12.923-14.644a5.367,5.367,0,0,0,4.553,8.675,4.363,4.363,0,0,0,.6-.084,5.259,5.259,0,0,0,3.081-1.721,5.369,5.369,0,0,0-7.842-7.329l13.172-14.908A5.361,5.361,0,0,0,346.06,508a2.945,2.945,0,0,0,.6-.069,5.373,5.373,0,0,0,4.414-5.622,5.327,5.327,0,0,0-1.8-3.678,5.233,5.233,0,0,0-3.887-1.332c-.208.013-.4.041-.6.069A5.291,5.291,0,0,0,341.9,498.9l3.345-3.8a12.886,12.886,0,0,0-2.276-19.141l-4.136-2.887a5.415,5.415,0,0,0,3.762.708,5.363,5.363,0,1,0-5.33-8.356,5.378,5.378,0,0,0,1.069,7.287L322.047,461.3a5.312,5.312,0,0,0,3.748.722,5.359,5.359,0,1,0-4.247-1.069l-16-11.2,11.215-15.99a5.357,5.357,0,0,0,5.483,8.106,5.473,5.473,0,0,0,3.47-2.207,5.37,5.37,0,0,0-8.62-6.4l11.41-16.3a5.34,5.34,0,1,0,.347-.5l2.9-4.136a31.944,31.944,0,0,0,5.844-11.563,5.371,5.371,0,0,0,3.887,6.343,5.5,5.5,0,0,0,2.276.084,5.361,5.361,0,1,0-6.024-6.954,58.356,58.356,0,0,0,1.485-18.489,5.37,5.37,0,0,0,5.5,4.733,7.321,7.321,0,0,0,.777-.083,5.352,5.352,0,0,0,4.414-5.455A5.249,5.249,0,0,0,348.211,377.208ZM294.05,334.484a5.356,5.356,0,1,1-1.3-7.467A5.358,5.358,0,0,1,294.05,334.484Zm-191.605,26.1a5.352,5.352,0,1,1,1.319,7.454A5.364,5.364,0,0,1,102.445,360.579Zm96.927,254.178-35.326-14.408a5.365,5.365,0,0,1-3.04-3.151,5.311,5.311,0,0,1,.361-4.344l18.239-33.521a12.9,12.9,0,0,0,1.333-8.662,683.739,683.739,0,0,0,24.624,69.36A12.743,12.743,0,0,0,199.372,614.757Zm119.274-45.348a5.41,5.41,0,0,1-1.777,4l-28.274,25.609a12.858,12.858,0,0,0-4.011,7.078A682.648,682.648,0,0,0,284,532.488a12.867,12.867,0,0,0,4.22,7.7l28.594,25.248A5.4,5.4,0,0,1,318.646,569.409Z" transform="translate(-63.577 -316.419)" fill="#ff893b"/></g><path d="M141.45,526.926q17.427-3.061,25.8-15.726t5.108-31.134l-9.383-53.259-7.662,1.36,9.453,53.648q2.6,14.742-4.123,24.874T140.1,519.264q-13.825,2.436-23.611-4.789t-12.381-21.959l-9.467-53.648-7.454,1.3,9.383,53.259q3.269,18.551,15.393,27.553T141.45,526.926ZM200.692,436l71.5,60.047L278.117,495,264.07,415.3l-6.385,1.124,12.256,69.555-70.6-59.269-6.663,1.18,14.047,79.688,6.385-1.124Zm108.7,53.481,6.9-1.207-14.047-79.7-6.9,1.208Zm61.49-9.369L390.3,393.036l-6.774,1.194L367.8,465.963,328.725,403.89l-7.01,1.235,48.137,75.162Zm95.664-23.861L428.817,462.9,423.1,430.43l35.6-6.274-.9-5.136-35.6,6.288-5.58-31.62,36.811-6.5-.916-5.122-43.182,7.621,14.061,79.687,44.084-7.773Zm26.262-38.574,6.552-1.166a45.6,45.6,0,0,1,10.341-.916,12.063,12.063,0,0,1,6.121,2.013,50.567,50.567,0,0,1,5.261,4.567c2.263,2.165,5,4.941,8.176,8.342l16.157,17.35,7.232-1.277-27.858-29.746a23,23,0,0,0-3.845-3.192,22.2,22.2,0,0,0-4.456-2.207q7.2-3.789,10.146-9.314c1.957-3.678,2.5-7.954,1.638-12.867q-1.707-9.619-9.383-13.575c-5.136-2.651-11.923-3.206-20.4-1.721l-19.363,3.415,14.061,79.7,6.371-1.125Zm-6.357-36.061,13.325-2.36q9.057-1.582,14.658,1.361t6.829,9.9a16.068,16.068,0,0,1-.68,8.981,14.638,14.638,0,0,1-5.621,6.579,21.482,21.482,0,0,1-5.65,2.582,117.368,117.368,0,0,1-12.576,2.679l-4.9.875ZM587.664,441.59q10.306-1.811,15.838-9.106a20.706,20.706,0,0,0,3.845-16.809,22.072,22.072,0,0,0-2.679-7.384,19.671,19.671,0,0,0-5.039-5.705q-4.435-3.5-16.268-6.051c-.819-.167-1.43-.306-1.832-.375q-10.535-2.436-14.075-5.219a12.478,12.478,0,0,1-4.469-8.023,14.1,14.1,0,0,1,2.721-11.493,17.163,17.163,0,0,1,11.1-6.343,26.655,26.655,0,0,1,9.147.042,42.207,42.207,0,0,1,10.3,3.29l-1.263-7.121a38.478,38.478,0,0,0-9.633-2.387,33.488,33.488,0,0,0-9.342.333q-10.306,1.812-15.685,8.842a20.066,20.066,0,0,0-3.734,16.31,18.2,18.2,0,0,0,6.385,11.535c3.373,2.72,9.147,4.969,17.351,6.787q11.868,2.665,15.574,5.566a12.858,12.858,0,0,1,4.664,8.3q1.291,7.349-2.512,12.423t-11.6,6.454a25.1,25.1,0,0,1-10.147-.416,48.839,48.839,0,0,1-11.826-4.636l1.36,7.745a44.15,44.15,0,0,0,11.215,3.484A31.612,31.612,0,0,0,587.664,441.59Zm41.974-90.751-6.9,1.222,14.047,79.687,6.9-1.208Zm88.2,64.808a34.856,34.856,0,0,0,10.632-7.634,38.988,38.988,0,0,0,9.217-16.226,43.169,43.169,0,0,0-6.5-36.8,38.557,38.557,0,0,0-14.2-12.09,34.859,34.859,0,0,0-12.506-3.47,61.165,61.165,0,0,0-15.824,1L661.022,345.3,675.083,425l27.622-4.872A60.419,60.419,0,0,0,717.835,415.647Zm-36.964,2.568-12.048-68.361,19.238-3.387a63.382,63.382,0,0,1,13.769-1.11,28.98,28.98,0,0,1,10.494,2.36A30.813,30.813,0,0,1,724.9,357.974a39.289,39.289,0,0,1,5.9,33.41,30.947,30.947,0,0,1-8.328,13.922,29.17,29.17,0,0,1-9.036,5.83,63.113,63.113,0,0,1-13.311,3.692Zm100.467-94.831-2.568.444L758.2,410.345l6.774-1.194,6.843-29.815,35.034-6.177,16.684,25.665,6.732-1.194Zm-8.259,50.15,8.953-38.879,21.653,33.479ZM891.59,385a34.623,34.623,0,0,0,10.632-7.634,38.937,38.937,0,0,0,9.217-16.212,43.169,43.169,0,0,0-6.5-36.8,38.775,38.775,0,0,0-14.2-12.09,34.931,34.931,0,0,0-12.506-3.47,61.141,61.141,0,0,0-15.824,1l-27.636,4.872,14.061,79.7L876.46,389.5A60.4,60.4,0,0,0,891.59,385Zm-36.963,2.582-12.062-68.347,19.266-3.415a64.038,64.038,0,0,1,13.756-1.1,28.563,28.563,0,0,1,10.48,2.36,30.651,30.651,0,0,1,12.59,10.257,39.267,39.267,0,0,1,5.9,33.41,30.82,30.82,0,0,1-8.328,13.922,29.316,29.316,0,0,1-9.05,5.83,62.742,62.742,0,0,1-13.3,3.692ZM147.891,638.442l60.533-10.674L204.3,604.393l-60.519,10.674-6.218-35.215,62.268-10.979-4.067-23.083-87.28,15.394L133.414,702.5,222.72,686.76l-4.109-23.278L154.3,674.836Zm92.166-88.127-23.319,4.109,22.806,129.365,82.13-14.477-3.831-21.736-58.811,10.368Zm194.77,21.224a30.824,30.824,0,0,0,7.912-10.119c2.734-5.774,3.442-12.534,2.11-20.1-2.138-12.146-7.87-20.974-17.045-26.248-8.981-5.178-20.71-6.538-34.84-4.053l-42.53,7.5,24.915,141.331,49.886-8.8c14.7-2.6,25.943-8.273,33.424-16.892,7.634-8.814,10.41-19.4,8.287-31.522-1.68-9.453-6.08-17.1-13.1-22.736A42.474,42.474,0,0,0,434.827,571.538Zm-55.286-34.16,15.588-2.748c7.537-1.333,13.228-.972,16.92,1.041,3.512,1.929,5.719,5.677,6.732,11.452,1.124,6.371-.028,11.285-3.526,14.991-3.692,3.9-10.216,6.69-19.4,8.314l-10.16,1.79ZM437.2,620.23c-3.3,3.581-9.4,6.177-18.128,7.717l-22.847,4.025-6.385-36.2,19.752-3.483c9.786-1.722,17.226-1.416,22.125.888,4.608,2.179,7.4,6.357,8.523,12.77C441.337,612.152,440.338,616.816,437.2,620.23ZM578.961,508.618a68.326,68.326,0,0,0-24.749-10.535,73.455,73.455,0,0,0-52.718,9.258,70.068,70.068,0,0,0-19.766,18.405,67.133,67.133,0,0,0-11.16,24.152,64.286,64.286,0,0,0-.833,26.109A66.375,66.375,0,0,0,498.4,620.356a69.306,69.306,0,0,0,24.721,10.479,70.81,70.81,0,0,0,27.192.43,72.74,72.74,0,0,0,25.6-9.591A70.837,70.837,0,0,0,595.8,603.2a66.239,66.239,0,0,0,11.049-24,65.233,65.233,0,0,0,.763-26.33,65.677,65.677,0,0,0-28.649-44.251Zm3.539,65.557a44.735,44.735,0,0,1-7.079,15.949,43.57,43.57,0,0,1-12.548,12.16,46.682,46.682,0,0,1-34.187,5.927,42.353,42.353,0,0,1-15.879-7.051A44.3,44.3,0,0,1,500.773,588.6a44.769,44.769,0,0,1-6.288-16.324,45.829,45.829,0,0,1,.305-17.669,42.23,42.23,0,0,1,7-15.782,47.545,47.545,0,0,1,12.881-12.3,43.324,43.324,0,0,1,16.06-6.329,44.519,44.519,0,0,1,17.573.347,43.608,43.608,0,0,1,15.949,7.217A46.614,46.614,0,0,1,576.6,540.515a43.593,43.593,0,0,1,6.26,16.185A44.044,44.044,0,0,1,582.5,574.175Zm75.2-42.64-2.873-1.1c-19.738-7.94-23.514-13.88-24.027-16.7a10.16,10.16,0,0,1,2.679-8.98c4.775-5.289,14.477-7.357,24.249-5.067a65,65,0,0,1,15.935,6.551l5.427,2.984-4.914-27.775-1.541-.6a63.315,63.315,0,0,0-15.851-4.123,52.833,52.833,0,0,0-15.31.431c-11.41,2.012-20.307,7.037-26.47,14.963-6.219,8.009-8.453,17.336-6.621,27.747A32.98,32.98,0,0,0,617.7,538.2c4.747,4.622,14.838,10.146,30.9,16.92,12.034,4.955,16.726,7.926,18.558,9.563a13.806,13.806,0,0,1,4.483,8.218,11.4,11.4,0,0,1-2.568,10.091c-2.554,2.943-6.593,4.914-12.007,5.872a30.886,30.886,0,0,1-15.546-1.249c-5.247-1.8-11.16-5.358-17.586-10.55l-6.135-4.969,5.719,32.466,1.194.694a53.87,53.87,0,0,0,18.031,6.621,57.611,57.611,0,0,0,19.516-.347c11.34-2,20.224-7.023,26.414-14.949a33.49,33.49,0,0,0,6.7-27.5c-1.555-8.828-4.886-16.032-9.911-21.431C680.483,542.32,671.4,537.045,657.7,531.535Zm168.966,24.11a61.858,61.858,0,0,0,7.287-42.682,68.381,68.381,0,0,0-53.384-54.786,73.426,73.426,0,0,0-52.732,9.258,69.763,69.763,0,0,0-19.752,18.391,67.2,67.2,0,0,0-11.16,24.166,63.729,63.729,0,0,0-.833,26.1c2.762,15.741,10.008,28.885,21.5,39.06,11.368,10.049,25.207,15.713,41.156,16.864a171.085,171.085,0,0,0,35.367,12.7c11.1,2.484,21,2.984,29.413,1.5,1.194-.209,2.068-.375,2.637-.514a14.647,14.647,0,0,0,2.026-.639l.736-.278,16-19.752-3.373-5.635-2.332.888q-3.373,1.292-6.26,2.152a46.036,46.036,0,0,1-5.205,1.263,63.147,63.147,0,0,1-16.018.652,107.758,107.758,0,0,1-12.617-1.846C811.167,575.563,820.4,566.555,826.671,555.645Zm-17.822-21.376a45.067,45.067,0,0,1-7.065,15.949,45.6,45.6,0,0,1-12.714,12.465,44.333,44.333,0,0,1-33.785,5.816,45.391,45.391,0,0,1-16.115-7.259,44.134,44.134,0,0,1-12.034-12.562,44.732,44.732,0,0,1-6.3-16.31,46.173,46.173,0,0,1,.305-17.683,42.094,42.094,0,0,1,7.01-15.769A47.756,47.756,0,0,1,741.015,486.6a43.389,43.389,0,0,1,16.073-6.329,44.968,44.968,0,0,1,17.559.347,43.544,43.544,0,0,1,15.949,7.232,46.864,46.864,0,0,1,12.368,12.756,44.854,44.854,0,0,1,5.885,33.66Zm128.991-22.681c1.457,8.245-.278,15.185-5.3,21.209-5.066,6.107-12.687,10.091-22.653,11.84a41.164,41.164,0,0,1-16.42-.138,32.248,32.248,0,0,1-13.423-6.7,19.248,19.248,0,0,1-5.011-6.788c-1.319-2.9-2.679-8.231-4.012-15.837L858,441.353l-23.4,4.123L847.728,520c1.791,10.133,3.775,17.378,6.066,22.153a37.977,37.977,0,0,0,9.744,12.548,54.208,54.208,0,0,0,22.889,11.91,66.5,66.5,0,0,0,27.441.555c16.49-2.915,29.274-9.869,38.019-20.7,8.842-10.951,12.034-23.888,9.453-38.477L946.82,425.682l-23.389,4.137Zm70.415,14.255-5.76-32.661,55.188-9.73-3.845-21.82-55.189,9.73-5.566-31.606,56.771-10.021-3.789-21.542-80.1,14.116,22.806,129.379,81.95-14.449-3.831-21.737Z" transform="translate(454.252 207.68)" fill="#394024"/></g><line y1="1198" x2="1886" transform="translate(-175.5 -108.5)" fill="none" stroke="red" stroke-width="20"/></g></svg>