<svg xmlns="http://www.w3.org/2000/svg" xmlns:xlink="http://www.w3.org/1999/xlink" width="1534" height="984" viewBox="0 0 1534 984"><defs><clipPath id="b"><rect width="1534" height="984"/></clipPath></defs><g id="a" clip-path="url(#b)"><rect width="1534" height="984" fill="#00586d"/><g transform="translate(114.325 308.717)"><path d="M621.07,693.132A5.355,5.355,0,0,0,617.49,691a5.065,5.065,0,0,0-.776-.057,5.444,5.444,0,0,0-5.37,4.539l.028-.268a76.012,76.012,0,0,0-.282-18.8,5.5,5.5,0,0,0,5.328,4.384,7.39,7.39,0,0,0,.79-.057,5.469,5.469,0,0,0,4.609-6.174,5.453,5.453,0,0,0-5.384-4.665,5.111,5.111,0,0,0-.789.056,5.459,5.459,0,0,0-4.638,5.879,70.61,70.61,0,0,0-5.286-18.184,5.306,5.306,0,0,0,2.946,2.607,5.144,5.144,0,0,0,1.889.354,5.451,5.451,0,0,0,4.947-7.725,5.441,5.441,0,0,0-10.021,4.229,66.569,66.569,0,0,0-54.167-38.8c-8.049-.859-12.46,1.509-14.687,3.538-4.468,4.087-4.722,10.205-.719,15.462l42.637,54.11a13.144,13.144,0,0,1-.9,17.563l-39.889,39.874a13.118,13.118,0,0,0,0,18.563l27.373,27.415a5.386,5.386,0,0,1-.437,8.076l-30.276,24.159a13.129,13.129,0,0,0-4.679,7.626,700.768,700.768,0,0,0,4.172-76.551,699.644,699.644,0,0,0-5.877-90.659h-26.6a699.644,699.644,0,0,1,5.877,90.659,694.723,694.723,0,0,1-30.967,205.618,694.274,694.274,0,0,1-31-205.618,702.159,702.159,0,0,1,5.877-90.659h-26.6a705.182,705.182,0,0,0-1.706,167.21,13.107,13.107,0,0,0-4.665-7.626L387.98,802.918a5.374,5.374,0,0,1-.451-8.076L414.9,767.427a13.084,13.084,0,0,0,0-18.563L375.027,708.99a13.145,13.145,0,0,1-.916-17.563l42.637-54.11c4.017-5.257,3.763-11.375-.719-15.462-2.227-2.029-6.639-4.4-14.687-3.538a66.57,66.57,0,0,0-54.167,38.8A5.441,5.441,0,1,0,337,657.063a5.5,5.5,0,0,0,5.1,3.553,5.485,5.485,0,0,0,4.834-2.961,71.194,71.194,0,0,0-5.286,18.184,5.436,5.436,0,0,0-4.638-5.879,4.983,4.983,0,0,0-.789-.056,5.449,5.449,0,0,0-.775,10.839,7.672,7.672,0,0,0,.79.057,5.471,5.471,0,0,0,5.328-4.384,76.012,76.012,0,0,0-.282,18.8l.042.268a5.465,5.465,0,0,0-5.37-4.539,4.815,4.815,0,0,0-.775.057,5.457,5.457,0,0,0-2.5,9.753,5.509,5.509,0,0,0,3.256,1.086,7.134,7.134,0,0,0,.789-.057,5.438,5.438,0,0,0,4.651-5.708,59.937,59.937,0,0,0,4.75,18.224,5.449,5.449,0,1,0-4.792,8.021,5.657,5.657,0,0,0,2.269-.479,5.457,5.457,0,0,0,2.763-7.034,32.384,32.384,0,0,0,7.879,10.544l3.636,3.622A5.451,5.451,0,0,0,350.4,736.9a5.446,5.446,0,0,0,7.907-7.484L372.6,743.691a5.46,5.46,0,0,0-3.636-1.382,5.4,5.4,0,0,0-3.848,1.594,5.452,5.452,0,1,0,7.907.226l14.039,14.024L373.04,772.177a5.606,5.606,0,1,0-.451.437l-14.278,14.265a5.263,5.263,0,1,0-.437.451l-3.622,3.622a13.109,13.109,0,0,0,1.1,19.55l4.017,3.214a5.292,5.292,0,0,0-3.143-1.015,4.556,4.556,0,0,0-.621.028,5.447,5.447,0,0,0-4.806,6.019,5.457,5.457,0,0,0,2.016,3.65,5.338,5.338,0,0,0,3.383,1.2,4.933,4.933,0,0,0,.634-.042,5.344,5.344,0,0,0,3.636-2.016,5.436,5.436,0,0,0-.634-7.457l15.8,12.6a5.435,5.435,0,0,0-7.4,1.043,5.439,5.439,0,0,0,4.243,8.837,4.707,4.707,0,0,0,.62-.027,5.521,5.521,0,0,0,3.65-2.016,5.455,5.455,0,0,0-.634-7.457l15.5,12.361-12.375,15.519a5.369,5.369,0,0,0,.973-3.777,5.442,5.442,0,0,0-2-3.637,5.446,5.446,0,1,0-3.425,9.7,4.44,4.44,0,0,0,.62-.028,5.39,5.39,0,0,0,3.467-1.8l-12.6,15.814a5.447,5.447,0,1,0-7.837,1.1,5.378,5.378,0,0,0,3.383,1.184,5.453,5.453,0,0,0,4.073-1.817l-3.2,4.017A13.147,13.147,0,0,0,365.964,895l4.355,2.734a5.444,5.444,0,1,0,1.974,7.653,5.449,5.449,0,0,0-1.466-7.329l17.111,10.74a5.447,5.447,0,1,0-2.65,10.219,5,5,0,0,0,1.212-.141,5.451,5.451,0,0,0,1.945-9.754l16.8,10.558-10.585,16.844a5.5,5.5,0,0,0,.578-3.891,5.435,5.435,0,0,0-2.41-3.4,5.442,5.442,0,0,0-7.513,1.706,5.435,5.435,0,0,0,1.706,7.5,5.35,5.35,0,0,0,2.89.846,5.2,5.2,0,0,0,1.226-.141,5.409,5.409,0,0,0,3.256-2.2l-6.85,10.9a13.13,13.13,0,1,0,22.228,13.982l24.694-39.282a12.972,12.972,0,0,0,1.959-8.006,690.81,690.81,0,0,0,20.381,70.9h39.058a694.343,694.343,0,0,0,20.367-70.9,13.067,13.067,0,0,0,1.959,8.006l24.695,39.282a13.13,13.13,0,1,0,22.228-13.982l-6.836-10.9a5.442,5.442,0,0,0,4.469,2.34,5.313,5.313,0,0,0,2.889-.846,5.433,5.433,0,0,0-1.691-9.908,5.328,5.328,0,0,0-4.1.7,5.4,5.4,0,0,0-2.425,3.4,5.5,5.5,0,0,0,.578,3.891l-10.585-16.844,16.8-10.558a5.374,5.374,0,0,0-2.157,3.241,5.445,5.445,0,0,0,.691,4.1,5.391,5.391,0,0,0,3.411,2.41,5.034,5.034,0,0,0,1.226.141,5.3,5.3,0,0,0,2.875-.845,5.385,5.385,0,0,0,2.41-3.383,5.427,5.427,0,0,0-4.1-6.526,5.334,5.334,0,0,0-3.833.535l17.1-10.74a5.448,5.448,0,0,0-1.466,7.329,5.449,5.449,0,1,0,1.987-7.653L586.692,895a13.164,13.164,0,0,0,3.284-19.311l-3.214-4.017a5.486,5.486,0,1,0-.367-.466l-12.6-15.814a5.324,5.324,0,0,0,3.453,1.8,4.443,4.443,0,0,0,.62.028,5.453,5.453,0,0,0,4.243-8.837,5.341,5.341,0,0,0-3.65-2.016,5.447,5.447,0,0,0-5.046,8.569L561.04,839.424l15.5-12.361a5.45,5.45,0,0,0,3.03,9.473,4.608,4.608,0,0,0,.621.027,5.441,5.441,0,1,0-3.171-9.88l15.8-12.6a5.436,5.436,0,0,0-.634,7.457,5.375,5.375,0,0,0,3.65,2.016,4.57,4.57,0,0,0,.621.042,5.452,5.452,0,0,0,4.242-8.852,5.451,5.451,0,0,0-3.65-2.016,4.348,4.348,0,0,0-.606-.028,5.3,5.3,0,0,0-3.157,1.015l4.032-3.214a13.138,13.138,0,0,0,1.1-19.55l-3.637-3.622a5.539,5.539,0,1,0-.437-.451l-14.278-14.265a5.449,5.449,0,1,0-.437-.437l-14.024-14.024,14.024-14.024a5.23,5.23,0,1,0,.423-.437l14.292-14.278a5.355,5.355,0,0,0-1.382,3.623,5.442,5.442,0,1,0,1.818-4.06l3.623-3.622a32.384,32.384,0,0,0,7.879-10.544,5.447,5.447,0,0,0,2.777,7.034,5.545,5.545,0,0,0,2.255.479,5.449,5.449,0,1,0-4.792-8.021,59.937,59.937,0,0,0,4.75-18.224,5.438,5.438,0,0,0,4.651,5.708,7.673,7.673,0,0,0,.789.057,5.446,5.446,0,0,0,5.385-4.68A5.374,5.374,0,0,0,621.07,693.132Zm-46.641-52.279a5.436,5.436,0,1,1,0-7.7A5.442,5.442,0,0,1,574.429,640.853Zm-196.2-7.7a5.436,5.436,0,1,1,0,7.7A5.419,5.419,0,0,1,378.227,633.158Zm52.109,271.288-32.785-20.637a5.375,5.375,0,0,1-1.368-7.978l24.145-30.3a12.949,12.949,0,0,0,2.861-8.429,693.271,693.271,0,0,0,12.4,73.717A12.949,12.949,0,0,0,430.336,904.446ZM557.6,880.131a5.428,5.428,0,0,1-2.481,3.678l-32.8,20.637a13.021,13.021,0,0,0-5.257,6.37,693.4,693.4,0,0,0,12.4-73.717,13.024,13.024,0,0,0,2.861,8.429l24.145,30.3A5.438,5.438,0,0,1,557.6,880.131Z" transform="translate(-330.512 -618.135)" fill="#f77619"/></g><path d="M393.666,717.67q17.971,0,28.571-11.178t10.6-30.233V621.344h-7.893v55.324q0,15.2-8.513,24.144t-22.764,8.951q-14.25,0-22.764-8.951t-8.513-24.144V621.344H354.68v54.915q0,19.113,10.542,30.262T393.666,717.67Zm75.268-80.5,60.918,72.659h6.118V627.645h-6.583v71.729l-60.158-71.729h-6.864v82.188h6.568Zm99.286,72.659h7.1V627.645h-7.1Zm63.146,1.466,34.772-83.654h-6.991l-28.374,68.968-28.133-68.968h-7.217L630.308,711.3Zm99.849-6.991H692.326v-33.49h36.718v-5.285H692.326v-32.6h37.958v-5.286H685.757v82.188h45.457Zm33.081-33.954h6.751a45.757,45.757,0,0,1,10.529.916,12.348,12.348,0,0,1,5.751,3.072,54.005,54.005,0,0,1,4.454,5.5c1.889,2.565,4.116,5.835,6.709,9.782l13.08,20.212h7.471l-22.623-34.659a22.085,22.085,0,0,0-7.33-6.879q7.865-2.515,11.783-7.513,3.891-4.989,3.891-12.573,0-9.916-6.991-15.236c-4.651-3.552-11.361-5.328-20.085-5.328H757.712v82.188h6.583Zm0-37.169h13.757q9.324,0,14.405,3.918c3.382,2.622,5.088,6.329,5.088,11.106a16.155,16.155,0,0,1-2.27,8.866,14.706,14.706,0,0,1-6.779,5.582,21.323,21.323,0,0,1-6.1,1.592,121.13,121.13,0,0,1-13.052.466h-5.046ZM854.94,711q10.635,0,17.436-6.314a20.98,20.98,0,0,0,6.808-16.125,22.344,22.344,0,0,0-1.367-7.864,20.084,20.084,0,0,0-4.017-6.583q-3.827-4.292-15.237-8.922l-1.748-.719c-6.738-2.848-11.121-5.427-13.165-7.7a12.71,12.71,0,0,1-3.044-8.81,14.309,14.309,0,0,1,4.75-11.008,17.393,17.393,0,0,1,12.22-4.384,27.361,27.361,0,0,1,9.134,1.648,44.019,44.019,0,0,1,9.726,5.117v-7.357a40.115,40.115,0,0,0-9.218-4.074,34.136,34.136,0,0,0-9.4-1.31q-10.635,0-17.238,6.074a20.285,20.285,0,0,0-6.61,15.66q0,7.674,4.341,12.657,4.356,4.947,16.153,9.823,11.4,4.778,14.6,8.316a13.15,13.15,0,0,1,3.2,9.134q0,7.591-4.708,11.98-4.694,4.419-12.742,4.412a25.8,25.8,0,0,1-10.078-2.2,50.823,50.823,0,0,1-11.008-6.723v7.978a44.811,44.811,0,0,0,10.614,5.47A32.175,32.175,0,0,0,854.94,711Zm57.973-83.358h-7.1v82.188h7.1Zm76.776,80.37a35.391,35.391,0,0,0,11.98-5.765,39.5,39.5,0,0,0,12.08-14.589,43.914,43.914,0,0,0,0-37.958,39.511,39.511,0,0,0-12.08-14.588,35.552,35.552,0,0,0-11.9-5.666,61.582,61.582,0,0,0-16.012-1.8H945.275v82.188h28.486A61.269,61.269,0,0,0,989.688,708.015Zm-37.422-3.946V633.58h19.86A64.579,64.579,0,0,1,986.08,634.9a29.317,29.317,0,0,1,10.064,4.2,31.416,31.416,0,0,1,10.783,12.489,39.945,39.945,0,0,1,0,34.448,31.378,31.378,0,0,1-10.783,12.445,29.343,29.343,0,0,1-10.064,4.243,62.828,62.828,0,0,1-13.954,1.339Zm117.2-77.128h-2.65l-35.83,82.893h6.991l12.094-28.612H1086.2l12.164,28.612h6.935Zm-17.1,48.7,15.8-37.295,15.744,37.295Zm116.481,32.376a35.468,35.468,0,0,0,12-5.765,39.609,39.609,0,0,0,12.065-14.589,43.914,43.914,0,0,0,0-37.958,39.621,39.621,0,0,0-12.065-14.588,35.758,35.758,0,0,0-11.91-5.666,61.692,61.692,0,0,0-16-1.8h-28.486v82.188h28.486A61.15,61.15,0,0,0,1168.85,708.015Zm-37.408-3.946V633.58h19.846a64.492,64.492,0,0,1,13.954,1.325,29.39,29.39,0,0,1,10.078,4.2,31.5,31.5,0,0,1,10.769,12.489,39.949,39.949,0,0,1,0,34.448,31.461,31.461,0,0,1-10.769,12.445,29.416,29.416,0,0,1-10.078,4.243,62.745,62.745,0,0,1-13.954,1.339Zm-751,126.249h62.413V806.229H380.445V769.907h64.2V746.115h-90V891.829h92.1V867.839h-66.3Zm107.7-71.885H464.1v133.4h84.684V869.417H488.145Zm191.044,55.576a31.178,31.178,0,0,0,9.7-8.738c3.735-5.286,5.652-11.91,5.652-19.705,0-12.53-4.187-22.368-12.417-29.262-8.077-6.765-19.564-10.189-34.138-10.189h-43.85V891.829H655.58c15.138,0,27.387-3.707,36.393-11.008,9.176-7.457,13.841-17.562,13.841-30.051,0-9.754-3.059-18.184-9.077-25.048A43.02,43.02,0,0,0,679.189,814.009ZM629.927,770.09h16.055c7.78,0,13.418,1.366,16.745,4.045,3.171,2.552,4.722,6.681,4.722,12.629,0,6.582-2.029,11.275-6.187,14.362-4.37,3.257-11.389,4.892-20.86,4.892H629.927Zm43.046,93.026c-3.933,3-10.5,4.524-19.494,4.524H629.927V830.318H650.28c10.092,0,17.492,1.606,21.988,4.792,4.2,2.988,6.258,7.654,6.258,14.265C678.526,855.759,676.708,860.255,672.973,863.117Zm161.444-86.6a69.345,69.345,0,0,0-22.89-14.912,74.615,74.615,0,0,0-54.364-.042,71.616,71.616,0,0,0-23,14.912,68.323,68.323,0,0,0-15.42,22.2,65.362,65.362,0,0,0-5.44,25.948,67.522,67.522,0,0,0,20.847,49.417,70.5,70.5,0,0,0,22.876,14.842,72.236,72.236,0,0,0,27.119,5.215,73.6,73.6,0,0,0,27.288-5.073,72.274,72.274,0,0,0,23.144-14.97A67.457,67.457,0,0,0,849.866,852a65.886,65.886,0,0,0,5.384-26.187,66.523,66.523,0,0,0-20.833-49.291Zm-8.034,66.162a45.3,45.3,0,0,1-9.88,14.715,44.2,44.2,0,0,1-14.7,9.938,47.27,47.27,0,0,1-35.224-.1,43.1,43.1,0,0,1-14.645-9.853,45.054,45.054,0,0,1-13.221-32.108,46.366,46.366,0,0,1,3.425-17.619,42.559,42.559,0,0,1,9.782-14.56,48.641,48.641,0,0,1,15.04-10.036,44.316,44.316,0,0,1,17.182-3.5,45.36,45.36,0,0,1,17.506,3.453A44.309,44.309,0,0,1,816.32,793.05a47.547,47.547,0,0,1,10.12,14.94,45.622,45.622,0,0,1-.056,34.688Zm82.738-29.359-2.678-1.622c-18.338-11.431-21.072-18.027-21.072-20.931a10.244,10.244,0,0,1,4.257-8.514c5.694-4.439,15.787-4.807,25.146-.789a66.5,66.5,0,0,1,14.786,9.359l4.877,3.933V766.129l-1.424-.874a65.315,65.315,0,0,0-15.152-6.921,53.367,53.367,0,0,0-15.378-2.269c-11.755,0-21.551,3.467-29.106,10.3-7.64,6.907-11.5,15.843-11.5,26.569a33.371,33.371,0,0,0,6.061,19.972c3.946,5.456,13.066,12.771,27.922,22.355,11.163,7.09,15.335,10.9,16.872,12.855a14.044,14.044,0,0,1,3.044,9.02,11.6,11.6,0,0,1-4.355,9.628c-3.059,2.5-7.457,3.749-13.038,3.749a31.278,31.278,0,0,1-15.335-3.989c-4.919-2.734-10.219-7.33-15.716-13.645l-5.271-6.046v33.476l1.085.888A54.677,54.677,0,0,0,880,891.026a59.064,59.064,0,0,0,19.564,3.071c11.7,0,21.467-3.453,29.05-10.274a34.073,34.073,0,0,0,11.558-26.316c0-9.118-2.058-16.913-6.131-23.172C930,828.1,921.863,821.227,909.122,813.32ZM1073.85,867.2a62.863,62.863,0,0,0,14.814-41.4,69.476,69.476,0,0,0-43.737-64.2,74.578,74.578,0,0,0-54.35-.042,71.165,71.165,0,0,0-23,14.912,68.372,68.372,0,0,0-15.434,22.2,65.127,65.127,0,0,0-5.44,25.948c0,16.237,4.933,30.643,14.63,42.849,9.6,12.051,22.439,20.17,38.184,24.131a173.212,173.212,0,0,0,33.124,18.93c10.67,4.439,20.479,6.694,29.148,6.694,1.227,0,2.142-.014,2.734-.056a13.549,13.549,0,0,0,2.142-.282l.776-.141,19.493-16.929-2.382-6.243-2.48.479c-2.41.466-4.623.832-6.639,1.071a48.236,48.236,0,0,1-5.44.339,64.509,64.509,0,0,1-16.139-2.185,110.925,110.925,0,0,1-12.277-4.061C1054.821,884.386,1065.646,877.015,1073.85,867.2Zm-14.066-24.525a45.5,45.5,0,0,1-9.867,14.715,46.194,46.194,0,0,1-14.926,10.22,45.012,45.012,0,0,1-34.8-.128,46.554,46.554,0,0,1-14.842-10.105,44.811,44.811,0,0,1-9.824-14.687,45.591,45.591,0,0,1-3.411-17.422,46.635,46.635,0,0,1,3.411-17.619,42.6,42.6,0,0,1,9.8-14.56,48.807,48.807,0,0,1,15.04-10.036,44.422,44.422,0,0,1,17.182-3.5,45.412,45.412,0,0,1,17.506,3.453,44.365,44.365,0,0,1,14.687,10.035,47.74,47.74,0,0,1,10.106,14.94,45.455,45.455,0,0,1-.056,34.688Zm133,.07c0,8.5-2.96,15.139-9.036,20.283-6.159,5.2-14.475,7.851-24.737,7.851a41.936,41.936,0,0,1-16.406-3.044,32.618,32.618,0,0,1-12.234-9.077,19.358,19.358,0,0,1-3.82-7.668c-.818-3.13-1.226-8.7-1.226-16.534V758.433H1101.18V835.28c0,10.443.719,18.041,2.171,23.214a38.766,38.766,0,0,0,7.512,14.278,55.043,55.043,0,0,0,20.791,15.928,67.455,67.455,0,0,0,27.358,5.4c17,0,31.009-4.707,41.666-13.981,10.782-9.387,16.237-21.777,16.237-36.816V758.433h-24.13Zm67.91,26.668V835.745h56.9v-22.5h-56.9V780.662h58.536V758.433h-82.583v133.4h84.5V869.417Z" transform="translate(99.918 -267.37)" fill="#fff"/><line y1="1198" x2="1886" transform="translate(-175.5 -108.5)" fill="none" stroke="red" stroke-width="20"/></g></svg>