<svg xmlns="http://www.w3.org/2000/svg" xmlns:xlink="http://www.w3.org/1999/xlink" width="1534" height="984" viewBox="0 0 1534 984"><defs><clipPath id="b"><rect width="1534" height="984"/></clipPath></defs><g id="a" clip-path="url(#b)"><rect width="1534" height="984" fill="#fff"/><g transform="translate(-106.75 -526.993)"><g transform="translate(194.619 828.277)"><path d="M363.554,772.894a5.717,5.717,0,0,0-3.74-2.215,7.333,7.333,0,0,0-.807-.059,5.661,5.661,0,0,0-5.573,4.722l.029-.278a78.984,78.984,0,0,0-.293-19.55,5.576,5.576,0,0,0,2.156,3.417,5.691,5.691,0,0,0,3.388,1.13,8.144,8.144,0,0,0,.821-.059,5.669,5.669,0,0,0,4.8-6.424,5.69,5.69,0,0,0-5.617-4.855,5.074,5.074,0,0,0-.807.06,5.682,5.682,0,0,0-4.825,6.116,73.991,73.991,0,0,0-5.5-18.9,5.6,5.6,0,0,0,3.051,2.713,5.808,5.808,0,0,0,1.98.352,5.647,5.647,0,0,0,5.309-3.7,5.665,5.665,0,1,0-10.589.073,69.208,69.208,0,0,0-56.36-40.375c-8.389-.909-12.965,1.57-15.282,3.681-4.649,4.238-4.928,10.618-.748,16.073l44.364,56.316a13.671,13.671,0,0,1-.939,18.259l-41.518,41.5a13.684,13.684,0,0,0,0,19.314l28.5,28.525a5.585,5.585,0,0,1,1.672,4.3,5.71,5.71,0,0,1-2.141,4.106l-31.5,25.137a13.567,13.567,0,0,0-4.854,7.92,732.373,732.373,0,0,0,4.341-79.634,730.2,730.2,0,0,0-6.116-94.33H239.072a730.21,730.21,0,0,1,6.115,94.33A722.381,722.381,0,0,1,212.953,1054.5a727.419,727.419,0,0,1-26.119-308.272H159.159A731.488,731.488,0,0,0,157.385,920.2a13.518,13.518,0,0,0-4.869-7.92l-31.5-25.137a5.622,5.622,0,0,1-.469-8.4l28.5-28.525a13.648,13.648,0,0,0,0-19.314l-41.489-41.5a13.64,13.64,0,0,1-.953-18.259l44.363-56.316c4.165-5.455,3.9-11.836-.748-16.073-2.332-2.112-6.908-4.59-15.282-3.681a69.208,69.208,0,0,0-56.36,40.375,5.671,5.671,0,1,0-7.641,3.11,5.538,5.538,0,0,0,2.361.513,5.666,5.666,0,0,0,1.965-.352,5.575,5.575,0,0,0,3.065-2.713,72.836,72.836,0,0,0-5.5,18.9,5.694,5.694,0,0,0-4.84-6.116,4.832,4.832,0,0,0-.807-.06A5.669,5.669,0,0,0,66.37,760a7.58,7.58,0,0,0,.821.059,5.691,5.691,0,0,0,3.388-1.13,5.576,5.576,0,0,0,2.156-3.417,78.984,78.984,0,0,0-.293,19.55l.029.278a5.665,5.665,0,0,0-5.588-4.722,7.069,7.069,0,0,0-.792.059,5.682,5.682,0,0,0-3.74,2.215,5.624,5.624,0,0,0-1.071,4.209,5.683,5.683,0,0,0,2.215,3.725,5.586,5.586,0,0,0,3.388,1.144,5.426,5.426,0,0,0,.821-.073,5.628,5.628,0,0,0,3.725-2.215,5.537,5.537,0,0,0,1.115-3.71,62.375,62.375,0,0,0,4.942,18.963,5.682,5.682,0,1,0,.249.527,33.568,33.568,0,0,0,8.2,10.956L89.7,810.2a5.666,5.666,0,1,0-3.769,9.885,5.658,5.658,0,0,0,5.661-5.661,5.682,5.682,0,0,0-1.437-3.783l14.871,14.871a5.756,5.756,0,1,0,.44.455l14.592,14.592-14.592,14.577a5.666,5.666,0,1,0-8.227.236,5.591,5.591,0,0,0,4,1.656,5.723,5.723,0,0,0,3.769-1.422L90.157,870.449a5.679,5.679,0,1,0-4.224,1.892A5.589,5.589,0,0,0,89.7,870.9l-3.769,3.783a13.626,13.626,0,0,0,1.144,20.327l4.18,3.343a5.622,5.622,0,0,0-3.285-1.056,4.631,4.631,0,0,0-.631.044,5.64,5.64,0,0,0-5,6.263,5.656,5.656,0,0,0,5.617,5.03c.22,0,.425-.014.645-.03a5.707,5.707,0,0,0,3.8-2.1,5.638,5.638,0,0,0,1.2-4.166,5.7,5.7,0,0,0-1.863-3.607l16.425,13.111a5.669,5.669,0,0,0-8.9,5.25,5.743,5.743,0,0,0,2.1,3.813,5.622,5.622,0,0,0,3.52,1.232,4.535,4.535,0,0,0,.645-.044,5.6,5.6,0,0,0,3.8-2.083,5.691,5.691,0,0,0-.645-7.772l16.132,12.876-12.876,16.147a5.686,5.686,0,0,0-1.085-7.73,5.666,5.666,0,1,0-3.549,10.105,4.683,4.683,0,0,0,.645-.044,5.7,5.7,0,0,0,3.608-1.862L98.429,958.194a5.667,5.667,0,1,0-8.154,1.144,5.759,5.759,0,0,0,3.534,1.232,5.674,5.674,0,0,0,4.238-1.892l-3.329,4.166a13.645,13.645,0,0,0,3.4,20.092l4.517,2.845a5.657,5.657,0,0,0-7.538,1.95A5.593,5.593,0,0,0,94.381,992a5.666,5.666,0,0,0,2.493,3.534,5.553,5.553,0,0,0,3.006.881,5.662,5.662,0,0,0,5.544-6.937,5.53,5.53,0,0,0-2.244-3.345l17.789,11.176a5.565,5.565,0,0,0-3.989-.573,5.649,5.649,0,0,0-4.268,6.791,5.7,5.7,0,0,0,5.5,4.414,6.032,6.032,0,0,0,1.276-.147,5.647,5.647,0,0,0,4.268-6.789,5.562,5.562,0,0,0-2.244-3.359l17.481,10.985L127.98,1026.14a5.673,5.673,0,0,0-1.921-7.583,5.693,5.693,0,0,0-7.817,1.79,5.659,5.659,0,0,0,1.789,7.8,5.523,5.523,0,0,0,3.006.881,6.457,6.457,0,0,0,1.276-.147,5.73,5.73,0,0,0,3.388-2.288l-7.127,11.337a13.657,13.657,0,1,0,23.128,14.533l25.68-40.859a13.546,13.546,0,0,0,2.053-8.345,718.97,718.97,0,0,0,21.192,73.783h40.653a722.725,722.725,0,0,0,21.192-73.783,13.533,13.533,0,0,0,2.039,8.345l25.694,40.859a13.657,13.657,0,1,0,23.128-14.533l-7.127-11.337a5.687,5.687,0,0,0,3.388,2.288,6.331,6.331,0,0,0,1.276.147,5.56,5.56,0,0,0,3.007-.881,5.671,5.671,0,0,0,1.789-7.8,5.706,5.706,0,0,0-7.832-1.79,5.649,5.649,0,0,0-1.907,7.583l-11.014-17.511,17.481-10.985a5.684,5.684,0,0,0-1.525,7.641,5.625,5.625,0,0,0,3.549,2.507,6.007,6.007,0,0,0,1.261.147,5.648,5.648,0,0,0,3.007-.881,5.59,5.59,0,0,0,2.508-3.533,5.711,5.711,0,0,0-.733-4.283,5.653,5.653,0,0,0-7.538-1.936l17.8-11.176a5.529,5.529,0,0,0-2.244,3.345,5.662,5.662,0,0,0,5.529,6.938,5.553,5.553,0,0,0,3.006-.881,5.666,5.666,0,0,0-5.764-9.753l4.532-2.845a13.691,13.691,0,0,0,3.417-20.092l-3.344-4.166a5.6,5.6,0,1,0-.4-.484l-13.111-16.454a5.627,5.627,0,0,0,3.593,1.862,5.021,5.021,0,0,0,.645.044,5.665,5.665,0,0,0,.631-11.293,5.62,5.62,0,0,0-6.262,4.987,5.662,5.662,0,0,0,1.012,3.931l-12.877-16.147,16.132-12.876a5.722,5.722,0,0,0-.66,7.772,5.629,5.629,0,0,0,3.8,2.083,4.688,4.688,0,0,0,.645.044,5.652,5.652,0,0,0,5.617-5.045,5.519,5.519,0,0,0-1.2-4.15,5.655,5.655,0,0,0-7.7-1.1l16.44-13.111a5.7,5.7,0,0,0-1.862,3.607,5.669,5.669,0,0,0,4.986,6.262c.235.015.44.03.66.03a5.664,5.664,0,0,0,.616-11.293,4.846,4.846,0,0,0-.645-.044,5.656,5.656,0,0,0-3.285,1.056l4.194-3.343a13.626,13.626,0,0,0,1.144-20.327L336.2,870.9a5.661,5.661,0,1,0-.235-8.227,5.647,5.647,0,0,0-.22,7.772l-14.856-14.841a5.782,5.782,0,1,0-.455-.47l-14.592-14.577,14.592-14.592a5.66,5.66,0,1,0,4.224-1.893,5.6,5.6,0,0,0-3.784,1.438l14.871-14.871a5.667,5.667,0,1,0,8.227-.235,5.681,5.681,0,0,0-7.787-.2l3.784-3.784a33.777,33.777,0,0,0,8.2-10.956,5.642,5.642,0,0,0,2.889,7.3,5.506,5.506,0,0,0,2.346.514,5.668,5.668,0,1,0-4.986-8.345,62,62,0,0,0,4.928-18.963A5.653,5.653,0,0,0,358.2,781.9a5.265,5.265,0,0,0,.821.073,5.7,5.7,0,0,0,5.588-4.869A5.615,5.615,0,0,0,363.554,772.894ZM165.084,992.761l-34.112-21.47A5.592,5.592,0,0,1,129.564,963l25.122-31.532a13.58,13.58,0,0,0,2.977-8.769,722.06,722.06,0,0,0,12.906,76.7A13.542,13.542,0,0,0,165.084,992.761Zm132.431-25.3a5.608,5.608,0,0,1-2.6,3.829l-34.112,21.47a13.589,13.589,0,0,0-5.47,6.644,722.071,722.071,0,0,0,12.906-76.7,13.581,13.581,0,0,0,2.977,8.769L296.341,963A5.693,5.693,0,0,1,297.515,967.462Z" transform="translate(-61.22 -694.87)" fill="#a8d726"/></g><path d="M125.954,798.305q18.7,0,29.727-11.631Q166.7,775.06,166.71,755.217V698.08h-8.227v57.563q0,15.837-8.843,25.137-8.865,9.306-23.685,9.313-14.849,0-23.7-9.313T93.4,755.643V698.08H85.389v57.137q0,19.909,10.97,31.5T125.954,798.305Zm78.314-83.756,63.385,75.6H274v-85.5h-6.849v74.634L204.577,704.65H197.42v85.5h6.849Zm103.29,75.6h7.406v-85.5h-7.406Zm65.7,1.526,36.195-87.026h-7.274L372.66,776.409,343.387,704.65h-7.524l36.3,87.026Zm103.906-7.26H436.7V749.571h38.2v-5.5H436.7V710.149H476.2v-5.5H429.87v85.5h47.3Zm34.406-35.329h7.04a46.551,46.551,0,0,1,10.941.954,12.655,12.655,0,0,1,5.983,3.2,54.025,54.025,0,0,1,4.649,5.72c1.95,2.669,4.282,6.056,6.966,10.177l13.624,21.016h7.773L545.01,754.087a23.987,23.987,0,0,0-3.417-4.032,23.069,23.069,0,0,0-4.224-3.11c5.47-1.76,9.547-4.356,12.26-7.832q4.07-5.19,4.062-13.066,0-10.34-7.274-15.868t-20.9-5.529H504.738v85.5h6.834Zm0-38.687h14.314c6.467,0,11.483,1.364,15,4.091s5.28,6.57,5.28,11.557a16.97,16.97,0,0,1-2.346,9.224,15.486,15.486,0,0,1-7.054,5.807,22.8,22.8,0,0,1-6.365,1.643,124.657,124.657,0,0,1-13.566.5h-5.265Zm94.315,80.984q11.065,0,18.156-6.571a21.9,21.9,0,0,0,7.083-16.778,23.185,23.185,0,0,0-1.423-8.183A20.787,20.787,0,0,0,625.51,753q-3.982-4.465-15.839-9.3l-1.833-.733c-7-2.977-11.571-5.646-13.683-8.007a13.247,13.247,0,0,1-3.168-9.167,14.92,14.92,0,0,1,4.942-11.468q4.95-4.553,12.715-4.547a28.123,28.123,0,0,1,9.5,1.716,45.1,45.1,0,0,1,10.119,5.309v-7.641a41.163,41.163,0,0,0-9.606-4.238,34.8,34.8,0,0,0-9.782-1.379q-11.043,0-17.936,6.32a21.182,21.182,0,0,0-6.878,16.294q0,8.008,4.532,13.17,4.51,5.168,16.807,10.237,11.857,4.949,15.194,8.653a13.669,13.669,0,0,1,3.314,9.5q0,7.9-4.884,12.467-4.884,4.6-13.258,4.59a26.879,26.879,0,0,1-10.486-2.3,51.98,51.98,0,0,1-11.454-7V783.8a47.973,47.973,0,0,0,11.029,5.69A34,34,0,0,0,605.887,791.383Zm60.334-86.733h-7.406v85.5h7.406Zm79.884,83.609a36.79,36.79,0,0,0,12.466-5.984,41.239,41.239,0,0,0,12.554-15.194,45.523,45.523,0,0,0,0-39.48,41.068,41.068,0,0,0-12.554-15.179,37.015,37.015,0,0,0-12.378-5.91,64.175,64.175,0,0,0-16.66-1.863H699.894v85.5h29.639A63.879,63.879,0,0,0,746.105,788.259Zm-38.937-4.091V710.824h20.664a65.988,65.988,0,0,1,14.5,1.379,30.161,30.161,0,0,1,10.486,4.37,32.73,32.73,0,0,1,11.219,12.98,41.557,41.557,0,0,1,0,35.841,32.687,32.687,0,0,1-11.219,12.966,30.79,30.79,0,0,1-10.486,4.4,64.973,64.973,0,0,1-14.5,1.408Zm121.93-80.25h-2.742l-37.28,86.232h7.26l12.6-29.757h37.588l12.656,29.757h7.2Zm-17.789,50.668,16.44-38.8,16.382,38.8ZM932.52,788.259a36.791,36.791,0,0,0,12.466-5.984,41.1,41.1,0,0,0,12.553-15.194,45.523,45.523,0,0,0,0-39.48,40.93,40.93,0,0,0-12.553-15.179,37.152,37.152,0,0,0-12.378-5.91,64.254,64.254,0,0,0-16.66-1.863H886.309v85.5h29.639A63.8,63.8,0,0,0,932.52,788.259Zm-38.937-4.091V710.824h20.664a65.985,65.985,0,0,1,14.5,1.379,30.159,30.159,0,0,1,10.486,4.37,32.732,32.732,0,0,1,11.219,12.98,41.559,41.559,0,0,1,0,35.841,32.689,32.689,0,0,1-11.219,12.966,30.788,30.788,0,0,1-10.486,4.4,64.971,64.971,0,0,1-14.5,1.408ZM112.2,915.513h64.939V890.449H112.2V852.656H179V827.914H85.36v151.6h95.825V954.553H112.2Zm112.06-74.78h-25.02V979.513H287.35v-23.3H224.258Zm198.763,57.812a32.094,32.094,0,0,0,10.09-9.078c3.9-5.5,5.881-12.407,5.881-20.517,0-13.023-4.341-23.276-12.92-30.446-8.389-7.025-20.356-10.589-35.506-10.589H344.942v151.6h53.515c15.766,0,28.51-3.842,37.867-11.453,9.562-7.758,14.416-18.274,14.416-31.253,0-10.148-3.183-18.933-9.459-26.061A44.823,44.823,0,0,0,423.022,898.544Zm-51.256-45.684h16.719c8.1,0,13.962,1.408,17.423,4.194,3.3,2.655,4.913,6.951,4.913,13.14,0,6.85-2.112,11.748-6.438,14.96-4.546,3.372-11.85,5.089-21.72,5.089h-10.9Zm44.789,96.778c-4.092,3.124-10.911,4.708-20.268,4.708H371.765V915.513h21.192c10.5,0,18.185,1.686,22.864,4.986,4.385,3.11,6.526,7.964,6.526,14.856C422.347,942,420.455,946.677,416.554,949.639Zm167.98-90.106a71.906,71.906,0,0,0-23.8-15.5,77.574,77.574,0,0,0-56.565-.044A73.922,73.922,0,0,0,480.232,859.5a70.971,70.971,0,0,0-16.044,23.1,67.721,67.721,0,0,0-5.661,27,70.1,70.1,0,0,0,21.69,51.417,73.32,73.32,0,0,0,23.8,15.428,75.172,75.172,0,0,0,28.217,5.441,76.279,76.279,0,0,0,28.393-5.295,74.924,74.924,0,0,0,24.081-15.559,70.25,70.25,0,0,0,15.912-22.967,68.733,68.733,0,0,0,5.6-27.234,69.216,69.216,0,0,0-21.69-51.3Zm-8.345,68.855a47.086,47.086,0,0,1-10.281,15.3,45.683,45.683,0,0,1-15.3,10.339,49.251,49.251,0,0,1-36.649-.088,45.078,45.078,0,0,1-15.238-10.267A46.74,46.74,0,0,1,488.518,928.4a47.222,47.222,0,0,1-3.549-18.142,48.24,48.24,0,0,1,3.549-18.332A44.6,44.6,0,0,1,498.7,876.795a50.583,50.583,0,0,1,15.663-10.441,46.11,46.11,0,0,1,17.877-3.637,47.106,47.106,0,0,1,18.2,3.593,45.979,45.979,0,0,1,15.282,10.442,48.94,48.94,0,0,1,10.515,15.531,47.419,47.419,0,0,1-.044,36.106Zm86.087-30.563-2.8-1.672C640.4,884.26,637.55,877.4,637.55,874.36a10.694,10.694,0,0,1,4.444-8.859c5.91-4.6,16.411-5,26.149-.821a69.347,69.347,0,0,1,15.384,9.753l5.089,4.091V848.741l-1.5-.91a66.641,66.641,0,0,0-15.751-7.2,55.6,55.6,0,0,0-16-2.362c-12.246,0-22.438,3.608-30.284,10.707-7.949,7.187-11.982,16.5-11.982,27.659a34.762,34.762,0,0,0,6.321,20.781c4.092,5.677,13.58,13.288,29.052,23.26,11.615,7.376,15.942,11.337,17.555,13.361a14.631,14.631,0,0,1,3.153,9.386,12.129,12.129,0,0,1-4.517,10.031c-3.2,2.581-7.758,3.9-13.566,3.9a32.5,32.5,0,0,1-15.956-4.166c-5.133-2.844-10.633-7.611-16.352-14.181l-5.5-6.306v34.831l1.129.939a57.2,57.2,0,0,0,17.54,10.207,61.493,61.493,0,0,0,20.371,3.211c12.172,0,22.336-3.607,30.226-10.706a35.409,35.409,0,0,0,12.026-27.38c0-9.474-2.141-17.584-6.38-24.111C684,913.211,675.534,906.068,662.277,897.826Zm171.383,56.081a65.435,65.435,0,0,0,15.414-43.074,69.214,69.214,0,0,0-21.691-51.3,72.052,72.052,0,0,0-23.8-15.5,77.574,77.574,0,0,0-56.565-.044A73.92,73.92,0,0,0,723.08,859.5a70.972,70.972,0,0,0-16.044,23.1,67.724,67.724,0,0,0-5.661,27c0,16.88,5.118,31.883,15.223,44.568,9.973,12.555,23.333,21,39.729,25.109,12.085,8.578,23.67,15.208,34.464,19.71,11.1,4.619,21.309,6.965,30.329,6.965,1.276,0,2.214-.03,2.845-.059a15.735,15.735,0,0,0,2.214-.292l.821-.162,20.283-17.614-2.479-6.5-2.581.514c-2.508.483-4.81.85-6.922,1.1a49.95,49.95,0,0,1-5.661.351,67.674,67.674,0,0,1-16.777-2.258,115.862,115.862,0,0,1-12.789-4.239C813.875,971.784,825.138,964.114,833.659,953.907Zm-14.622-25.518a49.378,49.378,0,0,1-25.8,25.929,46.776,46.776,0,0,1-36.21-.132,47.814,47.814,0,0,1-15.443-10.516A46.553,46.553,0,0,1,731.366,928.4a47.221,47.221,0,0,1-3.549-18.142,48.239,48.239,0,0,1,3.549-18.332,44.422,44.422,0,0,1,10.193-15.135,50.345,50.345,0,0,1,15.648-10.441,46.11,46.11,0,0,1,17.877-3.637,47.233,47.233,0,0,1,18.215,3.593,46.071,46.071,0,0,1,15.267,10.442,48.94,48.94,0,0,1,10.515,15.531,47.417,47.417,0,0,1-.044,36.106Zm138.385.059c0,8.859-3.08,15.751-9.415,21.119-6.394,5.411-15.061,8.154-25.738,8.154a43.614,43.614,0,0,1-17.056-3.153,33.967,33.967,0,0,1-12.73-9.445,20.446,20.446,0,0,1-3.989-7.978c-.836-3.256-1.276-9.049-1.276-17.218V840.733H862.111v79.956c0,10.867.733,18.758,2.258,24.155a39.738,39.738,0,0,0,7.817,14.841,57.159,57.159,0,0,0,21.632,16.587,70.189,70.189,0,0,0,28.451,5.616c17.687,0,32.279-4.9,43.366-14.562,11.2-9.754,16.9-22.644,16.9-38.306V840.733H957.422Zm70.644,27.763V921.173h59.22V897.767h-59.22V863.846h60.921V840.733h-85.926V979.513h87.92v-23.3Z" transform="translate(463.289 177.277)" fill="#a8d726"/><path d="M87.521,705.476a5.652,5.652,0,1,1,0-7.993A5.638,5.638,0,0,1,87.521,705.476Z" transform="translate(360.903 146.431)"/><path d="M66.154,697.483a5.652,5.652,0,1,1,0,7.993A5.638,5.638,0,0,1,66.154,697.483Z" transform="translate(178.125 146.431)"/></g><line y1="1198" x2="1886" transform="translate(-175.5 -108.5)" fill="none" stroke="red" stroke-width="20"/></g></svg>