<svg xmlns="http://www.w3.org/2000/svg" xmlns:xlink="http://www.w3.org/1999/xlink" width="1534" height="984" viewBox="0 0 1534 984"><defs><clipPath id="b"><rect width="1534" height="984"/></clipPath></defs><g id="a" clip-path="url(#b)"><rect width="1534" height="984" fill="#b3b3b3"/><g transform="translate(90.522 302.028)"><path d="M631.655,619.119a5.663,5.663,0,0,0-3.71-2.206,5.191,5.191,0,0,0-.8-.058,5.642,5.642,0,0,0-5.565,4.719l.029-.292a78.672,78.672,0,0,0-.292-19.473,5.665,5.665,0,0,0,5.522,4.528,5.116,5.116,0,0,0,.818-.058,5.646,5.646,0,0,0-.8-11.234,5.242,5.242,0,0,0-.818.059,5.663,5.663,0,0,0-4.807,6.091,73.1,73.1,0,0,0-5.478-18.83,5.555,5.555,0,0,0,3.053,2.7,5.646,5.646,0,0,0,1.958.351,5.731,5.731,0,0,0,2.352-.511,5.6,5.6,0,0,0,2.937-3.171,5.516,5.516,0,0,0-.161-4.309,5.639,5.639,0,0,0-10.387,4.382,68.965,68.965,0,0,0-56.14-40.217c-8.342-.906-12.914,1.563-15.222,3.667-4.631,4.222-4.894,10.577-.745,16.01l44.19,56.1a13.6,13.6,0,0,1-.935,18.188L545.3,676.9a13.6,13.6,0,0,0,0,19.24l28.37,28.413a5.567,5.567,0,0,1-.453,8.356l-31.379,25.054a13.528,13.528,0,0,0-4.85,7.888,725.906,725.906,0,0,0,4.324-79.339,725.31,725.31,0,0,0-6.091-93.961H507.658a725.309,725.309,0,0,1,6.092,93.961,720.073,720.073,0,0,1-32.095,213.125,719.594,719.594,0,0,1-32.125-213.125,727.913,727.913,0,0,1,6.092-93.961H428.056a730.888,730.888,0,0,0-1.768,173.3,13.5,13.5,0,0,0-4.835-7.888L390.074,732.9a5.553,5.553,0,0,1-.467-8.356l28.37-28.413a13.561,13.561,0,0,0,0-19.24l-41.327-41.342a13.6,13.6,0,0,1-.95-18.187l44.19-56.1c4.164-5.434,3.9-11.789-.745-16.01-2.309-2.1-6.881-4.573-15.223-3.667a68.966,68.966,0,0,0-56.14,40.217,5.639,5.639,0,0,0-10.387-4.382,5.647,5.647,0,0,0,2.775,7.48,5.694,5.694,0,0,0,4.324.16,5.575,5.575,0,0,0,3.039-2.7,73.68,73.68,0,0,0-5.478,18.83,5.64,5.64,0,0,0-4.807-6.091,5.118,5.118,0,0,0-.818-.059,5.646,5.646,0,0,0-.8,11.234,5.239,5.239,0,0,0,.818.058,5.635,5.635,0,0,0,5.522-4.528,78.672,78.672,0,0,0-.292,19.473l.043.292a5.664,5.664,0,0,0-5.565-4.719,4.946,4.946,0,0,0-.8.058,5.7,5.7,0,0,0-3.725,2.206,5.646,5.646,0,0,0,4.514,9.028,5.057,5.057,0,0,0,.818-.058,5.635,5.635,0,0,0,4.821-5.9,62.238,62.238,0,0,0,4.923,18.888,5.661,5.661,0,1,0,.248.526,33.631,33.631,0,0,0,8.167,10.913l3.769,3.769a5.623,5.623,0,1,0,1.884,4.208,5.6,5.6,0,0,0-1.446-3.769l14.813,14.813a5.62,5.62,0,0,0-7.757.219,5.645,5.645,0,1,0,8.2.218l14.55,14.536-14.536,14.536a5.658,5.658,0,1,0-4.222,1.884,5.567,5.567,0,0,0,3.755-1.432l-14.8,14.8a5.626,5.626,0,0,0-.219-7.742,5.644,5.644,0,0,0-7.976,0,5.639,5.639,0,0,0,7.743,8.2l-3.754,3.769a13.572,13.572,0,0,0,1.139,20.248l4.164,3.33a5.588,5.588,0,0,0-3.258-1.051,4.664,4.664,0,0,0-.643.044,5.646,5.646,0,0,0-4.982,6.238,5.721,5.721,0,0,0,2.089,3.783,5.6,5.6,0,0,0,3.506,1.227c.219,0,.423-.014.657-.028a5.651,5.651,0,0,0,3.112-9.832l16.376,13.06a5.622,5.622,0,0,0-7.67,1.1,5.649,5.649,0,0,0,4.4,9.16c.219,0,.424-.014.643-.03a5.648,5.648,0,0,0,3.126-9.817l16.069,12.812L381.017,786.84a5.654,5.654,0,1,0-4.616,2.352,4.616,4.616,0,0,0,.643-.029,5.508,5.508,0,0,0,3.594-1.856L367.577,803.7a5.777,5.777,0,1,0-.395.482l-3.316,4.163a13.608,13.608,0,0,0,3.389,20l4.514,2.834a5.639,5.639,0,1,0,2.045,7.947,5.662,5.662,0,0,0-1.519-7.611l17.734,11.132a5.733,5.733,0,0,0-3.988-.556,5.653,5.653,0,0,0,1.242,11.161,5.185,5.185,0,0,0,1.256-.16,5.621,5.621,0,0,0,4.251-6.749,5.616,5.616,0,0,0-2.235-3.36l17.413,10.941L397,871.379a5.626,5.626,0,0,0-1.9-7.554,5.632,5.632,0,0,0-4.266-.729,5.576,5.576,0,0,0-3.521,2.5,5.658,5.658,0,0,0,4.763,8.663,6.257,6.257,0,0,0,1.271-.146,5.628,5.628,0,0,0,3.375-2.293l-7.1,11.307A13.6,13.6,0,0,0,412.659,897.6l25.594-40.714a13.418,13.418,0,0,0,2.031-8.3,716.142,716.142,0,0,0,21.124,73.5h40.481A719.922,719.922,0,0,0,523,848.589a13.513,13.513,0,0,0,2.031,8.3L550.622,897.6a13.6,13.6,0,0,0,23.038-14.477l-7.085-11.307a5.6,5.6,0,0,0,3.36,2.293,6.5,6.5,0,0,0,1.271.146,5.643,5.643,0,1,0-5.522-6.91,5.7,5.7,0,0,0,.6,4.032l-10.971-17.458,17.414-10.941a5.669,5.669,0,0,0-1.519,7.611,5.535,5.535,0,0,0,3.535,2.5,5.205,5.205,0,0,0,1.271.16,5.674,5.674,0,0,0,5.478-4.4,5.648,5.648,0,0,0-8.224-6.209l17.72-11.132a5.678,5.678,0,1,0,.541-.336l4.5-2.834a13.625,13.625,0,0,0,3.4-20L596.1,804.18a5.7,5.7,0,1,0-.38-.482l-13.06-16.391a5.441,5.441,0,0,0,3.579,1.856,4.619,4.619,0,0,0,.643.029,5.63,5.63,0,0,0,3.506-1.228,5.515,5.515,0,0,0,2.074-3.769,5.638,5.638,0,1,0-10.2,2.645l-12.826-16.084,16.07-12.812a5.655,5.655,0,0,0,3.141,9.817c.2.016.423.03.643.03a5.64,5.64,0,0,0,4.382-9.16,5.619,5.619,0,0,0-7.669-1.1l16.376-13.06a5.649,5.649,0,0,0,3.126,9.832c.22.014.424.028.643.028a5.633,5.633,0,0,0,5.6-5.01,5.646,5.646,0,0,0-4.982-6.238,4.451,4.451,0,0,0-.628-.044,5.6,5.6,0,0,0-3.272,1.051l4.178-3.33a13.6,13.6,0,0,0,1.14-20.248l-3.77-3.769a5.638,5.638,0,1,0-.233-8.2,5.64,5.64,0,0,0-.219,7.742l-14.8-14.8a5.566,5.566,0,0,0,3.754,1.432,5.64,5.64,0,1,0-4.207-1.884l-14.536-14.536,14.536-14.536a5.644,5.644,0,1,0,8.2-.218,5.621,5.621,0,0,0-7.757-.219l14.813-14.813a5.644,5.644,0,0,0,8.2,7.756,5.639,5.639,0,0,0-7.743-8.195l3.755-3.769a33.639,33.639,0,0,0,8.166-10.913,5.634,5.634,0,0,0,2.877,7.275,5.531,5.531,0,0,0,2.337.512,5.648,5.648,0,1,0-4.967-8.313,62.224,62.224,0,0,0,4.923-18.888,5.634,5.634,0,0,0,4.821,5.9,5.3,5.3,0,0,0,.818.058,5.646,5.646,0,0,0,4.514-9.028Zm-48.34-54.183a5.635,5.635,0,1,1,0-7.977A5.616,5.616,0,0,1,583.315,564.936Zm-203.35-7.977a5.635,5.635,0,1,1,0,7.977A5.644,5.644,0,0,1,379.965,556.959ZM433.973,838.13l-33.979-21.387a5.583,5.583,0,0,1-2.586-3.812,5.655,5.655,0,0,1,1.168-4.441L423.6,777.081a13.472,13.472,0,0,0,2.966-8.735,718.21,718.21,0,0,0,12.855,76.389A13.481,13.481,0,0,0,433.973,838.13Zm131.9-25.2a5.565,5.565,0,0,1-2.571,3.813L529.308,838.13a13.556,13.556,0,0,0-5.449,6.6,718.458,718.458,0,0,0,12.855-76.389,13.553,13.553,0,0,0,2.965,8.735L564.7,808.489A5.6,5.6,0,0,1,565.873,812.931Z" transform="translate(-330.512 -541.399)" fill="#f77619"/></g><path d="M395.087,644.443q18.626,0,29.611-11.584t10.985-31.335V544.609H427.5v57.338q0,15.755-8.823,25.039t-23.593,9.276q-14.769,0-23.593-9.276-8.83-9.292-8.823-25.039V544.609H354.68v56.915q0,19.83,10.927,31.364Q376.542,644.458,395.087,644.443ZM473.1,561.014l63.138,75.308h6.34V551.153h-6.822v74.328L473.4,551.153h-7.114v85.168H473.1ZM576,636.321h7.362V551.153H576Zm65.446,1.519,36.039-86.687h-7.246l-29.407,71.479-29.158-71.479h-7.479L640.35,637.84Zm103.487-7.232h-40.3V595.9h38.055v-5.478H704.627v-33.79h39.34v-5.478H697.82v85.168h47.112Zm34.286-35.192h7a47.558,47.558,0,0,1,10.913.936,12.686,12.686,0,0,1,5.96,3.2,54.185,54.185,0,0,1,4.617,5.7c1.958,2.644,4.266,6.033,6.954,10.138l13.557,20.935h7.742L812.511,600.4a23.893,23.893,0,0,0-3.4-4.017,23.408,23.408,0,0,0-4.193-3.1c5.435-1.753,9.5-4.338,12.213-7.8q4.032-5.171,4.032-13.016,0-10.3-7.246-15.806c-4.821-3.667-11.774-5.507-20.817-5.507H772.4v85.168h6.822Zm0-38.537h14.258q9.664,0,14.93,4.077c3.506,2.717,5.273,6.559,5.273,11.511a16.785,16.785,0,0,1-2.352,9.189,15.423,15.423,0,0,1-7.026,5.785,22.13,22.13,0,0,1-6.326,1.636,121.959,121.959,0,0,1-13.527.481h-5.23Zm93.947,80.668q11.023,0,18.071-6.56a21.69,21.69,0,0,0,7.056-16.7,23.239,23.239,0,0,0-1.417-8.167,20.611,20.611,0,0,0-4.164-6.808q-3.966-4.469-15.792-9.262l-1.812-.73q-10.475-4.449-13.645-7.976a13.2,13.2,0,0,1-3.156-9.13,14.809,14.809,0,0,1,4.923-11.409,18.027,18.027,0,0,1,12.666-4.543,28.283,28.283,0,0,1,9.466,1.695,45.621,45.621,0,0,1,10.08,5.3v-7.611a40.95,40.95,0,0,0-9.554-4.222,34.812,34.812,0,0,0-9.744-1.373q-11.022,0-17.866,6.3a21.045,21.045,0,0,0-6.852,16.229q0,7.977,4.5,13.119t16.741,10.2q11.811,4.93,15.135,8.62a13.626,13.626,0,0,1,3.316,9.465q0,7.846-4.879,12.418c-3.243,3.053-7.64,4.558-13.206,4.558a26.73,26.73,0,0,1-10.445-2.279,52.088,52.088,0,0,1-11.409-6.968V630a46.89,46.89,0,0,0,11,5.654A33,33,0,0,0,873.166,637.548Zm60.085-86.395h-7.363v85.168h7.363Zm79.572,83.283a36.627,36.627,0,0,0,12.417-5.96,41.107,41.107,0,0,0,12.52-15.134,45.481,45.481,0,0,0,0-39.326,40.989,40.989,0,0,0-12.52-15.135,37.134,37.134,0,0,0-12.33-5.872,63.864,63.864,0,0,0-16.595-1.855H966.792v85.168h29.524A63.523,63.523,0,0,0,1012.823,634.436Zm-38.785-4.075V557.3h20.583a66,66,0,0,1,14.462,1.373,29.807,29.807,0,0,1,10.43,4.353,32.509,32.509,0,0,1,11.176,12.929,41.4,41.4,0,0,1,0,35.7,32.559,32.559,0,0,1-11.176,12.915,30.7,30.7,0,0,1-10.43,4.382,64.963,64.963,0,0,1-14.462,1.4Zm121.47-79.938h-2.746l-37.135,85.9h7.246l12.534-29.642h37.441l12.607,29.642h7.188Zm-17.72,50.472,16.376-38.668,16.318,38.668Zm120.724,33.541a36.7,36.7,0,0,0,12.432-5.96,41.212,41.212,0,0,0,12.5-15.134,45.481,45.481,0,0,0,0-39.326,41.093,41.093,0,0,0-12.5-15.135,37.34,37.34,0,0,0-12.344-5.872,63.982,63.982,0,0,0-16.581-1.855H1152.5v85.168h29.524A63.406,63.406,0,0,0,1198.512,634.436Zm-38.771-4.075V557.3h20.569a65.911,65.911,0,0,1,14.462,1.373,29.884,29.884,0,0,1,10.445,4.353,32.59,32.59,0,0,1,11.161,12.929,41.4,41.4,0,0,1,0,35.7,32.641,32.641,0,0,1-11.161,12.915,30.782,30.782,0,0,1-10.445,4.382,64.874,64.874,0,0,1-14.462,1.4ZM381.384,761.208h64.687v-24.98H381.384V698.582h66.542V673.923H354.651V824.946H450.1V800.1H381.384Zm111.624-74.5H468.086v138.24h87.768V801.734H493.008Zm198,57.587a32.472,32.472,0,0,0,10.051-9.043c3.871-5.478,5.858-12.359,5.858-20.423,0-12.986-4.339-23.2-12.87-30.341-8.371-7-20.277-10.562-35.382-10.562H613.222V824.946h53.321c15.689,0,28.384-3.827,37.719-11.395,9.51-7.742,14.345-18.217,14.345-31.145,0-10.125-3.17-18.86-9.408-25.975A44.87,44.87,0,0,0,691.012,744.292Zm-51.057-45.505h16.64c8.063,0,13.907,1.417,17.354,4.177,3.287,2.645,4.894,6.925,4.894,13.1,0,6.808-2.1,11.672-6.413,14.872-4.528,3.374-11.8,5.083-21.62,5.083H639.955Zm44.614,96.4c-4.076,3.11-10.883,4.689-20.2,4.689H639.955v-38.67H661.05c10.46,0,18.129,1.666,22.79,4.953,4.354,3.1,6.486,7.932,6.486,14.8C690.326,787.578,688.441,792.238,684.569,795.189ZM851.9,705.434a71.839,71.839,0,0,0-23.724-15.441,77.266,77.266,0,0,0-56.345-.044A73.787,73.787,0,0,0,747.985,705.4,70.769,70.769,0,0,0,732,728.4a67.824,67.824,0,0,0-5.639,26.909,70.05,70.05,0,0,0,21.606,51.218,73.056,73.056,0,0,0,23.709,15.368,74.89,74.89,0,0,0,28.107,5.42,76.282,76.282,0,0,0,28.282-5.274,74.4,74.4,0,0,0,23.987-15.514,70.015,70.015,0,0,0,15.85-22.848,68.343,68.343,0,0,0,5.58-27.143,68.944,68.944,0,0,0-21.591-51.1Zm-8.327,68.587a46.9,46.9,0,0,1-10.241,15.237,45.357,45.357,0,0,1-15.236,10.3,48.979,48.979,0,0,1-36.507-.088,44.879,44.879,0,0,1-15.178-10.226,46.557,46.557,0,0,1-10.168-15.222,47.235,47.235,0,0,1-3.535-18.056,48.1,48.1,0,0,1,3.55-18.26,44.051,44.051,0,0,1,10.138-15.077,49.885,49.885,0,0,1,15.587-10.4,45.67,45.67,0,0,1,17.808-3.623,46.737,46.737,0,0,1,18.144,3.579,45.691,45.691,0,0,1,15.207,10.4,49.217,49.217,0,0,1,10.489,15.471,47.322,47.322,0,0,1-.058,35.966Zm85.752-30.444-2.776-1.666c-19.006-11.847-21.84-18.684-21.84-21.708a10.635,10.635,0,0,1,4.412-8.824c5.9-4.6,16.362-4.981,26.062-.8a68.4,68.4,0,0,1,15.324,9.7l5.055,4.077v-29.67l-1.476-.921a68.225,68.225,0,0,0-15.7-7.158,55.34,55.34,0,0,0-15.938-2.351c-12.184,0-22.336,3.579-30.167,10.664-7.918,7.158-11.921,16.419-11.921,27.552a34.623,34.623,0,0,0,6.282,20.7c4.09,5.654,13.542,13.221,28.939,23.169,11.57,7.334,15.894,11.292,17.486,13.309a14.586,14.586,0,0,1,3.156,9.35,12.007,12.007,0,0,1-4.514,9.978c-3.17,2.586-7.728,3.9-13.513,3.9a32.429,32.429,0,0,1-15.894-4.148c-5.1-2.82-10.591-7.582-16.289-14.127l-5.463-6.282v34.7l1.125.935a56.624,56.624,0,0,0,17.472,10.168,61.188,61.188,0,0,0,20.277,3.2c12.125,0,22.249-3.594,30.108-10.664A35.272,35.272,0,0,0,961.5,789.375c0-9.437-2.133-17.516-6.355-24.017C950.956,758.9,942.527,751.787,929.321,743.577Zm170.729,55.862a65.18,65.18,0,0,0,15.354-42.9,71.953,71.953,0,0,0-45.331-66.542,77.228,77.228,0,0,0-56.33-.044A73.32,73.32,0,0,0,989.9,705.4a70.826,70.826,0,0,0-16,22.994,67.579,67.579,0,0,0-5.639,26.909c0,16.814,5.113,31.759,15.164,44.4,9.948,12.5,23.257,20.905,39.575,25.01,12.038,8.546,23.578,15.149,34.33,19.619,11.059,4.616,21.226,6.939,30.21,6.939,1.271,0,2.22-.016,2.834-.044a14.129,14.129,0,0,0,2.22-.292l.8-.161,20.2-17.544-2.469-6.458-2.571.5c-2.5.482-4.792.862-6.881,1.1a50.3,50.3,0,0,1-5.639.364,67.552,67.552,0,0,1-16.727-2.264,115.339,115.339,0,0,1-12.724-4.222C1080.329,817.247,1091.548,809.592,1100.051,799.439Zm-14.579-25.418a49.19,49.19,0,0,1-25.7,25.828,46.591,46.591,0,0,1-36.068-.131,47.8,47.8,0,0,1-15.383-10.475,46.135,46.135,0,0,1-10.182-15.222,47.235,47.235,0,0,1-3.535-18.056,48.377,48.377,0,0,1,3.535-18.26,44.09,44.09,0,0,1,10.153-15.077,50.054,50.054,0,0,1,15.587-10.4,45.779,45.779,0,0,1,17.808-3.623,46.79,46.79,0,0,1,18.144,3.579,45.751,45.751,0,0,1,15.222,10.4,49.431,49.431,0,0,1,10.474,15.471,47.143,47.143,0,0,1-.058,35.966Zm137.846.059c0,8.809-3.068,15.7-9.364,21.036-6.384,5.39-15,8.122-25.638,8.122a43.469,43.469,0,0,1-17-3.141,33.95,33.95,0,0,1-12.68-9.408,20.054,20.054,0,0,1-3.959-7.947c-.847-3.243-1.271-9.028-1.271-17.15V686.706h-25.024v79.646c0,10.825.745,18.684,2.25,24.06a40.117,40.117,0,0,0,7.786,14.784,57.081,57.081,0,0,0,21.548,16.521,69.92,69.92,0,0,0,28.354,5.6c17.619,0,32.139-4.879,43.184-14.507,11.175-9.715,16.829-22.555,16.829-38.157V686.706h-25.01Zm70.384,27.654V766.819h58.975v-23.3H1293.7V709.729h60.669V686.706h-85.591v138.24h87.578V801.734Z" transform="translate(88.51 -195.685)" fill="#33371d"/><line y1="1198" x2="1886" transform="translate(-175.5 -108.5)" fill="none" stroke="red" stroke-width="20"/></g></svg>