<svg xmlns="http://www.w3.org/2000/svg" xmlns:xlink="http://www.w3.org/1999/xlink" width="1534" height="984" viewBox="0 0 1534 984"><defs><clipPath id="b"><rect width="1534" height="984"/></clipPath></defs><g id="a" clip-path="url(#b)"><rect width="1534" height="984" fill="#fff"/><g transform="translate(-101.373 -452.667)"><g transform="translate(200.078 756.995)"><path d="M358.735,694.925a5.512,5.512,0,0,0-3.68-2.179,4.935,4.935,0,0,0-.794-.059,5.572,5.572,0,0,0-5.484,4.647l.029-.273a77.848,77.848,0,0,0-.289-19.253,5.6,5.6,0,0,0,5.455,4.488,7.76,7.76,0,0,0,.808-.058,5.6,5.6,0,0,0,4.719-6.321,5.6,5.6,0,0,0-5.527-4.776,5.054,5.054,0,0,0-.794.057,5.577,5.577,0,0,0-4.748,6.02,72.916,72.916,0,0,0-5.412-18.618,5.451,5.451,0,0,0,3,2.67,5.4,5.4,0,0,0,1.948.361,5.625,5.625,0,0,0,5.224-3.637,5.567,5.567,0,0,0-7.548-7.015,5.561,5.561,0,0,0-2.872,7.072,68.16,68.16,0,0,0-55.462-39.731c-8.255-.88-12.758,1.545-15.038,3.623-4.575,4.185-4.849,10.448-.736,15.831l43.656,55.4a13.472,13.472,0,0,1-.924,17.982l-40.857,40.827a13.467,13.467,0,0,0,0,19.007l28.041,28.07a5.505,5.505,0,0,1,1.645,4.243,5.567,5.567,0,0,1-2.107,4.026l-31,24.736a13.423,13.423,0,0,0-4.777,7.808,721.146,721.146,0,0,0,4.272-78.38,718.925,718.925,0,0,0-6.018-92.826H236.237a718.925,718.925,0,0,1,6.018,92.826,710.867,710.867,0,0,1-31.721,210.532,715.826,715.826,0,0,1-25.7-303.358H157.6a719.949,719.949,0,0,0-1.746,171.206,13.373,13.373,0,0,0-4.791-7.808l-31-24.736a5.5,5.5,0,0,1-2.093-4.026,5.6,5.6,0,0,1,1.631-4.243L147.64,771a13.432,13.432,0,0,0,0-19.007l-40.828-40.827a13.442,13.442,0,0,1-.938-17.982l43.656-55.4c4.1-5.383,3.839-11.646-.736-15.831-2.295-2.078-6.8-4.5-15.038-3.623a68.16,68.16,0,0,0-55.462,39.731,5.586,5.586,0,1,0-7.519,3.06,5.465,5.465,0,0,0,2.324.52,5.265,5.265,0,0,0,1.934-.361,5.432,5.432,0,0,0,3.016-2.67,71.77,71.77,0,0,0-5.412,18.618,5.589,5.589,0,0,0-4.763-6.02,4.817,4.817,0,0,0-.794-.057,5.583,5.583,0,0,0-5.513,4.776,5.485,5.485,0,0,0,1.054,4.128,5.556,5.556,0,0,0,3.666,2.193,7.241,7.241,0,0,0,.808.058,5.6,5.6,0,0,0,5.455-4.488,77.842,77.842,0,0,0-.289,19.253l.029.273a5.575,5.575,0,0,0-5.5-4.647,4.76,4.76,0,0,0-.779.059,5.571,5.571,0,0,0-4.734,6.307,5.575,5.575,0,0,0,5.513,4.791,8.04,8.04,0,0,0,.808-.058,5.594,5.594,0,0,0,3.666-2.179,5.513,5.513,0,0,0,1.1-3.666,61.387,61.387,0,0,0,4.864,18.66,5.579,5.579,0,1,0-4.907,8.212,5.778,5.778,0,0,0,2.324-.491,5.586,5.586,0,0,0,2.829-7.2,32.959,32.959,0,0,0,8.067,10.8l3.709,3.708a5.581,5.581,0,1,0-3.709,9.728,5.571,5.571,0,0,0,4.156-9.28l14.634,14.62a5.67,5.67,0,1,0,.433.447l14.36,14.359-14.36,14.359a5.509,5.509,0,1,0-.447.448L89.7,790.911a5.39,5.39,0,1,0-.447.462l-3.709,3.709A13.422,13.422,0,0,0,86.665,815.1l4.113,3.291a5.428,5.428,0,0,0-3.233-1.039,4.4,4.4,0,0,0-.621.029A5.55,5.55,0,0,0,82,823.542a5.6,5.6,0,0,0,5.527,4.965,4.628,4.628,0,0,0,.635-.044,5.577,5.577,0,0,0,4.921-6.162,5.572,5.572,0,0,0-1.833-3.536l16.164,12.9a5.573,5.573,0,1,0-3.233,10.116,4.658,4.658,0,0,0,.635-.028,5.579,5.579,0,0,0,3.1-9.7L123.8,844.713,111.127,860.6a5.574,5.574,0,0,0-1.068-7.591,5.578,5.578,0,0,0-7.836.88,5.569,5.569,0,0,0,4.344,9.049,4.5,4.5,0,0,0,.635-.029,5.554,5.554,0,0,0,3.55-1.847L97.836,877.257a5.493,5.493,0,1,0-.375.477l-3.276,4.113a13.433,13.433,0,0,0,3.348,19.771l4.445,2.8a5.577,5.577,0,0,0-7.418,1.905,5.511,5.511,0,0,0-.707,4.2,5.572,5.572,0,1,0,10.867-2.467,5.471,5.471,0,0,0-2.208-3.306l17.506,11a5.465,5.465,0,0,0-3.925-.548,5.521,5.521,0,0,0-3.493,2.467,5.6,5.6,0,0,0-.707,4.215,5.513,5.513,0,0,0,2.468,3.464,5.427,5.427,0,0,0,2.944.865,5.176,5.176,0,0,0,1.256-.144,5.555,5.555,0,0,0,4.2-6.669,5.5,5.5,0,0,0-2.208-3.318l17.2,10.81-10.838,17.246a5.545,5.545,0,0,0,.577-3.983,5.581,5.581,0,0,0-6.667-4.2,5.563,5.563,0,0,0-1.732,10.146,5.439,5.439,0,0,0,2.958.865,5.383,5.383,0,0,0,1.256-.145,5.579,5.579,0,0,0,3.334-2.251l-7.014,11.156a13.444,13.444,0,1,0,22.759,14.316l25.27-40.222a13.289,13.289,0,0,0,2.021-8.2,707.2,707.2,0,0,0,20.854,72.592h40.005a710.9,710.9,0,0,0,20.854-72.592,13.275,13.275,0,0,0,2.006,8.2l25.285,40.222a13.444,13.444,0,1,0,22.759-14.316l-7.014-11.156a5.537,5.537,0,0,0,3.334,2.251,5.3,5.3,0,0,0,1.256.145,5.475,5.475,0,0,0,2.958-.865,5.563,5.563,0,0,0-1.732-10.146,5.586,5.586,0,0,0-6.682,4.2,5.625,5.625,0,0,0,.592,3.983l-10.838-17.246,17.2-10.81a5.572,5.572,0,0,0,1.992,9.987,5.141,5.141,0,0,0,1.241.144,5.44,5.44,0,0,0,2.959-.865,5.514,5.514,0,0,0,2.468-3.464,5.609,5.609,0,0,0-.722-4.215,5.59,5.59,0,0,0-7.418-1.919l17.52-11a5.47,5.47,0,0,0-2.208,3.306,5.577,5.577,0,1,0,2.728-3.638l4.459-2.8a13.478,13.478,0,0,0,3.363-19.771l-3.29-4.113a5.582,5.582,0,0,0,4.171,1.861,5.482,5.482,0,0,0,3.464-1.212,5.576,5.576,0,1,0-8.024-1.126l-12.9-16.192a5.485,5.485,0,0,0,3.536,1.847,4.713,4.713,0,0,0,.635.029,5.58,5.58,0,1,0-5.542-6.205,5.57,5.57,0,0,0,1,3.867l-12.671-15.89,15.875-12.656a5.572,5.572,0,0,0,3.088,9.7,4.767,4.767,0,0,0,.635.028,5.571,5.571,0,1,0-3.233-10.116l16.178-12.9a5.565,5.565,0,0,0-.649,7.635,5.469,5.469,0,0,0,3.723,2.063,5,5,0,0,0,.649.044,5.6,5.6,0,0,0,5.527-4.965,5.577,5.577,0,0,0-4.921-6.162,4.606,4.606,0,0,0-.635-.029,5.459,5.459,0,0,0-3.233,1.039L334.4,815.1a13.422,13.422,0,0,0,1.126-20.017l-3.709-3.709a5.576,5.576,0,1,0,3.709-9.741,5.57,5.57,0,0,0-4.156,9.279l-14.62-14.6a5.533,5.533,0,0,0,3.709,1.4,5.573,5.573,0,1,0-4.156-1.848L301.946,761.5l14.36-14.359a5.366,5.366,0,1,0,.433-.447l14.634-14.62a5.577,5.577,0,0,0,8.1,7.664,5.582,5.582,0,0,0-7.663-8.111l3.723-3.708a33.161,33.161,0,0,0,8.068-10.8,5.58,5.58,0,1,0,.245-.52,61.017,61.017,0,0,0,4.849-18.66,5.564,5.564,0,0,0,4.777,5.845,7.753,7.753,0,0,0,.808.058,5.593,5.593,0,0,0,4.459-8.919ZM310.98,641.4a5.566,5.566,0,1,1,0-7.879A5.574,5.574,0,0,1,310.98,641.4Zm-200.892-7.879a5.566,5.566,0,1,1,0,7.879A5.548,5.548,0,0,1,110.088,633.518Zm53.34,277.771L129.86,890.159a5.515,5.515,0,0,1-1.385-8.168L153.2,850.963a13.341,13.341,0,0,0,2.93-8.631,709.818,709.818,0,0,0,12.7,75.479A13.294,13.294,0,0,0,163.429,911.288Zm130.32-24.9a5.578,5.578,0,0,1-2.554,3.767l-33.568,21.129a13.341,13.341,0,0,0-5.383,6.522,709.833,709.833,0,0,0,12.7-75.479,13.342,13.342,0,0,0,2.93,8.631l24.722,31.028A5.62,5.62,0,0,1,293.748,886.393Z" transform="translate(-61.22 -618.135)" fill="#01a0c6"/></g><path d="M125.307,719.974q18.4,0,29.253-11.445t10.853-30.955V621.346h-8.1v56.646q0,15.564-8.7,24.721-8.724,9.158-23.307,9.165-14.612,0-23.322-9.165t-8.717-24.721V621.346h-7.88v56.228q0,19.569,10.8,30.984T125.307,719.974Zm77.066-82.421,62.375,74.4H271V627.8h-6.74V701.24L202.677,627.8h-7.043v84.152h6.74Zm101.644,74.4h7.288V627.8h-7.288Zm64.655,1.5L404.29,627.8h-7.158L368.08,698.412,339.274,627.8h-7.4L367.59,713.45Zm102.25-7.158H431.1V672H468.7V666.59H431.1V633.209h38.865V627.8h-45.59v84.152h46.543Zm33.857-34.767h6.927a46.611,46.611,0,0,1,10.766.938,12.576,12.576,0,0,1,5.888,3.146,54.905,54.905,0,0,1,4.575,5.629c1.919,2.626,4.214,5.975,6.855,10.016l13.407,20.7h7.649l-23.163-35.488a23.063,23.063,0,0,0-3.363-3.969,22.776,22.776,0,0,0-4.156-3.073q8.075-2.577,12.065-7.692c2.67-3.406,4-7.707,4-12.874q0-10.153-7.158-15.6T518.5,627.8h-20.45v84.152h6.725Zm0-38.057h14.086c6.364,0,11.3,1.327,14.764,4.012s5.2,6.479,5.2,11.372a16.667,16.667,0,0,1-2.309,9.078,15.061,15.061,0,0,1-6.942,5.715,21.928,21.928,0,0,1-6.263,1.631,123.724,123.724,0,0,1-13.35.477h-5.181Zm92.811,79.678q10.889,0,17.867-6.465a21.53,21.53,0,0,0,6.971-16.51,22.868,22.868,0,0,0-1.4-8.053,20.585,20.585,0,0,0-4.127-6.74q-3.918-4.395-15.586-9.136l-1.8-.735c-6.884-2.916-11.387-5.557-13.465-7.88a13.014,13.014,0,0,1-3.117-9.021,14.653,14.653,0,0,1,4.864-11.271q4.871-4.481,12.512-4.487a28.066,28.066,0,0,1,9.352,1.688,45.054,45.054,0,0,1,9.958,5.239v-7.534a41.207,41.207,0,0,0-9.453-4.171,34.811,34.811,0,0,0-9.626-1.341q-10.867,0-17.65,6.22a20.821,20.821,0,0,0-6.769,16.034q0,7.857,4.459,12.96,4.438,5.065,16.539,10.058,11.668,4.893,14.951,8.516a13.451,13.451,0,0,1,3.262,9.352q0,7.772-4.806,12.268-4.806,4.523-13.046,4.517a26.409,26.409,0,0,1-10.319-2.252,51.688,51.688,0,0,1-11.271-6.884v8.169a46,46,0,0,0,10.853,5.6A33.067,33.067,0,0,0,597.59,713.146Zm59.373-85.35h-7.288v84.152h7.288Zm78.61,82.291a36.235,36.235,0,0,0,12.267-5.9,40.419,40.419,0,0,0,12.354-14.937,44.83,44.83,0,0,0,0-38.865,40.411,40.411,0,0,0-12.354-14.937,36.409,36.409,0,0,0-12.181-5.8,63.188,63.188,0,0,0-16.395-1.847H690.1v84.152h29.167A62.84,62.84,0,0,0,735.574,710.088Zm-38.317-4.042V633.873h20.334a65.854,65.854,0,0,1,14.273,1.356,29.981,29.981,0,0,1,10.319,4.3,32.163,32.163,0,0,1,11.04,12.788,40.9,40.9,0,0,1,0,35.271,32.122,32.122,0,0,1-11.04,12.743,30.007,30.007,0,0,1-10.319,4.345,64.112,64.112,0,0,1-14.273,1.37Zm119.987-78.971h-2.7l-36.686,84.874H785l12.4-29.3h36.989l12.455,29.3h7.086Zm-17.506,49.862,16.178-38.187,16.12,38.187Zm119.279,33.15a36.234,36.234,0,0,0,12.267-5.9,40.281,40.281,0,0,0,12.354-14.937,44.83,44.83,0,0,0,0-38.865,40.273,40.273,0,0,0-12.354-14.937,36.544,36.544,0,0,0-12.181-5.8,63.265,63.265,0,0,0-16.395-1.847H873.542v84.152h29.167A62.762,62.762,0,0,0,919.017,710.088ZM880.7,706.046V633.873h20.334a65.856,65.856,0,0,1,14.273,1.356,29.981,29.981,0,0,1,10.319,4.3,32.165,32.165,0,0,1,11.041,12.788,40.9,40.9,0,0,1,0,35.271,32.124,32.124,0,0,1-11.041,12.743,30.007,30.007,0,0,1-10.319,4.345,64.114,64.114,0,0,1-14.273,1.37ZM111.77,835.313h63.9V810.648h-63.9v-37.19h65.737V749.1H85.36v149.2h94.3V873.73H111.77Zm110.274-73.6H197.423V898.293H284.13V875.347H222.044Zm195.6,56.9a31.6,31.6,0,0,0,9.929-8.947c3.839-5.412,5.787-12.194,5.787-20.176,0-12.83-4.272-22.9-12.714-29.961C412.386,752.6,400.61,749.1,385.7,749.1H340.8v149.2h52.662c15.514,0,28.056-3.8,37.263-11.271,9.41-7.635,14.187-17.982,14.187-30.769,0-9.987-3.132-18.618-9.309-25.646A43.957,43.957,0,0,0,417.64,818.614ZM367.2,773.646h16.452c7.966,0,13.739,1.4,17.145,4.142,3.247,2.612,4.835,6.841,4.835,12.931,0,6.74-2.078,11.546-6.336,14.706-4.474,3.334-11.661,5.009-21.374,5.009H367.2Zm44.075,95.25c-4.026,3.074-10.737,4.633-19.945,4.633H367.2V835.313h20.854c10.333,0,17.9,1.645,22.5,4.906,4.315,3.06,6.422,7.837,6.422,14.605C416.976,861.362,415.114,865.966,411.275,868.9Zm165.3-88.669a70.769,70.769,0,0,0-23.423-15.269,76.4,76.4,0,0,0-55.664-.044,73.18,73.18,0,0,0-23.553,15.27,69.972,69.972,0,0,0-15.788,22.729,66.68,66.68,0,0,0-5.571,26.569,68.992,68.992,0,0,0,21.345,50.6,72.2,72.2,0,0,0,23.423,15.2,73.962,73.962,0,0,0,27.767,5.34,75.344,75.344,0,0,0,27.94-5.2,74.01,74.01,0,0,0,23.7-15.327,69.066,69.066,0,0,0,15.659-22.586,67.712,67.712,0,0,0,5.513-26.814,68.055,68.055,0,0,0-21.345-50.468Zm-8.212,67.742a46.4,46.4,0,0,1-10.117,15.067A45.4,45.4,0,0,1,543.2,873.211a48.4,48.4,0,0,1-36.065-.1,44.13,44.13,0,0,1-14.995-10.087A46.137,46.137,0,0,1,478.6,830.146a47.462,47.462,0,0,1,3.492-18.039A43.789,43.789,0,0,1,492.108,797.2a50.042,50.042,0,0,1,15.413-10.275,45.37,45.37,0,0,1,17.593-3.579,46.367,46.367,0,0,1,17.91,3.536,45.265,45.265,0,0,1,15.038,10.274,48.4,48.4,0,0,1,10.348,15.3,46.628,46.628,0,0,1-.043,35.517Zm84.715-30.061-2.756-1.66c-18.776-11.7-21.576-18.458-21.576-21.432a10.5,10.5,0,0,1,4.373-8.717c5.816-4.546,16.149-4.921,25.732-.808a68.1,68.1,0,0,1,15.139,9.583L679,798.9V769.59l-1.472-.895a66.76,66.76,0,0,0-15.5-7.086,54.711,54.711,0,0,0-15.745-2.323c-12.051,0-22.081,3.55-29.8,10.549-7.822,7.072-11.791,16.222-11.791,27.2a34.181,34.181,0,0,0,6.22,20.45c4.026,5.585,13.364,13.075,28.59,22.889,11.43,7.26,15.687,11.156,17.275,13.162a14.372,14.372,0,0,1,3.1,9.236,11.908,11.908,0,0,1-4.445,9.857c-3.146,2.555-7.635,3.839-13.349,3.839a31.973,31.973,0,0,1-15.7-4.085c-5.051-2.8-10.463-7.5-16.092-13.97l-5.412-6.19V886.5l1.111.909a56.333,56.333,0,0,0,17.26,10.06,60.5,60.5,0,0,0,20.046,3.146c11.979,0,21.98-3.536,29.744-10.521a34.883,34.883,0,0,0,11.834-26.944c0-9.337-2.107-17.317-6.278-23.726C674.455,833.047,666.127,826,653.081,817.908Zm168.651,55.173A64.366,64.366,0,0,0,836.9,830.694a68.053,68.053,0,0,0-21.345-50.468,70.913,70.913,0,0,0-23.423-15.269,76.4,76.4,0,0,0-55.664-.044,73.181,73.181,0,0,0-23.553,15.27,69.974,69.974,0,0,0-15.788,22.729,66.682,66.682,0,0,0-5.571,26.569c0,16.625,5.037,31.374,14.98,43.873,9.814,12.339,22.961,20.651,39.1,24.707,11.892,8.442,23.293,14.967,33.915,19.382,10.925,4.546,20.969,6.855,29.845,6.855,1.255,0,2.179-.015,2.8-.058a13.625,13.625,0,0,0,2.179-.289l.808-.145,19.959-17.332-2.439-6.394-2.54.49c-2.468.477-4.734.853-6.812,1.1a49.11,49.11,0,0,1-5.571.348,65.966,65.966,0,0,1-16.51-2.237,113.572,113.572,0,0,1-12.585-4.157C802.263,890.674,813.347,883.126,821.732,873.081Zm-14.389-25.112a46.578,46.578,0,0,1-10.1,15.067A47.319,47.319,0,0,1,781.958,873.5a46.09,46.09,0,0,1-35.632-.131,47.524,47.524,0,0,1-15.2-10.347,45.9,45.9,0,0,1-10.059-15.038,46.406,46.406,0,0,1-3.492-17.839,47.462,47.462,0,0,1,3.492-18.039A43.616,43.616,0,0,1,731.1,797.2a49.807,49.807,0,0,1,15.4-10.275,45.369,45.369,0,0,1,17.592-3.579,46.492,46.492,0,0,1,17.924,3.536,45.355,45.355,0,0,1,15.024,10.274,48.4,48.4,0,0,1,10.348,15.3,46.625,46.625,0,0,1-.043,35.517Zm136.179.072c0,8.7-3.031,15.5-9.265,20.769-6.292,5.325-14.821,8.038-25.328,8.038a42.923,42.923,0,0,1-16.784-3.117,33.279,33.279,0,0,1-12.527-9.294,20.02,20.02,0,0,1-3.926-7.851c-.823-3.205-1.256-8.905-1.256-16.93V761.71H849.73v78.683c0,10.694.721,18.473,2.222,23.77a39.277,39.277,0,0,0,7.692,14.619,56.35,56.35,0,0,0,21.287,16.309,69.043,69.043,0,0,0,28,5.527c17.4,0,31.765-4.82,42.675-14.317,11.026-9.61,16.625-22.3,16.625-37.7V761.71H943.523Zm69.518,27.306V840.869h58.276V817.836h-58.276V784.47h59.95V761.71H988.434V898.293h86.519V875.347Z" transform="translate(463.105 181.989)" fill="#f0047f"/></g><line y1="1198" x2="1886" transform="translate(-175.5 -108.5)" fill="none" stroke="red" stroke-width="20"/></g></svg>