<svg xmlns="http://www.w3.org/2000/svg" xmlns:xlink="http://www.w3.org/1999/xlink" width="1534" height="984" viewBox="0 0 1534 984"><defs><clipPath id="b"><rect width="1534" height="984"/></clipPath></defs><g id="a" clip-path="url(#b)"><rect width="1534" height="984" fill="#fff"/><g transform="translate(-51.048 -210.76)"><rect width="1533.718" height="980.066" transform="translate(50.882 210.954)" fill="none"/><g transform="translate(190.719 427.742)"><path d="M340.072,338.562a5.4,5.4,0,0,0-3.449-3.165,3.475,3.475,0,0,0-.744-.081c-2.516,0-4.721,2.827-5.14,6.75l.027-.406a174.733,174.733,0,0,0-.271-27.959,9.41,9.41,0,0,0,1.988,4.9,4.174,4.174,0,0,0,3.125,1.61,3.713,3.713,0,0,0,.757-.081,5.351,5.351,0,0,0,3.436-3.166,11.538,11.538,0,0,0,.987-6.019c-.379-4.017-2.624-6.939-5.181-6.939a3.588,3.588,0,0,0-.744.081c-2.759.609-4.694,4.491-4.45,8.752a152.51,152.51,0,0,0-5.073-27.04,6.84,6.84,0,0,0,2.813,3.882,3.681,3.681,0,0,0,1.826.5,3.789,3.789,0,0,0,2.178-.73,7.671,7.671,0,0,0,2.719-4.545,12.314,12.314,0,0,0-.135-6.2c-1.2-4.072-4.315-5.857-6.939-4-2.53,1.8-3.693,6.331-2.692,10.294-9.171-31.192-28.027-53.741-51.983-57.745-7.737-1.285-11.958,2.245-14.095,5.275-4.288,6.06-4.545,15.177-.69,22.995l40.918,80.51c4.017,7.67,3.733,18.978-.866,26.12L260.1,421.493a27.761,27.761,0,0,0,0,27.621L286.385,489.9a10.711,10.711,0,0,1,1.542,6.155,9.952,9.952,0,0,1-1.975,5.843L256.9,537.863a22.887,22.887,0,0,0-4.477,11.322q3.957-56.081,4-113.88,0-68.58-5.641-134.887H225.258q5.559,66.226,5.641,134.887c0,106.522-10.429,209.242-29.731,305.93-19.3-96.687-29.731-199.408-29.731-305.93q0-68.58,5.641-134.887H151.552q-5.58,66.226-5.641,134.887,0,57.725,4,113.88a22.774,22.774,0,0,0-4.491-11.322L116.37,501.9a9.856,9.856,0,0,1-1.961-5.843,10.924,10.924,0,0,1,1.529-6.155l26.282-40.783a27.672,27.672,0,0,0,0-27.621l-38.267-59.341c-4.612-7.142-4.91-18.45-.879-26.12l40.918-80.51c3.842-7.818,3.6-16.935-.69-22.995-2.151-3.03-6.371-6.561-14.095-5.275-23.956,4-42.812,26.552-51.983,57.745,1-3.963-.176-8.495-2.692-10.294-2.624-1.853-5.735-.068-6.926,4a12.314,12.314,0,0,0-.162,6.2,7.684,7.684,0,0,0,2.732,4.545,3.757,3.757,0,0,0,2.178.73,3.6,3.6,0,0,0,1.813-.5,6.8,6.8,0,0,0,2.827-3.882,150.108,150.108,0,0,0-5.072,27.04c.243-4.261-1.7-8.143-4.464-8.752a3.4,3.4,0,0,0-.744-.081c-2.557,0-4.788,2.922-5.167,6.939a11.538,11.538,0,0,0,.987,6.019,5.382,5.382,0,0,0,3.436,3.166,3.523,3.523,0,0,0,.758.081,4.173,4.173,0,0,0,3.125-1.61,9.409,9.409,0,0,0,1.988-4.9,174.727,174.727,0,0,0-.271,27.959l.027.406c-.419-3.923-2.624-6.75-5.154-6.75a3.353,3.353,0,0,0-.73.081,5.37,5.37,0,0,0-3.449,3.165,11.488,11.488,0,0,0-.987,6.006,9.572,9.572,0,0,0,2.043,5.329,4.125,4.125,0,0,0,3.125,1.623,3.713,3.713,0,0,0,.757-.081,5.382,5.382,0,0,0,3.436-3.165,11.3,11.3,0,0,0,1.028-5.316c.92,11.93,2.624,20.655,4.558,27.121-1.3-3.733-4.261-5.329-6.79-3.544-2.611,1.867-3.774,6.682-2.57,10.74.879,2.976,2.773,4.734,4.761,4.734a3.853,3.853,0,0,0,2.178-.73,7.738,7.738,0,0,0,2.719-4.545,12.3,12.3,0,0,0-.068-5.911A51.275,51.275,0,0,0,84.014,386.5l3.476,5.4c-2.042-2.841-5.208-2.732-7.183.311a11.543,11.543,0,0,0,0,11.457,4.074,4.074,0,0,0,7.4,0,10.646,10.646,0,0,0,1.529-5.722,10.959,10.959,0,0,0-1.326-5.4l13.716,21.25a4.355,4.355,0,0,0-3.49-2.056,4.516,4.516,0,0,0-3.693,2.367,11.477,11.477,0,0,0,0,11.457,4.064,4.064,0,0,0,7.385,0,11.544,11.544,0,0,0,.2-11.132L115.49,435.3l-13.459,20.858a11.544,11.544,0,0,0-.2-11.132c-2.042-3.152-5.357-3.152-7.385,0a11.5,11.5,0,0,0,0,11.471,4.531,4.531,0,0,0,3.693,2.367,4.4,4.4,0,0,0,3.476-2.042l-13.7,21.223a11.564,11.564,0,0,0-.2-11.105,4.065,4.065,0,0,0-7.4,0,11.588,11.588,0,0,0,0,11.457,4.537,4.537,0,0,0,3.706,2.367,4.377,4.377,0,0,0,3.476-2.056l-3.476,5.4a26.171,26.171,0,0,0-3.679,14.92c.216,5.776,2.029,10.808,4.734,14.162l3.855,4.775a4.1,4.1,0,0,0-3.03-1.515,4.259,4.259,0,0,0-.582.054,5.2,5.2,0,0,0-3.517,3,11.511,11.511,0,0,0-1.1,5.952,9.727,9.727,0,0,0,1.934,5.438,4.244,4.244,0,0,0,3.246,1.772,4.417,4.417,0,0,0,.6-.054,5.184,5.184,0,0,0,3.5-3,11.4,11.4,0,0,0,1.109-5.965,10.1,10.1,0,0,0-1.718-5.126l15.15,18.734c-2.245-2.462-5.356-1.812-7.1,1.555a11.564,11.564,0,0,0-1.109,5.965,9.925,9.925,0,0,0,1.934,5.424,4.2,4.2,0,0,0,3.246,1.772,2.887,2.887,0,0,0,.6-.054,5.125,5.125,0,0,0,3.5-3,11.5,11.5,0,0,0-.6-11.092l14.879,18.4L108,579.308a11.588,11.588,0,0,0,.933-5.614A9.782,9.782,0,0,0,107,568.27a3.993,3.993,0,0,0-3.841-1.718,5.124,5.124,0,0,0-3.5,3,11.349,11.349,0,0,0-1.1,5.951,9.774,9.774,0,0,0,1.921,5.424,4.224,4.224,0,0,0,3.246,1.772,2.87,2.87,0,0,0,.6-.054,4.966,4.966,0,0,0,3.328-2.665L95.539,603.507c1.6-3.476,1.177-8.332-1-11.038-2.245-2.773-5.546-2.191-7.345,1.3s-1.42,8.589.825,11.376a4.268,4.268,0,0,0,3.26,1.772,4.718,4.718,0,0,0,3.909-2.705l-3.07,5.979a27.77,27.77,0,0,0-2.584,15.448c.622,5.708,2.8,10.415,5.722,13.269l4.166,4.058c-2.408-2.056-5.465-.879-6.953,2.773a11.928,11.928,0,0,0-.663,6.127,9.038,9.038,0,0,0,2.3,5.059,3.971,3.971,0,0,0,2.773,1.231c1.745,0,3.449-1.339,4.45-3.787a12.035,12.035,0,0,0,.663-6.114,9.016,9.016,0,0,0-2.07-4.8l16.408,15.989a3.6,3.6,0,0,0-3.679-.812,5.971,5.971,0,0,0-3.273,3.6,12.019,12.019,0,0,0-.663,6.114,8.833,8.833,0,0,0,2.313,5.046,3.964,3.964,0,0,0,2.759,1.258,3.467,3.467,0,0,0,1.177-.2,6.009,6.009,0,0,0,3.273-3.6,12.022,12.022,0,0,0,.663-6.115,9.014,9.014,0,0,0-2.07-4.8l16.124,15.7-10.158,25.051a12.029,12.029,0,0,0,.541-5.789,8.788,8.788,0,0,0-2.313-5.059,3.67,3.67,0,0,0-3.936-1.042,5.979,5.979,0,0,0-3.273,3.584c-1.528,3.787-.8,8.806,1.65,11.173a3.952,3.952,0,0,0,2.773,1.244,3.659,3.659,0,0,0,1.177-.2,5.82,5.82,0,0,0,3.125-3.273l-6.574,16.219c-3.706,9.13-1.934,21.2,3.963,26.931s13.662,2.989,17.368-6.141l23.685-58.448a28.032,28.032,0,0,0,1.894-11.917q7.994,53.869,19.546,105.494h37.5q11.5-51.557,19.546-105.494a28.023,28.023,0,0,0,1.88,11.917l23.7,58.448c3.706,9.131,11.484,11.89,17.368,6.141s7.67-17.8,3.963-26.931L279.8,701.317a5.778,5.778,0,0,0,3.125,3.273,3.6,3.6,0,0,0,1.177.2,3.977,3.977,0,0,0,2.773-1.244c2.435-2.367,3.179-7.386,1.65-11.173a6.018,6.018,0,0,0-3.273-3.584,3.7,3.7,0,0,0-3.95,1.042,8.873,8.873,0,0,0-2.313,5.059,12.2,12.2,0,0,0,.555,5.789L269.382,675.63l16.124-15.7a9.013,9.013,0,0,0-2.07,4.8,11.737,11.737,0,0,0,.663,6.115,5.932,5.932,0,0,0,3.274,3.6,3.447,3.447,0,0,0,1.163.2,3.969,3.969,0,0,0,2.773-1.258,8.833,8.833,0,0,0,2.313-5.046,12.024,12.024,0,0,0-.676-6.114,5.954,5.954,0,0,0-3.26-3.6,3.633,3.633,0,0,0-3.693.812l16.421-15.989a9.014,9.014,0,0,0-2.07,4.8,12.035,12.035,0,0,0,.663,6.114c1,2.448,2.705,3.787,4.437,3.787a3.971,3.971,0,0,0,2.773-1.231,8.958,8.958,0,0,0,2.313-5.059,12.071,12.071,0,0,0-.663-6.127c-1.488-3.652-4.545-4.829-6.966-2.773l4.18-4.058c2.922-2.854,5.086-7.561,5.708-13.269a27.888,27.888,0,0,0-2.557-15.448l-3.084-5.979a4.718,4.718,0,0,0,3.909,2.705,4.2,4.2,0,0,0,3.246-1.772c2.259-2.787,2.624-7.886.825-11.376s-5.086-4.072-7.345-1.3c-2.178,2.705-2.6,7.561-1,11.038L294.69,579.984A4.917,4.917,0,0,0,298,582.649a3.048,3.048,0,0,0,.6.054,4.184,4.184,0,0,0,3.246-1.772,9.681,9.681,0,0,0,1.934-5.424,11.22,11.22,0,0,0-1.109-5.951,5.131,5.131,0,0,0-3.49-3,4.025,4.025,0,0,0-3.855,1.718,9.775,9.775,0,0,0-1.921,5.424,11.588,11.588,0,0,0,.933,5.614l-11.876-23.09,14.879-18.4c-2.042,2.841-2.327,7.724-.609,11.092a5.151,5.151,0,0,0,3.5,3,2.975,2.975,0,0,0,.6.054,4.2,4.2,0,0,0,3.246-1.772,9.72,9.72,0,0,0,1.934-5.424,11.3,11.3,0,0,0-1.109-5.965c-1.718-3.368-4.856-4.017-7.1-1.555l15.163-18.734a10.1,10.1,0,0,0-1.718,5.126,11.4,11.4,0,0,0,1.109,5.965,5.165,5.165,0,0,0,3.49,3,4.831,4.831,0,0,0,.609.054A4.244,4.244,0,0,0,319.7,530.9a9.726,9.726,0,0,0,1.934-5.438,11.514,11.514,0,0,0-1.109-5.952,5.185,5.185,0,0,0-3.5-3,4.458,4.458,0,0,0-.6-.054,4.121,4.121,0,0,0-3.03,1.515l3.869-4.775c2.705-3.355,4.518-8.386,4.734-14.162a26.386,26.386,0,0,0-3.679-14.92l-3.476-5.4a4.377,4.377,0,0,0,3.476,2.056,4.5,4.5,0,0,0,3.693-2.367,11.5,11.5,0,0,0,0-11.457,4.054,4.054,0,0,0-7.385,0,11.492,11.492,0,0,0-.2,11.105l-13.7-21.223a4.376,4.376,0,0,0,3.476,2.042,4.567,4.567,0,0,0,3.693-2.367,11.569,11.569,0,0,0,0-11.471c-2.043-3.152-5.357-3.152-7.4,0a11.58,11.58,0,0,0-.189,11.132L286.845,435.3,300.3,414.433a11.58,11.58,0,0,0,.189,11.132,4.075,4.075,0,0,0,7.4,0,11.544,11.544,0,0,0,0-11.457,4.516,4.516,0,0,0-3.693-2.367,4.355,4.355,0,0,0-3.49,2.056l13.716-21.25a10.82,10.82,0,0,0-1.339,5.4,10.532,10.532,0,0,0,1.542,5.722,4.064,4.064,0,0,0,7.385,0,11.477,11.477,0,0,0,0-11.457c-1.961-3.043-5.127-3.152-7.183-.311l3.49-5.4a51.594,51.594,0,0,0,7.562-15.677,12.3,12.3,0,0,0-.068,5.911,7.685,7.685,0,0,0,2.732,4.545,3.749,3.749,0,0,0,2.164.73c1.975,0,3.882-1.759,4.761-4.734,1.19-4.058.041-8.873-2.583-10.74-2.516-1.785-5.478-.189-6.777,3.544,1.934-6.466,3.639-15.19,4.545-27.121a11.471,11.471,0,0,0,1.028,5.316,5.4,5.4,0,0,0,3.449,3.165,3.615,3.615,0,0,0,.757.081A4.1,4.1,0,0,0,339,349.9a9.379,9.379,0,0,0,2.042-5.329A11.484,11.484,0,0,0,340.072,338.562Zm-44.759-77.778c-2.029,3.152-5.343,3.152-7.372,0a11.451,11.451,0,0,1,0-11.443c2.029-3.165,5.343-3.165,7.372,0A11.451,11.451,0,0,1,295.312,260.784Zm-188.29-11.443c2.029-3.165,5.343-3.165,7.372,0a11.451,11.451,0,0,1,0,11.443c-2.029,3.152-5.343,3.152-7.372,0A11.451,11.451,0,0,1,107.023,249.341Zm49.994,403.605-31.463-30.692a9,9,0,0,1-2.381-5.478,11.432,11.432,0,0,1,1.082-6.371l23.171-45.1a26.976,26.976,0,0,0,2.746-12.552q4.078,55.8,11.9,109.687A19.866,19.866,0,0,0,157.017,652.946Zm122.145-36.17a9.007,9.007,0,0,1-2.394,5.478L245.3,652.946a19.964,19.964,0,0,0-5.045,9.5q7.791-53.849,11.9-109.687a26.977,26.977,0,0,0,2.746,12.552l23.171,45.1A11.551,11.551,0,0,1,279.162,616.776Z" transform="translate(-61.22 -226.981)" fill="#ff893b"/></g><path d="M122.8,375.273q17.246,0,27.418-16.638,10.165-16.618,10.172-44.976v-81.7H152.8v82.309q0,22.623-8.156,35.927Q136.47,363.5,122.8,363.518q-13.7,0-21.859-13.324t-8.17-35.927V231.959H85.387v81.7q0,28.447,10.118,45.03T122.8,375.273Zm72.232-119.764,58.462,108.1h5.857V241.346h-6.317V348.058L195.317,241.346h-6.6V363.613h6.317Zm95.267,108.1h6.831V241.346H290.3Zm60.6,2.191,33.384-124.458h-6.709l-27.229,102.6-27-102.6h-6.939L349.885,365.8Zm95.836-10.415h-37.32v-49.8h35.237v-7.872H409.416V249.205h36.427v-7.859h-42.73V363.613h43.623Zm31.733-50.508h6.493q6.655,0,10.091,1.353a11.518,11.518,0,0,1,5.519,4.585A79.445,79.445,0,0,1,504.859,319q2.7,5.722,6.425,14.541l12.566,30.07h7.169l-21.71-51.563a34.077,34.077,0,0,0-3.152-5.762,24.945,24.945,0,0,0-3.9-4.464,24.559,24.559,0,0,0,11.308-11.186q3.754-7.426,3.747-18.707,0-14.771-6.709-22.67t-19.275-7.913H472.165V363.613h6.3Zm0-55.324h13.2c5.965,0,10.591,1.961,13.838,5.857s4.87,9.415,4.87,16.516a35.153,35.153,0,0,1-2.164,13.2,18.065,18.065,0,0,1-6.506,8.305,15.409,15.409,0,0,1-5.87,2.354,73.441,73.441,0,0,1-12.512.7h-4.856Zm86.989,115.8q10.206,0,16.746-9.4t6.533-23.983a50.218,50.218,0,0,0-1.312-11.714,35.588,35.588,0,0,0-3.869-9.78q-3.673-6.391-14.609-13.3l-1.691-1.042c-6.452-4.247-10.672-8.075-12.62-11.457s-2.922-7.737-2.922-13.094q0-9.881,4.558-16.394T568,248.691a17.98,17.98,0,0,1,8.765,2.448,40.415,40.415,0,0,1,9.333,7.588V247.812a33.591,33.591,0,0,0-8.86-6.073,21.828,21.828,0,0,0-9.022-1.961q-10.185,0-16.543,9.049-6.33,9.029-6.344,23.279,0,11.464,4.18,18.829,4.159,7.406,15.5,14.649,10.936,7.061,14.014,12.363c2.042,3.531,3.057,8.048,3.057,13.594q0,11.261-4.5,17.828a14.088,14.088,0,0,1-12.228,6.547,17.7,17.7,0,0,1-9.672-3.273,50.239,50.239,0,0,1-10.564-10.01V354.51a41.287,41.287,0,0,0,10.172,8.143A21.423,21.423,0,0,0,565.458,365.358Zm55.648-124.011h-6.831V363.613h6.831Zm73.679,119.548a31.21,31.21,0,0,0,11.5-8.562q7.426-8.562,11.579-21.71a98.029,98.029,0,0,0,0-56.46q-4.139-13.148-11.579-21.71a31.183,31.183,0,0,0-11.417-8.44,39.671,39.671,0,0,0-15.366-2.665H652.163V363.613H679.5A39.12,39.12,0,0,0,694.785,360.894Zm-35.913-5.843V250.179h19.059a40.5,40.5,0,0,1,13.378,1.961,24.1,24.1,0,0,1,9.671,6.249q6.595,6.817,10.348,18.572a89.5,89.5,0,0,1,0,51.252q-3.754,11.707-10.348,18.531a24.481,24.481,0,0,1-9.671,6.29,39.729,39.729,0,0,1-13.378,2.016Zm112.46-114.76H768.8L734.418,363.613h6.7l11.619-42.568H787.4l11.673,42.568h6.642Zm-16.408,72.462,15.163-55.5,15.109,55.5Zm111.8,48.141a31.211,31.211,0,0,0,11.5-8.562q7.446-8.562,11.578-21.71a98.027,98.027,0,0,0,0-56.46q-4.139-13.148-11.578-21.71a31.3,31.3,0,0,0-11.417-8.44,39.719,39.719,0,0,0-15.366-2.665H824.1V363.613h27.337A39.073,39.073,0,0,0,866.721,360.894Zm-35.913-5.843V250.179h19.059a40.5,40.5,0,0,1,13.378,1.961,24.1,24.1,0,0,1,9.671,6.249q6.594,6.817,10.348,18.572a89.509,89.509,0,0,1,0,51.252q-3.754,11.707-10.348,18.531a24.482,24.482,0,0,1-9.671,6.29,39.729,39.729,0,0,1-13.378,2.016ZM110.114,542.867h59.9V507.021h-59.9V452.983h61.613V417.6H85.36v216.79h88.382v-35.7H110.114ZM213.47,435.926H190.394V634.387h81.268V601.058H213.47ZM396.8,518.6a39.68,39.68,0,0,0,9.306-12.985c3.6-7.873,5.424-17.733,5.424-29.325,0-18.64-4-33.289-11.917-43.542-7.737-10.05-18.775-15.15-32.748-15.15H324.78v216.79h49.358c14.541,0,26.3-5.505,34.926-16.381,8.819-11.092,13.3-26.134,13.3-44.705,0-14.514-2.935-27.053-8.725-37.279A45.979,45.979,0,0,0,396.8,518.6Zm-47.275-65.32h15.42c7.467,0,12.877,2.015,16.07,5.992,3.043,3.8,4.531,9.942,4.531,18.8,0,9.78-1.948,16.773-5.938,21.358-4.193,4.843-10.929,7.291-20.033,7.291H349.52Zm41.31,138.376c-3.774,4.477-10.064,6.737-18.694,6.737H349.52V542.867h19.546c9.685,0,16.773,2.394,21.088,7.128,4.044,4.45,6.019,11.389,6.019,21.237C396.173,580.728,394.428,587.423,390.83,591.657ZM545.763,462.8c-6.3-9.577-13.689-17.03-21.954-22.156-16.354-10.118-35.683-10.293-52.172-.067-8.17,5.073-15.6,12.539-22.075,22.2a114,114,0,0,0-14.8,33.018,143.86,143.86,0,0,0-5.221,38.618,152.822,152.822,0,0,0,5.073,39.93,115.208,115.208,0,0,0,14.933,33.573c6.3,9.5,13.689,16.922,21.954,22.089a48.674,48.674,0,0,0,26.025,7.764,49.4,49.4,0,0,0,26.187-7.561c8.143-5.018,15.61-12.512,22.211-22.265A112.993,112.993,0,0,0,560.6,575.128a146.345,146.345,0,0,0,5.167-38.957,152.014,152.014,0,0,0-5.032-39.944A115.436,115.436,0,0,0,545.763,462.8Zm-7.7,98.473a77.07,77.07,0,0,1-9.482,21.873c-4.139,6.479-8.873,11.457-14.108,14.785a30.773,30.773,0,0,1-33.8-.135,46.112,46.112,0,0,1-14.054-14.676A76.387,76.387,0,0,1,457.2,561.29a100.75,100.75,0,0,1-3.273-25.93,103.112,103.112,0,0,1,3.273-26.214,72.754,72.754,0,0,1,9.387-21.656,51.409,51.409,0,0,1,14.446-14.92,30,30,0,0,1,16.489-5.208,30.522,30.522,0,0,1,16.786,5.14,47.416,47.416,0,0,1,14.095,14.933,80.131,80.131,0,0,1,9.7,22.211,102.817,102.817,0,0,1-.041,51.631Zm79.4-43.7-2.583-2.408c-17.6-16.989-20.222-26.81-20.222-31.138,0-5.194,1.339-9.333,4.1-12.675,5.451-6.6,15.136-7.155,24.118-1.163,4.274,2.841,9.049,7.534,14.189,13.932l4.694,5.844V447.383l-1.38-1.312a55.8,55.8,0,0,0-14.527-10.294,34.978,34.978,0,0,0-14.758-3.368c-11.295,0-20.7,5.154-27.932,15.312-7.331,10.28-11.051,23.577-11.051,39.552,0,11.389,1.961,21.372,5.83,29.7,3.774,8.116,12.526,18.991,26.8,33.262,10.713,10.537,14.7,16.205,16.191,19.113a29.055,29.055,0,0,1,2.908,13.418c0,6.127-1.366,10.808-4.166,14.338-2.949,3.693-7.156,5.573-12.512,5.573-5.194,0-10.131-2-14.717-5.938-4.734-4.072-9.807-10.889-15.082-20.3l-5.073-9v49.791l1.042,1.353c5.14,6.628,10.578,11.538,16.178,14.6a38.785,38.785,0,0,0,18.788,4.585c11.227,0,20.6-5.14,27.878-15.3,7.358-10.28,11.092-23.455,11.092-39.16,0-13.553-1.975-25.146-5.884-34.479C637.5,539.566,629.7,529.354,617.468,517.572Zm158.071,80.186c9.428-17.5,14.216-38.213,14.216-61.587a152.019,152.019,0,0,0-5.032-39.944A115.439,115.439,0,0,0,769.749,462.8c-6.3-9.577-13.7-17.03-21.954-22.156-16.354-10.118-35.683-10.293-52.172-.067-8.17,5.073-15.6,12.539-22.075,22.2a114,114,0,0,0-14.8,33.018,143.865,143.865,0,0,0-5.221,38.618c0,24.145,4.721,45.584,14.041,63.737,9.2,17.936,21.521,30,36.643,35.9C715.359,646.3,726.045,655.786,736,662.212c10.24,6.615,19.654,9.969,27.973,9.969,1.177,0,2.042-.027,2.624-.081a9.167,9.167,0,0,0,2.042-.419l.758-.23L788.1,646.277l-2.286-9.292-2.381.73a59.583,59.583,0,0,1-6.385,1.569,29.751,29.751,0,0,1-5.221.5,41.724,41.724,0,0,1-15.474-3.233,81.984,81.984,0,0,1-11.8-6.06C757.292,623.323,767.68,612.339,775.539,597.758Zm-13.486-36.481a77.431,77.431,0,0,1-9.469,21.873c-4.261,6.682-9.076,11.8-14.324,15.2-10.307,6.709-22.522,6.993-33.4-.189a49.544,49.544,0,0,1-14.243-15.042,76.031,76.031,0,0,1-9.428-21.832,100.75,100.75,0,0,1-3.273-25.93,103.112,103.112,0,0,1,3.273-26.214,72.422,72.422,0,0,1,9.4-21.656,51.2,51.2,0,0,1,14.433-14.92,30,30,0,0,1,16.489-5.208,30.6,30.6,0,0,1,16.8,5.14,47.535,47.535,0,0,1,14.081,14.933,80.127,80.127,0,0,1,9.7,22.211,102.81,102.81,0,0,1-.041,51.631Zm127.637.081c0,12.661-2.84,22.522-8.684,30.191a28.485,28.485,0,0,1-23.739,11.674,28.131,28.131,0,0,1-15.731-4.531c-4.518-2.963-8.468-7.508-11.741-13.5a37.169,37.169,0,0,1-3.679-11.4c-.771-4.667-1.177-12.945-1.177-24.618V435.926H801.78V550.252c0,15.542.676,26.85,2.083,34.547a71.774,71.774,0,0,0,7.21,21.237c5.4,10.347,12.106,18.328,19.952,23.7a45.576,45.576,0,0,0,26.242,8.035c16.313,0,29.772-7.007,40-20.817,10.334-13.946,15.583-32.382,15.583-54.769V435.926H889.689Zm65.157,39.7V550.942h54.62V517.478h-54.62V468.985h56.189V435.926H931.784V634.387h81.092V601.058Z" transform="translate(431.892 263.119)" fill="#394024"/></g><line y1="1198" x2="1886" transform="translate(-175.5 -108.5)" fill="none" stroke="red" stroke-width="20"/></g></svg>