<svg xmlns="http://www.w3.org/2000/svg" xmlns:xlink="http://www.w3.org/1999/xlink" width="1534" height="984" viewBox="0 0 1534 984"><defs><clipPath id="b"><rect width="1534" height="984"/></clipPath></defs><g id="a" clip-path="url(#b)"><rect width="1534" height="984" fill="#ceca14"/><g transform="translate(-40.682 -11.435)"><g transform="translate(141.127 316.247)"><path d="M627.242,387.478a5.522,5.522,0,0,0-3.656-2.174,5.067,5.067,0,0,0-.792-.058,5.561,5.561,0,0,0-5.484,4.635l.029-.274a77.494,77.494,0,0,0-.288-19.187,5.583,5.583,0,0,0,5.441,4.462,7.636,7.636,0,0,0,.806-.058,5.564,5.564,0,0,0-.791-11.069,7.831,7.831,0,0,0-.806.043,5.6,5.6,0,0,0-4.736,6.017,72.078,72.078,0,0,0-5.4-18.555,5.449,5.449,0,0,0,3.009,2.649,5.579,5.579,0,0,0,1.929.36,5.644,5.644,0,0,0,2.318-.5,5.51,5.51,0,0,0,2.893-3.124,5.435,5.435,0,0,0-.159-4.246,5.556,5.556,0,0,0-10.234,4.318A67.969,67.969,0,0,0,556,311.072c-8.219-.878-12.725,1.54-15,3.627-4.563,4.146-4.822,10.408-.734,15.776l43.543,55.26a13.422,13.422,0,0,1-.921,17.936l-40.737,40.736a13.4,13.4,0,0,0,0,18.958l27.954,28a5.459,5.459,0,0,1,1.641,4.218,5.535,5.535,0,0,1-2.087,4.016l-30.92,24.686a13.333,13.333,0,0,0-4.779,7.773,715.256,715.256,0,0,0,4.26-78.177,714.464,714.464,0,0,0-6-92.585H505.062a714.464,714.464,0,0,1,6,92.585,709.657,709.657,0,0,1-31.624,210,709.2,709.2,0,0,1-31.654-210,717.044,717.044,0,0,1,6-92.585H426.627a720.165,720.165,0,0,0-1.741,170.762,13.311,13.311,0,0,0-4.765-7.773L389.2,499.6a5.473,5.473,0,0,1-.46-8.234l27.954-28a13.362,13.362,0,0,0,0-18.958l-40.722-40.736a13.423,13.423,0,0,1-.935-17.936l43.543-55.26c4.1-5.369,3.843-11.63-.734-15.776-2.275-2.087-6.78-4.506-15-3.627a67.97,67.97,0,0,0-55.318,39.642,5.554,5.554,0,1,0-7.5,3.052,5.511,5.511,0,0,0,4.261.144,5.468,5.468,0,0,0,2.994-2.649,72.616,72.616,0,0,0-5.4,18.555,5.572,5.572,0,0,0-4.736-6.017,7.6,7.6,0,0,0-.806-.043,5.564,5.564,0,0,0-.791,11.069,7.912,7.912,0,0,0,.806.058,5.554,5.554,0,0,0,5.441-4.462,77.492,77.492,0,0,0-.288,19.187l.043.274a5.582,5.582,0,0,0-5.484-4.635,4.835,4.835,0,0,0-.792.058,5.552,5.552,0,0,0-3.67,2.174,5.6,5.6,0,0,0,1.122,7.787,5.629,5.629,0,0,0,3.326,1.108,4.9,4.9,0,0,0,.806-.058,5.434,5.434,0,0,0,3.656-2.174,5.5,5.5,0,0,0,1.094-3.656,61.447,61.447,0,0,0,4.851,18.626,5.576,5.576,0,1,0,.244.518,33.131,33.131,0,0,0,8.047,10.752l3.714,3.7a5.558,5.558,0,1,0,1.857,4.146,5.455,5.455,0,0,0-1.425-3.7l14.6,14.6a5.538,5.538,0,0,0-7.643.216,5.562,5.562,0,1,0,8.075.216l14.336,14.322L373.943,468.2a5.781,5.781,0,1,0-.461.446L358.9,483.23a5.556,5.556,0,0,0-8.075-7.629,5.464,5.464,0,0,0-1.626,3.915,5.568,5.568,0,0,0,9.256,4.174l-3.7,3.685a13.389,13.389,0,0,0,1.123,19.965l4.1,3.282a5.507,5.507,0,0,0-3.21-1.036c-.216,0-.418.014-.634.029a5.566,5.566,0,0,0-4.908,6.161,5.572,5.572,0,0,0,2.058,3.714,5.45,5.45,0,0,0,3.455,1.223,5.1,5.1,0,0,0,.647-.043A5.557,5.557,0,0,0,360.456,511l16.136,12.869a5.565,5.565,0,0,0-7.557,1.065,5.572,5.572,0,0,0,4.333,9.04,4.622,4.622,0,0,0,.633-.043,5.558,5.558,0,0,0,3.081-9.673l15.834,12.624-12.638,15.848a5.446,5.446,0,0,0,.993-3.843,5.554,5.554,0,0,0-2.044-3.728,5.562,5.562,0,1,0-3.5,9.9,4.5,4.5,0,0,0,.633-.029A5.556,5.556,0,0,0,379.9,553.2l-12.869,16.136a5.563,5.563,0,1,0-8,1.123,5.5,5.5,0,0,0,3.455,1.209,5.57,5.57,0,0,0,4.16-1.857l-3.268,4.117a13.413,13.413,0,0,0,3.339,19.706l4.448,2.792A5.566,5.566,0,0,0,365.494,606a5.588,5.588,0,0,0,7.687-1.756,5.565,5.565,0,0,0-1.5-7.485l17.475,10.969a5.567,5.567,0,1,0-2.706,10.436,5.929,5.929,0,0,0,1.238-.13,5.584,5.584,0,0,0,3.483-2.476,5.587,5.587,0,0,0-1.5-7.5l17.158,10.781-10.81,17.2a5.564,5.564,0,0,0-1.871-7.457,5.569,5.569,0,1,0-2.98,10.278,6.165,6.165,0,0,0,1.252-.13,5.541,5.541,0,0,0,3.325-2.26l-7,11.141a13.405,13.405,0,0,0,22.7,14.265l25.219-40.117a13.221,13.221,0,0,0,2-8.176,704.446,704.446,0,0,0,20.814,72.4h39.887a708.07,708.07,0,0,0,20.8-72.4,13.315,13.315,0,0,0,2,8.176L547.4,661.88a13.405,13.405,0,0,0,22.7-14.265l-6.981-11.141a5.513,5.513,0,0,0,3.311,2.26,6.379,6.379,0,0,0,1.252.13,5.561,5.561,0,1,0-2.965-10.278,5.551,5.551,0,0,0-1.886,7.457l-10.81-17.2,17.158-10.781a5.488,5.488,0,0,0-2.2,3.311,5.561,5.561,0,0,0,4.189,6.665,5.952,5.952,0,0,0,1.252.13,5.551,5.551,0,0,0,5.4-4.318,5.544,5.544,0,0,0-4.188-6.665,5.529,5.529,0,0,0-3.915.547l17.461-10.969a5.565,5.565,0,0,0-1.5,7.485,5.565,5.565,0,1,0,2.03-7.816l4.434-2.792a13.43,13.43,0,0,0,3.354-19.706l-3.282-4.117a5.6,5.6,0,1,0-.374-.475L578.964,553.2a5.488,5.488,0,0,0,3.526,1.828,4.516,4.516,0,0,0,.634.029,5.543,5.543,0,0,0,3.454-1.209,5.437,5.437,0,0,0,2.044-3.728,5.522,5.522,0,0,0-1.166-4.088,5.46,5.46,0,0,0-3.728-2.059,5.564,5.564,0,0,0-5.153,8.752l-12.638-15.848,15.834-12.624a5.568,5.568,0,0,0-.634,7.615,5.458,5.458,0,0,0,3.728,2.058,4.483,4.483,0,0,0,.633.043,5.563,5.563,0,1,0-3.238-10.1L598.4,511a5.558,5.558,0,0,0,3.08,9.673,4.711,4.711,0,0,0,.633.043,5.567,5.567,0,0,0,4.333-9.039,5.572,5.572,0,0,0-3.728-2.059c-.2-.015-.417-.029-.619-.029a5.518,5.518,0,0,0-3.224,1.036l4.117-3.282a13.417,13.417,0,0,0,1.123-19.965L600.4,483.69a5.563,5.563,0,0,0,9.256-4.174,5.464,5.464,0,0,0-1.627-3.915,5.557,5.557,0,0,0-8.075,7.629l-14.582-14.581a5.568,5.568,0,1,0-.446-.446L570.6,453.88l14.322-14.322a5.561,5.561,0,1,0,8.075-.216,5.539,5.539,0,0,0-7.644-.216l14.6-14.6a5.438,5.438,0,0,0-1.411,3.7,5.557,5.557,0,1,0,1.857-4.146l3.7-3.7a33.132,33.132,0,0,0,8.046-10.752,5.553,5.553,0,0,0,2.836,7.169,5.452,5.452,0,0,0,2.3.5,5.565,5.565,0,1,0-4.894-8.191,61.448,61.448,0,0,0,4.851-18.626,5.5,5.5,0,0,0,1.094,3.656,5.434,5.434,0,0,0,3.657,2.174,5.125,5.125,0,0,0,.806.058,5.563,5.563,0,0,0,5.5-4.765A5.5,5.5,0,0,0,627.242,387.478Zm-47.631-53.389a5.552,5.552,0,1,1,0-7.859A5.561,5.561,0,0,1,579.611,334.089ZM379.241,326.23a5.552,5.552,0,1,1,0,7.859A5.56,5.56,0,0,1,379.241,326.23Zm53.216,277.05-33.481-21.074a5.5,5.5,0,0,1-2.548-3.757,5.575,5.575,0,0,1,1.151-4.376l24.658-30.948a13.29,13.29,0,0,0,2.922-8.622,707.376,707.376,0,0,0,12.667,75.283A13.289,13.289,0,0,0,432.457,603.28Zm129.968-24.831a5.483,5.483,0,0,1-2.533,3.757L526.4,603.28a13.363,13.363,0,0,0-5.369,6.506A707.36,707.36,0,0,0,533.693,534.5a13.371,13.371,0,0,0,2.922,8.622l24.658,30.948A5.518,5.518,0,0,1,562.424,578.449Z" transform="translate(-330.512 -310.887)" fill="#f77619"/><path d="M627.242,387.478a5.522,5.522,0,0,0-3.656-2.174,5.067,5.067,0,0,0-.792-.058,5.561,5.561,0,0,0-5.484,4.635l.029-.274a77.494,77.494,0,0,0-.288-19.187,5.583,5.583,0,0,0,5.441,4.462,7.636,7.636,0,0,0,.806-.058,5.564,5.564,0,0,0-.791-11.069,7.831,7.831,0,0,0-.806.043,5.6,5.6,0,0,0-4.736,6.017,72.078,72.078,0,0,0-5.4-18.555,5.449,5.449,0,0,0,3.009,2.649,5.579,5.579,0,0,0,1.929.36,5.644,5.644,0,0,0,2.318-.5,5.51,5.51,0,0,0,2.893-3.124,5.435,5.435,0,0,0-.159-4.246,5.556,5.556,0,0,0-10.234,4.318A67.969,67.969,0,0,0,556,311.072c-8.219-.878-12.725,1.54-15,3.627-4.563,4.146-4.822,10.408-.734,15.776l43.543,55.26a13.422,13.422,0,0,1-.921,17.936l-40.737,40.736a13.4,13.4,0,0,0,0,18.958l27.954,28a5.459,5.459,0,0,1,1.641,4.218,5.535,5.535,0,0,1-2.087,4.016l-30.92,24.686a13.333,13.333,0,0,0-4.779,7.773,715.256,715.256,0,0,0,4.26-78.177,714.464,714.464,0,0,0-6-92.585H505.062a714.464,714.464,0,0,1,6,92.585,709.657,709.657,0,0,1-31.624,210,709.2,709.2,0,0,1-31.654-210,717.044,717.044,0,0,1,6-92.585H426.627a720.165,720.165,0,0,0-1.741,170.762,13.311,13.311,0,0,0-4.765-7.773L389.2,499.6a5.473,5.473,0,0,1-.46-8.234l27.954-28a13.362,13.362,0,0,0,0-18.958l-40.722-40.736a13.423,13.423,0,0,1-.935-17.936l43.543-55.26c4.1-5.369,3.843-11.63-.734-15.776-2.275-2.087-6.78-4.506-15-3.627a67.97,67.97,0,0,0-55.318,39.642,5.554,5.554,0,1,0-7.5,3.052,5.511,5.511,0,0,0,4.261.144,5.468,5.468,0,0,0,2.994-2.649,72.616,72.616,0,0,0-5.4,18.555,5.572,5.572,0,0,0-4.736-6.017,7.6,7.6,0,0,0-.806-.043,5.564,5.564,0,0,0-.791,11.069,7.912,7.912,0,0,0,.806.058,5.554,5.554,0,0,0,5.441-4.462,77.492,77.492,0,0,0-.288,19.187l.043.274a5.582,5.582,0,0,0-5.484-4.635,4.835,4.835,0,0,0-.792.058,5.552,5.552,0,0,0-3.67,2.174,5.6,5.6,0,0,0,1.122,7.787,5.629,5.629,0,0,0,3.326,1.108,4.9,4.9,0,0,0,.806-.058,5.434,5.434,0,0,0,3.656-2.174,5.5,5.5,0,0,0,1.094-3.656,61.447,61.447,0,0,0,4.851,18.626,5.576,5.576,0,1,0,.244.518,33.131,33.131,0,0,0,8.047,10.752l3.714,3.7a5.558,5.558,0,1,0,1.857,4.146,5.455,5.455,0,0,0-1.425-3.7l14.6,14.6a5.538,5.538,0,0,0-7.643.216,5.562,5.562,0,1,0,8.075.216l14.336,14.322L373.943,468.2a5.781,5.781,0,1,0-.461.446L358.9,483.23a5.556,5.556,0,0,0-8.075-7.629,5.464,5.464,0,0,0-1.626,3.915,5.568,5.568,0,0,0,9.256,4.174l-3.7,3.685a13.389,13.389,0,0,0,1.123,19.965l4.1,3.282a5.507,5.507,0,0,0-3.21-1.036c-.216,0-.418.014-.634.029a5.566,5.566,0,0,0-4.908,6.161,5.572,5.572,0,0,0,2.058,3.714,5.45,5.45,0,0,0,3.455,1.223,5.1,5.1,0,0,0,.647-.043A5.557,5.557,0,0,0,360.456,511l16.136,12.869a5.565,5.565,0,0,0-7.557,1.065,5.572,5.572,0,0,0,4.333,9.04,4.622,4.622,0,0,0,.633-.043,5.558,5.558,0,0,0,3.081-9.673l15.834,12.624-12.638,15.848a5.446,5.446,0,0,0,.993-3.843,5.554,5.554,0,0,0-2.044-3.728,5.562,5.562,0,1,0-3.5,9.9,4.5,4.5,0,0,0,.633-.029A5.556,5.556,0,0,0,379.9,553.2l-12.869,16.136a5.563,5.563,0,1,0-8,1.123,5.5,5.5,0,0,0,3.455,1.209,5.57,5.57,0,0,0,4.16-1.857l-3.268,4.117a13.413,13.413,0,0,0,3.339,19.706l4.448,2.792A5.566,5.566,0,0,0,365.494,606a5.588,5.588,0,0,0,7.687-1.756,5.565,5.565,0,0,0-1.5-7.485l17.475,10.969a5.567,5.567,0,1,0-2.706,10.436,5.929,5.929,0,0,0,1.238-.13,5.584,5.584,0,0,0,3.483-2.476,5.587,5.587,0,0,0-1.5-7.5l17.158,10.781-10.81,17.2a5.564,5.564,0,0,0-1.871-7.457,5.569,5.569,0,1,0-2.98,10.278,6.165,6.165,0,0,0,1.252-.13,5.541,5.541,0,0,0,3.325-2.26l-7,11.141a13.405,13.405,0,0,0,22.7,14.265l25.219-40.117a13.221,13.221,0,0,0,2-8.176,704.446,704.446,0,0,0,20.814,72.4h39.887a708.07,708.07,0,0,0,20.8-72.4,13.315,13.315,0,0,0,2,8.176L547.4,661.88a13.405,13.405,0,0,0,22.7-14.265l-6.981-11.141a5.513,5.513,0,0,0,3.311,2.26,6.379,6.379,0,0,0,1.252.13,5.561,5.561,0,1,0-2.965-10.278,5.551,5.551,0,0,0-1.886,7.457l-10.81-17.2,17.158-10.781a5.488,5.488,0,0,0-2.2,3.311,5.561,5.561,0,0,0,4.189,6.665,5.952,5.952,0,0,0,1.252.13,5.551,5.551,0,0,0,5.4-4.318,5.544,5.544,0,0,0-4.188-6.665,5.529,5.529,0,0,0-3.915.547l17.461-10.969a5.565,5.565,0,0,0-1.5,7.485,5.565,5.565,0,1,0,2.03-7.816l4.434-2.792a13.43,13.43,0,0,0,3.354-19.706l-3.282-4.117a5.6,5.6,0,1,0-.374-.475L578.964,553.2a5.488,5.488,0,0,0,3.526,1.828,4.516,4.516,0,0,0,.634.029,5.543,5.543,0,0,0,3.454-1.209,5.437,5.437,0,0,0,2.044-3.728,5.522,5.522,0,0,0-1.166-4.088,5.46,5.46,0,0,0-3.728-2.059,5.564,5.564,0,0,0-5.153,8.752l-12.638-15.848,15.834-12.624a5.568,5.568,0,0,0-.634,7.615,5.458,5.458,0,0,0,3.728,2.058,4.483,4.483,0,0,0,.633.043,5.563,5.563,0,1,0-3.238-10.1L598.4,511a5.558,5.558,0,0,0,3.08,9.673,4.711,4.711,0,0,0,.633.043,5.567,5.567,0,0,0,4.333-9.039,5.572,5.572,0,0,0-3.728-2.059c-.2-.015-.417-.029-.619-.029a5.518,5.518,0,0,0-3.224,1.036l4.117-3.282a13.417,13.417,0,0,0,1.123-19.965L600.4,483.69a5.563,5.563,0,0,0,9.256-4.174,5.464,5.464,0,0,0-1.627-3.915,5.557,5.557,0,0,0-8.075,7.629l-14.582-14.581a5.568,5.568,0,1,0-.446-.446L570.6,453.88l14.322-14.322a5.561,5.561,0,1,0,8.075-.216,5.539,5.539,0,0,0-7.644-.216l14.6-14.6a5.438,5.438,0,0,0-1.411,3.7,5.557,5.557,0,1,0,1.857-4.146l3.7-3.7a33.132,33.132,0,0,0,8.046-10.752,5.553,5.553,0,0,0,2.836,7.169,5.452,5.452,0,0,0,2.3.5,5.565,5.565,0,1,0-4.894-8.191,61.448,61.448,0,0,0,4.851-18.626,5.5,5.5,0,0,0,1.094,3.656,5.434,5.434,0,0,0,3.657,2.174,5.125,5.125,0,0,0,.806.058,5.563,5.563,0,0,0,5.5-4.765A5.5,5.5,0,0,0,627.242,387.478Zm-47.631-53.389a5.552,5.552,0,1,1,0-7.859A5.561,5.561,0,0,1,579.611,334.089ZM379.241,326.23a5.552,5.552,0,1,1,0,7.859A5.56,5.56,0,0,1,379.241,326.23Zm53.216,277.05-33.481-21.074a5.5,5.5,0,0,1-2.548-3.757,5.575,5.575,0,0,1,1.151-4.376l24.658-30.948a13.29,13.29,0,0,0,2.922-8.622,707.376,707.376,0,0,0,12.667,75.283A13.289,13.289,0,0,0,432.457,603.28Zm129.968-24.831a5.483,5.483,0,0,1-2.533,3.757L526.4,603.28a13.363,13.363,0,0,0-5.369,6.506A707.36,707.36,0,0,0,533.693,534.5a13.371,13.371,0,0,0,2.922,8.622l24.658,30.948A5.518,5.518,0,0,1,562.424,578.449Z" transform="translate(-330.512 -310.887)" fill="#623365"/></g><path d="M394.495,412.47q18.353,0,29.178-11.415T434.5,370.179V314.1h-8.061v56.5q0,15.524-8.694,24.657-8.7,9.155-23.247,9.155t-23.247-9.155q-8.7-9.134-8.694-24.657V314.1H354.68v56.081q0,19.52,10.767,30.919Q376.221,412.455,394.495,412.47Zm76.866-82.207,62.213,74.2h6.248v-83.92H533.1v73.239l-61.436-73.239h-7.01v83.92h6.708Zm101.395,74.2h7.255v-83.92h-7.255Zm64.487,1.5,35.511-85.417h-7.14l-28.976,70.418-28.731-70.418h-7.37l35.626,85.417Zm101.971-7.14H699.5V364.637H737v-5.4H699.5V325.944h38.764v-5.4H692.791v83.92h46.422ZM773,364.162h6.9a46.886,46.886,0,0,1,10.753.921,12.5,12.5,0,0,1,5.873,3.153,51.345,51.345,0,0,1,4.549,5.6c1.929,2.634,4.2,5.959,6.852,9.989l13.357,20.642H828.9l-23.1-35.4a22.985,22.985,0,0,0-3.354-3.959,22.386,22.386,0,0,0-4.131-3.052q8.032-2.59,12.034-7.686,3.973-5.1,3.973-12.84,0-10.126-7.14-15.56c-4.75-3.628-11.6-5.427-20.512-5.427h-20.4v83.92H773Zm0-37.972h14.049q9.522,0,14.711,4.016c3.455,2.677,5.2,6.448,5.2,11.328a16.586,16.586,0,0,1-2.318,9.069,15.082,15.082,0,0,1-6.924,5.686,21.755,21.755,0,0,1-6.233,1.626,123.9,123.9,0,0,1-13.329.475H773Zm92.571,79.472q10.861,0,17.806-6.449a21.381,21.381,0,0,0,6.953-16.467,22.873,22.873,0,0,0-1.4-8.033,20.659,20.659,0,0,0-4.1-6.722c-2.606-2.908-7.788-5.959-15.561-9.112l-1.785-.72q-10.321-4.383-13.445-7.86a13,13,0,0,1-3.109-9,14.646,14.646,0,0,1,4.851-11.257,17.754,17.754,0,0,1,12.48-4.463,27.559,27.559,0,0,1,9.328,1.684,44.261,44.261,0,0,1,9.932,5.211v-7.5a41.035,41.035,0,0,0-9.414-4.174,34.837,34.837,0,0,0-9.6-1.339q-10.86,0-17.6,6.2a20.715,20.715,0,0,0-6.751,15.992q0,7.859,4.433,12.926,4.448,5.052,16.5,10.047,11.638,4.858,14.913,8.478a13.462,13.462,0,0,1,3.268,9.342q0,7.73-4.807,12.236t-13.013,4.491a26.342,26.342,0,0,1-10.292-2.246,51.328,51.328,0,0,1-11.242-6.866v8.147a45.721,45.721,0,0,0,10.839,5.585A32.853,32.853,0,0,0,865.567,405.661Zm59.2-85.115h-7.254v83.92h7.254Zm78.407,82.063a36.139,36.139,0,0,0,12.235-5.887,40.349,40.349,0,0,0,12.336-14.9,44.851,44.851,0,0,0,0-38.765,40.347,40.347,0,0,0-12.336-14.9,36.6,36.6,0,0,0-12.149-5.787,62.951,62.951,0,0,0-16.352-1.828H957.822v83.92h29.092A62.594,62.594,0,0,0,1003.179,402.609Zm-38.217-4.016V326.607h20.282a65.064,65.064,0,0,1,14.25,1.353,29.621,29.621,0,0,1,10.278,4.275,32.071,32.071,0,0,1,11.012,12.753,40.8,40.8,0,0,1,0,35.18,32.077,32.077,0,0,1-11.012,12.725,30.231,30.231,0,0,1-10.278,4.319,64.072,64.072,0,0,1-14.25,1.381Zm119.689-78.766h-2.706l-36.59,84.639h7.139l12.351-29.207h36.893l12.422,29.207h7.082Zm-17.46,49.733,16.136-38.1,16.079,38.1Zm118.955,33.05a36.206,36.206,0,0,0,12.25-5.887,40.445,40.445,0,0,0,12.321-14.9,44.847,44.847,0,0,0,0-38.765,40.443,40.443,0,0,0-12.321-14.9,36.8,36.8,0,0,0-12.163-5.787,63.064,63.064,0,0,0-16.338-1.828H1140.8v83.92H1169.9A62.474,62.474,0,0,0,1186.146,402.609Zm-38.2-4.016V326.607h20.268a64.976,64.976,0,0,1,14.25,1.353,29.7,29.7,0,0,1,10.292,4.275,32.155,32.155,0,0,1,11,12.753,40.8,40.8,0,0,1,0,35.18,32.161,32.161,0,0,1-11,12.725,30.312,30.312,0,0,1-10.292,4.319,63.986,63.986,0,0,1-14.25,1.381ZM380.992,527.51h63.739v-24.6H380.992V465.816H446.56v-24.3H354.651v148.81H448.7v-24.5H380.992Zm109.989-73.4H466.424V590.328h86.482V567.455H490.981Zm195.1,56.743a32,32,0,0,0,9.9-8.91c3.814-5.413,5.772-12.178,5.772-20.138,0-12.782-4.275-22.844-12.681-29.883-8.248-6.909-19.979-10.407-34.863-10.407H609.433v148.81h52.54c15.46,0,27.968-3.786,37.166-11.242,9.371-7.615,14.135-17.935,14.135-30.689,0-9.961-3.124-18.569-9.27-25.579A44.072,44.072,0,0,0,686.083,510.856Zm-50.308-44.838h16.4c7.946,0,13.7,1.382,17.1,4.116,3.238,2.606,4.822,6.823,4.822,12.9,0,6.722-2.073,11.515-6.319,14.682-4.462,3.311-11.63,4.995-21.3,4.995h-10.7Zm43.96,94.989c-4.016,3.066-10.724,4.621-19.907,4.621H635.775V527.51H656.56c10.307,0,17.864,1.641,22.456,4.894,4.289,3.052,6.391,7.831,6.391,14.567C685.407,553.507,683.55,558.1,679.735,561.006Zm164.875-88.454a70.745,70.745,0,0,0-23.376-15.2,76.205,76.205,0,0,0-55.52-.057,72.968,72.968,0,0,0-23.492,15.244,69.588,69.588,0,0,0-15.747,22.656,66.833,66.833,0,0,0-5.556,26.515,68.958,68.958,0,0,0,21.289,50.453,71.787,71.787,0,0,0,23.362,15.158,73.794,73.794,0,0,0,27.7,5.34,75.15,75.15,0,0,0,27.867-5.2,73.572,73.572,0,0,0,23.636-15.286,68.747,68.747,0,0,0,15.618-22.527,67.222,67.222,0,0,0,5.5-26.73,68,68,0,0,0-21.275-50.367Zm-8.2,67.6a46.371,46.371,0,0,1-10.091,15.013A44.92,44.92,0,0,1,811.3,565.31a48.268,48.268,0,0,1-35.972-.1,44.206,44.206,0,0,1-14.956-10.062,46.028,46.028,0,0,1-10.018-15,46.536,46.536,0,0,1-3.483-17.791,47.34,47.34,0,0,1,3.5-17.993,43.41,43.41,0,0,1,9.989-14.855,48.939,48.939,0,0,1,15.359-10.249,45.017,45.017,0,0,1,17.547-3.584,46.32,46.32,0,0,1,17.878,3.527,45.3,45.3,0,0,1,14.985,10.263,48.33,48.33,0,0,1,10.335,15.244,46.631,46.631,0,0,1-.057,35.439Zm84.5-30-2.735-1.641c-18.728-11.688-21.52-18.41-21.52-21.39a10.461,10.461,0,0,1,4.347-8.694c5.815-4.534,16.122-4.909,25.68-.806a67.472,67.472,0,0,1,15.1,9.572l4.981,4V461.972l-1.454-.907A66.7,66.7,0,0,0,929.825,454a55.028,55.028,0,0,0-15.7-2.317c-12.005,0-22.009,3.541-29.725,10.522-7.8,7.054-11.746,16.194-11.746,27.148a34.074,34.074,0,0,0,6.189,20.382c4.03,5.585,13.344,13.041,28.516,22.844,11.4,7.226,15.661,11.113,17.23,13.114a14.374,14.374,0,0,1,3.109,9.213,11.83,11.83,0,0,1-4.448,9.831c-3.124,2.548-7.615,3.829-13.315,3.829a31.936,31.936,0,0,1-15.661-4.073c-5.024-2.793-10.436-7.471-16.05-13.935l-5.383-6.175v34.187l1.108.921a56.062,56.062,0,0,0,17.216,10.019,60.276,60.276,0,0,0,19.979,3.153c11.947,0,21.923-3.541,29.667-10.508a34.783,34.783,0,0,0,11.8-26.889c0-9.284-2.1-17.259-6.262-23.65C942.218,525.25,933.913,518.24,920.9,510.151Zm168.228,55.044a64.254,64.254,0,0,0,15.128-42.276,70.842,70.842,0,0,0-44.666-65.567,76.165,76.165,0,0,0-55.5-.057,72.506,72.506,0,0,0-23.492,15.244,69.641,69.641,0,0,0-15.762,22.656,66.59,66.59,0,0,0-5.556,26.515c0,16.568,5.038,31.279,14.942,43.759,9.8,12.307,22.916,20.584,38.995,24.629,11.861,8.421,23.232,14.927,33.827,19.332,10.9,4.549,20.915,6.837,29.767,6.837,1.253,0,2.188-.015,2.792-.043a18.289,18.289,0,0,0,2.188-.288l.792-.158,19.907-17.287-2.432-6.363-2.533.49q-3.691.713-6.78,1.08a49.264,49.264,0,0,1-5.556.345,66.519,66.519,0,0,1-16.482-2.217,113.536,113.536,0,0,1-12.537-4.16C1069.7,582.741,1080.75,575.2,1089.128,565.195Zm-14.366-25.046a48.469,48.469,0,0,1-25.32,25.45,45.908,45.908,0,0,1-35.54-.129,47.086,47.086,0,0,1-15.158-10.321,45.615,45.615,0,0,1-10.033-15,46.547,46.547,0,0,1-3.483-17.791,47.618,47.618,0,0,1,3.483-17.993,43.447,43.447,0,0,1,10-14.855,49.1,49.1,0,0,1,15.359-10.249,45.125,45.125,0,0,1,17.547-3.584A46.376,46.376,0,0,1,1049.5,479.2a45.346,45.346,0,0,1,15,10.263,48.532,48.532,0,0,1,10.321,15.244,46.455,46.455,0,0,1-.058,35.439Zm135.826.072c0,8.665-3.023,15.445-9.227,20.714-6.29,5.311-14.783,8-25.262,8a42.573,42.573,0,0,1-16.755-3.109,33.3,33.3,0,0,1-12.494-9.27,19.66,19.66,0,0,1-3.9-7.83c-.835-3.2-1.252-8.881-1.252-16.884v-77.73h-24.658v78.464c0,10.666.734,18.425,2.217,23.722a39.537,39.537,0,0,0,7.672,14.567,56.243,56.243,0,0,0,21.232,16.28,68.883,68.883,0,0,0,27.939,5.513c17.36,0,31.668-4.808,42.55-14.294,11.012-9.572,16.582-22.225,16.582-37.6V454.113h-24.643Zm69.353,27.234v-34.4h58.11V510.079h-58.11V476.8h59.78V454.113h-84.337V590.328h86.295V567.455Z" transform="translate(133.947 48.367)" fill="#623365"/></g><line y1="1198" x2="1886" transform="translate(-175.5 -108.5)" fill="none" stroke="red" stroke-width="20"/></g></svg>