<svg xmlns="http://www.w3.org/2000/svg" xmlns:xlink="http://www.w3.org/1999/xlink" width="1648" height="420" viewBox="0 0 1648 420"><defs><clipPath id="b"><rect width="1648" height="420"/></clipPath></defs><g id="a" clip-path="url(#b)"><g transform="translate(-20.154 -536.17)"><rect width="1502.563" height="276.655" transform="translate(93.507 604.6)" stroke-dasharray="0 4" stroke="#7eaf00" stroke-linecap="round" stroke-miterlimit="10" stroke-width="3" fill="none"/><g transform="translate(1534.875 692.632)"><g transform="translate(0 45.122)"><line x2="61.195" transform="translate(0 5.174)" fill="none" stroke="#7eaf00" stroke-linecap="round" stroke-miterlimit="10" stroke-width="3"/><line y2="10.347" transform="translate(61.195)" fill="none" stroke="#7eaf00" stroke-linecap="round" stroke-miterlimit="10" stroke-width="3"/><line y2="10.347" fill="none" stroke="#7eaf00" stroke-linecap="round" stroke-miterlimit="10" stroke-width="3"/></g><text transform="translate(30.068 28)" fill="#7eaf00" font-size="30" font-family="AcherusGrotesque-Regular, Acherus Grotesque"><tspan x="-7.26" y="0">x</tspan></text></g><g transform="translate(93.507 692.632)"><g transform="translate(0 45.122)"><line x2="61.194" transform="translate(0 5.174)" fill="none" stroke="#7eaf00" stroke-linecap="round" stroke-miterlimit="10" stroke-width="3"/><line y2="10.347" transform="translate(61.194)" fill="none" stroke="#7eaf00" stroke-linecap="round" stroke-miterlimit="10" stroke-width="3"/><line y2="10.347" fill="none" stroke="#7eaf00" stroke-linecap="round" stroke-miterlimit="10" stroke-width="3"/></g><text transform="translate(30.068 28)" fill="#7eaf00" font-size="30" font-family="AcherusGrotesque-Regular, Acherus Grotesque"><tspan x="-7.26" y="0">x</tspan></text></g><g transform="translate(839.615 604.6)"><text transform="translate(17.321 37.22)" fill="#7eaf00" font-size="32" font-family="AcherusGrotesque-Regular, Acherus Grotesque"><tspan x="0" y="0">x</tspan></text><line y1="61.194" transform="translate(5.174)" fill="none" stroke="#7eaf00" stroke-linecap="round" stroke-miterlimit="10" stroke-width="3"/><line x2="10.349" fill="none" stroke="#7eaf00" stroke-linecap="round" stroke-miterlimit="10" stroke-width="3"/><line x2="10.349" transform="translate(0 61.194)" fill="none" stroke="#7eaf00" stroke-linecap="round" stroke-miterlimit="10" stroke-width="3"/></g><g transform="translate(839.615 820.061)"><text transform="translate(17.321 37.22)" fill="#7eaf00" font-size="32" font-family="AcherusGrotesque-Regular, Acherus Grotesque"><tspan x="0" y="0">x</tspan></text><line y1="61.194" transform="translate(5.174)" fill="none" stroke="#7eaf00" stroke-linecap="round" stroke-miterlimit="10" stroke-width="3"/><line x2="10.349" fill="none" stroke="#7eaf00" stroke-linecap="round" stroke-miterlimit="10" stroke-width="3"/><line x2="10.349" transform="translate(0 61.194)" fill="none" stroke="#7eaf00" stroke-linecap="round" stroke-miterlimit="10" stroke-width="3"/></g><rect width="1380.17" height="154.268" transform="translate(154.706 665.793)" stroke-dasharray="0 3.821" stroke="#7eaf00" stroke-linecap="round" stroke-miterlimit="10" stroke-width="3" fill="none"/><g transform="translate(154.705 665.797)"><path d="M231.8,652.358a2.316,2.316,0,0,0-1.505-.9,2.5,2.5,0,0,0-.327-.022,2.288,2.288,0,0,0-2.254,1.908l.011-.113a31.535,31.535,0,0,0-.117-7.892,2.3,2.3,0,0,0,2.239,1.836,2.48,2.48,0,0,0,.331-.026,2.289,2.289,0,0,0-.327-4.554,2.485,2.485,0,0,0-.327.026,2.29,2.29,0,0,0-1.949,2.469,29.646,29.646,0,0,0-2.22-7.628,2.269,2.269,0,0,0,1.234,1.091,2.25,2.25,0,0,0,1.75-.064,2.289,2.289,0,1,0-3.086-1.257,27.939,27.939,0,0,0-22.749-16.3c-3.383-.365-5.231.636-6.168,1.486-1.874,1.712-1.983,4.287-.3,6.492l17.909,22.726a5.518,5.518,0,0,1-.384,7.376l-16.75,16.747a5.519,5.519,0,0,0,0,7.8l11.5,11.508a2.269,2.269,0,0,1,.67,1.739,2.244,2.244,0,0,1-.862,1.648L195.4,708.619a5.469,5.469,0,0,0-1.961,3.195,295.416,295.416,0,0,0,1.754-32.15,294.27,294.27,0,0,0-2.469-38.073H181.556a294.935,294.935,0,0,1,2.465,38.073,291.542,291.542,0,0,1-13.01,86.359,293.643,293.643,0,0,1-10.541-124.432H149.3a295.689,295.689,0,0,0-.715,70.222,5.45,5.45,0,0,0-1.961-3.195l-12.716-10.157a2.257,2.257,0,0,1-.862-1.648,2.283,2.283,0,0,1,.67-1.739l11.5-11.508a5.51,5.51,0,0,0,0-7.8l-16.75-16.747a5.518,5.518,0,0,1-.38-7.376l17.906-22.726c1.686-2.205,1.577-4.78-.3-6.492-.937-.85-2.785-1.852-6.168-1.486a27.945,27.945,0,0,0-22.749,16.3,2.286,2.286,0,0,0-4.211-1.776,2.291,2.291,0,0,0,1.125,3.033,2.25,2.25,0,0,0,1.75.064,2.269,2.269,0,0,0,1.234-1.091,29.643,29.643,0,0,0-2.22,7.628,2.287,2.287,0,0,0-1.949-2.469,2.435,2.435,0,0,0-.327-.026,2.29,2.29,0,0,0-2.262,1.961,2.256,2.256,0,0,0,.429,1.7,2.292,2.292,0,0,0,1.505.9,2.53,2.53,0,0,0,.331.026,2.3,2.3,0,0,0,2.239-1.836,31.532,31.532,0,0,0-.117,7.892l.011.113a2.287,2.287,0,0,0-2.25-1.908,2.419,2.419,0,0,0-.327.022,2.3,2.3,0,0,0-1.505.9,2.248,2.248,0,0,0-.433,1.7,2.283,2.283,0,0,0,2.258,1.961,2.517,2.517,0,0,0,.331-.022,2.29,2.29,0,0,0,1.957-2.394,25.125,25.125,0,0,0,1.991,7.654,2.243,2.243,0,1,0,.1.211,13.61,13.61,0,0,0,3.312,4.426l1.524,1.524a2.283,2.283,0,1,0,.177.177l6,6a2.291,2.291,0,0,0-3.142.09,2.287,2.287,0,1,0,3.323.09l5.89,5.889-5.886,5.89a2.291,2.291,0,1,0-1.709.764,2.268,2.268,0,0,0,1.52-.58l-5.995,5.995a2.287,2.287,0,0,0-.09-3.139,2.287,2.287,0,1,0-1.618,3.906,2.3,2.3,0,0,0,1.524-.58l-1.524,1.524a5.508,5.508,0,0,0,.463,8.208l1.69,1.347a2.252,2.252,0,0,0-1.325-.429c-.087,0-.173.008-.26.015a2.3,2.3,0,0,0-2.017,2.533,2.291,2.291,0,0,0,2.269,2.028,2.013,2.013,0,0,0,.26-.015,2.287,2.287,0,0,0,1.268-3.978l6.631,5.291A2.287,2.287,0,1,0,127.4,712.6q.13,0,.26-.011a2.268,2.268,0,0,0,1.532-.847,2.291,2.291,0,0,0-.263-3.131l6.51,5.193-5.2,6.514a2.288,2.288,0,0,0-2.119-3.6,2.289,2.289,0,0,0-1.532.851,2.254,2.254,0,0,0-.482,1.678,2.275,2.275,0,0,0,2.265,2.032,1.971,1.971,0,0,0,.26-.015,2.233,2.233,0,0,0,1.453-.752l-5.295,6.642a2.247,2.247,0,1,0-.154.2l-1.347,1.69a5.509,5.509,0,0,0,1.377,8.1l1.825,1.148a2.289,2.289,0,0,0-3.338,2.514,2.264,2.264,0,0,0,1.012,1.423,2.242,2.242,0,0,0,1.216.35,2.282,2.282,0,0,0,2.232-2.792,2.253,2.253,0,0,0-.9-1.355l7.18,4.512a2.293,2.293,0,0,0-1.614-.229,2.29,2.29,0,0,0-.707,4.17,2.288,2.288,0,0,0,1.212.35,2.357,2.357,0,0,0,.512-.057,2.289,2.289,0,0,0,.817-4.1l7.052,4.433-4.444,7.075a2.281,2.281,0,1,0-1.995,1.159,2.372,2.372,0,0,0,.512-.056,2.294,2.294,0,0,0,1.37-.926l-2.879,4.58a5.513,5.513,0,1,0,9.337,5.867l10.372-16.5a5.49,5.49,0,0,0,.828-3.364,290.32,290.32,0,0,0,8.55,29.782h16.408a290.32,290.32,0,0,0,8.55-29.782,5.49,5.49,0,0,0,.828,3.364l10.372,16.5a5.513,5.513,0,0,0,9.337-5.867l-2.879-4.58a2.294,2.294,0,0,0,1.37.926,2.372,2.372,0,0,0,.512.056,2.286,2.286,0,0,0,.5-4.516,2.285,2.285,0,0,0-2.5,3.357l-4.448-7.075,7.056-4.433a2.288,2.288,0,0,0,.813,4.1,2.357,2.357,0,0,0,.512.057,2.284,2.284,0,0,0,2.228-1.78,2.276,2.276,0,0,0-.3-1.724,2.253,2.253,0,0,0-1.426-1.016,2.293,2.293,0,0,0-1.614.229l7.184-4.512a2.259,2.259,0,0,0-.907,1.355,2.282,2.282,0,0,0,2.232,2.792,2.286,2.286,0,0,0,2.228-1.772,2.289,2.289,0,0,0-3.338-2.514l1.825-1.148a5.509,5.509,0,0,0,1.377-8.1l-1.344-1.69a2.277,2.277,0,1,0-.158-.2l-5.295-6.642a2.233,2.233,0,0,0,1.453.752,1.971,1.971,0,0,0,.26.015,2.288,2.288,0,0,0,.252-4.561,2.288,2.288,0,0,0-2.119,3.6l-5.2-6.514,6.51-5.193a2.291,2.291,0,0,0-.263,3.131,2.268,2.268,0,0,0,1.532.847q.135.011.26.011a2.282,2.282,0,0,0,2.269-2.029,2.249,2.249,0,0,0-.485-1.682,2.287,2.287,0,0,0-3.108-.44l6.635-5.291a2.284,2.284,0,0,0,1.264,3.978,2.052,2.052,0,0,0,.26.015,2.288,2.288,0,0,0,.252-4.561c-.087-.008-.173-.015-.26-.015a2.232,2.232,0,0,0-1.321.429l1.686-1.347a5.508,5.508,0,0,0,.463-8.208l-1.524-1.524a2.311,2.311,0,1,0-.184-.188l-5.995-5.995a2.264,2.264,0,1,0-.188-.184l-5.886-5.89,5.89-5.889a2.287,2.287,0,0,0,1.7,3.812,2.286,2.286,0,1,0-1.524-3.993l6-6a2.312,2.312,0,1,0,.181-.177l1.524-1.524a13.667,13.667,0,0,0,3.308-4.426,2.306,2.306,0,1,0,.1-.211,25.127,25.127,0,0,0,1.991-7.654,2.29,2.29,0,0,0,1.957,2.394,2.518,2.518,0,0,0,.331.022,2.282,2.282,0,0,0,1.366-.456,2.295,2.295,0,0,0,.463-3.2ZM212.215,630.4a2.284,2.284,0,1,1,0-3.229A2.281,2.281,0,0,1,212.215,630.4Zm-82.4-3.229a2.283,2.283,0,1,1,0,3.229A2.282,2.282,0,0,1,129.811,627.171ZM151.695,741.1l-13.774-8.667a2.263,2.263,0,0,1-.568-3.346l10.142-12.727a5.465,5.465,0,0,0,1.2-3.541,290.9,290.9,0,0,0,5.208,30.957A5.481,5.481,0,0,0,151.695,741.1Zm53.446-10.21a2.269,2.269,0,0,1-1.039,1.543L190.328,741.1a5.454,5.454,0,0,0-2.205,2.676,291.866,291.866,0,0,0,5.2-30.957,5.486,5.486,0,0,0,1.2,3.541l10.142,12.727A2.261,2.261,0,0,1,205.141,730.894Z" transform="translate(-109.769 -620.861)" fill="#ff893b"/><path d="M221.114,678.589l-25.263-30.121h-2.886v34.513h2.762V652.464l25.583,30.516h2.567V648.468h-2.762Zm16.306,4.392H240.4V648.468H237.42Zm26.275-5.547-11.817-28.966h-3.033L263.5,683.6h.444l14.605-35.134h-2.935ZM289.548,666.6h15.418v-2.22H289.548V650.688h15.937v-2.22h-18.7v34.513h19.095v-2.318H289.548Zm42.333.2a9.336,9.336,0,0,0-1.7-1.257,9.913,9.913,0,0,0,4.945-3.157,8.3,8.3,0,0,0,1.641-5.28,7.561,7.561,0,0,0-2.935-6.4q-2.935-2.235-8.437-2.235h-8.388v34.513h2.762V666.4h2.838a19.113,19.113,0,0,1,4.418.384,5.124,5.124,0,0,1,2.416,1.294,22.075,22.075,0,0,1,1.874,2.307Q332.5,672,334.128,674.5l5.5,8.482h3.131l-9.5-14.552A9.543,9.543,0,0,0,331.881,666.8Zm-4.516-2.958a50.411,50.411,0,0,1-5.476.2h-2.122V650.79h5.773a9.7,9.7,0,0,1,6.059,1.652,5.568,5.568,0,0,1,2.134,4.663,6.868,6.868,0,0,1-.952,3.726,6.227,6.227,0,0,1-2.849,2.344A9.209,9.209,0,0,1,327.366,663.841Zm38.389,4.143q-1.6-1.8-6.39-3.748c-.327-.135-.576-.233-.741-.3q-4.239-1.8-5.524-3.229a5.348,5.348,0,0,1-1.283-3.7,6.012,6.012,0,0,1,2-4.625,7.282,7.282,0,0,1,5.133-1.84,11.4,11.4,0,0,1,3.835.692,18.275,18.275,0,0,1,4.083,2.145V650.3a16.41,16.41,0,0,0-3.872-1.716,14.228,14.228,0,0,0-3.948-.557,10.276,10.276,0,0,0-7.241,2.555,8.527,8.527,0,0,0-2.777,6.574,7.793,7.793,0,0,0,1.825,5.318q1.829,2.083,6.785,4.132,4.787,1.993,6.13,3.492a5.507,5.507,0,0,1,1.347,3.835,6.559,6.559,0,0,1-1.976,5.032,7.512,7.512,0,0,1-5.351,1.852,10.821,10.821,0,0,1-4.234-.926,21.125,21.125,0,0,1-4.625-2.826v3.357a18.923,18.923,0,0,0,4.452,2.292,13.477,13.477,0,0,0,4.452.764,10.351,10.351,0,0,0,7.327-2.649,8.812,8.812,0,0,0,2.864-6.774,9.431,9.431,0,0,0-.58-3.3A8.437,8.437,0,0,0,365.755,667.984Zm13.446,15h2.984V648.468H379.2Zm40.263-31.375a14.9,14.9,0,0,0-5-2.382,25.876,25.876,0,0,0-6.721-.756H395.778v34.513h11.967a25.6,25.6,0,0,0,6.684-.764,14.838,14.838,0,0,0,5.035-2.416,16.543,16.543,0,0,0,5.069-6.13,18.411,18.411,0,0,0,0-15.937A16.5,16.5,0,0,0,419.464,651.606Zm2.205,21.387a13.227,13.227,0,0,1-4.527,5.231,12.347,12.347,0,0,1-4.23,1.772,26.223,26.223,0,0,1-5.859.568h-8.339v-29.6h8.339a26.984,26.984,0,0,1,5.859.553,12.269,12.269,0,0,1,4.23,1.765,13.182,13.182,0,0,1,4.527,5.242,16.771,16.771,0,0,1,0,14.47Zm25.154-24.819-15.049,34.806h2.935l5.084-12.012h15.17l5.107,12.012h2.909l-15.046-34.806Zm-6.07,20.449,6.638-15.663L454,668.624Zm53.954-17.018a14.878,14.878,0,0,0-4.994-2.382,25.908,25.908,0,0,0-6.725-.756H471.024v34.513h11.963a25.65,25.65,0,0,0,6.687-.764,14.819,14.819,0,0,0,5.031-2.416,16.543,16.543,0,0,0,5.069-6.13,18.411,18.411,0,0,0,0-15.937A16.5,16.5,0,0,0,494.706,651.606Zm2.209,21.387a13.257,13.257,0,0,1-4.527,5.231,12.411,12.411,0,0,1-4.23,1.772,26.223,26.223,0,0,1-5.859.568H473.96v-29.6H482.3a26.984,26.984,0,0,1,5.859.553,12.331,12.331,0,0,1,4.23,1.765,13.211,13.211,0,0,1,4.527,5.242,16.772,16.772,0,0,1,0,14.47Zm38.75-5.088h26.211V657.786H535.666V642.529h26.968v-9.991h-37.8v61.2h38.679V683.662H535.666ZM580.9,637.716H570.8v56.02h35.563v-9.408H580.9Zm80.233,23.336a13.1,13.1,0,0,0,4.076-3.661,14.034,14.034,0,0,0,2.371-8.283c0-5.257-1.754-9.393-5.212-12.291-3.395-2.837-8.215-4.279-14.338-4.279H629.612v61.2h21.6c6.364,0,11.508-1.554,15.286-4.621a16.519,16.519,0,0,0,2-23.141A18.179,18.179,0,0,0,661.129,661.052Zm-20.687-18.436h6.747c3.267,0,5.63.568,7.03,1.69,1.332,1.073,1.979,2.807,1.979,5.306,0,2.762-.847,4.734-2.593,6.032-1.836,1.366-4.787,2.059-8.765,2.059h-4.4Zm18.079,39.063c-1.652,1.261-4.407,1.9-8.185,1.9h-9.894V667.905h8.55c4.241,0,7.346.674,9.228,2.01,1.773,1.257,2.634,3.218,2.634,5.995C660.854,678.593,660.091,680.478,658.521,681.679Zm67.8-36.376a29,29,0,0,0-9.611-6.255,31.323,31.323,0,0,0-22.828-.019,29.95,29.95,0,0,0-9.66,6.266,28.7,28.7,0,0,0-6.477,9.318,27.345,27.345,0,0,0-2.284,10.9,28.29,28.29,0,0,0,8.757,20.751,29.509,29.509,0,0,0,9.6,6.232,30.361,30.361,0,0,0,11.391,2.194,30.867,30.867,0,0,0,11.455-2.134,30.284,30.284,0,0,0,9.724-6.288,28.321,28.321,0,0,0,6.42-9.258,27.735,27.735,0,0,0,2.262-11A27.95,27.95,0,0,0,726.32,645.3Zm-3.368,27.8a18.989,18.989,0,0,1-4.151,6.175,18.5,18.5,0,0,1-6.175,4.174,19.852,19.852,0,0,1-14.793-.037,18.154,18.154,0,0,1-6.145-4.14,18.839,18.839,0,0,1-4.121-6.168,19.083,19.083,0,0,1-1.434-7.32,19.492,19.492,0,0,1,1.434-7.4,17.916,17.916,0,0,1,4.109-6.112,20.335,20.335,0,0,1,6.318-4.215,18.542,18.542,0,0,1,7.218-1.468,19.045,19.045,0,0,1,7.35,1.449,18.617,18.617,0,0,1,6.164,4.215,19.905,19.905,0,0,1,4.245,6.273,18.649,18.649,0,0,1,1.434,7.256A18.853,18.853,0,0,1,722.952,673.1Zm34.75-12.336-1.129-.677c-7.7-4.8-8.851-7.568-8.851-8.795a4.327,4.327,0,0,1,1.788-3.575c2.394-1.863,6.627-2.017,10.56-.331a27.993,27.993,0,0,1,6.209,3.937l2.055,1.652V640.949l-.606-.369a27.1,27.1,0,0,0-6.356-2.905,22.52,22.52,0,0,0-6.462-.956,17.612,17.612,0,0,0-12.223,4.324,14.449,14.449,0,0,0-4.832,11.166,14.017,14.017,0,0,0,2.551,8.385c1.652,2.3,5.483,5.363,11.723,9.393,4.689,2.973,6.439,4.572,7.082,5.393a5.888,5.888,0,0,1,1.28,3.79,4.888,4.888,0,0,1-1.825,4.046,8.547,8.547,0,0,1-5.476,1.573,13.121,13.121,0,0,1-6.443-1.675,26.025,26.025,0,0,1-6.6-5.731l-2.216-2.544V688.9l.455.376a23.05,23.05,0,0,0,7.079,4.121,24.727,24.727,0,0,0,8.219,1.295,17.619,17.619,0,0,0,12.2-4.32,14.293,14.293,0,0,0,4.854-11.053,17.591,17.591,0,0,0-2.574-9.732C766.467,666.976,763.05,664.089,757.7,660.762ZM826.878,683.4a26.411,26.411,0,0,0,6.217-17.383,29.137,29.137,0,0,0-18.361-26.968,31.323,31.323,0,0,0-22.828-.019,29.87,29.87,0,0,0-9.66,6.266,28.649,28.649,0,0,0-6.48,9.318,27.411,27.411,0,0,0-2.284,10.9,28.181,28.181,0,0,0,6.146,17.992,28.955,28.955,0,0,0,16.035,10.135,73.312,73.312,0,0,0,13.909,7.952,32.389,32.389,0,0,0,12.246,2.811c.516,0,.9-.008,1.144-.022a6.294,6.294,0,0,0,.9-.117l.327-.064,8.189-7.109-1-2.619-1.042.2c-1.012.2-1.942.346-2.792.444a20.322,20.322,0,0,1-2.284.143,27.244,27.244,0,0,1-6.774-.914,46.748,46.748,0,0,1-5.16-1.709A31.218,31.218,0,0,0,826.878,683.4Zm-5.9-10.3a19.042,19.042,0,0,1-4.147,6.175,19.319,19.319,0,0,1-6.266,4.294,18.881,18.881,0,0,1-14.616-.057,19.405,19.405,0,0,1-6.232-4.241,18.793,18.793,0,0,1-4.125-6.168,19.083,19.083,0,0,1-1.434-7.32,19.563,19.563,0,0,1,1.434-7.4,17.974,17.974,0,0,1,4.11-6.112,20.424,20.424,0,0,1,6.318-4.215,18.557,18.557,0,0,1,7.218-1.468,19.031,19.031,0,0,1,7.35,1.449,18.617,18.617,0,0,1,6.164,4.215A19.855,19.855,0,0,1,821,658.527a19.136,19.136,0,0,1-.022,14.572Zm55.854.026a10.523,10.523,0,0,1-3.8,8.52c-2.582,2.187-6.074,3.293-10.387,3.293a17.53,17.53,0,0,1-6.887-1.276,13.709,13.709,0,0,1-5.141-3.812,8.178,8.178,0,0,1-1.607-3.218,32.126,32.126,0,0,1-.512-6.947V637.716H838.36V669.99a38.273,38.273,0,0,0,.911,9.75,16.246,16.246,0,0,0,3.157,5.995,23.161,23.161,0,0,0,8.731,6.691,28.286,28.286,0,0,0,11.485,2.266c7.139,0,13.028-1.976,17.5-5.875a19.616,19.616,0,0,0,6.815-15.463V637.716H876.828Zm28.522,11.2V670.182h23.9v-9.446h-23.9V647.049h24.585v-9.333H895.253v56.02h35.484v-9.408Zm-728.1-15.595q0,6.385-3.575,10.142a14.037,14.037,0,0,1-19.121,0q-3.573-3.754-3.575-10.142V645.5h-3.233v23.065q0,8.027,4.426,12.708t11.941,4.682q7.553,0,12-4.7t4.456-12.693V645.5h-3.319Z" transform="translate(-4.833 -588.596)" fill="#394024"/></g><rect width="10.098" height="81.53" transform="translate(1136.76 702.163)" fill="#394024"/><path d="M4.888-8.138h9.386c.338,0,.468-.1.468-.442v-1.2c0-.338-.1-.442-.468-.442H4.888v-5.876h9.62c.338,0,.468-.13.468-.468v-1.17c0-.338-.1-.468-.468-.468H2.912c-.338,0-.442.13-.442.468V-.442c0,.338.1.442.442.442H4.446c.338,0,.442-.1.442-.442ZM18.772-11.1a19.145,19.145,0,0,1,3.952-.416c2.626,0,3.458,1.118,3.458,4.108A12.038,12.038,0,0,0,22.1-8.242c-3.068,0-5.226,1.378-5.226,4.212S19.032.286,21.476.286a6.391,6.391,0,0,0,5.1-2.314L26.7-.442c.1.338.208.442.468.442h.858c.338,0,.442-.1.442-.442V-7.254c0-4.238-1.092-6.266-5.668-6.266a24.431,24.431,0,0,0-4.5.494c-.338.078-.39.234-.312.572l.234.91C18.33-11.18,18.408-11.05,18.772-11.1Zm3.822,4.55a8.952,8.952,0,0,1,3.588.832v2a5.329,5.329,0,0,1-4,2.236c-2,0-3.042-1.144-3.042-2.548C19.136-5.616,20.28-6.552,22.594-6.552ZM38.3-1.768A4.678,4.678,0,0,1,33.722-6.6,4.694,4.694,0,0,1,38.3-11.44,4.817,4.817,0,0,1,41.7-10.114c.26.234.416.182.65-.078l.728-.78c.208-.26.234-.39.026-.6a6.763,6.763,0,0,0-4.81-1.95A6.88,6.88,0,0,0,31.46-6.6,6.858,6.858,0,0,0,38.3.286a6.655,6.655,0,0,0,4.81-1.95c.208-.208.182-.312-.026-.572l-.728-.806c-.234-.234-.39-.312-.65-.078A4.839,4.839,0,0,1,38.3-1.768ZM55.8-.442c.13.312.234.442.494.442h.754c.312,0,.442-.1.442-.442V-12.766c0-.364-.13-.468-.442-.468h-1.4c-.338,0-.442.13-.442.468v6.448c0,2.548-1.3,4.55-3.458,4.55-2,0-3.38-1.43-3.38-4.394v-6.6c0-.364-.13-.468-.442-.468h-1.4c-.338,0-.442.13-.442.468v7.15c0,4.264,2.314,5.9,5.1,5.9a5.12,5.12,0,0,0,4.368-2.834Zm6.708,0c0,.338.1.442.468.442H64.35c.338,0,.442-.1.442-.442V-18.72c0-.338-.078-.468-.442-.468H62.972c-.364,0-.468.1-.468.468Zm14.846.1c.26-.156.286-.26.208-.572L77.376-1.9c-.1-.416-.182-.442-.572-.234a3.305,3.305,0,0,1-1.716.364c-1.924,0-2.782-1.066-2.782-3.874v-5.72h4.446c.364,0,.468-.1.468-.468v-.936c0-.364-.13-.468-.468-.468H72.306V-15.86c0-.364-.1-.468-.468-.468H70.486c-.364,0-.468.13-.468.468v2.626h-1.17c-.338,0-.442.1-.442.468v.936c0,.364.1.468.442.468h1.17v5.876c0,3.614,1.4,5.772,4.836,5.772A4.864,4.864,0,0,0,77.35-.338ZM81.822-11.1a19.145,19.145,0,0,1,3.952-.416c2.626,0,3.458,1.118,3.458,4.108a12.038,12.038,0,0,0-4.082-.832c-3.068,0-5.226,1.378-5.226,4.212S82.082.286,84.526.286a6.391,6.391,0,0,0,5.1-2.314l.13,1.586c.1.338.208.442.468.442h.858c.338,0,.442-.1.442-.442V-7.254c0-4.238-1.092-6.266-5.668-6.266a24.431,24.431,0,0,0-4.5.494c-.338.078-.39.234-.312.572l.234.91C81.38-11.18,81.458-11.05,81.822-11.1Zm3.822,4.55a8.952,8.952,0,0,1,3.588.832v2a5.329,5.329,0,0,1-4,2.236c-2,0-3.042-1.144-3.042-2.548C82.186-5.616,83.33-6.552,85.644-6.552Zm19.526-4.134a5.228,5.228,0,0,0-4.654-2.834C96.9-13.52,94.51-10.4,94.51-6.6c0,3.744,2.392,6.89,6.006,6.89a5.937,5.937,0,0,0,5.018-2.912l.26,2.184c.156.312.26.442.52.442h.7c.338,0,.442-.1.442-.442V-18.72c0-.364-.1-.468-.442-.468h-1.4c-.338,0-.442.13-.442.468Zm-4.186,8.944C98.462-1.742,96.8-3.874,96.8-6.6c0-2.574,1.664-4.836,4.186-4.836,2.548,0,4.212,2.34,4.212,4.836S103.532-1.742,100.984-1.742Zm27.248-8.944a5.228,5.228,0,0,0-4.654-2.834c-3.614,0-6.006,3.12-6.006,6.916,0,3.744,2.392,6.89,6.006,6.89A5.937,5.937,0,0,0,128.6-2.626l.26,2.184c.156.312.26.442.52.442h.7c.338,0,.442-.1.442-.442V-18.72c0-.364-.1-.468-.442-.468h-1.4c-.338,0-.442.13-.442.468Zm-4.186,8.944c-2.522,0-4.186-2.132-4.186-4.862,0-2.574,1.664-4.836,4.186-4.836,2.548,0,4.212,2.34,4.212,4.836S126.594-1.742,124.046-1.742ZM145.652-2.86c-.208-.26-.338-.208-.65-.026a7.206,7.206,0,0,1-3.9,1.2,4.708,4.708,0,0,1-4.68-4.134H146.9c.364,0,.416-.13.416-.468,0-3.9-2.314-7.228-6.422-7.228A6.88,6.88,0,0,0,134.056-6.6a6.886,6.886,0,0,0,6.968,6.89,7.866,7.866,0,0,0,5.252-1.82c.208-.208.182-.364-.026-.624Zm-9.178-4.524a4.438,4.438,0,0,1,4.368-4.212,4.262,4.262,0,0,1,4.134,4.212ZM169.416,0c.364,0,.468-.1.468-.442v-1.2c0-.338-.1-.442-.468-.442H159.77V-8.138H169c.338,0,.442-.1.442-.442v-1.2c0-.338-.1-.442-.442-.442h-9.23v-5.876h9.646c.338,0,.468-.13.468-.468v-1.17c0-.338-.13-.468-.468-.468h-11.6c-.338,0-.468.13-.468.468V-.442c0,.338.1.442.468.442Zm6.214-12.766c-.156-.338-.26-.468-.52-.468h-.728c-.338,0-.442.1-.442.468V-.442c0,.338.1.442.442.442h1.4c.338,0,.442-.1.442-.442V-6.916c0-2.548,1.3-4.524,3.432-4.524,2.028,0,3.406,1.4,3.406,4.394v6.6c0,.338.1.442.442.442h1.4c.338,0,.442-.1.442-.442V-7.618c0-4.264-2.314-5.9-5.122-5.9a5.092,5.092,0,0,0-4.342,2.86Zm14.534-.416h-1.82c-.364,0-.468.1-.468.468v.936c0,.364.13.468.468.468h1.82V-.442c0,.338.078.442.442.442h1.378c.338,0,.442-.1.442-.442V-11.31H196.9c.338,0,.442-.1.442-.468v-.936c0-.364-.1-.468-.442-.468h-4.472v-.676c0-2.808.884-3.848,2.782-3.848a3.665,3.665,0,0,1,1.534.26c.39.182.468.182.572-.234l.182-.988c.078-.312.052-.416-.208-.572a4.935,4.935,0,0,0-2.314-.546c-3.432,0-4.81,2.158-4.81,5.8ZM210.34-2.86c-.208-.26-.338-.208-.65-.026a7.206,7.206,0,0,1-3.9,1.2,4.708,4.708,0,0,1-4.68-4.134h10.478c.364,0,.416-.13.416-.468,0-3.9-2.314-7.228-6.422-7.228A6.88,6.88,0,0,0,198.744-6.6a6.886,6.886,0,0,0,6.968,6.89,7.866,7.866,0,0,0,5.252-1.82c.208-.208.182-.364-.026-.624Zm-9.178-4.524A4.438,4.438,0,0,1,205.53-11.6a4.262,4.262,0,0,1,4.134,4.212Zm21.424-3.874c.338,0,.442-.078.52-.416l.208-1.43c.052-.286,0-.416-.416-.416a5.271,5.271,0,0,0-5.278,3.172l-.39-2.418c-.156-.338-.26-.468-.52-.468h-.728c-.338,0-.442.1-.442.468V-.442c0,.338.1.442.442.442h1.4c.338,0,.442-.1.442-.442V-6.708A4.4,4.4,0,0,1,222.586-11.258Zm13.988.728a4.714,4.714,0,0,0-4.368-2.99,4.647,4.647,0,0,0-4.082,2.912l-.26-2.158c-.13-.338-.234-.468-.494-.468h-.754c-.312,0-.442.1-.442.468V-.442c0,.338.13.442.442.442h1.4c.338,0,.442-.1.442-.442V-6.916c0-2.678,1.17-4.524,3.2-4.524s3.2,1.716,3.2,4.394v6.6c0,.338.1.442.442.442h1.4c.338,0,.442-.1.442-.442v-6.6c0-2.756,1.3-4.394,3.172-4.394,1.794,0,3.2,1.4,3.2,4.394v6.6c0,.338.1.442.442.442h1.4c.338,0,.442-.1.442-.442V-7.618c0-4.264-2.288-5.9-4.94-5.9A4.989,4.989,0,0,0,236.574-10.53Zm23.764,7.67c-.208-.26-.338-.208-.65-.026a7.206,7.206,0,0,1-3.9,1.2,4.708,4.708,0,0,1-4.68-4.134h10.478c.364,0,.416-.13.416-.468,0-3.9-2.314-7.228-6.422-7.228A6.88,6.88,0,0,0,248.742-6.6,6.886,6.886,0,0,0,255.71.286a7.866,7.866,0,0,0,5.252-1.82c.208-.208.182-.364-.026-.624ZM251.16-7.384a4.438,4.438,0,0,1,4.368-4.212,4.262,4.262,0,0,1,4.134,4.212Zm21.424-3.874c.338,0,.442-.078.52-.416l.208-1.43c.052-.286,0-.416-.416-.416a5.271,5.271,0,0,0-5.278,3.172l-.39-2.418c-.156-.338-.26-.468-.52-.468h-.728c-.338,0-.442.1-.442.468V-.442c0,.338.1.442.442.442h1.4c.338,0,.442-.1.442-.442V-6.708A4.4,4.4,0,0,1,272.584-11.258ZM276.458-.442c0,.338.1.442.468.442H278.3c.338,0,.442-.1.442-.442V-12.766c0-.338-.078-.468-.442-.468h-1.378c-.364,0-.468.1-.468.468Zm4.368-16.874c.26-.208.26-.338.13-.6l-.572-.91c-.182-.286-.416-.364-.624-.1L276.536-15.5c-.338.364-.234.52.052.52h1.248a1.067,1.067,0,0,0,.728-.286Zm3.926,6.214a19.145,19.145,0,0,1,3.952-.416c2.626,0,3.458,1.118,3.458,4.108a12.038,12.038,0,0,0-4.082-.832c-3.068,0-5.226,1.378-5.226,4.212s2.158,4.316,4.6,4.316a6.391,6.391,0,0,0,5.1-2.314l.13,1.586c.1.338.208.442.468.442h.858c.338,0,.442-.1.442-.442V-7.254c0-4.238-1.092-6.266-5.668-6.266a24.43,24.43,0,0,0-4.5.494c-.338.078-.39.234-.312.572l.234.91C284.31-11.18,284.388-11.05,284.752-11.1Zm3.822,4.55a8.952,8.952,0,0,1,3.588.832v2a5.329,5.329,0,0,1-4,2.236c-2,0-3.042-1.144-3.042-2.548C285.116-5.616,286.26-6.552,288.574-6.552Z" transform="translate(1200.326 751.819)" fill="#394024"/></g></g></svg>