<svg xmlns="http://www.w3.org/2000/svg" xmlns:xlink="http://www.w3.org/1999/xlink" width="1648" height="964" viewBox="0 0 1648 964"><defs><clipPath id="b"><rect width="1648" height="964"/></clipPath></defs><g id="a" clip-path="url(#b)"><g transform="translate(-16.145 -407.687)"><rect width="1493.588" height="855.747" transform="translate(93.507 462.626)" stroke-dasharray="0 4" stroke="#7eaf00" stroke-linecap="round" stroke-miterlimit="10" stroke-width="3" fill="none"/><g transform="translate(833.309 462.626)"><text transform="translate(26.295 53.344)" fill="#7eaf00" font-size="46" font-family="AcherusGrotesque-Regular, Acherus Grotesque"><tspan x="0" y="0">x</tspan></text><line y1="82.703" transform="translate(6.993)" fill="none" stroke="#7eaf00" stroke-linecap="round" stroke-miterlimit="10" stroke-width="3"/><line x2="13.985" fill="none" stroke="#7eaf00" stroke-linecap="round" stroke-miterlimit="10" stroke-width="3"/><line x2="13.985" transform="translate(0 82.704)" fill="none" stroke="#7eaf00" stroke-linecap="round" stroke-miterlimit="10" stroke-width="3"/></g><g transform="translate(833.309 1235.669)"><text transform="translate(26.295 53.346)" fill="#7eaf00" font-size="46" font-family="AcherusGrotesque-Regular, Acherus Grotesque"><tspan x="0" y="0">x</tspan></text><line y1="82.704" transform="translate(6.993)" fill="none" stroke="#7eaf00" stroke-linecap="round" stroke-miterlimit="10" stroke-width="3"/><line x2="13.985" fill="none" stroke="#7eaf00" stroke-linecap="round" stroke-miterlimit="10" stroke-width="3"/><line x2="13.985" transform="translate(0 82.704)" fill="none" stroke="#7eaf00" stroke-linecap="round" stroke-miterlimit="10" stroke-width="3"/></g><g transform="translate(1504.399 821.251)"><g transform="translate(0 62.256)"><line x2="82.703" transform="translate(0 6.991)" fill="none" stroke="#7eaf00" stroke-linecap="round" stroke-miterlimit="10" stroke-width="3"/><line y2="13.985" transform="translate(82.703)" fill="none" stroke="#7eaf00" stroke-linecap="round" stroke-miterlimit="10" stroke-width="3"/><line y2="13.985" fill="none" stroke="#7eaf00" stroke-linecap="round" stroke-miterlimit="10" stroke-width="3"/></g><text transform="translate(40.824 28)" fill="#7eaf00" font-size="30" font-family="AcherusGrotesque-Regular, Acherus Grotesque"><tspan x="-7.26" y="0">x</tspan></text></g><g transform="translate(93.507 821.251)"><g transform="translate(0 62.256)"><line x2="82.704" transform="translate(0 6.991)" fill="none" stroke="#7eaf00" stroke-linecap="round" stroke-miterlimit="10" stroke-width="3"/><line y2="13.985" transform="translate(82.704)" fill="none" stroke="#7eaf00" stroke-linecap="round" stroke-miterlimit="10" stroke-width="3"/><line y2="13.985" fill="none" stroke="#7eaf00" stroke-linecap="round" stroke-miterlimit="10" stroke-width="3"/></g><text transform="translate(40.825 28)" fill="#7eaf00" font-size="30" font-family="AcherusGrotesque-Regular, Acherus Grotesque"><tspan x="-7.26" y="0">x</tspan></text></g><rect width="1328.196" height="690.35" transform="translate(176.203 545.319)" stroke-dasharray="0 4" stroke="#7eaf00" stroke-linecap="round" stroke-miterlimit="10" stroke-width="3" fill="none"/><g transform="translate(176.204 545.32)"><g transform="translate(526.055)"><path d="M449.394,544.6a5.126,5.126,0,0,0-3.389-2.011,4.943,4.943,0,0,0-.738-.052,5.166,5.166,0,0,0-5.083,4.3l.03-.263a71.412,71.412,0,0,0-.264-17.781,5.151,5.151,0,0,0,1.966,3.1,5.1,5.1,0,0,0,3.08,1.024,4.961,4.961,0,0,0,.745-.045A5.159,5.159,0,0,0,445,522.608a4.847,4.847,0,0,0-.731.053,5.17,5.17,0,0,0-4.406,5.566,66.539,66.539,0,0,0-5-17.2,5.159,5.159,0,0,0,4.579,2.794,5.2,5.2,0,0,0,2.146-.467,5.156,5.156,0,1,0-6.951-2.832,62.98,62.98,0,0,0-51.28-36.737c-7.622-.828-11.786,1.423-13.9,3.352-4.225,3.856-4.474,9.655-.678,14.633l40.367,51.22a12.431,12.431,0,0,1-.866,16.621l-37.754,37.754a12.418,12.418,0,0,0,0,17.578l25.922,25.953a5.09,5.09,0,0,1-.429,7.637l-28.664,22.88a12.383,12.383,0,0,0-4.421,7.207,665.486,665.486,0,0,0,3.946-72.465,663.939,663.939,0,0,0-5.558-85.818H336.147a663.918,663.918,0,0,1,5.558,85.818,657.317,657.317,0,0,1-29.327,194.659,657.317,657.317,0,0,1-29.327-194.659,663.935,663.935,0,0,1,5.566-85.818H263.433a665.633,665.633,0,0,0-1.6,158.284,12.4,12.4,0,0,0-4.428-7.207l-28.664-22.88a5.1,5.1,0,0,1-.422-7.637l25.915-25.953a12.419,12.419,0,0,0,0-17.578l-37.754-37.754a12.43,12.43,0,0,1-.859-16.621l40.36-51.22c3.8-4.978,3.555-10.777-.678-14.633-2.109-1.928-6.273-4.18-13.9-3.352a62.969,62.969,0,0,0-51.273,36.737,5.155,5.155,0,0,0-9.5-4,5.144,5.144,0,0,0,2.538,6.831,5.228,5.228,0,0,0,2.146.467,5.166,5.166,0,0,0,1.8-.324,5.086,5.086,0,0,0,2.779-2.47,66.837,66.837,0,0,0-5,17.2,5.17,5.17,0,0,0-4.4-5.566,4.945,4.945,0,0,0-.738-.053,5.171,5.171,0,0,0-5.106,4.421,5.158,5.158,0,0,0,10.16,1.762,71.406,71.406,0,0,0-.264,17.781l.03.263a5.165,5.165,0,0,0-5.076-4.3,4.871,4.871,0,0,0-.738.052,5.155,5.155,0,0,0,.723,10.258,4.971,4.971,0,0,0,.746-.052,5.161,5.161,0,0,0,4.413-5.4,56.4,56.4,0,0,0,4.489,17.262,5.164,5.164,0,1,0,.286,4.232,5.1,5.1,0,0,0-.06-3.758,30.553,30.553,0,0,0,7.463,9.971l3.434,3.442a5.149,5.149,0,1,0,.406.406l13.526,13.526a5.15,5.15,0,1,0,.211,7.486,5.177,5.177,0,0,0,.2-7.087l13.278,13.278L214.6,619.429a5.177,5.177,0,1,0-3.848,1.717,5.118,5.118,0,0,0,3.427-1.3l-13.511,13.511a5.146,5.146,0,1,0-.422.422l-3.434,3.434a12.415,12.415,0,0,0,1.047,18.5l3.8,3.028a5.156,5.156,0,0,0-6.206,8.232,5.093,5.093,0,0,0,3.2,1.13A5.157,5.157,0,0,0,202.1,659.1l14.957,11.93a5.156,5.156,0,0,0-7.011.994,5.16,5.16,0,0,0,4.014,8.375,5.228,5.228,0,0,0,.595-.038,5.156,5.156,0,0,0,2.854-8.969L232.186,683.1l-11.719,14.686a5.153,5.153,0,1,0-9.316-2.417,5.153,5.153,0,0,0,8.977,2.847l-11.937,14.972a5.229,5.229,0,1,0-.354.437l-3.035,3.811a12.415,12.415,0,0,0,3.1,18.263l4.112,2.591a5.154,5.154,0,0,0-7.524,5.656,5.11,5.11,0,0,0,2.289,3.216,5.028,5.028,0,0,0,2.734.791,5.146,5.146,0,0,0,5.031-6.3,5.068,5.068,0,0,0-2.041-3.05L228.7,748.771a5.151,5.151,0,0,0-7.516,5.663,5.12,5.12,0,0,0,6.168,3.871,5.131,5.131,0,0,0,3.879-6.168,5.064,5.064,0,0,0-2.041-3.058l15.9,9.994L235.063,775.01a5.154,5.154,0,0,0-8.849-5.279,5.151,5.151,0,0,0,1.627,7.1,5.07,5.07,0,0,0,2.734.8,5.006,5.006,0,0,0,1.152-.136,5.13,5.13,0,0,0,3.088-2.078l-6.484,10.318a12.428,12.428,0,1,0,21.042,13.232l23.37-37.189a12.339,12.339,0,0,0,1.875-7.584,652.687,652.687,0,0,0,19.272,67.126h36.978a654.657,654.657,0,0,0,19.28-67.126,12.382,12.382,0,0,0,1.868,7.584l23.37,37.189a12.432,12.432,0,1,0,21.05-13.232l-6.492-10.318a5.13,5.13,0,0,0,3.088,2.078,5.065,5.065,0,0,0,3.894-.662,5.156,5.156,0,0,0,1.619-7.1,5.153,5.153,0,0,0-8.849,5.279L379.67,759.073l15.906-9.994a5.152,5.152,0,1,0,8.006,5.355,5.153,5.153,0,0,0-7.524-5.663L412.25,738.6a5.154,5.154,0,1,0,8.013,5.347,5.154,5.154,0,0,0-7.524-5.656l4.112-2.591a12.415,12.415,0,0,0,3.1-18.263l-3.035-3.811a5.172,5.172,0,1,0-.346-.437l-11.937-14.972a5.094,5.094,0,0,0,3.269,1.7,5.31,5.31,0,0,0,.595.03,5.144,5.144,0,0,0,5.106-4.579,5.162,5.162,0,0,0-4.541-5.7,5.156,5.156,0,0,0-4.775,8.118L392.571,683.1l14.678-11.711a5.155,5.155,0,0,0,2.862,8.969,5.156,5.156,0,0,0,4.609-8.337,5.157,5.157,0,0,0-7.011-.994l14.949-11.93a5.024,5.024,0,1,0,.437-.354l3.811-3.028a12.407,12.407,0,0,0,1.039-18.5l-3.434-3.434a5.17,5.17,0,0,0,7.079-.2,5.155,5.155,0,1,0-7.494-.219l-13.519-13.511a5.155,5.155,0,1,0-.414-.414l-13.27-13.278,13.277-13.278a5.162,5.162,0,0,0,.2,7.087,5.164,5.164,0,0,0,7.29,0,5.159,5.159,0,0,0,0-7.29,5.149,5.149,0,0,0-7.087-.2L424.1,578.949a5.154,5.154,0,0,0,7.486,7.079,5.156,5.156,0,0,0-7.087-7.486l3.442-3.442a30.66,30.66,0,0,0,7.464-9.971,5.153,5.153,0,0,0,4.76,7.117,5.159,5.159,0,1,0-4.541-7.592,56.6,56.6,0,0,0,4.5-17.262,5.147,5.147,0,0,0,4.406,5.4,5.041,5.041,0,0,0,.746.052,5.16,5.16,0,0,0,4.12-8.247Zm-44.141-49.488a5.15,5.15,0,1,1,0-7.283A5.15,5.15,0,0,1,405.253,495.112ZM219.5,487.829a5.15,5.15,0,1,1,0,7.283A5.164,5.164,0,0,1,219.5,487.829Zm49.329,256.807-31.044-19.528a5.145,5.145,0,0,1-2.342-3.479,5.077,5.077,0,0,1,1.069-4.059l22.857-28.694a12.366,12.366,0,0,0,2.7-7.983,654.377,654.377,0,0,0,11.741,69.784A12.388,12.388,0,0,0,268.833,744.636ZM389.31,721.628a5.121,5.121,0,0,1-2.342,3.479l-31.044,19.528a12.413,12.413,0,0,0-4.978,6.04,656.281,656.281,0,0,0,11.734-69.784,12.374,12.374,0,0,0,2.711,7.983l22.857,28.694A5.1,5.1,0,0,1,389.31,721.628Z" transform="translate(-174.338 -473.607)" fill="#ff893b"/></g><path d="M258.185,597.748l-52.914-63.1h-6.048v72.307h5.784V543.026L258.6,606.951h5.377V534.644h-5.792Zm34.169,9.2h6.251V534.644h-6.251Zm55.038-11.628-24.755-60.679h-6.356l30.7,73.6h.934l30.592-73.6h-6.145Zm54.165-22.692h32.3v-4.647h-32.3V539.3h33.386v-4.654h-39.17v72.307h40v-4.858H401.557Zm88.688.414a19.353,19.353,0,0,0-3.562-2.628q6.925-2.226,10.355-6.613a17.409,17.409,0,0,0,3.442-11.071q0-8.732-6.153-13.405t-17.676-4.685h-17.57v72.307h5.792V572.225h5.942a40.091,40.091,0,0,1,9.248.8,10.658,10.658,0,0,1,5.061,2.719,43.047,43.047,0,0,1,3.931,4.827q2.485,3.378,5.889,8.608l11.53,17.774h6.56l-19.9-30.494A19.9,19.9,0,0,0,490.245,573.046Zm-9.459-6.2a104.442,104.442,0,0,1-11.47.414h-4.443V539.509H476.96q8.224,0,12.69,3.464a11.628,11.628,0,0,1,4.474,9.76,14.374,14.374,0,0,1-1.988,7.81,13.1,13.1,0,0,1-5.972,4.9A19.085,19.085,0,0,1,480.786,566.848Zm80.418,8.684q-3.355-3.773-13.383-7.855c-.693-.279-1.205-.482-1.552-.625q-8.891-3.773-11.576-6.763a11.191,11.191,0,0,1-2.689-7.757,12.6,12.6,0,0,1,4.187-9.693A15.265,15.265,0,0,1,546.94,539a23.6,23.6,0,0,1,8.036,1.446,38.108,38.108,0,0,1,8.555,4.489V538.47a34.782,34.782,0,0,0-8.111-3.585,29.689,29.689,0,0,0-8.269-1.167q-9.354,0-15.168,5.347a17.866,17.866,0,0,0-5.814,13.775,16.317,16.317,0,0,0,3.818,11.139q3.83,4.371,14.212,8.653,10.032,4.2,12.848,7.313a11.57,11.57,0,0,1,2.817,8.036q0,6.676-4.135,10.551T544.515,602.4a22.59,22.59,0,0,1-8.864-1.936,44.351,44.351,0,0,1-9.693-5.919v7.027a39.619,39.619,0,0,0,9.331,4.812,28.454,28.454,0,0,0,9.324,1.6q9.354,0,15.349-5.558a18.458,18.458,0,0,0,5.995-14.181,19.575,19.575,0,0,0-1.213-6.929A17.432,17.432,0,0,0,561.2,575.531Zm28.167,31.42h6.258V534.644h-6.258Zm84.342-65.733a31.464,31.464,0,0,0-10.461-4.993,54.625,54.625,0,0,0-14.083-1.582H624.1v72.307h25.064a53.807,53.807,0,0,0,14.008-1.6,31.059,31.059,0,0,0,10.536-5.061,34.805,34.805,0,0,0,10.626-12.848,38.587,38.587,0,0,0,0-33.378A34.723,34.723,0,0,0,673.713,541.219Zm4.624,44.8a27.626,27.626,0,0,1-9.482,10.958A25.942,25.942,0,0,1,660,600.693a54.9,54.9,0,0,1-12.276,1.189H630.25V539.871h17.472A56.876,56.876,0,0,1,660,541.031a25.762,25.762,0,0,1,8.857,3.69,27.615,27.615,0,0,1,9.482,10.988,35.094,35.094,0,0,1,0,30.313Zm52.7-52-31.533,72.925h6.153L716.3,581.782h31.789l10.694,25.169h6.1L733.36,534.027Zm-12.72,42.845,13.9-32.813,13.85,32.813Zm113.029-35.653a31.431,31.431,0,0,0-10.469-4.993,54.543,54.543,0,0,0-14.083-1.582H781.733v72.307H806.8a53.727,53.727,0,0,0,14.008-1.6,31.03,31.03,0,0,0,10.544-5.061,34.714,34.714,0,0,0,10.619-12.848,38.518,38.518,0,0,0,0-33.378A34.633,34.633,0,0,0,831.349,541.219Zm4.624,44.8a27.684,27.684,0,0,1-9.482,10.958,25.981,25.981,0,0,1-8.864,3.713,54.809,54.809,0,0,1-12.276,1.189H787.886V539.871h17.465a56.778,56.778,0,0,1,12.276,1.16,25.8,25.8,0,0,1,8.864,3.69,27.673,27.673,0,0,1,9.482,10.988,35.094,35.094,0,0,1,0,30.313Zm62.743-12.291h35.427V560.077H898.716V539.442h36.451V525.953H884.1v82.7h52.259v-13.6H898.716Zm61.131-40.781H946.223v75.7h48.042V595.948H959.847Zm108.427,31.533a17.6,17.6,0,0,0,5.528-4.963,18.922,18.922,0,0,0,3.2-11.176c0-7.11-2.373-12.7-7.042-16.606-4.579-3.841-11.1-5.784-19.37-5.784h-24.883v82.7H1054.9c8.593,0,15.544-2.109,20.651-6.251,5.211-4.233,7.855-9.971,7.855-17.051a20.9,20.9,0,0,0-5.151-14.212A24.617,24.617,0,0,0,1068.274,564.483Zm-27.948-24.928h9.128c4.421,0,7.622.769,9.512,2.29,1.807,1.446,2.681,3.8,2.681,7.177,0,3.736-1.145,6.4-3.51,8.164-2.478,1.845-6.469,2.779-11.854,2.779h-5.957Zm24.454,52.809c-2.237,1.709-5.957,2.568-11.071,2.568h-13.383v-21.2h11.568c5.739,0,9.934.919,12.479,2.719,2.4,1.7,3.562,4.353,3.562,8.111C1067.935,588.191,1066.9,590.744,1064.779,592.363Zm91.625-49.156a39.322,39.322,0,0,0-12.991-8.458,42.307,42.307,0,0,0-30.848-.022,40.454,40.454,0,0,0-13.052,8.465,38.571,38.571,0,0,0-8.751,12.592,36.978,36.978,0,0,0-3.088,14.731,38.2,38.2,0,0,0,11.832,28.039,39.88,39.88,0,0,0,12.984,8.42,41.013,41.013,0,0,0,15.386,2.967,41.726,41.726,0,0,0,15.484-2.885,40.863,40.863,0,0,0,13.127-8.5,38.179,38.179,0,0,0,8.684-12.517,37.5,37.5,0,0,0,3.065-14.859,37.816,37.816,0,0,0-11.832-27.978Zm-4.541,37.565a25.828,25.828,0,0,1-5.611,8.345,24.869,24.869,0,0,1-8.352,5.641,26.82,26.82,0,0,1-20-.053,24.508,24.508,0,0,1-8.307-5.6,25.484,25.484,0,0,1-5.573-8.337,25.779,25.779,0,0,1-1.936-9.9,26.425,26.425,0,0,1,1.936-10,24.361,24.361,0,0,1,5.558-8.269,27.556,27.556,0,0,1,8.548-5.694,24.971,24.971,0,0,1,9.753-1.981,25.636,25.636,0,0,1,9.941,1.958,25.034,25.034,0,0,1,8.337,5.694,27.212,27.212,0,0,1,5.739,8.48,25.226,25.226,0,0,1,1.928,9.813A25.576,25.576,0,0,1,1151.863,580.773Zm46.949-16.667-1.529-.926c-10.408-6.485-11.959-10.235-11.959-11.892a5.818,5.818,0,0,1,2.425-4.835c3.223-2.523,8.955-2.734,14.279-.452a37.762,37.762,0,0,1,8.39,5.317l2.764,2.222V537.317l-.813-.5a36.974,36.974,0,0,0-8.593-3.924,30.526,30.526,0,0,0-8.729-1.281c-6.673,0-12.223,1.966-16.516,5.844a19.5,19.5,0,0,0-6.522,15.078,18.863,18.863,0,0,0,3.449,11.327c2.229,3.1,7.4,7.252,15.838,12.69,6.334,4.014,8.7,6.183,9.58,7.29a8.025,8.025,0,0,1,1.725,5.129,6.6,6.6,0,0,1-2.47,5.475c-1.747,1.408-4.24,2.132-7.4,2.132a17.667,17.667,0,0,1-8.714-2.274,34.757,34.757,0,0,1-8.924-7.742l-2.982-3.412v18.964l.61.512a31.236,31.236,0,0,0,9.572,5.573,33.46,33.46,0,0,0,11.1,1.747c6.643,0,12.193-1.966,16.486-5.836a19.294,19.294,0,0,0,6.56-14.927,23.712,23.712,0,0,0-3.479-13.15C1210.659,572.489,1206.043,568.595,1198.813,564.106Zm93.5,30.569a35.684,35.684,0,0,0,8.4-23.49,37.845,37.845,0,0,0-11.824-27.978,39.281,39.281,0,0,0-13-8.458,42.288,42.288,0,0,0-30.841-.022A40.373,40.373,0,0,0,1232,543.192a38.6,38.6,0,0,0-8.759,12.592,36.969,36.969,0,0,0-3.08,14.731,38.075,38.075,0,0,0,8.3,24.318,39.117,39.117,0,0,0,21.667,13.684,98.456,98.456,0,0,0,18.8,10.747,43.745,43.745,0,0,0,16.546,3.8c.7,0,1.213-.008,1.544-.03a9.12,9.12,0,0,0,1.212-.158l.445-.083,11.056-9.6-1.34-3.532-1.4.279c-1.371.264-2.628.46-3.773.6a27.479,27.479,0,0,1-3.088.2,36.679,36.679,0,0,1-9.158-1.235,62.625,62.625,0,0,1-7-2.32A42.217,42.217,0,0,0,1292.313,594.676Zm-7.96-13.9a27.065,27.065,0,0,1-14.083,14.144,25.513,25.513,0,0,1-19.762-.067,26.252,26.252,0,0,1-8.428-5.739,25.366,25.366,0,0,1-5.573-8.337,25.785,25.785,0,0,1-1.943-9.9,26.286,26.286,0,0,1,1.943-10,24.236,24.236,0,0,1,5.551-8.269,27.557,27.557,0,0,1,8.548-5.694,24.97,24.97,0,0,1,9.753-1.981,25.582,25.582,0,0,1,9.941,1.958,25.033,25.033,0,0,1,8.337,5.694,26.952,26.952,0,0,1,5.739,8.48,25.228,25.228,0,0,1,1.936,9.813A25.711,25.711,0,0,1,1284.352,580.773Zm75.486.023a14.236,14.236,0,0,1-5.136,11.53c-3.494,2.952-8.217,4.451-14.038,4.451a23.861,23.861,0,0,1-9.316-1.725,18.552,18.552,0,0,1-6.958-5.159,11,11,0,0,1-2.162-4.353,42.68,42.68,0,0,1-.7-9.392v-43.2H1307.85v43.613c0,5.935.4,10.243,1.228,13.172a21.931,21.931,0,0,0,4.27,8.1,31.15,31.15,0,0,0,11.794,9.038,38.213,38.213,0,0,0,15.522,3.065c9.64,0,17.6-2.674,23.641-7.937,6.115-5.325,9.218-12.351,9.218-20.892V532.95h-13.684Zm38.53,15.153V576.811h32.3v-12.75h-32.3V545.549H1431.6v-12.6h-46.859v75.7h47.937V595.948ZM166.3,577.1q0,13.375-7.486,21.246t-20.033,7.878q-12.54,0-20.026-7.878T111.259,577.1V528.423h-6.771v48.321q0,16.82,9.271,26.623t25.019,9.806q15.816,0,25.139-9.828,9.331-9.851,9.331-26.6V528.423H166.3Z" transform="translate(-104.488 -131.72)" fill="#394024"/></g><rect width="110.17" height="13.625" transform="translate(785.217 1063.992)" fill="#394024"/><path d="M-303.2-19.093h22.021c.793,0,1.1-.244,1.1-1.037v-2.806c0-.793-.244-1.037-1.1-1.037H-303.2V-37.759h22.57c.793,0,1.1-.3,1.1-1.1V-41.6c0-.793-.244-1.1-1.1-1.1h-27.206c-.793,0-1.037.305-1.037,1.1V-1.037c0,.793.244,1.037,1.037,1.037h3.6c.793,0,1.037-.244,1.037-1.037Zm32.574-6.954a44.916,44.916,0,0,1,9.272-.976c6.161,0,8.113,2.623,8.113,9.638a28.244,28.244,0,0,0-9.577-1.952c-7.2,0-12.261,3.233-12.261,9.882S-270.016.671-264.282.671a14.993,14.993,0,0,0,11.956-5.429l.305,3.721c.244.793.488,1.037,1.1,1.037h2.013c.793,0,1.037-.244,1.037-1.037V-17.019c0-9.943-2.562-14.7-13.3-14.7a57.318,57.318,0,0,0-10.553,1.159c-.793.183-.915.549-.732,1.342l.549,2.135C-271.663-26.23-271.48-25.925-270.626-26.047Zm8.967,10.675a21,21,0,0,1,8.418,1.952v4.7c-1.891,2.623-5.551,5.246-9.394,5.246-4.7,0-7.137-2.684-7.137-5.978C-269.772-13.176-267.088-15.372-261.659-15.372Zm36.844,11.224c-5.917,0-10.736-4.941-10.736-11.346,0-6.344,4.819-11.346,10.736-11.346a11.3,11.3,0,0,1,7.991,3.111c.61.549.976.427,1.525-.183l1.708-1.83c.488-.61.549-.915.061-1.4a15.866,15.866,0,0,0-11.285-4.575,16.141,16.141,0,0,0-16.043,16.226A16.089,16.089,0,0,0-224.815.671,15.615,15.615,0,0,0-213.53-3.9c.488-.488.427-.732-.061-1.342L-215.3-7.137c-.549-.549-.915-.732-1.525-.183A11.352,11.352,0,0,1-224.815-4.148Zm41.053,3.111c.305.732.549,1.037,1.159,1.037h1.769c.732,0,1.037-.244,1.037-1.037V-29.951c0-.854-.3-1.1-1.037-1.1h-3.294c-.793,0-1.037.3-1.037,1.1v15.128c0,5.978-3.05,10.675-8.113,10.675-4.7,0-7.93-3.355-7.93-10.309V-29.951c0-.854-.3-1.1-1.037-1.1h-3.294c-.793,0-1.037.3-1.037,1.1v16.775c0,10,5.429,13.847,11.956,13.847,5.734,0,8.784-4.209,10.248-6.649Zm15.738,0c0,.793.244,1.037,1.1,1.037h3.233c.793,0,1.037-.244,1.037-1.037V-43.92c0-.793-.183-1.1-1.037-1.1h-3.233c-.854,0-1.1.244-1.1,1.1Zm34.831.244c.61-.366.671-.61.488-1.342l-.427-2.318c-.244-.976-.427-1.037-1.342-.549a7.754,7.754,0,0,1-4.026.854c-4.514,0-6.527-2.5-6.527-9.089v-13.42H-134.6c.854,0,1.1-.244,1.1-1.1v-2.2c0-.854-.3-1.1-1.1-1.1h-10.431V-37.21c0-.854-.244-1.1-1.1-1.1H-149.3c-.854,0-1.1.305-1.1,1.1v6.161h-2.745c-.793,0-1.037.244-1.037,1.1v2.2c0,.854.244,1.1,1.037,1.1h2.745v13.786C-150.4-4.392-147.1.671-139.049.671A11.412,11.412,0,0,0-133.193-.793ZM-122.7-26.047a44.916,44.916,0,0,1,9.272-.976c6.161,0,8.113,2.623,8.113,9.638a28.244,28.244,0,0,0-9.577-1.952c-7.2,0-12.261,3.233-12.261,9.882S-122.091.671-116.357.671A14.993,14.993,0,0,0-104.4-4.758l.305,3.721c.244.793.488,1.037,1.1,1.037h2.013c.793,0,1.037-.244,1.037-1.037V-17.019c0-9.943-2.562-14.7-13.3-14.7A57.318,57.318,0,0,0-123.8-30.561c-.793.183-.915.549-.732,1.342l.549,2.135C-123.738-26.23-123.555-25.925-122.7-26.047Zm8.967,10.675a21,21,0,0,1,8.418,1.952v4.7c-1.891,2.623-5.551,5.246-9.394,5.246-4.7,0-7.137-2.684-7.137-5.978C-121.847-13.176-119.163-15.372-113.734-15.372Zm45.811-9.7A12.265,12.265,0,0,0-78.842-31.72c-8.479,0-14.091,7.32-14.091,16.226C-92.933-6.71-87.321.671-78.842.671c6.771,0,10.065-4.453,11.773-6.832l.61,5.124c.366.732.61,1.037,1.22,1.037h1.647c.793,0,1.037-.244,1.037-1.037V-43.92c0-.854-.244-1.1-1.037-1.1h-3.294c-.793,0-1.037.305-1.037,1.1ZM-77.744-4.087c-5.917,0-9.821-5-9.821-11.407,0-6.039,3.9-11.346,9.821-11.346,5.978,0,9.882,5.49,9.882,11.346S-71.766-4.087-77.744-4.087Zm63.928-20.984A12.265,12.265,0,0,0-24.735-31.72c-8.479,0-14.091,7.32-14.091,16.226C-38.826-6.71-33.214.671-24.735.671c6.771,0,10.065-4.453,11.773-6.832l.61,5.124c.366.732.61,1.037,1.22,1.037h1.647c.793,0,1.037-.244,1.037-1.037V-43.92c0-.854-.244-1.1-1.037-1.1h-3.294c-.793,0-1.037.305-1.037,1.1ZM-23.637-4.087c-5.917,0-9.821-5-9.821-11.407,0-6.039,3.9-11.346,9.821-11.346,5.978,0,9.882,5.49,9.882,11.346S-17.659-4.087-23.637-4.087ZM27.054-6.71c-.488-.61-.793-.488-1.525-.061a16.906,16.906,0,0,1-9.15,2.806,11.046,11.046,0,0,1-10.98-9.7H29.982c.854,0,.976-.3.976-1.1,0-9.15-5.429-16.958-15.067-16.958A16.141,16.141,0,0,0-.152-15.494,16.156,16.156,0,0,0,16.2.671c4.453,0,9.455-1.464,12.322-4.27.488-.488.427-.854-.061-1.464ZM5.521-17.324a10.412,10.412,0,0,1,10.248-9.882c5.856,0,9.394,4.941,9.7,9.882Zm68.2,13.115c-9.211,0-16.165-8.357-16.165-17.141s6.954-17.141,16.165-17.141a16.593,16.593,0,0,1,12.2,5.185c.61.61,1.037.549,1.586-.061l2.135-2.318c.549-.61.61-.976.061-1.525a23.591,23.591,0,0,0-15.982-6.283A22.13,22.13,0,0,0,51.82-21.35,22.13,22.13,0,0,0,73.719.793,23.307,23.307,0,0,0,89.7-5.49c.61-.61.549-.915,0-1.586L87.566-9.394c-.549-.549-.915-.671-1.525-.061A16.9,16.9,0,0,1,73.719-4.209Zm41.175-22.2c.793,0,1.037-.183,1.22-.976l.488-3.355c.122-.671,0-.976-.976-.976-8.3,0-10.98,4.7-12.383,7.442l-.915-5.673c-.366-.793-.61-1.1-1.22-1.1H99.4c-.793,0-1.037.244-1.037,1.1V-1.037C98.363-.244,98.607,0,99.4,0h3.294c.793,0,1.037-.244,1.037-1.037v-14.7C103.731-21.167,107.269-26.413,114.894-26.413ZM147.1-6.71c-.488-.61-.793-.488-1.525-.061a16.906,16.906,0,0,1-9.15,2.806,11.046,11.046,0,0,1-10.98-9.7H150.03c.854,0,.976-.3.976-1.1,0-9.15-5.429-16.958-15.067-16.958A16.141,16.141,0,0,0,119.9-15.494,16.156,16.156,0,0,0,136.244.671c4.453,0,9.455-1.464,12.322-4.27.488-.488.427-.854-.061-1.464ZM125.569-17.324a10.412,10.412,0,0,1,10.248-9.882c5.856,0,9.394,4.941,9.7,9.882Zm35.563-8.723a44.916,44.916,0,0,1,9.272-.976c6.161,0,8.113,2.623,8.113,9.638a28.244,28.244,0,0,0-9.577-1.952c-7.2,0-12.261,3.233-12.261,9.882S161.742.671,167.476.671a14.993,14.993,0,0,0,11.956-5.429l.305,3.721c.244.793.488,1.037,1.1,1.037h2.013c.793,0,1.037-.244,1.037-1.037V-17.019c0-9.943-2.562-14.7-13.3-14.7a57.318,57.318,0,0,0-10.553,1.159c-.793.183-.915.549-.732,1.342l.549,2.135C160.095-26.23,160.278-25.925,161.132-26.047ZM170.1-15.372a21,21,0,0,1,8.418,1.952v4.7c-1.891,2.623-5.551,5.246-9.394,5.246-4.7,0-7.137-2.684-7.137-5.978C161.986-13.176,164.67-15.372,170.1-15.372ZM206.943-4.148c-5.917,0-10.736-4.941-10.736-11.346,0-6.344,4.819-11.346,10.736-11.346a11.3,11.3,0,0,1,7.991,3.111c.61.549.976.427,1.525-.183l1.708-1.83c.488-.61.549-.915.061-1.4a15.866,15.866,0,0,0-11.285-4.575A16.141,16.141,0,0,0,190.9-15.494,16.089,16.089,0,0,0,206.943.671,15.615,15.615,0,0,0,218.228-3.9c.488-.488.427-.732-.061-1.342l-1.708-1.891c-.549-.549-.915-.732-1.525-.183A11.352,11.352,0,0,1,206.943-4.148ZM227.8-1.037c0,.793.244,1.037,1.1,1.037h3.233c.793,0,1.037-.244,1.037-1.037V-29.951c0-.793-.183-1.1-1.037-1.1H228.9c-.854,0-1.1.244-1.1,1.1Zm-.915-40.016a3.541,3.541,0,0,0,3.538,3.538,3.593,3.593,0,0,0,3.6-3.538,3.646,3.646,0,0,0-3.6-3.6A3.593,3.593,0,0,0,226.89-41.053ZM242.81-15.494A16.141,16.141,0,0,0,258.914.671a16.089,16.089,0,0,0,16.043-16.165A16.141,16.141,0,0,0,258.914-31.72,16.193,16.193,0,0,0,242.81-15.494Zm16.1,11.407c-5.978,0-10.736-5-10.736-11.407,0-6.344,4.758-11.346,10.736-11.346,5.917,0,10.736,5,10.736,11.346C269.65-9.089,264.831-4.087,258.914-4.087Zm6.344-36.539c.61-.488.61-.793.3-1.4l-1.342-2.135c-.427-.671-.976-.854-1.464-.244l-7.564,8.052c-.793.854-.549,1.22.122,1.22h2.928a2.5,2.5,0,0,0,1.708-.671Zm22.326,10.675c-.366-.793-.61-1.1-1.22-1.1h-1.708c-.793,0-1.037.244-1.037,1.1V-1.037c0,.793.244,1.037,1.037,1.037h3.294c.793,0,1.037-.244,1.037-1.037V-16.226c0-5.978,3.05-10.614,8.052-10.614,4.758,0,7.991,3.294,7.991,10.309V-1.037c0,.793.244,1.037,1.037,1.037h3.294c.793,0,1.037-.244,1.037-1.037V-17.873c0-10-5.429-13.847-12.017-13.847-5.734,0-8.723,4.27-10.187,6.71Zm-507.4,94.9-.061.061-9.7-21.96c-.427-.854-.732-1.1-1.4-1.1h-3.782c-.732,0-.915.3-.549,1.1l12.566,28-5.978,13.359c-.366.793-.183,1.037.549,1.037h3.782c.671,0,.976-.183,1.4-1.037L-204.5,43.049c.366-.854.183-1.1-.549-1.1h-3.782c-.671,0-.976.244-1.4,1.1Zm56.12,3.843c-9.211,0-16.165-8.357-16.165-17.141s6.954-17.141,16.165-17.141a16.593,16.593,0,0,1,12.2,5.185c.61.61,1.037.549,1.586-.061l2.135-2.318c.549-.61.61-.976.061-1.525a23.591,23.591,0,0,0-15.982-6.283,22.13,22.13,0,0,0-21.9,22.143,22.13,22.13,0,0,0,21.9,22.143,23.307,23.307,0,0,0,15.982-6.283c.61-.61.549-.915,0-1.586l-2.135-2.318c-.549-.549-.915-.671-1.525-.061A16.9,16.9,0,0,1-163.694,68.791Zm21.655-11.285a16.141,16.141,0,0,0,16.1,16.165,16.089,16.089,0,0,0,16.043-16.165A16.141,16.141,0,0,0-125.935,41.28,16.193,16.193,0,0,0-142.039,57.506Zm16.1,11.407c-5.978,0-10.736-5-10.736-11.407,0-6.344,4.758-11.346,10.736-11.346,5.917,0,10.736,5,10.736,11.346C-115.2,63.911-120.018,68.913-125.935,68.913Zm48.922-20.618A11.061,11.061,0,0,0-87.261,41.28c-5.551,0-8.235,4.27-9.577,6.832l-.61-5.063c-.305-.793-.549-1.1-1.159-1.1h-1.769c-.732,0-1.037.244-1.037,1.1V71.963c0,.793.305,1.037,1.037,1.037h3.294c.793,0,1.037-.244,1.037-1.037V56.774c0-6.283,2.745-10.614,7.5-10.614s7.5,4.026,7.5,10.309V71.963c0,.793.244,1.037,1.037,1.037h3.294c.793,0,1.037-.244,1.037-1.037V56.469c0-6.466,3.05-10.309,7.442-10.309,4.209,0,7.5,3.294,7.5,10.309V71.963c0,.793.244,1.037,1.037,1.037h3.294c.793,0,1.037-.244,1.037-1.037V55.127c0-10-5.368-13.847-11.59-13.847C-72.5,41.28-75.61,45.611-77.013,48.295ZM-24,71.963c.305.732.549,1.037,1.159,1.037h1.769c.732,0,1.037-.244,1.037-1.037V43.049c0-.854-.3-1.1-1.037-1.1H-24.37c-.793,0-1.037.3-1.037,1.1V58.177c0,5.978-3.05,10.675-8.113,10.675-4.7,0-7.93-3.355-7.93-10.309V43.049c0-.854-.305-1.1-1.037-1.1h-3.294c-.793,0-1.037.3-1.037,1.1V59.824c0,10,5.429,13.847,11.956,13.847,5.734,0,8.784-4.209,10.248-6.649Zm19.52-28.914c-.366-.793-.61-1.1-1.22-1.1H-7.411c-.793,0-1.037.244-1.037,1.1V71.963c0,.793.244,1.037,1.037,1.037h3.294c.793,0,1.037-.244,1.037-1.037V56.774c0-5.978,3.05-10.614,8.052-10.614,4.758,0,7.991,3.294,7.991,10.309V71.963c0,.793.244,1.037,1.037,1.037h3.294c.793,0,1.037-.244,1.037-1.037V55.127c0-10-5.429-13.847-12.017-13.847-5.734,0-8.723,4.27-10.187,6.71ZM29.493,71.963c0,.793.244,1.037,1.1,1.037h3.233c.793,0,1.037-.244,1.037-1.037V43.049c0-.793-.183-1.1-1.037-1.1H30.591c-.854,0-1.1.244-1.1,1.1Zm-.915-40.016a3.541,3.541,0,0,0,3.538,3.538,3.593,3.593,0,0,0,3.6-3.538,3.646,3.646,0,0,0-3.6-3.6A3.593,3.593,0,0,0,28.578,31.947Zm31.964,36.9c-5.917,0-10.736-4.941-10.736-11.346,0-6.344,4.819-11.346,10.736-11.346a11.3,11.3,0,0,1,7.991,3.111c.61.549.976.427,1.525-.183l1.708-1.83c.488-.61.549-.915.061-1.4A15.866,15.866,0,0,0,60.543,41.28a16.2,16.2,0,0,0,0,32.391A15.615,15.615,0,0,0,71.828,69.1c.488-.488.427-.732-.061-1.342l-1.708-1.891c-.549-.549-.915-.732-1.525-.183A11.352,11.352,0,0,1,60.543,68.852Zm21.716-21.9a44.916,44.916,0,0,1,9.272-.976c6.161,0,8.113,2.623,8.113,9.638a28.244,28.244,0,0,0-9.577-1.952c-7.2,0-12.261,3.233-12.261,9.882s5.063,10.126,10.8,10.126a14.993,14.993,0,0,0,11.956-5.429l.305,3.721c.244.793.488,1.037,1.1,1.037h2.013c.793,0,1.037-.244,1.037-1.037V55.981c0-9.943-2.562-14.7-13.3-14.7a57.317,57.317,0,0,0-10.553,1.159c-.793.183-.915.549-.732,1.342l.549,2.135C81.222,46.77,81.4,47.075,82.259,46.953Zm8.967,10.675a21,21,0,0,1,8.418,1.952v4.7c-1.891,2.623-5.551,5.246-9.394,5.246-4.7,0-7.137-2.684-7.137-5.978C83.113,59.824,85.8,57.628,91.226,57.628Zm36.844,11.224c-5.917,0-10.736-4.941-10.736-11.346,0-6.344,4.819-11.346,10.736-11.346a11.3,11.3,0,0,1,7.991,3.111c.61.549.976.427,1.525-.183l1.708-1.83c.488-.61.549-.915.061-1.4a15.866,15.866,0,0,0-11.285-4.575,16.2,16.2,0,0,0,0,32.391A15.615,15.615,0,0,0,139.354,69.1c.488-.488.427-.732-.061-1.342l-1.708-1.891c-.549-.549-.915-.732-1.525-.183A11.352,11.352,0,0,1,128.069,68.852Zm20.862,3.111c0,.793.244,1.037,1.1,1.037h3.233c.793,0,1.037-.244,1.037-1.037V43.049c0-.793-.183-1.1-1.037-1.1H150.03c-.854,0-1.1.244-1.1,1.1Zm-.915-40.016a3.541,3.541,0,0,0,3.538,3.538,3.593,3.593,0,0,0,3.6-3.538,3.646,3.646,0,0,0-3.6-3.6A3.593,3.593,0,0,0,148.017,31.947Zm15.921,25.559a16.074,16.074,0,1,0,16.1-16.226A16.141,16.141,0,0,0,163.938,57.506Zm16.1,11.407c-5.978,0-10.736-5-10.736-11.407,0-6.344,4.758-11.346,10.736-11.346,5.917,0,10.736,5,10.736,11.346C190.777,63.911,185.958,68.913,180.042,68.913Zm6.344-36.539c.61-.488.61-.793.305-1.4l-1.342-2.135c-.427-.671-.976-.854-1.464-.244l-7.564,8.052c-.793.854-.549,1.22.122,1.22h2.928a2.5,2.5,0,0,0,1.708-.671Zm22.326,10.675c-.366-.793-.61-1.1-1.22-1.1h-1.708c-.793,0-1.037.244-1.037,1.1V71.963c0,.793.244,1.037,1.037,1.037h3.294c.793,0,1.037-.244,1.037-1.037V56.774c0-5.978,3.05-10.614,8.052-10.614,4.758,0,7.991,3.294,7.991,10.309V71.963c0,.793.244,1.037,1.037,1.037h3.294c.793,0,1.037-.244,1.037-1.037V55.127c0-10-5.429-13.847-12.017-13.847-5.734,0-8.723,4.27-10.187,6.71Z" transform="translate(838.99 1159.973)" fill="#394024"/></g></g></svg>