<svg xmlns="http://www.w3.org/2000/svg" xmlns:xlink="http://www.w3.org/1999/xlink" width="1648" height="964" viewBox="0 0 1648 964"><defs><clipPath id="b"><rect width="1648" height="964"/></clipPath></defs><g id="a" clip-path="url(#b)"><g transform="translate(-239.754 -386.837)"><rect width="1487.501" height="815.589" transform="translate(320.173 462.626)" stroke-dasharray="0 4" stroke="#7eaf00" stroke-linecap="round" stroke-miterlimit="10" stroke-width="3" fill="none"/><rect width="1114.621" height="567.113" transform="translate(444.466 586.922)" stroke-dasharray="0 4.242" stroke="#7eaf00" stroke-linecap="round" stroke-miterlimit="10" stroke-width="3" fill="none"/><g transform="translate(991.267 462.626)"><text transform="translate(35.182 80.271)" fill="#7eaf00" font-size="64" font-family="AcherusGrotesque-Regular, Acherus Grotesque"><tspan x="0" y="0">x</tspan></text><line y1="124.296" transform="translate(10.509)" fill="none" stroke="#7eaf00" stroke-linecap="round" stroke-miterlimit="10" stroke-width="3"/><line x2="21.018" fill="none" stroke="#7eaf00" stroke-linecap="round" stroke-miterlimit="10" stroke-width="3"/><line x2="21.018" transform="translate(0 124.295)" fill="none" stroke="#7eaf00" stroke-linecap="round" stroke-miterlimit="10" stroke-width="3"/></g><g transform="translate(1559.088 814.721)"><g transform="translate(0 86.042)"><line x2="124.295" transform="translate(0 10.512)" fill="none" stroke="#7eaf00" stroke-linecap="round" stroke-miterlimit="10" stroke-width="3"/><line y2="21.021" transform="translate(124.295)" fill="none" stroke="#7eaf00" stroke-linecap="round" stroke-miterlimit="10" stroke-width="3"/><line y2="21.021" fill="none" stroke="#7eaf00" stroke-linecap="round" stroke-miterlimit="10" stroke-width="3"/></g><text transform="translate(61.354 60)" fill="#7eaf00" font-size="64" font-family="AcherusGrotesque-Regular, Acherus Grotesque"><tspan x="-15.488" y="0">x</tspan></text></g><g transform="translate(1683.382 814.721)"><g transform="translate(0 86.042)"><line x2="124.292" transform="translate(0 10.512)" fill="none" stroke="#7eaf00" stroke-linecap="round" stroke-miterlimit="10" stroke-width="3"/><line y2="21.021" transform="translate(124.292)" fill="none" stroke="#7eaf00" stroke-linecap="round" stroke-miterlimit="10" stroke-width="3"/><line y2="21.021" fill="none" stroke="#7eaf00" stroke-linecap="round" stroke-miterlimit="10" stroke-width="3"/></g><text transform="translate(61.354 60)" fill="#7eaf00" font-size="64" font-family="AcherusGrotesque-Regular, Acherus Grotesque"><tspan x="-15.488" y="0">x</tspan></text></g><g transform="translate(320.173 814.721)"><g transform="translate(0 86.042)"><line x2="124.292" transform="translate(0 10.512)" fill="none" stroke="#7eaf00" stroke-linecap="round" stroke-miterlimit="10" stroke-width="3"/><line y2="21.021" transform="translate(124.292)" fill="none" stroke="#7eaf00" stroke-linecap="round" stroke-miterlimit="10" stroke-width="3"/><line y2="21.021" fill="none" stroke="#7eaf00" stroke-linecap="round" stroke-miterlimit="10" stroke-width="3"/></g><text transform="translate(61.35 60)" fill="#7eaf00" font-size="64" font-family="AcherusGrotesque-Regular, Acherus Grotesque"><tspan x="-15.488" y="0">x</tspan></text></g><g transform="translate(991.267 1154.036)"><text transform="translate(35.182 80.271)" fill="#7eaf00" font-size="64" font-family="AcherusGrotesque-Regular, Acherus Grotesque"><tspan x="0" y="0">x</tspan></text><line y1="124.292" transform="translate(10.509)" fill="none" stroke="#7eaf00" stroke-linecap="round" stroke-miterlimit="10" stroke-width="3"/><line x2="21.018" fill="none" stroke="#7eaf00" stroke-linecap="round" stroke-miterlimit="10" stroke-width="3"/><line x2="21.018" transform="translate(0 124.292)" fill="none" stroke="#7eaf00" stroke-linecap="round" stroke-miterlimit="10" stroke-width="3"/></g><g transform="translate(444.464 586.92)"><path d="M583.757,542.336a4.663,4.663,0,0,0-3.064-1.824,6.231,6.231,0,0,0-.663-.04,4.648,4.648,0,0,0-4.573,3.87l.024-.229a64.208,64.208,0,0,0-.237-16.033,4.637,4.637,0,0,0,4.541,3.728,4.887,4.887,0,0,0,.679-.048,4.645,4.645,0,0,0,3.933-5.26,4.659,4.659,0,0,0-4.6-3.989,4.714,4.714,0,0,0-.663.055,4.646,4.646,0,0,0-3.965,5.015,60.208,60.208,0,0,0-4.51-15.5,4.608,4.608,0,0,0,2.511,2.227,4.769,4.769,0,0,0,1.619.292,4.65,4.65,0,1,0-4.336-2.977,56.751,56.751,0,0,0-46.2-33.1c-6.871-.742-10.623,1.287-12.526,3.025-3.815,3.467-4.036,8.7-.616,13.182l36.37,46.155a11.2,11.2,0,0,1-.774,14.975l-34.016,34.016a11.183,11.183,0,0,0,0,15.835l23.354,23.385a4.6,4.6,0,0,1-.387,6.879L509.833,656.6a11.15,11.15,0,0,0-3.989,6.492,598.2,598.2,0,0,0,3.562-65.292,597.629,597.629,0,0,0-5.007-77.328H481.708a597.581,597.581,0,0,1,5.015,77.328,592.324,592.324,0,0,1-26.427,175.4,592.07,592.07,0,0,1-26.426-175.4,599.062,599.062,0,0,1,5.007-77.328H416.2a600.46,600.46,0,0,0-1.453,142.62,11.138,11.138,0,0,0-3.981-6.492l-25.834-20.621a4.587,4.587,0,0,1-.379-6.879L407.9,605.709a11.183,11.183,0,0,0,0-15.835l-34.024-34.016a11.205,11.205,0,0,1-.774-14.975l36.37-46.155c3.42-4.486,3.2-9.714-.608-13.182-1.911-1.738-5.663-3.767-12.526-3.025a56.739,56.739,0,0,0-46.2,33.1,4.651,4.651,0,1,0-6.271,2.551,4.6,4.6,0,0,0,1.935.426,4.8,4.8,0,0,0,1.619-.292,4.635,4.635,0,0,0,2.511-2.227,59.607,59.607,0,0,0-4.51,15.5,4.652,4.652,0,0,0-3.965-5.015,4.825,4.825,0,0,0-.671-.055,4.643,4.643,0,0,0-3.712,7.432,4.585,4.585,0,0,0,3.056,1.816,4.778,4.778,0,0,0,.671.048,4.653,4.653,0,0,0,4.549-3.728,64.2,64.2,0,0,0-.245,16.033l.031.229a4.654,4.654,0,0,0-4.573-3.87,6.378,6.378,0,0,0-.671.04,4.645,4.645,0,0,0-3.056,1.824,4.644,4.644,0,0,0,3.712,7.424,6.449,6.449,0,0,0,.672-.04,4.658,4.658,0,0,0,3.972-4.873,51.268,51.268,0,0,0,4.044,15.551,4.634,4.634,0,1,0,.269,3.815,4.586,4.586,0,0,0-.063-3.38,27.726,27.726,0,0,0,6.721,8.98l3.1,3.1a4.641,4.641,0,1,0-3.1,8.1,4.652,4.652,0,0,0,4.652-4.636,4.644,4.644,0,0,0-1.185-3.1l12.186,12.187a4.645,4.645,0,0,0-6.382.174,4.658,4.658,0,0,0,0,6.571,4.652,4.652,0,0,0,6.571,0,4.66,4.66,0,0,0,.182-6.381L384.146,597.8l-11.958,11.958a4.647,4.647,0,1,0-6.753.189,4.658,4.658,0,0,0,6.374.19l-12.171,12.178a4.668,4.668,0,0,0-.19-6.381,4.643,4.643,0,1,0-.189,6.752l-3.1,3.088a11.187,11.187,0,0,0,.94,16.68l3.428,2.733a4.626,4.626,0,0,0-2.686-.861,3.968,3.968,0,0,0-.529.031,4.647,4.647,0,0,0,.513,9.264c.174,0,.348-.016.529-.031a4.645,4.645,0,0,0,3.112-1.722,4.655,4.655,0,0,0-.545-6.366L374.4,656.248a4.64,4.64,0,0,0-6.311.892,4.651,4.651,0,0,0,.727,6.531,4.618,4.618,0,0,0,2.891,1.011,4.047,4.047,0,0,0,.529-.031,4.567,4.567,0,0,0,3.112-1.722,4.649,4.649,0,0,0-.529-6.35l13.213,10.544L377.48,680.352a4.56,4.56,0,0,0,.837-3.214,4.628,4.628,0,0,0-1.722-3.112,4.65,4.65,0,0,0-7.511,4.154,4.661,4.661,0,0,0,4.6,4.131c.174,0,.348-.016.529-.031a4.64,4.64,0,0,0,2.954-1.532l-10.757,13.482a4.561,4.561,0,1,0-.316.4l-2.741,3.428a11.2,11.2,0,0,0,2.8,16.467l3.7,2.33a4.642,4.642,0,1,0,1.682,6.531,4.63,4.63,0,0,0-1.24-6.255l14.58,9.161a4.649,4.649,0,0,0-4.715,8.008,4.75,4.75,0,0,0,3.507.593,4.652,4.652,0,0,0,1.659-8.324l14.319,9.012-9.027,14.366a4.643,4.643,0,1,0-6.508,1.635,4.516,4.516,0,0,0,2.456.719,4.769,4.769,0,0,0,1.051-.118,4.582,4.582,0,0,0,2.772-1.88l-5.844,9.3a11.2,11.2,0,0,0,18.97,11.918l21.056-33.51a11.125,11.125,0,0,0,1.682-6.832,589.519,589.519,0,0,0,17.367,60.482h33.321a587.492,587.492,0,0,0,17.367-60.482A11.18,11.18,0,0,0,496,738.015l21.063,33.51a11.2,11.2,0,1,0,18.963-11.918l-5.844-9.3a4.622,4.622,0,0,0,2.78,1.88,4.7,4.7,0,0,0,1.043.118,4.545,4.545,0,0,0,2.464-.719,4.642,4.642,0,1,0-4.944-7.858,4.657,4.657,0,0,0-1.571,6.223l-9.027-14.366,14.327-9.012a4.639,4.639,0,0,0,2.693,8.435,4.64,4.64,0,0,0,3.926-7.116,4.653,4.653,0,0,0-6.176-1.6l14.58-9.161a4.651,4.651,0,0,0-1.24,6.255,4.659,4.659,0,0,0,3.941,2.172,4.642,4.642,0,1,0-2.251-8.7l3.7-2.33a11.208,11.208,0,0,0,2.8-16.467l-2.733-3.428a4.689,4.689,0,1,0-.316-.4l-10.757-13.482a4.62,4.62,0,0,0,2.946,1.532c.181.016.355.031.537.031a4.665,4.665,0,1,0-3.791-1.959l-10.56-13.229,13.221-10.544a4.64,4.64,0,0,0-.529,6.35,4.534,4.534,0,0,0,3.112,1.722,3.892,3.892,0,0,0,.529.031,4.643,4.643,0,0,0,3.617-7.542,4.65,4.65,0,0,0-6.318-.892L559.661,645.5a4.665,4.665,0,0,0-1.524,2.946,4.654,4.654,0,0,0,4.1,5.142c.182.016.356.031.529.031a4.646,4.646,0,0,0,4.6-4.13,4.553,4.553,0,0,0-.987-3.412,4.611,4.611,0,0,0-3.112-1.722,3.853,3.853,0,0,0-.521-.031,4.631,4.631,0,0,0-2.693.861l3.436-2.733a11.194,11.194,0,0,0,.932-16.68l-3.088-3.088a4.6,4.6,0,1,0-.379-.371l-12.178-12.178a4.7,4.7,0,1,0-.371-.379L536.441,597.8l11.966-11.965a4.644,4.644,0,1,0,.363-.363l12.195-12.187a4.645,4.645,0,1,0,.363-.363l3.1-3.1a27.611,27.611,0,0,0,6.721-8.98,4.651,4.651,0,1,0,.205-.434,51.006,51.006,0,0,0,4.052-15.551,4.554,4.554,0,0,0,.908,3.049,4.662,4.662,0,0,0,3.056,1.824,6.6,6.6,0,0,0,.679.04,4.651,4.651,0,0,0,3.712-7.424Zm-39.774-44.6a4.641,4.641,0,1,1,0-6.563A4.648,4.648,0,0,1,543.984,497.737Zm-167.372-6.563a4.641,4.641,0,1,1,0,6.563A4.647,4.647,0,0,1,376.611,491.174Zm44.449,231.4-27.966-17.6a4.586,4.586,0,0,1-1.153-6.8l20.59-25.842a11.141,11.141,0,0,0,2.44-7.2,590.531,590.531,0,0,0,10.575,62.875A11.149,11.149,0,0,0,421.061,722.574Zm108.557-20.732a4.61,4.61,0,0,1-2.117,3.135l-27.967,17.6a11.149,11.149,0,0,0-4.486,5.442,590.581,590.581,0,0,0,10.568-62.875,11.149,11.149,0,0,0,2.448,7.2l20.59,25.842A4.622,4.622,0,0,1,529.617,701.842Z" transform="translate(-335.911 -478.364)" fill="#ff893b"/><path d="M470.142,497.322,522.1,559.3h5.205V489.2H521.7V550.38l-51.3-61.177h-5.86v70.1h5.608ZM554.815,559.3h6.066V489.2h-6.066Zm53.872,1.248,29.657-71.35h-5.955l-24.207,58.823L584.188,489.2h-6.168l29.759,71.35Zm85.179-5.963H660.694V526.031h31.315v-4.51H660.694V493.712H693.06V489.2H655.087v70.1h38.779Zm28.2-28.962h5.766a38.556,38.556,0,0,1,8.964.782,10.267,10.267,0,0,1,4.912,2.63,42.99,42.99,0,0,1,3.807,4.676c1.6,2.2,3.514,4.976,5.71,8.348L762.411,559.3h6.358l-19.287-29.57a20.067,20.067,0,0,0-2.812-3.309,19.211,19.211,0,0,0-3.452-2.551c4.47-1.429,7.819-3.578,10.046-6.413a16.88,16.88,0,0,0,3.333-10.725q0-8.459-5.963-13T733.5,489.2H716.461v70.1h5.607Zm0-31.718H733.8q7.961,0,12.3,3.365a11.288,11.288,0,0,1,4.328,9.462A13.876,13.876,0,0,1,748.5,514.3a12.642,12.642,0,0,1-5.789,4.762,18.217,18.217,0,0,1-5.213,1.358,101.486,101.486,0,0,1-11.12.4h-4.312Zm77.321,66.4q9.063,0,14.872-5.395a17.88,17.88,0,0,0,5.821-13.75,18.909,18.909,0,0,0-1.185-6.713,16.932,16.932,0,0,0-3.427-5.615q-3.258-3.649-12.976-7.613c-.671-.269-1.169-.466-1.5-.6q-8.624-3.649-11.231-6.563a10.868,10.868,0,0,1-2.6-7.519,12.221,12.221,0,0,1,4.052-9.391,14.814,14.814,0,0,1,10.425-3.736,22.973,22.973,0,0,1,7.8,1.406,37.083,37.083,0,0,1,8.285,4.352v-6.263a33.814,33.814,0,0,0-7.866-3.475,28.489,28.489,0,0,0-8.016-1.129q-9.063,0-14.706,5.189a17.33,17.33,0,0,0-5.639,13.347,15.783,15.783,0,0,0,3.712,10.8q3.708,4.241,13.782,8.4,9.715,4.063,12.447,7.092a11.175,11.175,0,0,1,2.733,7.8q0,6.445-4.012,10.212t-10.867,3.76a21.9,21.9,0,0,1-8.593-1.88,42.919,42.919,0,0,1-9.4-5.734v6.816a38.54,38.54,0,0,0,9.051,4.652A27.278,27.278,0,0,0,799.389,560.308Zm49.449-71.1H842.78v70.1h6.058Zm65.489,68.538a29.908,29.908,0,0,0,10.22-4.9,33.75,33.75,0,0,0,10.3-12.447,37.433,37.433,0,0,0,0-32.374,33.689,33.689,0,0,0-10.3-12.447,30.248,30.248,0,0,0-10.141-4.833,52.793,52.793,0,0,0-13.656-1.532h-24.3v70.1h24.3A51.825,51.825,0,0,0,914.327,557.741Zm-31.916-3.349V494.265h16.933a54.21,54.21,0,0,1,11.9,1.129,24.882,24.882,0,0,1,8.593,3.578,26.679,26.679,0,0,1,9.193,10.654,34.04,34.04,0,0,1,0,29.38,26.747,26.747,0,0,1-9.193,10.623,25.383,25.383,0,0,1-8.593,3.609,53.6,53.6,0,0,1-11.9,1.153Zm99.964-65.79h-2.259l-30.565,70.7h5.963l10.323-24.4h30.817l10.37,24.4h5.916Zm-14.588,41.535,13.482-31.812L994.7,530.137Zm99.364,27.6a29.9,29.9,0,0,0,10.22-4.9,33.747,33.747,0,0,0,10.3-12.447,37.435,37.435,0,0,0,0-32.374,33.685,33.685,0,0,0-10.3-12.447,30.315,30.315,0,0,0-10.141-4.833,52.832,52.832,0,0,0-13.656-1.532h-24.3v70.1h24.3A51.825,51.825,0,0,0,1067.152,557.741Zm-31.916-3.349V494.265h16.933a54.21,54.21,0,0,1,11.9,1.129,24.823,24.823,0,0,1,8.593,3.578,26.681,26.681,0,0,1,9.193,10.654,34.042,34.042,0,0,1,0,29.38,26.749,26.749,0,0,1-9.193,10.623,25.32,25.32,0,0,1-8.593,3.609,53.6,53.6,0,0,1-11.9,1.153ZM394.661,662.072h53.232V641.521H394.661V610.538h54.764v-20.29H372.658V714.538h78.561V694.074H394.661Zm91.861-61.311H466.011V714.538h72.234v-19.1H486.522Zm162.957,47.4a26.869,26.869,0,0,0,8.277-7.448c3.191-4.51,4.81-10.165,4.81-16.815,0-10.678-3.562-19.081-10.583-24.965-6.895-5.765-16.688-8.688-29.119-8.688h-37.4V714.538H629.34c12.921,0,23.37-3.159,31.047-9.391,7.835-6.358,11.807-14.982,11.807-25.629a31.363,31.363,0,0,0-7.756-21.364A36.765,36.765,0,0,0,649.479,648.164ZM607.455,610.7h13.7c6.634,0,11.436,1.161,14.279,3.444,2.709,2.172,4.028,5.7,4.028,10.773,0,5.615-1.73,9.62-5.268,12.258-3.736,2.772-9.722,4.17-17.81,4.17h-8.933Zm36.725,79.343c-3.365,2.567-8.956,3.862-16.633,3.862H607.455V662.072h17.367c8.609,0,14.919,1.374,18.75,4.083,3.6,2.551,5.347,6.531,5.347,12.17C648.918,683.775,647.371,687.614,644.18,690.046Zm137.7-73.877a59.235,59.235,0,0,0-19.523-12.708,63.643,63.643,0,0,0-46.361-.04,60.836,60.836,0,0,0-19.618,12.731,58.176,58.176,0,0,0-13.158,18.924,55.553,55.553,0,0,0-4.636,22.146,57.528,57.528,0,0,0,17.778,42.151,60.013,60.013,0,0,0,19.508,12.645A61.608,61.608,0,0,0,739,716.481a62.718,62.718,0,0,0,23.275-4.336,61.417,61.417,0,0,0,19.745-12.763,57.572,57.572,0,0,0,13.039-18.813,56.309,56.309,0,0,0,4.6-22.335,56.75,56.75,0,0,0-17.778-42.064Zm-6.839,56.454a38.852,38.852,0,0,1-8.427,12.542,37.527,37.527,0,0,1-12.55,8.475,40.323,40.323,0,0,1-30.044-.071,36.755,36.755,0,0,1-12.479-8.419,38.049,38.049,0,0,1-8.372-12.518,38.574,38.574,0,0,1-2.922-14.864,39.554,39.554,0,0,1,2.922-15.03,36.374,36.374,0,0,1,8.34-12.407,41.278,41.278,0,0,1,12.842-8.562A37.563,37.563,0,0,1,739,618.783a38.687,38.687,0,0,1,14.935,2.946,37.808,37.808,0,0,1,12.518,8.561,40.3,40.3,0,0,1,8.624,12.739,38.021,38.021,0,0,1,2.907,14.738A38.411,38.411,0,0,1,775.04,672.624Zm70.575-25.06-2.3-1.366c-15.638-9.754-17.976-15.377-17.976-17.865a8.765,8.765,0,0,1,3.633-7.258c4.857-3.791,13.458-4.107,21.451-.671a56.475,56.475,0,0,1,12.6,7.992l4.178,3.357V607.324l-1.232-.75a55.321,55.321,0,0,0-12.905-5.9,45.954,45.954,0,0,0-13.134-1.935c-10.03,0-18.378,2.954-24.823,8.782-6.508,5.892-9.809,13.521-9.809,22.675a28.428,28.428,0,0,0,5.181,17.028c3.349,4.66,11.136,10.891,23.812,19.081,9.517,6.034,13.071,9.28,14.382,10.954a11.913,11.913,0,0,1,2.6,7.693,9.889,9.889,0,0,1-3.712,8.214c-2.614,2.117-6.358,3.2-11.12,3.2a26.715,26.715,0,0,1-13.087-3.4c-4.194-2.33-8.7-6.255-13.4-11.642l-4.5-5.157v28.551l.924.766a46.917,46.917,0,0,0,14.382,8.372,50.338,50.338,0,0,0,16.7,2.63c9.983,0,18.315-2.954,24.784-8.775A29.041,29.041,0,0,0,872.1,685.26c0-7.764-1.761-14.413-5.228-19.768C863.417,660.184,856.475,654.324,845.615,647.563Zm140.5,45.982a53.666,53.666,0,0,0,12.637-35.312,56.831,56.831,0,0,0-17.778-42.064,59.318,59.318,0,0,0-19.523-12.708,63.643,63.643,0,0,0-46.361-.04,60.957,60.957,0,0,0-19.626,12.731A58.176,58.176,0,0,0,882.3,635.077a55.688,55.688,0,0,0-4.636,22.146,57.266,57.266,0,0,0,12.479,36.544c8.175,10.283,19.129,17.2,32.563,20.574a147.5,147.5,0,0,0,28.259,16.151c9.1,3.791,17.47,5.71,24.862,5.71,1.051,0,1.817-.008,2.33-.039a13.154,13.154,0,0,0,1.824-.237l.664-.134,16.625-14.437-2.03-5.323-2.117.418c-2.053.395-3.941.7-5.663.9a41.861,41.861,0,0,1-4.644.292,55.643,55.643,0,0,1-13.758-1.856,95.272,95.272,0,0,1-10.48-3.475C969.889,708.2,979.122,701.9,986.111,693.545Zm-11.989-20.922a38.724,38.724,0,0,1-8.427,12.542,39.135,39.135,0,0,1-12.723,8.719,38.345,38.345,0,0,1-29.68-.111,39.393,39.393,0,0,1-12.668-8.624,38.174,38.174,0,0,1-8.372-12.518,38.712,38.712,0,0,1-2.914-14.864,39.4,39.4,0,0,1,2.922-15.03,36.262,36.262,0,0,1,8.34-12.407,41.344,41.344,0,0,1,12.834-8.562,37.631,37.631,0,0,1,14.659-2.985,38.619,38.619,0,0,1,14.927,2.946,37.723,37.723,0,0,1,12.518,8.561,40.3,40.3,0,0,1,8.625,12.739,37.883,37.883,0,0,1,2.906,14.738A38.264,38.264,0,0,1,974.122,672.624Zm113.438.055c0,7.25-2.52,12.905-7.708,17.3-5.244,4.438-12.344,6.689-21.1,6.689a35.775,35.775,0,0,1-14-2.591,28,28,0,0,1-10.441-7.74,16.74,16.74,0,0,1-3.254-6.547c-.7-2.67-1.042-7.416-1.042-14.106V600.761h-20.59v65.544c0,8.909.608,15.393,1.84,19.808a32.86,32.86,0,0,0,6.421,12.171,46.983,46.983,0,0,0,17.739,13.592,57.394,57.394,0,0,0,23.323,4.6c14.5,0,26.458-4.012,35.541-11.934,9.193-8,13.853-18.568,13.853-31.4V600.761h-20.59Zm57.923,22.754V666.7h48.54V647.516h-48.54v-27.8h49.938V600.761H1124.98V714.538h72.076v-19.1Zm-739.551-130.1q15.33,0,24.373-9.533t9.051-25.787V483.169h-6.745v47.19q0,12.96-7.258,20.6t-19.421,7.637q-12.155,0-19.421-7.637t-7.258-20.6v-47.19h-6.563v46.843q0,16.313,8.98,25.818T405.932,565.331Z" transform="translate(-82.431 -445.22)" fill="#394024"/></g><path d="M7.28-45.5c-.845,0-1.105.325-1.105,1.17V-1.105C6.175-.26,6.5,0,7.28,0H23.4A22.316,22.316,0,0,0,46.085-22.75,22.316,22.316,0,0,0,23.4-45.5Zm16.055,5.135c10.14,0,16.64,8.255,16.64,17.615s-6.5,17.615-16.64,17.615H12.22v-35.23ZM81.25-7.15c-.52-.65-.845-.52-1.625-.065a18.014,18.014,0,0,1-9.75,2.99,11.771,11.771,0,0,1-11.7-10.335h26.2c.91,0,1.04-.325,1.04-1.17,0-9.75-5.785-18.07-16.055-18.07A17.2,17.2,0,0,0,52.26-16.51,17.215,17.215,0,0,0,69.68.715c4.745,0,10.075-1.56,13.13-4.55.52-.52.455-.91-.065-1.56ZM58.305-18.46a11.094,11.094,0,0,1,10.92-10.53c6.24,0,10.01,5.265,10.335,10.53ZM99.645-6.37A12.953,12.953,0,0,0,111.28.715c9.035,0,15.015-7.735,15.015-17.225,0-9.36-5.98-17.29-15.015-17.29-7.215,0-10.725,4.745-12.545,7.28l-.65-5.395c-.39-.845-.65-1.17-1.3-1.17H95.03c-.845,0-1.105.26-1.105,1.17v44.07c0,.845.26,1.1,1.105,1.1h3.51c.845,0,1.105-.26,1.105-1.1ZM110.11-28.73c6.3,0,10.465,5.4,10.465,12.22,0,6.435-4.16,12.09-10.465,12.09-6.37,0-10.53-5.915-10.53-12.155C99.58-22.75,103.74-28.73,110.11-28.73Zm27.235.975a47.862,47.862,0,0,1,9.88-1.04c6.565,0,8.645,2.8,8.645,10.27a30.1,30.1,0,0,0-10.205-2.08c-7.67,0-13.065,3.445-13.065,10.53S137.995.715,144.1.715a15.977,15.977,0,0,0,12.74-5.785l.325,3.965c.26.845.52,1.105,1.17,1.105h2.145c.845,0,1.1-.26,1.1-1.105v-17.03c0-10.595-2.73-15.665-14.17-15.665a61.076,61.076,0,0,0-11.245,1.235c-.845.195-.975.585-.78,1.43l.585,2.275C136.24-27.95,136.435-27.625,137.345-27.755ZM146.9-16.38a22.38,22.38,0,0,1,8.97,2.08V-9.3c-2.015,2.8-5.915,5.59-10.01,5.59-5.005,0-7.605-2.86-7.605-6.37C138.255-14.04,141.115-16.38,146.9-16.38Zm42.965-11.765c.845,0,1.105-.195,1.3-1.04l.52-3.575c.13-.715,0-1.04-1.04-1.04-8.84,0-11.7,5-13.195,7.93l-.975-6.045c-.39-.845-.65-1.17-1.3-1.17h-1.82c-.845,0-1.1.26-1.1,1.17v30.81c0,.845.26,1.105,1.1,1.105h3.51c.845,0,1.105-.26,1.105-1.105V-16.77C177.97-22.555,181.74-28.145,189.865-28.145Zm28.47,27.3c.65-.39.715-.65.52-1.43l-.455-2.47c-.26-1.04-.455-1.105-1.43-.585a8.263,8.263,0,0,1-4.29.91c-4.81,0-6.955-2.665-6.955-9.685v-14.3H216.84c.91,0,1.17-.26,1.17-1.17v-2.34c0-.91-.325-1.17-1.17-1.17H205.725V-39.65c0-.91-.26-1.17-1.17-1.17h-3.38c-.91,0-1.17.325-1.17,1.17v6.565H197.08c-.845,0-1.1.26-1.1,1.17v2.34c0,.91.26,1.17,1.1,1.17h2.925v14.69c0,9.035,3.51,14.43,12.09,14.43A12.16,12.16,0,0,0,218.335-.845Zm11.18-26.91a47.862,47.862,0,0,1,9.88-1.04c6.565,0,8.645,2.8,8.645,10.27a30.1,30.1,0,0,0-10.205-2.08c-7.67,0-13.065,3.445-13.065,10.53s5.4,10.79,11.505,10.79a15.977,15.977,0,0,0,12.74-5.785l.325,3.965C249.6-.26,249.86,0,250.51,0h2.145c.845,0,1.1-.26,1.1-1.105v-17.03c0-10.595-2.73-15.665-14.17-15.665a61.076,61.076,0,0,0-11.245,1.235c-.845.195-.975.585-.78,1.43l.585,2.275C228.41-27.95,228.6-27.625,229.515-27.755ZM239.07-16.38a22.38,22.38,0,0,1,8.97,2.08V-9.3c-2.015,2.8-5.915,5.59-10.01,5.59-5.005,0-7.605-2.86-7.605-6.37C230.425-14.04,233.285-16.38,239.07-16.38Zm51.155-9.945A11.786,11.786,0,0,0,279.3-33.8c-5.915,0-8.775,4.55-10.2,7.28l-.65-5.395c-.325-.845-.585-1.17-1.235-1.17H265.33c-.78,0-1.1.26-1.1,1.17v30.81c0,.845.325,1.105,1.1,1.105h3.51c.845,0,1.105-.26,1.105-1.105V-17.29c0-6.695,2.925-11.31,7.995-11.31s7.995,4.29,7.995,10.985v16.51c0,.845.26,1.105,1.105,1.105h3.51c.845,0,1.105-.26,1.105-1.105v-16.51c0-6.89,3.25-10.985,7.93-10.985,4.485,0,7.995,3.51,7.995,10.985v16.51c0,.845.26,1.105,1.105,1.105h3.51c.845,0,1.1-.26,1.1-1.105v-17.94c0-10.66-5.72-14.755-12.35-14.755C295.035-33.8,291.72-29.185,290.225-26.325ZM349.635-7.15c-.52-.65-.845-.52-1.625-.065a18.014,18.014,0,0,1-9.75,2.99,11.771,11.771,0,0,1-11.7-10.335h26.2c.91,0,1.04-.325,1.04-1.17,0-9.75-5.785-18.07-16.055-18.07a17.2,17.2,0,0,0-17.1,17.29A17.215,17.215,0,0,0,338.065.715c4.745,0,10.075-1.56,13.13-4.55.52-.52.455-.91-.065-1.56ZM326.69-18.46a11.094,11.094,0,0,1,10.92-10.53c6.24,0,10.01,5.265,10.335,10.53Zm40.17-13.455c-.39-.845-.65-1.17-1.3-1.17h-1.82c-.845,0-1.105.26-1.105,1.17v30.81c0,.845.26,1.105,1.105,1.105h3.51c.845,0,1.1-.26,1.1-1.105V-17.29c0-6.37,3.25-11.31,8.58-11.31,5.07,0,8.515,3.51,8.515,10.985v16.51c0,.845.26,1.105,1.105,1.105h3.51c.845,0,1.1-.26,1.1-1.105v-17.94c0-10.66-5.785-14.755-12.8-14.755-6.11,0-9.295,4.55-10.855,7.15ZM421.005-.845c.65-.39.715-.65.52-1.43l-.455-2.47c-.26-1.04-.455-1.105-1.43-.585a8.263,8.263,0,0,1-4.29.91c-4.81,0-6.955-2.665-6.955-9.685v-14.3H419.51c.91,0,1.17-.26,1.17-1.17v-2.34c0-.91-.325-1.17-1.17-1.17H408.395V-39.65c0-.91-.26-1.17-1.17-1.17h-3.38c-.91,0-1.17.325-1.17,1.17v6.565H399.75c-.845,0-1.105.26-1.105,1.17v2.34c0,.91.26,1.17,1.105,1.17h2.925v14.69c0,9.035,3.51,14.43,12.09,14.43A12.16,12.16,0,0,0,421.005-.845ZM427.05-16.51A17.2,17.2,0,0,0,444.21.715,17.144,17.144,0,0,0,461.3-16.51a17.2,17.2,0,0,0-17.1-17.29A17.255,17.255,0,0,0,427.05-16.51ZM444.21-4.355c-6.37,0-11.44-5.33-11.44-12.155,0-6.76,5.07-12.09,11.44-12.09,6.3,0,11.44,5.33,11.44,12.09C455.65-9.685,450.515-4.355,444.21-4.355Zm66.235-22.36A13.069,13.069,0,0,0,498.81-33.8c-9.035,0-15.015,7.8-15.015,17.29,0,9.36,5.98,17.225,15.015,17.225,7.215,0,10.725-4.745,12.545-7.28l.65,5.46c.39.78.65,1.105,1.3,1.105h1.755c.845,0,1.1-.26,1.1-1.105V-46.8c0-.91-.26-1.17-1.1-1.17h-3.51c-.845,0-1.1.325-1.1,1.17ZM499.98-4.355c-6.3,0-10.465-5.33-10.465-12.155,0-6.435,4.16-12.09,10.465-12.09,6.37,0,10.53,5.85,10.53,12.09S506.35-4.355,499.98-4.355Zm54.015-2.8c-.52-.65-.845-.52-1.625-.065a18.014,18.014,0,0,1-9.75,2.99,11.771,11.771,0,0,1-11.7-10.335h26.195c.91,0,1.04-.325,1.04-1.17,0-9.75-5.785-18.07-16.055-18.07a17.2,17.2,0,0,0-17.1,17.29A17.215,17.215,0,0,0,542.425.715c4.745,0,10.075-1.56,13.13-4.55.52-.52.455-.91-.065-1.56ZM531.05-18.46a11.1,11.1,0,0,1,10.92-10.53c6.24,0,10.01,5.265,10.335,10.53Zm53.5-27.04c-.845,0-1.105.325-1.105,1.17V-1.105c0,.845.325,1.105,1.105,1.105h16.12A22.316,22.316,0,0,0,623.35-22.75,22.316,22.316,0,0,0,600.665-45.5ZM600.6-40.365c10.14,0,16.64,8.255,16.64,17.615S610.74-5.135,600.6-5.135H589.485v-35.23ZM658.515-7.15c-.52-.65-.845-.52-1.625-.065a18.014,18.014,0,0,1-9.75,2.99,11.771,11.771,0,0,1-11.7-10.335h26.195c.91,0,1.04-.325,1.04-1.17,0-9.75-5.785-18.07-16.055-18.07a17.2,17.2,0,0,0-17.1,17.29A17.215,17.215,0,0,0,646.945.715c4.745,0,10.075-1.56,13.13-4.55.52-.52.455-.91-.065-1.56ZM635.57-18.46a11.1,11.1,0,0,1,10.92-10.53c6.24,0,10.01,5.265,10.335,10.53ZM681.85-3.835A18.355,18.355,0,0,1,671.19-7.41c-.91-.65-1.17-.26-1.56.455l-1.1,1.95c-.39.715-.455,1.105.26,1.56a24.848,24.848,0,0,0,13.39,4.16c8.385,0,13.455-4.29,13.455-10.335,0-6.5-6.11-8.645-12.675-9.49-5.59-.845-8.71-1.495-8.71-4.68,0-3.315,2.4-5.46,7.6-5.46,4.16,0,6.63,1.1,9.88,3.12.845.52,1.17.2,1.56-.52l1.04-1.885c.325-.65.52-1.1-.325-1.625a24.239,24.239,0,0,0-12.48-3.64c-7.735,0-12.675,4.03-12.675,10.27,0,6.89,6.045,8.58,12.61,9.425,5.59.78,8.71,2.145,8.71,4.745C690.17-6.305,687.7-3.835,681.85-3.835Zm24.83-23.92a47.861,47.861,0,0,1,9.88-1.04c6.565,0,8.645,2.8,8.645,10.27A30.1,30.1,0,0,0,715-20.6c-7.67,0-13.065,3.445-13.065,10.53S707.33.715,713.44.715A15.977,15.977,0,0,0,726.18-5.07l.325,3.965c.26.845.52,1.105,1.17,1.105h2.145c.845,0,1.1-.26,1.1-1.105v-17.03c0-10.595-2.73-15.665-14.17-15.665a61.076,61.076,0,0,0-11.245,1.235c-.845.195-.975.585-.78,1.43l.585,2.275C705.575-27.95,705.77-27.625,706.68-27.755Zm9.555,11.375a22.38,22.38,0,0,1,8.97,2.08V-9.3C723.19-6.5,719.29-3.7,715.2-3.7c-5.005,0-7.605-2.86-7.605-6.37C707.59-14.04,710.45-16.38,716.235-16.38ZM759.2-28.145c.845,0,1.105-.195,1.3-1.04l.52-3.575c.13-.715,0-1.04-1.04-1.04-8.84,0-11.7,5-13.2,7.93l-.975-6.045c-.39-.845-.65-1.17-1.3-1.17h-1.82c-.845,0-1.105.26-1.105,1.17v30.81c0,.845.26,1.105,1.105,1.105h3.51c.845,0,1.105-.26,1.105-1.105V-16.77C747.3-22.555,751.075-28.145,759.2-28.145Zm26.975,0c.845,0,1.105-.195,1.3-1.04l.52-3.575c.13-.715,0-1.04-1.04-1.04-8.84,0-11.7,5-13.2,7.93l-.975-6.045c-.39-.845-.65-1.17-1.3-1.17h-1.82c-.845,0-1.105.26-1.105,1.17v30.81c0,.845.26,1.105,1.105,1.105h3.51c.845,0,1.105-.26,1.105-1.105V-16.77C774.28-22.555,778.05-28.145,786.175-28.145Zm5.33,11.635A17.2,17.2,0,0,0,808.665.715,17.144,17.144,0,0,0,825.76-16.51,17.2,17.2,0,0,0,808.665-33.8,17.255,17.255,0,0,0,791.505-16.51Zm17.16,12.155c-6.37,0-11.44-5.33-11.44-12.155,0-6.76,5.07-12.09,11.44-12.09,6.3,0,11.44,5.33,11.44,12.09C820.105-9.685,814.97-4.355,808.665-4.355Zm26.52,3.25c0,.845.26,1.105,1.17,1.105H839.8c.845,0,1.105-.26,1.105-1.105V-46.8c0-.845-.2-1.17-1.105-1.17h-3.445c-.91,0-1.17.26-1.17,1.17Zm18.525,0c0,.845.26,1.105,1.17,1.105h3.445c.845,0,1.105-.26,1.105-1.105V-46.8c0-.845-.2-1.17-1.105-1.17H854.88c-.91,0-1.17.26-1.17,1.17ZM868.855-16.51A17.2,17.2,0,0,0,886.015.715,17.144,17.144,0,0,0,903.11-16.51,17.2,17.2,0,0,0,886.015-33.8,17.255,17.255,0,0,0,868.855-16.51Zm17.16,12.155c-6.37,0-11.44-5.33-11.44-12.155,0-6.76,5.07-12.09,11.44-12.09,6.3,0,11.44,5.33,11.44,12.09C897.455-9.685,892.32-4.355,886.015-4.355ZM12.22,57.655H35.685c.845,0,1.17-.26,1.17-1.1V53.56c0-.845-.26-1.1-1.17-1.1H12.22V37.765H36.27c.845,0,1.17-.325,1.17-1.17V33.67c0-.845-.26-1.17-1.17-1.17H7.28c-.845,0-1.105.325-1.105,1.17V76.895c0,.845.26,1.105,1.105,1.105h3.835c.845,0,1.1-.26,1.1-1.105Zm33.605,19.24c0,.845.26,1.105,1.17,1.105H50.44c.845,0,1.1-.26,1.1-1.105V46.085c0-.845-.195-1.17-1.1-1.17H47c-.91,0-1.17.26-1.17,1.17ZM56.745,34.71c.65-.52.65-.845.325-1.495L55.64,30.94c-.455-.715-1.04-.91-1.56-.26l-8.06,8.58c-.845.91-.585,1.3.13,1.3h3.12a2.669,2.669,0,0,0,1.82-.715Zm18.07,39.455a18.354,18.354,0,0,1-10.66-3.575c-.91-.65-1.17-.26-1.56.455L61.49,73c-.39.715-.455,1.1.26,1.56a24.848,24.848,0,0,0,13.39,4.16c8.385,0,13.455-4.29,13.455-10.335,0-6.5-6.11-8.645-12.675-9.49-5.59-.845-8.71-1.495-8.71-4.68,0-3.315,2.4-5.46,7.605-5.46,4.16,0,6.63,1.1,9.88,3.12.845.52,1.17.2,1.56-.52l1.04-1.885c.325-.65.52-1.1-.325-1.625A24.24,24.24,0,0,0,74.49,44.2c-7.735,0-12.675,4.03-12.675,10.27,0,6.89,6.045,8.58,12.61,9.425,5.59.78,8.71,2.145,8.71,4.745C83.135,71.695,80.665,74.165,74.815,74.165Zm23.92,2.73C98.735,77.74,99,78,99.9,78h3.445c.845,0,1.105-.26,1.105-1.105V46.085c0-.845-.195-1.17-1.105-1.17H99.9c-.91,0-1.17.26-1.17,1.17Zm-.975-42.64a3.773,3.773,0,0,0,3.77,3.77,3.829,3.829,0,0,0,3.835-3.77,3.885,3.885,0,0,0-3.835-3.835A3.829,3.829,0,0,0,97.76,34.255ZM131.82,73.58c-6.305,0-11.44-5.265-11.44-12.09,0-6.76,5.135-12.09,11.44-12.09a12.043,12.043,0,0,1,8.515,3.315c.65.585,1.04.455,1.625-.195l1.82-1.95c.52-.65.585-.975.065-1.495A16.907,16.907,0,0,0,131.82,44.2a17.258,17.258,0,0,0,0,34.515,16.639,16.639,0,0,0,12.025-4.875c.52-.52.455-.78-.065-1.43l-1.82-2.015c-.585-.585-.975-.78-1.625-.195A12.1,12.1,0,0,1,131.82,73.58ZM149.7,61.49a17.128,17.128,0,1,0,17.16-17.29A17.2,17.2,0,0,0,149.7,61.49Zm17.16,12.155c-6.37,0-11.44-5.33-11.44-12.155,0-6.76,5.07-12.09,11.44-12.09,6.305,0,11.44,5.33,11.44,12.09C178.295,68.315,173.16,73.645,166.855,73.645ZM220.48,69.42l-.065.065-10.335-23.4c-.455-.91-.78-1.17-1.5-1.17h-4.03c-.78,0-.975.325-.585,1.17L217.36,75.92l-6.37,14.235c-.39.845-.195,1.105.585,1.105h4.03c.715,0,1.04-.195,1.495-1.105l19.7-44.07c.39-.91.195-1.17-.585-1.17h-4.03c-.715,0-1.04.26-1.495,1.17Zm84.175-23.985,3.445,31.46c.065.845.26,1.105,1.1,1.105h3.835c.845,0,1.17-.325,1.1-1.105l-5.46-44.655c-.065-.455-.13-.585-.585-.585h-.39c-.26,0-.52.13-.78.585l-20.865,37.9L265.2,32.24c-.325-.455-.52-.585-.78-.585h-.455c-.455,0-.52.13-.585.585l-5.46,44.655c-.13.78.26,1.105,1.105,1.105h3.835c.845,0,.975-.26,1.105-1.105l3.64-31.33L284.44,77.74c.455.715.78,1.105,1.3,1.105h.585c.52,0,.845-.39,1.3-1.105Zm21.97,4.81a47.861,47.861,0,0,1,9.88-1.04c6.565,0,8.645,2.795,8.645,10.27a30.1,30.1,0,0,0-10.2-2.08c-7.67,0-13.065,3.445-13.065,10.53s5.395,10.79,11.505,10.79a15.977,15.977,0,0,0,12.74-5.785l.325,3.965c.26.845.52,1.105,1.17,1.105h2.145c.845,0,1.105-.26,1.105-1.105V59.865c0-10.595-2.73-15.665-14.17-15.665a61.077,61.077,0,0,0-11.245,1.235c-.845.195-.975.585-.78,1.43l.585,2.275C325.52,50.05,325.715,50.375,326.625,50.245ZM336.18,61.62a22.38,22.38,0,0,1,8.97,2.08v5.005c-2.015,2.795-5.915,5.59-10.01,5.59-5,0-7.6-2.86-7.6-6.37C327.535,63.96,330.395,61.62,336.18,61.62Zm29.575-15.535c-.39-.845-.65-1.17-1.3-1.17h-1.82c-.845,0-1.105.26-1.105,1.17v30.81c0,.845.26,1.105,1.105,1.105h3.51c.845,0,1.1-.26,1.1-1.105V60.71c0-6.37,3.25-11.31,8.58-11.31,5.07,0,8.515,3.51,8.515,10.985v16.51c0,.845.26,1.105,1.105,1.105h3.51c.845,0,1.1-.26,1.1-1.105V58.955c0-10.66-5.785-14.755-12.8-14.755-6.11,0-9.295,4.55-10.855,7.15ZM419.9,77.155c.65-.39.715-.65.52-1.43l-.455-2.47c-.26-1.04-.455-1.1-1.43-.585a8.263,8.263,0,0,1-4.29.91c-4.81,0-6.955-2.665-6.955-9.685V49.6H418.4c.91,0,1.17-.26,1.17-1.17v-2.34c0-.91-.325-1.17-1.17-1.17H407.29V38.35c0-.91-.26-1.17-1.17-1.17h-3.38c-.91,0-1.17.325-1.17,1.17v6.565h-2.925c-.845,0-1.105.26-1.105,1.17v2.34c0,.91.26,1.17,1.105,1.17h2.925v14.69c0,9.035,3.51,14.43,12.09,14.43A12.16,12.16,0,0,0,419.9,77.155Zm35.23-6.305c-.52-.65-.845-.52-1.625-.065a18.014,18.014,0,0,1-9.75,2.99,11.771,11.771,0,0,1-11.7-10.335h26.2c.91,0,1.04-.325,1.04-1.17,0-9.75-5.785-18.07-16.055-18.07a17.258,17.258,0,0,0,.325,34.515c4.745,0,10.075-1.56,13.13-4.55.52-.52.455-.91-.065-1.56ZM432.185,59.54A11.094,11.094,0,0,1,443.1,49.01c6.24,0,10.01,5.265,10.335,10.53Zm40.17-13.455c-.39-.845-.65-1.17-1.3-1.17h-1.82c-.845,0-1.105.26-1.105,1.17v30.81c0,.845.26,1.105,1.105,1.105h3.51c.845,0,1.1-.26,1.1-1.105V60.71c0-6.37,3.25-11.31,8.58-11.31,5.07,0,8.515,3.51,8.515,10.985v16.51c0,.845.26,1.105,1.105,1.105h3.51c.845,0,1.1-.26,1.1-1.105V58.955c0-10.66-5.785-14.755-12.8-14.755-6.11,0-9.295,4.55-10.855,7.15Zm36.205,30.81c0,.845.26,1.105,1.17,1.105h3.445c.845,0,1.1-.26,1.1-1.105V46.085c0-.845-.195-1.17-1.1-1.17H509.73c-.91,0-1.17.26-1.17,1.17Zm-.975-42.64a3.773,3.773,0,0,0,3.77,3.77,3.829,3.829,0,0,0,3.835-3.77,3.885,3.885,0,0,0-3.835-3.835A3.829,3.829,0,0,0,507.585,34.255Zm45.955,17.42A11.786,11.786,0,0,0,542.62,44.2c-5.915,0-8.775,4.55-10.205,7.28l-.65-5.4c-.325-.845-.585-1.17-1.235-1.17h-1.885c-.78,0-1.105.26-1.105,1.17v30.81c0,.845.325,1.105,1.105,1.105h3.51c.845,0,1.105-.26,1.105-1.105V60.71c0-6.695,2.925-11.31,7.995-11.31s7.995,4.29,7.995,10.985v16.51c0,.845.26,1.105,1.1,1.105h3.51c.845,0,1.1-.26,1.1-1.105V60.385c0-6.89,3.25-10.985,7.93-10.985,4.485,0,7.995,3.51,7.995,10.985v16.51c0,.845.26,1.105,1.1,1.105h3.51c.845,0,1.1-.26,1.1-1.105V58.955c0-10.66-5.72-14.755-12.35-14.755C558.35,44.2,555.035,48.815,553.54,51.675Zm34.97,25.22c0,.845.26,1.105,1.17,1.105h3.445c.845,0,1.1-.26,1.1-1.105V46.085c0-.845-.2-1.17-1.1-1.17H589.68c-.91,0-1.17.26-1.17,1.17Zm-.975-42.64a3.773,3.773,0,0,0,3.77,3.77,3.829,3.829,0,0,0,3.835-3.77A3.885,3.885,0,0,0,591.3,30.42,3.829,3.829,0,0,0,587.535,34.255ZM633.49,70.85c-.52-.65-.845-.52-1.625-.065a18.014,18.014,0,0,1-9.75,2.99,11.771,11.771,0,0,1-11.7-10.335H636.61c.91,0,1.04-.325,1.04-1.17,0-9.75-5.785-18.07-16.055-18.07a17.258,17.258,0,0,0,.325,34.515c4.745,0,10.075-1.56,13.13-4.55.52-.52.455-.91-.065-1.56ZM610.545,59.54a11.1,11.1,0,0,1,10.92-10.53c6.24,0,10.01,5.265,10.335,10.53Zm40.17-13.455c-.39-.845-.65-1.17-1.3-1.17H647.6c-.845,0-1.105.26-1.105,1.17v30.81c0,.845.26,1.105,1.105,1.105h3.51c.845,0,1.105-.26,1.105-1.105V60.71c0-6.37,3.25-11.31,8.58-11.31,5.07,0,8.515,3.51,8.515,10.985v16.51c0,.845.26,1.105,1.1,1.105h3.51c.845,0,1.105-.26,1.105-1.105V58.955c0-10.66-5.785-14.755-12.8-14.755-6.11,0-9.3,4.55-10.855,7.15Zm54.145,31.07c.65-.39.715-.65.52-1.43l-.455-2.47c-.26-1.04-.455-1.1-1.43-.585a8.263,8.263,0,0,1-4.29.91c-4.81,0-6.955-2.665-6.955-9.685V49.6h11.115c.91,0,1.17-.26,1.17-1.17v-2.34c0-.91-.325-1.17-1.17-1.17H692.25V38.35c0-.91-.26-1.17-1.17-1.17H687.7c-.91,0-1.17.325-1.17,1.17v6.565h-2.925c-.845,0-1.105.26-1.105,1.17v2.34c0,.91.26,1.17,1.105,1.17h2.925v14.69c0,9.035,3.51,14.43,12.09,14.43A12.16,12.16,0,0,0,704.86,77.155ZM710.9,61.49a17.128,17.128,0,1,0,17.16-17.29A17.2,17.2,0,0,0,710.9,61.49Zm17.16,12.155c-6.37,0-11.44-5.33-11.44-12.155,0-6.76,5.07-12.09,11.44-12.09,6.3,0,11.44,5.33,11.44,12.09C739.505,68.315,734.37,73.645,728.065,73.645Z" transform="translate(728.254 1070.095)" fill="#394024"/><rect width="165.582" height="20.508" transform="translate(734.694 930.126)" fill="#394024"/><line y2="815.589" transform="translate(1683.394 462.626)" stroke-dasharray="0 4.242" stroke="#7eaf00" stroke-linecap="round" stroke-miterlimit="10" stroke-width="3" fill="none"/></g></g></svg>