<svg xmlns="http://www.w3.org/2000/svg" xmlns:xlink="http://www.w3.org/1999/xlink" width="1648" height="1535" viewBox="0 0 1648 1535"><defs><clipPath id="b"><rect width="1648" height="1535"/></clipPath></defs><g id="a" clip-path="url(#b)"><rect width="1517.961" height="1414" transform="translate(65 61)" stroke-dasharray="0 4" stroke="#7eaf00" stroke-linecap="round" stroke-miterlimit="10" stroke-width="3" fill="none"/><line y1="142.76" transform="translate(823.98 61)" fill="none" stroke="#7eaf00" stroke-linecap="round" stroke-miterlimit="10" stroke-width="3"/><line x2="24.141" transform="translate(811.908 61)" fill="none" stroke="#7eaf00" stroke-linecap="round" stroke-miterlimit="10" stroke-width="3"/><line x2="24.141" transform="translate(811.908 203.76)" fill="none" stroke="#7eaf00" stroke-linecap="round" stroke-miterlimit="10" stroke-width="3"/><line y1="142.76" transform="translate(823.98 1332.24)" fill="none" stroke="#7eaf00" stroke-linecap="round" stroke-miterlimit="10" stroke-width="3"/><line x2="24.141" transform="translate(811.908 1332.24)" fill="none" stroke="#7eaf00" stroke-linecap="round" stroke-miterlimit="10" stroke-width="3"/><line x2="24.141" transform="translate(811.908 1475)" fill="none" stroke="#7eaf00" stroke-linecap="round" stroke-miterlimit="10" stroke-width="3"/><line x2="142.76" transform="translate(207.756 768)" fill="none" stroke="#7eaf00" stroke-linecap="round" stroke-miterlimit="10" stroke-width="3"/><line y2="24.145" transform="translate(350.516 755.927)" fill="none" stroke="#7eaf00" stroke-linecap="round" stroke-miterlimit="10" stroke-width="3"/><line y2="24.145" transform="translate(207.756 755.927)" fill="none" stroke="#7eaf00" stroke-linecap="round" stroke-miterlimit="10" stroke-width="3"/><line x2="142.756" transform="translate(65 768)" fill="none" stroke="#7eaf00" stroke-linecap="round" stroke-miterlimit="10" stroke-width="3"/><line y2="24.145" transform="translate(207.756 755.927)" fill="none" stroke="#7eaf00" stroke-linecap="round" stroke-miterlimit="10" stroke-width="3"/><line y2="24.145" transform="translate(65 755.927)" fill="none" stroke="#7eaf00" stroke-linecap="round" stroke-miterlimit="10" stroke-width="3"/><line x2="142.76" transform="translate(1297.44 768)" fill="none" stroke="#7eaf00" stroke-linecap="round" stroke-miterlimit="10" stroke-width="3"/><line y2="24.145" transform="translate(1440.2 755.927)" fill="none" stroke="#7eaf00" stroke-linecap="round" stroke-miterlimit="10" stroke-width="3"/><line y2="24.145" transform="translate(1297.44 755.927)" fill="none" stroke="#7eaf00" stroke-linecap="round" stroke-miterlimit="10" stroke-width="3"/><line x2="142.76" transform="translate(1440.2 768)" fill="none" stroke="#7eaf00" stroke-linecap="round" stroke-miterlimit="10" stroke-width="3"/><line y2="24.145" transform="translate(1582.96 755.927)" fill="none" stroke="#7eaf00" stroke-linecap="round" stroke-miterlimit="10" stroke-width="3"/><line y2="24.145" transform="translate(1440.2 755.927)" fill="none" stroke="#7eaf00" stroke-linecap="round" stroke-miterlimit="10" stroke-width="3"/><text transform="translate(852.316 155.037)" fill="#7eaf00" font-size="81" font-family="AcherusGrotesque-Regular, Acherus Grotesque"><tspan x="0" y="0">x</tspan></text><text transform="translate(852.316 1426.277)" fill="#7eaf00" font-size="81" font-family="AcherusGrotesque-Regular, Acherus Grotesque"><tspan x="0" y="0">x</tspan></text><text transform="translate(278.373 710.859)" fill="#7eaf00" font-size="64" font-family="AcherusGrotesque-Regular, Acherus Grotesque"><tspan x="-15.488" y="0">x</tspan></text><text transform="translate(135.613 710.859)" fill="#7eaf00" font-size="64" font-family="AcherusGrotesque-Regular, Acherus Grotesque"><tspan x="-15.488" y="0">x</tspan></text><text transform="translate(1368.062 710.859)" fill="#7eaf00" font-size="64" font-family="AcherusGrotesque-Regular, Acherus Grotesque"><tspan x="-15.488" y="0">x</tspan></text><text transform="translate(1510.818 710.859)" fill="#7eaf00" font-size="64" font-family="AcherusGrotesque-Regular, Acherus Grotesque"><tspan x="-15.488" y="0">x</tspan></text><rect width="946.917" height="1128.464" transform="translate(350.52 203.767)" stroke-dasharray="0 4.882" stroke="#7eaf00" stroke-linecap="round" stroke-miterlimit="10" stroke-width="3" fill="none"/><path d="M860.718,395.443a8.88,8.88,0,0,0-5.856-3.476,9.765,9.765,0,0,0-1.269-.087,8.89,8.89,0,0,0-8.756,7.417l.047-.441a123.282,123.282,0,0,0-.457-30.683,8.9,8.9,0,0,0,8.7,7.125,8.957,8.957,0,0,0,1.293-.087,8.9,8.9,0,0,0-1.269-17.7,8.684,8.684,0,0,0-1.269.094,8.907,8.907,0,0,0-7.59,9.6,114.931,114.931,0,0,0-8.638-29.666,9,9,0,1,0-.386-.883c-15.605-34.237-47.683-58.978-88.454-63.367-13.146-1.419-20.334,2.459-23.976,5.785-7.3,6.644-7.724,16.654-1.174,25.236l69.625,88.36a21.447,21.447,0,0,1-1.49,28.673l-65.125,65.117a21.444,21.444,0,0,0,0,30.328l44.712,44.759a8.781,8.781,0,0,1-.741,13.17l-49.441,39.471a21.364,21.364,0,0,0-7.629,12.437,1144.747,1144.747,0,0,0,6.817-125A1143.992,1143.992,0,0,0,708.8,353.585H665.367a1145.38,1145.38,0,0,1,9.592,148.038A1133.886,1133.886,0,0,1,624.375,837.4a1133.886,1133.886,0,0,1-50.584-335.776,1145.424,1145.424,0,0,1,9.592-148.038H539.948a1148.2,1148.2,0,0,0-2.774,273.039,21.324,21.324,0,0,0-7.629-12.437L480.1,574.716a8.781,8.781,0,0,1-.741-13.17l44.712-44.759a21.444,21.444,0,0,0,0-30.328L458.95,421.342a21.448,21.448,0,0,1-1.49-28.673l69.625-88.36c6.557-8.583,6.124-18.593-1.167-25.236-3.649-3.326-10.829-7.2-23.983-5.785-40.771,4.39-72.849,29.13-88.446,63.367a8.876,8.876,0,1,0-8.3,5.7,8.964,8.964,0,0,0,7.905-4.816,114.928,114.928,0,0,0-8.63,29.666,8.907,8.907,0,0,0-7.59-9.6,8.793,8.793,0,0,0-1.277-.094,8.9,8.9,0,0,0-1.269,17.7,9.031,9.031,0,0,0,1.293.087,8.9,8.9,0,0,0,8.7-7.125,122.916,122.916,0,0,0-.449,30.683c.016.15.031.292.047.441a8.9,8.9,0,0,0-8.764-7.417,9.856,9.856,0,0,0-1.269.087,8.889,8.889,0,0,0-7.535,10.072,8.891,8.891,0,0,0,17.678-1.773c1.552,13.1,4.453,22.667,7.747,29.769a8.9,8.9,0,1,0-7.826,13.091,8.883,8.883,0,0,0,8.212-12.263,52.961,52.961,0,0,0,12.871,17.2l5.927,5.927a8.9,8.9,0,1,0,2.963,6.628,8.814,8.814,0,0,0-2.262-5.927L455,478.018a8.946,8.946,0,1,0,.694.7l22.9,22.9-22.9,22.888a8.758,8.758,0,1,0-.717.725l-23.313,23.306a8.788,8.788,0,1,0-.717.725l-5.919,5.919a21.414,21.414,0,0,0,1.789,31.92l6.565,5.241a8.759,8.759,0,0,0-5.138-1.655,8.856,8.856,0,0,0-6.967,3.349,8.748,8.748,0,0,0-1.884,6.542,8.891,8.891,0,1,0,14.754-7.637l25.788,20.571a8.9,8.9,0,0,0-12.09,1.718,8.892,8.892,0,0,0,13.9,11.089,8.893,8.893,0,0,0-1.024-12.169l25.315,20.185-20.208,25.339a8.894,8.894,0,0,0-1.695-12.122,8.9,8.9,0,1,0-5.564,15.85c.339,0,.678-.024,1.017-.055a8.819,8.819,0,0,0,5.643-2.924L444.653,686.24a8.893,8.893,0,1,0-12.792,1.8A8.9,8.9,0,0,0,444.046,687l-5.233,6.557a21.439,21.439,0,0,0,5.352,31.518l7.1,4.461a9.006,9.006,0,1,0,.843.536l27.917,17.544a8.893,8.893,0,1,0-4.311,16.685,9.045,9.045,0,0,0,1.994-.229,8.887,8.887,0,0,0,3.16-15.928L508.3,765.394l-17.284,27.5a8.893,8.893,0,0,0-15.266-9.119,8.894,8.894,0,0,0,7.519,13.627,9.033,9.033,0,0,0,1.994-.221,8.819,8.819,0,0,0,5.32-3.594l-11.184,17.8A21.437,21.437,0,1,0,515.7,834.2l40.314-64.14a21.411,21.411,0,0,0,3.224-13.083,1127.5,1127.5,0,0,0,33.244,115.787h63.793a1125.533,1125.533,0,0,0,33.244-115.787,21.368,21.368,0,0,0,3.231,13.083l40.306,64.14a21.437,21.437,0,1,0,36.3-22.809l-11.184-17.8a8.863,8.863,0,0,0,5.32,3.594,9.052,9.052,0,0,0,2,.221,8.786,8.786,0,0,0,4.713-1.363,8.9,8.9,0,1,0-12.469-3.145l-17.284-27.5,27.427-17.245a8.893,8.893,0,0,0,3.16,15.928,9.045,9.045,0,0,0,1.994.229,8.9,8.9,0,1,0-4.311-16.685l27.917-17.544a8.855,8.855,0,1,0,.843-.536l7.1-4.461a21.439,21.439,0,0,0,5.351-31.518L804.7,687a8.918,8.918,0,1,0-.607-.764L783.51,660.427a8.82,8.82,0,0,0,5.651,2.924c.339.031.67.055,1.009.055a8.909,8.909,0,1,0-7.251-3.728L762.7,634.34l25.315-20.185a8.909,8.909,0,0,0-1.024,12.169,8.895,8.895,0,0,0,13.911-11.089,8.911,8.911,0,0,0-12.1-1.718l25.8-20.571a8.89,8.89,0,0,0,4.918,15.471,8.989,8.989,0,0,0,1.017.063,8.894,8.894,0,1,0-5.178-16.133l6.565-5.241a21.415,21.415,0,0,0,1.789-31.92l-5.911-5.919a8.892,8.892,0,1,0-.725-.725l-23.306-23.306a8.8,8.8,0,0,0,5.911,2.246,8.888,8.888,0,1,0-6.636-2.971l-22.9-22.888,22.9-22.9a8.9,8.9,0,1,0,12.918-.355,8.89,8.89,0,0,0-12.216-.347l23.329-23.33A8.893,8.893,0,0,0,830,466.9a8.893,8.893,0,0,0-12.216-12.918l5.927-5.927a52.85,52.85,0,0,0,12.87-17.2,8.86,8.86,0,1,0,.386-.828c3.294-7.1,6.195-16.669,7.747-29.769a8.9,8.9,0,1,0,16-4.823Zm-76.143-85.365a8.878,8.878,0,1,1,0-12.555A8.876,8.876,0,0,1,784.575,310.078Zm-320.4-12.555a8.878,8.878,0,1,1,0,12.555A8.877,8.877,0,0,1,464.175,297.523Zm85.1,442.972L495.717,706.8a8.783,8.783,0,0,1-2.207-13l39.423-49.48a21.342,21.342,0,0,0,4.682-13.777,1130.918,1130.918,0,0,0,20.24,120.374A21.386,21.386,0,0,0,549.272,740.5Zm207.8-39.691a8.79,8.79,0,0,1-4.043,6L699.486,740.5a21.36,21.36,0,0,0-8.591,10.419,1130.931,1130.931,0,0,0,20.248-120.374,21.334,21.334,0,0,0,4.674,13.777L755.24,693.8A8.825,8.825,0,0,1,757.076,700.8Z" transform="translate(199.602 -69.223)" fill="#ff893b"/><path d="M588.282,431.448l-58.938-70.271h-6.731v80.518h6.447V370.509l59.679,71.186h5.99V361.177h-6.447Zm45-70.271h-6.959v80.518h6.959Zm54.91,81.952,34.064-81.952h-6.841l-27.8,67.568-27.569-67.568h-7.078l34.182,81.952Zm97.833-6.849H747.938v-32.8H783.9V398.3H747.938V366.363h37.177v-5.186H741.491v80.518h44.539Zm86.042,5.415-22.155-33.954a22.611,22.611,0,0,0-3.223-3.8,21.761,21.761,0,0,0-3.972-2.932q7.72-2.483,11.538-7.369a19.362,19.362,0,0,0,3.823-12.319q0-9.729-6.841-14.935-6.857-5.2-19.688-5.21H811.991v80.518h6.447V403.02h6.613a45.027,45.027,0,0,1,10.309.89,12,12,0,0,1,5.635,3.027,49.155,49.155,0,0,1,4.374,5.375c1.836,2.522,4.027,5.706,6.558,9.584l12.839,19.8Zm-35.908-44.657a117.641,117.641,0,0,1-12.776.457h-4.949v-30.9H831.9q9.151,0,14.132,3.854T851,381.322a15.951,15.951,0,0,1-2.215,8.693,14.5,14.5,0,0,1-6.644,5.47A21.411,21.411,0,0,1,836.163,397.038Zm89.55,9.663q-3.748-4.2-14.912-8.74c-.765-.315-1.34-.544-1.718-.694q-9.907-4.2-12.894-7.542a12.437,12.437,0,0,1-2.995-8.63,14.025,14.025,0,0,1,4.666-10.79,16.961,16.961,0,0,1,11.964-4.288,26.57,26.57,0,0,1,8.953,1.608,42.665,42.665,0,0,1,9.529,5.012v-7.2a38.969,38.969,0,0,0-9.04-4,33.213,33.213,0,0,0-9.206-1.293q-10.416,0-16.89,5.958a19.888,19.888,0,0,0-6.479,15.338,18.16,18.16,0,0,0,4.256,12.406q4.268,4.859,15.826,9.631,11.172,4.67,14.3,8.142a12.881,12.881,0,0,1,3.137,8.953q0,7.424-4.6,11.736-4.611,4.327-12.492,4.319a25.29,25.29,0,0,1-9.867-2.152,49.538,49.538,0,0,1-10.79-6.589V435.7a43.954,43.954,0,0,0,10.388,5.359,31.5,31.5,0,0,0,10.388,1.781q10.415,0,17.095-6.187A20.587,20.587,0,0,0,931,420.864a21.977,21.977,0,0,0-1.348-7.716A19.575,19.575,0,0,0,925.713,406.7Zm38.328-45.523h-6.967v80.518h6.967Zm75.221,78.736a34.749,34.749,0,0,0,11.744-5.643,38.7,38.7,0,0,0,11.822-14.3,42.939,42.939,0,0,0,0-37.177,38.734,38.734,0,0,0-11.822-14.3,34.96,34.96,0,0,0-11.657-5.556,60.768,60.768,0,0,0-15.677-1.758H995.756v80.518h27.916A59.878,59.878,0,0,0,1039.262,439.913Zm-36.657-3.862V366.994h19.451a62.966,62.966,0,0,1,13.667,1.292,28.482,28.482,0,0,1,9.867,4.122,30.548,30.548,0,0,1,10.561,12.232,39.082,39.082,0,0,1,0,33.749,30.72,30.72,0,0,1-10.561,12.2,28.96,28.96,0,0,1-9.867,4.146,61.879,61.879,0,0,1-13.667,1.316Zm131.219-22.384,11.909,28.027h6.794l-35.1-81.2h-2.593l-35.1,81.2h6.849l11.854-28.027Zm-17.67-42.016,15.424,36.546h-30.9Zm122.211,48.314a42.936,42.936,0,0,0,0-37.177,38.675,38.675,0,0,0-11.83-14.3,34.916,34.916,0,0,0-11.649-5.556,60.83,60.83,0,0,0-15.684-1.758h-27.908v80.518H1199.2a59.942,59.942,0,0,0,15.6-1.781,34.707,34.707,0,0,0,11.736-5.643A38.64,38.64,0,0,0,1238.365,419.965Zm-27.1,14.77a61.932,61.932,0,0,1-13.667,1.316h-19.452V366.994h19.452a63.02,63.02,0,0,1,13.667,1.292,28.546,28.546,0,0,1,9.867,4.122,30.612,30.612,0,0,1,10.561,12.232,39.084,39.084,0,0,1,0,33.749,30.785,30.785,0,0,1-10.561,12.2A29.027,29.027,0,0,1,1211.26,434.735Zm-829.593,125h61.145v-23.6H381.668V500.554h62.91V477.248H356.4V620.006h90.228V596.5H381.668Zm105.518-70.422h-23.55V620.006H546.6v-21.95H487.186Zm187.17,54.446a30.428,30.428,0,0,0,9.505-8.552c3.673-5.178,5.533-11.673,5.533-19.31,0-12.271-4.09-21.918-12.161-28.681-7.913-6.62-19.168-9.97-33.441-9.97H600.829V620.006h50.395c14.849,0,26.844-3.625,35.664-10.782,9-7.306,13.556-17.213,13.556-29.437,0-9.568-2.987-17.82-8.9-24.543A42.223,42.223,0,0,0,674.356,543.76ZM626.09,500.743h15.739c7.622,0,13.139,1.332,16.4,3.949,3.113,2.5,4.626,6.55,4.626,12.382,0,6.439-1.978,11.05-6.053,14.069-4.288,3.184-11.16,4.8-20.445,4.8H626.09Zm42.182,91.134c-3.854,2.94-10.278,4.429-19.1,4.429H626.09v-36.57h19.948c9.891,0,17.135,1.584,21.54,4.7,4.13,2.932,6.14,7.5,6.14,13.982C673.718,584.673,671.936,589.079,668.271,591.877Zm158.166-84.86a67.625,67.625,0,0,0-22.423-14.589,73.071,73.071,0,0,0-53.255-.047A69.793,69.793,0,0,0,728.226,507a66.884,66.884,0,0,0-15.117,21.737,63.919,63.919,0,0,0-5.32,25.433A66.02,66.02,0,0,0,728.21,602.58a68.925,68.925,0,0,0,22.415,14.541,70.909,70.909,0,0,0,26.561,5.115,72.069,72.069,0,0,0,26.742-4.981A70.641,70.641,0,0,0,826.6,602.6a65.989,65.989,0,0,0,14.99-21.611,64.7,64.7,0,0,0,5.273-25.654,65.212,65.212,0,0,0-20.421-48.314Zm-7.858,64.841a44.757,44.757,0,0,1-9.678,14.415A43.2,43.2,0,0,1,794.494,596a46.35,46.35,0,0,1-34.521-.087,42.13,42.13,0,0,1-14.329-9.655,43.863,43.863,0,0,1-9.615-14.392,44.45,44.45,0,0,1-3.349-17.071,45.431,45.431,0,0,1,3.349-17.26,41.812,41.812,0,0,1,9.584-14.258,47.378,47.378,0,0,1,14.739-9.828,43.212,43.212,0,0,1,16.835-3.428,44.287,44.287,0,0,1,17.15,3.381,43.355,43.355,0,0,1,14.384,9.828,46.533,46.533,0,0,1,9.907,14.636,44.6,44.6,0,0,1-.047,33.993Zm81.062-28.775-2.632-1.584c-17.962-11.192-20.642-17.655-20.642-20.516a10.059,10.059,0,0,1,4.169-8.331c5.58-4.35,15.456-4.713,24.63-.772a64.408,64.408,0,0,1,14.479,9.174l4.8,3.854v-28.05l-1.411-.867a63.671,63.671,0,0,0-14.825-6.77A52.6,52.6,0,0,0,893.131,487c-11.523,0-21.114,3.4-28.515,10.08-7.479,6.778-11.271,15.535-11.271,26.048a32.7,32.7,0,0,0,5.951,19.562c3.846,5.352,12.792,12.508,27.349,21.918,10.939,6.928,15.022,10.656,16.527,12.579a13.727,13.727,0,0,1,2.979,8.827,11.375,11.375,0,0,1-4.264,9.442c-3,2.435-7.306,3.673-12.768,3.673a30.652,30.652,0,0,1-15.03-3.909c-4.824-2.688-10.01-7.172-15.4-13.367l-5.17-5.935v32.8l1.064.883a53.828,53.828,0,0,0,16.52,9.615,57.852,57.852,0,0,0,19.176,3.019c11.46,0,21.036-3.389,28.46-10.073a33.353,33.353,0,0,0,11.326-25.788c0-8.93-2.018-16.559-6.006-22.706C920.094,557.568,912.117,550.838,899.641,543.082Zm161.382,52.806a61.575,61.575,0,0,0,14.51-40.558,67.982,67.982,0,0,0-42.844-62.9,73.071,73.071,0,0,0-53.255-.047A69.7,69.7,0,0,0,956.9,507a66.885,66.885,0,0,0-15.117,21.737,63.923,63.923,0,0,0-5.32,25.433c0,15.9,4.823,30.021,14.329,41.969,9.395,11.814,21.981,19.767,37.406,23.637a170.152,170.152,0,0,0,32.456,18.553c10.459,4.359,20.066,6.565,28.563,6.565q1.8,0,2.672-.047a13.807,13.807,0,0,0,2.089-.284l.772-.15,19.1-16.583-2.333-6.108-2.435.473q-3.535.685-6.5,1.032a47.452,47.452,0,0,1-5.336.339,63.326,63.326,0,0,1-15.8-2.136,110.618,110.618,0,0,1-12.035-3.98C1042.391,612.723,1053,605.5,1061.023,595.888Zm-13.769-24.031a46.51,46.51,0,0,1-24.291,24.417,44.032,44.032,0,0,1-34.1-.126,45.259,45.259,0,0,1-14.549-9.891,44.189,44.189,0,0,1-12.965-31.463,45.431,45.431,0,0,1,3.35-17.26,41.805,41.805,0,0,1,9.584-14.258,47.321,47.321,0,0,1,14.746-9.828,43.148,43.148,0,0,1,16.827-3.428,44.259,44.259,0,0,1,17.15,3.381,43.434,43.434,0,0,1,14.384,9.828,46.538,46.538,0,0,1,9.907,14.636,44.6,44.6,0,0,1-.047,33.993Zm130.305.063c0,8.331-2.9,14.833-8.867,19.877-6.021,5.1-14.171,7.685-24.228,7.685a41.033,41.033,0,0,1-16.071-2.979,32.08,32.08,0,0,1-12-8.89,18.977,18.977,0,0,1-3.736-7.511c-.8-3.066-1.206-8.528-1.206-16.2V489.314h-23.645v75.292c0,10.23.694,17.67,2.12,22.746a37.891,37.891,0,0,0,7.369,13.99,53.941,53.941,0,0,0,20.366,15.605,66.073,66.073,0,0,0,26.8,5.289c16.654,0,30.391-4.611,40.826-13.706,10.553-9.19,15.913-21.327,15.913-36.074V489.314h-23.645Zm66.528,26.135v-33h55.754V543.019h-55.754V511.091h57.354V489.314h-80.911V620.006h82.787v-21.95Zm-750.391-190V354.249h-7.74v54.2q0,14.9-8.347,23.66t-22.3,8.772q-13.962,0-22.3-8.772t-8.339-23.66v-54.2h-7.542v53.807q0,18.727,10.317,29.65,10.332,10.924,27.869,10.924,17.6,0,28-10.963Q493.7,426.72,493.7,408.056Z" transform="translate(-5.881 489.983)" fill="#394024"/><path d="M-591.552-53.9c-1,0-1.309.385-1.309,1.386v51.2c0,1,.385,1.309,1.309,1.309h19.1a26.436,26.436,0,0,0,26.873-26.95A26.436,26.436,0,0,0-572.457-53.9Zm19.019,6.083c12.012,0,19.712,9.779,19.712,20.867s-7.7,20.867-19.712,20.867H-585.7V-47.817ZM-503.926-8.47c-.616-.77-1-.616-1.925-.077A21.34,21.34,0,0,1-517.4-5a13.944,13.944,0,0,1-13.86-12.243h31.031c1.078,0,1.232-.385,1.232-1.386,0-11.55-6.853-21.406-19.019-21.406a20.375,20.375,0,0,0-20.251,20.482A20.393,20.393,0,0,0-517.633.847c5.621,0,11.935-1.848,15.554-5.39.616-.616.539-1.078-.077-1.848Zm-27.181-13.4a13.143,13.143,0,0,1,12.936-12.474c7.392,0,11.858,6.237,12.243,12.474Zm48.972,14.322A15.344,15.344,0,0,0-468.353.847c10.7,0,17.787-9.163,17.787-20.405,0-11.088-7.084-20.482-17.787-20.482-8.547,0-12.705,5.621-14.861,8.624l-.77-6.391c-.462-1-.77-1.386-1.54-1.386H-487.6c-1,0-1.309.308-1.309,1.386V14.4c0,1,.308,1.309,1.309,1.309h4.158c1,0,1.309-.308,1.309-1.309Zm12.4-26.488c7.469,0,12.4,6.391,12.4,14.476,0,7.623-4.928,14.322-12.4,14.322-7.546,0-12.474-7.007-12.474-14.4C-482.213-26.95-477.285-34.034-469.739-34.034Zm32.263,1.155a56.7,56.7,0,0,1,11.7-1.232c7.777,0,10.241,3.311,10.241,12.166a35.652,35.652,0,0,0-12.089-2.464c-9.086,0-15.477,4.081-15.477,12.474S-436.706.847-429.468.847a18.926,18.926,0,0,0,15.092-6.853l.385,4.7c.308,1,.616,1.309,1.386,1.309h2.541c1,0,1.309-.308,1.309-1.309V-21.483c0-12.551-3.234-18.557-16.786-18.557a72.352,72.352,0,0,0-13.321,1.463c-1,.231-1.155.693-.924,1.694l.693,2.695C-438.785-33.11-438.554-32.725-437.476-32.879ZM-426.157-19.4c4.081,0,6.93,1,10.626,2.464v5.929c-2.387,3.311-7.007,6.622-11.858,6.622-5.929,0-9.009-3.388-9.009-7.546C-436.4-16.632-433.01-19.4-426.157-19.4Zm50.9-13.937c1,0,1.309-.231,1.54-1.232l.616-4.235c.154-.847,0-1.232-1.232-1.232-10.472,0-13.86,5.929-15.631,9.394l-1.155-7.161c-.462-1-.77-1.386-1.54-1.386h-2.156c-1,0-1.309.308-1.309,1.386v36.5c0,1,.308,1.309,1.309,1.309h4.158c1,0,1.309-.308,1.309-1.309V-19.866C-389.351-26.719-384.885-33.341-375.26-33.341ZM-341.534-1c.77-.462.847-.77.616-1.694l-.539-2.926c-.308-1.232-.539-1.309-1.694-.693a9.788,9.788,0,0,1-5.082,1.078c-5.7,0-8.239-3.157-8.239-11.473v-16.94H-343.3c1.078,0,1.386-.308,1.386-1.386v-2.772c0-1.078-.385-1.386-1.386-1.386h-13.167V-46.97c0-1.078-.308-1.386-1.386-1.386h-4c-1.078,0-1.386.385-1.386,1.386v7.777h-3.465c-1,0-1.309.308-1.309,1.386v2.772c0,1.078.308,1.386,1.309,1.386h3.465v17.4c0,10.7,4.158,17.094,14.322,17.094A14.405,14.405,0,0,0-341.534-1Zm13.244-31.878a56.7,56.7,0,0,1,11.7-1.232c7.777,0,10.241,3.311,10.241,12.166a35.652,35.652,0,0,0-12.089-2.464c-9.086,0-15.477,4.081-15.477,12.474S-327.52.847-320.282.847A18.926,18.926,0,0,0-305.19-6.006l.385,4.7c.308,1,.616,1.309,1.386,1.309h2.541c1,0,1.309-.308,1.309-1.309V-21.483c0-12.551-3.234-18.557-16.786-18.557a72.352,72.352,0,0,0-13.321,1.463c-1,.231-1.155.693-.924,1.694l.693,2.695C-329.6-33.11-329.368-32.725-328.29-32.879ZM-316.971-19.4c4.081,0,6.93,1,10.626,2.464v5.929c-2.387,3.311-7.007,6.622-11.858,6.622-5.929,0-9.009-3.388-9.009-7.546C-327.212-16.632-323.824-19.4-316.971-19.4Zm60.6-11.781c-1.617-3.773-5.621-8.855-12.936-8.855-7.007,0-10.395,5.39-12.089,8.624l-.77-6.391c-.385-1-.693-1.386-1.463-1.386h-2.233c-.924,0-1.309.308-1.309,1.386v36.5c0,1,.385,1.309,1.309,1.309h4.158c1,0,1.309-.308,1.309-1.309V-20.482c0-7.931,3.465-13.4,9.471-13.4s9.471,5.082,9.471,13.013V-1.309c0,1,.308,1.309,1.309,1.309h4.158c1,0,1.309-.308,1.309-1.309V-20.867c0-8.162,3.85-13.013,9.394-13.013,5.313,0,9.471,4.158,9.471,13.013V-1.309c0,1,.308,1.309,1.309,1.309h4.158c1,0,1.309-.308,1.309-1.309V-22.561c0-12.628-6.776-17.479-14.63-17.479C-250.674-40.04-254.6-34.573-256.372-31.185ZM-185.993-8.47c-.616-.77-1-.616-1.925-.077A21.34,21.34,0,0,1-199.469-5a13.944,13.944,0,0,1-13.86-12.243H-182.3c1.078,0,1.232-.385,1.232-1.386,0-11.55-6.853-21.406-19.019-21.406a20.375,20.375,0,0,0-20.251,20.482A20.393,20.393,0,0,0-199.7.847c5.621,0,11.935-1.848,15.554-5.39.616-.616.539-1.078-.077-1.848Zm-27.181-13.4a13.143,13.143,0,0,1,12.936-12.474c7.392,0,11.858,6.237,12.243,12.474Zm47.586-15.939c-.462-1-.77-1.386-1.54-1.386h-2.156c-1,0-1.309.308-1.309,1.386v36.5c0,1,.308,1.309,1.309,1.309h4.158c1,0,1.309-.308,1.309-1.309V-20.482c0-7.546,3.85-13.4,10.164-13.4,6.006,0,10.087,4.158,10.087,13.013V-1.309c0,1,.308,1.309,1.309,1.309h4.158c1,0,1.309-.308,1.309-1.309V-22.561c0-12.628-6.853-17.479-15.169-17.479-7.238,0-11.011,5.39-12.859,8.47ZM-101.448-1c.77-.462.847-.77.616-1.694l-.539-2.926c-.308-1.232-.539-1.309-1.694-.693a9.788,9.788,0,0,1-5.082,1.078c-5.7,0-8.239-3.157-8.239-11.473v-16.94h13.167c1.078,0,1.386-.308,1.386-1.386v-2.772c0-1.078-.385-1.386-1.386-1.386h-13.167V-46.97c0-1.078-.308-1.386-1.386-1.386h-4c-1.078,0-1.386.385-1.386,1.386v7.777h-3.465c-1,0-1.309.308-1.309,1.386v2.772c0,1.078.308,1.386,1.309,1.386h3.465v17.4c0,10.7,4.158,17.094,14.322,17.094A14.405,14.405,0,0,0-101.448-1Zm7.161-18.557A20.374,20.374,0,0,0-73.959.847,20.309,20.309,0,0,0-53.708-19.558,20.375,20.375,0,0,0-73.959-40.04,20.44,20.44,0,0,0-94.287-19.558Zm20.328,14.4c-7.546,0-13.552-6.314-13.552-14.4,0-8.008,6.006-14.322,13.552-14.322,7.469,0,13.552,6.314,13.552,14.322C-60.407-11.473-66.49-5.159-73.959-5.159ZM4.5-31.647A15.482,15.482,0,0,0-9.279-40.04c-10.7,0-17.787,9.24-17.787,20.482C-27.066-8.47-19.982.847-9.279.847c8.547,0,12.7-5.621,14.861-8.624l.77,6.468C6.814-.385,7.122,0,7.892,0H9.971c1,0,1.309-.308,1.309-1.309V-55.44c0-1.078-.308-1.386-1.309-1.386H5.813c-1,0-1.309.385-1.309,1.386ZM-7.893-5.159c-7.469,0-12.4-6.314-12.4-14.4,0-7.623,4.928-14.322,12.4-14.322,7.546,0,12.474,6.93,12.474,14.322S-.347-5.159-7.893-5.159ZM56.095-8.47c-.616-.77-1-.616-1.925-.077A21.34,21.34,0,0,1,42.62-5,13.944,13.944,0,0,1,28.76-17.248H59.791c1.078,0,1.232-.385,1.232-1.386C61.023-30.184,54.17-40.04,42-40.04A20.375,20.375,0,0,0,21.753-19.558,20.393,20.393,0,0,0,42.389.847C48.01.847,54.324-1,57.943-4.543c.616-.616.539-1.078-.077-1.848Zm-27.181-13.4A13.143,13.143,0,0,1,41.85-34.342c7.392,0,11.858,6.237,12.243,12.474Zm98.329-8.239H98.367V-52.514c0-1.078-.308-1.386-1.309-1.386H92.592c-1.078,0-1.386.308-1.386,1.386v51.2c0,1,.308,1.309,1.386,1.309h4.466c1,0,1.309-.308,1.309-1.309V-23.793h28.875V-1.309c0,1,.308,1.309,1.386,1.309h4.466c1,0,1.309-.308,1.309-1.309v-51.2c0-1.078-.308-1.386-1.309-1.386h-4.466c-1.078,0-1.386.308-1.386,1.386Zm48.972,28.8C176.6-.385,176.907,0,177.677,0h2.233c.924,0,1.309-.308,1.309-1.309v-36.5c0-1.078-.385-1.386-1.309-1.386h-4.158c-1,0-1.309.385-1.309,1.386v19.1c0,7.546-3.85,13.475-10.241,13.475-5.929,0-10.01-4.235-10.01-13.013V-37.807c0-1.078-.385-1.386-1.309-1.386h-4.158c-1,0-1.309.385-1.309,1.386v21.175C147.416-4,154.269.847,162.508.847c7.238,0,11.088-5.313,12.936-8.393Zm50.2-29.876c-1.617-3.773-5.621-8.855-12.936-8.855-7.007,0-10.4,5.39-12.089,8.624l-.77-6.391c-.385-1-.693-1.386-1.463-1.386h-2.233c-.924,0-1.309.308-1.309,1.386v36.5c0,1,.385,1.309,1.309,1.309h4.158c1,0,1.309-.308,1.309-1.309V-20.482c0-7.931,3.465-13.4,9.471-13.4s9.471,5.082,9.471,13.013V-1.309c0,1,.308,1.309,1.309,1.309H226.8c1,0,1.309-.308,1.309-1.309V-20.867c0-8.162,3.85-13.013,9.394-13.013,5.313,0,9.471,4.158,9.471,13.013V-1.309c0,1,.308,1.309,1.309,1.309h4.158c1,0,1.309-.308,1.309-1.309V-22.561c0-12.628-6.776-17.479-14.63-17.479C232.116-40.04,228.189-34.573,226.418-31.185Zm42.5-1.694a56.7,56.7,0,0,1,11.7-1.232c7.777,0,10.241,3.311,10.241,12.166a35.652,35.652,0,0,0-12.089-2.464c-9.086,0-15.477,4.081-15.477,12.474S269.693.847,276.93.847a18.926,18.926,0,0,0,15.092-6.853l.385,4.7c.308,1,.616,1.309,1.386,1.309h2.541c1,0,1.309-.308,1.309-1.309V-21.483c0-12.551-3.234-18.557-16.786-18.557a72.352,72.352,0,0,0-13.321,1.463c-1,.231-1.155.693-.924,1.694l.693,2.695C267.613-33.11,267.844-32.725,268.922-32.879ZM280.241-19.4c4.081,0,6.93,1,10.626,2.464v5.929c-2.387,3.311-7.007,6.622-11.858,6.622-5.929,0-9.009-3.388-9.009-7.546C270-16.632,273.388-19.4,280.241-19.4Zm35.035-18.4c-.462-1-.77-1.386-1.54-1.386H311.58c-1,0-1.309.308-1.309,1.386v36.5c0,1,.308,1.309,1.309,1.309h4.158c1,0,1.309-.308,1.309-1.309V-20.482c0-7.546,3.85-13.4,10.164-13.4,6.006,0,10.087,4.158,10.087,13.013V-1.309c0,1,.308,1.309,1.309,1.309h4.158c1,0,1.309-.308,1.309-1.309V-22.561c0-12.628-6.853-17.479-15.169-17.479-7.238,0-11.011,5.39-12.859,8.47Zm42.889,36.5c0,1,.308,1.309,1.386,1.309h4.081c1,0,1.309-.308,1.309-1.309v-36.5c0-1-.231-1.386-1.309-1.386h-4.081c-1.078,0-1.386.308-1.386,1.386ZM357.01-51.821a4.469,4.469,0,0,0,4.466,4.466,4.536,4.536,0,0,0,4.543-4.466,4.6,4.6,0,0,0-4.543-4.543A4.536,4.536,0,0,0,357.01-51.821Zm51.667,20.174a15.482,15.482,0,0,0-13.783-8.393c-10.7,0-17.787,9.24-17.787,20.482,0,11.088,7.084,20.405,17.787,20.405,8.547,0,12.7-5.621,14.861-8.624l.77,6.468c.462.924.77,1.309,1.54,1.309h2.079c1,0,1.309-.308,1.309-1.309V-55.44c0-1.078-.308-1.386-1.309-1.386h-4.158c-1,0-1.309.385-1.309,1.386ZM396.28-5.159c-7.469,0-12.4-6.314-12.4-14.4,0-7.623,4.928-14.322,12.4-14.322,7.546,0,12.474,6.93,12.474,14.322S403.826-5.159,396.28-5.159Zm35.882-27.72a56.7,56.7,0,0,1,11.7-1.232c7.777,0,10.241,3.311,10.241,12.166a35.652,35.652,0,0,0-12.089-2.464c-9.086,0-15.477,4.081-15.477,12.474S432.932.847,440.17.847a18.926,18.926,0,0,0,15.092-6.853l.385,4.7c.308,1,.616,1.309,1.386,1.309h2.541c1,0,1.309-.308,1.309-1.309V-21.483c0-12.551-3.234-18.557-16.786-18.557a72.352,72.352,0,0,0-13.321,1.463c-1,.231-1.155.693-.924,1.694l.693,2.695C430.853-33.11,431.084-32.725,432.162-32.879ZM443.481-19.4c4.081,0,6.93,1,10.626,2.464v5.929C451.72-7.7,447.1-4.389,442.249-4.389c-5.929,0-9.009-3.388-9.009-7.546C433.24-16.632,436.628-19.4,443.481-19.4Zm57.827-12.243a15.482,15.482,0,0,0-13.783-8.393c-10.7,0-17.787,9.24-17.787,20.482,0,11.088,7.084,20.405,17.787,20.405,8.547,0,12.7-5.621,14.861-8.624l.77,6.468c.462.924.77,1.309,1.54,1.309h2.079c1,0,1.309-.308,1.309-1.309V-55.44c0-1.078-.308-1.386-1.309-1.386h-4.158c-1,0-1.309.385-1.309,1.386Zm-12.4,26.488c-7.469,0-12.4-6.314-12.4-14.4,0-7.623,4.928-14.322,12.4-14.322,7.546,0,12.474,6.93,12.474,14.322S496.458-5.159,488.912-5.159ZM552.9-8.47c-.616-.77-1-.616-1.925-.077A21.34,21.34,0,0,1,539.424-5a13.944,13.944,0,0,1-13.86-12.243h31.031c1.078,0,1.232-.385,1.232-1.386,0-11.55-6.853-21.406-19.019-21.406a20.375,20.375,0,0,0-20.251,20.482A20.393,20.393,0,0,0,539.193.847c5.621,0,11.935-1.848,15.554-5.39.616-.616.539-1.078-.077-1.848Zm-27.181-13.4a13.143,13.143,0,0,1,12.936-12.474c7.392,0,11.858,6.237,12.243,12.474ZM580.542-4.543a21.743,21.743,0,0,1-12.628-4.235c-1.078-.77-1.386-.308-1.848.539l-1.309,2.31c-.462.847-.539,1.309.308,1.848A29.436,29.436,0,0,0,580.927.847c9.933,0,15.939-5.082,15.939-12.243,0-7.7-7.238-10.241-15.015-11.242-6.622-1-10.318-1.771-10.318-5.544,0-3.927,2.849-6.468,9.009-6.468,4.928,0,7.854,1.309,11.7,3.7,1,.616,1.386.231,1.848-.616l1.232-2.233c.385-.77.616-1.309-.385-1.925a28.715,28.715,0,0,0-14.784-4.312c-9.163,0-15.015,4.774-15.015,12.166,0,8.162,7.161,10.164,14.938,11.165,6.622.924,10.318,2.541,10.318,5.621C590.4-7.469,587.471-4.543,580.542-4.543Z" transform="translate(817.112 1334.299)" fill="#394024"/><rect width="190.184" height="23.556" transform="translate(728.886 1182.037)" fill="#394024"/><line y2="1414" transform="translate(1440.2 61)" stroke-dasharray="0 3.843" stroke="#7eaf00" stroke-linecap="round" stroke-miterlimit="10" stroke-width="3" fill="none"/><line y1="1414" transform="translate(207.756 61)" stroke-dasharray="0 3.843" stroke="#7eaf00" stroke-linecap="round" stroke-miterlimit="10" stroke-width="3" fill="none"/></g></svg>