<svg xmlns="http://www.w3.org/2000/svg" xmlns:xlink="http://www.w3.org/1999/xlink" width="1598" height="885.223" viewBox="0 0 1598 885.223"><defs><clipPath id="a"><rect width="1598" height="885.223" fill="none"/></clipPath></defs><g clip-path="url(#a)"><rect width="1598" height="885.223" fill="none"/><g transform="translate(58.891 59.036)"><g transform="translate(595.232)"><path d="M949.575,1894.885c-29.215-70.922-39.492-144.337-39.492-220.073,0-32.666,2.079-65.371,7.532-97.572h27.851c-6.723,30.635-8.82,62.044-8.82,93.318,0,65.737,8.162,135.632,27.173,198.955,19.031-63.322,27.173-133.218,27.173-198.955,0-31.275-2.069-62.683-8.8-93.318h27.851c5.433,32.2,7.532,64.906,7.532,97.572,0,75.736-10.28,149.152-39.492,220.073Z" transform="translate(-819.049 -1529.959)" fill="#ff893b"/><path d="M977.9,1612.149a6.191,6.191,0,1,1-.4,8.74A6.181,6.181,0,0,1,977.9,1612.149Z" transform="translate(-733.554 -1486.693)" fill="#ff893b"/><path d="M977.9,1620.5a6.191,6.191,0,1,1-.4,8.742A6.179,6.179,0,0,1,977.9,1620.5Z" transform="translate(-733.554 -1475.841)" fill="#ff893b"/><path d="M983.6,1627.019a6.186,6.186,0,1,1-.416,8.742A6.176,6.176,0,0,1,983.6,1627.019Z" transform="translate(-726.155 -1467.373)" fill="#ff893b"/><path d="M976.2,1648.806a6.185,6.185,0,1,1-.4,8.74A6.169,6.169,0,0,1,976.2,1648.806Z" transform="translate(-735.756 -1439.065)" fill="#ff893b"/><path d="M976.054,1657.153a6.19,6.19,0,1,1-.851,8.7A6.162,6.162,0,0,1,976.054,1657.153Z" transform="translate(-736.263 -1427.958)" fill="#ff893b"/><path d="M981.536,1663.89a6.19,6.19,0,1,1-.977,8.7A6.177,6.177,0,0,1,981.536,1663.89Z" transform="translate(-729.233 -1419.125)" fill="#ff893b"/><path d="M981.893,1643.592a6.2,6.2,0,1,1-.386,8.742A6.213,6.213,0,0,1,981.893,1643.592Z" transform="translate(-728.352 -1445.826)" fill="#ff893b"/><path d="M971.038,1684.849a6.2,6.2,0,1,1-1.451,8.648A6.186,6.186,0,0,1,971.038,1684.849Z" transform="translate(-743.219 -1391.619)" fill="#ff893b"/><path d="M970.485,1694.15a6.18,6.18,0,1,1-1.692,8.59A6.179,6.179,0,0,1,970.485,1694.15Z" transform="translate(-744.126 -1379.415)" fill="#ff893b"/><path d="M977.376,1680.309a6.193,6.193,0,1,1-1.451,8.627A6.2,6.2,0,0,1,977.376,1680.309Z" transform="translate(-734.985 -1397.521)" fill="#ff893b"/><path d="M989.271,1600.593a6.183,6.183,0,1,1,2.86,8.257A6.177,6.177,0,0,1,989.271,1600.593Z" transform="translate(-716.969 -1504.147)" fill="#ff893b"/><path d="M991.136,1593.577a6.185,6.185,0,1,1,5.87,6.479A6.193,6.193,0,0,1,991.136,1593.577Z" transform="translate(-713.748 -1516.379)" fill="#ff893b"/><path d="M990.867,1584.829a6.185,6.185,0,1,1,7.222,4.914A6.171,6.171,0,0,1,990.867,1584.829Z" transform="translate(-714.232 -1529.639)" fill="#ff893b"/><path d="M988.306,1577.366a6.19,6.19,0,1,1,8.482,2.205A6.2,6.2,0,0,1,988.306,1577.366Z" transform="translate(-718.51 -1541.902)" fill="#ff893b"/><path d="M984.628,1605.928a6.189,6.189,0,1,1-.414,8.721A6.187,6.187,0,0,1,984.628,1605.928Z" transform="translate(-724.822 -1494.785)" fill="#ff893b"/><path d="M896.085,1612.149a6.191,6.191,0,1,0,.407,8.74A6.181,6.181,0,0,0,896.085,1612.149Z" transform="translate(-850.685 -1486.693)" fill="#ff893b"/><path d="M896.085,1620.5a6.191,6.191,0,1,0,.407,8.742A6.179,6.179,0,0,0,896.085,1620.5Z" transform="translate(-850.685 -1475.841)" fill="#ff893b"/><path d="M890.388,1627.019a6.188,6.188,0,1,0,.407,8.742A6.188,6.188,0,0,0,890.388,1627.019Z" transform="translate(-858.082 -1467.373)" fill="#ff893b"/><path d="M897.791,1648.806a6.191,6.191,0,1,0,.386,8.74A6.181,6.181,0,0,0,897.791,1648.806Z" transform="translate(-848.484 -1439.065)" fill="#ff893b"/><path d="M897.93,1657.153a6.188,6.188,0,1,0,.842,8.7A6.162,6.162,0,0,0,897.93,1657.153Z" transform="translate(-847.975 -1427.958)" fill="#ff893b"/><path d="M892.457,1663.89a6.194,6.194,0,1,0,.966,8.7A6.187,6.187,0,0,0,892.457,1663.89Z" transform="translate(-855.005 -1419.125)" fill="#ff893b"/><path d="M892.088,1643.592a6.2,6.2,0,1,0,.4,8.742A6.2,6.2,0,0,0,892.088,1643.592Z" transform="translate(-855.884 -1445.826)" fill="#ff893b"/><path d="M902.942,1684.849a6.192,6.192,0,1,0,1.462,8.648A6.186,6.186,0,0,0,902.942,1684.849Z" transform="translate(-841.017 -1391.619)" fill="#ff893b"/><path d="M903.5,1694.15a6.183,6.183,0,1,0,1.692,8.59A6.169,6.169,0,0,0,903.5,1694.15Z" transform="translate(-840.11 -1379.415)" fill="#ff893b"/><path d="M896.6,1680.309a6.193,6.193,0,1,0,1.451,8.627A6.192,6.192,0,0,0,896.6,1680.309Z" transform="translate(-849.251 -1397.521)" fill="#ff893b"/><path d="M884.738,1600.593a6.193,6.193,0,1,0-2.881,8.257A6.193,6.193,0,0,0,884.738,1600.593Z" transform="translate(-867.276 -1504.147)" fill="#ff893b"/><path d="M882.857,1593.577a6.187,6.187,0,1,0-5.879,6.479A6.217,6.217,0,0,0,882.857,1593.577Z" transform="translate(-870.49 -1516.379)" fill="#ff893b"/><path d="M883.134,1584.829a6.191,6.191,0,1,0-7.234,4.914A6.188,6.188,0,0,0,883.134,1584.829Z" transform="translate(-870.013 -1529.639)" fill="#ff893b"/><path d="M885.685,1577.366a6.194,6.194,0,1,0-8.471,2.205A6.2,6.2,0,0,0,885.685,1577.366Z" transform="translate(-865.737 -1541.902)" fill="#ff893b"/><path d="M889.367,1605.928a6.188,6.188,0,1,0,.4,8.721A6.183,6.183,0,0,0,889.367,1605.928Z" transform="translate(-859.419 -1494.785)" fill="#ff893b"/><g transform="translate(11.881)"><path d="M968.214,1849.094,932.9,1824.225a6.559,6.559,0,0,1-1.014-9.208l23.614-27.635a13.108,13.108,0,0,0-.86-18.527l-29.571-26.941a6.523,6.523,0,0,1-.435-9.227l26.971-29.571a13.109,13.109,0,0,0-.853-18.528l-39.155-35.779c-5.357-4.875-5.231-12.8-.851-18.532l40.75-54.422c4.012-5.263,3.752-11.391-.706-15.453-2.235-2.033-6.633-4.41-14.669-3.541-38.439,4.141-64.249,37.851-60,76.821,2.138,19.574,9.119,26.612,12.949,30.114l29.493,26.922a6.541,6.541,0,0,1,.425,9.243l-26.959,29.552a13.135,13.135,0,0,0,.851,18.53L922.444,1775a6.513,6.513,0,0,1,.425,9.227l-23.731,29.746a13.135,13.135,0,0,0,2.051,18.449l35.372,25.237a6.527,6.527,0,0,1,1.122,9.17l-15.258,22.781a13.12,13.12,0,0,0,21.331,15.281l26.69-37.368A13.124,13.124,0,0,0,968.214,1849.094Zm-49.745-275.251a5.27,5.27,0,1,1,.359,7.447A5.27,5.27,0,0,1,918.469,1573.843Z" transform="translate(-875.658 -1556.676)" fill="#ff893b"/><path d="M986.026,1556.86c-8.045-.869-12.435,1.508-14.678,3.541-4.456,4.063-4.718,10.19-.706,15.453l40.759,54.422c4.371,5.728,4.5,13.658-.851,18.532l-39.164,35.779a13.106,13.106,0,0,0-.851,18.528l26.97,29.571a6.515,6.515,0,0,1-.434,9.227L967.5,1768.854a13.1,13.1,0,0,0-.851,18.527l23.6,27.635a6.548,6.548,0,0,1-1.014,9.208l-35.317,24.869a13.135,13.135,0,0,0-2.223,18.431l26.672,37.368a13.121,13.121,0,0,0,21.333-15.281l-15.251-22.781a6.528,6.528,0,0,1,1.113-9.17l35.393-25.237a13.162,13.162,0,0,0,2.049-18.449l-23.74-29.746a6.516,6.516,0,0,1,.425-9.227l29.562-26.959a13.121,13.121,0,0,0,.862-18.53l-26.952-29.552a6.532,6.532,0,0,1,.425-9.243l29.475-26.922c3.84-3.5,10.82-10.54,12.958-30.114C1050.266,1594.711,1024.456,1561,986.026,1556.86Zm17.291,24.43a5.26,5.26,0,1,1,.349-7.447A5.282,5.282,0,0,1,1003.317,1581.29Z" transform="translate(-780.495 -1556.676)" fill="#ff893b"/></g></g><g transform="translate(0 413.314)"><g transform="translate(855.077)"><path d="M1000.494,1789.874h40.093v-15.589h-40.093v-22.4h41.224v-15.373H983.5v92h59.561v-15.566h-42.569Zm68.735-46.979H1052.17v85.618h59.956v-14.6h-42.9Zm120.917,36.418a20.894,20.894,0,0,0,5.852-5.3c2.5-3.424,3.605-7.7,3.605-12.552,0-7.792-2.63-14.2-7.939-18.567-5.307-4.431-12.54-6.461-21.689-6.461H1141.92v92.079h32.868c9.448,0,17.215-2.3,23.094-7a23.184,23.184,0,0,0,8.836-19.107,23.474,23.474,0,0,0-5.753-15.819,27.362,27.362,0,0,0-10.82-7.272m-31.427-27.292h9.949c5.233,0,8.645.931,10.51,2.439a7.78,7.78,0,0,1,2.138,3.017,14.014,14.014,0,0,1,.727,4.778c0,4.256-1.267,6.9-3.84,8.836-2.447,1.84-6.817,3.021-13.055,3.021h-6.429Zm26.931,58.024c-2.2,1.683-6.259,2.824-12.2,2.706h-14.736v-22.993h12.667c6.652,0,11.266,1.14,13.81,3.017,2.5,1.895,3.819,4.41,3.819,8.76,0,4.233-1.122,6.79-3.364,8.509m154.992-31.679h0l-1.817-1.007a57.152,57.152,0,0,1-10.735-7.6,11.794,11.794,0,0,1-2.359-2.982,3.691,3.691,0,0,1-.727-2.046,5.745,5.745,0,0,1,2.718-4.969,13.323,13.323,0,0,1,7.979-2.187,22.848,22.848,0,0,1,8.654,1.66,43.459,43.459,0,0,1,9.729,5.861l3.451,2.554v-18.332l-1.026-.621a50.874,50.874,0,0,0-10.112-4.217,39.488,39.488,0,0,0-10.2-1.432c-7.656,0-14.223,2.15-19.348,6.362a21.135,21.135,0,0,0-7.689,16.617,20.149,20.149,0,0,0,4.063,12.591,36.4,36.4,0,0,0,6.739,5.994c3.085,2.339,7.049,4.893,11.846,7.831,3.017,1.722,5.445,3.348,7.33,4.661a27.013,27.013,0,0,1,3.831,3.194,8.5,8.5,0,0,1,1.943,5.316,6.772,6.772,0,0,1-2.833,5.647c-1.876,1.414-4.7,2.283-8.579,2.283a21.69,21.69,0,0,1-10.2-2.458c-3.152-1.6-6.613-4.445-10.347-8.314l-3.713-4v21.254l.929.6a35.013,35.013,0,0,0,11.128,6.033,39.76,39.76,0,0,0,12.949,1.957c7.707,0,14.283-2.127,19.333-6.365a20.8,20.8,0,0,0,7.762-16.479c0-5.569-1.313-10.462-4.148-14.407-2.833-4.061-8.305-8.236-16.555-13m107.068,35.993a40.522,40.522,0,0,0,9.553-26.766,46.1,46.1,0,0,0-3.364-17.5,45.169,45.169,0,0,0-10.1-14.467,44.366,44.366,0,0,0-14.775-9.653,48.108,48.108,0,0,0-17.677-3.345,47.156,47.156,0,0,0-17.5,3.345,46,46,0,0,0-14.9,9.653,44.251,44.251,0,0,0-9.873,14.311,41.16,41.16,0,0,0-3.578,16.826,43.645,43.645,0,0,0,9.487,27.794,44.279,44.279,0,0,0,24.591,15.628,110.7,110.7,0,0,0,21.314,12.2c6.932,2.92,13.228,4.351,18.941,4.351h1.683a5.955,5.955,0,0,0,1.394-.154l.676-.1,12.609-11.083-.957-2.646-.706-1.688-1.653.37a39.547,39.547,0,0,1-4.38.676,19.684,19.684,0,0,1-3.463.214,44.487,44.487,0,0,1-10.317-1.334c-2.235-.639-4.787-1.531-7.5-2.573,8.277-3.095,15.27-7.7,20.491-14.06m-9.37-17.677a28.357,28.357,0,0,1-6.3,9.358l-.087.078a29.211,29.211,0,0,1-9.457,6.558,29.894,29.894,0,0,1-11.14,2.184,28.758,28.758,0,0,1-11.161-2.262,30.682,30.682,0,0,1-9.5-6.479v-.078a27.2,27.2,0,0,1-6.238-9.358,28.123,28.123,0,0,1-2.214-11.181,28.549,28.549,0,0,1,2.214-11.271,27.339,27.339,0,0,1,6.2-9.344,30.5,30.5,0,0,1,9.641-6.419,28.751,28.751,0,0,1,22.195,0,27.042,27.042,0,0,1,9.4,6.342,28.941,28.941,0,0,1,6.449,9.652,27.416,27.416,0,0,1,2.194,11.041,28.632,28.632,0,0,1-2.194,11.181m84.46-1.164c-.087,5.475-1.828,9.535-5.744,12.807-3.792,3.189-8.937,4.987-15.656,4.987a26.311,26.311,0,0,1-10.337-1.954,21.077,21.077,0,0,1-7.815-5.744,11.168,11.168,0,0,1-2.35-4.8c-.531-1.837-.83-5.4-.83-10.542v-47.323h-15.812v47.811c0,6.516.435,11.391,1.43,14.851a24.316,24.316,0,0,0,4.829,9.188,35.359,35.359,0,0,0,13.373,10.25,43.319,43.319,0,0,0,17.513,3.46c10.761,0,19.822-3,26.727-9.008,6.992-5.96,10.531-14.083,10.406-23.637v-52.916H1522.8Zm42.907,18.22v-20.963h40.343v-14.681h-40.343v-20.174h41.6v-14.58h-58.659v84.979h59.993v-14.582Zm-275.573-58.756a45.573,45.573,0,0,0-14.842-9.457,50.294,50.294,0,0,0-17.812-3.267,48.812,48.812,0,0,0-17.5,3.267,44.288,44.288,0,0,0-14.95,9.457,42.708,42.708,0,0,0-10.094,14.023,41.175,41.175,0,0,0-3.523,16.5,42.14,42.14,0,0,0,13.616,31.332,45.736,45.736,0,0,0,14.865,9.379,50.106,50.106,0,0,0,35.285.081,47.55,47.55,0,0,0,15.058-9.459,44.656,44.656,0,0,0,9.988-13.963,41.3,41.3,0,0,0,3.442-16.672,42.359,42.359,0,0,0-3.364-16.939,43.138,43.138,0,0,0-10.174-14.276m-5.481,41.757a28.591,28.591,0,0,1-6.3,9.248,28.244,28.244,0,0,1-9.448,6.164,31.49,31.49,0,0,1-22.765,0,30.266,30.266,0,0,1-9.418-6.164,27.182,27.182,0,0,1-6.3-9.248,26.27,26.27,0,0,1-2.224-10.871,27.335,27.335,0,0,1,2.224-10.963,27.83,27.83,0,0,1,6.3-9.112,33.029,33.029,0,0,1,9.689-6.284,30.02,30.02,0,0,1,22.3,0,30.265,30.265,0,0,1,16.012,15.665,27.369,27.369,0,0,1,2.12,10.694,26.891,26.891,0,0,1-2.2,10.871" transform="translate(-983.502 -1736.434)" fill="#394024"/></g><path d="M648.323,1828.458c11.361,0,20.365-3.6,27.026-10.715,6.548-7.119,9.981-16.81,9.981-28.817v-52.493h-7.542v52.9c0,9.65-2.651,17.291-7.873,23-5.454,5.686-12.591,8.606-21.593,8.606-8.965,0-16.122-2.92-21.42-8.606-5.4-5.7-8.066-13.345-8.066-23v-52.9h-7.224v52.493c0,12.145,3.26,21.815,9.894,28.817,6.613,7.116,15.587,10.715,26.816,10.715M720.1,1750.09l58.137,70.146h5.819v-79.3h-6.245v69.1l-57.461-69.1h-6.594v79.3H720.1Zm92.776,71.346h6.748v-79.412h-6.748Zm63.842,1.318,33.323-80.73h-6.769l-27.1,66.629-26.787-66.629h-7.038l33.42,80.73ZM972.4,1816H935.246v-32.259h35.016v-5.086H935.246v-31.484H971.49v-5.148H928.9v79.412h43.5Zm34.252-32.744h6.383a44.79,44.79,0,0,1,10.115.91,11.469,11.469,0,0,1,5.571,3.038,56.265,56.265,0,0,1,4.2,5.277c1.722,2.4,3.955,5.553,6.344,9.42l12.561,19.535h7.109l-21.662-33.4a24.068,24.068,0,0,0-3.007-3.87,29.77,29.77,0,0,0-3.975-2.881c4.992-1.607,8.742-4.021,11.237-7.293,2.506-3.21,3.695-7.268,3.695-12.048,0-6.44-2.127-11.354-6.606-14.773-4.525-3.426-10.839-5.148-19.137-5.148h-19.079v79.412h6.256Zm0-35.816h13.182c5.937,0,10.452,1.161,13.74,3.81q4.76,3.8,4.748,10.694a15.917,15.917,0,0,1-2.069,8.509,13.658,13.658,0,0,1-6.507,5.339,23.934,23.934,0,0,1-5.8,1.646c-2.437.23-6.525.366-12.4.366h-4.893Zm112.543,53.359a24.355,24.355,0,0,0-1.258-7.542,21.63,21.63,0,0,0-3.867-6.307c-2.495-2.785-7.417-5.666-14.545-8.585a18.432,18.432,0,0,1-1.681-.833c-6.509-2.748-10.7-5.107-12.582-7.369a11.908,11.908,0,0,1-2.911-8.45,14.029,14.029,0,0,1,4.486-10.717,16.679,16.679,0,0,1,11.6-4.217,25.2,25.2,0,0,1,8.751,1.57,41.275,41.275,0,0,1,9.39,5.008v-7.1a44.552,44.552,0,0,0-8.857-3.962,34.833,34.833,0,0,0-8.974-1.357c-6.769,0-12.184,1.993-16.4,5.978a19.588,19.588,0,0,0-6.344,15.026c0,5.031,1.336,9.146,4.118,12.34,2.768,3.155,7.9,6.323,15.456,9.457,7.28,3.076,11.883,5.7,13.895,7.946a12.794,12.794,0,0,1,2.989,8.9c0,4.874-1.393,8.684-4.488,11.583-2.863,2.805-7,4.256-12.126,4.256a25.057,25.057,0,0,1-9.535-2.147,44.8,44.8,0,0,1-10.567-6.461v7.64a41.176,41.176,0,0,0,10.066,5.3,30.96,30.96,0,0,0,10.154,1.722c6.787,0,12.28-1.934,16.651-6.052a20.481,20.481,0,0,0,6.576-15.628m31.988-58.776h-6.691v79.412h6.691Zm71.793,77.557a33.69,33.69,0,0,0,11.508-5.573,37.833,37.833,0,0,0,11.487-13.961,43.534,43.534,0,0,0,0-36.768,37.954,37.954,0,0,0-11.487-13.982,34.439,34.439,0,0,0-11.4-5.55,62.97,62.97,0,0,0-15.288-1.722H1180.57v79.412h27.221a56.75,56.75,0,0,0,15.182-1.855m-35.682-3.812v-68.1H1206.2a64.723,64.723,0,0,1,13.288,1.354,28.681,28.681,0,0,1,9.68,4.063,31.293,31.293,0,0,1,10.365,12.069,37.161,37.161,0,0,1,3.647,16.631,38.229,38.229,0,0,1-3.647,16.672,31.888,31.888,0,0,1-10.365,12.032,29.13,29.13,0,0,1-9.68,4.1,65.865,65.865,0,0,1-13.288,1.177Zm107.31-70.726-32.656,76.394h6.344L1279.409,1795h32.877l11.149,26.437h6.346l-32.659-76.394Zm-13.113,44.79,14.458-34.328,14.271,34.328Zm113.566,29.748a31.824,31.824,0,0,0,11.478-5.573,37.157,37.157,0,0,0,11.48-13.961,43.007,43.007,0,0,0,0-36.768,37.275,37.275,0,0,0-11.48-13.982,32.469,32.469,0,0,0-11.37-5.55,63.437,63.437,0,0,0-15.32-1.722h-27.074v79.412h27.074a56.7,56.7,0,0,0,15.212-1.855m-35.712-3.812v-68.1H1378.3a64.936,64.936,0,0,1,13.294,1.354,28.686,28.686,0,0,1,9.652,4.063,30.4,30.4,0,0,1,10.317,12.069,36.316,36.316,0,0,1,3.7,16.631,37.346,37.346,0,0,1-3.7,16.672,30.956,30.956,0,0,1-10.317,12.032,29.138,29.138,0,0,1-9.652,4.1,66.067,66.067,0,0,1-13.294,1.177Z" transform="translate(-611.613 -1736.434)" fill="#394024"/></g><rect width="192.31" height="25.472" transform="translate(643.959 595.058)" fill="#394024"/><path d="M-385.441-25.2h29.388c.948,0,1.264-.316,1.264-1.264v-2.923c0-.948-.316-1.264-1.264-1.264h-29.388v-19.2h30.1c.869,0,1.264-.316,1.264-1.264v-2.923c0-.948-.316-1.264-1.264-1.264h-35.076c-.948,0-1.264.316-1.264,1.264V-1.264c0,.948.316,1.264,1.264,1.264h3.792c.869,0,1.185-.316,1.185-1.264Zm42.739-9.4a64.6,64.6,0,0,1,12.166-1.264c8.295,0,11.218,3.634,11.218,13.588a34.835,34.835,0,0,0-12.8-2.765c-9.717,0-16.2,4.187-16.2,12.8,0,8.453,6.478,13.114,14.062,13.114a19.487,19.487,0,0,0,15.879-7.5l.316,5.372c.237.948.553,1.264,1.185,1.264h2.291c.869,0,1.185-.316,1.185-1.264V-22.12c0-13.035-3.634-18.96-16.906-18.96a74.665,74.665,0,0,0-13.588,1.422c-.948.316-1.185.711-.948,1.58l.632,2.37C-343.966-34.76-343.729-34.365-342.7-34.6Zm11.771,13.983c4.5,0,7.584,1.185,11.613,2.844v6.557c-2.528,3.713-7.663,7.426-13.114,7.426-6.4,0-9.954-3.555-9.954-8.453C-342.386-17.617-338.436-20.619-330.931-20.619ZM-283.215-4.5c-8.3,0-14.931-6.794-14.931-15.563,0-8.69,6.636-15.642,14.931-15.642a15.583,15.583,0,0,1,10.981,4.424c.632.632,1.106.474,1.659-.237l1.9-1.975c.632-.711.632-1.106,0-1.659a20.222,20.222,0,0,0-14.615-5.925,20.837,20.837,0,0,0-20.7,21.014A20.77,20.77,0,0,0-283.294.869a20.222,20.222,0,0,0,14.615-5.925c.632-.553.632-.948,0-1.659l-1.9-1.975c-.553-.711-1.027-.869-1.659-.237A15.583,15.583,0,0,1-283.215-4.5Zm53.641,3.239c.395.948.711,1.264,1.343,1.264h1.975c.869,0,1.185-.316,1.185-1.264V-38.947c0-.948-.316-1.264-1.185-1.264h-3.555c-.869,0-1.185.316-1.185,1.264v19.908c0,7.9-4.424,14.536-11.3,14.536-6.4,0-11.139-4.582-11.139-13.983V-38.947c0-.948-.316-1.264-1.185-1.264h-3.555c-.869,0-1.185.316-1.185,1.264v22.041c0,12.64,7.189,17.775,15.642,17.775,7.742,0,11.85-6.083,13.509-9.243Zm20.461,0c0,.948.316,1.264,1.264,1.264h3.476c.948,0,1.185-.316,1.185-1.264V-57.038c0-.948-.237-1.264-1.185-1.264h-3.476c-.948,0-1.264.316-1.264,1.264Zm44.24.237c.711-.395.79-.711.553-1.5l-.474-2.528c-.316-1.106-.553-1.185-1.58-.632A10.04,10.04,0,0,1-171.825-4.5c-6.32,0-9.085-3.4-9.085-12.64v-18.17h14.3c.948,0,1.185-.316,1.185-1.264v-2.37c0-1.027-.316-1.264-1.185-1.264h-14.3v-8.137c0-.948-.237-1.264-1.185-1.264h-3.476c-.948,0-1.185.316-1.185,1.264v8.137h-3.871c-.948,0-1.264.237-1.264,1.264v2.37c0,.948.316,1.264,1.264,1.264h3.871v18.644c0,10.981,3.871,17.538,14.3,17.538A14.779,14.779,0,0,0-164.873-1.027ZM-151.522-34.6a64.6,64.6,0,0,1,12.166-1.264c8.295,0,11.218,3.634,11.218,13.588a34.836,34.836,0,0,0-12.8-2.765c-9.717,0-16.195,4.187-16.195,12.8,0,8.453,6.478,13.114,14.062,13.114a19.487,19.487,0,0,0,15.879-7.5l.316,5.372c.237.948.553,1.264,1.185,1.264h2.291c.869,0,1.185-.316,1.185-1.264V-22.12c0-13.035-3.634-18.96-16.906-18.96a74.664,74.664,0,0,0-13.588,1.422c-.948.316-1.185.711-.948,1.58l.632,2.37C-152.786-34.76-152.549-34.365-151.522-34.6Zm11.771,13.983c4.5,0,7.584,1.185,11.613,2.844v6.557c-2.528,3.713-7.663,7.426-13.114,7.426-6.4,0-9.954-3.555-9.954-8.453C-151.206-17.617-147.256-20.619-139.751-20.619Zm59.8-11.218A16.024,16.024,0,0,0-94.563-41.08c-11.06,0-18.249,9.4-18.249,20.935,0,11.455,7.189,21.014,18.249,21.014,9.322,0,13.588-6.478,15.563-9.48l.632,7.347C-78.052-.316-77.736,0-77.025,0h1.817c.869,0,1.185-.316,1.185-1.264V-57.038c0-.948-.316-1.264-1.185-1.264h-3.555c-.869,0-1.185.316-1.185,1.264ZM-93.378-4.424c-8.295,0-13.509-6.952-13.509-15.721,0-8.137,5.214-15.563,13.509-15.563,8.216,0,13.509,7.742,13.509,15.642C-79.869-12.245-85.162-4.424-93.378-4.424ZM-9.954-31.837A16.024,16.024,0,0,0-24.569-41.08c-11.06,0-18.249,9.4-18.249,20.935C-42.818-8.69-35.629.869-24.569.869c9.322,0,13.588-6.478,15.563-9.48l.632,7.347C-8.058-.316-7.742,0-7.031,0h1.817c.869,0,1.185-.316,1.185-1.264V-57.038c0-.948-.316-1.264-1.185-1.264H-8.769c-.869,0-1.185.316-1.185,1.264ZM-23.384-4.424c-8.3,0-13.509-6.952-13.509-15.721,0-8.137,5.214-15.563,13.509-15.563,8.216,0,13.509,7.742,13.509,15.642C-9.875-12.245-15.168-4.424-23.384-4.424ZM42.739-8.216c-.632-.711-.948-.553-1.817-.079a21.7,21.7,0,0,1-12.4,3.95c-7.979,0-14.694-6.32-15.247-13.667H46.215c1.027,0,1.185-.316,1.185-1.264,0-11.85-7.189-21.8-19.513-21.8a20.837,20.837,0,0,0-20.7,21.014A20.855,20.855,0,0,0,28.282.869c5.846,0,12.245-1.9,15.958-5.53.553-.553.553-1.027,0-1.738ZM13.43-22.12A14.626,14.626,0,0,1,27.808-36.1C35.866-36.1,41-29.23,41.317-22.12ZM103.016-4.5C90.692-4.5,81.054-15.721,81.054-27.65S90.692-50.8,103.016-50.8a22.491,22.491,0,0,1,16.511,6.952,1.073,1.073,0,0,0,1.817-.079l2.291-2.528c.632-.711.711-1.106.079-1.738-5.056-5.056-13.035-8.137-20.7-8.137-15.563,0-28.282,12.956-28.282,28.677S87.453,1.027,103.016,1.027c7.663,0,15.642-3.081,20.7-8.137.711-.711.711-1.106.079-1.9l-2.37-2.528a1.069,1.069,0,0,0-1.738-.079A22.774,22.774,0,0,1,103.016-4.5Zm33.891,3.239c0,.948.237,1.264,1.185,1.264h3.476c.948,0,1.264-.316,1.264-1.264V-38.947c0-.948-.237-1.264-1.264-1.264h-3.476c-.948,0-1.185.316-1.185,1.264ZM135.643-53.4a4.08,4.08,0,0,0,4.108,4.108,4.147,4.147,0,0,0,4.187-4.108,4.147,4.147,0,0,0-4.187-4.108A4.08,4.08,0,0,0,135.643-53.4ZM191.417-8.216c-.632-.711-.948-.553-1.817-.079a21.7,21.7,0,0,1-12.4,3.95c-7.979,0-14.694-6.32-15.247-13.667h32.943c1.027,0,1.185-.316,1.185-1.264,0-11.85-7.189-21.8-19.513-21.8a20.837,20.837,0,0,0-20.7,21.014A20.855,20.855,0,0,0,176.96.869c5.846,0,12.245-1.9,15.958-5.53.553-.553.553-1.027,0-1.738Zm-29.309-13.9A14.626,14.626,0,0,1,176.486-36.1c8.058,0,13.193,6.873,13.509,13.983ZM211.8-38.947c-.4-.948-.711-1.264-1.343-1.264h-1.975c-.869,0-1.185.316-1.185,1.264V-1.264c0,.948.316,1.264,1.185,1.264h3.555c.869,0,1.185-.316,1.185-1.264V-21.172c0-7.9,4.424-14.536,11.3-14.536,6.4,0,11.139,4.582,11.139,13.983V-1.264c0,.948.316,1.264,1.185,1.264H240.4c.869,0,1.185-.316,1.185-1.264V-23.3c0-12.64-7.189-17.775-15.642-17.775-7.742,0-11.85,6.083-13.509,9.243ZM271.839-4.5c-8.3,0-14.931-6.794-14.931-15.563,0-8.69,6.636-15.642,14.931-15.642a15.583,15.583,0,0,1,10.981,4.424c.632.632,1.106.474,1.659-.237l1.9-1.975c.632-.711.632-1.106,0-1.659A20.222,20.222,0,0,0,271.76-41.08a20.837,20.837,0,0,0-20.7,21.014A20.77,20.77,0,0,0,271.76.869a20.222,20.222,0,0,0,14.615-5.925c.632-.553.632-.948,0-1.659l-1.9-1.975c-.553-.711-1.027-.869-1.659-.237A15.583,15.583,0,0,1,271.839-4.5ZM299.41-1.264c0,.948.237,1.264,1.185,1.264h3.476c.948,0,1.264-.316,1.264-1.264V-38.947c0-.948-.237-1.264-1.264-1.264H300.6c-.948,0-1.185.316-1.185,1.264ZM298.146-53.4a4.08,4.08,0,0,0,4.108,4.108,4.147,4.147,0,0,0,4.187-4.108,4.147,4.147,0,0,0-4.187-4.108A4.08,4.08,0,0,0,298.146-53.4Zm26.307,18.8a64.6,64.6,0,0,1,12.166-1.264c8.3,0,11.218,3.634,11.218,13.588a34.835,34.835,0,0,0-12.8-2.765c-9.717,0-16.2,4.187-16.2,12.8,0,8.453,6.478,13.114,14.062,13.114a19.487,19.487,0,0,0,15.879-7.5l.316,5.372c.237.948.553,1.264,1.185,1.264h2.291c.869,0,1.185-.316,1.185-1.264V-22.12c0-13.035-3.634-18.96-16.906-18.96a74.664,74.664,0,0,0-13.588,1.422c-.948.316-1.185.711-.948,1.58l.632,2.37C323.189-34.76,323.426-34.365,324.453-34.6Zm11.771,13.983c4.5,0,7.584,1.185,11.613,2.844v6.557c-2.528,3.713-7.663,7.426-13.114,7.426-6.4,0-9.954-3.555-9.954-8.453C324.769-17.617,328.719-20.619,336.224-20.619ZM379.516-3.95a23.455,23.455,0,0,1-13.351-4.424c-.948-.711-1.343-.316-1.738.474l-1.106,1.975c-.474.869-.474,1.264.237,1.738A30.389,30.389,0,0,0,379.832.869c10.191,0,16.2-5.214,16.2-12.482,0-7.663-7.584-10.191-15.4-11.3-7.189-1.027-11.139-1.817-11.139-6.162s3.239-7.189,9.875-7.189c5.135,0,8.137,1.185,12.4,3.792.948.632,1.343.237,1.738-.553l1.027-1.9c.395-.711.553-1.185-.395-1.738a29.016,29.016,0,0,0-15.089-4.424c-9.322,0-15.168,4.819-15.168,12.324,0,8.295,7.505,10.112,15.326,11.139,7.189,1.027,11.139,2.844,11.139,6.32C390.339-7.268,387.179-3.95,379.516-3.95Z" transform="translate(740.029 763.672)" fill="#394024"/></g></g></svg>