<svg xmlns="http://www.w3.org/2000/svg" width="1696.641" height="2078.41" viewBox="0 0 1696.641 2078.41"><g transform="translate(-868 -2672)"><rect width="1696.64" height="2078.411" transform="translate(868 2672)" fill="none"/><g transform="translate(997.793 2806.982)"><g transform="translate(364.774)"><path d="M993.131,1504.261c-71.659-174.023-96.884-354.2-96.884-540.054,0-80.118,5.1-160.414,18.468-239.439h68.378c-16.528,75.177-21.66,152.242-21.66,229.015,0,161.293,20.018,332.808,66.68,488.217,46.679-155.409,66.7-326.924,66.7-488.217,0-76.773-5.132-153.838-21.632-229.015h68.35C1154.867,803.794,1160,884.089,1160,964.207c0,185.855-25.21,366.031-96.9,540.054Z" transform="translate(-672.848 -608.752)" fill="#ff893b"/><path d="M1005.849,781.672a15.2,15.2,0,0,1,20.465,22.49,15.2,15.2,0,0,1-20.465-22.49Z" transform="translate(-406.254 -473.825)" fill="#ff893b"/><path d="M1005.849,794.965a15.2,15.2,0,1,1-.954,21.454A15.239,15.239,0,0,1,1005.849,794.965Z" transform="translate(-406.254 -439.985)" fill="#ff893b"/><path d="M1014.946,805.356a15.178,15.178,0,1,1-1.014,21.448A15.115,15.115,0,0,1,1014.946,805.356Z" transform="translate(-383.193 -413.585)" fill="#ff893b"/><path d="M1003.175,840a15.2,15.2,0,1,1-.986,21.455A15.2,15.2,0,0,1,1003.175,840Z" transform="translate(-413.128 -325.308)" fill="#ff893b"/><path d="M1003.134,853.1a15.191,15.191,0,1,1-2.089,21.387A15.16,15.16,0,0,1,1003.134,853.1Z" transform="translate(-414.697 -290.686)" fill="#ff893b"/><path d="M1011.943,863.777a15.185,15.185,0,1,1-2.419,21.313A15.15,15.15,0,0,1,1011.943,863.777Z" transform="translate(-392.778 -263.126)" fill="#ff893b"/><path d="M1012.245,831.72a15.193,15.193,0,1,1-1.011,21.451A15.168,15.168,0,0,1,1012.245,831.72Z" transform="translate(-390.039 -346.396)" fill="#ff893b"/><path d="M995.446,896.973a15.178,15.178,0,1,1-3.55,21.149A15.168,15.168,0,0,1,995.446,896.973Z" transform="translate(-436.398 -177.362)" fill="#ff893b"/><path d="M994.692,911.647a15.189,15.189,0,1,1-4.146,21.061A15.2,15.2,0,0,1,994.692,911.647Z" transform="translate(-439.223 -139.307)" fill="#ff893b"/><path d="M1005.574,889.714a15.19,15.19,0,1,1-3.611,21.181A15.208,15.208,0,0,1,1005.574,889.714Z" transform="translate(-410.725 -195.764)" fill="#ff893b"/><path d="M1022.758,764.9a15.191,15.191,0,1,1,7.044,20.288A15.148,15.148,0,0,1,1022.758,764.9Z" transform="translate(-354.548 -528.244)" fill="#ff893b"/><path d="M1025.188,755.824a15.188,15.188,0,1,1,14.443,15.9A15.2,15.2,0,0,1,1025.188,755.824Z" transform="translate(-344.506 -566.393)" fill="#ff893b"/><path d="M1024.851,743.149a15.18,15.18,0,1,1,17.752,12.087A15.176,15.176,0,0,1,1024.851,743.149Z" transform="translate(-346.018 -607.746)" fill="#ff893b"/><path d="M1021.4,733a15.189,15.189,0,1,1,20.795,5.43A15.216,15.216,0,0,1,1021.4,733Z" transform="translate(-359.34 -645.984)" fill="#ff893b"/><path d="M1016.559,771.794a15.172,15.172,0,1,1-.986,21.447A15.182,15.182,0,0,1,1016.559,771.794Z" transform="translate(-379.017 -499.06)" fill="#ff893b"/><path d="M882.916,781.672a15.2,15.2,0,1,0,1,21.447A15.221,15.221,0,0,0,882.916,781.672Z" transform="translate(-771.5 -473.825)" fill="#ff893b"/><path d="M882.916,794.965a15.2,15.2,0,1,0,1,21.454A15.183,15.183,0,0,0,882.916,794.965Z" transform="translate(-771.5 -439.985)" fill="#ff893b"/><path d="M873.858,805.356a15.188,15.188,0,1,0,.986,21.448A15.162,15.162,0,0,0,873.858,805.356Z" transform="translate(-794.557 -413.585)" fill="#ff893b"/><path d="M885.606,840a15.19,15.19,0,1,0,.986,21.455A15.2,15.2,0,0,0,885.606,840Z" transform="translate(-764.627 -325.308)" fill="#ff893b"/><path d="M885.645,853.1a15.18,15.18,0,1,0,2.089,21.387A15.161,15.161,0,0,0,885.645,853.1Z" transform="translate(-763.056 -290.686)" fill="#ff893b"/><path d="M876.846,863.777a15.185,15.185,0,1,0,2.416,21.313A15.172,15.172,0,0,0,876.846,863.777Z" transform="translate(-784.969 -263.126)" fill="#ff893b"/><path d="M876.541,831.72a15.191,15.191,0,1,0,1.011,21.451A15.171,15.171,0,0,0,876.541,831.72Z" transform="translate(-787.721 -346.396)" fill="#ff893b"/><path d="M893.331,896.973a15.182,15.182,0,1,0,3.551,21.149A15.185,15.185,0,0,0,893.331,896.973Z" transform="translate(-741.353 -177.362)" fill="#ff893b"/><path d="M894.062,911.647a15.182,15.182,0,1,0,4.189,21.061A15.159,15.159,0,0,0,894.062,911.647Z" transform="translate(-738.534 -139.307)" fill="#ff893b"/><path d="M883.229,889.714a15.189,15.189,0,1,0,3.582,21.181A15.191,15.191,0,0,0,883.229,889.714Z" transform="translate(-767.024 -195.764)" fill="#ff893b"/><path d="M866.079,764.9a15.2,15.2,0,1,0-7.069,20.288A15.169,15.169,0,0,0,866.079,764.9Z" transform="translate(-823.236 -528.244)" fill="#ff893b"/><path d="M863.6,755.824a15.181,15.181,0,1,0-14.439,15.9A15.2,15.2,0,0,0,863.6,755.824Z" transform="translate(-833.261 -566.393)" fill="#ff893b"/><path d="M863.955,743.149a15.18,15.18,0,1,0-17.734,12.087A15.177,15.177,0,0,0,863.955,743.149Z" transform="translate(-831.763 -607.746)" fill="#ff893b"/><path d="M867.38,733a15.189,15.189,0,1,0-20.78,5.43A15.2,15.2,0,0,0,867.38,733Z" transform="translate(-818.433 -645.984)" fill="#ff893b"/><path d="M872.217,771.794a15.172,15.172,0,1,0,.986,21.447A15.161,15.161,0,0,0,872.217,771.794Z" transform="translate(-798.733 -499.06)" fill="#ff893b"/><g transform="translate(29.177)"><path d="M1068.616,1409.668l-86.669-61.1a15.98,15.98,0,0,1-2.5-22.536l57.937-67.829a32.2,32.2,0,0,0-2.089-45.484l-72.6-66.094a16.057,16.057,0,0,1-1.06-22.675l66.186-72.525a32.182,32.182,0,0,0-2.1-45.494l-96.1-87.772c-13.095-12-12.8-31.446-2.072-45.5L1027.58,739.1c9.832-12.9,9.2-27.931-1.745-37.894-5.49-5-16.262-10.828-36-8.7C895.49,702.667,832.166,785.4,842.612,881.042c5.2,48.038,22.359,65.278,31.754,73.872l72.379,66.076a16.042,16.042,0,0,1,1.029,22.675l-66.158,72.514a32.207,32.207,0,0,0,2.121,45.48l72.553,66.172a15.992,15.992,0,0,1,1.032,22.642l-58.234,72.979a32.2,32.2,0,0,0,5.026,45.253l86.814,61.938a16,16,0,0,1,2.745,22.519l-37.412,55.911a32.185,32.185,0,1,0,52.329,37.486l65.47-91.691A32.172,32.172,0,0,0,1068.616,1409.668ZM946.536,734.2a12.92,12.92,0,1,1,.833,18.277A12.95,12.95,0,0,1,946.536,734.2Z" transform="translate(-841.487 -692.057)" fill="#ff893b"/><path d="M1049.092,692.509c-19.748-2.132-30.52,3.7-36.007,8.7-10.953,9.963-11.577,25-1.763,37.894l100.065,133.561c10.708,14.052,11.038,33.5-2.089,45.5l-96.125,87.772a32.206,32.206,0,0,0-2.089,45.494l66.2,72.525a16.045,16.045,0,0,1-1.075,22.675l-72.585,66.094a32.172,32.172,0,0,0-2.089,45.484l57.969,67.829a15.984,15.984,0,0,1-2.536,22.536l-86.637,61.1a32.22,32.22,0,0,0-5.491,45.2l65.456,91.691a32.2,32.2,0,0,0,52.357-37.486l-37.411-55.911a16.012,16.012,0,0,1,2.745-22.519l86.818-61.937a32.245,32.245,0,0,0,5.04-45.253l-58.267-72.979a16,16,0,0,1,1.046-22.642l72.556-66.172a32.248,32.248,0,0,0,2.117-45.48l-66.144-72.514a16.041,16.041,0,0,1,1.018-22.675l72.375-66.076c9.4-8.594,26.551-25.835,31.772-73.872C1206.764,785.4,1143.426,702.667,1049.092,692.509Zm42.455,59.969a12.919,12.919,0,1,1,.834-18.277A12.919,12.919,0,0,1,1091.547,752.478Z" transform="translate(-544.758 -692.057)" fill="#ff893b"/></g></g><path d="M769.556,1141.075H861.95v-35.9H769.556v-51.6H864.55v-35.411H730.414v211.984H867.649v-35.886H769.556Zm158.417-108.237H888.668v197.307h138.147v-33.652H927.973Zm278.663,83.938c5.31-3.444,10.009-7.367,13.439-12.247,5.817-7.892,8.353-17.706,8.353-28.892,0-17.975-6.086-32.7-18.316-42.8-12.233-10.218-28.91-14.854-49.974-14.854h-64.665v212.161h75.766c21.777,0,39.646-5.309,53.209-16.109,13.406-10.8,20.628-25.853,20.376-44.037,0-14.081-4.583-26.551-13.247-36.468a63.4,63.4,0,0,0-24.941-16.755m-72.422-62.913h22.912c12.024,0,19.929,2.142,24.225,5.661a17.3,17.3,0,0,1,4.923,6.895,33.477,33.477,0,0,1,1.656,11.037c0,9.8-2.912,15.9-8.817,20.376-5.654,4.239-15.723,6.956-30.115,6.956h-14.783Zm62.055,133.724c-5.072,3.848-14.443,6.519-28.1,6.263h-33.95v-53.028h29.176c15.336,0,25.941,2.625,31.8,6.92,5.789,4.387,8.814,10.25,8.814,20.213,0,9.786-2.578,15.631-7.739,19.632m357.132-73.021h0l-4.207-2.294c-11.219-6.5-19.422-12.442-24.7-17.528a26.617,26.617,0,0,1-5.458-6.859,8.525,8.525,0,0,1-1.67-4.7c.177-4.926,1.787-8.235,6.263-11.47,4.565-3.239,10.442-5.058,18.376-5.058a52.941,52.941,0,0,1,19.99,3.834,102.1,102.1,0,0,1,22.437,13.5l7.934,5.909v-42.246l-2.387-1.433a116.158,116.158,0,0,0-23.3-9.743,90.125,90.125,0,0,0-23.479-3.291c-17.631,0-32.787,4.937-44.573,14.7a48.569,48.569,0,0,0-17.752,38.277c0,11.087,3.1,20.826,9.339,28.97,3.55,4.327,8.654,8.785,15.574,13.857,7.1,5.384,16.23,11.261,27.3,18.064,6.92,3.951,12.527,7.668,16.883,10.74a58.029,58.029,0,0,1,8.8,7.306c3.011,3.671,4.178,7.342,4.5,12.236-.327,5.891-2.089,9.591-6.565,13.035-4.3,3.249-10.829,5.267-19.749,5.267a49.444,49.444,0,0,1-23.479-5.654c-7.278-3.728-15.273-10.247-23.866-19.124l-8.533-9.25v48.974l2.089,1.391a81.568,81.568,0,0,0,25.686,13.871,90.613,90.613,0,0,0,29.835,4.565c17.752,0,32.907-4.973,44.541-14.712,11.754-9.814,17.9-22.88,17.9-37.961,0-12.828-3.043-24.075-9.576-33.216-6.533-9.4-19.125-18.989-38.156-29.96m246.724,82.956c14.708-17.56,22.075-38.277,22.075-61.693a106.221,106.221,0,0,0-7.814-40.291,103.428,103.428,0,0,0-23.242-33.371,102.2,102.2,0,0,0-34.01-22.224,110.388,110.388,0,0,0-40.784-7.746,107.831,107.831,0,0,0-40.334,7.746,105.866,105.866,0,0,0-34.34,22.224,101.96,101.96,0,0,0-22.731,33,94.673,94.673,0,0,0-8.264,38.77c0,24.239,7.4,45.81,21.9,64.051,14.258,18.082,33.322,30.1,56.624,36.01,17.361,12.279,33.68,21.66,49.1,28.1,15.992,6.746,30.492,10.026,43.675,10.026h3.88a14.139,14.139,0,0,0,3.192-.33l1.582-.241,29.059-25.519-2.238-6.129-1.582-3.852-3.849.84a95.334,95.334,0,0,1-10.083,1.55,42.819,42.819,0,0,1-7.966.521,102.469,102.469,0,0,1-23.778-3.117c-5.161-1.451-11.037-3.522-17.273-5.941,19.092-7.1,35.173-17.716,47.2-32.382m-21.572-40.738a65.352,65.352,0,0,1-14.5,21.585l-.238.2a67.464,67.464,0,0,1-21.777,15.06,68.335,68.335,0,0,1-25.689,5.061,65.924,65.924,0,0,1-25.714-5.235,70.31,70.31,0,0,1-21.869-14.886v-.2a62.307,62.307,0,0,1-14.35-21.585,64.128,64.128,0,0,1-5.132-25.732,65.67,65.67,0,0,1,5.132-26.044,63.461,63.461,0,0,1,14.261-21.5A70.513,70.513,0,0,1,1690.9,1068.7a66.816,66.816,0,0,1,51.137,0,62.985,62.985,0,0,1,21.657,14.635,66.437,66.437,0,0,1,14.857,22.256,63.042,63.042,0,0,1,5.072,25.463,65.687,65.687,0,0,1-5.072,25.732m194.6-2.671c-.177,12.6-4.175,21.986-13.215,29.474-8.743,7.384-20.585,11.534-36.1,11.534a61.124,61.124,0,0,1-23.806-4.5,48.363,48.363,0,0,1-17.989-13.276,25.72,25.72,0,0,1-5.43-11.013c-1.224-4.249-1.912-12.438-1.912-24.281V1032.973h-36.454v110.149c0,15.049,1.014,26.278,3.281,34.219a56.619,56.619,0,0,0,11.158,21.182,81.668,81.668,0,0,0,30.818,23.643,99.89,99.89,0,0,0,40.334,7.98c24.824,0,45.708-6.92,61.607-20.766,16.138-13.737,24.253-32.425,23.987-54.475V1032.973h-36.28Zm98.9,42.022v-48.392h92.961v-33.8h-92.961v-46.466h95.852v-33.638H2032.737v195.888h138.278v-33.591Zm-635.019-135.448a106.033,106.033,0,0,0-34.205-21.76,115.817,115.817,0,0,0-41.05-7.523,112.325,112.325,0,0,0-40.337,7.523,102.406,102.406,0,0,0-34.425,21.76,98.545,98.545,0,0,0-23.271,32.3,95.285,95.285,0,0,0-8.115,38.068,98.09,98.09,0,0,0,7.92,39.156,99.092,99.092,0,0,0,23.466,33.024,105.419,105.419,0,0,0,34.219,21.6,115.546,115.546,0,0,0,81.356.18,109.2,109.2,0,0,0,34.652-21.784,102.278,102.278,0,0,0,23.047-32.187,95.234,95.234,0,0,0,7.927-38.394,97.982,97.982,0,0,0-7.75-39.075,99.167,99.167,0,0,0-23.434-32.889m-12.634,96.213a66.041,66.041,0,0,1-36.326,35.521,72.707,72.707,0,0,1-52.432,0,68.891,68.891,0,0,1-21.688-14.219,61.68,61.68,0,0,1-14.528-21.3,60.5,60.5,0,0,1-5.1-25.026,63.387,63.387,0,0,1,5.1-25.289,64.251,64.251,0,0,1,14.528-20.99,75.949,75.949,0,0,1,22.3-14.464,69.527,69.527,0,0,1,51.393,0,65.011,65.011,0,0,1,21.9,14.464,66.061,66.061,0,0,1,15.021,21.6,63.179,63.179,0,0,1,4.891,24.675,61.918,61.918,0,0,1-5.054,25.026" transform="translate(-730.414 138.004)" fill="#394024"/><path d="M813.866,1106.783c17.528,0,31.442-5.565,41.678-16.5,10.112-11.038,15.436-25.923,15.436-44.48V964.848H859.3v81.583c0,14.854-4.072,26.686-12.112,35.471-8.413,8.743-19.418,13.276-33.322,13.276-13.843,0-24.884-4.533-33.027-13.276q-12.508-13.178-12.471-35.471V964.848h-11.13V1045.8c0,18.741,5.029,33.659,15.262,44.48,10.19,10.938,24.062,16.5,41.366,16.5m110.727-120.9,89.68,108.237h8.995V971.768H1013.6V1078.38L924.993,971.768H914.807v122.35h9.785Zm143.127,110.042h10.41V973.438h-10.41Zm98.451,2.043,51.4-124.527h-10.413l-41.827,102.792-41.3-102.792h-10.874l51.581,124.527Zm147.6-10.4h-57.295v-49.779H1310.5v-7.845h-54.025V981.394h55.876v-7.955H1246.69v122.484h67.084Zm52.851-50.542h9.846a67.128,67.128,0,0,1,15.571,1.451,17.793,17.793,0,0,1,8.615,4.653,90,90,0,0,1,6.477,8.186c2.653,3.674,6.115,8.537,9.782,14.531l19.362,30.073h10.981L1413.81,1044.4a36.727,36.727,0,0,0-4.622-5.92,44,44,0,0,0-6.146-4.462c7.7-2.476,13.513-6.192,17.333-11.261,3.909-4.919,5.728-11.218,5.728-18.588,0-9.935-3.309-17.482-10.2-22.774-6.98-5.31-16.706-7.955-29.527-7.955h-29.417v122.484h9.669Zm0-55.2h20.33c9.144,0,16.088,1.788,21.188,5.874,4.895,3.88,7.31,9.381,7.31,16.468,0,5.164-.954,9.58-3.188,13.13a21.2,21.2,0,0,1-10.027,8.261,37.3,37.3,0,0,1-8.941,2.518c-3.792.348-10.084.571-19.156.571h-7.516Zm173.593,82.282a36.982,36.982,0,0,0-1.94-11.612,33.041,33.041,0,0,0-5.965-9.74c-3.848-4.278-11.456-8.74-22.437-13.254a25.622,25.622,0,0,1-2.593-1.27c-10.055-4.252-16.5-7.9-19.394-11.367-3.072-3.238-4.5-7.743-4.5-13.027a21.648,21.648,0,0,1,6.923-16.556c4.682-4.231,10.591-6.515,17.869-6.515a39.4,39.4,0,0,1,13.517,2.433c4.742,1.625,9.4,4.324,14.5,7.753V979.971a71.83,71.83,0,0,0-13.662-6.143,55.709,55.709,0,0,0-13.872-2.061c-10.413,0-18.766,3.089-25.271,9.218-6.562,6.1-9.785,13.875-9.785,23.182,0,7.76,2.029,14.116,6.356,19.035,4.235,4.873,12.173,9.771,23.806,14.588,11.247,4.76,18.379,8.817,21.479,12.275,3.224,3.685,4.6,8.2,4.6,13.712,0,7.533-2.178,13.4-6.92,17.883-4.448,4.3-10.8,6.562-18.709,6.562a38.99,38.99,0,0,1-14.737-3.306,68.7,68.7,0,0,1-16.258-9.963v11.779a63.524,63.524,0,0,0,15.514,8.175,47.8,47.8,0,0,0,15.662,2.66c10.442,0,18.943-2.972,25.718-9.346,6.71-6.32,10.112-14.29,10.112-24.115m49.346-90.67h-10.321v122.5h10.321Zm110.713,119.636a52.3,52.3,0,0,0,17.78-8.548,59.252,59.252,0,0,0,17.72-21.586,67.213,67.213,0,0,0,0-56.681,59.388,59.388,0,0,0-17.72-21.6,53.948,53.948,0,0,0-17.6-8.576,97.685,97.685,0,0,0-23.568-2.646h-42v122.484h42a86.484,86.484,0,0,0,23.391-2.848m-54.982-5.852V982.181h29.144a97.651,97.651,0,0,1,20.5,2.093,44.338,44.338,0,0,1,14.946,6.246,48.275,48.275,0,0,1,15.964,18.6,57.251,57.251,0,0,1,5.607,25.668,58.768,58.768,0,0,1-5.607,25.718,49.868,49.868,0,0,1-15.964,18.585,46.4,46.4,0,0,1-14.946,6.3,101.483,101.483,0,0,1-20.5,1.83ZM1810.78,978.109l-50.329,117.813h9.786l17.124-40.739h50.687l17.213,40.739h9.789l-50.361-117.813Zm-20.227,69.095,22.344-52.971,21.99,52.971Zm175.182,45.87a49.233,49.233,0,0,0,17.723-8.548,57.836,57.836,0,0,0,17.72-21.586,66.364,66.364,0,0,0,0-56.681,57.965,57.965,0,0,0-17.72-21.6,50.757,50.757,0,0,0-17.514-8.576,98.767,98.767,0,0,0-23.628-2.646h-41.8v122.484h41.8a86.538,86.538,0,0,0,23.419-2.848m-55.1-5.852V982.181H1939.9a97.822,97.822,0,0,1,20.493,2.093,43.959,43.959,0,0,1,14.922,6.246,46.849,46.849,0,0,1,15.868,18.6,55.761,55.761,0,0,1,5.728,25.668,57.222,57.222,0,0,1-5.728,25.718,48.343,48.343,0,0,1-15.868,18.585,45.992,45.992,0,0,1-14.922,6.3,101.643,101.643,0,0,1-20.493,1.83Z" transform="translate(-662.099 2.679)" fill="#394024"/><rect width="296.675" height="39.312" transform="translate(571.957 1506.698)" fill="#394024"/><path d="M-640.927-38.918h45.384c1.464,0,1.952-.488,1.952-1.952v-4.514c0-1.464-.488-1.952-1.952-1.952h-45.384V-76.982h46.482c1.342,0,1.952-.488,1.952-1.952v-4.514c0-1.464-.488-1.952-1.952-1.952h-54.168c-1.464,0-1.952.488-1.952,1.952v81.5c0,1.464.488,1.952,1.952,1.952h5.856c1.342,0,1.83-.488,1.83-1.952Zm66-14.518a99.758,99.758,0,0,1,18.788-1.952c12.81,0,17.324,5.612,17.324,20.984a53.8,53.8,0,0,0-19.764-4.27c-15.006,0-25.01,6.466-25.01,19.764,0,13.054,10,20.252,21.716,20.252,13.176,0,21.228-7.076,24.522-11.59l.488,8.3c.366,1.464.854,1.952,1.83,1.952h3.538c1.342,0,1.83-.488,1.83-1.952V-34.16c0-20.13-5.612-29.28-26.108-29.28a115.3,115.3,0,0,0-20.984,2.2c-1.464.488-1.83,1.1-1.464,2.44l.976,3.66C-576.877-53.68-576.511-53.07-574.925-53.436Zm18.178,21.594c6.954,0,11.712,1.83,17.934,4.392v10.126c-3.9,5.734-11.834,11.468-20.252,11.468-9.882,0-15.372-5.49-15.372-13.054C-574.437-27.206-568.337-31.842-556.747-31.842Zm73.688,24.888c-12.81,0-23.058-10.492-23.058-24.034,0-13.42,10.248-24.156,23.058-24.156A24.064,24.064,0,0,1-466.1-48.312c.976.976,1.708.732,2.562-.366l2.928-3.05c.976-1.1.976-1.708,0-2.562a31.229,31.229,0,0,0-22.57-9.15c-17.812,0-31.964,14.64-31.964,32.452a32.075,32.075,0,0,0,31.964,32.33,31.229,31.229,0,0,0,22.57-9.15c.976-.854.976-1.464,0-2.562l-2.928-3.05c-.854-1.1-1.586-1.342-2.562-.366A24.064,24.064,0,0,1-483.059-6.954Zm82.838,5c.61,1.464,1.1,1.952,2.074,1.952h3.05c1.342,0,1.83-.488,1.83-1.952V-60.146c0-1.464-.488-1.952-1.83-1.952h-5.49c-1.342,0-1.83.488-1.83,1.952V-29.4c0,12.2-6.832,22.448-17.446,22.448-9.882,0-17.2-7.076-17.2-21.594v-31.6c0-1.464-.488-1.952-1.83-1.952h-5.49c-1.342,0-1.83.488-1.83,1.952v34.038c0,19.52,11.1,27.45,24.156,27.45,11.956,0,18.3-9.394,20.862-14.274Zm31.6,0c0,1.464.488,1.952,1.952,1.952h5.368c1.464,0,1.83-.488,1.83-1.952V-88.084c0-1.464-.366-1.952-1.83-1.952h-5.368c-1.464,0-1.952.488-1.952,1.952Zm68.32.366c1.1-.61,1.22-1.1.854-2.318l-.732-3.9c-.488-1.708-.854-1.83-2.44-.976a15.5,15.5,0,0,1-8.418,1.83c-9.76,0-14.03-5.246-14.03-19.52v-28.06h22.082c1.464,0,1.83-.488,1.83-1.952v-3.66c0-1.586-.488-1.952-1.83-1.952h-22.082V-74.664c0-1.464-.366-1.952-1.83-1.952h-5.368c-1.464,0-1.83.488-1.83,1.952V-62.1h-5.978c-1.464,0-1.952.366-1.952,1.952v3.66c0,1.464.488,1.952,1.952,1.952h5.978v28.792c0,16.958,5.978,27.084,22.082,27.084A22.824,22.824,0,0,0-300.3-1.586Zm20.618-51.85A99.758,99.758,0,0,1-260.9-55.388c12.81,0,17.324,5.612,17.324,20.984a53.8,53.8,0,0,0-19.764-4.27c-15.006,0-25.01,6.466-25.01,19.764,0,13.054,10,20.252,21.716,20.252,13.176,0,21.228-7.076,24.522-11.59l.488,8.3c.366,1.464.854,1.952,1.83,1.952h3.538c1.342,0,1.83-.488,1.83-1.952V-34.16c0-20.13-5.612-29.28-26.108-29.28a115.3,115.3,0,0,0-20.984,2.2c-1.464.488-1.83,1.1-1.464,2.44l.976,3.66C-281.637-53.68-281.271-53.07-279.685-53.436Zm18.178,21.594c6.954,0,11.712,1.83,17.934,4.392v10.126c-3.9,5.734-11.834,11.468-20.252,11.468-9.882,0-15.372-5.49-15.372-13.054C-279.2-27.206-273.1-31.842-261.507-31.842Zm92.354-17.324a24.747,24.747,0,0,0-22.57-14.274c-17.08,0-28.182,14.518-28.182,32.33,0,17.69,11.1,32.452,28.182,32.452,14.4,0,20.984-10,24.034-14.64l.976,11.346c.488,1.464.976,1.952,2.074,1.952h2.806c1.342,0,1.83-.488,1.83-1.952V-88.084c0-1.464-.488-1.952-1.83-1.952h-5.49c-1.342,0-1.83.488-1.83,1.952Zm-20.74,42.334c-12.81,0-20.862-10.736-20.862-24.278,0-12.566,8.052-24.034,20.862-24.034,12.688,0,20.862,11.956,20.862,24.156C-169.031-18.91-177.205-6.832-189.893-6.832ZM-61.061-49.166A24.747,24.747,0,0,0-83.631-63.44c-17.08,0-28.182,14.518-28.182,32.33,0,17.69,11.1,32.452,28.182,32.452,14.4,0,20.984-10,24.034-14.64l.976,11.346C-58.133-.488-57.645,0-56.547,0h2.806c1.342,0,1.83-.488,1.83-1.952V-88.084c0-1.464-.488-1.952-1.83-1.952h-5.49c-1.342,0-1.83.488-1.83,1.952ZM-81.8-6.832c-12.81,0-20.862-10.736-20.862-24.278,0-12.566,8.052-24.034,20.862-24.034,12.688,0,20.862,11.956,20.862,24.156C-60.939-18.91-69.113-6.832-81.8-6.832ZM20.313-12.688c-.976-1.1-1.464-.854-2.806-.122A33.516,33.516,0,0,1-1.647-6.71c-12.322,0-22.692-9.76-23.546-21.106H25.681c1.586,0,1.83-.488,1.83-1.952,0-18.3-11.1-33.672-30.134-33.672-17.812,0-31.964,14.64-31.964,32.452A32.207,32.207,0,0,0-2.013,1.342c9.028,0,18.91-2.928,24.644-8.54.854-.854.854-1.586,0-2.684ZM-24.949-34.16c.366-10.98,9.638-21.594,22.2-21.594C9.7-55.754,17.629-45.14,18.117-34.16ZM76.189-1.952C76.189-.488,76.677,0,78.141,0H84c1.464,0,1.83-.488,1.83-1.952v-81.5c0-1.464-.366-1.952-1.83-1.952H78.141c-1.464,0-1.952.488-1.952,1.952Zm41.236-58.194c-.61-1.464-1.1-1.952-2.074-1.952H112.3c-1.342,0-1.83.488-1.83,1.952V-1.952c0,1.464.488,1.952,1.83,1.952h5.49c1.342,0,1.83-.488,1.83-1.952V-32.7c0-12.2,6.832-22.448,17.446-22.448,9.882,0,17.2,7.076,17.2,21.594v31.6c0,1.464.488,1.952,1.83,1.952h5.49c1.342,0,1.83-.488,1.83-1.952V-35.99c0-19.52-11.1-27.45-24.156-27.45-11.956,0-18.3,9.394-20.862,14.274ZM228.811-3.416c0,14.64-4.88,25.376-20.618,25.376-10.492,0-16.836-2.806-20.618-4.148-1.342-.61-1.708-.366-2.074,1.1l-1.22,4.636c-.366,1.342-.122,1.708,1.1,2.2a63.386,63.386,0,0,0,24.156,4.392c18.91,0,28.426-11.1,28.426-34.526V-60.146c0-1.464-.488-1.952-1.83-1.952h-2.806c-1.1,0-1.586.488-2.074,1.952L230.275-48.8c-3.05-4.636-9.638-14.64-24.034-14.64-17.08,0-28.182,14.762-28.182,32.452,0,17.812,10.98,32.33,28.182,32.33a24.747,24.747,0,0,0,22.57-14.274Zm-20.74-51.85c12.688,0,20.862,12.078,20.862,24.156,0,12.2-8.174,24.156-20.862,24.156-12.81,0-20.862-11.59-20.862-24.034C187.209-44.53,195.261-55.266,208.071-55.266ZM310.185-12.688c-.976-1.1-1.464-.854-2.806-.122a33.516,33.516,0,0,1-19.154,6.1c-12.322,0-22.692-9.76-23.546-21.106h50.874c1.586,0,1.83-.488,1.83-1.952,0-18.3-11.1-33.672-30.134-33.672-17.812,0-31.964,14.64-31.964,32.452a32.207,32.207,0,0,0,32.574,32.33c9.028,0,18.91-2.928,24.644-8.54.854-.854.854-1.586,0-2.684ZM264.923-34.16c.366-10.98,9.638-21.594,22.2-21.594,12.444,0,20.374,10.614,20.862,21.594Zm76.738-25.986c-.61-1.464-1.1-1.952-2.074-1.952h-3.05c-1.342,0-1.83.488-1.83,1.952V-1.952c0,1.464.488,1.952,1.83,1.952h5.49c1.342,0,1.83-.488,1.83-1.952V-32.7c0-12.2,6.832-22.448,17.446-22.448,9.882,0,17.2,7.076,17.2,21.594v31.6c0,1.464.488,1.952,1.83,1.952h5.49c1.342,0,1.83-.488,1.83-1.952V-35.99c0-19.52-11.1-27.45-24.156-27.45-11.956,0-18.3,9.394-20.862,14.274Zm69.3,58.194c0,1.464.366,1.952,1.83,1.952h5.368c1.464,0,1.952-.488,1.952-1.952V-60.146c0-1.464-.366-1.952-1.952-1.952h-5.368c-1.464,0-1.83.488-1.83,1.952Zm-1.952-80.52a6.3,6.3,0,0,0,6.344,6.344,6.4,6.4,0,0,0,6.466-6.344,6.4,6.4,0,0,0-6.466-6.344A6.3,6.3,0,0,0,409.005-82.472Zm86.132,69.784c-.976-1.1-1.464-.854-2.806-.122a33.516,33.516,0,0,1-19.154,6.1c-12.322,0-22.692-9.76-23.546-21.106h50.874c1.586,0,1.83-.488,1.83-1.952,0-18.3-11.1-33.672-30.134-33.672-17.812,0-31.964,14.64-31.964,32.452a32.207,32.207,0,0,0,32.574,32.33c9.028,0,18.91-2.928,24.644-8.54.854-.854.854-1.586,0-2.684ZM449.875-34.16c.366-10.98,9.638-21.594,22.2-21.594,12.444,0,20.374,10.614,20.862,21.594ZM552.233-54.412c1.464,0,1.83-.366,2.2-1.83l.732-5.49c.244-1.22,0-1.708-1.708-1.708-17.324,0-22.936,10.37-25.376,15.494l-1.464-12.2c-.61-1.464-1.1-1.952-2.074-1.952h-3.05c-1.342,0-1.83.488-1.83,1.952V-1.952c0,1.464.488,1.952,1.83,1.952h5.49c1.342,0,1.83-.488,1.83-1.952V-31.964C528.809-43.31,536.373-54.412,552.233-54.412Zm18.91,52.46c0,1.464.488,1.952,1.952,1.952h5.246c1.464,0,1.952-.488,1.952-1.952V-60.146c0-1.464-.366-1.952-1.952-1.952H573.1c-1.464,0-1.952.488-1.952,1.952Zm19.4-80.032a1.576,1.576,0,0,0,.366-2.44l-2.318-3.66c-.732-1.1-1.586-1.464-2.44-.488l-15.25,16.1c-1.342,1.342-.854,2.074.366,2.074h4.88a4.878,4.878,0,0,0,3.172-1.22Zm18.178,28.548a99.758,99.758,0,0,1,18.788-1.952c12.81,0,17.324,5.612,17.324,20.984a53.8,53.8,0,0,0-19.764-4.27c-15.006,0-25.01,6.466-25.01,19.764,0,13.054,10,20.252,21.716,20.252,13.176,0,21.228-7.076,24.522-11.59l.488,8.3c.366,1.464.854,1.952,1.83,1.952h3.538c1.342,0,1.83-.488,1.83-1.952V-34.16c0-20.13-5.612-29.28-26.108-29.28a115.3,115.3,0,0,0-20.984,2.2c-1.464.488-1.83,1.1-1.464,2.44l.976,3.66C606.767-53.68,607.133-53.07,608.719-53.436ZM626.9-31.842c6.954,0,11.712,1.83,17.934,4.392v10.126C640.927-11.59,633-5.856,624.579-5.856c-9.882,0-15.372-5.49-15.372-13.054C609.207-27.206,615.307-31.842,626.9-31.842Z" transform="translate(725.158 1771.303)" fill="#394024"/></g></g></svg>