<svg xmlns="http://www.w3.org/2000/svg" width="1527" height="780.873" viewBox="0 0 1527 780.873"><g transform="translate(-195 -90)"><rect width="1527" height="780.873" transform="translate(195 90)" fill="none"/><g transform="translate(287.871 190.999)"><g transform="translate(0 0)"><path d="M737.983,475.586c-30.24-73.429-40.9-149.46-40.9-227.875,0-33.816,2.164-67.689,7.8-101.035h28.847c-6.969,31.713-9.131,64.248-9.131,96.628,0,68.072,8.431,140.429,28.137,206.018,19.685-65.589,28.147-137.946,28.147-206.018,0-32.38-2.171-64.915-9.131-96.628H800.6c5.638,33.347,7.79,67.22,7.79,101.035,0,78.414-10.643,154.446-40.894,227.875Z" transform="translate(-602.832 -97.706)" fill="#ff893b"/><path d="M764.99,181.622a6.411,6.411,0,1,1-.44,9.071A6.436,6.436,0,0,1,764.99,181.622Z" transform="translate(-511.962 -51.724)" fill="#ff893b"/><path d="M764.99,189.986a6.407,6.407,0,1,1-.44,9.062A6.408,6.408,0,0,1,764.99,189.986Z" transform="translate(-511.962 -40.19)" fill="#ff893b"/><path d="M770.665,196.512a6.41,6.41,0,1,1-.422,9.052A6.4,6.4,0,0,1,770.665,196.512Z" transform="translate(-504.099 -31.195)" fill="#ff893b"/><path d="M763.283,218.3a6.408,6.408,0,1,1-.422,9.052A6.4,6.4,0,0,1,763.283,218.3Z" transform="translate(-514.3 -1.103)" fill="#ff893b"/><path d="M763.14,226.624a6.411,6.411,0,1,1-.884,9.024A6.411,6.411,0,0,1,763.14,226.624Z" transform="translate(-514.838 10.698)" fill="#ff893b"/><path d="M768.626,233.372a6.41,6.41,0,1,1-1,9A6.415,6.415,0,0,1,768.626,233.372Z" transform="translate(-507.367 20.09)" fill="#ff893b"/><path d="M768.994,213.092a6.4,6.4,0,1,1-.441,9.052A6.376,6.376,0,0,1,768.994,213.092Z" transform="translate(-506.433 -8.293)" fill="#ff893b"/><path d="M758.142,254.333a6.413,6.413,0,0,1,7.431,10.455,6.413,6.413,0,1,1-7.431-10.455Z" transform="translate(-522.237 49.318)" fill="#ff893b"/><path d="M757.582,263.631a6.4,6.4,0,1,1-1.743,8.871A6.4,6.4,0,0,1,757.582,263.631Z" transform="translate(-523.199 62.291)" fill="#ff893b"/><path d="M764.486,249.786a6.4,6.4,0,1,1-1.521,8.931A6.393,6.393,0,0,1,764.486,249.786Z" transform="translate(-513.482 43.051)" fill="#ff893b"/><path d="M776.3,170.151a6.4,6.4,0,1,1,2.964,8.55A6.4,6.4,0,0,1,776.3,170.151Z" transform="translate(-494.338 -70.272)" fill="#ff893b"/><path d="M778.135,163.214a6.417,6.417,0,1,1,6.109,6.709A6.419,6.419,0,0,1,778.135,163.214Z" transform="translate(-490.922 -83.273)" fill="#ff893b"/><path d="M777.88,154.512a6.4,6.4,0,1,1,7.49,5.107A6.4,6.4,0,0,1,777.88,154.512Z" transform="translate(-491.427 -97.371)" fill="#ff893b"/><path d="M775.348,147.112a6.4,6.4,0,1,1,8.752,2.3A6.4,6.4,0,0,1,775.348,147.112Z" transform="translate(-495.966 -110.399)" fill="#ff893b"/><path d="M771.707,175.4a6.4,6.4,0,1,1-.422,9.059A6.405,6.405,0,0,1,771.707,175.4Z" transform="translate(-502.677 -60.325)" fill="#ff893b"/><path d="M683.458,181.622a6.415,6.415,0,1,0,.419,9.071A6.435,6.435,0,0,0,683.458,181.622Z" transform="translate(-636.446 -51.724)" fill="#ff893b"/><path d="M683.458,189.986a6.411,6.411,0,1,0,.419,9.062A6.407,6.407,0,0,0,683.458,189.986Z" transform="translate(-636.446 -40.19)" fill="#ff893b"/><path d="M677.762,196.512a6.41,6.41,0,1,0,.44,9.052A6.378,6.378,0,0,0,677.762,196.512Z" transform="translate(-644.309 -31.195)" fill="#ff893b"/><path d="M685.144,218.3a6.409,6.409,0,1,0,.429,9.052A6.392,6.392,0,0,0,685.144,218.3Z" transform="translate(-634.106 -1.103)" fill="#ff893b"/><path d="M685.3,226.624a6.415,6.415,0,1,0,.881,9.024A6.4,6.4,0,0,0,685.3,226.624Z" transform="translate(-633.57 10.698)" fill="#ff893b"/><path d="M679.8,233.372a6.41,6.41,0,1,0,1.021,9A6.389,6.389,0,0,0,679.8,233.372Z" transform="translate(-641.038 20.09)" fill="#ff893b"/><path d="M679.454,213.092a6.41,6.41,0,1,0,.421,9.052A6.391,6.391,0,0,0,679.454,213.092Z" transform="translate(-641.975 -8.293)" fill="#ff893b"/><path d="M690.309,254.333a6.416,6.416,0,1,0,1.5,8.931A6.39,6.39,0,0,0,690.309,254.333Z" transform="translate(-626.174 49.318)" fill="#ff893b"/><path d="M690.85,263.631a6.4,6.4,0,1,0,1.764,8.871A6.4,6.4,0,0,0,690.85,263.631Z" transform="translate(-625.215 62.291)" fill="#ff893b"/><path d="M683.948,249.786a6.4,6.4,0,1,0,1.524,8.931A6.4,6.4,0,0,0,683.948,249.786Z" transform="translate(-634.924 43.051)" fill="#ff893b"/><path d="M672.151,170.151a6.409,6.409,0,1,0-2.964,8.55A6.407,6.407,0,0,0,672.151,170.151Z" transform="translate(-654.079 -70.272)" fill="#ff893b"/><path d="M670.3,163.214a6.406,6.406,0,1,0-6.088,6.709A6.409,6.409,0,0,0,670.3,163.214Z" transform="translate(-657.498 -83.273)" fill="#ff893b"/><path d="M670.573,154.512a6.406,6.406,0,1,0-7.49,5.107A6.406,6.406,0,0,0,670.573,154.512Z" transform="translate(-656.987 -97.371)" fill="#ff893b"/><path d="M673.1,147.112a6.412,6.412,0,1,0-8.771,2.3A6.391,6.391,0,0,0,673.1,147.112Z" transform="translate(-652.447 -110.399)" fill="#ff893b"/><path d="M676.742,175.4a6.41,6.41,0,1,0,.41,9.059A6.417,6.417,0,0,0,676.742,175.4Z" transform="translate(-645.732 -60.325)" fill="#ff893b"/><g transform="translate(12.312)"><path d="M758.5,428.928l-36.568-25.787a6.737,6.737,0,0,1-1.062-9.507l24.461-28.621a13.6,13.6,0,0,0-.9-19.207l-30.623-27.88a6.786,6.786,0,0,1-.44-9.571l27.918-30.6a13.584,13.584,0,0,0-.881-19.209L699.862,221.5c-5.538-5.045-5.407-13.257-.891-19.173L741.2,145.957c4.135-5.426,3.885-11.773-.74-15.981-2.312-2.112-6.859-4.564-15.19-3.686-39.813,4.307-66.529,39.216-62.122,79.567,2.2,20.268,9.421,27.559,13.4,31.173l30.54,27.885a6.753,6.753,0,0,1,.44,9.554l-27.916,30.621a13.579,13.579,0,0,0,.881,19.176l30.62,27.918a6.756,6.756,0,0,1,.44,9.564l-24.573,30.8a13.567,13.567,0,0,0,2.124,19.085l36.627,26.133a6.764,6.764,0,0,1,1.153,9.514l-15.771,23.592A13.586,13.586,0,0,0,733.2,486.7L760.815,448A13.6,13.6,0,0,0,758.5,428.928ZM707,143.9a5.45,5.45,0,1,1,.341,7.7A5.448,5.448,0,0,1,707,143.9Z" transform="translate(-662.67 -126.108)" fill="#ff893b"/><path d="M774.354,126.291c-8.352-.879-12.9,1.574-15.193,3.686-4.635,4.207-4.895,10.554-.74,15.981l42.206,56.367c4.528,5.917,4.667,14.128-.881,19.173l-40.554,37.049a13.6,13.6,0,0,0-.89,19.209l27.937,30.6a6.783,6.783,0,0,1-.431,9.571l-30.64,27.88a13.588,13.588,0,0,0-.883,19.207l24.454,28.621a6.75,6.75,0,0,1-1.062,9.507l-36.571,25.787a13.587,13.587,0,0,0-2.3,19.076L766.423,486.7a13.585,13.585,0,0,0,22.088-15.821l-15.78-23.592a6.748,6.748,0,0,1,1.162-9.514l36.62-26.133a13.586,13.586,0,0,0,2.121-19.085l-24.582-30.8a6.776,6.776,0,0,1,.459-9.564l30.6-27.918A13.573,13.573,0,0,0,820,305.091l-27.9-30.621a6.754,6.754,0,0,1,.44-9.554l30.533-27.885c3.973-3.614,11.2-10.9,13.416-31.173C840.871,165.507,814.155,130.6,774.354,126.291Zm17.9,25.3a5.448,5.448,0,1,1,.359-7.7A5.44,5.44,0,0,1,792.258,151.6Z" transform="translate(-561.535 -126.108)" fill="#ff893b"/></g><path d="M829.9,356.239h62.022V332.127H829.9V297.5H893.69V273.71H803.627V416.02h92.124v-24.1H829.9Zm106.352-72.686H909.86V416.02h92.755V393.428h-66.36ZM1123.316,339.9a31.842,31.842,0,0,0,9.012-8.2c3.885-5.3,5.607-11.9,5.607-19.409,0-12.045-4.086-21.94-12.295-28.737-8.211-6.84-19.406-9.966-33.535-9.966H1048.7V416.02h50.858c14.619,0,26.614-3.586,35.7-10.826,9.012-7.257,13.859-17.342,13.678-29.559a36.407,36.407,0,0,0-8.883-24.483,42.819,42.819,0,0,0-16.731-11.257m-48.625-42.225h15.381c8.09,0,13.378,1.452,16.261,3.817a11.389,11.389,0,0,1,3.3,4.626,22.192,22.192,0,0,1,1.122,7.407c0,6.581-1.952,10.678-5.928,13.678-3.8,2.848-10.554,4.667-20.216,4.667h-9.924Zm41.656,89.769c-3.4,2.6-9.695,4.369-18.856,4.207h-22.8v-35.59h19.585c10.293,0,17.423,1.752,21.349,4.648,3.883,2.943,5.928,6.871,5.928,13.578,0,6.547-1.762,10.474-5.207,13.157m239.76-49.013h0l-2.824-1.533c-7.55-4.378-13.059-8.371-16.6-11.769a19.5,19.5,0,0,1-3.676-4.6,5.871,5.871,0,0,1-1.091-3.176,8.793,8.793,0,0,1,4.2-7.671c3.045-2.2,6.99-3.412,12.328-3.412a35.486,35.486,0,0,1,13.4,2.574,68.764,68.764,0,0,1,15.071,9.071l5.326,3.955V293.514l-1.6-.96A76.884,76.884,0,0,0,1365,286a60.783,60.783,0,0,0-15.761-2.2c-11.845,0-22.011,3.3-29.921,9.874a32.59,32.59,0,0,0-11.926,25.685,31.042,31.042,0,0,0,6.3,19.454,56.677,56.677,0,0,0,10.423,9.293c4.779,3.617,10.907,7.55,18.326,12.128,4.667,2.652,8.421,5.155,11.345,7.209a38.367,38.367,0,0,1,5.928,4.917,13.293,13.293,0,0,1,3,8.209c-.222,3.945-1.422,6.431-4.407,8.731-2.874,2.2-7.25,3.567-13.257,3.567a33.4,33.4,0,0,1-15.771-3.8c-4.867-2.5-10.245-6.881-15.993-12.847L1307.542,370v32.885l1.421.94a54.27,54.27,0,0,0,17.214,9.293,60.721,60.721,0,0,0,20.037,3.064c11.926,0,22.081-3.314,29.909-9.874a32.177,32.177,0,0,0,12-25.476c0-8.609-2.033-16.157-6.409-22.307-4.376-6.29-12.838-12.738-25.6-20.1m165.622,55.684c9.873-11.778,14.79-25.695,14.79-41.418a71.584,71.584,0,0,0-5.217-27.035,70.1,70.1,0,0,0-15.611-22.411,68.61,68.61,0,0,0-22.861-14.919,73.862,73.862,0,0,0-27.356-5.186,72.29,72.29,0,0,0-27.066,5.186,71.079,71.079,0,0,0-23.061,14.919,68.21,68.21,0,0,0-15.259,22.152,63.611,63.611,0,0,0-5.538,26.035c0,16.273,4.957,30.749,14.69,43,9.571,12.126,22.368,20.207,38.011,24.164,11.655,8.24,22.59,14.547,32.973,18.864,10.736,4.533,20.469,6.731,29.33,6.731h2.574a10.493,10.493,0,0,0,2.152-.209l1.05-.162,19.507-17.133-1.481-4.114-1.091-2.6-2.554.571a63.609,63.609,0,0,1-6.76,1.04,29.7,29.7,0,0,1-5.366.341,68.539,68.539,0,0,1-15.971-2.09c-3.445-.974-7.4-2.357-11.595-3.978,12.835-4.764,23.63-11.895,31.711-21.747m-14.5-27.347a43.868,43.868,0,0,1-9.743,14.5l-.14.129a43.312,43.312,0,0,1-31.873,13.5,44.123,44.123,0,0,1-17.252-3.5,47.546,47.546,0,0,1-14.69-9.995v-.129a42.087,42.087,0,0,1-9.643-14.5,43.063,43.063,0,0,1-3.426-17.271,44.022,44.022,0,0,1,3.426-17.478,42.772,42.772,0,0,1,9.571-14.438,47.591,47.591,0,0,1,14.931-9.943,44.849,44.849,0,0,1,34.327,0,42.466,42.466,0,0,1,14.547,9.831,44.93,44.93,0,0,1,9.964,14.921,42.066,42.066,0,0,1,3.4,17.107,43.746,43.746,0,0,1-3.4,17.271m130.653-1.793c-.128,8.469-2.831,14.759-8.89,19.785-5.857,4.967-13.818,7.752-24.211,7.752a41.087,41.087,0,0,1-16.012-3.024,32.389,32.389,0,0,1-12.047-8.914,17.106,17.106,0,0,1-3.645-7.407c-.821-2.848-1.291-8.343-1.291-16.285V283.662h-24.473V357.6c0,10.107.659,17.623,2.212,22.971a37.66,37.66,0,0,0,7.49,14.221,54.807,54.807,0,0,0,20.668,15.862,66.889,66.889,0,0,0,27.1,5.367c16.631,0,30.649-4.648,41.344-13.95,10.814-9.2,16.293-21.759,16.1-36.558v-81.85h-24.345Zm66.37,28.2V360.705h62.4v-22.69h-62.4v-31.2h64.358V284.245h-90.733V415.73h92.8V393.169Zm-426.279-90.9A71.005,71.005,0,0,0,1255,287.65a77.862,77.862,0,0,0-27.547-5.05,75.605,75.605,0,0,0-27.078,5.05,68.266,68.266,0,0,0-23.09,14.619,65.961,65.961,0,0,0-15.64,21.666,64,64,0,0,0-5.448,25.559,64.906,64.906,0,0,0,21.088,48.444,69.862,69.862,0,0,0,22.971,14.5,77.339,77.339,0,0,0,54.582.14,73.594,73.594,0,0,0,23.28-14.638,68.507,68.507,0,0,0,15.473-21.6,64,64,0,0,0,5.316-25.764,63.887,63.887,0,0,0-20.937-48.3m-8.493,64.6a44.305,44.305,0,0,1-24.361,23.83,48.779,48.779,0,0,1-35.2,0,46.611,46.611,0,0,1-14.588-9.552,42.2,42.2,0,0,1-9.745-14.278,41.216,41.216,0,0,1-3.414-16.814,43.1,43.1,0,0,1,3.414-16.983,43.674,43.674,0,0,1,9.745-14.078,51.223,51.223,0,0,1,14.988-9.712,46.663,46.663,0,0,1,34.509,0,43.2,43.2,0,0,1,14.69,9.712,44.3,44.3,0,0,1,10.093,14.5,42.6,42.6,0,0,1,3.274,16.561,41.525,41.525,0,0,1-3.405,16.814M841.138,242.346c11.755,0,21.088-3.726,27.978-11.076,6.769-7.385,10.354-17.38,10.354-29.849V147.08H871.64v54.772c0,9.976-2.745,17.9-8.152,23.811-5.647,5.869-13.038,8.9-22.349,8.9-9.292,0-16.7-3.033-22.18-8.9q-8.4-8.86-8.371-23.811V147.08h-7.469v54.341c0,12.588,3.374,22.583,10.243,29.849,6.85,7.35,16.161,11.076,27.778,11.076M915.458,161.2l60.21,72.655h6.038V151.735h-6.488V223.29l-59.5-71.555h-6.828v82.119h6.569Zm96.078,73.879h6.99V152.846h-6.99Zm66.1,1.362,34.5-83.593h-6.979l-28.078,69-27.737-69h-7.291l34.606,83.593Zm99.073-6.978h-38.451V196.043H1174.5v-5.264h-36.247v-32.6h37.508v-5.328h-44.087v82.231h45.03Zm35.468-33.916h6.607a46.147,46.147,0,0,1,10.476.96,12,12,0,0,1,5.788,3.136,62.463,62.463,0,0,1,4.326,5.486c1.781,2.474,4.1,5.738,6.566,9.745l13,20.207h7.381l-22.439-34.587a24.3,24.3,0,0,0-3.114-3.986,31.232,31.232,0,0,0-4.126-3c5.176-1.659,9.083-4.155,11.635-7.559,2.614-3.3,3.845-7.528,3.845-12.464,0-6.669-2.212-11.759-6.838-15.312-4.688-3.545-11.235-5.328-19.828-5.328H1205.7v82.231h6.471Zm0-37.07h13.657c6.15,0,10.8,1.212,14.231,3.952,3.283,2.607,4.9,6.29,4.9,11.059a16.242,16.242,0,0,1-2.152,8.809,14,14,0,0,1-6.729,5.538,25.814,25.814,0,0,1-6.009,1.7c-2.521.229-6.748.379-12.847.379h-5.055Zm116.535,55.253a25.485,25.485,0,0,0-1.281-7.812,22.039,22.039,0,0,0-4.026-6.528c-2.574-2.883-7.68-5.878-15.061-8.912a15.708,15.708,0,0,1-1.741-.84c-6.75-2.864-11.076-5.3-13.007-7.638-2.064-2.155-3.036-5.2-3.036-8.745a14.594,14.594,0,0,1,4.647-11.1,17.225,17.225,0,0,1,12.017-4.376,26.564,26.564,0,0,1,9.061,1.624,42.806,42.806,0,0,1,9.733,5.207v-7.359a46.729,46.729,0,0,0-9.183-4.114,36.572,36.572,0,0,0-9.292-1.4c-6.99,0-12.6,2.074-16.983,6.178a20.42,20.42,0,0,0-6.569,15.573c0,5.2,1.381,9.481,4.276,12.766,2.852,3.286,8.181,6.569,15.993,9.79,7.528,3.207,12.326,5.931,14.4,8.243a13.267,13.267,0,0,1,3.085,9.2c0,5.045-1.443,9-4.626,11.995-2.983,2.9-7.271,4.414-12.578,4.414a25.859,25.859,0,0,1-9.871-2.231,46.092,46.092,0,0,1-10.935-6.681v7.921a43.849,43.849,0,0,0,10.414,5.49,32.517,32.517,0,0,0,10.524,1.769c7.019,0,12.717-1.99,17.252-6.269a21.146,21.146,0,0,0,6.79-16.171m33.135-60.882h-6.94v82.231h6.94Zm74.329,80.307a34.921,34.921,0,0,0,11.926-5.747,39.538,39.538,0,0,0,11.907-14.478,45.167,45.167,0,0,0,0-38.061,39.858,39.858,0,0,0-11.907-14.481,36.192,36.192,0,0,0-11.816-5.757,66.069,66.069,0,0,0-15.821-1.783h-28.2v82.231h28.2a57.589,57.589,0,0,0,15.712-1.924m-36.928-3.924V158.713h19.564a65.677,65.677,0,0,1,13.771,1.4,29.9,29.9,0,0,1,10.021,4.2,32.338,32.338,0,0,1,10.724,12.481,38.551,38.551,0,0,1,3.776,17.242,39.549,39.549,0,0,1-3.776,17.252,33.14,33.14,0,0,1-10.724,12.466A30.122,30.122,0,0,1,1432.582,228a67.392,67.392,0,0,1-13.771,1.231Zm111.1-73.26-33.794,79.107h6.569l11.516-27.359h34.025l11.545,27.359h6.566l-33.8-79.107Zm-13.569,46.4,14.971-35.556,14.771,35.556Zm117.6,30.78a32.786,32.786,0,0,0,11.878-5.747,38.524,38.524,0,0,0,11.885-14.478,44.3,44.3,0,0,0,0-38.061,38.827,38.827,0,0,0-11.885-14.481,33.876,33.876,0,0,0-11.767-5.757,66.562,66.562,0,0,0-15.861-1.783h-28.037v82.231h28.037a57.608,57.608,0,0,0,15.75-1.924m-36.99-3.924V158.713h19.628a65.886,65.886,0,0,1,13.778,1.4,29.77,29.77,0,0,1,10,4.2,31.569,31.569,0,0,1,10.676,12.481,37.824,37.824,0,0,1,3.814,17.242,38.791,38.791,0,0,1-3.814,17.252,32.332,32.332,0,0,1-10.676,12.466,29.993,29.993,0,0,1-10,4.238,67.594,67.594,0,0,1-13.778,1.231Z" transform="translate(-456.414 -97.148)" fill="#394024"/><rect width="199.127" height="26.395" transform="translate(350.658 411.796)" fill="#394024"/><path d="M14.24-25.52H44c.96,0,1.28-.32,1.28-1.28v-2.96c0-.96-.32-1.28-1.28-1.28H14.24V-50.48H44.72c.88,0,1.28-.32,1.28-1.28v-2.96c0-.96-.32-1.28-1.28-1.28H9.2c-.96,0-1.28.32-1.28,1.28V-1.28C7.92-.32,8.24,0,9.2,0h3.84c.88,0,1.2-.32,1.2-1.28Zm43.28-9.52a65.415,65.415,0,0,1,12.32-1.28c8.4,0,11.36,3.68,11.36,13.76a35.276,35.276,0,0,0-12.96-2.8c-9.84,0-16.4,4.24-16.4,12.96C51.84-3.84,58.4.88,66.08.88a19.734,19.734,0,0,0,16.08-7.6l.32,5.44c.24.96.56,1.28,1.2,1.28H86c.88,0,1.2-.32,1.2-1.28V-22.4c0-13.2-3.68-19.2-17.12-19.2a75.609,75.609,0,0,0-13.76,1.44c-.96.32-1.2.72-.96,1.6l.64,2.4C56.24-35.2,56.48-34.8,57.52-35.04ZM69.44-20.88c4.56,0,7.68,1.2,11.76,2.88v6.64C78.64-7.6,73.44-3.84,67.92-3.84c-6.48,0-10.08-3.6-10.08-8.56C57.84-17.84,61.84-20.88,69.44-20.88ZM117.76-4.56c-8.4,0-15.12-6.88-15.12-15.76,0-8.8,6.72-15.84,15.12-15.84a15.78,15.78,0,0,1,11.12,4.48c.64.64,1.12.48,1.68-.24l1.92-2c.64-.72.64-1.12,0-1.68a20.478,20.478,0,0,0-14.8-6A21.1,21.1,0,0,0,96.72-20.32,21.032,21.032,0,0,0,117.68.88a20.478,20.478,0,0,0,14.8-6c.64-.56.64-.96,0-1.68l-1.92-2c-.56-.72-1.04-.88-1.68-.24A15.78,15.78,0,0,1,117.76-4.56Zm54.32,3.28c.4.96.72,1.28,1.36,1.28h2c.88,0,1.2-.32,1.2-1.28V-39.44c0-.96-.32-1.28-1.2-1.28h-3.6c-.88,0-1.2.32-1.2,1.28v20.16c0,8-4.48,14.72-11.44,14.72-6.48,0-11.28-4.64-11.28-14.16V-39.44c0-.96-.32-1.28-1.2-1.28h-3.6c-.88,0-1.2.32-1.2,1.28v22.32c0,12.8,7.28,18,15.84,18,7.84,0,12-6.16,13.68-9.36Zm20.72,0c0,.96.32,1.28,1.28,1.28h3.52c.96,0,1.2-.32,1.2-1.28V-57.76c0-.96-.24-1.28-1.2-1.28h-3.52c-.96,0-1.28.32-1.28,1.28Zm44.8.24c.72-.4.8-.72.56-1.52l-.48-2.56c-.32-1.12-.56-1.2-1.6-.64a10.167,10.167,0,0,1-5.52,1.2c-6.4,0-9.2-3.44-9.2-12.8v-18.4h14.48c.96,0,1.2-.32,1.2-1.28v-2.4c0-1.04-.32-1.28-1.2-1.28H221.36v-8.24c0-.96-.24-1.28-1.2-1.28h-3.52c-.96,0-1.2.32-1.2,1.28v8.24h-3.92c-.96,0-1.28.24-1.28,1.28v2.4c0,.96.32,1.28,1.28,1.28h3.92v18.88c0,11.12,3.92,17.76,14.48,17.76A14.967,14.967,0,0,0,237.6-1.04Zm13.52-34a65.415,65.415,0,0,1,12.32-1.28c8.4,0,11.36,3.68,11.36,13.76a35.276,35.276,0,0,0-12.96-2.8c-9.84,0-16.4,4.24-16.4,12.96C245.44-3.84,252,.88,259.68.88a19.734,19.734,0,0,0,16.08-7.6l.32,5.44c.24.96.56,1.28,1.2,1.28h2.32c.88,0,1.2-.32,1.2-1.28V-22.4c0-13.2-3.68-19.2-17.12-19.2a75.609,75.609,0,0,0-13.76,1.44c-.96.32-1.2.72-.96,1.6l.64,2.4C249.84-35.2,250.08-34.8,251.12-35.04Zm11.92,14.16c4.56,0,7.68,1.2,11.76,2.88v6.64c-2.56,3.76-7.76,7.52-13.28,7.52-6.48,0-10.08-3.6-10.08-8.56C251.44-17.84,255.44-20.88,263.04-20.88ZM323.6-32.24a16.227,16.227,0,0,0-14.8-9.36c-11.2,0-18.48,9.52-18.48,21.2C290.32-8.8,297.6.88,308.8.88c9.44,0,13.76-6.56,15.76-9.6l.64,7.44c.32.96.64,1.28,1.36,1.28h1.84c.88,0,1.2-.32,1.2-1.28V-57.76c0-.96-.32-1.28-1.2-1.28h-3.6c-.88,0-1.2.32-1.2,1.28ZM310-4.48c-8.4,0-13.68-7.04-13.68-15.92,0-8.24,5.28-15.76,13.68-15.76,8.32,0,13.68,7.84,13.68,15.84C323.68-12.4,318.32-4.48,310-4.48Zm84.48-27.76a16.227,16.227,0,0,0-14.8-9.36c-11.2,0-18.48,9.52-18.48,21.2C361.2-8.8,368.48.88,379.68.88c9.44,0,13.76-6.56,15.76-9.6l.64,7.44c.32.96.64,1.28,1.36,1.28h1.84c.88,0,1.2-.32,1.2-1.28V-57.76c0-.96-.32-1.28-1.2-1.28h-3.6c-.88,0-1.2.32-1.2,1.28ZM380.88-4.48c-8.4,0-13.68-7.04-13.68-15.92,0-8.24,5.28-15.76,13.68-15.76,8.32,0,13.68,7.84,13.68,15.84C394.56-12.4,389.2-4.48,380.88-4.48Zm66.96-3.84c-.64-.72-.96-.56-1.84-.08a21.978,21.978,0,0,1-12.56,4c-8.08,0-14.88-6.4-15.44-13.84h33.36c1.04,0,1.2-.32,1.2-1.28,0-12-7.28-22.08-19.76-22.08a21.1,21.1,0,0,0-20.96,21.28A21.119,21.119,0,0,0,433.2.88c5.92,0,12.4-1.92,16.16-5.6.56-.56.56-1.04,0-1.76ZM418.16-22.4a14.811,14.811,0,0,1,14.56-14.16c8.16,0,13.36,6.96,13.68,14.16ZM539.6-42.96l4.64,41.68c.08.96.32,1.28,1.2,1.28h3.92c.96,0,1.28-.4,1.2-1.28l-6.72-55.04c-.08-.56-.16-.72-.72-.72h-.48c-.32,0-.56.08-.96.72l-25.6,48.4-25.6-48.4c-.4-.64-.64-.72-.96-.72h-.48c-.56,0-.64.16-.72.72L481.6-1.28c-.16.88.24,1.28,1.12,1.28h3.92c.96,0,1.12-.32,1.28-1.28l4.72-41.6L514.24-.24c.56.8.88,1.28,1.52,1.28h.64c.64,0,1.04-.48,1.44-1.28ZM596-8.32c-.64-.72-.96-.56-1.84-.08a21.978,21.978,0,0,1-12.56,4c-8.08,0-14.88-6.4-15.44-13.84h33.36c1.04,0,1.2-.32,1.2-1.28,0-12-7.28-22.08-19.76-22.08A21.1,21.1,0,0,0,560-20.32,21.119,21.119,0,0,0,581.36.88c5.92,0,12.4-1.92,16.16-5.6.56-.56.56-1.04,0-1.76ZM566.32-22.4a14.811,14.811,0,0,1,14.56-14.16c8.16,0,13.36,6.96,13.68,14.16Zm74.96-9.84a16.227,16.227,0,0,0-14.8-9.36c-11.2,0-18.48,9.52-18.48,21.2C608-8.8,615.28.88,626.48.88c9.44,0,13.76-6.56,15.76-9.6l.64,7.44c.32.96.64,1.28,1.36,1.28h1.84c.88,0,1.2-.32,1.2-1.28V-57.76c0-.96-.32-1.28-1.2-1.28h-3.6c-.88,0-1.2.32-1.2,1.28ZM627.68-4.48c-8.4,0-13.68-7.04-13.68-15.92,0-8.24,5.28-15.76,13.68-15.76,8.32,0,13.68,7.84,13.68,15.84C641.36-12.4,636-4.48,627.68-4.48Zm36.64,3.2c0,.96.24,1.28,1.2,1.28h3.52c.96,0,1.28-.32,1.28-1.28V-39.44c0-.96-.24-1.28-1.28-1.28h-3.52c-.96,0-1.2.32-1.2,1.28Zm-1.28-52.8a4.132,4.132,0,0,0,4.16,4.16,4.2,4.2,0,0,0,4.24-4.16,4.2,4.2,0,0,0-4.24-4.16A4.132,4.132,0,0,0,663.04-54.08ZM704.56-4.56c-8.4,0-15.12-6.88-15.12-15.76,0-8.8,6.72-15.84,15.12-15.84a15.78,15.78,0,0,1,11.12,4.48c.64.64,1.12.48,1.68-.24l1.92-2c.64-.72.64-1.12,0-1.68a20.478,20.478,0,0,0-14.8-6,21.1,21.1,0,0,0-20.96,21.28A21.032,21.032,0,0,0,704.48.88a20.478,20.478,0,0,0,14.8-6c.64-.56.64-.96,0-1.68l-1.92-2c-.56-.72-1.04-.88-1.68-.24A15.78,15.78,0,0,1,704.56-4.56Zm27.92,3.28c0,.96.24,1.28,1.2,1.28h3.52c.96,0,1.28-.32,1.28-1.28V-39.44c0-.96-.24-1.28-1.28-1.28h-3.52c-.96,0-1.2.32-1.2,1.28Zm-1.28-52.8a4.132,4.132,0,0,0,4.16,4.16,4.2,4.2,0,0,0,4.24-4.16,4.2,4.2,0,0,0-4.24-4.16A4.132,4.132,0,0,0,731.2-54.08Zm29.12,14.64c-.4-.96-.72-1.28-1.36-1.28h-2c-.88,0-1.2.32-1.2,1.28V-1.28c0,.96.32,1.28,1.2,1.28h3.6c.88,0,1.2-.32,1.2-1.28V-21.44c0-8,4.48-14.72,11.44-14.72,6.48,0,11.28,4.64,11.28,14.16V-1.28c0,.96.32,1.28,1.2,1.28h3.6c.88,0,1.2-.32,1.2-1.28V-23.6c0-12.8-7.28-18-15.84-18-7.84,0-12,6.16-13.68,9.36Zm45.92,4.4a65.415,65.415,0,0,1,12.32-1.28c8.4,0,11.36,3.68,11.36,13.76a35.276,35.276,0,0,0-12.96-2.8c-9.84,0-16.4,4.24-16.4,12.96,0,8.56,6.56,13.28,14.24,13.28a19.734,19.734,0,0,0,16.08-7.6l.32,5.44c.24.96.56,1.28,1.2,1.28h2.32c.88,0,1.2-.32,1.2-1.28V-22.4c0-13.2-3.68-19.2-17.12-19.2a75.61,75.61,0,0,0-13.76,1.44c-.96.32-1.2.72-.96,1.6l.64,2.4C804.96-35.2,805.2-34.8,806.24-35.04Zm11.92,14.16c4.56,0,7.68,1.2,11.76,2.88v6.64c-2.56,3.76-7.76,7.52-13.28,7.52-6.48,0-10.08-3.6-10.08-8.56C806.56-17.84,810.56-20.88,818.16-20.88Z" transform="translate(341.161 582.879)" fill="#394024"/></g></g></g></svg>