<svg id="facultad-logo-ueb-horizontal-a-dos-lineas" xmlns="http://www.w3.org/2000/svg" width="1578" height="956.873" viewBox="0 0 1578 956.873">
  <defs>
    <style>
      .cls-1 {
        fill: #ff893b;
      }

      .cls-2 {
        fill: #394024;
      }

      .cls-3 {
        fill: none;
      }

      .cls-4 {
        fill: #33371d;
      }
    </style>
  </defs>
  <g id="Capa_1" data-name="Capa 1" transform="translate(92.871 85.999)">
    <g id="Group_111" data-name="Group 111" transform="translate(0 0)">
      <g id="Group_110" data-name="Group 110">
        <path id="Path_835" data-name="Path 835" class="cls-1" d="M737.983,475.586c-30.24-73.429-40.9-149.46-40.9-227.875,0-33.816,2.164-67.689,7.8-101.035h28.847c-6.969,31.713-9.131,64.248-9.131,96.628,0,68.072,8.431,140.429,28.137,206.018,19.685-65.589,28.147-137.946,28.147-206.018,0-32.38-2.171-64.915-9.131-96.628H800.6c5.638,33.347,7.79,67.22,7.79,101.035,0,78.415-10.643,154.446-40.894,227.875Z" transform="translate(-602.832 -97.706)"/>
        <path id="Path_836" data-name="Path 836" class="cls-1" d="M764.99,181.622a6.411,6.411,0,1,1-.44,9.071A6.436,6.436,0,0,1,764.99,181.622Z" transform="translate(-511.962 -51.724)"/>
        <path id="Path_837" data-name="Path 837" class="cls-1" d="M764.99,189.986a6.407,6.407,0,1,1-.44,9.062A6.408,6.408,0,0,1,764.99,189.986Z" transform="translate(-511.962 -40.19)"/>
        <path id="Path_838" data-name="Path 838" class="cls-1" d="M770.665,196.512a6.41,6.41,0,1,1-.422,9.052A6.4,6.4,0,0,1,770.665,196.512Z" transform="translate(-504.099 -31.195)"/>
        <path id="Path_839" data-name="Path 839" class="cls-1" d="M763.283,218.3a6.408,6.408,0,1,1-.422,9.052A6.4,6.4,0,0,1,763.283,218.3Z" transform="translate(-514.3 -1.103)"/>
        <path id="Path_840" data-name="Path 840" class="cls-1" d="M763.14,226.624a6.411,6.411,0,1,1-.884,9.024A6.411,6.411,0,0,1,763.14,226.624Z" transform="translate(-514.838 10.698)"/>
        <path id="Path_841" data-name="Path 841" class="cls-1" d="M768.626,233.372a6.41,6.41,0,1,1-1,9A6.415,6.415,0,0,1,768.626,233.372Z" transform="translate(-507.367 20.09)"/>
        <path id="Path_842" data-name="Path 842" class="cls-1" d="M768.994,213.092a6.4,6.4,0,1,1-.441,9.052A6.376,6.376,0,0,1,768.994,213.092Z" transform="translate(-506.433 -8.293)"/>
        <path id="Path_843" data-name="Path 843" class="cls-1" d="M758.142,254.333a6.413,6.413,0,0,1,7.431,10.455,6.413,6.413,0,1,1-7.431-10.455Z" transform="translate(-522.237 49.318)"/>
        <path id="Path_844" data-name="Path 844" class="cls-1" d="M757.582,263.631a6.4,6.4,0,1,1-1.743,8.871A6.4,6.4,0,0,1,757.582,263.631Z" transform="translate(-523.199 62.291)"/>
        <path id="Path_845" data-name="Path 845" class="cls-1" d="M764.486,249.786a6.4,6.4,0,1,1-1.521,8.931A6.393,6.393,0,0,1,764.486,249.786Z" transform="translate(-513.482 43.051)"/>
        <path id="Path_846" data-name="Path 846" class="cls-1" d="M776.3,170.151a6.4,6.4,0,1,1,2.964,8.55A6.4,6.4,0,0,1,776.3,170.151Z" transform="translate(-494.338 -70.272)"/>
        <path id="Path_847" data-name="Path 847" class="cls-1" d="M778.135,163.214a6.417,6.417,0,1,1,6.109,6.709A6.419,6.419,0,0,1,778.135,163.214Z" transform="translate(-490.922 -83.273)"/>
        <path id="Path_848" data-name="Path 848" class="cls-1" d="M777.88,154.512a6.4,6.4,0,1,1,7.49,5.107A6.4,6.4,0,0,1,777.88,154.512Z" transform="translate(-491.427 -97.371)"/>
        <path id="Path_849" data-name="Path 849" class="cls-1" d="M775.348,147.112a6.4,6.4,0,1,1,8.752,2.3A6.4,6.4,0,0,1,775.348,147.112Z" transform="translate(-495.966 -110.399)"/>
        <path id="Path_850" data-name="Path 850" class="cls-1" d="M771.707,175.4a6.4,6.4,0,1,1-.422,9.059A6.405,6.405,0,0,1,771.707,175.4Z" transform="translate(-502.677 -60.325)"/>
        <path id="Path_851" data-name="Path 851" class="cls-1" d="M683.458,181.622a6.415,6.415,0,1,0,.419,9.071A6.435,6.435,0,0,0,683.458,181.622Z" transform="translate(-636.446 -51.724)"/>
        <path id="Path_852" data-name="Path 852" class="cls-1" d="M683.458,189.986a6.411,6.411,0,1,0,.419,9.062A6.407,6.407,0,0,0,683.458,189.986Z" transform="translate(-636.446 -40.19)"/>
        <path id="Path_853" data-name="Path 853" class="cls-1" d="M677.762,196.512a6.41,6.41,0,1,0,.44,9.052A6.378,6.378,0,0,0,677.762,196.512Z" transform="translate(-644.309 -31.195)"/>
        <path id="Path_854" data-name="Path 854" class="cls-1" d="M685.144,218.3a6.409,6.409,0,1,0,.429,9.052A6.392,6.392,0,0,0,685.144,218.3Z" transform="translate(-634.106 -1.103)"/>
        <path id="Path_855" data-name="Path 855" class="cls-1" d="M685.3,226.624a6.415,6.415,0,1,0,.881,9.024A6.4,6.4,0,0,0,685.3,226.624Z" transform="translate(-633.57 10.698)"/>
        <path id="Path_856" data-name="Path 856" class="cls-1" d="M679.8,233.372a6.41,6.41,0,1,0,1.021,9A6.389,6.389,0,0,0,679.8,233.372Z" transform="translate(-641.038 20.09)"/>
        <path id="Path_857" data-name="Path 857" class="cls-1" d="M679.454,213.092a6.41,6.41,0,1,0,.421,9.052A6.391,6.391,0,0,0,679.454,213.092Z" transform="translate(-641.975 -8.293)"/>
        <path id="Path_858" data-name="Path 858" class="cls-1" d="M690.309,254.333a6.416,6.416,0,1,0,1.5,8.931A6.39,6.39,0,0,0,690.309,254.333Z" transform="translate(-626.174 49.318)"/>
        <path id="Path_859" data-name="Path 859" class="cls-1" d="M690.85,263.631a6.4,6.4,0,1,0,1.764,8.871A6.4,6.4,0,0,0,690.85,263.631Z" transform="translate(-625.215 62.291)"/>
        <path id="Path_860" data-name="Path 860" class="cls-1" d="M683.948,249.786a6.4,6.4,0,1,0,1.524,8.931A6.4,6.4,0,0,0,683.948,249.786Z" transform="translate(-634.924 43.051)"/>
        <path id="Path_861" data-name="Path 861" class="cls-1" d="M672.151,170.151a6.409,6.409,0,1,0-2.964,8.55A6.407,6.407,0,0,0,672.151,170.151Z" transform="translate(-654.079 -70.272)"/>
        <path id="Path_862" data-name="Path 862" class="cls-1" d="M670.3,163.214a6.406,6.406,0,1,0-6.088,6.709A6.409,6.409,0,0,0,670.3,163.214Z" transform="translate(-657.498 -83.273)"/>
        <path id="Path_863" data-name="Path 863" class="cls-1" d="M670.573,154.512a6.406,6.406,0,1,0-7.49,5.107A6.406,6.406,0,0,0,670.573,154.512Z" transform="translate(-656.987 -97.371)"/>
        <path id="Path_864" data-name="Path 864" class="cls-1" d="M673.1,147.112a6.412,6.412,0,1,0-8.771,2.3A6.391,6.391,0,0,0,673.1,147.112Z" transform="translate(-652.447 -110.399)"/>
        <path id="Path_865" data-name="Path 865" class="cls-1" d="M676.742,175.4a6.41,6.41,0,1,0,.41,9.059A6.417,6.417,0,0,0,676.742,175.4Z" transform="translate(-645.732 -60.325)"/>
        <g id="Group_109" data-name="Group 109" transform="translate(12.312)">
          <path id="Path_866" data-name="Path 866" class="cls-1" d="M758.5,428.928l-36.568-25.787a6.737,6.737,0,0,1-1.062-9.507l24.461-28.621a13.6,13.6,0,0,0-.9-19.207l-30.623-27.88a6.786,6.786,0,0,1-.44-9.571l27.918-30.6a13.584,13.584,0,0,0-.881-19.209L699.862,221.5c-5.538-5.045-5.407-13.257-.891-19.173L741.2,145.957c4.135-5.426,3.885-11.773-.74-15.981-2.312-2.112-6.859-4.564-15.19-3.686-39.813,4.307-66.529,39.216-62.122,79.567,2.2,20.268,9.421,27.559,13.4,31.173l30.54,27.885a6.753,6.753,0,0,1,.44,9.554l-27.916,30.621a13.579,13.579,0,0,0,.881,19.176l30.62,27.918a6.756,6.756,0,0,1,.44,9.564l-24.573,30.8a13.567,13.567,0,0,0,2.124,19.085l36.627,26.133a6.764,6.764,0,0,1,1.153,9.514l-15.771,23.592A13.586,13.586,0,0,0,733.2,486.7L760.815,448A13.6,13.6,0,0,0,758.5,428.928ZM707,143.9a5.45,5.45,0,1,1,.341,7.7A5.448,5.448,0,0,1,707,143.9Z" transform="translate(-662.67 -126.108)"/>
          <path id="Path_867" data-name="Path 867" class="cls-1" d="M774.354,126.291c-8.352-.879-12.9,1.574-15.193,3.686-4.635,4.207-4.895,10.554-.74,15.981l42.206,56.368c4.528,5.917,4.667,14.128-.881,19.173l-40.554,37.049a13.6,13.6,0,0,0-.89,19.209l27.937,30.6a6.783,6.783,0,0,1-.431,9.571l-30.64,27.88a13.588,13.588,0,0,0-.883,19.207l24.454,28.621a6.75,6.75,0,0,1-1.062,9.507l-36.571,25.787a13.587,13.587,0,0,0-2.3,19.076L766.423,486.7a13.585,13.585,0,0,0,22.088-15.821l-15.78-23.592a6.748,6.748,0,0,1,1.162-9.514l36.62-26.133a13.586,13.586,0,0,0,2.121-19.085l-24.582-30.8a6.776,6.776,0,0,1,.459-9.564l30.6-27.918A13.573,13.573,0,0,0,820,305.091l-27.9-30.621a6.754,6.754,0,0,1,.44-9.554l30.533-27.885c3.973-3.614,11.2-10.9,13.416-31.173C840.871,165.507,814.155,130.6,774.354,126.291Zm17.9,25.3a5.448,5.448,0,1,1,.359-7.7A5.44,5.44,0,0,1,792.258,151.6Z" transform="translate(-561.535 -126.108)"/>
        </g>
      </g>
      <path id="Path_868" data-name="Path 868" class="cls-2" d="M829.9,356.239h62.022V332.127H829.9V297.5H893.69V273.71H803.627V416.02h92.124v-24.1H829.9Zm106.352-72.686H909.86V416.02h92.755V393.428h-66.36ZM1123.316,339.9a31.842,31.842,0,0,0,9.012-8.2c3.885-5.3,5.607-11.9,5.607-19.409,0-12.045-4.086-21.94-12.295-28.737-8.211-6.84-19.406-9.966-33.535-9.966H1048.7V416.02h50.858c14.619,0,26.614-3.586,35.7-10.826,9.012-7.257,13.859-17.342,13.678-29.559a36.407,36.407,0,0,0-8.883-24.483,42.819,42.819,0,0,0-16.731-11.257m-48.625-42.225h15.381c8.09,0,13.378,1.452,16.261,3.817a11.389,11.389,0,0,1,3.3,4.626,22.192,22.192,0,0,1,1.122,7.407c0,6.581-1.952,10.678-5.928,13.678-3.8,2.848-10.554,4.667-20.216,4.667h-9.924Zm41.656,89.769c-3.4,2.6-9.695,4.369-18.856,4.207h-22.8v-35.59h19.585c10.293,0,17.423,1.752,21.349,4.648,3.883,2.943,5.928,6.871,5.928,13.578,0,6.547-1.762,10.474-5.207,13.157m239.76-49.013h0l-2.824-1.533c-7.55-4.378-13.059-8.371-16.6-11.769a19.5,19.5,0,0,1-3.676-4.6,5.871,5.871,0,0,1-1.091-3.176,8.793,8.793,0,0,1,4.2-7.671c3.045-2.2,6.99-3.412,12.328-3.412a35.486,35.486,0,0,1,13.4,2.574,68.764,68.764,0,0,1,15.071,9.071l5.326,3.955V293.514l-1.6-.96A76.884,76.884,0,0,0,1365,286a60.783,60.783,0,0,0-15.761-2.2c-11.845,0-22.011,3.3-29.921,9.874a32.59,32.59,0,0,0-11.926,25.685,31.042,31.042,0,0,0,6.3,19.454,56.677,56.677,0,0,0,10.423,9.293c4.779,3.617,10.907,7.55,18.326,12.128,4.667,2.652,8.421,5.155,11.345,7.209a38.367,38.367,0,0,1,5.928,4.917,13.293,13.293,0,0,1,3,8.209c-.222,3.945-1.422,6.431-4.407,8.731-2.874,2.2-7.25,3.567-13.257,3.567a33.4,33.4,0,0,1-15.771-3.8c-4.867-2.5-10.245-6.881-15.993-12.847L1307.542,370v32.885l1.421.94a54.27,54.27,0,0,0,17.214,9.293,60.721,60.721,0,0,0,20.037,3.064c11.926,0,22.081-3.314,29.909-9.874a32.177,32.177,0,0,0,12-25.476c0-8.609-2.033-16.157-6.409-22.307-4.376-6.29-12.838-12.738-25.6-20.1m165.622,55.684c9.873-11.778,14.79-25.695,14.79-41.418a71.584,71.584,0,0,0-5.217-27.035,70.1,70.1,0,0,0-15.611-22.411,68.61,68.61,0,0,0-22.861-14.919,73.862,73.862,0,0,0-27.356-5.186,72.29,72.29,0,0,0-27.066,5.186,71.079,71.079,0,0,0-23.061,14.919,68.21,68.21,0,0,0-15.259,22.152,63.611,63.611,0,0,0-5.538,26.035c0,16.273,4.957,30.749,14.69,43,9.571,12.126,22.368,20.207,38.011,24.164,11.655,8.24,22.59,14.547,32.973,18.864,10.736,4.533,20.469,6.731,29.33,6.731h2.574a10.493,10.493,0,0,0,2.152-.209l1.05-.162,19.507-17.133-1.481-4.114-1.091-2.6-2.554.571a63.609,63.609,0,0,1-6.76,1.04,29.7,29.7,0,0,1-5.366.341,68.539,68.539,0,0,1-15.971-2.09c-3.445-.974-7.4-2.357-11.595-3.978,12.835-4.764,23.63-11.895,31.711-21.747m-14.5-27.347a43.868,43.868,0,0,1-9.743,14.5l-.14.129a43.312,43.312,0,0,1-31.873,13.5,44.123,44.123,0,0,1-17.252-3.5,47.546,47.546,0,0,1-14.69-9.995v-.129a42.087,42.087,0,0,1-9.643-14.5,43.063,43.063,0,0,1-3.426-17.271,44.022,44.022,0,0,1,3.426-17.478,42.772,42.772,0,0,1,9.571-14.438,47.591,47.591,0,0,1,14.931-9.943,44.849,44.849,0,0,1,34.327,0,42.466,42.466,0,0,1,14.547,9.831,44.93,44.93,0,0,1,9.964,14.921,42.066,42.066,0,0,1,3.4,17.107,43.746,43.746,0,0,1-3.4,17.271m130.653-1.793c-.128,8.469-2.831,14.759-8.89,19.785-5.857,4.967-13.818,7.752-24.211,7.752a41.087,41.087,0,0,1-16.012-3.024,32.388,32.388,0,0,1-12.047-8.914,17.106,17.106,0,0,1-3.645-7.407c-.821-2.848-1.291-8.343-1.291-16.285V283.662h-24.473V357.6c0,10.107.659,17.623,2.212,22.971a37.66,37.66,0,0,0,7.49,14.221,54.807,54.807,0,0,0,20.668,15.862,66.889,66.889,0,0,0,27.1,5.367c16.631,0,30.649-4.648,41.344-13.95,10.814-9.2,16.293-21.759,16.1-36.559v-81.85h-24.345Zm66.37,28.2V360.705h62.4v-22.69h-62.4v-31.2h64.358V284.245h-90.733V415.73h92.8V393.169Zm-426.279-90.9A71.005,71.005,0,0,0,1255,287.65a77.862,77.862,0,0,0-27.547-5.05,75.605,75.605,0,0,0-27.078,5.05,68.266,68.266,0,0,0-23.09,14.619,65.961,65.961,0,0,0-15.64,21.666,64,64,0,0,0-5.448,25.559,64.906,64.906,0,0,0,21.088,48.444,69.862,69.862,0,0,0,22.971,14.5,77.339,77.339,0,0,0,54.582.14,73.594,73.594,0,0,0,23.28-14.638,68.507,68.507,0,0,0,15.473-21.6,64,64,0,0,0,5.316-25.764,63.887,63.887,0,0,0-20.937-48.3m-8.493,64.6a44.306,44.306,0,0,1-24.361,23.83,48.779,48.779,0,0,1-35.2,0,46.611,46.611,0,0,1-14.588-9.552,42.2,42.2,0,0,1-9.745-14.278,41.216,41.216,0,0,1-3.414-16.814,43.1,43.1,0,0,1,3.414-16.983,43.674,43.674,0,0,1,9.745-14.078,51.223,51.223,0,0,1,14.988-9.712,46.663,46.663,0,0,1,34.509,0,43.2,43.2,0,0,1,14.69,9.712,44.3,44.3,0,0,1,10.093,14.5,42.6,42.6,0,0,1,3.274,16.561,41.525,41.525,0,0,1-3.405,16.814M841.138,242.346c11.755,0,21.088-3.726,27.978-11.076,6.769-7.385,10.354-17.38,10.354-29.849V147.08H871.64v54.772c0,9.976-2.745,17.9-8.152,23.811-5.647,5.869-13.038,8.9-22.349,8.9-9.292,0-16.7-3.033-22.18-8.9q-8.4-8.86-8.371-23.811V147.08h-7.469v54.341c0,12.588,3.374,22.583,10.243,29.849,6.85,7.35,16.161,11.076,27.778,11.076M915.458,161.2l60.21,72.655h6.038V151.735h-6.488V223.29l-59.5-71.555h-6.828v82.119h6.569Zm96.078,73.879h6.99V152.846h-6.99Zm66.1,1.362,34.5-83.593h-6.979l-28.078,69-27.737-69h-7.291l34.606,83.593Zm99.073-6.978h-38.451V196.043H1174.5v-5.264h-36.247v-32.6h37.508v-5.328h-44.087v82.231h45.03Zm35.468-33.916h6.607a46.147,46.147,0,0,1,10.476.96,12,12,0,0,1,5.788,3.136,62.463,62.463,0,0,1,4.326,5.486c1.781,2.474,4.1,5.738,6.566,9.745l13,20.207h7.381l-22.439-34.587a24.3,24.3,0,0,0-3.114-3.986,31.232,31.232,0,0,0-4.126-3c5.176-1.659,9.083-4.155,11.635-7.559,2.614-3.3,3.845-7.528,3.845-12.464,0-6.669-2.212-11.759-6.838-15.312-4.688-3.545-11.235-5.328-19.828-5.328H1205.7v82.231h6.471Zm0-37.07h13.657c6.15,0,10.8,1.212,14.231,3.952,3.283,2.607,4.9,6.29,4.9,11.059a16.242,16.242,0,0,1-2.152,8.809,14,14,0,0,1-6.729,5.538,25.814,25.814,0,0,1-6.009,1.7c-2.521.229-6.748.379-12.847.379h-5.055Zm116.535,55.253a25.485,25.485,0,0,0-1.281-7.812,22.039,22.039,0,0,0-4.026-6.528c-2.574-2.883-7.68-5.878-15.061-8.912a15.708,15.708,0,0,1-1.741-.84c-6.75-2.864-11.076-5.3-13.007-7.638-2.064-2.155-3.036-5.2-3.036-8.745a14.594,14.594,0,0,1,4.647-11.1,17.225,17.225,0,0,1,12.017-4.376,26.564,26.564,0,0,1,9.061,1.624,42.806,42.806,0,0,1,9.733,5.207v-7.359a46.729,46.729,0,0,0-9.183-4.114,36.572,36.572,0,0,0-9.292-1.4c-6.99,0-12.6,2.074-16.983,6.178a20.42,20.42,0,0,0-6.569,15.573c0,5.2,1.381,9.481,4.276,12.766,2.852,3.286,8.181,6.569,15.993,9.79,7.528,3.207,12.326,5.931,14.4,8.243a13.267,13.267,0,0,1,3.085,9.2c0,5.045-1.443,9-4.626,11.995-2.983,2.9-7.271,4.414-12.578,4.414a25.859,25.859,0,0,1-9.871-2.231,46.092,46.092,0,0,1-10.935-6.681v7.921a43.849,43.849,0,0,0,10.414,5.49,32.517,32.517,0,0,0,10.524,1.769c7.019,0,12.717-1.99,17.252-6.269a21.146,21.146,0,0,0,6.79-16.171m33.135-60.882h-6.94v82.231h6.94Zm74.329,80.307a34.921,34.921,0,0,0,11.926-5.747,39.538,39.538,0,0,0,11.907-14.478,45.167,45.167,0,0,0,0-38.061,39.858,39.858,0,0,0-11.907-14.481,36.192,36.192,0,0,0-11.816-5.757,66.069,66.069,0,0,0-15.821-1.783h-28.2v82.231h28.2a57.589,57.589,0,0,0,15.712-1.924m-36.928-3.924V158.713h19.564a65.677,65.677,0,0,1,13.771,1.4,29.9,29.9,0,0,1,10.021,4.2,32.338,32.338,0,0,1,10.724,12.481,38.551,38.551,0,0,1,3.776,17.242,39.549,39.549,0,0,1-3.776,17.252,33.14,33.14,0,0,1-10.724,12.466A30.122,30.122,0,0,1,1432.582,228a67.392,67.392,0,0,1-13.771,1.231Zm111.1-73.26-33.794,79.107h6.569l11.516-27.359h34.025l11.545,27.359h6.566l-33.8-79.107Zm-13.569,46.4,14.971-35.556,14.771,35.556Zm117.6,30.78a32.786,32.786,0,0,0,11.878-5.747,38.524,38.524,0,0,0,11.885-14.478,44.3,44.3,0,0,0,0-38.061,38.827,38.827,0,0,0-11.885-14.481,33.876,33.876,0,0,0-11.767-5.757,66.562,66.562,0,0,0-15.861-1.783h-28.037v82.231h28.037a57.608,57.608,0,0,0,15.75-1.924m-36.99-3.924V158.713h19.628a65.886,65.886,0,0,1,13.778,1.4,29.77,29.77,0,0,1,10,4.2,31.569,31.569,0,0,1,10.676,12.481,37.824,37.824,0,0,1,3.814,17.242,38.791,38.791,0,0,1-3.814,17.252,32.332,32.332,0,0,1-10.676,12.466,29.993,29.993,0,0,1-10,4.238,67.594,67.594,0,0,1-13.778,1.231Z" transform="translate(-456.414 -97.148)"/>
      <rect id="Rectangle_25" data-name="Rectangle 25" class="cls-2" width="199.127" height="26.395" transform="translate(350.658 411.796)"/>
      <path id="Path_1010" data-name="Path 1010" class="cls-2" d="M16.64-24.08h27.2c1.28,0,1.68-.4,1.68-1.68v-4.88c0-1.28-.32-1.68-1.68-1.68H16.64V-47.68H44.56c1.36,0,1.76-.48,1.76-1.76v-4.88c0-1.28-.4-1.68-1.76-1.68H8.64c-1.28,0-1.68.4-1.68,1.68V-1.68C6.96-.4,7.36,0,8.64,0h6.32c1.28,0,1.68-.4,1.68-1.68Zm41.92-8.48a64.26,64.26,0,0,1,11.76-1.2c7.36,0,9.28,2.96,9.28,10.48a38.78,38.78,0,0,0-11.76-2.08c-8.64,0-15.52,4.16-15.52,12.88,0,8.96,6.8,13.36,14,13.36,8.32,0,12.72-3.84,14.96-6.32l.56,3.76C82.32-.4,82.72,0,83.68,0h3.36c1.36,0,1.68-.4,1.68-1.68V-22.24c0-12.64-2.72-19.36-18-19.36a79.746,79.746,0,0,0-14,1.52c-1.2.32-1.36.8-1.04,2.08l.96,3.84C56.96-32.88,57.28-32.4,58.56-32.56ZM70-18.88c3.52,0,6.16.88,9.6,2.08v5.04c-2.4,3.04-6.32,5.68-10.4,5.68-5.52,0-7.84-3.28-7.84-6.4C61.36-16.16,63.92-18.88,70-18.88Zm48.48,11.6c-6.64,0-12.08-5.6-12.08-13.04s5.44-13.12,12.08-13.12a13.23,13.23,0,0,1,9.2,3.44c.96.88,1.52.64,2.4-.32l2.96-3.2c.8-.96.96-1.36.24-2.08a20.808,20.808,0,0,0-14.8-6A21.237,21.237,0,0,0,97.36-20.32,21.168,21.168,0,0,0,118.48.88a20.808,20.808,0,0,0,14.8-6c.72-.72.56-1.12-.24-2.08l-2.96-3.2c-.88-.96-1.44-1.2-2.4-.32A13.23,13.23,0,0,1,118.48-7.28Zm52.72,5.6c.64,1.2.96,1.68,2,1.68h2.88c1.28,0,1.68-.4,1.68-1.68V-39.04c0-1.28-.4-1.68-1.68-1.68h-5.76c-1.28,0-1.68.4-1.68,1.68v19.2c0,7.6-3.04,12.56-8.96,12.56-5.6,0-8.72-3.84-8.72-12.24V-39.04c0-1.28-.4-1.68-1.68-1.68h-5.76c-1.28,0-1.68.4-1.68,1.68V-17.6c0,13.76,6.72,18.48,15.52,18.48,6.8,0,10.32-4.32,12.72-7.6Zm20.64,0c0,1.28.4,1.68,1.68,1.68h5.76c1.28,0,1.68-.4,1.68-1.68V-57.36c0-1.28-.32-1.68-1.68-1.68h-5.76c-1.28,0-1.68.4-1.68,1.68Zm47.28.56c1.04-.56,1.12-.96.88-2.16l-.72-4c-.32-1.68-.64-1.76-2.16-.96a10.131,10.131,0,0,1-4.8.96c-4.88,0-7.36-2.88-7.36-10.08V-33.44h12.32c1.28,0,1.68-.4,1.68-1.68v-3.84c0-1.36-.4-1.76-1.68-1.76H224.96v-7.84c0-1.28-.4-1.68-1.68-1.68H217.6c-1.36,0-1.68.4-1.68,1.68v7.84h-2.96c-1.28,0-1.68.4-1.68,1.68v3.92c0,1.28.4,1.68,1.68,1.68h2.96V-16.8C215.92-5.76,220.8.88,231.36.88A14.71,14.71,0,0,0,239.12-1.12Zm14.4-31.44a64.26,64.26,0,0,1,11.76-1.2c7.36,0,9.28,2.96,9.28,10.48a38.78,38.78,0,0,0-11.76-2.08c-8.64,0-15.52,4.16-15.52,12.88,0,8.96,6.8,13.36,14,13.36,8.32,0,12.72-3.84,14.96-6.32l.56,3.76c.48,1.28.88,1.68,1.84,1.68H282c1.36,0,1.68-.4,1.68-1.68V-22.24c0-12.64-2.72-19.36-18-19.36a79.746,79.746,0,0,0-14,1.52c-1.2.32-1.36.8-1.04,2.08l.96,3.84C251.92-32.88,252.24-32.4,253.52-32.56Zm11.44,13.68c3.52,0,6.16.88,9.6,2.08v5.04c-2.4,3.04-6.32,5.68-10.4,5.68-5.52,0-7.84-3.28-7.84-6.4C256.32-16.16,258.88-18.88,264.96-18.88Zm59.2-15.28A15.64,15.64,0,0,0,310.8-41.6c-10.96,0-18.48,9.6-18.48,21.28,0,11.44,7.52,21.2,18.48,21.2,7.76,0,12.08-4.4,14.88-7.76l1.12,5.2c.64,1.2.96,1.68,2,1.68h2.8c1.28,0,1.68-.4,1.68-1.68V-57.36c0-1.28-.4-1.68-1.68-1.68h-5.76c-1.36,0-1.68.4-1.68,1.68ZM312.8-7.12c-6.64,0-11.44-5.76-11.44-13.2,0-7.2,4.8-13.12,11.44-13.12s11.36,6.08,11.36,13.12S319.44-7.12,312.8-7.12Zm82.56-27.04A15.64,15.64,0,0,0,382-41.6c-10.96,0-18.48,9.6-18.48,21.28,0,11.44,7.52,21.2,18.48,21.2,7.76,0,12.08-4.4,14.88-7.76L398-1.68c.64,1.2.96,1.68,2,1.68h2.8c1.28,0,1.68-.4,1.68-1.68V-57.36c0-1.28-.4-1.68-1.68-1.68h-5.76c-1.36,0-1.68.4-1.68,1.68ZM384-7.12c-6.64,0-11.44-5.76-11.44-13.2,0-7.2,4.8-13.12,11.44-13.12s11.36,6.08,11.36,13.12S390.64-7.12,384-7.12Zm65.6-2.72c-.8-1.04-1.2-.72-2.4-.16a22.134,22.134,0,0,1-10.96,3.04,12.5,12.5,0,0,1-12.32-10.4h29.92c1.36,0,1.6-.48,1.6-1.76,0-12-6.8-22.48-19.84-22.48a21.237,21.237,0,0,0-21.12,21.28A21.256,21.256,0,0,0,436,.88c5.84,0,12.48-2,16.16-5.6.72-.8.56-1.28-.24-2.24ZM424.08-23.36c.56-5.2,4.48-10.72,11.28-10.72,6.72,0,10.24,5.52,10.8,10.72ZM511.04-7.44c-11.2,0-18.96-10.16-18.96-20.56,0-10.48,7.76-20.56,18.96-20.56a19.833,19.833,0,0,1,14.72,6.32c.96.96,1.52.8,2.4-.16l3.68-4c.88-.96,1.04-1.52.16-2.4-5.12-5.04-13.2-8.24-20.96-8.24A29.023,29.023,0,0,0,482.32-28,29.023,29.023,0,0,0,511.04,1.04c7.76,0,15.84-3.2,20.96-8.24.96-.96.8-1.44-.08-2.48l-3.68-4c-.88-.88-1.44-1.12-2.4-.16A19.913,19.913,0,0,1,511.04-7.44Zm32.8,5.76c0,1.28.4,1.68,1.68,1.68h5.76c1.28,0,1.68-.4,1.68-1.68V-39.04c0-1.28-.4-1.68-1.68-1.68h-5.76c-1.28,0-1.68.4-1.68,1.68Zm-1.12-51.76a5.5,5.5,0,0,0,5.6,5.52,5.548,5.548,0,0,0,5.6-5.52,5.686,5.686,0,0,0-5.6-5.68A5.634,5.634,0,0,0,542.72-53.44ZM599.6-9.84c-.8-1.04-1.2-.72-2.4-.16a22.134,22.134,0,0,1-10.96,3.04,12.5,12.5,0,0,1-12.32-10.4h29.92c1.36,0,1.6-.48,1.6-1.76,0-12-6.8-22.48-19.84-22.48a21.237,21.237,0,0,0-21.12,21.28A21.256,21.256,0,0,0,586,.88c5.84,0,12.48-2,16.16-5.6.72-.8.56-1.28-.24-2.24ZM574.08-23.36c.56-5.2,4.48-10.72,11.28-10.72,6.72,0,10.24,5.52,10.8,10.72Zm47.84-15.68c-.64-1.2-.96-1.68-2-1.68h-2.88c-1.28,0-1.68.4-1.68,1.68V-1.68c0,1.28.4,1.68,1.68,1.68h5.76c1.28,0,1.68-.4,1.68-1.68v-19.2c0-7.6,3.04-12.56,8.96-12.56,5.6,0,8.72,3.84,8.72,12.32V-1.68c0,1.28.4,1.68,1.68,1.68h5.76c1.28,0,1.68-.4,1.68-1.68V-23.12c0-13.76-6.72-18.48-15.52-18.48-6.8,0-10.32,4.4-12.72,7.6Zm59.2,31.76c-6.64,0-12.08-5.6-12.08-13.04s5.44-13.12,12.08-13.12a13.23,13.23,0,0,1,9.2,3.44c.96.88,1.52.64,2.4-.32l2.96-3.2c.8-.96.96-1.36.24-2.08a20.808,20.808,0,0,0-14.8-6A21.237,21.237,0,0,0,660-20.32,21.168,21.168,0,0,0,681.12.88a20.808,20.808,0,0,0,14.8-6c.72-.72.56-1.12-.24-2.08l-2.96-3.2c-.88-.96-1.44-1.2-2.4-.32A13.23,13.23,0,0,1,681.12-7.28Zm26.32,5.6c0,1.28.4,1.68,1.68,1.68h5.76c1.28,0,1.68-.4,1.68-1.68V-39.04c0-1.28-.4-1.68-1.68-1.68h-5.76c-1.28,0-1.68.4-1.68,1.68Zm-1.12-51.76a5.5,5.5,0,0,0,5.6,5.52,5.548,5.548,0,0,0,5.6-5.52,5.686,5.686,0,0,0-5.6-5.68A5.634,5.634,0,0,0,706.32-53.44ZM735.2-32.56a64.26,64.26,0,0,1,11.76-1.2c7.36,0,9.28,2.96,9.28,10.48a38.78,38.78,0,0,0-11.76-2.08c-8.64,0-15.52,4.16-15.52,12.88,0,8.96,6.8,13.36,14,13.36,8.32,0,12.72-3.84,14.96-6.32l.56,3.76c.48,1.28.88,1.68,1.84,1.68h3.36c1.36,0,1.68-.4,1.68-1.68V-22.24c0-12.64-2.72-19.36-18-19.36a79.747,79.747,0,0,0-14,1.52c-1.2.32-1.36.8-1.04,2.08l.96,3.84C733.6-32.88,733.92-32.4,735.2-32.56Zm11.44,13.68c3.52,0,6.16.88,9.6,2.08v5.04c-2.4,3.04-6.32,5.68-10.4,5.68-5.52,0-7.84-3.28-7.84-6.4C738-16.16,740.56-18.88,746.64-18.88ZM790.8-6.24a22.029,22.029,0,0,1-12.4-4.16c-1.28-.96-1.68-.4-2.24.72L774.4-6.64c-.56,1.12-.72,1.6.4,2.4A30.82,30.82,0,0,0,791.36.88c10.32,0,16.88-5.28,16.88-13.04,0-8.48-7.28-11.12-15.6-12.16-6.16-.88-9.6-1.68-9.6-4.8,0-3.28,2.32-5.36,8.08-5.36,4.88,0,7.92,1.44,11.36,3.6,1.2.8,1.68.32,2.24-.8l1.76-2.96c.48-1.12.8-1.68-.48-2.48a30.493,30.493,0,0,0-15.44-4.48c-9.68,0-16.16,5.12-16.16,12.96,0,8.56,7.28,11.12,15.6,12.24,6.08.8,9.6,2.08,9.6,4.72C799.6-8.56,796.8-6.24,790.8-6.24ZM14.24,69.64V46.44H27.6c11.12,0,13.92,5.68,13.92,11.28,0,6.08-2.8,11.92-13.92,11.92ZM28,75.08c9.76,0,19.68-4.4,19.68-17.36S37.76,41,28,41H9.2c-.96,0-1.28.16-1.28,1.28V95.72c0,.96.24,1.28,1.28,1.28h3.76c1.04,0,1.28-.32,1.28-1.28V75.08ZM78.24,61.32c.96,0,1.2-.24,1.44-1.2l.48-3.6c.16-.8,0-1.12-1.12-1.12C67.68,55.4,64,62.2,62.4,65.56l-.96-8c-.4-.96-.72-1.28-1.36-1.28h-2c-.88,0-1.2.32-1.2,1.28V95.72c0,.96.32,1.28,1.2,1.28h3.6c.88,0,1.2-.32,1.2-1.28V76.04C62.88,68.6,67.84,61.32,78.24,61.32ZM84.8,76.68A21.041,21.041,0,1,0,105.84,55.4,21.1,21.1,0,0,0,84.8,76.68Zm21.04,15.84c-8.32,0-15.04-7.04-15.04-15.84s6.72-15.84,15.04-15.84c8.4,0,15.12,7.04,15.12,15.84S114.24,92.52,105.84,92.52Zm62,2.24c0,9.6-3.2,16.64-13.52,16.64a35.136,35.136,0,0,1-13.52-2.72c-.88-.4-1.12-.24-1.36.72l-.8,3.04c-.24.88-.08,1.12.72,1.44a41.565,41.565,0,0,0,15.84,2.88c12.4,0,18.64-7.28,18.64-22.64V57.56c0-.96-.32-1.28-1.2-1.28H170.8c-.72,0-1.04.32-1.36,1.28L168.8,65c-2-3.04-6.32-9.6-15.76-9.6-11.2,0-18.48,9.68-18.48,21.28,0,11.68,7.2,21.2,18.48,21.2a16.227,16.227,0,0,0,14.8-9.36Zm-13.6-34c8.32,0,13.68,7.92,13.68,15.84,0,8-5.36,15.84-13.68,15.84-8.4,0-13.68-7.6-13.68-15.76C140.56,67.8,145.84,60.76,154.24,60.76Zm56.4.56c.96,0,1.2-.24,1.44-1.2l.48-3.6c.16-.8,0-1.12-1.12-1.12-11.36,0-15.04,6.8-16.64,10.16l-.96-8c-.4-.96-.72-1.28-1.36-1.28h-2c-.88,0-1.2.32-1.2,1.28V95.72c0,.96.32,1.28,1.2,1.28h3.6c.88,0,1.2-.32,1.2-1.28V76.04C195.28,68.6,200.24,61.32,210.64,61.32Zm12.32.64a65.415,65.415,0,0,1,12.32-1.28c8.4,0,11.36,3.68,11.36,13.76a35.277,35.277,0,0,0-12.96-2.8c-9.84,0-16.4,4.24-16.4,12.96,0,8.56,6.56,13.28,14.24,13.28a19.734,19.734,0,0,0,16.08-7.6l.32,5.44c.24.96.56,1.28,1.2,1.28h2.32c.88,0,1.2-.32,1.2-1.28V74.6c0-13.2-3.68-19.2-17.12-19.2a75.609,75.609,0,0,0-13.76,1.44c-.96.32-1.2.72-.96,1.6l.64,2.4C221.68,61.8,221.92,62.2,222.96,61.96Zm11.92,14.16c4.56,0,7.68,1.2,11.76,2.88v6.64c-2.56,3.76-7.76,7.52-13.28,7.52-6.48,0-10.08-3.6-10.08-8.56C223.28,79.16,227.28,76.12,234.88,76.12Zm62.64-10.88c-1.44-3.84-5.68-9.84-13.52-9.84-7.6,0-11.28,6.24-12.72,9.6l-.64-7.44c-.4-.96-.72-1.28-1.36-1.28h-2c-.88,0-1.2.32-1.2,1.28V95.72c0,.96.32,1.28,1.2,1.28h3.6c.88,0,1.2-.32,1.2-1.28V75.56c0-8.48,4-14.72,10.48-14.72,6.56,0,10.48,5.76,10.48,14.16V95.72c0,.96.4,1.28,1.2,1.28h3.6c.96,0,1.2-.32,1.2-1.28V75.16c0-8.8,4.56-14.32,10.48-14.32C315.2,60.84,320,65.48,320,75V95.72c0,.96.4,1.28,1.2,1.28h3.6c.96,0,1.2-.32,1.2-1.28V73.4c0-12.8-7.2-18-15.04-18C303.36,55.4,299.12,61.64,297.52,65.24Zm44.24-3.28a65.416,65.416,0,0,1,12.32-1.28c8.4,0,11.36,3.68,11.36,13.76a35.276,35.276,0,0,0-12.96-2.8c-9.84,0-16.4,4.24-16.4,12.96,0,8.56,6.56,13.28,14.24,13.28a19.734,19.734,0,0,0,16.08-7.6l.32,5.44c.24.96.56,1.28,1.2,1.28h2.32c.88,0,1.2-.32,1.2-1.28V74.6c0-13.2-3.68-19.2-17.12-19.2a75.61,75.61,0,0,0-13.76,1.44c-.96.32-1.2.72-.96,1.6l.64,2.4C340.48,61.8,340.72,62.2,341.76,61.96Zm11.92,14.16c4.56,0,7.68,1.2,11.76,2.88v6.64c-2.56,3.76-7.76,7.52-13.28,7.52-6.48,0-10.08-3.6-10.08-8.56C342.08,79.16,346.08,76.12,353.68,76.12Zm80.8-11.36a16.227,16.227,0,0,0-14.8-9.36c-11.2,0-18.48,9.52-18.48,21.2,0,11.6,7.28,21.28,18.48,21.28,9.44,0,13.76-6.56,15.76-9.6l.64,7.44c.32.96.64,1.28,1.36,1.28h1.84c.88,0,1.2-.32,1.2-1.28V39.24c0-.96-.32-1.28-1.2-1.28h-3.6c-.88,0-1.2.32-1.2,1.28Zm-13.6,27.76c-8.4,0-13.68-7.04-13.68-15.92,0-8.24,5.28-15.76,13.68-15.76,8.32,0,13.68,7.84,13.68,15.84C434.56,84.6,429.2,92.52,420.88,92.52Zm66.96-3.84c-.64-.72-.96-.56-1.84-.08a21.978,21.978,0,0,1-12.56,4c-8.08,0-14.88-6.4-15.44-13.84h33.36c1.04,0,1.2-.32,1.2-1.28,0-12-7.28-22.08-19.76-22.08a21.241,21.241,0,0,0,.4,42.48c5.92,0,12.4-1.92,16.16-5.6.56-.56.56-1.04,0-1.76ZM458.16,74.6a14.811,14.811,0,0,1,14.56-14.16c8.16,0,13.36,6.96,13.68,14.16ZM579.6,54.04l4.64,41.68c.08.96.32,1.28,1.2,1.28h3.92c.96,0,1.28-.4,1.2-1.28l-6.72-55.04c-.08-.56-.16-.72-.72-.72h-.48c-.32,0-.56.08-.96.72l-25.6,48.4-25.6-48.4c-.4-.64-.64-.72-.96-.72h-.48c-.56,0-.64.16-.72.72L521.6,95.72c-.16.88.24,1.28,1.12,1.28h3.92c.96,0,1.12-.32,1.28-1.28l4.72-41.6,21.6,42.64c.56.8.88,1.28,1.52,1.28h.64c.64,0,1.04-.48,1.44-1.28Zm26.56,7.92a65.415,65.415,0,0,1,12.32-1.28c8.4,0,11.36,3.68,11.36,13.76a35.276,35.276,0,0,0-12.96-2.8c-9.84,0-16.4,4.24-16.4,12.96,0,8.56,6.56,13.28,14.24,13.28a19.734,19.734,0,0,0,16.08-7.6l.32,5.44c.24.96.56,1.28,1.2,1.28h2.32c.88,0,1.2-.32,1.2-1.28V74.6c0-13.2-3.68-19.2-17.12-19.2a75.61,75.61,0,0,0-13.76,1.44c-.96.32-1.2.72-.96,1.6l.64,2.4C604.88,61.8,605.12,62.2,606.16,61.96Zm11.92,14.16c4.56,0,7.68,1.2,11.76,2.88v6.64c-2.56,3.76-7.76,7.52-13.28,7.52-6.48,0-10.08-3.6-10.08-8.56C606.48,79.16,610.48,76.12,618.08,76.12Zm54.48,19.84c.72-.4.8-.72.56-1.52l-.48-2.56c-.32-1.12-.56-1.2-1.6-.64a10.167,10.167,0,0,1-5.52,1.2c-6.4,0-9.2-3.44-9.2-12.8V61.24H670.8c.96,0,1.2-.32,1.2-1.28v-2.4c0-1.04-.32-1.28-1.2-1.28H656.32V48.04c0-.96-.24-1.28-1.2-1.28H651.6c-.96,0-1.2.32-1.2,1.28v8.24h-3.92c-.96,0-1.28.24-1.28,1.28v2.4c0,.96.32,1.28,1.28,1.28h3.92V80.12c0,11.12,3.92,17.76,14.48,17.76A14.966,14.966,0,0,0,672.56,95.96Zm43.84-7.28c-.64-.72-.96-.56-1.84-.08a21.978,21.978,0,0,1-12.56,4c-8.08,0-14.88-6.4-15.44-13.84h33.36c1.04,0,1.2-.32,1.2-1.28,0-12-7.28-22.08-19.76-22.08a21.241,21.241,0,0,0,.4,42.48c5.92,0,12.4-1.92,16.16-5.6.56-.56.56-1.04,0-1.76ZM686.72,74.6a14.811,14.811,0,0,1,14.56-14.16c8.16,0,13.36,6.96,13.68,14.16Zm77.04-9.36c-1.44-3.84-5.68-9.84-13.52-9.84-7.6,0-11.28,6.24-12.72,9.6l-.64-7.44c-.4-.96-.72-1.28-1.36-1.28h-2c-.88,0-1.2.32-1.2,1.28V95.72c0,.96.32,1.28,1.2,1.28h3.6c.88,0,1.2-.32,1.2-1.28V75.56c0-8.48,4-14.72,10.48-14.72,6.56,0,10.48,5.76,10.48,14.16V95.72c0,.96.4,1.28,1.2,1.28h3.6c.96,0,1.2-.32,1.2-1.28V75.16c0-8.8,4.56-14.32,10.48-14.32,5.68,0,10.48,4.64,10.48,14.16V95.72c0,.96.4,1.28,1.2,1.28h3.6c.96,0,1.2-.32,1.2-1.28V73.4c0-12.8-7.2-18-15.04-18C769.6,55.4,765.36,61.64,763.76,65.24Zm43.76-3.28a65.415,65.415,0,0,1,12.32-1.28c8.4,0,11.36,3.68,11.36,13.76a35.277,35.277,0,0,0-12.96-2.8c-9.84,0-16.4,4.24-16.4,12.96,0,8.56,6.56,13.28,14.24,13.28a19.734,19.734,0,0,0,16.08-7.6l.32,5.44c.24.96.56,1.28,1.2,1.28H836c.88,0,1.2-.32,1.2-1.28V74.6c0-13.2-3.68-19.2-17.12-19.2a75.609,75.609,0,0,0-13.76,1.44c-.96.32-1.2.72-.96,1.6l.64,2.4C806.24,61.8,806.48,62.2,807.52,61.96Zm11.92,14.16c4.56,0,7.68,1.2,11.76,2.88v6.64c-2.56,3.76-7.76,7.52-13.28,7.52-6.48,0-10.08-3.6-10.08-8.56C807.84,79.16,811.84,76.12,819.44,76.12Zm9.04-32.88a1.033,1.033,0,0,0,.24-1.6l-1.52-2.4c-.48-.72-1.04-.96-1.6-.32l-10,10.56c-.88.88-.56,1.36.24,1.36h3.2a3.2,3.2,0,0,0,2.08-.8Zm45.44,52.72c.72-.4.8-.72.56-1.52L874,91.88c-.32-1.12-.56-1.2-1.6-.64a10.167,10.167,0,0,1-5.52,1.2c-6.4,0-9.2-3.44-9.2-12.8V61.24h14.48c.96,0,1.2-.32,1.2-1.28v-2.4c0-1.04-.32-1.28-1.2-1.28H857.68V48.04c0-.96-.24-1.28-1.2-1.28h-3.52c-.96,0-1.2.32-1.2,1.28v8.24h-3.92c-.96,0-1.28.24-1.28,1.28v2.4c0,.96.32,1.28,1.28,1.28h3.92V80.12c0,11.12,3.92,17.76,14.48,17.76A14.966,14.966,0,0,0,873.92,95.96Zm13.28-.24c0,.96.24,1.28,1.2,1.28h3.52c.96,0,1.28-.32,1.28-1.28V57.56c0-.96-.24-1.28-1.28-1.28H888.4c-.96,0-1.2.32-1.2,1.28Zm-1.28-52.8a4.132,4.132,0,0,0,4.16,4.16,4.161,4.161,0,1,0,0-8.32A4.132,4.132,0,0,0,885.92,42.92Zm41.52,49.52c-8.4,0-15.12-6.88-15.12-15.76,0-8.8,6.72-15.84,15.12-15.84a15.78,15.78,0,0,1,11.12,4.48c.64.64,1.12.48,1.68-.24l1.92-2c.64-.72.64-1.12,0-1.68a20.478,20.478,0,0,0-14.8-6,21.242,21.242,0,0,0,0,42.48,20.478,20.478,0,0,0,14.8-6c.64-.56.64-.96,0-1.68l-1.92-2c-.56-.72-1.04-.88-1.68-.24A15.78,15.78,0,0,1,927.44,92.44Zm28.4-30.48a65.415,65.415,0,0,1,12.32-1.28c8.4,0,11.36,3.68,11.36,13.76a35.276,35.276,0,0,0-12.96-2.8c-9.84,0-16.4,4.24-16.4,12.96,0,8.56,6.56,13.28,14.24,13.28a19.734,19.734,0,0,0,16.08-7.6l.32,5.44c.24.96.56,1.28,1.2,1.28h2.32c.88,0,1.2-.32,1.2-1.28V74.6c0-13.2-3.68-19.2-17.12-19.2a75.61,75.61,0,0,0-13.76,1.44c-.96.32-1.2.72-.96,1.6l.64,2.4C954.56,61.8,954.8,62.2,955.84,61.96Zm11.92,14.16c4.56,0,7.68,1.2,11.76,2.88v6.64c-2.56,3.76-7.76,7.52-13.28,7.52-6.48,0-10.08-3.6-10.08-8.56C956.16,79.16,960.16,76.12,967.76,76.12ZM1011.6,93a23.752,23.752,0,0,1-13.52-4.48c-.96-.72-1.36-.32-1.76.48l-1.12,2c-.48.88-.48,1.28.24,1.76a30.774,30.774,0,0,0,16.48,5.12c10.32,0,16.4-5.28,16.4-12.64,0-7.76-7.68-10.32-15.6-11.44-7.28-1.04-11.28-1.84-11.28-6.24s3.28-7.28,10-7.28c5.2,0,8.24,1.2,12.56,3.84.96.64,1.36.24,1.76-.56l1.04-1.92c.4-.72.56-1.2-.4-1.76a29.384,29.384,0,0,0-15.28-4.48c-9.44,0-15.36,4.88-15.36,12.48,0,8.4,7.6,10.24,15.52,11.28,7.28,1.04,11.28,2.88,11.28,6.4C1022.56,89.64,1019.36,93,1011.6,93Z" transform="translate(346.665 578.654)"/>
    </g>
  </g>
  <rect id="Rectangle_87" data-name="Rectangle 87" class="cls-3" width="1578" height="956.873"/>
  <g id="Group_35" data-name="Group 35" transform="translate(446.196 818.684)">
    <path id="Path_359" data-name="Path 359" class="cls-4" d="M1134.33,176.652h-3.324L1118.2,147.281h3.787l10.684,24.635,10.7-24.635h3.788Z" transform="translate(-1118.196 -142.891)"/>
    <path id="Path_360" data-name="Path 360" class="cls-4" d="M1127.317,149.349a2.243,2.243,0,0,1-2.324,2.243,2.221,2.221,0,1,1,0-4.442A2.263,2.263,0,0,1,1127.317,149.349Zm-3.993,28.135V155.9h3.39v21.583Z" transform="translate(-1089.394 -143.723)"/>
    <path id="Path_361" data-name="Path 361" class="cls-4" d="M1146.828,171.336c0,6.089-5.059,10.023-11.361,10.023-5.4,0-8.957-2.111-10.655-5.581l2.882-2.2c1.5,2.912,3.67,4.537,7.773,4.537,4.375,0,7.979-2.8,8.022-7.222v-4.111a10.221,10.221,0,0,1-8.6,4.192c-5.766,0-10.8-4.537-10.8-11.369,0-6.854,5.03-11.34,10.8-11.34a10.322,10.322,0,0,1,8.6,4.126V148.8h3.338Zm-3.338-11.729a8.2,8.2,0,0,0-8.074-8.435c-4.478,0-8.074,3.287-8.074,8.435s3.6,8.369,8.074,8.369A8.132,8.132,0,0,0,1143.49,159.607Z" transform="translate(-1080.69 -136.626)"/>
    <path id="Path_362" data-name="Path 362" class="cls-4" d="M1132.8,149.349a2.258,2.258,0,0,1-2.331,2.243,2.221,2.221,0,1,1,0-4.442A2.279,2.279,0,0,1,1132.8,149.349Zm-4,28.135V155.9h3.382v21.583Z" transform="translate(-1054.614 -143.723)"/>
    <path id="Path_363" data-name="Path 363" class="cls-4" d="M1133.138,174.93a2.781,2.781,0,0,0,3.045,2.875,6.238,6.238,0,0,0,2.6-.662l.691,2.787a7.1,7.1,0,0,1-3.81,1.1,5.576,5.576,0,0,1-5.891-5.927V146.684h3.361Z" transform="translate(-1044.607 -146.684)"/>
    <path id="Path_364" data-name="Path 364" class="cls-4" d="M1150.645,156.371v14.016h-3.265v-3.258a9.673,9.673,0,0,1-8.111,3.846c-4.714,0-7.839-2.728-7.839-6.6,0-3.993,3.03-6.78,8.677-6.78h7.273V156.6c0-3.375-2.191-5.427-5.508-5.427-3.287,0-5.581,1.669-6.06,4.383l-3.191-.721c.684-3.9,4.338-6.567,9.067-6.567C1147.072,148.267,1150.645,151.142,1150.645,156.371Zm-3.265,4.971v-1.1h-7.3c-3.567,0-5.457,1.691-5.457,4.089,0,2.272,2.03,3.89,5.126,3.89C1143.954,168.218,1147.38,165.276,1147.38,161.342Z" transform="translate(-1034.104 -136.626)"/>
    <path id="Path_365" data-name="Path 365" class="cls-4" d="M1157.4,180.445h-3.332v-3.6a10.214,10.214,0,0,1-8.611,4.192c-5.75,0-10.781-4.537-10.781-11.369,0-6.854,5.031-11.34,10.781-11.34a10.315,10.315,0,0,1,8.611,4.126V146.684h3.332Zm-3.332-10.781A8.186,8.186,0,0,0,1146,161.23c-4.479,0-8.068,3.287-8.068,8.435s3.589,8.369,8.068,8.369A8.123,8.123,0,0,0,1154.071,169.664Z" transform="translate(-1013.467 -146.684)"/>
    <path id="Path_366" data-name="Path 366" class="cls-4" d="M1157.768,156.371v14.016h-3.25v-3.258a9.7,9.7,0,0,1-8.1,3.846c-4.743,0-7.875-2.728-7.875-6.6,0-3.993,3.03-6.78,8.706-6.78h7.266V156.6c0-3.375-2.184-5.427-5.531-5.427-3.272,0-5.567,1.669-6.015,4.383l-3.221-.721c.691-3.9,4.354-6.567,9.074-6.567C1154.224,148.267,1157.768,151.142,1157.768,156.371Zm-3.25,4.971v-1.1h-7.31c-3.574,0-5.449,1.691-5.449,4.089,0,2.272,2.023,3.89,5.133,3.89C1151.084,168.218,1154.518,165.276,1154.518,161.342Z" transform="translate(-988.897 -136.626)"/>
    <path id="Path_367" data-name="Path 367" class="cls-4" d="M1175.23,176.652h-3.316V155.113l-11.355,21.539h-2.228l-11.42-21.539v21.539h-3.346V147.281h3.066L1159.42,171.5l12.78-24.216h3.03Z" transform="translate(-957.001 -142.891)"/>
    <path id="Path_368" data-name="Path 368" class="cls-4" d="M1153.482,149.349a2.243,2.243,0,0,1-2.324,2.243,2.221,2.221,0,1,1,0-4.442A2.262,2.262,0,0,1,1153.482,149.349Zm-3.963,28.135V155.9h3.346v21.583Z" transform="translate(-923.2 -143.723)"/>
    <path id="Path_369" data-name="Path 369" class="cls-4" d="M1170.675,157.481v12.906h-3.346V158.07c0-3.978-2.382-6.736-6-6.736-4.53,0-7.485,3.044-7.485,8.685v10.369h-3.317V148.8h3.317v3.589a9.218,9.218,0,0,1,8.163-4.126C1167.212,148.267,1170.675,151.973,1170.675,157.481Z" transform="translate(-912.773 -136.626)"/>
    <path id="Path_370" data-name="Path 370" class="cls-4" d="M1175.781,160.29H1157.22a7.86,7.86,0,0,0,7.7,7.758,7.386,7.386,0,0,0,7.354-4.67l2.971.721c-1.662,4.493-5.471,6.876-10.325,6.876a11.359,11.359,0,0,1,.191-22.708c5.869,0,10.421,4.324,10.671,10.759Zm-18.414-2.522h15.017c-.611-4.243-3.632-6.6-7.273-6.6A7.749,7.749,0,0,0,1157.367,157.768Z" transform="translate(-890.846 -136.626)"/>
    <path id="Path_371" data-name="Path 371" class="cls-4" d="M1180.142,180.445h-3.361v-3.6a10.1,10.1,0,0,1-8.552,4.192c-5.758,0-10.774-4.537-10.774-11.369,0-6.854,5.015-11.34,10.774-11.34a10.2,10.2,0,0,1,8.552,4.126V146.684h3.361Zm-3.361-10.781a8.163,8.163,0,0,0-8.038-8.435c-4.471,0-8.1,3.287-8.1,8.435s3.625,8.369,8.1,8.369A8.1,8.1,0,0,0,1176.781,169.664Z" transform="translate(-868.755 -146.684)"/>
    <path id="Path_372" data-name="Path 372" class="cls-4" d="M1181.745,169.894h-3.382v-3.486a9.411,9.411,0,0,1-8.134,4.074c-5.221,0-8.714-3.728-8.714-9.229V148.34h3.4v12.325c0,4.015,2.353,6.662,5.949,6.662,4.53,0,7.5-2.986,7.5-8.619V148.34h3.382Z" transform="translate(-842.958 -136.162)"/>
    <path id="Path_373" data-name="Path 373" class="cls-4" d="M1183.475,163l3.081.816a10.466,10.466,0,0,1-10.25,7.163,11.355,11.355,0,0,1,0-22.708,10.473,10.473,0,0,1,10.266,7.155l-3.206.978a7.128,7.128,0,0,0-7.059-5.067,8.277,8.277,0,0,0,0,16.546A7.379,7.379,0,0,0,1183.475,163Z" transform="translate(-820.568 -136.626)"/>
    <path id="Path_374" data-name="Path 374" class="cls-4" d="M1187.642,156.371v14.016h-3.2v-3.258a9.88,9.88,0,0,1-8.134,3.846c-4.743,0-7.831-2.728-7.831-6.6,0-3.993,2.978-6.78,8.669-6.78h7.3V156.6a5.14,5.14,0,0,0-5.524-5.427c-3.316,0-5.633,1.669-6.067,4.383l-3.22-.721c.713-3.9,4.338-6.567,9.074-6.567C1184.12,148.267,1187.642,151.142,1187.642,156.371Zm-3.2,4.971v-1.1H1177.1c-3.575,0-5.449,1.691-5.449,4.089,0,2.272,1.985,3.89,5.11,3.89C1181,168.218,1184.443,165.276,1184.443,161.342Z" transform="translate(-798.717 -136.626)"/>
    <path id="Path_375" data-name="Path 375" class="cls-4" d="M1190.135,163l3.074.816a10.348,10.348,0,0,1-10.193,7.163,11.354,11.354,0,0,1,0-22.708,10.521,10.521,0,0,1,10.274,7.155l-3.214.978a7.153,7.153,0,0,0-7.06-5.067,8.276,8.276,0,0,0,0,16.546A7.3,7.3,0,0,0,1190.135,163Z" transform="translate(-778.112 -136.626)"/>
    <path id="Path_376" data-name="Path 376" class="cls-4" d="M1179.957,149.349a2.285,2.285,0,1,1-2.3-2.2A2.207,2.207,0,0,1,1179.957,149.349Zm-3.985,28.135V155.9h3.4v21.583Z" transform="translate(-754.793 -143.723)"/>
    <path id="Path_377" data-name="Path 377" class="cls-4" d="M1199.638,167.47a11.439,11.439,0,0,1-22.877,0c0-6.685,5.045-11.281,11.487-11.281A11.015,11.015,0,0,1,1199.638,167.47Zm-3.243,0a8.2,8.2,0,1,0-16.406,0,8.205,8.205,0,1,0,16.406,0ZM1187,153.189l3.53-6.162h3.9l-4.479,6.162Z" transform="translate(-746.089 -144.505)"/>
    <path id="Path_378" data-name="Path 378" class="cls-4" d="M1200.817,157.481v12.906h-3.309V158.07c0-3.978-2.456-6.736-6.015-6.736-4.552,0-7.5,3.044-7.5,8.685v10.369h-3.339V148.8h3.339v3.589a9.209,9.209,0,0,1,8.118-4.126C1197.331,148.267,1200.817,151.973,1200.817,157.481Z" transform="translate(-721.353 -136.626)"/>
  </g>
</svg>
