<svg id="facultad-logo-ueb-horizontal-a-una-linea" xmlns="http://www.w3.org/2000/svg" width="1894" height="288.844" viewBox="0 0 1894 288.844">
  <defs>
    <style>
      .cls-1 {
        fill: #ff893b;
      }

      .cls-2 {
        fill: #394024;
      }

      .cls-3 {
        fill: #33371d;
      }

      .cls-4 {
        fill: none;
      }
    </style>
  </defs>
  <g id="Capa_4" data-name="Capa 4" transform="translate(47.098 47.836)">
    <g id="Group_126" data-name="Group 126">
      <g id="Group_125" data-name="Group 125">
        <g id="Group_123" data-name="Group 123">
          <path id="Path_939" data-name="Path 939" class="cls-1" d="M299.17,2339.183c-15.481-37.592-20.933-76.507-20.933-116.652a310.276,310.276,0,0,1,3.988-51.718H297c-3.566,16.239-4.675,32.887-4.675,49.463,0,34.845,4.328,71.894,14.4,105.458,10.088-33.563,14.4-70.612,14.4-105.458,0-16.576-1.1-33.224-4.674-49.463h14.766a310.281,310.281,0,0,1,3.994,51.718c0,40.146-5.449,79.06-20.933,116.652Z" transform="translate(-229.984 -2145.751)"/>
          <path id="Path_940" data-name="Path 940" class="cls-1" d="M345.106,2204.965a3.281,3.281,0,1,1-.211,4.632A3.282,3.282,0,0,1,345.106,2204.965Z" transform="translate(-215.589 -2138.468)"/>
          <path id="Path_941" data-name="Path 941" class="cls-1" d="M345.106,2213.317a3.285,3.285,0,1,1-.211,4.635A3.276,3.276,0,0,1,345.106,2213.317Z" transform="translate(-215.589 -2136.64)"/>
          <path id="Path_942" data-name="Path 942" class="cls-1" d="M350.805,2219.838a3.278,3.278,0,1,1-.219,4.633A3.273,3.273,0,0,1,350.805,2219.838Z" transform="translate(-214.344 -2135.215)"/>
          <path id="Path_943" data-name="Path 943" class="cls-1" d="M343.411,2241.622a3.281,3.281,0,1,1-.211,4.635A3.294,3.294,0,0,1,343.411,2241.622Z" transform="translate(-215.96 -2130.448)"/>
          <path id="Path_944" data-name="Path 944" class="cls-1" d="M343.153,2250.055a3.283,3.283,0,1,1-.451,4.625A3.259,3.259,0,0,1,343.153,2250.055Z" transform="translate(-216.046 -2128.58)"/>
          <path id="Path_945" data-name="Path 945" class="cls-1" d="M348.6,2256.83a3.283,3.283,0,1,1-.523,4.613A3.277,3.277,0,0,1,348.6,2256.83Z" transform="translate(-214.861 -2127.091)"/>
          <path id="Path_946" data-name="Path 946" class="cls-1" d="M349.109,2236.416a3.284,3.284,0,1,1-.21,4.632A3.286,3.286,0,0,1,349.109,2236.416Z" transform="translate(-214.714 -2131.587)"/>
          <path id="Path_947" data-name="Path 947" class="cls-1" d="M337.977,2277.889a3.282,3.282,0,1,1-.768,4.584A3.282,3.282,0,0,1,337.977,2277.889Z" transform="translate(-217.217 -2122.46)"/>
          <path id="Path_948" data-name="Path 948" class="cls-1" d="M337.361,2287.234a3.278,3.278,0,1,1-.9,4.541A3.272,3.272,0,0,1,337.361,2287.234Z" transform="translate(-217.369 -2120.406)"/>
          <path id="Path_949" data-name="Path 949" class="cls-1" d="M344.312,2273.347a3.283,3.283,0,1,1-.769,4.573A3.28,3.28,0,0,1,344.312,2273.347Z" transform="translate(-215.831 -2123.454)"/>
          <path id="Path_950" data-name="Path 950" class="cls-1" d="M357.132,2192.526a3.279,3.279,0,1,1,1.522,4.377A3.279,3.279,0,0,1,357.132,2192.526Z" transform="translate(-212.797 -2141.406)"/>
          <path id="Path_951" data-name="Path 951" class="cls-1" d="M359.287,2184.374a3.28,3.28,0,1,1,3.11,3.445A3.277,3.277,0,0,1,359.287,2184.374Z" transform="translate(-212.255 -2143.465)"/>
          <path id="Path_952" data-name="Path 952" class="cls-1" d="M358.968,2174.94a3.278,3.278,0,1,1,3.828,2.615A3.277,3.277,0,0,1,358.968,2174.94Z" transform="translate(-212.336 -2145.698)"/>
          <path id="Path_953" data-name="Path 953" class="cls-1" d="M356.064,2166.558a3.285,3.285,0,1,1,4.5,1.169A3.287,3.287,0,0,1,356.064,2166.558Z" transform="translate(-213.057 -2147.762)"/>
          <path id="Path_954" data-name="Path 954" class="cls-1" d="M351.832,2198.741a3.28,3.28,0,1,1-.211,4.623A3.283,3.283,0,0,1,351.832,2198.741Z" transform="translate(-214.119 -2139.829)"/>
          <path id="Path_955" data-name="Path 955" class="cls-1" d="M259.379,2204.965a3.28,3.28,0,1,0,.2,4.632A3.283,3.283,0,0,0,259.379,2204.965Z" transform="translate(-235.31 -2138.468)"/>
          <path id="Path_956" data-name="Path 956" class="cls-1" d="M259.379,2213.317a3.284,3.284,0,1,0,.2,4.635A3.278,3.278,0,0,0,259.379,2213.317Z" transform="translate(-235.31 -2136.64)"/>
          <path id="Path_957" data-name="Path 957" class="cls-1" d="M253.679,2219.838a3.278,3.278,0,1,0,.219,4.633A3.272,3.272,0,0,0,253.679,2219.838Z" transform="translate(-236.555 -2135.215)"/>
          <path id="Path_958" data-name="Path 958" class="cls-1" d="M261.074,2241.622a3.28,3.28,0,1,0,.21,4.635A3.283,3.283,0,0,0,261.074,2241.622Z" transform="translate(-234.939 -2130.448)"/>
          <path id="Path_959" data-name="Path 959" class="cls-1" d="M261.333,2250.055a3.282,3.282,0,1,0,.451,4.625A3.267,3.267,0,0,0,261.333,2250.055Z" transform="translate(-234.854 -2128.58)"/>
          <path id="Path_960" data-name="Path 960" class="cls-1" d="M255.889,2256.83a3.281,3.281,0,1,0,.518,4.613A3.285,3.285,0,0,0,255.889,2256.83Z" transform="translate(-236.038 -2127.091)"/>
          <path id="Path_961" data-name="Path 961" class="cls-1" d="M255.375,2236.416a3.284,3.284,0,1,0,.215,4.632A3.286,3.286,0,0,0,255.375,2236.416Z" transform="translate(-236.186 -2131.587)"/>
          <path id="Path_962" data-name="Path 962" class="cls-1" d="M266.515,2277.889a3.284,3.284,0,1,0,.759,4.584A3.289,3.289,0,0,0,266.515,2277.889Z" transform="translate(-233.682 -2122.46)"/>
          <path id="Path_963" data-name="Path 963" class="cls-1" d="M267.121,2287.234a3.278,3.278,0,1,0,.9,4.541A3.259,3.259,0,0,0,267.121,2287.234Z" transform="translate(-233.529 -2120.406)"/>
          <path id="Path_964" data-name="Path 964" class="cls-1" d="M260.174,2273.347a3.283,3.283,0,1,0,.769,4.573A3.282,3.282,0,0,0,260.174,2273.347Z" transform="translate(-235.069 -2123.454)"/>
          <path id="Path_965" data-name="Path 965" class="cls-1" d="M247.358,2192.526a3.279,3.279,0,1,0-1.527,4.377A3.284,3.284,0,0,0,247.358,2192.526Z" transform="translate(-238.103 -2141.406)"/>
          <path id="Path_966" data-name="Path 966" class="cls-1" d="M245.2,2184.374a3.282,3.282,0,1,0-3.121,3.445A3.287,3.287,0,0,0,245.2,2184.374Z" transform="translate(-238.645 -2143.465)"/>
          <path id="Path_967" data-name="Path 967" class="cls-1" d="M245.523,2174.94a3.281,3.281,0,1,0-3.835,2.615A3.283,3.283,0,0,0,245.523,2174.94Z" transform="translate(-238.564 -2145.698)"/>
          <path id="Path_968" data-name="Path 968" class="cls-1" d="M248.422,2166.558a3.285,3.285,0,1,0-4.49,1.169A3.289,3.289,0,0,0,248.422,2166.558Z" transform="translate(-237.844 -2147.762)"/>
          <path id="Path_969" data-name="Path 969" class="cls-1" d="M252.648,2198.741a3.278,3.278,0,1,0,.225,4.623A3.272,3.272,0,0,0,252.648,2198.741Z" transform="translate(-236.78 -2139.829)"/>
          <g id="Group_122" data-name="Group 122" transform="translate(6.297)">
            <path id="Path_970" data-name="Path 970" class="cls-1" d="M292.87,2305.259l-18.718-13.2a3.461,3.461,0,0,1-.534-4.869l12.518-14.651a6.967,6.967,0,0,0-.462-9.832L270,2248.435a3.475,3.475,0,0,1-.232-4.9l14.3-15.665a6.943,6.943,0,0,0-.451-9.821l-20.759-18.966c-2.83-2.594-2.768-6.786-.446-9.82l21.6-28.848c2.123-2.789,1.989-6.038-.379-8.2-1.183-1.066-3.516-2.327-7.777-1.866-20.374,2.195-34.054,20.052-31.8,40.719,1.138,10.385,4.838,14.107,6.869,15.962L266.55,2221.3a3.464,3.464,0,0,1,.225,4.9l-14.285,15.663a6.948,6.948,0,0,0,.456,9.821l15.669,14.291a3.454,3.454,0,0,1,.225,4.888l-12.579,15.768a6.954,6.954,0,0,0,1.086,9.769l18.752,13.38a3.477,3.477,0,0,1,.594,4.869l-8.083,12.077a6.952,6.952,0,0,0,11.3,8.1l14.141-19.806A6.939,6.939,0,0,0,292.87,2305.259ZM266.5,2159.348a2.794,2.794,0,1,1,.189,3.948A2.812,2.812,0,0,1,266.5,2159.348Z" transform="translate(-243.812 -2150.25)"/>
            <path id="Path_971" data-name="Path 971" class="cls-1" d="M336.734,2150.348c-4.26-.461-6.593.8-7.777,1.866-2.368,2.164-2.5,5.413-.379,8.2l21.611,28.848c2.317,3.033,2.378,7.226-.451,9.82l-20.76,18.966a6.943,6.943,0,0,0-.451,9.821l14.3,15.665a3.475,3.475,0,0,1-.23,4.9L326.918,2262.7a6.969,6.969,0,0,0-.462,9.832l12.528,14.651a3.466,3.466,0,0,1-.544,4.869l-18.719,13.2a6.948,6.948,0,0,0-1.185,9.759l14.138,19.806a6.956,6.956,0,0,0,11.312-8.1L335.9,2314.65a3.478,3.478,0,0,1,.594-4.869l18.76-13.38a6.958,6.958,0,0,0,1.088-9.769l-12.585-15.768a3.45,3.45,0,0,1,.221-4.888l15.674-14.291a6.953,6.953,0,0,0,.457-9.821L345.816,2226.2a3.474,3.474,0,0,1,.225-4.9l15.629-14.271c2.034-1.855,5.729-5.577,6.868-15.962C370.789,2170.4,357.113,2152.542,336.734,2150.348Zm9.17,12.948a2.794,2.794,0,1,1,.183-3.948A2.8,2.8,0,0,1,345.9,2163.3Z" transform="translate(-227.79 -2150.25)"/>
          </g>
        </g>
        <g id="Group_124" data-name="Group 124" transform="translate(178.032 53.068)">
          <path id="Path_972" data-name="Path 972" class="cls-2" d="M770.067,2236.09h31.744v-12.341H770.067v-17.726h32.641v-12.168h-46.1v72.837h47.168V2254.36H770.067Zm54.431-37.2H810.99v67.8h47.475v-11.555H824.5Zm95.754,28.848a15.3,15.3,0,0,0,7.488-14.138c0-6.171-2.1-11.235-6.3-14.71-4.2-3.506-9.933-5.1-17.166-5.1h-22.22v72.9h26.034c7.484,0,13.625-1.827,18.278-5.538a18.381,18.381,0,0,0,7.008-15.131,18.622,18.622,0,0,0-4.551-12.527,21.829,21.829,0,0,0-8.571-5.76m-24.889-21.622h7.873c4.14,0,6.853.738,8.324,1.949a5.772,5.772,0,0,1,1.69,2.377,11.285,11.285,0,0,1,.574,3.793c0,3.364-1,5.454-3.029,6.992-1.943,1.466-5.4,2.389-10.35,2.389h-5.083Zm21.322,45.947c-1.742,1.333-4.962,2.245-9.651,2.165H895.362v-18.217H905.4c5.26,0,8.909.892,10.919,2.378,1.989,1.5,3.035,3.516,3.035,6.939,0,3.362-.892,5.371-2.665,6.735m122.732-25.085h0l-1.446-.789a45.5,45.5,0,0,1-8.5-6.018,9.921,9.921,0,0,1-1.877-2.357,2.964,2.964,0,0,1-.563-1.62,4.543,4.543,0,0,1,2.152-3.938,10.46,10.46,0,0,1,6.309-1.741,18.226,18.226,0,0,1,6.864,1.322,34.986,34.986,0,0,1,7.714,4.644l2.723,2.019v-14.505l-.821-.5a40.448,40.448,0,0,0-8.006-3.352,31.523,31.523,0,0,0-8.067-1.129c-6.06,0-11.267,1.7-15.311,5.054a16.7,16.7,0,0,0-6.1,13.153,15.9,15.9,0,0,0,3.219,9.964,29.092,29.092,0,0,0,5.342,4.757c2.445,1.855,5.576,3.866,9.378,6.2,2.385,1.364,4.307,2.635,5.8,3.692a19.009,19.009,0,0,1,3.034,2.521,6.777,6.777,0,0,1,1.539,4.2,5.386,5.386,0,0,1-2.246,4.47c-1.481,1.127-3.721,1.815-6.8,1.815a17.068,17.068,0,0,1-8.068-1.938,33.3,33.3,0,0,1-8.193-6.58l-2.941-3.18v16.834l.728.471a27.638,27.638,0,0,0,8.81,4.767,31.236,31.236,0,0,0,10.268,1.558c6.094,0,11.292-1.691,15.3-5.043a16.48,16.48,0,0,0,6.141-13.04,19.267,19.267,0,0,0-3.285-11.42c-2.24-3.218-6.571-6.518-13.106-10.292m84.774,28.511a32.1,32.1,0,0,0,7.579-21.2,36.437,36.437,0,0,0-2.682-13.84,35.807,35.807,0,0,0-7.982-11.471,35.257,35.257,0,0,0-11.693-7.637,37.816,37.816,0,0,0-14.013-2.656,36.957,36.957,0,0,0-13.855,2.656,36.242,36.242,0,0,0-11.8,7.637,34.834,34.834,0,0,0-7.812,11.338,32.621,32.621,0,0,0-2.835,13.328,34.534,34.534,0,0,0,7.52,22.008,35.133,35.133,0,0,0,19.459,12.364,89.074,89.074,0,0,0,16.879,9.667,39.03,39.03,0,0,0,15.014,3.433h1.327a5.05,5.05,0,0,0,1.1-.11l.539-.083,9.977-8.767-.758-2.1-.55-1.333-1.322.3a34.865,34.865,0,0,1-3.456.531,15.033,15.033,0,0,1-2.742.176,35.761,35.761,0,0,1-8.171-1.066c-1.768-.513-3.794-1.209-5.946-2.042a37.427,37.427,0,0,0,16.233-11.131m-7.417-14.006a22.344,22.344,0,0,1-4.981,7.423l-.082.062a23.111,23.111,0,0,1-7.484,5.186,23.685,23.685,0,0,1-8.826,1.733,22.663,22.663,0,0,1-8.837-1.8,24.169,24.169,0,0,1-7.509-5.115v-.062a21.363,21.363,0,0,1-4.937-7.423,22.019,22.019,0,0,1-1.762-8.836,22.553,22.553,0,0,1,1.762-8.948,21.866,21.866,0,0,1,4.9-7.392,24.493,24.493,0,0,1,7.638-5.086,22.915,22.915,0,0,1,17.571,0,21.54,21.54,0,0,1,7.448,5.035,22.829,22.829,0,0,1,5.1,7.637,21.48,21.48,0,0,1,1.749,8.754,22.323,22.323,0,0,1-1.749,8.836m66.874-.913c-.061,4.329-1.439,7.557-4.546,10.129-3,2.534-7.074,3.969-12.4,3.969a21.023,21.023,0,0,1-8.186-1.559,16.531,16.531,0,0,1-6.175-4.553,8.85,8.85,0,0,1-1.867-3.792,35.606,35.606,0,0,1-.656-8.335v-37.479h-12.532v37.85a45.242,45.242,0,0,0,1.133,11.756,19.425,19.425,0,0,0,3.833,7.269,27.959,27.959,0,0,0,10.585,8.13,34.41,34.41,0,0,0,13.866,2.738c8.529,0,15.7-2.38,21.165-7.137a23.263,23.263,0,0,0,8.241-18.709v-41.9h-12.461ZM1217.624,2255v-16.618h31.945v-11.615h-31.945V2210.8h32.944v-11.562h-46.45v67.31h47.512V2255Zm-218.2-46.542a36.511,36.511,0,0,0-11.759-7.475,39.613,39.613,0,0,0-14.106-2.583,38.471,38.471,0,0,0-13.85,2.583,34.931,34.931,0,0,0-11.83,7.475,33.811,33.811,0,0,0-8,11.091,32.734,32.734,0,0,0-2.795,13.091,33.326,33.326,0,0,0,10.8,24.8,35.956,35.956,0,0,0,11.759,7.422,39.5,39.5,0,0,0,27.945.062,37.51,37.51,0,0,0,11.913-7.484,34.832,34.832,0,0,0,7.915-11.061,32.707,32.707,0,0,0,2.726-13.182,33.817,33.817,0,0,0-2.654-13.43,34.231,34.231,0,0,0-8.058-11.307m-4.351,33.069a22.65,22.65,0,0,1-12.471,12.2,25,25,0,0,1-18.017,0,23.806,23.806,0,0,1-7.458-4.891,21.3,21.3,0,0,1-4.993-7.311,20.99,20.99,0,0,1-1.752-8.609,21.932,21.932,0,0,1,1.752-8.683,22.162,22.162,0,0,1,4.993-7.218,26.309,26.309,0,0,1,7.667-4.973,23.9,23.9,0,0,1,17.659,0,22.42,22.42,0,0,1,7.518,4.973,22.69,22.69,0,0,1,5.167,7.422,21.858,21.858,0,0,1,1.682,8.479,21.247,21.247,0,0,1-1.748,8.609" transform="translate(-303.372 -2193.793)"/>
          <path id="Path_973" data-name="Path 973" class="cls-2" d="M404.183,2262.385c6.018,0,10.8-1.9,14.318-5.677,3.47-3.784,5.305-8.9,5.305-15.286V2213.61H419.8v28.037c0,5.106-1.4,9.166-4.172,12.19a15.139,15.139,0,0,1-11.442,4.562c-4.756,0-8.548-1.558-11.353-4.562q-4.3-4.536-4.285-12.19V2213.61h-3.823v27.813c0,6.448,1.727,11.574,5.243,15.286,3.506,3.772,8.274,5.677,14.218,5.677m38.044-41.539,30.821,37.192h3.086V2216h-3.316v36.631L442.362,2216h-3.5v42.041h3.364Zm49.181,37.808h3.578v-42.092h-3.578Zm33.836.707,17.657-42.8h-3.577l-14.368,35.316-14.2-35.316h-3.732l17.714,42.8Zm50.713-3.578H556.276v-17.109H574.83v-2.7H556.276V2219.3h19.2v-2.736H552.9v42.092h23.055Zm18.156-17.366H597.5a23.566,23.566,0,0,1,5.361.494,6.13,6.13,0,0,1,2.952,1.6,32.46,32.46,0,0,1,2.225,2.808c.912,1.271,2.1,2.953,3.363,4.993l6.653,10.344h3.772l-11.482-17.7a12.752,12.752,0,0,0-1.6-2.04,16.2,16.2,0,0,0-2.106-1.527,11.679,11.679,0,0,0,5.955-3.866,10.038,10.038,0,0,0,1.963-6.4c0-3.4-1.129-6.007-3.5-7.823-2.394-1.813-5.746-2.736-10.149-2.736H590.8v42.092h3.313Zm0-18.964h6.992c3.147,0,5.531.614,7.278,2.01a6.814,6.814,0,0,1,2.517,5.659,8.291,8.291,0,0,1-1.1,4.509,7.125,7.125,0,0,1-3.444,2.841,12.866,12.866,0,0,1-3.075.87c-1.292.113-3.455.185-6.576.185h-2.589Zm59.654,28.272a13.058,13.058,0,0,0-.658-4,11.337,11.337,0,0,0-2.058-3.342c-1.319-1.476-3.932-3-7.7-4.562-.421-.2-.7-.3-.9-.431-3.454-1.466-5.667-2.715-6.662-3.906a6.323,6.323,0,0,1-1.548-4.48,7.507,7.507,0,0,1,2.378-5.689,8.829,8.829,0,0,1,6.151-2.235,13.876,13.876,0,0,1,4.632.831,21.38,21.38,0,0,1,4.983,2.675v-3.782a24.609,24.609,0,0,0-4.7-2.1,18.589,18.589,0,0,0-4.757-.707,12.157,12.157,0,0,0-8.692,3.157,10.432,10.432,0,0,0-3.364,7.966,9.578,9.578,0,0,0,2.189,6.55c1.46,1.671,4.188,3.353,8.186,5,3.855,1.64,6.3,3.035,7.371,4.224a6.766,6.766,0,0,1,1.578,4.706,7.966,7.966,0,0,1-2.373,6.151,8.962,8.962,0,0,1-6.433,2.245,13.3,13.3,0,0,1-5.054-1.127,23.957,23.957,0,0,1-5.6-3.425v4.05a22.326,22.326,0,0,0,5.33,2.809,16.469,16.469,0,0,0,5.388.912,12.248,12.248,0,0,0,8.831-3.219,10.821,10.821,0,0,0,3.477-8.274m16.96-31.163h-3.542v42.1h3.542Zm38.048,41.108a17.662,17.662,0,0,0,6.1-2.942,20.165,20.165,0,0,0,6.1-7.411,23.1,23.1,0,0,0,0-19.479,20.357,20.357,0,0,0-6.1-7.422,18.211,18.211,0,0,0-6.047-2.931,33.256,33.256,0,0,0-8.1-.923H686.3v42.092h14.434a29.543,29.543,0,0,0,8.047-.984m-18.9-2.01v-36.1h10.016a33.718,33.718,0,0,1,7.053.718,15.229,15.229,0,0,1,5.125,2.154,16.452,16.452,0,0,1,5.484,6.386,19.712,19.712,0,0,1,1.938,8.826,20.2,20.2,0,0,1-1.938,8.837,16.806,16.806,0,0,1-5.484,6.377,15.476,15.476,0,0,1-5.125,2.173,34.989,34.989,0,0,1-7.053.625Zm56.864-37.49-17.294,40.483h3.363l5.9-14h17.417l5.9,14h3.363l-17.305-40.483Zm-6.941,23.742,7.664-18.195,7.561,18.195Zm60.188,15.757a16.7,16.7,0,0,0,6.089-2.942,19.814,19.814,0,0,0,6.095-7.411,22.763,22.763,0,0,0,0-19.479,20,20,0,0,0-6.095-7.422,17.2,17.2,0,0,0-6.029-2.931,33.494,33.494,0,0,0-8.113-.923H777.575v42.092h14.357a29.464,29.464,0,0,0,8.053-.984m-18.925-2.01v-36.1H791.1a33.823,33.823,0,0,1,7.058.718,15.081,15.081,0,0,1,5.115,2.154,16.131,16.131,0,0,1,5.465,6.386,19.2,19.2,0,0,1,1.959,8.826,19.668,19.668,0,0,1-1.959,8.837,16.47,16.47,0,0,1-5.465,6.377,15.323,15.323,0,0,1-5.115,2.173,35.093,35.093,0,0,1-7.058.625Z" transform="translate(-384.722 -2189.458)"/>
        </g>
        <rect id="Rectangle_28" data-name="Rectangle 28" class="cls-2" width="13.512" height="101.931" transform="translate(1176.695 43.258)"/>
      </g>
      <path id="Path_1039" data-name="Path 1039" class="cls-3" d="M7.3-14.022v-11.89h6.847c5.7,0,7.134,2.911,7.134,5.781,0,3.116-1.435,6.109-7.134,6.109Zm7.052,2.788c5,0,10.086-2.255,10.086-8.9S19.352-28.7,14.35-28.7H4.715c-.492,0-.656.082-.656.656V-.656c0,.492.123.656.656.656H6.642C7.175,0,7.3-.164,7.3-.656V-11.234Zm24.723-7.052c.492,0,.615-.123.738-.615l.246-1.845c.082-.41,0-.574-.574-.574-5.822,0-7.708,3.485-8.528,5.207l-.492-4.1c-.2-.492-.369-.656-.7-.656H28.741c-.451,0-.615.164-.615.656V-.656c0,.492.164.656.615.656h1.845c.451,0,.615-.164.615-.656V-10.742C31.2-14.555,33.743-18.286,39.073-18.286Zm2.337,7.872A10.814,10.814,0,0,0,52.193.451,10.814,10.814,0,0,0,62.976-10.414,10.849,10.849,0,0,0,52.193-21.32,10.849,10.849,0,0,0,41.41-10.414ZM52.193-2.3a7.9,7.9,0,0,1-7.708-8.118,7.9,7.9,0,0,1,7.708-8.118,7.907,7.907,0,0,1,7.749,8.118A7.907,7.907,0,0,1,52.193-2.3Zm30.75,1.148c0,4.92-1.64,8.528-6.929,8.528a18.007,18.007,0,0,1-6.929-1.394c-.451-.2-.574-.123-.7.369l-.41,1.558c-.123.451-.041.574.369.738a21.3,21.3,0,0,0,8.118,1.476c6.355,0,9.553-3.731,9.553-11.6V-20.213c0-.492-.164-.656-.615-.656H84.46c-.369,0-.533.164-.7.656L83.435-16.4c-1.025-1.558-3.239-4.92-8.077-4.92-5.74,0-9.471,4.961-9.471,10.906,0,5.986,3.69,10.865,9.471,10.865a8.317,8.317,0,0,0,7.585-4.8Zm-6.97-17.425c4.264,0,7.011,4.059,7.011,8.118,0,4.1-2.747,8.118-7.011,8.118-4.305,0-7.011-3.895-7.011-8.077C68.962-14.965,71.668-18.573,75.973-18.573Zm27.88.287c.492,0,.615-.123.738-.615l.246-1.845c.082-.41,0-.574-.574-.574-5.822,0-7.708,3.485-8.528,5.207l-.492-4.1c-.2-.492-.369-.656-.7-.656H93.521c-.451,0-.615.164-.615.656V-.656c0,.492.164.656.615.656h1.845c.451,0,.615-.164.615-.656V-10.742C95.981-14.555,98.523-18.286,103.853-18.286Zm5.289.328a33.525,33.525,0,0,1,6.314-.656c4.305,0,5.822,1.886,5.822,7.052A18.079,18.079,0,0,0,114.636-13c-5.043,0-8.405,2.173-8.405,6.642,0,4.387,3.362,6.806,7.3,6.806a10.114,10.114,0,0,0,8.241-3.9l.164,2.788c.123.492.287.656.615.656h1.189c.451,0,.615-.164.615-.656V-11.48c0-6.765-1.886-9.84-8.774-9.84a38.75,38.75,0,0,0-7.052.738c-.492.164-.615.369-.492.82l.328,1.23C108.486-18.04,108.609-17.835,109.142-17.958Zm6.109,7.257a14.511,14.511,0,0,1,6.027,1.476v3.4a8.856,8.856,0,0,1-6.806,3.854c-3.321,0-5.166-1.845-5.166-4.387C109.306-9.143,111.356-10.7,115.251-10.7Zm31.078-5.576A7.515,7.515,0,0,0,139.4-21.32c-3.895,0-5.781,3.2-6.519,4.92l-.328-3.813c-.205-.492-.369-.656-.7-.656h-1.025c-.451,0-.615.164-.615.656V-.656c0,.492.164.656.615.656h1.845c.451,0,.615-.164.615-.656V-10.988c0-4.346,2.05-7.544,5.371-7.544,3.362,0,5.371,2.952,5.371,7.257V-.656c0,.492.205.656.615.656h1.845c.492,0,.615-.164.615-.656V-11.193c0-4.51,2.337-7.339,5.371-7.339,2.911,0,5.371,2.378,5.371,7.257V-.656c0,.492.2.656.615.656h1.845c.492,0,.615-.164.615-.656V-12.095c0-6.56-3.69-9.225-7.708-9.225C149.322-21.32,147.149-18.122,146.329-16.277Zm21.648-1.681a33.525,33.525,0,0,1,6.314-.656c4.305,0,5.822,1.886,5.822,7.052A18.079,18.079,0,0,0,173.471-13c-5.043,0-8.4,2.173-8.4,6.642,0,4.387,3.362,6.806,7.3,6.806a10.114,10.114,0,0,0,8.241-3.9l.164,2.788c.123.492.287.656.615.656h1.189c.451,0,.615-.164.615-.656V-11.48c0-6.765-1.886-9.84-8.774-9.84a38.75,38.75,0,0,0-7.052.738c-.492.164-.615.369-.492.82l.328,1.23C167.321-18.04,167.444-17.835,167.977-17.958Zm6.109,7.257a14.511,14.511,0,0,1,6.027,1.476v3.4a8.856,8.856,0,0,1-6.806,3.854c-3.321,0-5.166-1.845-5.166-4.387C168.141-9.143,170.191-10.7,174.086-10.7Zm39.36-5.822a8.317,8.317,0,0,0-7.585-4.8c-5.74,0-9.471,4.879-9.471,10.865,0,5.945,3.731,10.906,9.471,10.906,4.838,0,7.052-3.362,8.077-4.92l.328,3.813c.164.492.328.656.7.656h.943c.451,0,.615-.164.615-.656V-29.6c0-.492-.164-.656-.615-.656h-1.845c-.451,0-.615.164-.615.656ZM206.476-2.3c-4.305,0-7.011-3.608-7.011-8.159,0-4.223,2.706-8.077,7.011-8.077,4.264,0,7.011,4.018,7.011,8.118C213.487-6.355,210.74-2.3,206.476-2.3Zm33.292-1.968c-.328-.369-.492-.287-.943-.041a11.264,11.264,0,0,1-6.437,2.05,7.968,7.968,0,0,1-7.913-7.093h17.1c.533,0,.615-.164.615-.656,0-6.15-3.731-11.316-10.127-11.316a10.814,10.814,0,0,0-10.742,10.906A10.824,10.824,0,0,0,232.265.451c3.034,0,6.355-.984,8.282-2.87.287-.287.287-.533,0-.9ZM224.557-11.48a7.59,7.59,0,0,1,7.462-7.257c4.182,0,6.847,3.567,7.011,7.257Zm42.394-12.3,6.027,13.366h-12.1L266.91-23.78Zm.533-5.043c-.164-.328-.287-.574-.492-.574h-.123c-.246,0-.328.246-.533.574L252.97-.656c-.164.369,0,.656.369.656h2.378c.451,0,.615-.164.861-.656l3.2-6.97h14.309l3.2,6.97c.246.492.41.656.82.656h2.378c.41,0,.574-.287.41-.656Zm27.962,10.537c.492,0,.615-.123.738-.615l.246-1.845c.082-.41,0-.574-.574-.574-5.822,0-7.708,3.485-8.528,5.207l-.492-4.1c-.2-.492-.369-.656-.7-.656h-1.025c-.451,0-.615.164-.615.656V-.656c0,.492.164.656.615.656h1.845c.451,0,.615-.164.615-.656V-10.742C287.574-14.555,290.116-18.286,295.446-18.286ZM312.3-.533c.369-.2.41-.369.287-.779l-.246-1.312c-.164-.574-.287-.615-.82-.328a5.21,5.21,0,0,1-2.829.615c-3.28,0-4.715-1.763-4.715-6.56v-9.43H311.4c.492,0,.615-.164.615-.656v-1.23c0-.533-.164-.656-.615-.656h-7.421v-4.223c0-.492-.123-.656-.615-.656h-1.8c-.492,0-.615.164-.615.656v4.223h-2.009c-.492,0-.656.123-.656.656v1.23c0,.492.164.656.656.656h2.009v9.676c0,5.7,2.009,9.1,7.421,9.1A7.67,7.67,0,0,0,312.3-.533ZM333.74-4.264c-.328-.369-.492-.287-.943-.041a11.264,11.264,0,0,1-6.437,2.05,7.968,7.968,0,0,1-7.913-7.093h17.1c.533,0,.615-.164.615-.656,0-6.15-3.731-11.316-10.127-11.316A10.814,10.814,0,0,0,315.29-10.414,10.824,10.824,0,0,0,326.237.451c3.034,0,6.355-.984,8.282-2.87.287-.287.287-.533,0-.9ZM318.529-11.48a7.59,7.59,0,0,1,7.462-7.257c4.182,0,6.847,3.567,7.011,7.257ZM350.96-28.7c-.492,0-.656.164-.656.656V-.656c0,.492.205.656.656.656h10.045a14.042,14.042,0,0,0,14.268-14.35A14.042,14.042,0,0,0,361.005-28.7Zm10,2.788c6.683,0,11.029,5.371,11.029,11.562,0,6.15-4.346,11.562-11.029,11.562h-7.421V-25.912Zm30.34,7.626c.492,0,.615-.123.738-.615l.246-1.845c.082-.41,0-.574-.574-.574-5.822,0-7.708,3.485-8.528,5.207l-.492-4.1c-.2-.492-.369-.656-.7-.656h-1.025c-.451,0-.615.164-.615.656V-.656c0,.492.164.656.615.656h1.845c.451,0,.615-.164.615-.656V-10.742C383.432-14.555,385.974-18.286,391.3-18.286Zm5.289.328a33.525,33.525,0,0,1,6.314-.656c4.3,0,5.822,1.886,5.822,7.052A18.079,18.079,0,0,0,402.087-13c-5.043,0-8.4,2.173-8.4,6.642,0,4.387,3.362,6.806,7.3,6.806a10.114,10.114,0,0,0,8.241-3.9l.164,2.788c.123.492.287.656.615.656h1.189c.451,0,.615-.164.615-.656V-11.48c0-6.765-1.886-9.84-8.774-9.84a38.75,38.75,0,0,0-7.052.738c-.492.164-.615.369-.492.82l.328,1.23C395.937-18.04,396.06-17.835,396.593-17.958ZM402.7-10.7a14.511,14.511,0,0,1,6.027,1.476v3.4a8.856,8.856,0,0,1-6.806,3.854c-3.321,0-5.166-1.845-5.166-4.387C396.757-9.143,398.807-10.7,402.7-10.7Zm31.078-5.576a7.515,7.515,0,0,0-6.929-5.043c-3.9,0-5.781,3.2-6.519,4.92L420-20.213c-.2-.492-.369-.656-.7-.656h-1.025c-.451,0-.615.164-.615.656V-.656c0,.492.164.656.615.656h1.845c.451,0,.615-.164.615-.656V-10.988c0-4.346,2.05-7.544,5.371-7.544,3.362,0,5.371,2.952,5.371,7.257V-.656c0,.492.2.656.615.656h1.845c.492,0,.615-.164.615-.656V-11.193c0-4.51,2.337-7.339,5.371-7.339,2.911,0,5.371,2.378,5.371,7.257V-.656c0,.492.205.656.615.656h1.845c.492,0,.615-.164.615-.656V-12.095c0-6.56-3.69-9.225-7.708-9.225C436.773-21.32,434.6-18.122,433.78-16.277Zm21.4-1.681a33.525,33.525,0,0,1,6.314-.656c4.3,0,5.822,1.886,5.822,7.052A18.079,18.079,0,0,0,460.676-13c-5.043,0-8.4,2.173-8.4,6.642,0,4.387,3.362,6.806,7.3,6.806a10.114,10.114,0,0,0,8.241-3.9l.164,2.788c.123.492.287.656.615.656h1.189c.451,0,.615-.164.615-.656V-11.48c0-6.765-1.886-9.84-8.774-9.84a38.75,38.75,0,0,0-7.052.738c-.492.164-.615.369-.492.82l.328,1.23C454.526-18.04,454.649-17.835,455.182-17.958Zm6.109,7.257a14.511,14.511,0,0,1,6.027,1.476v3.4a8.856,8.856,0,0,1-6.806,3.854c-3.321,0-5.166-1.845-5.166-4.387C455.346-9.143,457.4-10.7,461.291-10.7Zm4.633-16.851a.529.529,0,0,0,.123-.82l-.779-1.23c-.246-.369-.533-.492-.82-.164l-5.125,5.412c-.451.451-.287.7.123.7h1.64a1.639,1.639,0,0,0,1.066-.41ZM488.187-.533c.369-.2.41-.369.287-.779l-.246-1.312c-.164-.574-.287-.615-.82-.328a5.21,5.21,0,0,1-2.829.615c-3.28,0-4.715-1.763-4.715-6.56v-9.43h7.421c.492,0,.615-.164.615-.656v-1.23c0-.533-.164-.656-.615-.656h-7.421v-4.223c0-.492-.123-.656-.615-.656h-1.8c-.492,0-.615.164-.615.656v4.223h-2.009c-.492,0-.656.123-.656.656v1.23c0,.492.164.656.656.656h2.009v9.676c0,5.7,2.009,9.1,7.421,9.1A7.67,7.67,0,0,0,488.187-.533Zm5.781-.123c0,.492.123.656.615.656h1.8c.492,0,.656-.164.656-.656V-20.213c0-.492-.123-.656-.656-.656h-1.8c-.492,0-.615.164-.615.656Zm-.656-27.06a2.117,2.117,0,0,0,2.132,2.132,2.152,2.152,0,0,0,2.173-2.132,2.152,2.152,0,0,0-2.173-2.132A2.117,2.117,0,0,0,493.312-27.716ZM513.566-2.337a7.845,7.845,0,0,1-7.749-8.077,7.907,7.907,0,0,1,7.749-8.118,8.087,8.087,0,0,1,5.7,2.3c.328.328.574.246.861-.123l.984-1.025c.328-.369.328-.574,0-.861a10.5,10.5,0,0,0-7.585-3.075,10.814,10.814,0,0,0-10.742,10.906A10.779,10.779,0,0,0,513.525.451a10.5,10.5,0,0,0,7.585-3.075c.328-.287.328-.492,0-.861l-.984-1.025c-.287-.369-.533-.451-.861-.123A8.087,8.087,0,0,1,513.566-2.337Zm10.373-8.077A10.814,10.814,0,0,0,534.722.451a10.814,10.814,0,0,0,10.783-10.865A10.849,10.849,0,0,0,534.722-21.32,10.849,10.849,0,0,0,523.939-10.414ZM534.722-2.3a7.9,7.9,0,0,1-7.708-8.118,7.9,7.9,0,0,1,7.708-8.118,7.907,7.907,0,0,1,7.749,8.118A7.907,7.907,0,0,1,534.722-2.3Z" transform="translate(1237.499 109.166)"/>
    </g>
  </g>
  <rect id="Rectangle_88" data-name="Rectangle 88" class="cls-4" width="1894" height="288.844"/>
  <g id="Group_2236" data-name="Group 2236" transform="translate(170 34)">
    <g id="Group_35" data-name="Group 35" transform="translate(1118.196 146.684)">
      <path id="Path_359" data-name="Path 359" class="cls-3" d="M1126.738,162.831h-1.76l-6.781-15.55h2l5.657,13.042,5.665-13.042h2.005Z" transform="translate(-1118.196 -144.957)"/>
      <path id="Path_360" data-name="Path 360" class="cls-3" d="M1125.158,148.314a1.188,1.188,0,0,1-1.231,1.187,1.176,1.176,0,1,1,0-2.352A1.2,1.2,0,0,1,1125.158,148.314Zm-2.114,14.9V151.783h1.795V163.21Z" transform="translate(-1105.081 -145.336)"/>
      <path id="Path_361" data-name="Path 361" class="cls-3" d="M1136.132,160.48c0,3.224-2.678,5.306-6.015,5.306-2.861,0-4.742-1.117-5.641-2.955l1.526-1.164a4.1,4.1,0,0,0,4.115,2.4,3.939,3.939,0,0,0,4.247-3.823V158.07a5.411,5.411,0,0,1-4.551,2.219,6.019,6.019,0,0,1,0-12.022,5.465,5.465,0,0,1,4.551,2.184v-1.9h1.767Zm-1.767-6.21a4.339,4.339,0,0,0-4.275-4.466,4.452,4.452,0,0,0,0,8.9A4.305,4.305,0,0,0,1134.365,154.27Z" transform="translate(-1101.117 -142.104)"/>
      <path id="Path_362" data-name="Path 362" class="cls-3" d="M1130.636,148.314a1.2,1.2,0,0,1-1.234,1.187,1.176,1.176,0,1,1,0-2.352A1.207,1.207,0,0,1,1130.636,148.314Zm-2.118,14.9V151.783h1.791V163.21Z" transform="translate(-1089.244 -145.336)"/>
      <path id="Path_363" data-name="Path 363" class="cls-3" d="M1131.557,161.638a1.472,1.472,0,0,0,1.612,1.522,3.3,3.3,0,0,0,1.378-.35l.366,1.476a3.761,3.761,0,0,1-2.017.584,2.952,2.952,0,0,1-3.119-3.138V146.684h1.779Z" transform="translate(-1084.686 -146.684)"/>
      <path id="Path_364" data-name="Path 364" class="cls-3" d="M1141.6,152.557v7.42h-1.729v-1.725a5.121,5.121,0,0,1-4.294,2.036c-2.5,0-4.15-1.444-4.15-3.5,0-2.114,1.6-3.59,4.594-3.59h3.85v-.526a2.7,2.7,0,0,0-2.916-2.873,2.94,2.94,0,0,0-3.208,2.32l-1.689-.382c.362-2.067,2.3-3.477,4.8-3.477C1139.711,148.267,1141.6,149.789,1141.6,152.557Zm-1.729,2.632v-.584h-3.865c-1.889,0-2.889.9-2.889,2.165,0,1.2,1.074,2.059,2.714,2.059A3.812,3.812,0,0,0,1139.875,155.189Z" transform="translate(-1079.904 -142.104)"/>
      <path id="Path_365" data-name="Path 365" class="cls-3" d="M1146.709,164.558h-1.764V162.65a5.407,5.407,0,0,1-4.559,2.219,6.019,6.019,0,0,1,0-12.022,5.461,5.461,0,0,1,4.559,2.184v-8.347h1.764Zm-1.764-5.707a4.334,4.334,0,0,0-4.271-4.466,4.452,4.452,0,0,0,0,8.9A4.3,4.3,0,0,0,1144.945,158.85Z" transform="translate(-1070.507 -146.684)"/>
      <path id="Path_366" data-name="Path 366" class="cls-3" d="M1148.723,152.557v7.42H1147v-1.725a5.133,5.133,0,0,1-4.287,2.036c-2.511,0-4.169-1.444-4.169-3.5,0-2.114,1.6-3.59,4.609-3.59H1147v-.526a2.7,2.7,0,0,0-2.928-2.873,2.909,2.909,0,0,0-3.185,2.32l-1.705-.382c.366-2.067,2.3-3.477,4.8-3.477C1146.846,148.267,1148.723,149.789,1148.723,152.557ZM1147,155.189v-.584h-3.87c-1.892,0-2.885.9-2.885,2.165,0,1.2,1.071,2.059,2.717,2.059A3.814,3.814,0,0,0,1147,155.189Z" transform="translate(-1059.319 -142.104)"/>
      <path id="Path_367" data-name="Path 367" class="cls-3" d="M1160.329,162.831h-1.756v-11.4l-6.011,11.4h-1.18l-6.046-11.4v11.4h-1.771v-15.55h1.623l6.771,12.82,6.766-12.82h1.6Z" transform="translate(-1044.794 -144.957)"/>
      <path id="Path_368" data-name="Path 368" class="cls-3" d="M1151.319,148.314a1.187,1.187,0,0,1-1.23,1.187,1.176,1.176,0,1,1,0-2.352A1.2,1.2,0,0,1,1151.319,148.314Zm-2.1,14.9V151.783h1.771V163.21Z" transform="translate(-1029.402 -145.336)"/>
      <path id="Path_369" data-name="Path 369" class="cls-3" d="M1161.194,153.145v6.833h-1.771v-6.521c0-2.106-1.261-3.566-3.177-3.566-2.4,0-3.963,1.612-3.963,4.6v5.489h-1.756V148.551h1.756v1.9a4.88,4.88,0,0,1,4.321-2.184C1159.36,148.267,1161.194,150.229,1161.194,153.145Z" transform="translate(-1024.654 -142.104)"/>
      <path id="Path_370" data-name="Path 370" class="cls-3" d="M1165.521,154.632h-9.827a4.161,4.161,0,0,0,4.076,4.107,3.91,3.91,0,0,0,3.893-2.472l1.573.382a5.476,5.476,0,0,1-5.466,3.64,6.014,6.014,0,0,1,.1-12.022,5.6,5.6,0,0,1,5.649,5.7Zm-9.749-1.335h7.95a3.794,3.794,0,0,0-3.851-3.492A4.1,4.1,0,0,0,1155.772,153.3Z" transform="translate(-1014.67 -142.104)"/>
      <path id="Path_371" data-name="Path 371" class="cls-3" d="M1169.466,164.558h-1.78V162.65a5.349,5.349,0,0,1-4.528,2.219,6.019,6.019,0,0,1,0-12.022,5.4,5.4,0,0,1,4.528,2.184v-8.347h1.78Zm-1.78-5.707a4.322,4.322,0,0,0-4.255-4.466,4.451,4.451,0,0,0,0,8.9A4.288,4.288,0,0,0,1167.687,158.85Z" transform="translate(-1004.611 -146.684)"/>
      <path id="Path_372" data-name="Path 372" class="cls-3" d="M1172.225,159.751h-1.791v-1.845a4.982,4.982,0,0,1-4.306,2.157c-2.764,0-4.613-1.974-4.613-4.886V148.34h1.8v6.525c0,2.126,1.246,3.527,3.15,3.527,2.4,0,3.971-1.581,3.971-4.563v-5.49h1.791Z" transform="translate(-992.864 -141.893)"/>
      <path id="Path_373" data-name="Path 373" class="cls-3" d="M1174.8,156.065l1.631.432a5.541,5.541,0,0,1-5.427,3.792,6.011,6.011,0,0,1,0-12.022,5.545,5.545,0,0,1,5.435,3.788l-1.7.518A3.774,3.774,0,0,0,1171,149.89a4.382,4.382,0,0,0,0,8.76A3.906,3.906,0,0,0,1174.8,156.065Z" transform="translate(-982.668 -142.104)"/>
      <path id="Path_374" data-name="Path 374" class="cls-3" d="M1178.624,152.557v7.42h-1.693v-1.725a5.23,5.23,0,0,1-4.306,2.036c-2.511,0-4.146-1.444-4.146-3.5,0-2.114,1.577-3.59,4.59-3.59h3.863v-.526a2.721,2.721,0,0,0-2.924-2.873c-1.755,0-2.982.884-3.212,2.32l-1.7-.382c.378-2.067,2.3-3.477,4.8-3.477C1176.759,148.267,1178.624,149.789,1178.624,152.557Zm-1.693,2.632v-.584h-3.889c-1.893,0-2.885.9-2.885,2.165,0,1.2,1.051,2.059,2.705,2.059A3.826,3.826,0,0,0,1176.931,155.189Z" transform="translate(-972.719 -142.104)"/>
      <path id="Path_375" data-name="Path 375" class="cls-3" d="M1181.469,156.065l1.627.432a5.478,5.478,0,0,1-5.4,3.792,6.011,6.011,0,0,1,0-12.022,5.57,5.57,0,0,1,5.439,3.788l-1.7.518a3.787,3.787,0,0,0-3.738-2.682,4.382,4.382,0,0,0,0,8.76A3.862,3.862,0,0,0,1181.469,156.065Z" transform="translate(-963.336 -142.104)"/>
      <path id="Path_376" data-name="Path 376" class="cls-3" d="M1177.808,148.314a1.21,1.21,0,1,1-1.219-1.164A1.168,1.168,0,0,1,1177.808,148.314Zm-2.11,14.9V151.783h1.8V163.21Z" transform="translate(-952.717 -145.336)"/>
      <path id="Path_377" data-name="Path 377" class="cls-3" d="M1188.872,157.85a6.056,6.056,0,1,1-6.03-5.972A5.889,5.889,0,0,1,1188.872,157.85Zm-1.717,0a4.343,4.343,0,1,0-8.686,0,4.344,4.344,0,1,0,8.686,0Zm-4.971-7.561,1.869-3.263h2.067l-2.371,3.263Z" transform="translate(-948.753 -145.692)"/>
      <path id="Path_378" data-name="Path 378" class="cls-3" d="M1191.329,153.145v6.833h-1.752v-6.521c0-2.106-1.3-3.566-3.185-3.566-2.41,0-3.971,1.612-3.971,4.6v5.489h-1.768V148.551h1.768v1.9a4.876,4.876,0,0,1,4.3-2.184C1189.483,148.267,1191.329,150.229,1191.329,153.145Z" transform="translate(-937.489 -142.104)"/>
    </g>
  </g>
</svg>
