<svg id="facultad-logo-ueb-horizontal-a-dos-lineas" xmlns="http://www.w3.org/2000/svg" width="2501" height="897.873" viewBox="0 0 2501 897.873">
  <defs>
    <style>
      .cls-1 {
        fill: #ff893b;
      }

      .cls-2 {
        fill: #394024;
      }

      .cls-3 {
        fill: #33371d;
      }

      .cls-4 {
        fill: none;
      }
    </style>
  </defs>
  <g id="Capa_1" data-name="Capa 1" transform="translate(92.871 100.999)">
    <g id="Group_111" data-name="Group 111" transform="translate(0 0)">
      <g id="Group_110" data-name="Group 110">
        <path id="Path_835" data-name="Path 835" class="cls-1" d="M737.983,475.586c-30.24-73.429-40.9-149.46-40.9-227.875,0-33.816,2.164-67.689,7.8-101.035h28.847c-6.969,31.713-9.131,64.248-9.131,96.628,0,68.072,8.431,140.429,28.137,206.018,19.685-65.589,28.147-137.946,28.147-206.018,0-32.38-2.171-64.915-9.131-96.628H800.6c5.638,33.347,7.79,67.22,7.79,101.035,0,78.414-10.643,154.446-40.894,227.875Z" transform="translate(-602.832 -97.706)"/>
        <path id="Path_836" data-name="Path 836" class="cls-1" d="M764.99,181.622a6.411,6.411,0,1,1-.44,9.071A6.436,6.436,0,0,1,764.99,181.622Z" transform="translate(-511.962 -51.724)"/>
        <path id="Path_837" data-name="Path 837" class="cls-1" d="M764.99,189.986a6.407,6.407,0,1,1-.44,9.062A6.408,6.408,0,0,1,764.99,189.986Z" transform="translate(-511.962 -40.19)"/>
        <path id="Path_838" data-name="Path 838" class="cls-1" d="M770.665,196.512a6.41,6.41,0,1,1-.422,9.052A6.4,6.4,0,0,1,770.665,196.512Z" transform="translate(-504.099 -31.195)"/>
        <path id="Path_839" data-name="Path 839" class="cls-1" d="M763.283,218.3a6.408,6.408,0,1,1-.422,9.052A6.4,6.4,0,0,1,763.283,218.3Z" transform="translate(-514.3 -1.103)"/>
        <path id="Path_840" data-name="Path 840" class="cls-1" d="M763.14,226.624a6.411,6.411,0,1,1-.884,9.024A6.411,6.411,0,0,1,763.14,226.624Z" transform="translate(-514.838 10.698)"/>
        <path id="Path_841" data-name="Path 841" class="cls-1" d="M768.626,233.372a6.41,6.41,0,1,1-1,9A6.415,6.415,0,0,1,768.626,233.372Z" transform="translate(-507.367 20.09)"/>
        <path id="Path_842" data-name="Path 842" class="cls-1" d="M768.994,213.092a6.4,6.4,0,1,1-.441,9.052A6.376,6.376,0,0,1,768.994,213.092Z" transform="translate(-506.433 -8.293)"/>
        <path id="Path_843" data-name="Path 843" class="cls-1" d="M758.142,254.333a6.413,6.413,0,0,1,7.431,10.455,6.413,6.413,0,1,1-7.431-10.455Z" transform="translate(-522.237 49.318)"/>
        <path id="Path_844" data-name="Path 844" class="cls-1" d="M757.582,263.631a6.4,6.4,0,1,1-1.743,8.871A6.4,6.4,0,0,1,757.582,263.631Z" transform="translate(-523.199 62.291)"/>
        <path id="Path_845" data-name="Path 845" class="cls-1" d="M764.486,249.786a6.4,6.4,0,1,1-1.521,8.931A6.393,6.393,0,0,1,764.486,249.786Z" transform="translate(-513.482 43.051)"/>
        <path id="Path_846" data-name="Path 846" class="cls-1" d="M776.3,170.151a6.4,6.4,0,1,1,2.964,8.55A6.4,6.4,0,0,1,776.3,170.151Z" transform="translate(-494.338 -70.272)"/>
        <path id="Path_847" data-name="Path 847" class="cls-1" d="M778.135,163.214a6.417,6.417,0,1,1,6.109,6.709A6.419,6.419,0,0,1,778.135,163.214Z" transform="translate(-490.922 -83.273)"/>
        <path id="Path_848" data-name="Path 848" class="cls-1" d="M777.88,154.512a6.4,6.4,0,1,1,7.49,5.107A6.4,6.4,0,0,1,777.88,154.512Z" transform="translate(-491.427 -97.371)"/>
        <path id="Path_849" data-name="Path 849" class="cls-1" d="M775.348,147.112a6.4,6.4,0,1,1,8.752,2.3A6.4,6.4,0,0,1,775.348,147.112Z" transform="translate(-495.966 -110.399)"/>
        <path id="Path_850" data-name="Path 850" class="cls-1" d="M771.707,175.4a6.4,6.4,0,1,1-.422,9.059A6.405,6.405,0,0,1,771.707,175.4Z" transform="translate(-502.677 -60.325)"/>
        <path id="Path_851" data-name="Path 851" class="cls-1" d="M683.458,181.622a6.415,6.415,0,1,0,.419,9.071A6.435,6.435,0,0,0,683.458,181.622Z" transform="translate(-636.446 -51.724)"/>
        <path id="Path_852" data-name="Path 852" class="cls-1" d="M683.458,189.986a6.411,6.411,0,1,0,.419,9.062A6.407,6.407,0,0,0,683.458,189.986Z" transform="translate(-636.446 -40.19)"/>
        <path id="Path_853" data-name="Path 853" class="cls-1" d="M677.762,196.512a6.41,6.41,0,1,0,.44,9.052A6.378,6.378,0,0,0,677.762,196.512Z" transform="translate(-644.309 -31.195)"/>
        <path id="Path_854" data-name="Path 854" class="cls-1" d="M685.144,218.3a6.409,6.409,0,1,0,.429,9.052A6.392,6.392,0,0,0,685.144,218.3Z" transform="translate(-634.106 -1.103)"/>
        <path id="Path_855" data-name="Path 855" class="cls-1" d="M685.3,226.624a6.415,6.415,0,1,0,.881,9.024A6.4,6.4,0,0,0,685.3,226.624Z" transform="translate(-633.57 10.698)"/>
        <path id="Path_856" data-name="Path 856" class="cls-1" d="M679.8,233.372a6.41,6.41,0,1,0,1.021,9A6.389,6.389,0,0,0,679.8,233.372Z" transform="translate(-641.038 20.09)"/>
        <path id="Path_857" data-name="Path 857" class="cls-1" d="M679.454,213.092a6.41,6.41,0,1,0,.421,9.052A6.391,6.391,0,0,0,679.454,213.092Z" transform="translate(-641.975 -8.293)"/>
        <path id="Path_858" data-name="Path 858" class="cls-1" d="M690.309,254.333a6.416,6.416,0,1,0,1.5,8.931A6.39,6.39,0,0,0,690.309,254.333Z" transform="translate(-626.174 49.318)"/>
        <path id="Path_859" data-name="Path 859" class="cls-1" d="M690.85,263.631a6.4,6.4,0,1,0,1.764,8.871A6.4,6.4,0,0,0,690.85,263.631Z" transform="translate(-625.215 62.291)"/>
        <path id="Path_860" data-name="Path 860" class="cls-1" d="M683.948,249.786a6.4,6.4,0,1,0,1.524,8.931A6.4,6.4,0,0,0,683.948,249.786Z" transform="translate(-634.924 43.051)"/>
        <path id="Path_861" data-name="Path 861" class="cls-1" d="M672.151,170.151a6.409,6.409,0,1,0-2.964,8.55A6.407,6.407,0,0,0,672.151,170.151Z" transform="translate(-654.079 -70.272)"/>
        <path id="Path_862" data-name="Path 862" class="cls-1" d="M670.3,163.214a6.406,6.406,0,1,0-6.088,6.709A6.409,6.409,0,0,0,670.3,163.214Z" transform="translate(-657.498 -83.273)"/>
        <path id="Path_863" data-name="Path 863" class="cls-1" d="M670.573,154.512a6.406,6.406,0,1,0-7.49,5.107A6.406,6.406,0,0,0,670.573,154.512Z" transform="translate(-656.987 -97.371)"/>
        <path id="Path_864" data-name="Path 864" class="cls-1" d="M673.1,147.112a6.412,6.412,0,1,0-8.771,2.3A6.391,6.391,0,0,0,673.1,147.112Z" transform="translate(-652.447 -110.399)"/>
        <path id="Path_865" data-name="Path 865" class="cls-1" d="M676.742,175.4a6.41,6.41,0,1,0,.41,9.059A6.417,6.417,0,0,0,676.742,175.4Z" transform="translate(-645.732 -60.325)"/>
        <g id="Group_109" data-name="Group 109" transform="translate(12.312)">
          <path id="Path_866" data-name="Path 866" class="cls-1" d="M758.5,428.928l-36.568-25.787a6.737,6.737,0,0,1-1.062-9.507l24.461-28.621a13.6,13.6,0,0,0-.9-19.207l-30.623-27.88a6.786,6.786,0,0,1-.44-9.571l27.918-30.6a13.584,13.584,0,0,0-.881-19.209L699.862,221.5c-5.538-5.045-5.407-13.257-.891-19.173L741.2,145.957c4.135-5.426,3.885-11.773-.74-15.981-2.312-2.112-6.859-4.564-15.19-3.686-39.813,4.307-66.529,39.216-62.122,79.567,2.2,20.268,9.421,27.559,13.4,31.173l30.54,27.885a6.753,6.753,0,0,1,.44,9.554l-27.916,30.621a13.579,13.579,0,0,0,.881,19.176l30.62,27.918a6.756,6.756,0,0,1,.44,9.564l-24.573,30.8a13.567,13.567,0,0,0,2.124,19.085l36.627,26.133a6.764,6.764,0,0,1,1.153,9.514l-15.771,23.592A13.586,13.586,0,0,0,733.2,486.7L760.815,448A13.6,13.6,0,0,0,758.5,428.928ZM707,143.9a5.45,5.45,0,1,1,.341,7.7A5.448,5.448,0,0,1,707,143.9Z" transform="translate(-662.67 -126.108)"/>
          <path id="Path_867" data-name="Path 867" class="cls-1" d="M774.354,126.291c-8.352-.879-12.9,1.574-15.193,3.686-4.635,4.207-4.895,10.554-.74,15.981l42.206,56.367c4.528,5.917,4.667,14.128-.881,19.173l-40.554,37.049a13.6,13.6,0,0,0-.89,19.209l27.937,30.6a6.783,6.783,0,0,1-.431,9.571l-30.64,27.88a13.588,13.588,0,0,0-.883,19.207l24.454,28.621a6.75,6.75,0,0,1-1.062,9.507l-36.571,25.787a13.587,13.587,0,0,0-2.3,19.076L766.423,486.7a13.585,13.585,0,0,0,22.088-15.821l-15.78-23.592a6.748,6.748,0,0,1,1.162-9.514l36.62-26.133a13.586,13.586,0,0,0,2.121-19.085l-24.582-30.8a6.776,6.776,0,0,1,.459-9.564l30.6-27.918A13.573,13.573,0,0,0,820,305.091l-27.9-30.621a6.754,6.754,0,0,1,.44-9.554l30.533-27.885c3.973-3.614,11.2-10.9,13.416-31.173C840.871,165.507,814.155,130.6,774.354,126.291Zm17.9,25.3a5.448,5.448,0,1,1,.359-7.7A5.44,5.44,0,0,1,792.258,151.6Z" transform="translate(-561.535 -126.108)"/>
        </g>
      </g>
      <path id="Path_868" data-name="Path 868" class="cls-2" d="M829.9,356.239h62.022V332.127H829.9V297.5H893.69V273.71H803.627V416.02h92.124v-24.1H829.9Zm106.352-72.686H909.86V416.02h92.755V393.428h-66.36ZM1123.316,339.9a31.842,31.842,0,0,0,9.012-8.2c3.885-5.3,5.607-11.9,5.607-19.409,0-12.045-4.086-21.94-12.295-28.737-8.211-6.84-19.406-9.966-33.535-9.966H1048.7V416.02h50.858c14.619,0,26.614-3.586,35.7-10.826,9.012-7.257,13.859-17.342,13.678-29.559a36.407,36.407,0,0,0-8.883-24.483,42.819,42.819,0,0,0-16.731-11.257m-48.625-42.225h15.381c8.09,0,13.378,1.452,16.261,3.817a11.389,11.389,0,0,1,3.3,4.626,22.192,22.192,0,0,1,1.122,7.407c0,6.581-1.952,10.678-5.928,13.678-3.8,2.848-10.554,4.667-20.216,4.667h-9.924Zm41.656,89.769c-3.4,2.6-9.695,4.369-18.856,4.207h-22.8v-35.59h19.585c10.293,0,17.423,1.752,21.349,4.648,3.883,2.943,5.928,6.871,5.928,13.578,0,6.547-1.762,10.474-5.207,13.157m239.76-49.013h0l-2.824-1.533c-7.55-4.378-13.059-8.371-16.6-11.769a19.5,19.5,0,0,1-3.676-4.6,5.871,5.871,0,0,1-1.091-3.176,8.793,8.793,0,0,1,4.2-7.671c3.045-2.2,6.99-3.412,12.328-3.412a35.486,35.486,0,0,1,13.4,2.574,68.764,68.764,0,0,1,15.071,9.071l5.326,3.955V293.514l-1.6-.96A76.884,76.884,0,0,0,1365,286a60.783,60.783,0,0,0-15.761-2.2c-11.845,0-22.011,3.3-29.921,9.874a32.59,32.59,0,0,0-11.926,25.685,31.042,31.042,0,0,0,6.3,19.454,56.677,56.677,0,0,0,10.423,9.293c4.779,3.617,10.907,7.55,18.326,12.128,4.667,2.652,8.421,5.155,11.345,7.209a38.367,38.367,0,0,1,5.928,4.917,13.293,13.293,0,0,1,3,8.209c-.222,3.945-1.422,6.431-4.407,8.731-2.874,2.2-7.25,3.567-13.257,3.567a33.4,33.4,0,0,1-15.771-3.8c-4.867-2.5-10.245-6.881-15.993-12.847L1307.542,370v32.885l1.421.94a54.27,54.27,0,0,0,17.214,9.293,60.721,60.721,0,0,0,20.037,3.064c11.926,0,22.081-3.314,29.909-9.874a32.177,32.177,0,0,0,12-25.476c0-8.609-2.033-16.157-6.409-22.307-4.376-6.29-12.838-12.738-25.6-20.1m165.622,55.684c9.873-11.778,14.79-25.695,14.79-41.418a71.584,71.584,0,0,0-5.217-27.035,70.1,70.1,0,0,0-15.611-22.411,68.61,68.61,0,0,0-22.861-14.919,73.862,73.862,0,0,0-27.356-5.186,72.29,72.29,0,0,0-27.066,5.186,71.079,71.079,0,0,0-23.061,14.919,68.21,68.21,0,0,0-15.259,22.152,63.611,63.611,0,0,0-5.538,26.035c0,16.273,4.957,30.749,14.69,43,9.571,12.126,22.368,20.207,38.011,24.164,11.655,8.24,22.59,14.547,32.973,18.864,10.736,4.533,20.469,6.731,29.33,6.731h2.574a10.493,10.493,0,0,0,2.152-.209l1.05-.162,19.507-17.133-1.481-4.114-1.091-2.6-2.554.571a63.609,63.609,0,0,1-6.76,1.04,29.7,29.7,0,0,1-5.366.341,68.539,68.539,0,0,1-15.971-2.09c-3.445-.974-7.4-2.357-11.595-3.978,12.835-4.764,23.63-11.895,31.711-21.747m-14.5-27.347a43.868,43.868,0,0,1-9.743,14.5l-.14.129a43.312,43.312,0,0,1-31.873,13.5,44.123,44.123,0,0,1-17.252-3.5,47.546,47.546,0,0,1-14.69-9.995v-.129a42.087,42.087,0,0,1-9.643-14.5,43.063,43.063,0,0,1-3.426-17.271,44.022,44.022,0,0,1,3.426-17.478,42.772,42.772,0,0,1,9.571-14.438,47.591,47.591,0,0,1,14.931-9.943,44.849,44.849,0,0,1,34.327,0,42.466,42.466,0,0,1,14.547,9.831,44.93,44.93,0,0,1,9.964,14.921,42.066,42.066,0,0,1,3.4,17.107,43.746,43.746,0,0,1-3.4,17.271m130.653-1.793c-.128,8.469-2.831,14.759-8.89,19.785-5.857,4.967-13.818,7.752-24.211,7.752a41.087,41.087,0,0,1-16.012-3.024,32.389,32.389,0,0,1-12.047-8.914,17.106,17.106,0,0,1-3.645-7.407c-.821-2.848-1.291-8.343-1.291-16.285V283.662h-24.473V357.6c0,10.107.659,17.623,2.212,22.971a37.66,37.66,0,0,0,7.49,14.221,54.807,54.807,0,0,0,20.668,15.862,66.889,66.889,0,0,0,27.1,5.367c16.631,0,30.649-4.648,41.344-13.95,10.814-9.2,16.293-21.759,16.1-36.558v-81.85h-24.345Zm66.37,28.2V360.705h62.4v-22.69h-62.4v-31.2h64.358V284.245h-90.733V415.73h92.8V393.169Zm-426.279-90.9A71.005,71.005,0,0,0,1255,287.65a77.862,77.862,0,0,0-27.547-5.05,75.605,75.605,0,0,0-27.078,5.05,68.266,68.266,0,0,0-23.09,14.619,65.961,65.961,0,0,0-15.64,21.666,64,64,0,0,0-5.448,25.559,64.906,64.906,0,0,0,21.088,48.444,69.862,69.862,0,0,0,22.971,14.5,77.339,77.339,0,0,0,54.582.14,73.594,73.594,0,0,0,23.28-14.638,68.507,68.507,0,0,0,15.473-21.6,64,64,0,0,0,5.316-25.764,63.887,63.887,0,0,0-20.937-48.3m-8.493,64.6a44.305,44.305,0,0,1-24.361,23.83,48.779,48.779,0,0,1-35.2,0,46.611,46.611,0,0,1-14.588-9.552,42.2,42.2,0,0,1-9.745-14.278,41.216,41.216,0,0,1-3.414-16.814,43.1,43.1,0,0,1,3.414-16.983,43.674,43.674,0,0,1,9.745-14.078,51.223,51.223,0,0,1,14.988-9.712,46.663,46.663,0,0,1,34.509,0,43.2,43.2,0,0,1,14.69,9.712,44.3,44.3,0,0,1,10.093,14.5,42.6,42.6,0,0,1,3.274,16.561,41.525,41.525,0,0,1-3.405,16.814M841.138,242.346c11.755,0,21.088-3.726,27.978-11.076,6.769-7.385,10.354-17.38,10.354-29.849V147.08H871.64v54.772c0,9.976-2.745,17.9-8.152,23.811-5.647,5.869-13.038,8.9-22.349,8.9-9.292,0-16.7-3.033-22.18-8.9q-8.4-8.86-8.371-23.811V147.08h-7.469v54.341c0,12.588,3.374,22.583,10.243,29.849,6.85,7.35,16.161,11.076,27.778,11.076M915.458,161.2l60.21,72.655h6.038V151.735h-6.488V223.29l-59.5-71.555h-6.828v82.119h6.569Zm96.078,73.879h6.99V152.846h-6.99Zm66.1,1.362,34.5-83.593h-6.979l-28.078,69-27.737-69h-7.291l34.606,83.593Zm99.073-6.978h-38.451V196.043H1174.5v-5.264h-36.247v-32.6h37.508v-5.328h-44.087v82.231h45.03Zm35.468-33.916h6.607a46.147,46.147,0,0,1,10.476.96,12,12,0,0,1,5.788,3.136,62.463,62.463,0,0,1,4.326,5.486c1.781,2.474,4.1,5.738,6.566,9.745l13,20.207h7.381l-22.439-34.587a24.3,24.3,0,0,0-3.114-3.986,31.232,31.232,0,0,0-4.126-3c5.176-1.659,9.083-4.155,11.635-7.559,2.614-3.3,3.845-7.528,3.845-12.464,0-6.669-2.212-11.759-6.838-15.312-4.688-3.545-11.235-5.328-19.828-5.328H1205.7v82.231h6.471Zm0-37.07h13.657c6.15,0,10.8,1.212,14.231,3.952,3.283,2.607,4.9,6.29,4.9,11.059a16.242,16.242,0,0,1-2.152,8.809,14,14,0,0,1-6.729,5.538,25.814,25.814,0,0,1-6.009,1.7c-2.521.229-6.748.379-12.847.379h-5.055Zm116.535,55.253a25.485,25.485,0,0,0-1.281-7.812,22.039,22.039,0,0,0-4.026-6.528c-2.574-2.883-7.68-5.878-15.061-8.912a15.708,15.708,0,0,1-1.741-.84c-6.75-2.864-11.076-5.3-13.007-7.638-2.064-2.155-3.036-5.2-3.036-8.745a14.594,14.594,0,0,1,4.647-11.1,17.225,17.225,0,0,1,12.017-4.376,26.564,26.564,0,0,1,9.061,1.624,42.806,42.806,0,0,1,9.733,5.207v-7.359a46.729,46.729,0,0,0-9.183-4.114,36.572,36.572,0,0,0-9.292-1.4c-6.99,0-12.6,2.074-16.983,6.178a20.42,20.42,0,0,0-6.569,15.573c0,5.2,1.381,9.481,4.276,12.766,2.852,3.286,8.181,6.569,15.993,9.79,7.528,3.207,12.326,5.931,14.4,8.243a13.267,13.267,0,0,1,3.085,9.2c0,5.045-1.443,9-4.626,11.995-2.983,2.9-7.271,4.414-12.578,4.414a25.859,25.859,0,0,1-9.871-2.231,46.092,46.092,0,0,1-10.935-6.681v7.921a43.849,43.849,0,0,0,10.414,5.49,32.517,32.517,0,0,0,10.524,1.769c7.019,0,12.717-1.99,17.252-6.269a21.146,21.146,0,0,0,6.79-16.171m33.135-60.882h-6.94v82.231h6.94Zm74.329,80.307a34.921,34.921,0,0,0,11.926-5.747,39.538,39.538,0,0,0,11.907-14.478,45.167,45.167,0,0,0,0-38.061,39.858,39.858,0,0,0-11.907-14.481,36.192,36.192,0,0,0-11.816-5.757,66.069,66.069,0,0,0-15.821-1.783h-28.2v82.231h28.2a57.589,57.589,0,0,0,15.712-1.924m-36.928-3.924V158.713h19.564a65.677,65.677,0,0,1,13.771,1.4,29.9,29.9,0,0,1,10.021,4.2,32.338,32.338,0,0,1,10.724,12.481,38.551,38.551,0,0,1,3.776,17.242,39.549,39.549,0,0,1-3.776,17.252,33.14,33.14,0,0,1-10.724,12.466A30.122,30.122,0,0,1,1432.582,228a67.392,67.392,0,0,1-13.771,1.231Zm111.1-73.26-33.794,79.107h6.569l11.516-27.359h34.025l11.545,27.359h6.566l-33.8-79.107Zm-13.569,46.4,14.971-35.556,14.771,35.556Zm117.6,30.78a32.786,32.786,0,0,0,11.878-5.747,38.524,38.524,0,0,0,11.885-14.478,44.3,44.3,0,0,0,0-38.061,38.827,38.827,0,0,0-11.885-14.481,33.876,33.876,0,0,0-11.767-5.757,66.562,66.562,0,0,0-15.861-1.783h-28.037v82.231h28.037a57.608,57.608,0,0,0,15.75-1.924m-36.99-3.924V158.713h19.628a65.886,65.886,0,0,1,13.778,1.4,29.77,29.77,0,0,1,10,4.2,31.569,31.569,0,0,1,10.676,12.481,37.824,37.824,0,0,1,3.814,17.242,38.791,38.791,0,0,1-3.814,17.252,32.332,32.332,0,0,1-10.676,12.466,29.993,29.993,0,0,1-10,4.238,67.594,67.594,0,0,1-13.778,1.231Z" transform="translate(-456.414 -97.148)"/>
      <rect id="Rectangle_25" data-name="Rectangle 25" class="cls-2" width="199.127" height="26.395" transform="translate(350.658 411.796)"/>
      <path id="Path_979" data-name="Path 979" class="cls-3" d="M14.418-25.839H44.55c.972,0,1.3-.324,1.3-1.3v-3c0-.972-.324-1.3-1.3-1.3H14.418V-51.111H45.279c.891,0,1.3-.324,1.3-1.3v-3c0-.972-.324-1.3-1.3-1.3H9.315c-.972,0-1.3.324-1.3,1.3V-1.3c0,.972.324,1.3,1.3,1.3H13.2c.891,0,1.215-.324,1.215-1.3Zm41.8-9.639a66.233,66.233,0,0,1,12.474-1.3c8.5,0,11.5,3.726,11.5,13.932a35.717,35.717,0,0,0-13.122-2.835c-9.963,0-16.6,4.293-16.6,13.122C50.463-3.888,57.105.891,64.881.891A19.981,19.981,0,0,0,81.162-6.8L81.486-1.3c.243.972.567,1.3,1.215,1.3H85.05c.891,0,1.215-.324,1.215-1.3V-22.68c0-13.365-3.726-19.44-17.334-19.44A76.555,76.555,0,0,0,55-40.662c-.972.324-1.215.729-.972,1.62l.648,2.43C54.918-35.64,55.161-35.235,56.214-35.478ZM68.283-21.141c4.617,0,7.776,1.215,11.907,2.916V-11.5C77.6-7.695,72.333-3.888,66.744-3.888c-6.561,0-10.206-3.645-10.206-8.667C56.538-18.063,60.588-21.141,68.283-21.141Zm46.9,16.524c-8.5,0-15.309-6.966-15.309-15.957,0-8.91,6.8-16.038,15.309-16.038a15.977,15.977,0,0,1,11.259,4.536c.648.648,1.134.486,1.7-.243l1.944-2.025c.648-.729.648-1.134,0-1.7A20.734,20.734,0,0,0,115.1-42.12,21.365,21.365,0,0,0,93.879-20.574,21.3,21.3,0,0,0,115.1.891a20.734,20.734,0,0,0,14.985-6.075c.648-.567.648-.972,0-1.7L128.142-8.91c-.567-.729-1.053-.891-1.7-.243A15.977,15.977,0,0,1,115.182-4.617ZM168.156-1.3c.4.972.729,1.3,1.377,1.3h2.025c.891,0,1.215-.324,1.215-1.3V-39.933c0-.972-.324-1.3-1.215-1.3h-3.645c-.891,0-1.215.324-1.215,1.3v20.412c0,8.1-4.536,14.9-11.583,14.9-6.561,0-11.421-4.7-11.421-14.337V-39.933c0-.972-.324-1.3-1.215-1.3h-3.645c-.891,0-1.215.324-1.215,1.3v22.6c0,12.96,7.371,18.225,16.038,18.225,7.938,0,12.15-6.237,13.851-9.477Zm18.954,0c0,.972.324,1.3,1.3,1.3h3.564c.972,0,1.215-.324,1.215-1.3V-58.482c0-.972-.243-1.3-1.215-1.3h-3.564c-.972,0-1.3.324-1.3,1.3Zm43.335.243c.729-.4.81-.729.567-1.539l-.486-2.592c-.324-1.134-.567-1.215-1.62-.648a10.294,10.294,0,0,1-5.589,1.215c-6.48,0-9.315-3.483-9.315-12.96v-18.63h14.661c.972,0,1.215-.324,1.215-1.3v-2.43c0-1.053-.324-1.3-1.215-1.3H214v-8.343c0-.972-.243-1.3-1.215-1.3h-3.564c-.972,0-1.215.324-1.215,1.3v8.343h-3.969c-.972,0-1.3.243-1.3,1.3v2.43c0,.972.324,1.3,1.3,1.3h3.969v19.116c0,11.259,3.969,17.982,14.661,17.982A15.154,15.154,0,0,0,230.445-1.053Zm11.664-34.425a66.233,66.233,0,0,1,12.474-1.3c8.5,0,11.5,3.726,11.5,13.932a35.718,35.718,0,0,0-13.122-2.835c-9.963,0-16.605,4.293-16.605,13.122C236.358-3.888,243,.891,250.776.891A19.981,19.981,0,0,0,267.057-6.8l.324,5.508c.243.972.567,1.3,1.215,1.3h2.349c.891,0,1.215-.324,1.215-1.3V-22.68c0-13.365-3.726-19.44-17.334-19.44a76.555,76.555,0,0,0-13.932,1.458c-.972.324-1.215.729-.972,1.62l.648,2.43C240.813-35.64,241.056-35.235,242.109-35.478Zm12.069,14.337c4.617,0,7.776,1.215,11.907,2.916V-11.5c-2.592,3.807-7.857,7.614-13.446,7.614-6.561,0-10.206-3.645-10.206-8.667C242.433-18.063,246.483-21.141,254.178-21.141Zm59.292-11.5a16.43,16.43,0,0,0-14.985-9.477c-11.34,0-18.711,9.639-18.711,21.465,0,11.745,7.371,21.546,18.711,21.546,9.558,0,13.932-6.642,15.957-9.72L315.09-1.3c.324.972.648,1.3,1.377,1.3h1.863c.891,0,1.215-.324,1.215-1.3V-58.482c0-.972-.324-1.3-1.215-1.3h-3.645c-.891,0-1.215.324-1.215,1.3ZM299.7-4.536c-8.505,0-13.851-7.128-13.851-16.119,0-8.343,5.346-15.957,13.851-15.957,8.424,0,13.851,7.938,13.851,16.038C313.551-12.555,308.124-4.536,299.7-4.536Zm81.486-28.107A16.43,16.43,0,0,0,366.2-42.12c-11.34,0-18.711,9.639-18.711,21.465C347.49-8.91,354.861.891,366.2.891c9.558,0,13.932-6.642,15.957-9.72l.648,7.533c.324.972.648,1.3,1.377,1.3h1.863c.891,0,1.215-.324,1.215-1.3V-58.482c0-.972-.324-1.3-1.215-1.3H382.4c-.891,0-1.215.324-1.215,1.3ZM367.416-4.536c-8.505,0-13.851-7.128-13.851-16.119,0-8.343,5.346-15.957,13.851-15.957,8.424,0,13.851,7.938,13.851,16.038C381.267-12.555,375.84-4.536,367.416-4.536Zm65.772-3.888c-.648-.729-.972-.567-1.863-.081a22.253,22.253,0,0,1-12.717,4.05c-8.181,0-15.066-6.48-15.633-14.013h33.777c1.053,0,1.215-.324,1.215-1.3,0-12.15-7.371-22.356-20.007-22.356a21.365,21.365,0,0,0-21.222,21.546A21.383,21.383,0,0,0,418.365.891c5.994,0,12.555-1.944,16.362-5.67.567-.567.567-1.053,0-1.782ZM403.137-22.68a15,15,0,0,1,14.742-14.337c8.262,0,13.527,7.047,13.851,14.337Zm87.8,18.063c-12.636,0-22.518-11.5-22.518-23.733s9.882-23.733,22.518-23.733a23.06,23.06,0,0,1,16.929,7.128,1.1,1.1,0,0,0,1.863-.081l2.349-2.592c.648-.729.729-1.134.081-1.782-5.184-5.184-13.365-8.343-21.222-8.343-15.957,0-29,13.284-29,29.4s13.041,29.4,29,29.4c7.857,0,16.038-3.159,21.222-8.343.729-.729.729-1.134.081-1.944l-2.43-2.592a1.1,1.1,0,0,0-1.782-.081A23.35,23.35,0,0,1,490.941-4.617ZM523.665-1.3c0,.972.243,1.3,1.215,1.3h3.564c.972,0,1.3-.324,1.3-1.3V-39.933c0-.972-.243-1.3-1.3-1.3H524.88c-.972,0-1.215.324-1.215,1.3Zm-1.3-53.46a4.183,4.183,0,0,0,4.212,4.212,4.252,4.252,0,0,0,4.293-4.212,4.252,4.252,0,0,0-4.293-4.212A4.183,4.183,0,0,0,522.369-54.756ZM577.53-8.424c-.648-.729-.972-.567-1.863-.081a22.253,22.253,0,0,1-12.717,4.05c-8.181,0-15.066-6.48-15.633-14.013h33.777c1.053,0,1.215-.324,1.215-1.3,0-12.15-7.371-22.356-20.007-22.356A21.365,21.365,0,0,0,541.08-20.574,21.383,21.383,0,0,0,562.707.891c5.994,0,12.555-1.944,16.362-5.67.567-.567.567-1.053,0-1.782ZM547.479-22.68a15,15,0,0,1,14.742-14.337c8.262,0,13.527,7.047,13.851,14.337ZM596.4-39.933c-.4-.972-.729-1.3-1.377-1.3H593c-.891,0-1.215.324-1.215,1.3V-1.3c0,.972.324,1.3,1.215,1.3h3.645c.891,0,1.215-.324,1.215-1.3V-21.708c0-8.1,4.536-14.9,11.583-14.9,6.561,0,11.421,4.7,11.421,14.337V-1.3c0,.972.324,1.3,1.215,1.3h3.645c.891,0,1.215-.324,1.215-1.3v-22.6c0-12.96-7.371-18.225-16.038-18.225-7.938,0-12.15,6.237-13.851,9.477ZM655.938-4.617c-8.505,0-15.309-6.966-15.309-15.957,0-8.91,6.8-16.038,15.309-16.038A15.977,15.977,0,0,1,667.2-32.076c.648.648,1.134.486,1.7-.243l1.944-2.025c.648-.729.648-1.134,0-1.7a20.734,20.734,0,0,0-14.985-6.075,21.365,21.365,0,0,0-21.222,21.546A21.3,21.3,0,0,0,655.857.891a20.734,20.734,0,0,0,14.985-6.075c.648-.567.648-.972,0-1.7L668.9-8.91c-.567-.729-1.053-.891-1.7-.243A15.977,15.977,0,0,1,655.938-4.617ZM682.182-1.3c0,.972.243,1.3,1.215,1.3h3.564c.972,0,1.3-.324,1.3-1.3V-39.933c0-.972-.243-1.3-1.3-1.3H683.4c-.972,0-1.215.324-1.215,1.3Zm-1.3-53.46a4.183,4.183,0,0,0,4.212,4.212,4.252,4.252,0,0,0,4.293-4.212,4.252,4.252,0,0,0-4.293-4.212A4.183,4.183,0,0,0,680.886-54.756Zm24.948,19.278a66.233,66.233,0,0,1,12.474-1.3c8.505,0,11.5,3.726,11.5,13.932a35.718,35.718,0,0,0-13.122-2.835c-9.963,0-16.6,4.293-16.6,13.122,0,8.667,6.642,13.446,14.418,13.446A19.981,19.981,0,0,0,730.782-6.8l.324,5.508c.243.972.567,1.3,1.215,1.3h2.349c.891,0,1.215-.324,1.215-1.3V-22.68c0-13.365-3.726-19.44-17.334-19.44a76.556,76.556,0,0,0-13.932,1.458c-.972.324-1.215.729-.972,1.62l.648,2.43C704.538-35.64,704.781-35.235,705.834-35.478ZM717.9-21.141c4.617,0,7.776,1.215,11.907,2.916V-11.5c-2.592,3.807-7.857,7.614-13.446,7.614-6.561,0-10.206-3.645-10.206-8.667C706.158-18.063,710.208-21.141,717.9-21.141ZM760.266-4.05a24.049,24.049,0,0,1-13.689-4.536c-.972-.729-1.377-.324-1.782.486l-1.134,2.025c-.486.891-.486,1.3.243,1.782A31.158,31.158,0,0,0,760.59.891c10.449,0,16.6-5.346,16.6-12.8,0-7.857-7.776-10.449-15.795-11.583-7.371-1.053-11.421-1.863-11.421-6.318s3.321-7.371,10.125-7.371c5.265,0,8.343,1.215,12.717,3.888.972.648,1.377.243,1.782-.567l1.053-1.944c.405-.729.567-1.215-.4-1.782A29.751,29.751,0,0,0,759.78-42.12c-9.558,0-15.552,4.941-15.552,12.636,0,8.5,7.7,10.368,15.714,11.421,7.371,1.053,11.421,2.916,11.421,6.48C771.363-7.452,768.123-4.05,760.266-4.05ZM842.319,0c.972,0,1.215-.324,1.215-1.3v-3c0-.972-.243-1.3-1.215-1.3H811.377v-20.25h29.484c.972,0,1.3-.324,1.3-1.3v-3c0-.972-.324-1.3-1.3-1.3H811.377V-51.111h30.942c.891,0,1.215-.324,1.215-1.3v-3c0-.972-.324-1.3-1.215-1.3H806.274c-.972,0-1.3.324-1.3,1.3V-1.3c0,.972.324,1.3,1.3,1.3Zm29.4-4.617c-8.505,0-15.309-6.966-15.309-15.957,0-8.91,6.8-16.038,15.309-16.038a15.977,15.977,0,0,1,11.259,4.536c.648.648,1.134.486,1.7-.243l1.944-2.025c.648-.729.648-1.134,0-1.7a20.734,20.734,0,0,0-14.985-6.075,21.365,21.365,0,0,0-21.222,21.546A21.3,21.3,0,0,0,871.641.891a20.734,20.734,0,0,0,14.985-6.075c.648-.567.648-.972,0-1.7L884.682-8.91c-.567-.729-1.053-.891-1.7-.243A15.977,15.977,0,0,1,871.722-4.617Zm20.493-15.957A21.364,21.364,0,0,0,913.518.891a21.364,21.364,0,0,0,21.3-21.465,21.434,21.434,0,0,0-21.3-21.546A21.433,21.433,0,0,0,892.215-20.574Zm21.3,16.038c-8.424,0-15.228-7.128-15.228-16.038s6.8-16.038,15.228-16.038c8.505,0,15.309,7.128,15.309,16.038S922.023-4.536,913.518-4.536Zm35.8-35.4c-.4-.972-.729-1.3-1.377-1.3h-2.025c-.891,0-1.215.324-1.215,1.3V-1.3c0,.972.324,1.3,1.215,1.3h3.645c.891,0,1.215-.324,1.215-1.3V-21.708c0-8.1,4.536-14.9,11.583-14.9,6.561,0,11.421,4.7,11.421,14.337V-1.3c0,.972.324,1.3,1.215,1.3h3.645c.891,0,1.215-.324,1.215-1.3v-22.6c0-12.96-7.371-18.225-16.038-18.225-7.938,0-12.15,6.237-13.851,9.477Zm38.232,19.359a21.364,21.364,0,0,0,21.3,21.465,21.364,21.364,0,0,0,21.3-21.465,21.433,21.433,0,0,0-21.3-21.546A21.433,21.433,0,0,0,987.552-20.574Zm21.3,16.038c-8.424,0-15.228-7.128-15.228-16.038s6.8-16.038,15.228-16.038c8.505,0,15.309,7.128,15.309,16.038S1017.36-4.536,1008.855-4.536Zm8.262-49.9a1.046,1.046,0,0,0,.243-1.62l-1.539-2.43c-.486-.729-1.053-.972-1.62-.324l-10.125,10.692c-.891.891-.567,1.377.243,1.377h3.24a3.238,3.238,0,0,0,2.106-.81Zm54.594,22.275c-1.458-3.888-5.751-9.963-13.689-9.963-7.695,0-11.421,6.318-12.879,9.72l-.648-7.533c-.405-.972-.729-1.3-1.377-1.3h-2.025c-.891,0-1.215.324-1.215,1.3V-1.3c0,.972.324,1.3,1.215,1.3h3.645c.891,0,1.215-.324,1.215-1.3V-21.708c0-8.586,4.05-14.9,10.611-14.9,6.642,0,10.611,5.832,10.611,14.337V-1.3c0,.972.4,1.3,1.215,1.3h3.645c.972,0,1.215-.324,1.215-1.3V-22.113c0-8.91,4.617-14.5,10.611-14.5,5.751,0,10.611,4.7,10.611,14.337V-1.3c0,.972.4,1.3,1.215,1.3h3.645c.972,0,1.215-.324,1.215-1.3v-22.6c0-12.96-7.29-18.225-15.228-18.225C1077.624-42.12,1073.331-35.8,1071.711-32.157ZM1113.993-1.3c0,.972.243,1.3,1.215,1.3h3.564c.972,0,1.3-.324,1.3-1.3V-39.933c0-.972-.243-1.3-1.3-1.3h-3.564c-.972,0-1.215.324-1.215,1.3Zm-1.3-53.46a4.183,4.183,0,0,0,4.212,4.212,4.252,4.252,0,0,0,4.293-4.212,4.252,4.252,0,0,0-4.293-4.212A4.183,4.183,0,0,0,1112.7-54.756Zm40.014,50.139c-8.505,0-15.309-6.966-15.309-15.957,0-8.91,6.8-16.038,15.309-16.038a15.977,15.977,0,0,1,11.259,4.536c.648.648,1.134.486,1.7-.243l1.944-2.025c.648-.729.648-1.134,0-1.7a20.734,20.734,0,0,0-14.985-6.075,21.365,21.365,0,0,0-21.222,21.546A21.3,21.3,0,0,0,1152.63.891a20.734,20.734,0,0,0,14.985-6.075c.648-.567.648-.972,0-1.7l-1.944-2.025c-.567-.729-1.053-.891-1.7-.243A15.977,15.977,0,0,1,1152.711-4.617Zm26.73-30.861a66.233,66.233,0,0,1,12.474-1.3c8.505,0,11.5,3.726,11.5,13.932a35.717,35.717,0,0,0-13.122-2.835c-9.963,0-16.6,4.293-16.6,13.122,0,8.667,6.642,13.446,14.418,13.446A19.981,19.981,0,0,0,1204.389-6.8l.324,5.508c.243.972.567,1.3,1.215,1.3h2.349c.891,0,1.215-.324,1.215-1.3V-22.68c0-13.365-3.726-19.44-17.334-19.44a76.553,76.553,0,0,0-13.932,1.458c-.972.324-1.215.729-.972,1.62l.648,2.43C1178.145-35.64,1178.388-35.235,1179.441-35.478Zm12.069,14.337c4.617,0,7.776,1.215,11.907,2.916V-11.5c-2.592,3.807-7.857,7.614-13.446,7.614-6.561,0-10.206-3.645-10.206-8.667C1179.765-18.063,1183.815-21.141,1191.51-21.141ZM1233.873-4.05a24.049,24.049,0,0,1-13.689-4.536c-.972-.729-1.377-.324-1.782.486l-1.134,2.025c-.486.891-.486,1.3.243,1.782A31.159,31.159,0,0,0,1234.2.891c10.449,0,16.6-5.346,16.6-12.8,0-7.857-7.776-10.449-15.8-11.583-7.371-1.053-11.421-1.863-11.421-6.318s3.321-7.371,10.125-7.371c5.265,0,8.343,1.215,12.717,3.888.972.648,1.377.243,1.782-.567l1.053-1.944c.4-.729.567-1.215-.405-1.782a29.751,29.751,0,0,0-15.471-4.536c-9.558,0-15.552,4.941-15.552,12.636,0,8.5,7.7,10.368,15.714,11.421,7.371,1.053,11.421,2.916,11.421,6.48C1244.97-7.452,1241.73-4.05,1233.873-4.05Zm57.915-4.941h-.081l-13.689-30.942c-.486-1.053-.81-1.3-1.62-1.3h-4.212c-.891,0-1.053.324-.648,1.3l16.929,37.827-7.695,17.334c-.486.972-.243,1.3.648,1.3h4.131c.81,0,1.215-.243,1.7-1.3l24.543-55.161c.486-.972.243-1.3-.648-1.3h-4.131c-.81,0-1.215.243-1.7,1.3Zm66.258-37.989,11.907,26.406h-23.9l11.907-26.406Zm1.053-9.963c-.324-.648-.567-1.134-.972-1.134h-.243c-.486,0-.648.486-1.053,1.134L1330.425-1.3c-.324.729,0,1.3.729,1.3h4.7c.891,0,1.215-.324,1.7-1.3l6.318-13.77h28.269l6.318,13.77c.486.972.81,1.3,1.62,1.3h4.7c.81,0,1.134-.567.81-1.3Zm63.018,24.3a16.43,16.43,0,0,0-14.985-9.477c-11.34,0-18.711,9.639-18.711,21.465,0,11.745,7.371,21.546,18.711,21.546,9.558,0,13.932-6.642,15.957-9.72l.648,7.533c.324.972.648,1.3,1.377,1.3h1.863c.891,0,1.215-.324,1.215-1.3V-58.482c0-.972-.324-1.3-1.215-1.3h-3.645c-.891,0-1.215.324-1.215,1.3Zm-13.77,28.107c-8.505,0-13.851-7.128-13.851-16.119,0-8.343,5.346-15.957,13.851-15.957,8.424,0,13.851,7.938,13.851,16.038C1422.2-12.555,1416.771-4.536,1408.347-4.536Zm65.124-27.621c-1.458-3.888-5.751-9.963-13.689-9.963-7.695,0-11.421,6.318-12.879,9.72l-.648-7.533c-.405-.972-.729-1.3-1.377-1.3h-2.025c-.891,0-1.215.324-1.215,1.3V-1.3c0,.972.324,1.3,1.215,1.3h3.645c.891,0,1.215-.324,1.215-1.3V-21.708c0-8.586,4.05-14.9,10.611-14.9,6.642,0,10.611,5.832,10.611,14.337V-1.3c0,.972.4,1.3,1.215,1.3h3.645c.972,0,1.215-.324,1.215-1.3V-22.113c0-8.91,4.617-14.5,10.611-14.5,5.751,0,10.611,4.7,10.611,14.337V-1.3c0,.972.4,1.3,1.215,1.3h3.645c.972,0,1.215-.324,1.215-1.3v-22.6c0-12.96-7.29-18.225-15.228-18.225C1479.384-42.12,1475.091-35.8,1473.471-32.157ZM1515.753-1.3c0,.972.243,1.3,1.215,1.3h3.564c.972,0,1.3-.324,1.3-1.3V-39.933c0-.972-.243-1.3-1.3-1.3h-3.564c-.972,0-1.215.324-1.215,1.3Zm-1.3-53.46a4.183,4.183,0,0,0,4.212,4.212,4.252,4.252,0,0,0,4.293-4.212,4.252,4.252,0,0,0-4.293-4.212A4.183,4.183,0,0,0,1514.457-54.756Zm27.459,14.823c-.405-.972-.729-1.3-1.377-1.3h-2.025c-.891,0-1.215.324-1.215,1.3V-1.3c0,.972.324,1.3,1.215,1.3h3.645c.891,0,1.215-.324,1.215-1.3V-21.708c0-8.1,4.536-14.9,11.583-14.9,6.561,0,11.421,4.7,11.421,14.337V-1.3c0,.972.324,1.3,1.215,1.3h3.645c.891,0,1.215-.324,1.215-1.3v-22.6c0-12.96-7.371-18.225-16.038-18.225-7.938,0-12.15,6.237-13.851,9.477ZM1585.9-1.3c0,.972.243,1.3,1.215,1.3h3.564c.972,0,1.3-.324,1.3-1.3V-39.933c0-.972-.243-1.3-1.3-1.3h-3.564c-.972,0-1.215.324-1.215,1.3Zm-1.3-53.46a4.183,4.183,0,0,0,4.212,4.212,4.252,4.252,0,0,0,4.293-4.212,4.252,4.252,0,0,0-4.293-4.212A4.183,4.183,0,0,0,1584.6-54.756ZM1620.081-4.05a24.049,24.049,0,0,1-13.689-4.536c-.972-.729-1.377-.324-1.782.486l-1.134,2.025c-.486.891-.486,1.3.243,1.782A31.159,31.159,0,0,0,1620.405.891c10.449,0,16.6-5.346,16.6-12.8,0-7.857-7.776-10.449-15.8-11.583-7.371-1.053-11.421-1.863-11.421-6.318s3.321-7.371,10.125-7.371c5.265,0,8.343,1.215,12.717,3.888.972.648,1.377.243,1.782-.567l1.053-1.944c.4-.729.567-1.215-.405-1.782a29.751,29.751,0,0,0-15.471-4.536c-9.558,0-15.552,4.941-15.552,12.636,0,8.5,7.7,10.368,15.714,11.421,7.371,1.053,11.421,2.916,11.421,6.48C1631.178-7.452,1627.938-4.05,1620.081-4.05Zm49.9,3c.729-.4.81-.729.567-1.539l-.486-2.592c-.324-1.134-.567-1.215-1.62-.648a10.294,10.294,0,0,1-5.589,1.215c-6.48,0-9.315-3.483-9.315-12.96v-18.63h14.661c.972,0,1.215-.324,1.215-1.3v-2.43c0-1.053-.324-1.3-1.215-1.3h-14.661v-8.343c0-.972-.243-1.3-1.215-1.3h-3.564c-.972,0-1.215.324-1.215,1.3v8.343h-3.969c-.972,0-1.3.243-1.3,1.3v2.43c0,.972.324,1.3,1.3,1.3h3.969v19.116c0,11.259,3.969,17.982,14.661,17.982A15.154,15.154,0,0,0,1669.977-1.053Zm31.671-35.073c.972,0,1.215-.243,1.458-1.215l.486-3.645c.162-.81,0-1.134-1.134-1.134-11.5,0-15.228,6.885-16.848,10.287l-.972-8.1c-.405-.972-.729-1.3-1.377-1.3h-2.025c-.891,0-1.215.324-1.215,1.3V-1.3c0,.972.324,1.3,1.215,1.3h3.645c.891,0,1.215-.324,1.215-1.3V-21.222C1686.1-28.755,1691.118-36.126,1701.648-36.126Zm10.449.648a66.233,66.233,0,0,1,12.474-1.3c8.505,0,11.5,3.726,11.5,13.932a35.717,35.717,0,0,0-13.122-2.835c-9.963,0-16.6,4.293-16.6,13.122,0,8.667,6.642,13.446,14.418,13.446A19.981,19.981,0,0,0,1737.045-6.8l.324,5.508c.243.972.567,1.3,1.215,1.3h2.349c.891,0,1.215-.324,1.215-1.3V-22.68c0-13.365-3.726-19.44-17.334-19.44a76.553,76.553,0,0,0-13.932,1.458c-.972.324-1.215.729-.972,1.62l.648,2.43C1710.8-35.64,1711.044-35.235,1712.1-35.478Zm12.069,14.337c4.617,0,7.776,1.215,11.907,2.916V-11.5c-2.592,3.807-7.857,7.614-13.446,7.614-6.561,0-10.206-3.645-10.206-8.667C1712.421-18.063,1716.471-21.141,1724.166-21.141ZM1777.3-1.053c.729-.4.81-.729.567-1.539l-.486-2.592c-.324-1.134-.567-1.215-1.62-.648a10.294,10.294,0,0,1-5.589,1.215c-6.48,0-9.315-3.483-9.315-12.96v-18.63h14.661c.972,0,1.215-.324,1.215-1.3v-2.43c0-1.053-.324-1.3-1.215-1.3h-14.661v-8.343c0-.972-.243-1.3-1.215-1.3h-3.564c-.972,0-1.215.324-1.215,1.3v8.343H1750.9c-.972,0-1.3.243-1.3,1.3v2.43c0,.972.324,1.3,1.3,1.3h3.969v19.116c0,11.259,3.969,17.982,14.661,17.982A15.154,15.154,0,0,0,1777.3-1.053Zm11.421-.243c0,.972.243,1.3,1.215,1.3h3.564c.972,0,1.3-.324,1.3-1.3V-39.933c0-.972-.243-1.3-1.3-1.3h-3.564c-.972,0-1.215.324-1.215,1.3Zm-1.3-53.46a4.183,4.183,0,0,0,4.212,4.212,4.252,4.252,0,0,0,4.293-4.212,4.252,4.252,0,0,0-4.293-4.212A4.183,4.183,0,0,0,1787.427-54.756Zm34.506,55c.486.81.567,1.134.972,1.134h.243c.486,0,.567-.405,1.053-1.134l18.954-40.176c.243-.648.081-1.3-.81-1.3h-4.05c-.729,0-1.134.243-1.62,1.3l-13.608,29.646v-.081l-13.689-29.565c-.486-1.053-.81-1.3-1.7-1.3h-4.05c-.729,0-1.053.567-.729,1.3Zm29.484-35.721a66.233,66.233,0,0,1,12.474-1.3c8.505,0,11.5,3.726,11.5,13.932a35.717,35.717,0,0,0-13.122-2.835c-9.963,0-16.6,4.293-16.6,13.122,0,8.667,6.642,13.446,14.418,13.446A19.981,19.981,0,0,0,1876.365-6.8l.324,5.508c.243.972.567,1.3,1.215,1.3h2.349c.891,0,1.215-.324,1.215-1.3V-22.68c0-13.365-3.726-19.44-17.334-19.44a76.553,76.553,0,0,0-13.932,1.458c-.972.324-1.215.729-.972,1.62l.648,2.43C1850.121-35.64,1850.364-35.235,1851.417-35.478Zm12.069,14.337c4.617,0,7.776,1.215,11.907,2.916V-11.5c-2.592,3.807-7.857,7.614-13.446,7.614-6.561,0-10.206-3.645-10.206-8.667C1851.741-18.063,1855.791-21.141,1863.486-21.141ZM1905.849-4.05a24.049,24.049,0,0,1-13.689-4.536c-.972-.729-1.377-.324-1.782.486l-1.134,2.025c-.486.891-.486,1.3.243,1.782A31.159,31.159,0,0,0,1906.173.891c10.449,0,16.6-5.346,16.6-12.8,0-7.857-7.776-10.449-15.8-11.583-7.371-1.053-11.421-1.863-11.421-6.318s3.321-7.371,10.125-7.371c5.265,0,8.343,1.215,12.717,3.888.972.648,1.377.243,1.782-.567l1.053-1.944c.4-.729.567-1.215-.405-1.782a29.751,29.751,0,0,0-15.471-4.536c-9.558,0-15.552,4.941-15.552,12.636,0,8.5,7.7,10.368,15.714,11.421,7.371,1.053,11.421,2.916,11.421,6.48C1916.946-7.452,1913.706-4.05,1905.849-4.05Z" transform="translate(340.727 584.003)"/>
    </g>
  </g>
  <rect id="Rectangle_87" data-name="Rectangle 87" class="cls-4" width="2501" height="897.873"/>
  <g id="Group_35" data-name="Group 35" transform="translate(439.196 745.684)">
    <path id="Path_359" data-name="Path 359" class="cls-3" d="M1134.553,177.058h-3.37L1118.2,147.281h3.839l10.832,24.975,10.848-24.975h3.84Z" transform="translate(-1118.196 -142.83)"/>
    <path id="Path_360" data-name="Path 360" class="cls-3" d="M1127.381,149.379a2.274,2.274,0,0,1-2.356,2.274,2.252,2.252,0,1,1,0-4.5A2.294,2.294,0,0,1,1127.381,149.379Zm-4.048,28.524V156.022h3.437V177.9Z" transform="translate(-1088.934 -143.676)"/>
    <path id="Path_361" data-name="Path 361" class="cls-3" d="M1147.142,171.655c0,6.173-5.129,10.162-11.518,10.162-5.48,0-9.081-2.14-10.8-5.659l2.922-2.229c1.521,2.952,3.721,4.6,7.88,4.6,4.436,0,8.089-2.84,8.133-7.321V167.04a10.362,10.362,0,0,1-8.715,4.249c-5.846,0-10.945-4.6-10.945-11.526,0-6.948,5.1-11.5,10.945-11.5a10.464,10.464,0,0,1,8.715,4.183v-3.638h3.385Zm-3.385-11.891a8.309,8.309,0,0,0-8.186-8.551c-4.54,0-8.185,3.332-8.185,8.551s3.646,8.484,8.185,8.484A8.244,8.244,0,0,0,1143.758,159.763Z" transform="translate(-1080.09 -136.465)"/>
    <path id="Path_362" data-name="Path 362" class="cls-3" d="M1132.862,149.379a2.29,2.29,0,0,1-2.363,2.274,2.252,2.252,0,1,1,0-4.5A2.31,2.31,0,0,1,1132.862,149.379Zm-4.055,28.524V156.022h3.429V177.9Z" transform="translate(-1053.597 -143.676)"/>
    <path id="Path_363" data-name="Path 363" class="cls-3" d="M1133.184,175.32a2.819,2.819,0,0,0,3.087,2.915,6.324,6.324,0,0,0,2.639-.671l.7,2.826a7.2,7.2,0,0,1-3.863,1.118,5.653,5.653,0,0,1-5.972-6.009V146.684h3.407Z" transform="translate(-1043.43 -146.684)"/>
    <path id="Path_364" data-name="Path 364" class="cls-3" d="M1150.911,156.483v14.21h-3.31v-3.3a9.807,9.807,0,0,1-8.223,3.9c-4.779,0-7.947-2.766-7.947-6.695,0-4.048,3.072-6.874,8.8-6.874h7.374v-1.007c0-3.422-2.221-5.5-5.584-5.5-3.332,0-5.658,1.692-6.143,4.443l-3.235-.731c.693-3.959,4.4-6.658,9.193-6.658C1147.288,148.267,1150.911,151.182,1150.911,156.483Zm-3.31,5.04V160.4h-7.4c-3.617,0-5.533,1.715-5.533,4.145,0,2.3,2.058,3.944,5.2,3.944C1144.127,168.493,1147.6,165.511,1147.6,161.523Z" transform="translate(-1032.759 -136.465)"/>
    <path id="Path_365" data-name="Path 365" class="cls-3" d="M1157.717,180.912h-3.378v-3.653a10.355,10.355,0,0,1-8.73,4.249c-5.83,0-10.93-4.6-10.93-11.526,0-6.948,5.1-11.5,10.93-11.5a10.457,10.457,0,0,1,8.73,4.183V146.684h3.378Zm-3.378-10.93a8.3,8.3,0,0,0-8.179-8.551c-4.54,0-8.179,3.332-8.179,8.551s3.639,8.484,8.179,8.484A8.235,8.235,0,0,0,1154.339,169.982Z" transform="translate(-1011.792 -146.684)"/>
    <path id="Path_366" data-name="Path 366" class="cls-3" d="M1158.034,156.483v14.21h-3.3v-3.3a9.83,9.83,0,0,1-8.209,3.9c-4.808,0-7.984-2.766-7.984-6.695,0-4.048,3.072-6.874,8.827-6.874h7.367v-1.007c0-3.422-2.214-5.5-5.607-5.5-3.317,0-5.643,1.692-6.1,4.443l-3.266-.731c.7-3.959,4.414-6.658,9.2-6.658C1154.441,148.267,1158.034,151.182,1158.034,156.483Zm-3.3,5.04V160.4h-7.411c-3.623,0-5.524,1.715-5.524,4.145,0,2.3,2.051,3.944,5.2,3.944C1151.257,168.493,1154.739,165.511,1154.739,161.523Z" transform="translate(-986.829 -136.465)"/>
    <path id="Path_367" data-name="Path 367" class="cls-3" d="M1175.668,177.058h-3.362V155.221l-11.511,21.837h-2.259l-11.578-21.837v21.837h-3.392V147.281h3.109l12.965,24.551,12.957-24.551h3.072Z" transform="translate(-954.422 -142.83)"/>
    <path id="Path_368" data-name="Path 368" class="cls-3" d="M1153.545,149.379a2.274,2.274,0,0,1-2.356,2.274,2.252,2.252,0,1,1,0-4.5A2.294,2.294,0,0,1,1153.545,149.379Zm-4.018,28.524V156.022h3.392V177.9Z" transform="translate(-920.08 -143.676)"/>
    <path id="Path_369" data-name="Path 369" class="cls-3" d="M1170.954,157.609v13.084h-3.392V158.205c0-4.033-2.415-6.829-6.084-6.829-4.592,0-7.589,3.087-7.589,8.8v10.512h-3.363V148.811h3.363v3.638a9.345,9.345,0,0,1,8.275-4.183C1167.443,148.267,1170.954,152.024,1170.954,157.609Z" transform="translate(-909.487 -136.465)"/>
    <path id="Path_370" data-name="Path 370" class="cls-3" d="M1176.083,160.456h-18.818a7.969,7.969,0,0,0,7.806,7.865,7.488,7.488,0,0,0,7.456-4.734l3.012.731c-1.685,4.555-5.547,6.971-10.468,6.971a11.516,11.516,0,0,1,.194-23.022c5.95,0,10.565,4.384,10.818,10.907Zm-18.669-2.557h15.224c-.619-4.3-3.683-6.687-7.374-6.687A7.856,7.856,0,0,0,1157.414,157.9Z" transform="translate(-887.209 -136.465)"/>
    <path id="Path_371" data-name="Path 371" class="cls-3" d="M1180.456,180.912h-3.408v-3.653a10.243,10.243,0,0,1-8.67,4.249c-5.838,0-10.922-4.6-10.922-11.526,0-6.948,5.084-11.5,10.922-11.5a10.343,10.343,0,0,1,8.67,4.183V146.684h3.408Zm-3.408-10.93a8.276,8.276,0,0,0-8.149-8.551c-4.533,0-8.208,3.332-8.208,8.551s3.675,8.484,8.208,8.484A8.211,8.211,0,0,0,1177.048,169.982Z" transform="translate(-864.765 -146.684)"/>
    <path id="Path_372" data-name="Path 372" class="cls-3" d="M1182.024,170.192h-3.429v-3.534a9.54,9.54,0,0,1-8.246,4.13c-5.293,0-8.834-3.78-8.834-9.357V148.34h3.444v12.5c0,4.071,2.385,6.755,6.032,6.755,4.592,0,7.6-3.027,7.6-8.738V148.34h3.429Z" transform="translate(-838.555 -135.994)"/>
    <path id="Path_373" data-name="Path 373" class="cls-3" d="M1183.73,163.2l3.123.828a10.611,10.611,0,0,1-10.392,7.261,11.511,11.511,0,0,1,0-23.022,10.618,10.618,0,0,1,10.408,7.254l-3.251.992a7.226,7.226,0,0,0-7.157-5.137,8.392,8.392,0,0,0,0,16.775A7.481,7.481,0,0,0,1183.73,163.2Z" transform="translate(-815.807 -136.465)"/>
    <path id="Path_374" data-name="Path 374" class="cls-3" d="M1187.907,156.483v14.21h-3.242v-3.3a10.017,10.017,0,0,1-8.246,3.9c-4.809,0-7.939-2.766-7.939-6.695,0-4.048,3.019-6.874,8.789-6.874h7.4v-1.007c0-3.422-2.3-5.5-5.6-5.5-3.361,0-5.71,1.692-6.15,4.443l-3.265-.731c.723-3.959,4.4-6.658,9.2-6.658C1184.336,148.267,1187.907,151.182,1187.907,156.483Zm-3.242,5.04V160.4h-7.448c-3.624,0-5.525,1.715-5.525,4.145,0,2.3,2.012,3.944,5.181,3.944C1181.175,168.493,1184.664,165.511,1184.664,161.523Z" transform="translate(-793.607 -136.465)"/>
    <path id="Path_375" data-name="Path 375" class="cls-3" d="M1190.389,163.2l3.116.828a10.491,10.491,0,0,1-10.333,7.261,11.511,11.511,0,0,1,0-23.022,10.666,10.666,0,0,1,10.416,7.254l-3.258.992a7.251,7.251,0,0,0-7.158-5.137,8.391,8.391,0,0,0,0,16.775A7.4,7.4,0,0,0,1190.389,163.2Z" transform="translate(-772.672 -136.465)"/>
    <path id="Path_376" data-name="Path 376" class="cls-3" d="M1180.02,149.379a2.316,2.316,0,1,1-2.333-2.229A2.237,2.237,0,0,1,1180.02,149.379Zm-4.041,28.524V156.022h3.445V177.9Z" transform="translate(-748.98 -143.676)"/>
    <path id="Path_377" data-name="Path 377" class="cls-3" d="M1199.954,167.753a11.6,11.6,0,0,1-23.193,0c0-6.777,5.115-11.437,11.646-11.437A11.167,11.167,0,0,1,1199.954,167.753Zm-3.288,0a8.317,8.317,0,1,0-16.633,0,8.319,8.319,0,1,0,16.633,0Zm-9.52-14.478,3.578-6.248h3.958l-4.54,6.248Z" transform="translate(-740.137 -144.47)"/>
    <path id="Path_378" data-name="Path 378" class="cls-3" d="M1201.1,157.609v13.084h-3.355V158.205c0-4.033-2.49-6.829-6.1-6.829-4.615,0-7.6,3.087-7.6,8.8v10.512h-3.385V148.811h3.385v3.638a9.337,9.337,0,0,1,8.23-4.183C1197.562,148.267,1201.1,152.024,1201.1,157.609Z" transform="translate(-715.005 -136.465)"/>
  </g>
</svg>
