<svg xmlns="http://www.w3.org/2000/svg" width="1500" height="597" viewBox="0 0 1500 597"><defs><style>.a{fill:none;}.b{fill:#ff893b;}.c{fill:#394024;}</style></defs><g transform="translate(13653 24091)"><rect class="a" width="1500" height="597" transform="translate(-13653 -24091)"/><g transform="translate(-3721 -157)"><g transform="translate(-9839.799 -23841.898)"><g transform="translate(0 0)"><path class="b" d="M288.085,648.137c-30.269-73.5-40.93-149.614-40.93-228.1,0-33.837,2.148-67.754,7.8-101.121h28.884c-6.995,31.751-9.161,64.292-9.161,96.718,0,68.136,8.459,140.559,28.174,206.21,19.715-65.651,28.174-138.074,28.174-206.21,0-32.426-2.166-64.967-9.152-96.718h28.866c5.645,33.367,7.82,67.284,7.82,101.121,0,78.486-10.669,154.6-40.938,228.1Z" transform="translate(-152.799 -269.916)"/><path class="b" d="M266.906,329.525a6.422,6.422,0,1,1-.417,9.054A6.426,6.426,0,0,1,266.906,329.525Z" transform="translate(-13.66 -199.499)"/><path class="b" d="M266.906,331.76a6.422,6.422,0,1,1-.417,9.063A6.443,6.443,0,0,1,266.906,331.76Z" transform="translate(-13.66 -181.834)"/><path class="b" d="M268.44,333.509a6.412,6.412,0,1,1-.426,9.072A6.413,6.413,0,0,1,268.44,333.509Z" transform="translate(-1.621 -168.056)"/><path class="b" d="M266.451,339.364a6.421,6.421,0,1,1-.417,9.054A6.441,6.441,0,0,1,266.451,339.364Z" transform="translate(-17.244 -121.984)"/><path class="b" d="M266.6,341.45a6.414,6.414,0,1,1-.887,9.027A6.4,6.4,0,0,1,266.6,341.45Z" transform="translate(-18.069 -103.912)"/><path class="b" d="M268.119,343.213a6.412,6.412,0,1,1-1.021,9.01A6.406,6.406,0,0,1,268.119,343.213Z" transform="translate(-6.618 -89.529)"/><path class="b" d="M267.989,337.966a6.41,6.41,0,1,1-.426,9.054A6.42,6.42,0,0,1,267.989,337.966Z" transform="translate(-5.192 -132.987)"/><path class="b" d="M265.5,348.694a6.413,6.413,0,1,1-1.5,8.93A6.386,6.386,0,0,1,265.5,348.694Z" transform="translate(-29.388 -44.769)"/><path class="b" d="M265.471,351.108A6.41,6.41,0,1,1,263.713,360,6.409,6.409,0,0,1,265.471,351.108Z" transform="translate(-30.857 -24.903)"/><path class="b" d="M267.225,347.463a6.415,6.415,0,1,1-1.509,8.939A6.394,6.394,0,0,1,267.225,347.463Z" transform="translate(-15.985 -54.367)"/><path class="b" d="M268.89,327.856a6.417,6.417,0,1,1,2.982,8.566A6.4,6.4,0,0,1,268.89,327.856Z" transform="translate(13.329 -227.904)"/><path class="b" d="M268.919,327.813a6.412,6.412,0,1,1,6.081,6.71A6.394,6.394,0,0,1,268.919,327.813Z" transform="translate(18.572 -247.806)"/><path class="b" d="M268.927,326.588a6.414,6.414,0,1,1,7.483,5.1A6.4,6.4,0,0,1,268.927,326.588Z" transform="translate(17.783 -269.393)"/><path class="b" d="M268.8,326.1a6.415,6.415,0,1,1,8.77,2.29A6.419,6.419,0,0,1,268.8,326.1Z" transform="translate(10.833 -289.348)"/><path class="b" d="M268.708,327.852a6.412,6.412,0,1,1-.417,9.063A6.415,6.415,0,0,1,268.708,327.852Z" transform="translate(0.56 -212.668)"/><path class="b" d="M251.35,329.525a6.416,6.416,0,1,0,.417,9.054A6.427,6.427,0,0,0,251.35,329.525Z" transform="translate(-204.288 -199.499)"/><path class="b" d="M251.35,331.76a6.416,6.416,0,1,0,.417,9.063A6.444,6.444,0,0,0,251.35,331.76Z" transform="translate(-204.288 -181.834)"/><path class="b" d="M249.8,333.509a6.409,6.409,0,1,0,.435,9.072A6.4,6.4,0,0,0,249.8,333.509Z" transform="translate(-216.32 -168.056)"/><path class="b" d="M251.8,339.364a6.415,6.415,0,1,0,.417,9.054A6.42,6.42,0,0,0,251.8,339.364Z" transform="translate(-200.702 -121.984)"/><path class="b" d="M251.658,341.45a6.414,6.414,0,1,0,.888,9.027A6.4,6.4,0,0,0,251.658,341.45Z" transform="translate(-199.882 -103.912)"/><path class="b" d="M250.133,343.213a6.412,6.412,0,1,0,1.021,9.01A6.4,6.4,0,0,0,250.133,343.213Z" transform="translate(-211.326 -89.529)"/><path class="b" d="M250.27,337.966a6.413,6.413,0,1,0,.417,9.054A6.431,6.431,0,0,0,250.27,337.966Z" transform="translate(-212.75 -132.987)"/><path class="b" d="M252.739,348.694a6.413,6.413,0,1,0,1.509,8.93A6.389,6.389,0,0,0,252.739,348.694Z" transform="translate(-188.554 -44.769)"/><path class="b" d="M252.771,351.108A6.41,6.41,0,1,0,254.537,360,6.409,6.409,0,0,0,252.771,351.108Z" transform="translate(-187.076 -24.903)"/><path class="b" d="M251.024,347.463a6.415,6.415,0,1,0,1.527,8.939A6.408,6.408,0,0,0,251.024,347.463Z" transform="translate(-201.955 -54.367)"/><path class="b" d="M249.374,327.856a6.409,6.409,0,1,0-2.982,8.566A6.407,6.407,0,0,0,249.374,327.856Z" transform="translate(-231.284 -227.904)"/><path class="b" d="M249.342,327.813a6.412,6.412,0,1,0-6.1,6.71A6.407,6.407,0,0,0,249.342,327.813Z" transform="translate(-236.525 -247.806)"/><path class="b" d="M249.341,326.588a6.414,6.414,0,1,0-7.492,5.1A6.408,6.408,0,0,0,249.341,326.588Z" transform="translate(-235.743 -269.393)"/><path class="b" d="M249.455,326.1a6.415,6.415,0,1,0-8.77,2.29A6.4,6.4,0,0,0,249.455,326.1Z" transform="translate(-228.782 -289.348)"/><path class="b" d="M249.545,327.852a6.412,6.412,0,1,0,.417,9.063A6.427,6.427,0,0,0,249.545,327.852Z" transform="translate(-218.505 -212.668)"/><g transform="translate(12.322)"><path class="b" d="M333.83,616.487l-36.6-25.8a6.775,6.775,0,0,1-1.056-9.533l24.481-28.644a13.584,13.584,0,0,0-.905-19.209L289.1,505.372a6.775,6.775,0,0,1-.435-9.569l27.952-30.633a13.6,13.6,0,0,0-.888-19.209l-40.583-37.086c-5.548-5.05-5.406-13.261-.888-19.2l42.252-56.41c4.145-5.45,3.888-11.788-.746-16.014-2.308-2.1-6.862-4.563-15.206-3.666-39.838,4.287-66.591,39.225-62.171,79.622,2.2,20.3,9.436,27.579,13.421,31.2l30.544,27.916a6.763,6.763,0,0,1,.453,9.578l-27.925,30.624a13.589,13.589,0,0,0,.879,19.209l30.633,27.943a6.768,6.768,0,0,1,.453,9.569l-24.6,30.819a13.6,13.6,0,0,0,2.113,19.12l36.687,26.15a6.767,6.767,0,0,1,1.145,9.507l-15.8,23.62A13.6,13.6,0,1,0,308.506,674.3l27.633-38.728A13.565,13.565,0,0,0,333.83,616.487Zm-51.537-285.3a5.454,5.454,0,1,1,.346,7.723A5.463,5.463,0,0,1,282.293,331.188Z" transform="translate(-237.913 -313.397)"/><path class="b" d="M296.059,313.586c-8.344-.9-12.9,1.562-15.206,3.666-4.634,4.225-4.909,10.563-.745,16.014l42.252,56.41c4.518,5.938,4.66,14.149-.888,19.2l-40.583,37.086A13.6,13.6,0,0,0,280,465.17L307.963,495.8a6.784,6.784,0,0,1-.444,9.569L276.85,533.3a13.615,13.615,0,0,0-.888,19.209l24.481,28.644a6.767,6.767,0,0,1-1.056,9.533l-36.6,25.8a13.572,13.572,0,0,0-2.308,19.085L288.115,674.3a13.6,13.6,0,0,0,22.12-15.836l-15.809-23.62a6.77,6.77,0,0,1,1.163-9.507l36.669-26.15a13.607,13.607,0,0,0,2.112-19.12l-24.579-30.819a6.751,6.751,0,0,1,.426-9.569l30.642-27.943a13.606,13.606,0,0,0,.9-19.209L313.812,461.9a6.8,6.8,0,0,1,.444-9.578l30.571-27.916c3.968-3.622,11.2-10.9,13.421-31.2C362.651,352.812,335.9,317.874,296.059,313.586Zm17.922,25.325a5.46,5.46,0,1,1,.346-7.723A5.46,5.46,0,0,1,313.981,338.911Z" transform="translate(-83.044 -313.397)"/></g></g><path class="c" d="M302.436,528.36H364.5V504.234H302.436V469.571h63.84V445.782H276.117V588.206h92.218V564.088h-65.9Zm106.429-72.725h-26.4V588.206h92.822v-22.6H408.865Zm187.241,56.392a31.838,31.838,0,0,0,9.009-8.22c3.906-5.3,5.619-11.894,5.619-19.422,0-12.063-4.074-21.961-12.312-28.751-8.211-6.87-19.413-9.986-33.553-9.986h-43.45V588.206h50.9c14.637,0,26.647-3.578,35.746-10.83,9.019-7.261,13.856-17.363,13.679-29.585a36.386,36.386,0,0,0-8.894-24.508,42.743,42.743,0,0,0-16.741-11.255m-48.661-42.278h15.392c8.078,0,13.386,1.456,16.279,3.808a11.818,11.818,0,0,1,3.311,4.652,22.583,22.583,0,0,1,1.11,7.4c0,6.6-1.961,10.687-5.929,13.7-3.8,2.849-10.554,4.669-20.23,4.669h-9.933ZM589.138,559.6c-3.418,2.61-9.711,4.394-18.88,4.216H547.445V528.191h19.608c10.3,0,17.442,1.758,21.357,4.643,3.879,2.947,5.929,6.879,5.929,13.6,0,6.569-1.749,10.492-5.2,13.164M829.1,510.545h0l-2.814-1.536c-7.554-4.385-13.066-8.371-16.626-11.77a19.673,19.673,0,0,1-3.675-4.615,5.782,5.782,0,0,1-1.092-3.16,8.849,8.849,0,0,1,4.216-7.7c3.045-2.193,6.986-3.409,12.338-3.409a35.175,35.175,0,0,1,13.4,2.592A67.246,67.246,0,0,1,849.929,490l5.326,3.959v-28.37l-1.6-.959a77.113,77.113,0,0,0-15.649-6.559,61.071,61.071,0,0,0-15.782-2.219c-11.841,0-22.031,3.32-29.94,9.9a32.621,32.621,0,0,0-11.93,25.715,31.118,31.118,0,0,0,6.293,19.466,57.034,57.034,0,0,0,10.439,9.3c4.785,3.622,10.91,7.563,18.348,12.117,4.66,2.672,8.424,5.175,11.353,7.243a39.368,39.368,0,0,1,5.929,4.909,13.3,13.3,0,0,1,3,8.22c-.213,3.968-1.4,6.435-4.4,8.761-2.885,2.193-7.27,3.533-13.279,3.533a33.4,33.4,0,0,1-15.782-3.8c-4.874-2.494-10.243-6.879-16-12.844l-5.752-6.232V575.06l1.42.932a54.313,54.313,0,0,0,17.238,9.311,60.545,60.545,0,0,0,20.052,3.062c11.948,0,22.111-3.32,29.923-9.862A32.216,32.216,0,0,0,861.149,553c0-8.628-2.033-16.191-6.4-22.333-4.4-6.3-12.88-12.746-25.653-20.123m165.769,55.736c9.888-11.788,14.806-25.724,14.806-41.462a71.5,71.5,0,0,0-5.211-27.047,70.583,70.583,0,0,0-15.623-22.431,68.83,68.83,0,0,0-22.866-14.93,73.978,73.978,0,0,0-27.393-5.193,72.3,72.3,0,0,0-27.1,5.193,71.039,71.039,0,0,0-23.079,14.93,67.817,67.817,0,0,0-15.267,22.174,63.652,63.652,0,0,0-5.548,26.043c0,16.288,4.953,30.784,14.718,43.042,9.569,12.143,22.377,20.221,38.036,24.188,11.664,8.247,22.608,14.558,33.012,18.889,10.732,4.518,20.469,6.72,29.328,6.72h2.6a9.776,9.776,0,0,0,2.157-.213l1.056-.16,19.5-17.141-1.474-4.119-1.074-2.592-2.583.559a61.686,61.686,0,0,1-6.764,1.047,28.583,28.583,0,0,1-5.37.355,68.92,68.92,0,0,1-15.969-2.1c-3.471-.976-7.421-2.361-11.62-3.994,12.835-4.767,23.647-11.912,31.725-21.765m-14.5-27.366a44.141,44.141,0,0,1-9.747,14.513l-.142.115a45.648,45.648,0,0,1-14.646,10.137,46.178,46.178,0,0,1-17.247,3.391,44.323,44.323,0,0,1-17.274-3.515,47.577,47.577,0,0,1-14.7-10.013v-.115a42.07,42.07,0,0,1-9.657-14.513,43.011,43.011,0,0,1-3.435-17.282,44.075,44.075,0,0,1,3.435-17.5,42.694,42.694,0,0,1,9.586-14.442,47.822,47.822,0,0,1,14.93-9.959,44.89,44.89,0,0,1,34.361,0,42.411,42.411,0,0,1,14.566,9.844,44.824,44.824,0,0,1,9.969,14.939,42.233,42.233,0,0,1,3.408,17.123,43.916,43.916,0,0,1-3.408,17.282m130.769-1.8c-.125,8.477-2.823,14.788-8.894,19.813-5.858,4.962-13.83,7.749-24.233,7.749a41.025,41.025,0,0,1-16.022-3.027,32.126,32.126,0,0,1-12.063-8.921,17.183,17.183,0,0,1-3.648-7.4c-.808-2.858-1.278-8.362-1.278-16.306V455.733h-24.517v74c0,10.11.692,17.655,2.219,22.99a37.694,37.694,0,0,0,7.492,14.229,54.937,54.937,0,0,0,20.7,15.889A67.209,67.209,0,0,0,1078,588.206c16.661,0,30.686-4.651,41.364-13.963,10.847-9.223,16.333-21.783,16.12-36.589V455.733h-24.357Zm66.432,28.227V532.834h62.473v-22.7h-62.473V478.909h64.408v-22.6h-90.806V587.922h92.892V565.34Zm-426.658-91a71.126,71.126,0,0,0-22.99-14.6,77.61,77.61,0,0,0-27.579-5.059,75.453,75.453,0,0,0-27.1,5.059,68.544,68.544,0,0,0-23.123,14.6,66.347,66.347,0,0,0-15.64,21.7,64.044,64.044,0,0,0-5.459,25.591,64.993,64.993,0,0,0,21.1,48.483,70.377,70.377,0,0,0,23,14.513,77.335,77.335,0,0,0,54.653.125,73.382,73.382,0,0,0,23.3-14.638,68.587,68.587,0,0,0,15.463-21.632A63.819,63.819,0,0,0,771.86,522.7a65.88,65.88,0,0,0-5.211-26.248A66.792,66.792,0,0,0,750.9,474.338M742.408,539a44.458,44.458,0,0,1-24.375,23.86,48.928,48.928,0,0,1-35.249,0,46.247,46.247,0,0,1-14.575-9.56,41.53,41.53,0,0,1-9.764-14.3,41.025,41.025,0,0,1-3.417-16.821,42.657,42.657,0,0,1,13.181-31.1,51.274,51.274,0,0,1,14.975-9.711,46.686,46.686,0,0,1,34.538,0,43.149,43.149,0,0,1,14.7,9.711,44.305,44.305,0,0,1,10.11,14.522,42.284,42.284,0,0,1,3.275,16.581,41.305,41.305,0,0,1-3.4,16.821M313.674,414.395c11.77,0,21.117-3.737,28-11.1,6.8-7.4,10.368-17.407,10.368-29.887V319.026H344.2v54.812c0,9.986-2.734,17.939-8.149,23.851-5.646,5.867-13.048,8.9-22.378,8.9-9.312,0-16.715-3.036-22.191-8.9-5.619-5.912-8.379-13.865-8.379-23.851V319.026H275.62v54.386c0,12.6,3.373,22.617,10.243,29.887,6.844,7.359,16.173,11.1,27.81,11.1m74.394-81.229,60.263,72.707h6.027V323.7h-6.48V395.3L388.325,323.7h-6.852v82.178h6.6Zm96.168,73.941h6.986V324.8h-6.986Zm66.157,1.367,34.529-83.67h-7l-28.1,69.059L522.058,324.8h-7.3l34.636,83.67Zm99.159-6.994H611.045V368.042h36.287v-5.273H611.045V330.131H648.6V324.8H604.476v82.3h45.075Zm35.488-33.953h6.622a46.024,46.024,0,0,1,10.475.968,11.869,11.869,0,0,1,5.787,3.134,59.841,59.841,0,0,1,4.341,5.495c1.8,2.476,4.1,5.752,6.568,9.764l13.022,20.221h7.385L716.764,372.48a24.606,24.606,0,0,0-3.1-3.986,30.5,30.5,0,0,0-4.127-2.982c5.166-1.669,9.063-4.172,11.646-7.58,2.6-3.311,3.835-7.545,3.835-12.48,0-6.675-2.219-11.752-6.826-15.321-4.722-3.542-11.256-5.326-19.875-5.326H678.559v82.3h6.48Zm0-37.094h13.679c6.143,0,10.821,1.207,14.238,3.95,3.293,2.609,4.917,6.311,4.917,11.069a16.227,16.227,0,0,1-2.166,8.815,14,14,0,0,1-6.728,5.557,26.161,26.161,0,0,1-6.009,1.7c-2.53.231-6.764.373-12.853.373h-5.077Zm116.664,55.3a25.043,25.043,0,0,0-1.323-7.811,22.041,22.041,0,0,0-4-6.542c-2.583-2.885-7.7-5.868-15.063-8.9-.817-.408-1.341-.586-1.749-.861-6.746-2.858-11.1-5.3-13.04-7.634-2.05-2.166-3.018-5.2-3.018-8.761a14.592,14.592,0,0,1,4.642-11.113,17.257,17.257,0,0,1,12.037-4.385,26.636,26.636,0,0,1,9.063,1.633,42.372,42.372,0,0,1,9.728,5.211V329.2a46.722,46.722,0,0,0-9.169-4.119A36.956,36.956,0,0,0,780.5,323.7c-7,0-12.622,2.059-16.989,6.178a20.392,20.392,0,0,0-6.569,15.578c0,5.22,1.367,9.489,4.261,12.782,2.858,3.284,8.184,6.577,16,9.808,7.545,3.2,12.329,5.929,14.424,8.255a13.29,13.29,0,0,1,3.089,9.205c0,5.059-1.456,9-4.633,12.01-3,2.885-7.279,4.412-12.587,4.412a25.979,25.979,0,0,1-9.9-2.228A46.021,46.021,0,0,1,756.664,393v7.927a43.6,43.6,0,0,0,10.43,5.495,32.45,32.45,0,0,0,10.528,1.775c7.039,0,12.72-2,17.264-6.276a21.238,21.238,0,0,0,6.817-16.191M834.848,324.8h-6.933v82.3h6.933Zm74.394,80.368a34.917,34.917,0,0,0,11.948-5.734,39.67,39.67,0,0,0,11.9-14.5,45.117,45.117,0,0,0,0-38.089,39.744,39.744,0,0,0-11.9-14.5,36.086,36.086,0,0,0-11.841-5.752,65.6,65.6,0,0,0-15.836-1.784h-28.2v82.3h28.2a57.406,57.406,0,0,0,15.729-1.935m-36.962-3.923V330.672h19.59a66.354,66.354,0,0,1,13.785,1.4,30.06,30.06,0,0,1,10.039,4.207,32.6,32.6,0,0,1,10.732,12.5,38.646,38.646,0,0,1,3.773,17.238,39.714,39.714,0,0,1-3.773,17.283,33.48,33.48,0,0,1-10.732,12.48,30.274,30.274,0,0,1-10.039,4.234,68.027,68.027,0,0,1-13.785,1.234Zm111.213-73.311-33.837,79.169h6.569l11.531-27.384h34.068l11.557,27.384h6.578l-33.846-79.169ZM969.9,374.362l14.975-35.586,14.788,35.586Zm117.7,30.81a32.812,32.812,0,0,0,11.895-5.734,38.819,38.819,0,0,0,11.9-14.5,44.443,44.443,0,0,0,0-38.089,38.889,38.889,0,0,0-11.9-14.5,33.842,33.842,0,0,0-11.779-5.752,66.381,66.381,0,0,0-15.88-1.784h-28.068v82.3h28.068a57.493,57.493,0,0,0,15.764-1.935m-37.015-3.923V330.672h19.644a66.266,66.266,0,0,1,13.776,1.4,29.959,29.959,0,0,1,10.021,4.207,31.493,31.493,0,0,1,10.661,12.5,37.31,37.31,0,0,1,3.852,17.238,38.321,38.321,0,0,1-3.852,17.283,32.313,32.313,0,0,1-10.661,12.48,30.172,30.172,0,0,1-10.021,4.234,67.936,67.936,0,0,1-13.776,1.234Z" transform="translate(71.406 -269.057)"/></g><g transform="translate(-9495.249 -23482.85)"><g transform="translate(0 0)"><path class="c" d="M294.825,389.912H290.8l-15.463-35.47h4.571l12.9,29.745,12.915-29.745H310.3Z" transform="translate(-275.341 -349.152)"/><path class="c" d="M285.413,356.965a2.709,2.709,0,0,1-2.8,2.716,2.685,2.685,0,1,1,0-5.37A2.737,2.737,0,0,1,285.413,356.965ZM280.6,390.944v-26.07h4.083v26.07Z" transform="translate(-239.637 -350.184)"/><path class="c" d="M308.681,383.275c0,7.35-6.107,12.1-13.714,12.1-6.533,0-10.8-2.547-12.862-6.737l3.48-2.654c1.82,3.515,4.438,5.477,9.383,5.477,5.281,0,9.631-3.382,9.684-8.716V377.78a12.318,12.318,0,0,1-10.377,5.059c-6.959,0-13.031-5.477-13.031-13.732,0-8.273,6.072-13.679,13.031-13.679a12.439,12.439,0,0,1,10.377,4.98v-4.341h4.03Zm-4.03-14.167a9.892,9.892,0,0,0-9.747-10.172c-5.406,0-9.746,3.968-9.746,10.172,0,6.223,4.341,10.1,9.746,10.1A9.817,9.817,0,0,0,304.651,369.108Z" transform="translate(-228.846 -341.378)"/><path class="c" d="M290.9,356.965a2.728,2.728,0,0,1-2.814,2.716,2.686,2.686,0,1,1,0-5.37A2.756,2.756,0,0,1,290.9,356.965Zm-4.829,33.979v-26.07h4.083v26.07Z" transform="translate(-196.529 -350.184)"/><path class="c" d="M290.979,387.949a3.348,3.348,0,0,0,3.675,3.453,7.49,7.49,0,0,0,3.142-.8l.843,3.364a8.547,8.547,0,0,1-4.607,1.34,6.735,6.735,0,0,1-7.11-7.154V353.846h4.056Z" transform="translate(-184.115 -353.846)"/><path class="c" d="M311.77,365.211v16.927h-3.941v-3.95a11.682,11.682,0,0,1-9.791,4.651c-5.69,0-9.462-3.293-9.462-7.971,0-4.82,3.657-8.193,10.474-8.193h8.779v-1.181c0-4.083-2.645-6.56-6.648-6.56-3.968,0-6.737,2.015-7.314,5.282l-3.852-.87c.825-4.713,5.237-7.918,10.936-7.918C307.456,355.429,311.77,358.9,311.77,365.211Zm-3.941,6v-1.341h-8.823c-4.3,0-6.578,2.042-6.578,4.944,0,2.743,2.45,4.7,6.2,4.7C303.7,379.511,307.829,375.96,307.829,371.211Z" transform="translate(-171.096 -341.378)"/><path class="c" d="M319.252,394.607h-4.021v-4.358a12.3,12.3,0,0,1-10.394,5.059c-6.942,0-13.013-5.477-13.013-13.732,0-8.273,6.072-13.679,13.013-13.679a12.425,12.425,0,0,1,10.394,4.98V353.846h4.021Zm-4.021-13.031a9.879,9.879,0,0,0-9.737-10.172c-5.406,0-9.738,3.968-9.738,10.172,0,6.223,4.332,10.1,9.738,10.1A9.8,9.8,0,0,0,315.231,381.576Z" transform="translate(-145.513 -353.846)"/><path class="c" d="M318.885,365.211v16.927h-3.914v-3.95a11.72,11.72,0,0,1-9.773,4.651c-5.716,0-9.507-3.293-9.507-7.971,0-4.82,3.657-8.193,10.51-8.193h8.77v-1.181c0-4.083-2.628-6.56-6.675-6.56-3.95,0-6.719,2.015-7.261,5.282l-3.888-.87c.834-4.713,5.255-7.918,10.954-7.918C314.616,355.429,318.885,358.9,318.885,365.211Zm-3.914,6v-1.341h-8.823c-4.314,0-6.577,2.042-6.577,4.944,0,2.743,2.441,4.7,6.2,4.7C310.825,379.511,314.971,375.96,314.971,371.211Z" transform="translate(-115.054 -341.378)"/><path class="c" d="M338.942,389.912h-4V363.9l-13.714,26.008h-2.69L304.759,363.9v26.008h-4.048v-35.47h3.7l15.436,29.239,15.436-29.239h3.657Z" transform="translate(-75.514 -349.152)"/><path class="c" d="M311.579,356.965a2.71,2.71,0,0,1-2.805,2.716,2.686,2.686,0,1,1,0-5.37A2.737,2.737,0,0,1,311.579,356.965Zm-4.785,33.979v-26.07h4.039v26.07Z" transform="translate(-33.611 -350.184)"/><path class="c" d="M331.993,366.543v15.6h-4.03V367.252c0-4.8-2.885-8.122-7.252-8.122-5.468,0-9.036,3.675-9.036,10.474v12.534h-4v-26.07h4v4.341c2.068-3.2,5.441-4.98,9.853-4.98C327.821,355.429,331.993,359.912,331.993,366.543Z" transform="translate(-20.686 -341.378)"/><path class="c" d="M337.434,369.942h-22.4c.337,5.859,4.794,9.365,9.294,9.365,3.7,0,7.048-1.429,8.876-5.646l3.586.87c-2.006,5.432-6.6,8.308-12.463,8.308a13.189,13.189,0,0,1-13.2-13.652c0-8.415,6.285-13.759,13.43-13.759,7.092,0,12.578,5.22,12.88,12.986ZM315.2,366.9h18.135c-.737-5.113-4.385-7.962-8.779-7.962A9.376,9.376,0,0,0,315.2,366.9Z" transform="translate(6.504 -341.378)"/><path class="c" d="M341.993,394.607h-4.056v-4.358a12.19,12.19,0,0,1-10.332,5.059c-6.95,0-13-5.477-13-13.732,0-8.273,6.054-13.679,13-13.679a12.308,12.308,0,0,1,10.332,4.98V353.846h4.056Zm-4.056-13.031a9.858,9.858,0,0,0-9.711-10.172c-5.4,0-9.773,3.968-9.773,10.172,0,6.223,4.376,10.1,9.773,10.1A9.783,9.783,0,0,0,337.936,381.576Z" transform="translate(33.882 -353.846)"/><path class="c" d="M343.079,381.527H339v-4.216a11.322,11.322,0,0,1-9.817,4.926c-6.3,0-10.518-4.5-10.518-11.149V355.5h4.1v14.886c0,4.847,2.84,8.042,7.181,8.042,5.468,0,9.054-3.6,9.054-10.4V355.5h4.083Z" transform="translate(65.861 -340.811)"/><path class="c" d="M344.43,373.2l3.719.985a12.631,12.631,0,0,1-12.374,8.655,13.706,13.706,0,0,1,0-27.411,12.64,12.64,0,0,1,12.391,8.637l-3.87,1.18a8.593,8.593,0,0,0-8.521-6.116,9.566,9.566,0,0,0-9.666,9.977c0,6.107,4.34,9.986,9.666,9.986A8.906,8.906,0,0,0,344.43,373.2Z" transform="translate(93.625 -341.378)"/><path class="c" d="M348.755,365.211v16.927h-3.861v-3.95a11.918,11.918,0,0,1-9.817,4.651c-5.725,0-9.453-3.293-9.453-7.971,0-4.82,3.6-8.193,10.466-8.193h8.805v-1.181c0-4.083-2.734-6.56-6.666-6.56-4,0-6.8,2.015-7.323,5.282l-3.888-.87c.861-4.713,5.237-7.918,10.954-7.918C344.5,355.429,348.755,358.9,348.755,365.211Zm-3.861,6v-1.341h-8.867c-4.314,0-6.578,2.042-6.578,4.944,0,2.743,2.4,4.7,6.169,4.7C340.74,379.511,344.894,375.96,344.894,371.211Z" transform="translate(120.705 -341.378)"/><path class="c" d="M351.093,373.2l3.71.985c-1.518,5.211-6.524,8.655-12.3,8.655a13.705,13.705,0,0,1,0-27.411,12.7,12.7,0,0,1,12.4,8.637l-3.879,1.18a8.622,8.622,0,0,0-8.521-6.116,9.568,9.568,0,0,0-9.7,9.977c0,6.107,4.332,9.986,9.7,9.986A8.805,8.805,0,0,0,351.093,373.2Z" transform="translate(146.248 -341.378)"/><path class="c" d="M338.048,356.965a2.758,2.758,0,1,1-2.779-2.654A2.666,2.666,0,0,1,338.048,356.965Zm-4.811,33.979v-26.07h4.1v26.07Z" transform="translate(175.155 -350.184)"/><path class="c" d="M361.521,378.857a13.808,13.808,0,0,1-27.615,0c0-8.06,6.089-13.617,13.865-13.617C355.449,365.24,361.521,370.8,361.521,378.857Zm-3.915,0a9.9,9.9,0,1,0-19.8,0,9.9,9.9,0,1,0,19.8,0Zm-11.335-17.238,4.261-7.43h4.722l-5.415,7.43Z" transform="translate(185.946 -351.145)"/><path class="c" d="M362.138,366.543v15.6h-3.994V367.252c0-4.8-2.965-8.122-7.261-8.122-5.495,0-9.054,3.675-9.054,10.474v12.534H337.8v-26.07h4.03v4.341a11.1,11.1,0,0,1,9.8-4.98C357.931,355.429,362.138,359.912,362.138,366.543Z" transform="translate(216.609 -341.378)"/></g></g></g></g></svg>