<svg xmlns="http://www.w3.org/2000/svg" width="1598" height="715" viewBox="0 0 1598 715"><defs><style>.a{fill:none;}.b{fill:#ff893b;}.c{fill:#394024;}</style></defs><g transform="translate(13514 22609)"><rect class="a" width="1598" height="715" transform="translate(-13514 -22609)"/><g transform="translate(-13455.137 -22549.514)"><g transform="translate(0 0)"><g transform="translate(594.852)"><path class="b" d="M343.805,756.221c-29.2-70.888-39.48-144.285-39.48-219.984,0-32.623,2.08-65.324,7.524-97.52H339.7c-6.729,30.629-8.817,62.011-8.817,93.282,0,65.692,8.158,135.553,27.17,198.865,19-63.312,27.153-133.173,27.153-198.865,0-31.271-2.089-62.653-8.808-93.282h27.83c5.453,32.2,7.542,64.9,7.542,97.52,0,75.7-10.281,149.1-39.472,219.984Z" transform="translate(-213.338 -391.47)"/><path class="b" d="M324,449.263a6.187,6.187,0,1,1-.4,8.74A6.188,6.188,0,0,1,324,449.263Z" transform="translate(-79.77 -323.876)"/><path class="b" d="M324,451.507a6.187,6.187,0,1,1-.4,8.732A6.2,6.2,0,0,1,324,451.507Z" transform="translate(-79.77 -306.92)"/><path class="b" d="M325.537,453.26a6.184,6.184,0,1,1-.394,8.732A6.173,6.173,0,0,1,325.537,453.26Z" transform="translate(-68.222 -293.692)"/><path class="b" d="M323.549,459.109a6.187,6.187,0,1,1-.4,8.732A6.184,6.184,0,0,1,323.549,459.109Z" transform="translate(-83.21 -249.472)"/><path class="b" d="M323.679,461.193a6.185,6.185,0,1,1-.839,8.714A6.181,6.181,0,0,1,323.679,461.193Z" transform="translate(-83.999 -232.124)"/><path class="b" d="M325.2,462.961a6.186,6.186,0,1,1-.976,8.689A6.171,6.171,0,0,1,325.2,462.961Z" transform="translate(-73.014 -218.321)"/><path class="b" d="M325.086,457.7a6.187,6.187,0,1,1-.411,8.732A6.174,6.174,0,0,1,325.086,457.7Z" transform="translate(-71.649 -260.034)"/><path class="b" d="M322.589,468.441a6.188,6.188,0,1,1-1.455,8.629A6.2,6.2,0,0,1,322.589,468.441Z" transform="translate(-94.877 -175.357)"/><path class="b" d="M322.539,470.867a6.184,6.184,0,1,1-1.687,8.578A6.185,6.185,0,0,1,322.539,470.867Z" transform="translate(-96.282 -156.289)"/><path class="b" d="M324.288,467.221a6.189,6.189,0,1,1-1.455,8.629A6.187,6.187,0,0,1,324.288,467.221Z" transform="translate(-82.006 -184.572)"/><path class="b" d="M326.036,447.524a6.191,6.191,0,1,1,2.876,8.269A6.208,6.208,0,0,1,326.036,447.524Z" transform="translate(-53.87 -351.14)"/><path class="b" d="M326.092,447.4a6.184,6.184,0,1,1,5.864,6.48A6.172,6.172,0,0,1,326.092,447.4Z" transform="translate(-48.832 -370.248)"/><path class="b" d="M326.092,446.116a6.186,6.186,0,1,1,7.225,4.922A6.2,6.2,0,0,1,326.092,446.116Z" transform="translate(-49.594 -390.967)"/><path class="b" d="M325.944,445.555a6.185,6.185,0,1,1,8.466,2.217A6.186,6.186,0,0,1,325.944,445.555Z" transform="translate(-56.269 -410.121)"/><path class="b" d="M325.813,447.6a6.181,6.181,0,1,1-.411,8.732A6.168,6.168,0,0,1,325.813,447.6Z" transform="translate(-66.127 -336.52)"/><path class="b" d="M308.136,449.263a6.187,6.187,0,1,0,.4,8.74A6.177,6.177,0,0,0,308.136,449.263Z" transform="translate(-262.751 -323.876)"/><path class="b" d="M308.136,451.507a6.187,6.187,0,1,0,.4,8.732A6.191,6.191,0,0,0,308.136,451.507Z" transform="translate(-262.751 -306.92)"/><path class="b" d="M306.6,453.26a6.181,6.181,0,1,0,.411,8.732A6.174,6.174,0,0,0,306.6,453.26Z" transform="translate(-274.304 -293.692)"/><path class="b" d="M308.591,459.109a6.187,6.187,0,1,0,.4,8.732A6.174,6.174,0,0,0,308.591,459.109Z" transform="translate(-259.311 -249.472)"/><path class="b" d="M308.449,461.193a6.185,6.185,0,1,0,.856,8.714A6.173,6.173,0,0,0,308.449,461.193Z" transform="translate(-258.518 -232.124)"/><path class="b" d="M306.929,462.961a6.183,6.183,0,1,0,.985,8.689A6.163,6.163,0,0,0,306.929,462.961Z" transform="translate(-269.505 -218.321)"/><path class="b" d="M307.067,457.7a6.19,6.19,0,1,0,.4,8.732A6.2,6.2,0,0,0,307.067,457.7Z" transform="translate(-270.875 -260.034)"/><path class="b" d="M309.564,468.441a6.19,6.19,0,1,0,1.447,8.629A6.209,6.209,0,0,0,309.564,468.441Z" transform="translate(-247.648 -175.357)"/><path class="b" d="M309.6,470.867a6.184,6.184,0,1,0,1.695,8.578A6.187,6.187,0,0,0,309.6,470.867Z" transform="translate(-246.234 -156.289)"/><path class="b" d="M307.844,467.221a6.186,6.186,0,1,0,1.464,8.629A6.176,6.176,0,0,0,307.844,467.221Z" transform="translate(-260.516 -184.572)"/><path class="b" d="M306.1,447.524a6.179,6.179,0,1,0-2.868,8.269A6.184,6.184,0,0,0,306.1,447.524Z" transform="translate(-288.66 -351.14)"/><path class="b" d="M306.064,447.4a6.188,6.188,0,1,0-5.881,6.48A6.195,6.195,0,0,0,306.064,447.4Z" transform="translate(-293.696 -370.248)"/><path class="b" d="M306.063,446.116a6.186,6.186,0,1,0-7.233,4.922A6.195,6.195,0,0,0,306.063,446.116Z" transform="translate(-292.941 -390.967)"/><path class="b" d="M306.2,445.555a6.188,6.188,0,1,0-8.458,2.217A6.176,6.176,0,0,0,306.2,445.555Z" transform="translate(-286.267 -410.121)"/><path class="b" d="M306.329,447.6a6.184,6.184,0,1,0,.411,8.732A6.168,6.168,0,0,0,306.329,447.6Z" transform="translate(-276.395 -336.52)"/><g transform="translate(11.884)"><path class="b" d="M387.592,725.486,352.3,700.6a6.533,6.533,0,0,1-1.027-9.185l23.6-27.624a13.084,13.084,0,0,0-.856-18.525l-29.559-26.931a6.535,6.535,0,0,1-.428-9.228l26.956-29.55a13.1,13.1,0,0,0-.847-18.516l-39.155-35.765c-5.342-4.871-5.213-12.789-.839-18.525l40.739-54.409c4-5.239,3.758-11.377-.711-15.426-2.226-2.029-6.626-4.4-14.655-3.536-38.436,4.135-64.229,37.828-59.974,76.778,2.131,19.578,9.1,26.606,12.943,30.1l29.473,26.923a6.526,6.526,0,0,1,.428,9.228l-26.948,29.533a13.121,13.121,0,0,0,.856,18.525l29.55,26.939a6.549,6.549,0,0,1,.437,9.246l-23.729,29.721A13.122,13.122,0,0,0,320.6,708.8l35.363,25.218a6.532,6.532,0,0,1,1.113,9.177l-15.229,22.771a13.111,13.111,0,1,0,21.315,15.272l26.657-37.349A13.1,13.1,0,0,0,387.592,725.486ZM337.874,450.348a5.266,5.266,0,1,1,.351,7.447A5.27,5.27,0,0,1,337.874,450.348Z" transform="translate(-295.084 -433.199)"/><path class="b" d="M351.845,433.382c-8.038-.865-12.43,1.507-14.655,3.536-4.46,4.049-4.725,10.187-.71,15.426l40.747,54.409c4.366,5.736,4.494,13.654-.848,18.525l-39.155,35.765a13.1,13.1,0,0,0-.856,18.516l26.974,29.55a6.528,6.528,0,0,1-.437,9.228l-29.567,26.931a13.115,13.115,0,0,0-.865,18.525l23.61,27.624a6.517,6.517,0,0,1-1.019,9.185l-35.294,24.885a13.1,13.1,0,0,0-2.226,18.4L344.2,781.24a13.114,13.114,0,0,0,21.324-15.272L350.278,743.2a6.541,6.541,0,0,1,1.121-9.177L386.762,708.8a13.115,13.115,0,0,0,2.046-18.431l-23.721-29.721a6.541,6.541,0,0,1,.428-9.246l29.55-26.939a13.114,13.114,0,0,0,.856-18.525l-26.94-29.533a6.526,6.526,0,0,1,.419-9.228l29.482-26.923c3.827-3.492,10.812-10.52,12.943-30.1C416.073,471.21,390.272,437.516,351.845,433.382Zm17.3,24.414a5.266,5.266,0,1,1,.351-7.447A5.266,5.266,0,0,1,369.145,457.8Z" transform="translate(-146.426 -433.199)"/></g></g><g transform="translate(0 413.125)"><g transform="translate(854.648)"><path class="c" d="M341.046,534.841h40.071V519.27H341.046V496.893h41.2V481.528h-58.2v91.964h59.546v-15.58H341.046Zm68.706-46.954H392.7v85.6h59.922V558.879h-42.87ZM530.615,524.3a20.459,20.459,0,0,0,5.83-5.307c2.508-3.424,3.621-7.687,3.621-12.532,0-7.79-2.628-14.176-7.944-18.576-5.307-4.426-12.541-6.429-21.675-6.429H482.4v92.032h32.863c9.442,0,17.2-2.32,23.07-7a23.189,23.189,0,0,0,8.843-19.1,23.494,23.494,0,0,0-5.753-15.82,27.379,27.379,0,0,0-10.812-7.268M499.2,497.013h9.947c5.222,0,8.646.933,10.512,2.456a7.534,7.534,0,0,1,2.123,3,14.282,14.282,0,0,1,.728,4.785c0,4.255-1.267,6.883-3.826,8.826-2.466,1.84-6.831,3.022-13.063,3.022H499.2Zm26.914,58c-2.191,1.669-6.258,2.834-12.19,2.722H499.2v-23H511.85c6.66,0,11.274,1.147,13.8,3,2.508,1.9,3.826,4.426,3.826,8.766,0,4.237-1.121,6.788-3.364,8.509m154.917-31.664h0l-1.815-1a57.364,57.364,0,0,1-10.735-7.593,11.761,11.761,0,0,1-2.354-2.987,3.565,3.565,0,0,1-.719-2.038,5.733,5.733,0,0,1,2.714-4.973,13.245,13.245,0,0,1,7.961-2.192,23.263,23.263,0,0,1,8.672,1.652,44.2,44.2,0,0,1,9.724,5.864l3.45,2.568V494.334l-1.036-.625a50.514,50.514,0,0,0-10.1-4.229,39.169,39.169,0,0,0-10.187-1.43c-7.662,0-14.245,2.14-19.346,6.386a21.092,21.092,0,0,0-7.7,16.59,19.98,19.98,0,0,0,4.066,12.567,36.511,36.511,0,0,0,6.737,6.009c3.081,2.329,7.036,4.88,11.839,7.833,3.013,1.712,5.444,3.339,7.328,4.657a26.609,26.609,0,0,1,3.827,3.176,8.574,8.574,0,0,1,1.943,5.316,6.755,6.755,0,0,1-2.834,5.641c-1.875,1.421-4.7,2.294-8.578,2.294a21.491,21.491,0,0,1-10.187-2.457,41.6,41.6,0,0,1-10.332-8.3l-3.724-4.023V565l.933.6a34.542,34.542,0,0,0,11.111,6.009,39.457,39.457,0,0,0,12.96,1.969c7.687,0,14.262-2.14,19.321-6.352a20.854,20.854,0,0,0,7.756-16.478c0-5.573-1.31-10.443-4.135-14.407-2.833-4.058-8.312-8.235-16.564-12.986M788.05,559.332a40.526,40.526,0,0,0,9.553-26.76,45.964,45.964,0,0,0-3.373-17.471,45.241,45.241,0,0,0-10.084-14.484,44.258,44.258,0,0,0-14.767-9.63,47.459,47.459,0,0,0-17.668-3.356,46.483,46.483,0,0,0-17.5,3.356,45.636,45.636,0,0,0-14.886,9.63,44.194,44.194,0,0,0-9.887,14.313,41.306,41.306,0,0,0-3.578,16.83,43.525,43.525,0,0,0,9.5,27.77,44.211,44.211,0,0,0,24.56,15.614,112.857,112.857,0,0,0,21.306,12.2c6.943,2.919,13.226,4.349,18.944,4.349h1.661a6.563,6.563,0,0,0,1.4-.154l.685-.094,12.593-11.077-.95-2.654-.7-1.669-1.669.368a40.352,40.352,0,0,1-4.366.668,19.541,19.541,0,0,1-3.45.214,43.877,43.877,0,0,1-10.332-1.344c-2.217-.633-4.777-1.515-7.49-2.56,8.3-3.1,15.272-7.687,20.493-14.056m-9.365-17.677a28.583,28.583,0,0,1-6.3,9.365l-.094.094a29.219,29.219,0,0,1-9.451,6.531,29.632,29.632,0,0,1-11.128,2.191,28.527,28.527,0,0,1-11.154-2.268,30.608,30.608,0,0,1-9.485-6.455v-.094a27.176,27.176,0,0,1-6.249-9.365,27.807,27.807,0,0,1-2.209-11.154,28.524,28.524,0,0,1,2.209-11.291,27.275,27.275,0,0,1,6.2-9.322,30.534,30.534,0,0,1,9.647-6.437,28.921,28.921,0,0,1,22.171,0,27.317,27.317,0,0,1,9.4,6.351,29.105,29.105,0,0,1,6.446,9.648,27.385,27.385,0,0,1,2.183,11.051,28.382,28.382,0,0,1-2.183,11.154M863.1,540.5c-.086,5.47-1.823,9.545-5.735,12.8-3.8,3.2-8.928,4.991-15.648,4.991a26.219,26.219,0,0,1-10.332-1.96,20.755,20.755,0,0,1-7.807-5.744,11.2,11.2,0,0,1-2.346-4.794c-.531-1.832-.839-5.385-.839-10.521v-47.3h-15.82V535.74c0,6.532.445,11.394,1.447,14.844a24.278,24.278,0,0,0,4.828,9.185,35.451,35.451,0,0,0,13.371,10.255,43.225,43.225,0,0,0,17.5,3.467c10.743,0,19.809-3.013,26.717-9.022,6.994-5.949,10.521-14.065,10.392-23.618V487.965H863.1Zm42.879,18.217V537.743h40.328V523.088H905.977V502.92h41.595V488.35h-58.63V573.3H948.9V558.716ZM630.557,499.975a45.88,45.88,0,0,0-14.852-9.434,50.1,50.1,0,0,0-17.806-3.27,48.621,48.621,0,0,0-17.48,3.27,44.093,44.093,0,0,0-14.929,9.434,42.908,42.908,0,0,0-10.11,14.013,41.376,41.376,0,0,0-3.518,16.513,42.141,42.141,0,0,0,13.628,31.305,45.355,45.355,0,0,0,14.844,9.365,49.853,49.853,0,0,0,35.269.077,47.5,47.5,0,0,0,15.049-9.442,44.291,44.291,0,0,0,9.981-13.97,41.149,41.149,0,0,0,3.45-16.641,42.649,42.649,0,0,0-3.364-16.958,43.255,43.255,0,0,0-10.161-14.262m-5.487,41.749a28.66,28.66,0,0,1-6.292,9.237,28.158,28.158,0,0,1-9.45,6.164,31.663,31.663,0,0,1-22.753,0,30.086,30.086,0,0,1-9.408-6.164,27.024,27.024,0,0,1-6.3-9.237,26.485,26.485,0,0,1-2.217-10.872,27.551,27.551,0,0,1,8.518-20.057,32.835,32.835,0,0,1,9.673-6.283,30.092,30.092,0,0,1,22.291,0,27.862,27.862,0,0,1,9.493,6.283,28.787,28.787,0,0,1,6.523,9.357,27.435,27.435,0,0,1,2.123,10.7,26.89,26.89,0,0,1-2.2,10.872" transform="translate(-324.045 -481.459)"/></g><path class="c" d="M260.888,573.414c11.368,0,20.365-3.587,27.016-10.692,6.54-7.139,10-16.8,10-28.823V481.459h-7.559v52.869c0,9.63-2.654,17.275-7.85,22.976-5.47,5.658-12.6,8.594-21.606,8.594-8.963,0-16.111-2.936-21.392-8.594-5.41-5.7-8.081-13.346-8.081-22.976V481.459h-7.208V533.9c0,12.147,3.253,21.82,9.879,28.823,6.617,7.105,15.6,10.692,26.8,10.692m71.753-78.327L390.749,565.2h5.838v-79.26h-6.258v69.073l-57.449-69.073H326.3V565.2h6.343ZM425.375,566.4h6.754V487.015h-6.754Zm63.818,1.31,33.291-80.681h-6.746l-27.093,66.583-26.777-66.583h-7.045l33.411,80.681Zm95.636-6.746H547.685V528.729h35v-5.093h-35V492.177H583.9v-5.145H541.342V566.4h43.487Zm34.224-32.726h6.386a45.364,45.364,0,0,1,10.1.907,11.728,11.728,0,0,1,5.582,3.039,56.662,56.662,0,0,1,4.169,5.29c1.738,2.38,3.972,5.539,6.352,9.425l12.549,19.5h7.114l-21.658-33.394a23.859,23.859,0,0,0-3-3.861,32.1,32.1,0,0,0-3.981-2.885c5-1.584,8.757-4.006,11.231-7.276,2.517-3.2,3.706-7.276,3.706-12.053,0-6.437-2.131-11.342-6.6-14.758-4.528-3.433-10.837-5.145-19.141-5.145H612.8V566.4h6.249Zm0-35.791h13.174c5.932,0,10.435,1.155,13.748,3.809,3.167,2.517,4.725,6.069,4.725,10.675a15.933,15.933,0,0,1-2.063,8.518,13.687,13.687,0,0,1-6.514,5.333,23.782,23.782,0,0,1-5.787,1.643c-2.44.223-6.515.36-12.4.36h-4.879Zm112.491,53.331a24.083,24.083,0,0,0-1.258-7.525,21.807,21.807,0,0,0-3.869-6.326c-2.5-2.782-7.422-5.667-14.527-8.569-.788-.394-1.3-.574-1.695-.831-6.506-2.756-10.683-5.128-12.567-7.37a11.88,11.88,0,0,1-2.91-8.44A14.053,14.053,0,0,1,699.186,496a16.659,16.659,0,0,1,11.608-4.22,25.451,25.451,0,0,1,8.749,1.567,41.038,41.038,0,0,1,9.391,5.016v-7.1a44.529,44.529,0,0,0-8.851-3.964,35.346,35.346,0,0,0-8.98-1.352c-6.763,0-12.173,2-16.384,5.975a19.6,19.6,0,0,0-6.343,15.015c0,5.016,1.335,9.151,4.109,12.336,2.765,3.158,7.9,6.334,15.451,9.459,7.276,3.073,11.89,5.7,13.894,7.944a12.845,12.845,0,0,1,2.988,8.886c0,4.88-1.4,8.689-4.477,11.591-2.876,2.791-7.011,4.255-12.13,4.255a25.011,25.011,0,0,1-9.536-2.166,43.644,43.644,0,0,1-10.564-6.455v7.644a41.643,41.643,0,0,0,10.059,5.307,31.355,31.355,0,0,0,10.161,1.721c6.78,0,12.267-1.943,16.65-6.052a20.521,20.521,0,0,0,6.566-15.623m31.973-58.75h-6.686V566.4h6.686Zm71.753,77.514A33.989,33.989,0,0,0,846.784,559a38.323,38.323,0,0,0,11.48-13.979,43.614,43.614,0,0,0,0-36.741,38.249,38.249,0,0,0-11.48-13.979,34.809,34.809,0,0,0-11.4-5.556,63.6,63.6,0,0,0-15.289-1.712h-27.2V566.4h27.2a56.147,56.147,0,0,0,15.178-1.857m-35.645-3.8V492.682h18.884a63.861,63.861,0,0,1,13.294,1.353,28.879,28.879,0,0,1,9.665,4.049,31.366,31.366,0,0,1,10.358,12.07,37.152,37.152,0,0,1,3.638,16.624,38.167,38.167,0,0,1-3.638,16.659,32.022,32.022,0,0,1-10.358,12.036,29.084,29.084,0,0,1-9.665,4.083,65.459,65.459,0,0,1-13.294,1.19Zm107.236-70.691L874.237,566.4h6.335l11.12-26.417h32.846L935.683,566.4h6.343l-32.641-76.349Zm-13.1,44.762L908.2,500.5l14.262,34.318Zm113.51,29.73A31.961,31.961,0,0,0,1018.745,559a37.575,37.575,0,0,0,11.479-13.979,42.958,42.958,0,0,0,0-36.741,37.5,37.5,0,0,0-11.479-13.979,32.648,32.648,0,0,0-11.36-5.556,63.912,63.912,0,0,0-15.306-1.712H965V566.4h27.076a56.189,56.189,0,0,0,15.2-1.857m-35.705-3.8V492.682h18.953a63.621,63.621,0,0,1,13.277,1.353,28.729,28.729,0,0,1,9.665,4.049,30.544,30.544,0,0,1,10.306,12.07,36.284,36.284,0,0,1,3.69,16.624,37.263,37.263,0,0,1-3.69,16.659,31.162,31.162,0,0,1-10.306,12.036,28.931,28.931,0,0,1-9.665,4.083,65.219,65.219,0,0,1-13.277,1.19Z" transform="translate(-224.207 -481.459)"/></g></g><g transform="translate(447.253 541.933)"><path class="c" d="M296.143,532.982h-4.058l-15.631-35.851h4.622l13.029,30.055,13.063-30.055h4.623Z" transform="translate(-276.454 -491.781)"/><path class="c" d="M286.8,499.674a2.744,2.744,0,0,1-2.833,2.748,2.714,2.714,0,1,1,0-5.427A2.764,2.764,0,0,1,286.8,499.674Zm-4.863,34.344V507.66h4.126v26.357Z" transform="translate(-240.535 -492.817)"/><path class="c" d="M310.377,526.311c0,7.439-6.172,12.241-13.859,12.241-6.609,0-10.932-2.568-13-6.805l3.518-2.7c1.832,3.561,4.477,5.547,9.485,5.547,5.333,0,9.716-3.416,9.784-8.809v-5.025a12.437,12.437,0,0,1-10.486,5.111c-7.037,0-13.174-5.53-13.174-13.876s6.138-13.834,13.174-13.834a12.552,12.552,0,0,1,10.486,5.059v-4.409h4.075ZM306.3,512a10,10,0,0,0-9.844-10.281c-5.47,0-9.862,4.015-9.862,10.281,0,6.309,4.391,10.23,9.862,10.23A9.925,9.925,0,0,0,306.3,512Z" transform="translate(-229.678 -483.971)"/><path class="c" d="M292.558,499.674a2.764,2.764,0,0,1-2.85,2.748,2.714,2.714,0,1,1,0-5.427A2.785,2.785,0,0,1,292.558,499.674Zm-4.888,34.344V507.66H291.8v26.357Z" transform="translate(-197.161 -492.817)"/><path class="c" d="M292.693,530.97a3.385,3.385,0,0,0,3.707,3.492,7.638,7.638,0,0,0,3.184-.8l.847,3.4a8.607,8.607,0,0,1-4.648,1.344c-4.34,0-7.191-2.894-7.191-7.234V496.506h4.1Z" transform="translate(-184.679 -496.506)"/><path class="c" d="M313.773,508.06v17.112h-3.989v-3.989a11.807,11.807,0,0,1-9.9,4.691c-5.744,0-9.553-3.321-9.553-8.038,0-4.879,3.7-8.295,10.589-8.295h8.869v-1.19c0-4.118-2.671-6.634-6.72-6.634-4.015,0-6.805,2.029-7.388,5.333l-3.895-.864c.83-4.777,5.29-8.021,11.051-8.021C309.407,498.164,313.773,501.683,313.773,508.06Zm-3.989,6.069v-1.361h-8.911c-4.349,0-6.651,2.054-6.651,5,0,2.756,2.474,4.742,6.258,4.742C305.615,522.51,309.784,518.94,309.784,514.129Z" transform="translate(-171.577 -483.971)"/><path class="c" d="M321.448,537.707H317.4V533.3a12.452,12.452,0,0,1-10.512,5.111c-7.02,0-13.157-5.53-13.157-13.876s6.138-13.834,13.157-13.834a12.567,12.567,0,0,1,10.512,5.059V496.506h4.049ZM317.4,524.533a9.994,9.994,0,0,0-9.853-10.281c-5.461,0-9.844,4.015-9.844,10.281,0,6.309,4.383,10.23,9.844,10.23A9.921,9.921,0,0,0,317.4,524.533Z" transform="translate(-145.841 -496.506)"/><path class="c" d="M321.222,508.06v17.112h-3.955v-3.989a11.843,11.843,0,0,1-9.887,4.691c-5.778,0-9.6-3.321-9.6-8.038,0-4.879,3.689-8.295,10.615-8.295h8.869v-1.19c0-4.118-2.662-6.634-6.754-6.634-3.989,0-6.78,2.029-7.336,5.333l-3.929-.864c.847-4.777,5.316-8.021,11.068-8.021C316.9,498.164,321.222,501.683,321.222,508.06Zm-3.955,6.069v-1.361h-8.928c-4.349,0-6.643,2.054-6.643,5,0,2.756,2.465,4.742,6.266,4.742C313.082,522.51,317.267,518.94,317.267,514.129Z" transform="translate(-115.192 -483.971)"/><path class="c" d="M341.686,532.982h-4.049V506.693l-13.859,26.289h-2.722l-13.928-26.289v26.289h-4.083V497.131h3.732l15.614,29.55,15.6-29.55h3.7Z" transform="translate(-75.417 -491.781)"/><path class="c" d="M314.228,499.674a2.744,2.744,0,0,1-2.834,2.748,2.714,2.714,0,1,1,0-5.427A2.764,2.764,0,0,1,314.228,499.674Zm-4.845,34.344V507.66h4.092v26.357Z" transform="translate(-33.26 -492.817)"/><path class="c" d="M334.926,509.413v15.76h-4.075V510.123c0-4.854-2.91-8.2-7.336-8.2-5.53,0-9.134,3.707-9.134,10.581v12.669h-4.04V498.815h4.04v4.409c2.1-3.253,5.5-5.059,9.973-5.059C330.706,498.164,334.926,502.71,334.926,509.413Z" transform="translate(-20.256 -483.971)"/><path class="c" d="M340.546,512.854H317.913A9.581,9.581,0,0,0,327.3,522.3c3.741,0,7.131-1.438,8.971-5.7l3.621.873c-2.02,5.5-6.668,8.4-12.592,8.4a13.319,13.319,0,0,1-13.345-13.791c0-8.509,6.352-13.919,13.577-13.919,7.173,0,12.712,5.282,13.012,13.132Zm-22.462-3.107H336.4c-.736-5.153-4.426-8.029-8.868-8.029A9.471,9.471,0,0,0,318.084,509.746Z" transform="translate(7.089 -483.971)"/><path class="c" d="M345.287,537.707h-4.109V533.3a12.3,12.3,0,0,1-10.435,5.111c-7.037,0-13.14-5.53-13.14-13.876s6.1-13.834,13.14-13.834a12.411,12.411,0,0,1,10.435,5.059V496.506h4.109Zm-4.109-13.174a9.966,9.966,0,0,0-9.81-10.281c-5.461,0-9.879,4.015-9.879,10.281,0,6.309,4.417,10.23,9.879,10.23A9.893,9.893,0,0,0,341.178,524.533Z" transform="translate(34.647 -496.506)"/><path class="c" d="M346.554,524.555h-4.134v-4.263a11.472,11.472,0,0,1-9.93,4.973c-6.377,0-10.632-4.546-10.632-11.266V498.24h4.152v15.066c0,4.879,2.876,8.115,7.242,8.115,5.539,0,9.168-3.647,9.168-10.5V498.24h4.134Z" transform="translate(66.809 -483.397)"/><path class="c" d="M348.055,516.15l3.766.984a12.813,12.813,0,0,1-12.515,8.74,13.855,13.855,0,0,1,0-27.71c5.778,0,10.846,3.364,12.524,8.74l-3.912,1.2a8.68,8.68,0,0,0-8.611-6.181A9.661,9.661,0,0,0,329.531,512c0,6.172,4.383,10.084,9.776,10.084A8.992,8.992,0,0,0,348.055,516.15Z" transform="translate(94.729 -483.971)"/><path class="c" d="M352.542,508.06v17.112h-3.895v-3.989a12.074,12.074,0,0,1-9.939,4.691c-5.787,0-9.553-3.321-9.553-8.038,0-4.879,3.638-8.295,10.581-8.295h8.911v-1.19c0-4.118-2.773-6.634-6.746-6.634-4.058,0-6.865,2.029-7.413,5.333l-3.921-.864c.873-4.777,5.29-8.021,11.06-8.021C348.236,498.164,352.542,501.683,352.542,508.06Zm-3.895,6.069v-1.361h-8.98c-4.357,0-6.643,2.054-6.643,5,0,2.756,2.439,4.742,6.241,4.742C344.435,522.51,348.647,518.94,348.647,514.129Z" transform="translate(121.984 -483.971)"/><path class="c" d="M355.017,516.15l3.75.984c-1.533,5.256-6.6,8.74-12.43,8.74a13.855,13.855,0,0,1,0-27.71,12.808,12.808,0,0,1,12.515,8.74l-3.912,1.2a8.7,8.7,0,0,0-8.6-6.181A9.658,9.658,0,0,0,336.527,512c0,6.172,4.366,10.084,9.81,10.084A8.883,8.883,0,0,0,355.017,516.15Z" transform="translate(147.689 -483.971)"/><path class="c" d="M341.99,499.674a2.8,2.8,0,1,1-2.817-2.68A2.7,2.7,0,0,1,341.99,499.674Zm-4.88,34.344V507.66h4.152v26.357Z" transform="translate(176.759 -492.817)"/><path class="c" d="M365.762,521.794a13.962,13.962,0,0,1-27.924,0c0-8.141,6.155-13.757,14.013-13.757C359.6,508.037,365.762,513.653,365.762,521.794Zm-3.963,0a10.021,10.021,0,1,0-20.04,0,10.023,10.023,0,1,0,20.04,0Zm-11.471-17.412,4.306-7.516h4.776l-5.479,7.516Z" transform="translate(187.631 -493.785)"/><path class="c" d="M366.536,509.413v15.76h-4.058V510.123c0-4.854-2.97-8.2-7.31-8.2-5.556,0-9.177,3.707-9.177,10.581v12.669h-4.075V498.815h4.075v4.409a11.214,11.214,0,0,1,9.93-5.059C362.3,498.164,366.536,502.71,366.536,509.413Z" transform="translate(218.461 -483.971)"/></g></g></g></svg>