<svg xmlns="http://www.w3.org/2000/svg" width="1755" height="414" viewBox="0 0 1755 414"><defs><style>.a{fill:none;}.b{fill:#ff893b;}.c{fill:#394024;}</style></defs><g transform="translate(14072 23344)"><rect class="a" width="1755" height="414" transform="translate(-14072 -23344)"/><g transform="translate(-14004.181 -23275.951)"><g transform="translate(0 0)"><path class="b" d="M206.093,838.761C183.838,784.722,176,728.771,176,671.057a446.549,446.549,0,0,1,5.73-74.355h21.237c-5.13,23.345-6.722,47.277-6.722,71.118,0,50.084,6.207,103.346,20.708,151.609,14.5-48.263,20.708-101.525,20.708-151.609,0-23.841-1.579-47.773-6.722-71.118H252.17a445.872,445.872,0,0,1,5.73,74.355c0,57.713-7.825,113.664-30.08,167.7Z" transform="translate(-106.631 -560.676)"/><path class="b" d="M195.2,606.868a4.719,4.719,0,1,1-.307,6.663A4.708,4.708,0,0,1,195.2,606.868Z" transform="translate(-9.003 -511.269)"/><path class="b" d="M195.2,609.1a4.722,4.722,0,1,1-.307,6.67A4.727,4.727,0,0,1,195.2,609.1Z" transform="translate(-9.003 -498.869)"/><path class="b" d="M196.732,610.866a4.712,4.712,0,1,1-.32,6.657A4.709,4.709,0,0,1,196.732,610.866Z" transform="translate(-0.555 -489.207)"/><path class="b" d="M194.747,616.7a4.715,4.715,0,1,1-.307,6.663A4.713,4.713,0,0,1,194.747,616.7Z" transform="translate(-11.518 -456.877)"/><path class="b" d="M194.822,618.849a4.715,4.715,0,1,1-.646,6.644A4.7,4.7,0,0,1,194.822,618.849Z" transform="translate(-12.095 -444.201)"/><path class="b" d="M196.335,620.627a4.717,4.717,0,1,1-.75,6.625A4.712,4.712,0,0,1,196.335,620.627Z" transform="translate(-4.066 -434.108)"/><path class="b" d="M196.272,615.308a4.719,4.719,0,1,1-.307,6.664A4.737,4.737,0,0,1,196.272,615.308Z" transform="translate(-3.064 -464.599)"/><path class="b" d="M193.644,626.16a4.716,4.716,0,1,1-1.109,6.579A4.708,4.708,0,0,1,193.644,626.16Z" transform="translate(-20.042 -402.701)"/><path class="b" d="M193.563,628.6a4.716,4.716,0,1,1-1.286,6.54A4.72,4.72,0,0,1,193.563,628.6Z" transform="translate(-21.077 -388.762)"/><path class="b" d="M195.356,624.935a4.715,4.715,0,1,1-1.123,6.579A4.705,4.705,0,0,1,195.356,624.935Z" transform="translate(-10.639 -409.438)"/><path class="b" d="M197.566,604.684a4.714,4.714,0,1,1,2.186,6.3A4.7,4.7,0,0,1,197.566,604.684Z" transform="translate(9.935 -531.195)"/><path class="b" d="M197.763,603.985a4.718,4.718,0,1,1,4.484,4.941A4.716,4.716,0,0,1,197.763,603.985Z" transform="translate(13.609 -545.162)"/><path class="b" d="M197.74,602.353a4.713,4.713,0,1,1,5.508,3.752A4.716,4.716,0,0,1,197.74,602.353Z" transform="translate(13.057 -560.309)"/><path class="b" d="M197.422,601.329a4.712,4.712,0,1,1,6.448,1.684A4.706,4.706,0,0,1,197.422,601.329Z" transform="translate(8.18 -574.309)"/><path class="b" d="M197.007,605.2a4.715,4.715,0,1,1-.307,6.67A4.723,4.723,0,0,1,197.007,605.2Z" transform="translate(0.972 -520.509)"/><path class="b" d="M177.346,606.868a4.717,4.717,0,1,0,.313,6.663A4.7,4.7,0,0,0,177.346,606.868Z" transform="translate(-142.757 -511.269)"/><path class="b" d="M177.346,609.1a4.719,4.719,0,1,0,.313,6.67A4.719,4.719,0,0,0,177.346,609.1Z" transform="translate(-142.757 -498.869)"/><path class="b" d="M175.82,610.866a4.712,4.712,0,1,0,.32,6.657A4.7,4.7,0,0,0,175.82,610.866Z" transform="translate(-151.203 -489.207)"/><path class="b" d="M177.8,616.7a4.717,4.717,0,1,0,.313,6.663A4.714,4.714,0,0,0,177.8,616.7Z" transform="translate(-140.24 -456.877)"/><path class="b" d="M177.731,618.849a4.713,4.713,0,1,0,.64,6.644A4.7,4.7,0,0,0,177.731,618.849Z" transform="translate(-139.663 -444.201)"/><path class="b" d="M176.215,620.627a4.719,4.719,0,1,0,.75,6.625A4.712,4.712,0,0,0,176.215,620.627Z" transform="translate(-147.688 -434.108)"/><path class="b" d="M176.268,615.308a4.715,4.715,0,1,0,.32,6.664A4.713,4.713,0,0,0,176.268,615.308Z" transform="translate(-148.694 -464.599)"/><path class="b" d="M178.906,626.16a4.717,4.717,0,1,0,1.109,6.579A4.716,4.716,0,0,0,178.906,626.16Z" transform="translate(-131.714 -402.701)"/><path class="b" d="M178.986,628.6a4.716,4.716,0,1,0,1.292,6.54A4.715,4.715,0,0,0,178.986,628.6Z" transform="translate(-130.684 -388.762)"/><path class="b" d="M177.195,624.935a4.716,4.716,0,1,0,1.116,6.579A4.715,4.715,0,0,0,177.195,624.935Z" transform="translate(-141.117 -409.438)"/><path class="b" d="M175,604.684a4.72,4.72,0,1,0-2.193,6.3A4.71,4.71,0,0,0,175,604.684Z" transform="translate(-161.699 -531.195)"/><path class="b" d="M174.795,603.985a4.715,4.715,0,1,0-4.49,4.941A4.719,4.719,0,0,0,174.795,603.985Z" transform="translate(-165.371 -545.162)"/><path class="b" d="M174.821,602.353a4.716,4.716,0,1,0-5.508,3.752A4.717,4.717,0,0,0,174.821,602.353Z" transform="translate(-164.823 -560.309)"/><path class="b" d="M175.143,601.329a4.715,4.715,0,1,0-6.455,1.684A4.708,4.708,0,0,0,175.143,601.329Z" transform="translate(-159.943 -574.309)"/><path class="b" d="M175.552,605.2a4.717,4.717,0,1,0,.307,6.67A4.73,4.73,0,0,0,175.552,605.2Z" transform="translate(-152.73 -520.509)"/><g transform="translate(9.056)"><path class="b" d="M237.286,814.021l-26.915-18.959a4.988,4.988,0,0,1-.777-7.01L227.6,766.991a10.012,10.012,0,0,0-.659-14.129L204.4,732.336a4.984,4.984,0,0,1-.326-7.042l20.552-22.516a9.994,9.994,0,0,0-.653-14.13l-29.832-27.261c-4.079-3.72-3.988-9.758-.659-14.123L224.552,605.8c3.054-4.007,2.852-8.68-.548-11.78-1.7-1.547-5.051-3.348-11.18-2.7-29.3,3.165-48.955,28.847-45.718,58.542,1.625,14.919,6.938,20.284,9.861,22.947l22.471,20.525a4.963,4.963,0,0,1,.326,7.029l-20.539,22.523a10,10,0,0,0,.653,14.123l22.529,20.538a4.973,4.973,0,0,1,.32,7.042L184.65,787.262a9.991,9.991,0,0,0,1.56,14.045l26.961,19.233a4.977,4.977,0,0,1,.849,6.99L202.4,844.9a10,10,0,0,0,16.257,11.644l20.33-28.469A10.013,10.013,0,0,0,237.286,814.021ZM199.38,604.274a4.015,4.015,0,1,1,.261,5.665A4.015,4.015,0,0,1,199.38,604.274Z" transform="translate(-166.759 -591.182)"/><path class="b" d="M214.713,591.319c-6.128-.652-9.483,1.149-11.186,2.7-3.4,3.1-3.59,7.773-.542,11.78l31.066,41.469c3.328,4.366,3.433,10.4-.646,14.123l-29.852,27.261a10.005,10.005,0,0,0-.646,14.13l20.552,22.516a4.984,4.984,0,0,1-.32,7.042L200.6,752.862a9.994,9.994,0,0,0-.653,14.129l17.993,21.061a4.984,4.984,0,0,1-.783,7.01l-26.909,18.959a10.012,10.012,0,0,0-1.69,14.052l20.323,28.469A10,10,0,0,0,225.129,844.9l-11.611-17.367a4.965,4.965,0,0,1,.849-6.99l26.961-19.233a10,10,0,0,0,1.566-14.045L224.8,764.59a4.991,4.991,0,0,1,.326-7.042l22.529-20.538a10,10,0,0,0,.653-14.123l-20.539-22.523a4.974,4.974,0,0,1,.326-7.029l22.47-20.525c2.924-2.663,8.243-8.028,9.868-22.947C263.668,620.166,244.01,594.485,214.713,591.319Zm13.183,18.62a4.015,4.015,0,1,1,.255-5.665A4.014,4.014,0,0,1,227.9,609.939Z" transform="translate(-58.096 -591.182)"/></g><g transform="translate(255.947 76.294)"><path class="c" d="M323.77,663.685H369.41V645.947H323.77V620.454h46.938v-17.5H304.426V707.687h67.8V689.954H323.77ZM402.022,610.2H382.6v97.485h68.26V691.064H402.022ZM539.684,651.67a23.458,23.458,0,0,0,6.637-6.044c2.872-3.9,4.131-8.745,4.131-14.286,0-8.863-3.009-16.14-9.059-21.139-6.03-5.045-14.28-7.329-24.67-7.329H484.777V707.687h37.416c10.769,0,19.593-2.636,26.282-7.962a26.4,26.4,0,0,0,10.07-21.752,26.781,26.781,0,0,0-6.54-18.026,31.566,31.566,0,0,0-12.322-8.276m-35.778-31.085H515.23c5.946,0,9.835,1.071,11.976,2.813a8.415,8.415,0,0,1,2.421,3.406,16.477,16.477,0,0,1,.816,5.45c0,4.836-1.429,7.851-4.347,10.064-2.8,2.095-7.767,3.433-14.893,3.433h-7.3Zm30.655,66.067c-2.5,1.912-7.134,3.224-13.882,3.1H503.906V663.562H518.33c7.571,0,12.812,1.285,15.69,3.413,2.865,2.16,4.373,5.052,4.373,9.992,0,4.823-1.286,7.714-3.831,9.685M711,650.587h0l-2.082-1.136A65.89,65.89,0,0,1,696.7,640.8,14,14,0,0,1,694,637.4a4.291,4.291,0,0,1-.8-2.33,6.532,6.532,0,0,1,3.1-5.658,15,15,0,0,1,9.065-2.506,26.152,26.152,0,0,1,9.862,1.906,49.657,49.657,0,0,1,11.088,6.67l3.922,2.911V617.53l-1.181-.7a56.49,56.49,0,0,0-11.5-4.823,45.047,45.047,0,0,0-11.611-1.625c-8.713,0-16.192,2.441-22.02,7.271a24,24,0,0,0-8.765,18.907,22.925,22.925,0,0,0,4.621,14.325,42.233,42.233,0,0,0,7.682,6.833c3.518,2.656,8.021,5.554,13.484,8.915,3.439,1.958,6.194,3.792,8.347,5.313a28.591,28.591,0,0,1,4.36,3.615,9.779,9.779,0,0,1,2.212,6.037,7.746,7.746,0,0,1-3.23,6.442c-2.134,1.612-5.352,2.6-9.764,2.6a24.516,24.516,0,0,1-11.6-2.786c-3.59-1.841-7.538-5.064-11.774-9.451l-4.229-4.581v24.206l1.044.679a39.81,39.81,0,0,0,12.674,6.853,44.74,44.74,0,0,0,14.743,2.245c8.778,0,16.251-2.434,22-7.251a23.7,23.7,0,0,0,8.837-18.757c0-6.337-1.495-11.891-4.712-16.407-3.231-4.64-9.457-9.379-18.848-14.8m121.868,40.979a46.11,46.11,0,0,0,10.906-30.491,52.531,52.531,0,0,0-3.844-19.892A51.378,51.378,0,0,0,828.44,624.7a50.481,50.481,0,0,0-16.812-10.99,54.455,54.455,0,0,0-20.134-3.812,53.277,53.277,0,0,0-19.925,3.812A52.439,52.439,0,0,0,754.6,624.7a49.9,49.9,0,0,0-11.226,16.3,46.666,46.666,0,0,0-4.079,19.142A49.636,49.636,0,0,0,750.11,691.8a50.348,50.348,0,0,0,27.972,17.771,127.56,127.56,0,0,0,24.265,13.895c7.9,3.322,15.056,4.947,21.57,4.947h1.906a6.793,6.793,0,0,0,1.586-.163l.777-.118,14.352-12.6-1.09-3.028-.8-1.912-1.9.411a44.326,44.326,0,0,1-4.966.771,21.035,21.035,0,0,1-3.949.261,50.359,50.359,0,0,1-11.748-1.541c-2.539-.718-5.45-1.729-8.543-2.93,9.45-3.511,17.386-8.758,23.326-16m-10.658-20.127a32.158,32.158,0,0,1-7.166,10.664l-.1.091a33.39,33.39,0,0,1-10.769,7.453,33.958,33.958,0,0,1-12.681,2.493,32.511,32.511,0,0,1-12.707-2.591,34.7,34.7,0,0,1-10.8-7.355V682.1a30.931,30.931,0,0,1-7.1-10.664,31.737,31.737,0,0,1-2.526-12.707,32.465,32.465,0,0,1,2.526-12.864,31.686,31.686,0,0,1,7.042-10.632,35.161,35.161,0,0,1,10.99-7.316,32.991,32.991,0,0,1,25.257,0,31.4,31.4,0,0,1,10.716,7.231,33.052,33.052,0,0,1,7.323,11,31.026,31.026,0,0,1,2.513,12.583,32.3,32.3,0,0,1-2.513,12.707m96.141-1.318c-.085,6.226-2.062,10.866-6.526,14.56-4.314,3.648-10.168,5.7-17.817,5.7a30.409,30.409,0,0,1-11.787-2.219,23.637,23.637,0,0,1-8.869-6.565,12.562,12.562,0,0,1-2.682-5.443c-.6-2.1-.94-6.141-.94-11.989V610.28h-18.02V664.7c0,7.434.5,12.968,1.625,16.9a27.77,27.77,0,0,0,5.515,10.462,40.3,40.3,0,0,0,15.207,11.683,49.287,49.287,0,0,0,19.951,3.948c12.244,0,22.562-3.427,30.413-10.273,7.975-6.781,12-16.016,11.846-26.9V610.28H918.355Zm48.85,20.754v-23.9h45.933V650.287H967.2v-22.96h47.356V610.71H947.8v96.755h68.3v-16.59ZM653.5,623.966a52.215,52.215,0,0,0-16.9-10.742,57.043,57.043,0,0,0-20.271-3.714,55.379,55.379,0,0,0-19.919,3.714A50.411,50.411,0,0,0,579.4,623.966a48.715,48.715,0,0,0-11.5,15.957,47.087,47.087,0,0,0-4.02,18.809,48.516,48.516,0,0,0,3.922,19.344,49.062,49.062,0,0,0,11.6,16.316,51.864,51.864,0,0,0,16.9,10.658,56.814,56.814,0,0,0,40.183.1,53.992,53.992,0,0,0,17.125-10.756,50.343,50.343,0,0,0,11.376-15.912,46.861,46.861,0,0,0,3.922-18.959,48.444,48.444,0,0,0-3.824-19.305A49.124,49.124,0,0,0,653.5,623.966M647.253,671.5a32.126,32.126,0,0,1-7.146,10.514,31.785,31.785,0,0,1-10.775,7.029,35.944,35.944,0,0,1-25.9,0,34.331,34.331,0,0,1-10.729-7.029A30.873,30.873,0,0,1,585.52,671.5a30.149,30.149,0,0,1-2.513-12.374,31.544,31.544,0,0,1,2.513-12.485,32.2,32.2,0,0,1,7.179-10.377,37.723,37.723,0,0,1,11.023-7.14,34.326,34.326,0,0,1,25.394,0,31.959,31.959,0,0,1,10.8,7.14,32.569,32.569,0,0,1,7.434,10.677,31.1,31.1,0,0,1,2.408,12.185,30.252,30.252,0,0,1-2.506,12.374" transform="translate(347.16 -602.872)"/><path class="c" d="M232.554,678.306c8.661,0,15.52-2.747,20.6-8.145,4.98-5.449,7.616-12.8,7.616-21.981V608.193H255v40.3c0,7.349-2.017,13.19-5.991,17.537-4.157,4.314-9.594,6.553-16.46,6.553-6.833,0-12.283-2.239-16.31-6.553q-6.177-6.52-6.167-17.537v-40.3h-5.489v39.988c0,9.261,2.474,16.629,7.538,21.981,5.032,5.4,11.885,8.145,20.428,8.145m54.7-59.717,44.3,53.465H336V611.626h-4.764v52.649l-43.779-52.649h-5.038v60.428h4.836Zm70.7,54.359H363.1V612.442h-5.143Zm48.655,1.018L432,612.442h-5.149L406.19,663.218l-20.415-50.776H380.41l25.479,61.525Zm72.907-5.149h-28.3V644.232h26.667v-3.877H451.215V616.364h27.6v-3.922H446.373v60.507h33.141Zm26.093-24.964h4.875a33.863,33.863,0,0,1,7.7.711,8.779,8.779,0,0,1,4.255,2.3,45.064,45.064,0,0,1,3.2,4.04c1.305,1.821,3.009,4.229,4.83,7.186l9.568,14.854h5.417L528.945,647.5a18.811,18.811,0,0,0-2.291-2.931,22.508,22.508,0,0,0-3.041-2.2,16.731,16.731,0,0,0,8.569-5.567A14.355,14.355,0,0,0,535,627.629c0-4.914-1.619-8.648-5.019-11.265-3.446-2.611-8.269-3.922-14.6-3.922H500.843v60.507h4.764Zm0-27.267h10.051c4.523,0,7.956.875,10.475,2.9a9.8,9.8,0,0,1,3.622,8.145,12,12,0,0,1-1.586,6.48,10.348,10.348,0,0,1-4.954,4.073,18.073,18.073,0,0,1-4.425,1.246c-1.86.176-4.973.281-9.45.281h-3.733Zm85.77,40.653a18.854,18.854,0,0,0-.953-5.75,16.679,16.679,0,0,0-2.943-4.8c-1.906-2.121-5.658-4.32-11.088-6.546a13.826,13.826,0,0,1-1.279-.633c-4.967-2.1-8.151-3.9-9.587-5.62a9.033,9.033,0,0,1-2.226-6.428,10.712,10.712,0,0,1,3.426-8.178,12.633,12.633,0,0,1,8.83-3.224,19.611,19.611,0,0,1,6.677,1.2,31.166,31.166,0,0,1,7.146,3.838v-5.424a34.739,34.739,0,0,0-6.735-3.034,27.431,27.431,0,0,0-6.853-1.012c-5.149,0-9.267,1.514-12.492,4.542a14.991,14.991,0,0,0-4.836,11.461,13.7,13.7,0,0,0,3.146,9.4c2.1,2.4,6.024,4.83,11.767,7.205,5.554,2.349,9.072,4.359,10.6,6.07a9.739,9.739,0,0,1,2.271,6.768c0,3.72-1.057,6.617-3.413,8.83-2.193,2.121-5.332,3.244-9.248,3.244a18.909,18.909,0,0,1-7.271-1.645,33.476,33.476,0,0,1-8.034-4.921v5.835a31.381,31.381,0,0,0,7.655,4.033,23.555,23.555,0,0,0,7.74,1.312c5.169,0,9.372-1.469,12.694-4.614a15.565,15.565,0,0,0,5.006-11.9m24.376-44.8h-5.1v60.52h5.1Zm54.7,59.1a25.494,25.494,0,0,0,8.778-4.229,29.15,29.15,0,0,0,8.759-10.651,33.316,33.316,0,0,0,0-28.011,29.137,29.137,0,0,0-8.759-10.664,26.342,26.342,0,0,0-8.693-4.229,48.651,48.651,0,0,0-11.65-1.312H638.146v60.507h20.747a42.753,42.753,0,0,0,11.565-1.41m-27.176-2.891V616.756h14.4a48.146,48.146,0,0,1,10.136,1.031,22.055,22.055,0,0,1,7.375,3.094,23.819,23.819,0,0,1,7.9,9.189,28.422,28.422,0,0,1,2.78,12.674,29.229,29.229,0,0,1-2.78,12.707,24.53,24.53,0,0,1-7.9,9.183,22.344,22.344,0,0,1-7.375,3.107,49.818,49.818,0,0,1-10.136.907Zm81.763-53.908-24.872,58.209h4.836l8.465-20.134h25.042l8.5,20.134h4.83L726.97,614.739Zm-9.992,34.146,11.03-26.171,10.86,26.171Zm86.534,22.653a24.156,24.156,0,0,0,8.758-4.229,28.562,28.562,0,0,0,8.752-10.651,32.811,32.811,0,0,0,0-28.011,28.55,28.55,0,0,0-8.752-10.664,24.939,24.939,0,0,0-8.661-4.229,49.116,49.116,0,0,0-11.669-1.312h-20.65v60.507h20.65a42.635,42.635,0,0,0,11.572-1.41m-27.215-2.891V616.756h14.449a48.4,48.4,0,0,1,10.142,1.031,22,22,0,0,1,7.355,3.094,23.3,23.3,0,0,1,7.858,9.189,27.67,27.67,0,0,1,2.813,12.674,28.442,28.442,0,0,1-2.813,12.707,23.98,23.98,0,0,1-7.858,9.183,22.291,22.291,0,0,1-7.355,3.107,50.068,50.068,0,0,1-10.142.907Z" transform="translate(-204.588 -573.466)"/></g></g><g transform="translate(897.854 201.256)"><path class="c" d="M316.844,647.9h-2.865l-11.036-25.3h3.263l9.209,21.217,9.222-21.217H327.9Z" transform="translate(-302.943 -618.819)"/><path class="c" d="M311.3,624.35a1.934,1.934,0,0,1-2,1.945,1.913,1.913,0,1,1,0-3.825A1.942,1.942,0,0,1,311.3,624.35Zm-3.446,24.259V630h2.93v18.606Z" transform="translate(-278.621 -619.527)"/><path class="c" d="M328.254,643.446c0,5.241-4.36,8.635-9.79,8.635-4.666,0-7.708-1.821-9.183-4.817l2.486-1.893c1.3,2.519,3.165,3.909,6.7,3.909,3.766,0,6.879-2.415,6.912-6.219v-3.544a8.8,8.8,0,0,1-7.4,3.615c-4.98,0-9.3-3.916-9.3-9.8,0-5.907,4.321-9.777,9.3-9.777a8.866,8.866,0,0,1,7.4,3.57v-3.106h2.878Zm-2.878-10.116a7.068,7.068,0,0,0-6.951-7.277c-3.864,0-6.957,2.852-6.957,7.277a6.8,6.8,0,0,0,6.957,7.211A7,7,0,0,0,325.376,633.33Z" transform="translate(-271.266 -613.541)"/><path class="c" d="M316.626,624.35a1.95,1.95,0,0,1-2.017,1.945,1.913,1.913,0,1,1,0-3.825A1.96,1.96,0,0,1,316.626,624.35Zm-3.459,24.259V630h2.93v18.606Z" transform="translate(-249.254 -619.527)"/><path class="c" d="M317.086,646.356a2.391,2.391,0,0,0,2.617,2.46,5.379,5.379,0,0,0,2.245-.561l.607,2.4a6.172,6.172,0,0,1-3.3.953,4.806,4.806,0,0,1-5.071-5.11V622.019h2.9Z" transform="translate(-240.798 -622.019)"/><path class="c" d="M332.35,630.543v12.08h-2.819V639.8a8.306,8.306,0,0,1-6.99,3.335c-4.053,0-6.748-2.356-6.748-5.684,0-3.452,2.6-5.861,7.473-5.861h6.266v-.842a4.41,4.41,0,0,0-4.745-4.693c-2.833,0-4.8,1.449-5.215,3.785l-2.761-.627c.594-3.367,3.746-5.658,7.812-5.658C329.263,623.553,332.35,626.04,332.35,630.543Zm-2.819,4.288v-.959H323.24c-3.067,0-4.692,1.456-4.692,3.524,0,1.964,1.742,3.354,4.418,3.354C326.588,640.75,329.531,638.218,329.531,634.831Z" transform="translate(-231.928 -613.541)"/><path class="c" d="M338.519,651.1h-2.865v-3.106a8.812,8.812,0,0,1-7.421,3.615c-4.947,0-9.287-3.916-9.287-9.8,0-5.907,4.34-9.777,9.287-9.777a8.877,8.877,0,0,1,7.421,3.57V622.019h2.865Zm-2.865-9.293a7.068,7.068,0,0,0-6.951-7.277c-3.851,0-6.951,2.852-6.951,7.277a6.8,6.8,0,0,0,6.951,7.211A7,7,0,0,0,335.654,641.808Z" transform="translate(-214.503 -622.019)"/><path class="c" d="M339.259,630.543v12.08h-2.793V639.8a8.38,8.38,0,0,1-7,3.335c-4.073,0-6.768-2.356-6.768-5.684,0-3.452,2.611-5.861,7.5-5.861h6.265v-.842a4.414,4.414,0,0,0-4.771-4.693c-2.826,0-4.791,1.449-5.189,3.785l-2.773-.627c.6-3.367,3.752-5.658,7.825-5.658C336.2,623.553,339.259,626.04,339.259,630.543Zm-2.793,4.288v-.959h-6.311c-3.074,0-4.7,1.456-4.7,3.524,0,1.964,1.756,3.354,4.432,3.354C333.5,640.75,336.465,638.218,336.465,634.831Z" transform="translate(-193.752 -613.541)"/><path class="c" d="M354.867,647.9h-2.859V629.333L342.225,647.9H340.3l-9.829-18.567V647.9h-2.9V622.6h2.65l11.01,20.852L352.256,622.6h2.611Z" transform="translate(-166.827 -618.819)"/><path class="c" d="M336.706,624.35a1.935,1.935,0,0,1-2,1.945,1.913,1.913,0,1,1,0-3.825A1.944,1.944,0,0,1,336.706,624.35Zm-3.426,24.259V630h2.9v18.606Z" transform="translate(-138.283 -619.527)"/><path class="c" d="M351.687,631.5v11.127h-2.872V632c0-3.426-2.056-5.789-5.175-5.789-3.909,0-6.448,2.61-6.448,7.466v8.948h-2.858V624.017h2.858v3.106a7.906,7.906,0,0,1,7.029-3.57C348.7,623.553,351.687,626.758,351.687,631.5Z" transform="translate(-129.468 -613.541)"/><path class="c" d="M356.473,633.924h-16a6.772,6.772,0,0,0,6.637,6.676,6.366,6.366,0,0,0,6.337-4.027l2.552.614c-1.423,3.889-4.706,5.945-8.889,5.945a9.794,9.794,0,0,1,.163-19.579c5.064,0,8.974,3.727,9.2,9.281Zm-15.879-2.173h12.935a6.178,6.178,0,0,0-6.259-5.7A6.709,6.709,0,0,0,340.594,631.75Z" transform="translate(-110.954 -613.541)"/><path class="c" d="M360.606,651.1h-2.9v-3.106a8.723,8.723,0,0,1-7.368,3.615c-4.967,0-9.281-3.916-9.281-9.8,0-5.907,4.314-9.777,9.281-9.777a8.786,8.786,0,0,1,7.368,3.57V622.019h2.9Zm-2.9-9.293a7.051,7.051,0,0,0-6.924-7.277,7.249,7.249,0,0,0,0,14.489A6.98,6.98,0,0,0,357.708,641.808Z" transform="translate(-92.298 -622.019)"/><path class="c" d="M362.444,642.211h-2.917V639.2a8.138,8.138,0,0,1-7.016,3.518c-4.5,0-7.512-3.217-7.512-7.969V623.624h2.937v10.638c0,3.439,2.03,5.737,5.11,5.737,3.909,0,6.481-2.578,6.481-7.421v-8.954h2.917Z" transform="translate(-70.523 -613.149)"/><path class="c" d="M364.3,636.254l2.669.7a9.042,9.042,0,0,1-8.837,6.18,9.79,9.79,0,0,1,0-19.579,9.04,9.04,0,0,1,8.85,6.168l-2.767.842a6.143,6.143,0,0,0-6.083-4.353,7.124,7.124,0,0,0,0,14.241A6.336,6.336,0,0,0,364.3,636.254Z" transform="translate(-51.612 -613.541)"/><path class="c" d="M368.272,630.543v12.08h-2.754V639.8a8.5,8.5,0,0,1-7.016,3.335c-4.085,0-6.742-2.356-6.742-5.684,0-3.452,2.565-5.861,7.46-5.861h6.3v-.842a4.445,4.445,0,0,0-4.764-4.693c-2.852,0-4.843,1.449-5.228,3.785l-2.774-.627c.62-3.367,3.733-5.658,7.819-5.658C365.23,623.553,368.272,626.04,368.272,630.543Zm-2.754,4.288v-.959h-6.337c-3.081,0-4.693,1.456-4.693,3.524,0,1.964,1.717,3.354,4.405,3.354C362.548,640.75,365.518,638.218,365.518,634.831Z" transform="translate(-33.159 -613.541)"/><path class="c" d="M370.775,636.254l2.65.7a8.93,8.93,0,0,1-8.785,6.18,9.79,9.79,0,0,1,0-19.579,9.06,9.06,0,0,1,8.844,6.168l-2.761.842a6.148,6.148,0,0,0-6.083-4.353,7.123,7.123,0,0,0,0,14.241A6.272,6.272,0,0,0,370.775,636.254Z" transform="translate(-15.756 -613.541)"/><path class="c" d="M362.413,624.35a1.973,1.973,0,1,1-1.991-1.88A1.909,1.909,0,0,1,362.413,624.35Zm-3.446,24.259V630H361.9v18.606Z" transform="translate(3.929 -619.527)"/><path class="c" d="M379.519,639.947a9.859,9.859,0,1,1-9.829-9.718A9.6,9.6,0,0,1,379.519,639.947Zm-2.793,0a7.075,7.075,0,1,0-14.149,0,7.076,7.076,0,1,0,14.149,0Zm-8.106-12.3,3.035-5.293h3.387l-3.876,5.293Z" transform="translate(11.29 -620.179)"/><path class="c" d="M380.966,631.5v11.127h-2.859V632c0-3.426-2.108-5.789-5.169-5.789-3.929,0-6.481,2.61-6.481,7.466v8.948H363.58V624.017h2.878v3.106a7.949,7.949,0,0,1,7.01-3.57C377.971,623.553,380.966,626.758,380.966,631.5Z" transform="translate(32.163 -613.541)"/></g></g></g></svg>