<svg xmlns="http://www.w3.org/2000/svg" width="1716.641" height="1754" viewBox="0 0 1716.641 1754"><defs><style>.a{fill:none;}.b{fill:#ff893b;}.c{fill:#394024;}</style></defs><g transform="translate(13527 22014)"><rect class="a" width="1716.64" height="1754" transform="translate(-13527 -22014)"/><g transform="translate(-13376.068 -21878.227)"><g transform="translate(362.654)"><path class="b" d="M396.754,914.025c-71.1-172.61-96.133-351.326-96.133-535.677,0-79.464,5.071-159.1,18.333-237.489h67.815C370.388,215.422,365.3,291.873,365.3,368c0,160,19.853,330.136,66.151,484.282C477.738,698.131,497.592,528,497.592,368c0-76.123-5.058-152.573-21.439-227.137h67.775c13.275,78.39,18.346,158.025,18.346,237.489,0,184.351-25.029,363.067-96.133,535.677Z" transform="translate(-79.059 -25.78)"/><path class="b" d="M333.63,159a15.056,15.056,0,1,1-1.009,21.268A15.061,15.061,0,0,1,333.63,159Z" transform="translate(261.129 146.369)"/><path class="b" d="M333.63,162.542a15.061,15.061,0,1,1-1.009,21.294A15.087,15.087,0,0,1,333.63,162.542Z" transform="translate(261.129 189.553)"/><path class="b" d="M336.065,165.335a15.06,15.06,0,1,1-1,21.282A15.029,15.029,0,0,1,336.065,165.335Z" transform="translate(290.551 223.243)"/><path class="b" d="M332.9,174.653a15.069,15.069,0,1,1-.97,21.268A15.06,15.06,0,0,1,332.9,174.653Z" transform="translate(252.359 335.874)"/><path class="b" d="M333.3,177.8a15.073,15.073,0,1,1-2.045,21.216A15.078,15.078,0,0,1,333.3,177.8Z" transform="translate(250.351 380.047)"/><path class="b" d="M335.831,180.567a15.066,15.066,0,1,1-2.411,21.15A15.034,15.034,0,0,1,335.831,180.567Z" transform="translate(278.323 415.216)"/><path class="b" d="M335.327,172.42a15.065,15.065,0,1,1-.983,21.255A15.073,15.073,0,0,1,335.327,172.42Z" transform="translate(281.827 308.976)"/><path class="b" d="M331.856,189.124a15.054,15.054,0,1,1-3.551,20.98A15.029,15.029,0,0,1,331.856,189.124Z" transform="translate(222.659 524.65)"/><path class="b" d="M331.91,192.884a15.067,15.067,0,1,1-4.128,20.9A15.059,15.059,0,0,1,331.91,192.884Z" transform="translate(219.054 573.202)"/><path class="b" d="M334.576,187.168a15.057,15.057,0,1,1-3.552,21.006A15.024,15.024,0,0,1,334.576,187.168Z" transform="translate(255.44 501.17)"/><path class="b" d="M335.675,157.8a15.065,15.065,0,1,1,6.985,20.128A15.058,15.058,0,0,1,335.675,157.8Z" transform="translate(327.108 76.934)"/><path class="b" d="M335.251,159.625A15.055,15.055,0,1,1,349.56,175.4,15.062,15.062,0,0,1,335.251,159.625Z" transform="translate(339.916 28.262)"/><path class="b" d="M335.337,158.816a15.058,15.058,0,1,1,17.586,11.977A15.087,15.087,0,0,1,335.337,158.816Z" transform="translate(337.995 -24.513)"/><path class="b" d="M335.727,159.6a15.067,15.067,0,1,1,20.6,5.373A15.062,15.062,0,0,1,335.727,159.6Z" transform="translate(320.989 -73.288)"/><path class="b" d="M336.509,156.343a15.064,15.064,0,1,1-1,21.268A15.06,15.06,0,0,1,336.509,156.343Z" transform="translate(295.873 114.178)"/><path class="b" d="M315.419,159a15.065,15.065,0,1,0,.983,21.268A15.062,15.062,0,0,0,315.419,159Z" transform="translate(-204.916 146.369)"/><path class="b" d="M315.419,162.542a15.07,15.07,0,1,0,.983,21.294A15.087,15.087,0,0,0,315.419,162.542Z" transform="translate(-204.916 189.553)"/><path class="b" d="M312.986,165.335a15.069,15.069,0,1,0,.97,21.282A15.03,15.03,0,0,0,312.986,165.335Z" transform="translate(-234.34 223.243)"/><path class="b" d="M316.153,174.653a15.078,15.078,0,1,0,.943,21.268A15.06,15.06,0,0,0,316.153,174.653Z" transform="translate(-196.149 335.874)"/><path class="b" d="M315.731,177.8a15.065,15.065,0,1,0,2.044,21.216A15.05,15.05,0,0,0,315.731,177.8Z" transform="translate(-194.142 380.047)"/><path class="b" d="M313.24,180.567a15.074,15.074,0,1,0,2.359,21.15A15.029,15.029,0,0,0,313.24,180.567Z" transform="translate(-222.105 415.216)"/><path class="b" d="M313.7,172.42a15.06,15.06,0,1,0,1,21.255A15.058,15.058,0,0,0,313.7,172.42Z" transform="translate(-225.602 308.976)"/><path class="b" d="M317.2,189.124a15.061,15.061,0,1,0,3.525,20.98A15.06,15.06,0,0,0,317.2,189.124Z" transform="translate(-166.449 524.65)"/><path class="b" d="M317.117,192.884a15.059,15.059,0,1,0,4.154,20.9A15.02,15.02,0,0,0,317.117,192.884Z" transform="translate(-162.846 573.202)"/><path class="b" d="M314.467,187.168a15.057,15.057,0,1,0,3.551,21.006A15.059,15.059,0,0,0,314.467,187.168Z" transform="translate(-199.22 501.17)"/><path class="b" d="M313.4,157.8a15.065,15.065,0,1,0-6.984,20.128A15.057,15.057,0,0,0,313.4,157.8Z" transform="translate(-270.922 76.934)"/><path class="b" d="M313.809,159.625A15.056,15.056,0,1,0,299.5,175.4,15.087,15.087,0,0,0,313.809,159.625Z" transform="translate(-283.713 28.262)"/><path class="b" d="M313.722,158.816a15.052,15.052,0,1,0-17.6,11.977A15.077,15.077,0,0,0,313.722,158.816Z" transform="translate(-281.793 -24.513)"/><path class="b" d="M313.343,159.6a15.062,15.062,0,1,0-20.6,5.373A15.062,15.062,0,0,0,313.343,159.6Z" transform="translate(-264.797 -73.288)"/><path class="b" d="M312.548,156.343a15.06,15.06,0,1,0,.983,21.268A15.06,15.06,0,0,0,312.548,156.343Z" transform="translate(-239.667 114.178)"/><g transform="translate(28.932 0)"><path class="b" d="M511.181,843.886l-85.938-60.607a15.875,15.875,0,0,1-2.49-22.369l57.489-67.264a31.988,31.988,0,0,0-2.1-45.144L406.151,582.94a15.883,15.883,0,0,1-1.048-22.461l65.639-71.956a31.9,31.9,0,0,0-2.07-45.118l-95.308-87.091c-13.026-11.872-12.724-31.162-2.1-45.092l99.252-132.5c9.723-12.776,9.134-27.7-1.743-37.57-5.425-4.967-16.118-10.732-35.709-8.636C339.5,142.61,276.693,224.643,287.033,319.531c5.189,47.634,22.159,64.761,31.5,73.279l71.772,65.548a15.848,15.848,0,0,1,1.049,22.461l-65.6,71.956a31.939,31.939,0,0,0,2.07,45.1l71.969,65.626a15.874,15.874,0,0,1,1.022,22.474l-57.764,72.388a31.94,31.94,0,0,0,4.992,44.882l86.1,61.42A15.856,15.856,0,0,1,436.88,887l-37.111,55.483a31.927,31.927,0,0,0,51.906,37.19l64.932-90.956A31.914,31.914,0,0,0,511.181,843.886ZM390.124,173.864A12.819,12.819,0,1,1,390.95,192,12.872,12.872,0,0,1,390.124,173.864Z" transform="translate(-285.921 -132.077)"/><path class="b" d="M407.562,132.52c-19.578-2.1-30.284,3.669-35.709,8.636-10.877,9.867-11.493,24.793-1.743,37.57l99.265,132.5c10.588,13.93,10.916,33.219-2.083,45.092l-95.36,87.091a31.931,31.931,0,0,0-2.071,45.118l65.653,71.956a15.883,15.883,0,0,1-1.035,22.461L362.483,648.5a31.965,31.965,0,0,0-2.1,45.144l57.488,67.264a15.875,15.875,0,0,1-2.49,22.369l-85.938,60.607a31.891,31.891,0,0,0-5.425,44.83l64.906,90.956a31.938,31.938,0,0,0,51.932-37.19L403.749,887a15.876,15.876,0,0,1,2.712-22.33l86.122-61.42a31.964,31.964,0,0,0,4.992-44.882l-57.764-72.388a15.886,15.886,0,0,1,1.023-22.474l71.942-65.626a31.917,31.917,0,0,0,2.1-45.1l-65.6-71.956a15.894,15.894,0,0,1,1.022-22.461l71.8-65.548c9.317-8.518,26.314-25.645,31.5-73.279C563.935,224.643,501.126,142.61,407.562,132.52ZM449.692,192a12.838,12.838,0,1,1,.812-18.136A12.849,12.849,0,0,1,449.692,192Z" transform="translate(92.692 -132.077)"/></g></g><path class="c" d="M294.917,341.695h91.664V306.078H294.917V254.892h94.272V219.773H256.1V430.044H392.229v-35.6H294.917Zm157.16-107.376H413.065V430.044H550.123V396.68H452.077Zm276.382,83.264a47.19,47.19,0,0,0,13.34-12.135c5.753-7.823,8.3-17.56,8.3-28.685,0-17.809-6.041-32.42-18.176-42.445-12.135-10.13-28.685-14.742-49.547-14.742H618.2V430.044h75.153c21.622,0,39.339-5.281,52.771-15.987,13.34-10.72,20.456-25.632,20.22-43.677,0-13.982-4.534-26.339-13.131-36.181a63.383,63.383,0,0,0-24.754-16.616m-71.812-62.416h22.7c11.964,0,19.761,2.136,24.06,5.635a17.094,17.094,0,0,1,4.862,6.827,32.5,32.5,0,0,1,1.638,10.955c0,9.723-2.857,15.777-8.727,20.22-5.622,4.206-15.581,6.893-29.891,6.893H656.648Zm61.525,132.642c-5.019,3.84-14.31,6.473-27.873,6.225H656.648V341.459H685.6c15.2,0,25.723,2.582,31.5,6.853,5.766,4.338,8.78,10.143,8.78,20.05,0,9.7-2.581,15.489-7.705,19.447m354.275-72.414h0l-4.168-2.267c-11.151-6.447-19.276-12.357-24.518-17.389a27.448,27.448,0,0,1-5.425-6.8,8.586,8.586,0,0,1-1.638-4.678c.183-4.875,1.769-8.164,6.237-11.348,4.482-3.237,10.326-5.045,18.2-5.045a52.677,52.677,0,0,1,19.788,3.813,101.6,101.6,0,0,1,22.29,13.393l7.863,5.844V249.035l-2.385-1.428a114.235,114.235,0,0,0-23.09-9.671,90.457,90.457,0,0,0-23.286-3.263c-17.508,0-32.525,4.9-44.227,14.6a48.113,48.113,0,0,0-17.612,37.95c0,10.995,3.079,20.666,9.291,28.764,3.512,4.259,8.557,8.7,15.437,13.707,7.037,5.36,16.092,11.178,27.074,17.927,6.893,3.931,12.449,7.614,16.747,10.654a55.712,55.712,0,0,1,8.754,7.273c2.988,3.6,4.115,7.26,4.429,12.135-.315,5.844-2.083,9.5-6.486,12.908-4.272,3.237-10.72,5.228-19.6,5.228a49.294,49.294,0,0,1-23.286-5.6c-7.194-3.709-15.149-10.182-23.653-18.988l-8.492-9.173v48.578l2.1,1.376a80.7,80.7,0,0,0,25.435,13.76,90.316,90.316,0,0,0,29.616,4.508c17.639,0,32.63-4.914,44.174-14.559a47.585,47.585,0,0,0,17.744-37.662c0-12.737-3-23.876-9.448-32.97-6.474-9.3-18.988-18.8-37.858-29.694m244.709,82.295c14.6-17.4,21.884-37.963,21.884-61.21a104.947,104.947,0,0,0-7.732-39.955,103.245,103.245,0,0,0-23.05-33.115,101.326,101.326,0,0,0-33.77-22.041,109.187,109.187,0,0,0-40.414-7.666,107.155,107.155,0,0,0-40.02,7.666,104.751,104.751,0,0,0-34.045,22.041,100.869,100.869,0,0,0-22.578,32.735,94.759,94.759,0,0,0-8.19,38.461c0,24.046,7.352,45.432,21.74,63.543,14.126,17.914,33.062,29.852,56.152,35.7,17.219,12.2,33.4,21.491,48.735,27.912,15.843,6.67,30.245,9.907,43.3,9.907H1303a14.214,14.214,0,0,0,3.172-.328l1.573-.223,28.816-25.317-2.2-6.067-1.586-3.827-3.813.826a90.116,90.116,0,0,1-9.985,1.546,44.34,44.34,0,0,1-7.941.5,101.776,101.776,0,0,1-23.562-3.079c-5.1-1.441-10.929-3.486-17.154-5.871,18.962-7.05,34.909-17.6,46.835-32.132m-21.4-40.427a64.646,64.646,0,0,1-14.4,21.426l-.21.17a66.844,66.844,0,0,1-21.622,14.965,67.715,67.715,0,0,1-25.449,5.019,65.321,65.321,0,0,1-25.514-5.2,69.628,69.628,0,0,1-21.7-14.781v-.17a62.344,62.344,0,0,1-14.257-21.426,63.653,63.653,0,0,1-5.045-25.514,65.269,65.269,0,0,1,5.045-25.842,63.234,63.234,0,0,1,14.153-21.308,70,70,0,0,1,22.094-14.7,66.144,66.144,0,0,1,50.674,0,62.389,62.389,0,0,1,21.517,14.52,65.752,65.752,0,0,1,14.716,22.081,62.4,62.4,0,0,1,5.045,25.252,65.023,65.023,0,0,1-5.045,25.514m193.04-2.647c-.184,12.515-4.141,21.819-13.1,29.236-8.676,7.325-20.43,11.453-35.788,11.453a61.209,61.209,0,0,1-23.666-4.455,47.811,47.811,0,0,1-17.8-13.17,25.36,25.36,0,0,1-5.4-10.942c-1.206-4.22-1.887-12.331-1.887-24.073v-108.2h-36.167V343.726c0,14.926,1,26.051,3.276,33.953a55.4,55.4,0,0,0,11.06,20.993,80.765,80.765,0,0,0,30.559,23.444c11.978,5.268,25.435,7.928,40.02,7.928,24.6,0,45.3-6.88,61.105-20.613,15.961-13.615,24.059-32.171,23.745-54.016V234.463H1488.8Zm98.072,41.7v-48h92.215V314.779h-92.215V268.691h95.11V235.314H1547.923v194.3h137.11v-33.3ZM957,261.942a105.3,105.3,0,0,0-33.94-21.583,114.651,114.651,0,0,0-40.689-7.456,111.4,111.4,0,0,0-40.008,7.456,101.458,101.458,0,0,0-34.15,21.583,98.1,98.1,0,0,0-23.077,32.04,94.109,94.109,0,0,0-8.072,37.767,96.079,96.079,0,0,0,31.149,71.589,104.246,104.246,0,0,0,33.94,21.425,114.321,114.321,0,0,0,80.67.184,108.067,108.067,0,0,0,34.4-21.609A100.671,100.671,0,0,0,980.061,371.4a94.393,94.393,0,0,0,7.876-38.068,97.478,97.478,0,0,0-7.679-38.749A98.463,98.463,0,0,0,957,261.942m-12.541,95.452a65.379,65.379,0,0,1-35.985,35.237,72.167,72.167,0,0,1-52.011,0,68.836,68.836,0,0,1-21.557-14.113,62,62,0,0,1-14.4-21.124,60.432,60.432,0,0,1-5.045-24.833,63.415,63.415,0,0,1,5.045-25.095,64.846,64.846,0,0,1,14.4-20.823,75.768,75.768,0,0,1,22.146-14.323,68.925,68.925,0,0,1,50.989,0,64.629,64.629,0,0,1,21.7,14.323A65.871,65.871,0,0,1,944.654,308.1a62.7,62.7,0,0,1,4.848,24.466,60.869,60.869,0,0,1-5.045,24.833" transform="translate(-255.276 927.031)"/><path class="c" d="M319.456,346.1c17.377,0,31.175-5.5,41.331-16.367,10.038-10.929,15.306-25.711,15.306-44.122v-80.3H364.522V286.23c0,14.755-4.036,26.5-12.03,35.2-8.334,8.675-19.237,13.183-33.036,13.183-13.746,0-24.675-4.508-32.761-13.183-8.269-8.7-12.357-20.443-12.357-35.2V205.311H263.3v80.3c0,18.582,4.967,33.377,15.123,44.122C288.53,340.6,302.3,346.1,319.456,346.1M429.283,226.186,518.248,333.55h8.9V212.2H517.58V317.929L429.689,212.2H419.573V333.55h9.71ZM571.229,335.345h10.339v-121.5H571.229Zm97.692,2.018L719.9,213.842H709.558L668.1,315.806l-41-101.964H616.321L667.48,337.363Zm146.4-10.313H758.5V277.673h53.544V269.9H758.5V221.718h55.405v-7.876H748.779v121.5h66.543Zm52.391-50.124h9.8a66.155,66.155,0,0,1,15.437,1.442,17.446,17.446,0,0,1,8.544,4.613,86.229,86.229,0,0,1,6.421,8.111c2.608,3.643,6.041,8.479,9.7,14.415l19.2,29.838h10.9l-33.167-51.107a35.516,35.516,0,0,0-4.586-5.871,43.961,43.961,0,0,0-6.08-4.442c7.627-2.451,13.405-6.133,17.192-11.152,3.866-4.888,5.661-11.126,5.661-18.438,0-9.868-3.276-17.35-10.117-22.618-6.906-5.229-16.577-7.876-29.275-7.876H858.134v121.5h9.579Zm0-54.749h20.194c9.055,0,15.975,1.769,21.006,5.831,4.861,3.84,7.273,9.3,7.273,16.328,0,5.111-.97,9.5-3.171,13.026a20.956,20.956,0,0,1-9.96,8.177,37.677,37.677,0,0,1-8.884,2.516c-3.735.341-9.972.563-18.962.563h-7.5ZM1039.9,303.79a36.992,36.992,0,0,0-1.913-11.532,32.739,32.739,0,0,0-5.884-9.658c-3.839-4.233-11.374-8.675-22.277-13.144a24.087,24.087,0,0,1-2.581-1.258c-9.959-4.233-16.354-7.836-19.224-11.283-3.04-3.2-4.468-7.666-4.468-12.921a21.562,21.562,0,0,1,6.854-16.406c4.665-4.22,10.549-6.474,17.743-6.474a39.286,39.286,0,0,1,13.405,2.4,64.683,64.683,0,0,1,14.389,7.705v-10.89a73.562,73.562,0,0,0-13.55-6.093,55.093,55.093,0,0,0-13.76-2.031c-10.339,0-18.608,3.04-25.081,9.121-6.5,6.067-9.711,13.773-9.711,23.011,0,7.679,2.031,14,6.33,18.883,4.193,4.836,12.082,9.684,23.6,14.454,11.152,4.731,18.215,8.754,21.294,12.187,3.2,3.656,4.547,8.138,4.547,13.589,0,7.469-2.123,13.288-6.854,17.743-4.377,4.272-10.707,6.5-18.556,6.5a38.184,38.184,0,0,1-14.611-3.3,68.067,68.067,0,0,1-16.131-9.868v11.715a63.489,63.489,0,0,0,15.384,8.1,47.6,47.6,0,0,0,15.529,2.634c10.366,0,18.818-2.962,25.5-9.278,6.683-6.264,10.025-14.166,10.025-23.9m48.971-89.948h-10.248V335.358h10.248ZM1198.7,332.5a51.278,51.278,0,0,0,17.625-8.478,58.437,58.437,0,0,0,17.586-21.4,66.895,66.895,0,0,0,0-56.243,58.583,58.583,0,0,0-17.586-21.412,52.982,52.982,0,0,0-17.455-8.479,96.16,96.16,0,0,0-23.392-2.647h-41.671v121.5h41.671A85.311,85.311,0,0,0,1198.7,332.5m-54.566-5.805V222.517h28.921a96.576,96.576,0,0,1,20.338,2.071,43.734,43.734,0,0,1,14.794,6.211,47.544,47.544,0,0,1,15.869,18.451,56.673,56.673,0,0,1,5.582,25.449,58.45,58.45,0,0,1-5.582,25.527,48.921,48.921,0,0,1-15.869,18.4,44.574,44.574,0,0,1-14.794,6.264,99.072,99.072,0,0,1-20.338,1.808Zm164.183-108.242-49.94,116.89h9.7l17-40.427h50.268l17.075,40.427h9.724l-49.954-116.89ZM1288.256,287l22.133-52.535L1332.195,287Zm173.75,45.5a48.571,48.571,0,0,0,17.56-8.478,57.3,57.3,0,0,0,17.586-21.4,65.765,65.765,0,0,0,0-56.243,57.437,57.437,0,0,0-17.586-21.412,50.1,50.1,0,0,0-17.376-8.479,97.1,97.1,0,0,0-23.443-2.647H1397.31v121.5h41.436a85.275,85.275,0,0,0,23.26-2.844m-54.672-5.805V222.517h29.026a97.092,97.092,0,0,1,20.351,2.071,43.707,43.707,0,0,1,14.769,6.211,46.526,46.526,0,0,1,15.79,18.451,55.362,55.362,0,0,1,5.661,25.449,57.077,57.077,0,0,1-5.661,25.527,47.839,47.839,0,0,1-15.79,18.4,44.549,44.549,0,0,1-14.769,6.264,99.564,99.564,0,0,1-20.351,1.808Z" transform="translate(-168.102 754.361)"/><g transform="translate(0 1411.169)"><g transform="translate(0 0)"><path class="c" d="M284.7,292.526h-5.91l-22.749-52.168h6.723L281.736,284.1l19.014-43.742h6.71Z" transform="translate(-256.039 -232.587)"/><path class="c" d="M268.72,244.12a4.016,4.016,0,0,1-4.141,4.01,3.952,3.952,0,1,1,0-7.9A4.036,4.036,0,0,1,268.72,244.12Zm-7.1,49.98V255.757h6.015V294.1Z" transform="translate(-201.364 -234.161)"/><path class="c" d="M302.294,282.318c0,10.811-8.976,17.8-20.181,17.8-9.592,0-15.882-3.748-18.9-9.92l5.124-3.9c2.634,5.189,6.513,8.072,13.773,8.072,7.771,0,14.166-4.979,14.258-12.842v-7.286c-3.381,4.718-8.728,7.43-15.253,7.43-10.234,0-19.2-8.046-19.2-20.207s8.963-20.115,19.2-20.115c6.526,0,11.872,2.713,15.253,7.338v-6.395h5.923Zm-5.923-20.862A14.552,14.552,0,0,0,282.035,246.5c-7.967,0-14.349,5.844-14.349,14.952,0,9.16,6.382,14.9,14.349,14.9A14.471,14.471,0,0,0,296.371,261.456Z" transform="translate(-184.854 -220.689)"/><path class="c" d="M274.173,244.12a4.021,4.021,0,0,1-4.128,4.01,3.952,3.952,0,1,1,0-7.9A4.042,4.042,0,0,1,274.173,244.12Zm-7.089,49.98V255.757H273.1V294.1Z" transform="translate(-135.359 -234.161)"/><path class="c" d="M273.53,289.915c0,3.119,2.162,5.071,5.4,5.071a11.315,11.315,0,0,0,4.652-1.153l1.206,4.953a12.566,12.566,0,0,1-6.775,1.953c-6.3,0-10.431-4.22-10.431-10.523V239.765h5.949Z" transform="translate(-116.331 -239.765)"/><path class="c" d="M303.351,255.716v24.911h-5.792v-5.805c-2.948,4-7.771,6.841-14.428,6.841-8.374,0-13.9-4.836-13.9-11.728,0-7.076,5.386-12.056,15.424-12.056h12.908v-1.717c0-6-3.9-9.658-9.789-9.658-5.857,0-9.92,2.961-10.759,7.758l-5.674-1.284c1.219-6.932,7.706-11.636,16.105-11.636C297,241.341,303.351,246.452,303.351,255.716Zm-5.792,8.858V262.6H284.572c-6.316,0-9.658,2.975-9.658,7.26,0,4.036,3.577,6.906,9.094,6.906C291.465,276.762,297.559,271.559,297.559,264.575Z" transform="translate(-96.408 -220.689)"/><path class="c" d="M312.823,299.7h-5.91v-6.395c-3.355,4.718-8.728,7.43-15.293,7.43-10.2,0-19.158-8.046-19.158-20.207s8.963-20.115,19.158-20.115c6.565,0,11.938,2.713,15.293,7.338V239.765h5.91Zm-5.91-19.171a14.525,14.525,0,0,0-14.323-14.952c-7.967,0-14.336,5.844-14.336,14.952,0,9.16,6.369,14.9,14.336,14.9A14.445,14.445,0,0,0,306.913,280.533Z" transform="translate(-57.25 -239.765)"/><path class="c" d="M310.416,255.716v24.911h-5.753v-5.805c-2.948,4-7.784,6.841-14.4,6.841-8.4,0-13.943-4.836-13.943-11.728,0-7.076,5.373-12.056,15.45-12.056h12.894v-1.717c0-6-3.866-9.658-9.815-9.658-5.832,0-9.894,2.961-10.693,7.758l-5.713-1.284c1.232-6.932,7.705-11.636,16.092-11.636C304.125,241.341,310.416,246.452,310.416,255.716Zm-5.753,8.858V262.6H291.65c-6.316,0-9.658,2.975-9.658,7.26,0,4.036,3.6,6.906,9.134,6.906C298.569,276.762,304.662,271.559,304.662,264.575Z" transform="translate(-10.576 -220.689)"/><path class="c" d="M337.562,292.526h-5.9V254.262L311.5,292.526H307.54l-20.285-38.264v38.264h-5.936V240.358h5.452l22.7,43.008,22.7-43.008h5.4Z" transform="translate(49.945 -232.587)"/><path class="c" d="M294.783,244.12a4,4,0,0,1-4.115,4.01,3.952,3.952,0,1,1,0-7.9A4.021,4.021,0,0,1,294.783,244.12Zm-7.05,49.98V255.757h5.949V294.1Z" transform="translate(114.11 -234.161)"/><path class="c" d="M324.017,257.7v22.932h-5.923v-21.9c0-7.063-4.233-11.938-10.654-11.938-8.046,0-13.314,5.4-13.314,15.411v18.425h-5.871V242.284h5.871v6.395c3.067-4.718,8.007-7.338,14.506-7.338C317.884,241.341,324.017,247.946,324.017,257.7Z" transform="translate(133.913 -220.689)"/><path class="c" d="M330.39,262.727H297.446c.485,8.583,7.05,13.733,13.668,13.733,5.438,0,10.366-2.1,13.065-8.282l5.268,1.258c-2.935,8.007-9.71,12.226-18.333,12.226-10.182,0-19.42-7.876-19.42-20.076,0-12.384,9.239-20.246,19.761-20.246,10.444,0,18.49,7.692,18.936,19.106Zm-32.7-4.521h26.667c-1.075-7.509-6.447-11.7-12.908-11.7A13.8,13.8,0,0,0,297.695,258.206Z" transform="translate(175.527 -220.689)"/><path class="c" d="M335.439,299.7h-5.962v-6.395c-3.3,4.718-8.7,7.43-15.188,7.43-10.221,0-19.132-8.046-19.132-20.207s8.911-20.115,19.132-20.115c6.487,0,11.885,2.713,15.188,7.338V239.765h5.962Zm-5.962-19.171a14.494,14.494,0,0,0-14.284-14.952c-7.928,0-14.375,5.844-14.375,14.952,0,9.16,6.447,14.9,14.375,14.9A14.414,14.414,0,0,0,329.477,280.533Z" transform="translate(217.457 -239.765)"/><path class="c" d="M335.147,279.691h-6.015v-6.2c-3.053,4.587-8.15,7.233-14.467,7.233-9.265,0-15.463-6.618-15.463-16.393V241.413h6.041v21.91c0,7.116,4.18,11.82,10.562,11.82,8.046,0,13.327-5.307,13.327-15.306V241.413h6.015Z" transform="translate(266.418 -219.817)"/><path class="c" d="M335.449,267.484l5.478,1.441c-2.346,7.666-9.71,12.737-18.2,12.737-10.837,0-20.01-7.981-20.01-20.207a19.647,19.647,0,0,1,20.01-20.115c8.387,0,15.764,4.888,18.215,12.711l-5.688,1.73a12.637,12.637,0,0,0-12.528-8.989c-7.849,0-14.244,5.936-14.244,14.664,0,9,6.395,14.69,14.244,14.69A13.083,13.083,0,0,0,335.449,267.484Z" transform="translate(308.928 -220.689)"/><path class="c" d="M340.171,255.716v24.911H334.51v-5.805a17.561,17.561,0,0,1-14.467,6.841c-8.426,0-13.9-4.836-13.9-11.728,0-7.076,5.294-12.056,15.371-12.056h13v-1.717c0-6-4.036-9.658-9.828-9.658-5.884,0-10,2.961-10.785,7.758l-5.714-1.284c1.284-6.932,7.719-11.636,16.118-11.636C333.908,241.341,340.171,246.452,340.171,255.716Zm-5.661,8.858V262.6H321.446c-6.342,0-9.671,2.975-9.671,7.26,0,4.036,3.525,6.906,9.068,6.906C328.378,276.762,334.51,271.559,334.51,264.575Z" transform="translate(350.398 -220.689)"/><path class="c" d="M342.079,267.484l5.464,1.441c-2.254,7.666-9.619,12.737-18.11,12.737-10.863,0-20.063-7.981-20.063-20.207a19.674,19.674,0,0,1,20.063-20.115c8.361,0,15.751,4.888,18.228,12.711l-5.7,1.73a12.659,12.659,0,0,0-12.528-8.989c-7.915,0-14.271,5.936-14.271,14.664,0,9,6.356,14.69,14.271,14.69A12.938,12.938,0,0,0,342.079,267.484Z" transform="translate(389.507 -220.689)"/><path class="c" d="M321.153,244.12a4.066,4.066,0,1,1-4.1-3.892A3.944,3.944,0,0,1,321.153,244.12Zm-7.09,49.98V255.757h6.028V294.1Z" transform="translate(433.772 -234.161)"/><path class="c" d="M355.03,276.392c0,11.741-8.95,20.154-20.246,20.154-11.44,0-20.39-8.413-20.39-20.154,0-11.846,8.95-20.01,20.39-20.01C346.08,256.382,355.03,264.545,355.03,276.392Zm-5.753,0c0-8.832-6.591-14.782-14.493-14.782a14.848,14.848,0,0,0,0,29.694C342.686,291.3,349.277,285.185,349.277,276.392Zm-16.708-25.357,6.264-10.929H345.8l-7.967,10.929Z" transform="translate(450.307 -235.637)"/><path class="c" d="M354.1,257.7v22.932h-5.9v-21.9c0-7.063-4.351-11.938-10.654-11.938-8.085,0-13.354,5.4-13.354,15.411v18.425h-5.923V242.284H324.2v6.395c3.08-4.718,7.994-7.338,14.441-7.338C347.914,241.341,354.1,247.946,354.1,257.7Z" transform="translate(497.247 -220.689)"/></g></g></g></g></svg>