
<svg width="18px" height="13px" viewBox="0 0 18 13" version="1.1" xmlns="http://www.w3.org/2000/svg" xmlns:xlink="http://www.w3.org/1999/xlink">
    <!-- Generator: Sketch 44.1 (41455) - http://www.bohemiancoding.com/sketch -->
    <desc>Created with Sketch.</desc>
    <defs></defs>
    <g id="10-Internacionalizacion" stroke="none" stroke-width="1" fill="none" fill-rule="evenodd">
        <g id="10-Internacionalizacion-Desktop" transform="translate(-464.000000, -469.000000)" fill="#7BC142">
            <g id="Group-3" transform="translate(160.000000, 443.000000)">
                <g id="Buscador-Copy">
                    <g id="Elements/arrow-down-green-basic" transform="translate(313.267710, 33.231780) scale(-1, -1) rotate(180.000000) translate(-313.267710, -33.231780) translate(303.936331, 27.000000)">
                        <g id="arrow-down-green-basic">
                            <path d="M6.64873529,5.38331938 L15.2914568,-1.67428431 C15.4898061,-1.83625666 15.4898061,-2.09887417 15.2914568,-2.26079122 L14.3337729,-3.0428926 C14.2385598,-3.12069906 14.1093517,-3.16438569 13.9746583,-3.16438569 C13.839965,-3.16438569 13.7107569,-3.12069906 13.6155438,-3.0428926 L3.65595614,5.09006592 C3.45760681,5.25203827 3.45760681,5.51465578 3.65595614,5.67657283 L13.6154761,13.8095314 C13.7106892,13.8873378 13.8398973,13.9310244 13.9745906,13.9310244 C14.1092839,13.9310244 14.238492,13.8873378 14.3337051,13.8095314 L15.291389,13.02743 C15.4897384,12.8654576 15.4897384,12.6028401 15.291389,12.4409231 L6.64873529,5.38331938 L6.64873529,5.38331938 Z" id="Shape" transform="translate(9.473706, 5.383319) scale(-1, 1) rotate(-90.000000) translate(-9.473706, -5.383319) "></path>
                        </g>
                    </g>
                </g>
            </g>
        </g>
    </g>
</svg>