<svg xmlns="http://www.w3.org/2000/svg" width="60" height="60" viewBox="0 0 60 60"><g transform="translate(10118 15853)"><rect width="60" height="60" transform="translate(-10118 -15853)" fill="none"/><g transform="translate(-1.03)"><path d="M.194.1A1.1,1.1,0,0,0-.9-1,1.1,1.1,0,0,0-2,.1a1.1,1.1,0,0,0,1.1,1.1A1.1,1.1,0,0,0,.194.1" transform="translate(-10086.192 -15797.563)" fill="#7ac142"/><path d="M.194.1A1.1,1.1,0,0,0-.9-1,1.1,1.1,0,0,0-2,.1a1.1,1.1,0,0,0,1.1,1.1A1.1,1.1,0,0,0,.194.1" transform="translate(-10081.805 -15797.563)" fill="#7ac142"/><path d="M.194.1A1.1,1.1,0,0,0-.9-1,1.1,1.1,0,0,0-2,.1a1.1,1.1,0,0,0,1.1,1.1A1.1,1.1,0,0,0,.194.1" transform="translate(-10077.416 -15797.563)" fill="#7ac142"/><path d="M.194.1A1.1,1.1,0,0,0-.9-1,1.1,1.1,0,0,0-2,.1a1.1,1.1,0,0,0,1.1,1.1A1.1,1.1,0,0,0,.194.1" transform="translate(-10094.97 -15797.563)" fill="#7ac142"/><path d="M.194.1A1.1,1.1,0,0,0-.9-1,1.1,1.1,0,0,0-2,.1a1.1,1.1,0,0,0,1.1,1.1A1.1,1.1,0,0,0,.194.1" transform="translate(-10090.581 -15797.563)" fill="#7ac142"/></g><g transform="translate(1)"><g transform="translate(-10113 -15848)" fill="none" stroke="#77c13a" stroke-width="1.7"><rect width="49" height="45" rx="6" stroke="none"/><rect x="0.85" y="0.85" width="47.3" height="43.3" rx="5.15" fill="none"/></g><path d="M31.564,12.408c-10.664,0-24.88-.029-26.084-.033C3.5,12.369.035,9.034,0,9V0H46.939V9c-.021.034-2.108,3.306-4.436,3.375C41.771,12.4,38.09,12.408,31.564,12.408ZM21.843,7.739c-.066,0-.112.057-.16.144l-.318.527c-.069.137-.093.2.047.294a3.637,3.637,0,0,0,2.114.581c1.4,0,2.045-.867,2.045-1.672,0-1.262-.994-1.536-1.859-1.634-.7-.082-1.1-.149-1.1-.558,0-.314.107-.634.9-.634a1.981,1.981,0,0,1,1.27.41.225.225,0,0,0,.119.046c.065,0,.11-.056.16-.147l.318-.526c.067-.134.095-.208-.047-.294a3.3,3.3,0,0,0-1.9-.581,1.832,1.832,0,0,0-2.045,1.774c0,.892.6,1.416,1.781,1.557.732.085,1.177.171,1.177.65,0,.354-.285.519-.9.519a2.758,2.758,0,0,1-1.487-.41A.239.239,0,0,0,21.843,7.739Zm4.867-3.961c-.163,0-.21.047-.21.209v5c0,.163.047.21.21.21h3.516c.162,0,.209-.047.209-.21v-.65c0-.163-.047-.21-.209-.21H27.762V7.007h2.362c.162,0,.209-.047.209-.209V6.147c0-.162-.047-.209-.209-.209H27.762V4.846h2.463c.162,0,.209-.047.209-.209V3.986c0-.162-.047-.209-.209-.209ZM16.951,8.192h2.176l.41.8c.085.162.131.21.271.21H20.8a.15.15,0,0,0,.131-.07.139.139,0,0,0,0-.14l-2.711-5.1c-.017-.028-.031-.054-.044-.077-.047-.085-.072-.131-.126-.131h-.023c-.055,0-.08.046-.126.13-.013.023-.027.05-.044.079l-2.711,5.1a.151.151,0,0,0,.006.145.144.144,0,0,0,.125.064h.991c.141,0,.187-.047.272-.21l.41-.8Zm1.758-1.069H17.376l.659-1.332h.015l.657,1.331Z" transform="translate(-10112.003 -15816.5)" fill="#77c13a"/><g transform="translate(-10107 -15844)" fill="none" stroke="#77c13a" stroke-width="1.7"><rect width="11" height="11" rx="2" stroke="none"/><rect x="0.85" y="0.85" width="9.3" height="9.3" rx="1.15" fill="none"/></g><path d="M11,2.068V9a2,2,0,0,1-2,2H2.039Z" transform="translate(-10107 -15844)" fill="#77c13a"/><g transform="translate(0 13)"><g transform="translate(-10107 -15844)" fill="none" stroke="#77c13a" stroke-width="1.7"><rect width="11" height="11" rx="2" stroke="none"/><rect x="0.85" y="0.85" width="9.3" height="9.3" rx="1.15" fill="none"/></g><path d="M11,2.068V9a2,2,0,0,1-2,2H2.039Z" transform="translate(-10107 -15844)" fill="#77c13a"/></g><g transform="translate(13)"><g transform="translate(-10107 -15844)" fill="none" stroke="#77c13a" stroke-width="1.7"><rect width="11" height="11" rx="2" stroke="none"/><rect x="0.85" y="0.85" width="9.3" height="9.3" rx="1.15" fill="none"/></g><path d="M11,2.068V9a2,2,0,0,1-2,2H2.039Z" transform="translate(-10107 -15844)" fill="#77c13a"/></g><g transform="translate(13 13)"><g transform="translate(-10107 -15844)" fill="none" stroke="#77c13a" stroke-width="1.7"><rect width="11" height="11" rx="2" stroke="none"/><rect x="0.85" y="0.85" width="9.3" height="9.3" rx="1.15" fill="none"/></g><path d="M11,2.068V9a2,2,0,0,1-2,2H2.039Z" transform="translate(-10107 -15844)" fill="#77c13a"/></g><g transform="translate(26)"><g transform="translate(-10107 -15844)" fill="none" stroke="#77c13a" stroke-width="1.7"><rect width="11" height="11" rx="2" stroke="none"/><rect x="0.85" y="0.85" width="9.3" height="9.3" rx="1.15" fill="none"/></g><path d="M11,2.068V9a2,2,0,0,1-2,2H2.039Z" transform="translate(-10107 -15844)" fill="#77c13a"/></g><g transform="translate(26 13)"><g transform="translate(-10107 -15844)" fill="none" stroke="#77c13a" stroke-width="1.7"><rect width="11" height="11" rx="2" stroke="none"/><rect x="0.85" y="0.85" width="9.3" height="9.3" rx="1.15" fill="none"/></g><path d="M11,2.068V9a2,2,0,0,1-2,2H2.039Z" transform="translate(-10107 -15844)" fill="#77c13a"/></g></g></g></svg>