<?xml version="1.0" encoding="UTF-8" standalone="no"?>
<svg width="16px" height="22px" viewBox="0 0 16 22" version="1.1" xmlns="http://www.w3.org/2000/svg" xmlns:xlink="http://www.w3.org/1999/xlink">
    <!-- Generator: Sketch 41.2 (35397) - http://www.bohemiancoding.com/sketch -->
    <title>BigArrowWhite</title>
    <desc>Created with Sketch.</desc>
    <defs></defs>
    <g id="Cortes" stroke="none" stroke-width="1" fill="none" fill-rule="evenodd">
        <g id="Pregrado" transform="translate(-247.000000, -239.000000)" fill="#FFFFFF">
            <path d="M262.164466,252.698312 C261.770837,252.299041 261.13245,252.299041 260.738821,252.698312 L256.008095,257.495866 L256.008095,240.022305 C256.008095,239.457747 255.556643,239 255.00003,239 C254.443256,239 253.991966,239.457747 253.991966,240.022305 L253.991966,257.495866 L249.26124,252.698476 C248.86745,252.299286 248.229224,252.299286 247.835595,252.698476 C247.441804,253.097747 247.441804,253.744989 247.835595,254.14426 L254.287208,260.686848 C254.483901,260.886401 254.742046,260.98626 255.00003,260.98626 C255.258014,260.98626 255.515917,260.886401 255.712853,260.686848 L262.164466,254.144097 C262.558175,253.744825 262.558175,253.097584 262.164466,252.698312 L262.164466,252.698312 Z" id="BigArrowWhite"></path>
        </g>
    </g>
</svg>