<?xml version="1.0" encoding="UTF-8"?>
<svg width="316px" height="101px" viewBox="0 0 316 101" version="1.1" xmlns="http://www.w3.org/2000/svg" xmlns:xlink="http://www.w3.org/1999/xlink">
    <!-- Generator: Sketch 50.2 (55047) - http://www.bohemiancoding.com/sketch -->
    <title>bitacora-ind</title>
    <desc>Created with Sketch.</desc>
    <defs></defs>
    <g id="Page-1" stroke="none" stroke-width="1" fill="none" fill-rule="evenodd">
        <g id="bitacora-ind" transform="translate(1.000000, 1.000000)">
            <g id="title-bitacora" transform="translate(34.000000, 39.000000)">
                <g id="Rectangle-6">
                    <g id="path-1-link" fill="#000000" fill-rule="nonzero">
                        <path d="M2,0 L279,0 C280.104569,-2.02906125e-16 281,0.8954305 281,2 L281,61 L0,61 L0,2 C-1.3527075e-16,0.8954305 0.8954305,2.02906125e-16 2,0 Z" id="path-1"></path>
                    </g>
                    <g id="path-1-link" fill="#E53A66">
                        <path d="M2,0 L279,0 C280.104569,-2.02906125e-16 281,0.8954305 281,2 L281,61 L0,61 L0,2 C-1.3527075e-16,0.8954305 0.8954305,2.02906125e-16 2,0 Z" id="path-1"></path>
                    </g>
                </g>
                <g id="BITACORA" transform="translate(18.000000, 24.000000)" fill="#FFFFFF">
                    <path d="M5.32,13 L1.498,13 C1.274,13 1.19,12.944 1.19,12.706 L1.19,3.494 C1.19,3.27 1.26,3.2 1.498,3.2 L4.97,3.2 C6.566,3.2 8.47,3.858 8.47,5.916 C8.47,7.036 7.686,7.638 7.084,7.946 L7.084,7.96 C7.714,8.226 8.82,8.87 8.82,10.284 C8.82,12.3 7.168,13 5.32,13 Z M2.884,11.586 L5.236,11.586 C6.566,11.586 7.126,11.082 7.126,10.13 C7.126,9.346 6.412,8.702 5.292,8.702 L2.884,8.702 L2.884,11.586 Z M2.884,7.344 L5.054,7.344 C6.146,7.344 6.776,6.784 6.776,6.084 C6.776,5.076 6.118,4.614 4.9,4.614 L2.884,4.614 L2.884,7.344 Z M10.626,12.706 L10.626,3.494 C10.626,3.27 10.696,3.2 10.92,3.2 L12.026,3.2 C12.264,3.2 12.32,3.27 12.32,3.494 L12.32,12.706 C12.32,12.93 12.25,13 12.026,13 L10.92,13 C10.696,13 10.626,12.93 10.626,12.706 Z M14,3.2 L21.812,3.2 C22.05,3.2 22.106,3.27 22.106,3.494 L22.106,4.418 C22.106,4.656 22.036,4.712 21.812,4.712 L18.76,4.712 L18.76,12.706 C18.76,12.93 18.69,13 18.452,13 L17.36,13 C17.122,13 17.066,12.93 17.066,12.706 L17.066,4.712 L14,4.712 C13.762,4.712 13.706,4.642 13.706,4.418 L13.706,3.494 C13.706,3.27 13.776,3.2 14,3.2 Z M26.39,5.86 L26.362,5.86 L24.738,9.346 L28.014,9.346 L26.39,5.86 Z M26.642,3.27 L31.374,12.706 C31.444,12.846 31.36,13 31.178,13 L29.89,13 C29.68,13 29.61,12.93 29.498,12.706 L28.574,10.788 L24.164,10.788 L23.254,12.706 C23.128,12.93 23.072,13 22.862,13 L21.56,13 C21.392,13 21.308,12.846 21.378,12.706 L26.11,3.27 C26.208,3.102 26.25,2.99 26.348,2.99 L26.39,2.99 C26.502,2.99 26.53,3.102 26.642,3.27 Z M28.196,1.17 L27.104,2.094 C26.978,2.206 26.824,2.276 26.642,2.276 L25.76,2.276 C25.564,2.276 25.522,2.178 25.746,1.926 L27.482,0.05 C27.622,-0.132 27.776,-0.062 27.902,0.134 L28.294,0.764 C28.378,0.932 28.378,1.016 28.196,1.17 Z M37.058,11.698 C38.136,11.698 39.018,11.25 39.648,10.578 C39.816,10.41 39.914,10.452 40.068,10.606 L40.712,11.306 C40.866,11.488 40.894,11.572 40.726,11.74 C39.83,12.622 38.416,13.182 37.058,13.182 C34.3,13.182 32.032,10.886 32.032,8.1 C32.032,5.314 34.3,3.018 37.058,3.018 C38.416,3.018 39.83,3.578 40.726,4.46 C40.88,4.614 40.852,4.712 40.698,4.88 L40.054,5.58 C39.9,5.748 39.802,5.776 39.634,5.608 C39.018,4.95 38.136,4.502 37.058,4.502 C35.098,4.502 33.74,6.266 33.74,8.1 C33.74,9.92 35.098,11.698 37.058,11.698 Z M42,8.1 C42,5.314 44.268,3.018 47.026,3.018 C49.784,3.018 52.052,5.314 52.052,8.1 C52.052,10.886 49.784,13.182 47.026,13.182 C44.268,13.182 42,10.886 42,8.1 Z M43.708,8.1 C43.708,9.92 45.066,11.698 47.026,11.698 C49.028,11.698 50.344,9.92 50.344,8.1 C50.344,6.266 49.028,4.502 47.026,4.502 C45.066,4.502 43.708,6.266 43.708,8.1 Z M61.068,6.14 C61.068,7.75 60.158,8.604 58.94,8.954 L61.446,12.622 C61.6,12.888 61.432,13 61.194,13 L60.158,13 C59.92,13 59.78,12.902 59.64,12.706 L57.204,9.122 L55.566,9.122 L55.566,12.706 C55.566,12.944 55.496,13 55.272,13 L54.166,13 C53.942,13 53.872,12.944 53.872,12.706 L53.872,3.494 C53.872,3.27 53.942,3.2 54.166,3.2 L57.582,3.2 C59.178,3.2 61.068,3.872 61.068,6.14 Z M55.566,7.708 L57.512,7.708 C58.828,7.708 59.43,7.148 59.43,6.14 C59.43,5.076 58.716,4.614 57.512,4.614 L55.566,4.614 L55.566,7.708 Z M67.088,5.86 L67.06,5.86 L65.436,9.346 L68.712,9.346 L67.088,5.86 Z M67.34,3.27 L72.072,12.706 C72.142,12.846 72.058,13 71.876,13 L70.588,13 C70.378,13 70.308,12.93 70.196,12.706 L69.272,10.788 L64.862,10.788 L63.952,12.706 C63.826,12.93 63.77,13 63.56,13 L62.258,13 C62.09,13 62.006,12.846 62.076,12.706 L66.808,3.27 C66.906,3.102 66.948,2.99 67.046,2.99 L67.088,2.99 C67.2,2.99 67.228,3.102 67.34,3.27 Z" id="BITÃCORA"></path>
                </g>
            </g>
            <g id="dot" stroke="#E73A66">
                <polyline id="Stroke-1" stroke-width="2.033" points="19.502 40.5219 19.502 19.5009 40.522 19.5009"></polyline>
                <g id="Group-6" stroke-linecap="round" stroke-linejoin="round" stroke-dasharray="0.032,6.467" transform="translate(0.000000, 0.415000)" stroke-width="3">
                    <path d="M19.502,19.0864 L0.5,0.0854" id="Stroke-4"></path>
                </g>
            </g>
        </g>
    </g>
</svg>