<svg xmlns="http://www.w3.org/2000/svg" xmlns:xlink="http://www.w3.org/1999/xlink" width="32" height="30.909" viewBox="0 0 32 30.909"><defs><clipPath id="a"><path d="M0-30.909H32V0H0Z" transform="translate(0 30.909)" fill="none"/></clipPath></defs><g transform="translate(0 0)"><path d="M0,0V2" transform="translate(28 20.909)" fill="none" stroke="#221f1f" stroke-linecap="round" stroke-linejoin="round" stroke-width="1"/><path d="M12-25.5H29v15H12Z" transform="translate(0 30.909)" fill="none" stroke="#221f1f" stroke-linecap="round" stroke-linejoin="round" stroke-width="1"/><path d="M0,0H5" transform="translate(6.5 19.409)" fill="none" stroke="#221f1f" stroke-linecap="round" stroke-linejoin="round" stroke-width="1"/><path d="M0,0H5" transform="translate(6.5 12.409)" fill="none" stroke="#221f1f" stroke-linecap="round" stroke-linejoin="round" stroke-width="1"/><g clip-path="url(#a)"><path d="M0,0V-6.5H17V0" transform="translate(12 29.909)" fill="none" stroke="#221f1f" stroke-linecap="round" stroke-linejoin="round" stroke-width="1"/></g><path d="M0,0V2" transform="translate(13 20.909)" fill="none" stroke="#221f1f" stroke-linecap="round" stroke-linejoin="round" stroke-width="1"/><path d="M0,0V2" transform="translate(13 2.909)" fill="none" stroke="#221f1f" stroke-linecap="round" stroke-linejoin="round" stroke-width="1"/><g clip-path="url(#a)"><path d="M0,0H27.5V2.5" transform="translate(0.5 2.409)" fill="none" stroke="#221f1f" stroke-linecap="round" stroke-linejoin="round" stroke-width="1"/></g><path d="M0,0V-19.5H5.5" transform="translate(6 25.909)" fill="none" stroke="#221f1f" stroke-linecap="round" stroke-linejoin="round" stroke-width="1"/><g clip-path="url(#a)"><path d="M0,0H5" transform="translate(0.5 16.409)" fill="none" stroke="#221f1f" stroke-linecap="round" stroke-linejoin="round" stroke-width="1"/><path d="M0,0H6" transform="translate(25.5 30.409)" fill="none" stroke="#221f1f" stroke-linecap="round" stroke-linejoin="round" stroke-width="1"/><path d="M0,0H13" transform="translate(0.5 30.409)" fill="none" stroke="#221f1f" stroke-linecap="round" stroke-linejoin="round" stroke-width="1"/><path d="M0,0A.5.5,0,0,1,.5.5.5.5,0,0,1,0,1,.5.5,0,0,1,0,0" transform="translate(26.559 0)" fill="#221f1f"/><path d="M0,0A.5.5,0,0,1,.5.5.5.5,0,0,1,0,1,.5.5,0,0,1,0,0" transform="translate(22.559 0)" fill="#221f1f"/><path d="M0,0A.5.5,0,0,1,.5.5.5.5,0,0,1,0,1,.5.5,0,0,1,0,0" transform="translate(18.559 0)" fill="#221f1f"/><path d="M0,0A.5.5,0,0,1,.5.5.5.5,0,0,1,0,1,.5.5,0,0,1,0,0" transform="translate(14.559 0)" fill="#221f1f"/><path d="M0,0A.5.5,0,0,1,.5.5.5.5,0,0,1,0,1,.5.5,0,0,1,0,0" transform="translate(15.559 8)" fill="#221f1f"/><path d="M0,0A.5.5,0,0,1,.5.5.5.5,0,0,1,0,1,.5.5,0,0,1,0,0" transform="translate(20.559 8)" fill="#221f1f"/><path d="M0,0A.5.5,0,0,1,.5.5.5.5,0,0,1,0,1,.5.5,0,0,1,0,0" transform="translate(25.559 8)" fill="#221f1f"/><path d="M0,0A.5.5,0,0,1,.5.5.5.5,0,0,1,0,1,.5.5,0,0,1,0,0" transform="translate(15.559 12)" fill="#221f1f"/><path d="M0,0A.5.5,0,0,1,.5.5.5.5,0,0,1,0,1,.5.5,0,0,1,0,0" transform="translate(20.559 12)" fill="#221f1f"/><path d="M0,0A.5.5,0,0,1,.5.5.5.5,0,0,1,0,1,.5.5,0,0,1,0,0" transform="translate(25.559 12)" fill="#221f1f"/><path d="M0,0A.5.5,0,0,1,.5.5.5.5,0,0,1,0,1,.5.5,0,0,1,0,0" transform="translate(15.559 16)" fill="#221f1f"/><path d="M0,0A.5.5,0,0,1,.5.5.5.5,0,0,1,0,1,.5.5,0,0,1,0,0" transform="translate(20.559 16)" fill="#221f1f"/><path d="M0,0A.5.5,0,0,1,.5.5.5.5,0,0,1,0,1,.5.5,0,0,1,0,0" transform="translate(25.559 16)" fill="#221f1f"/></g></g></svg>