<?xml version="1.0" encoding="UTF-8"?>
<svg width="17px" height="18px" viewBox="0 0 17 18" version="1.1" xmlns="http://www.w3.org/2000/svg" xmlns:xlink="http://www.w3.org/1999/xlink">
    <!-- Generator: Sketch 44.1 (41455) - http://www.bohemiancoding.com/sketch -->
    <title>Layer_1</title>
    <desc>Created with Sketch.</desc>
    <defs></defs>
    <g id="Plantilla-Eventos2" stroke="none" stroke-width="1" fill="none" fill-rule="evenodd">
        <g id="Plantilla-Eventos-2-#2" transform="translate(-993.000000, -2040.000000)">
            <g id="cronograma" transform="translate(103.000000, 1367.000000)">
                <g id="item" transform="translate(609.000000, 500.000000)">
                    <g id="office-block-copy-2" transform="translate(281.000000, 173.000000)">
                        <g id="Layer_1">
                            <g id="Group">
                                <path d="M16.6301099,4.45591837 L10.9659341,4.45591837 L10.9659341,0.363673469 C10.9659341,0.161632653 10.8015385,0 10.596044,0 L0.39978022,0 C0.194285714,0 0.0298901099,0.161632653 0.0298901099,0.363673469 L0.0298901099,17.6289796 C0.0298901099,17.8310204 0.194285714,17.9926531 0.39978022,17.9926531 L10.596044,17.9926531 L16.6301099,17.9926531 C16.8356044,17.9926531 17,17.8310204 17,17.6289796 L17,4.81959184 C17,4.61755102 16.8356044,4.45591837 16.6301099,4.45591837 Z" id="Shape" fill="#99B2B7"></path>
                                <path d="M12.4081319,7.02734694 L14.818022,7.02734694 C15.0235165,7.02734694 15.1879121,6.86571429 15.1879121,6.66367347 C15.1879121,6.46163265 15.0235165,6.3 14.818022,6.3 L12.4081319,6.3 C12.2026374,6.3 12.0382418,6.46163265 12.0382418,6.66367347 C12.0382418,6.86204082 12.2026374,7.02734694 12.4081319,7.02734694 Z" id="Shape" fill="#FFFFFF"></path>
                                <path d="M12.4081319,8.85306122 L14.818022,8.85306122 C15.0235165,8.85306122 15.1879121,8.69142857 15.1879121,8.48938776 C15.1879121,8.28734694 15.0235165,8.12571429 14.818022,8.12571429 L12.4081319,8.12571429 C12.2026374,8.12571429 12.0382418,8.28734694 12.0382418,8.48938776 C12.0382418,8.69142857 12.2026374,8.85306122 12.4081319,8.85306122 Z" id="Shape" fill="#FFFFFF"></path>
                                <path d="M12.4081319,10.675102 L14.818022,10.675102 C15.0235165,10.675102 15.1879121,10.5134694 15.1879121,10.3114286 C15.1879121,10.1093878 15.0235165,9.9477551 14.818022,9.9477551 L12.4081319,9.9477551 C12.2026374,9.9477551 12.0382418,10.1093878 12.0382418,10.3114286 C12.0382418,10.5134694 12.2026374,10.675102 12.4081319,10.675102 Z" id="Shape" fill="#FFFFFF"></path>
                                <path d="M12.4081319,12.5008163 L14.818022,12.5008163 C15.0235165,12.5008163 15.1879121,12.3391837 15.1879121,12.1371429 C15.1879121,11.935102 15.0235165,11.7734694 14.818022,11.7734694 L12.4081319,11.7734694 C12.2026374,11.7734694 12.0382418,11.935102 12.0382418,12.1371429 C12.0382418,12.3391837 12.2026374,12.5008163 12.4081319,12.5008163 Z" id="Shape" fill="#FFFFFF"></path>
                                <path d="M12.4081319,14.3228571 L14.818022,14.3228571 C15.0235165,14.3228571 15.1879121,14.1612245 15.1879121,13.9591837 C15.1879121,13.7571429 15.0235165,13.5955102 14.818022,13.5955102 L12.4081319,13.5955102 C12.2026374,13.5955102 12.0382418,13.7571429 12.0382418,13.9591837 C12.0382418,14.157551 12.2026374,14.3228571 12.4081319,14.3228571 Z" id="Shape" fill="#FFFFFF"></path>
                                <path d="M12.4081319,16.1485714 L14.818022,16.1485714 C15.0235165,16.1485714 15.1879121,15.9869388 15.1879121,15.784898 C15.1879121,15.5828571 15.0235165,15.4212245 14.818022,15.4212245 L12.4081319,15.4212245 C12.2026374,15.4212245 12.0382418,15.5828571 12.0382418,15.784898 C12.0382418,15.9869388 12.2026374,16.1485714 12.4081319,16.1485714 Z" id="Shape" fill="#FFFFFF"></path>
                                <path d="M2.48461538,3.56326531 C2.69010989,3.56326531 2.85450549,3.40163265 2.85450549,3.19959184 L2.85450549,2.39510204 C2.85450549,2.19306122 2.69010989,2.03142857 2.48461538,2.03142857 C2.27912088,2.03142857 2.11472527,2.19306122 2.11472527,2.39510204 L2.11472527,3.19959184 C2.11472527,3.40163265 2.27912088,3.56326531 2.48461538,3.56326531 Z" id="Shape" fill="#FFFFFF"></path>
                                <path d="M4.49472527,3.56326531 C4.70021978,3.56326531 4.86461538,3.40163265 4.86461538,3.19959184 L4.86461538,2.39510204 C4.86461538,2.19306122 4.70021978,2.03142857 4.49472527,2.03142857 C4.28923077,2.03142857 4.12483516,2.19306122 4.12483516,2.39510204 L4.12483516,3.19959184 C4.12483516,3.40163265 4.28923077,3.56326531 4.49472527,3.56326531 Z" id="Shape" fill="#FFFFFF"></path>
                                <path d="M6.5010989,3.56326531 C6.70659341,3.56326531 6.87098901,3.40163265 6.87098901,3.19959184 L6.87098901,2.39510204 C6.87098901,2.19306122 6.70659341,2.03142857 6.5010989,2.03142857 C6.2956044,2.03142857 6.13120879,2.19306122 6.13120879,2.39510204 L6.13120879,3.19959184 C6.13120879,3.40163265 6.29934066,3.56326531 6.5010989,3.56326531 Z" id="Shape" fill="#FFFFFF"></path>
                                <path d="M8.51120879,3.56326531 C8.7167033,3.56326531 8.8810989,3.40163265 8.8810989,3.19959184 L8.8810989,2.39510204 C8.8810989,2.19306122 8.7167033,2.03142857 8.51120879,2.03142857 C8.30571429,2.03142857 8.14131868,2.19306122 8.14131868,2.39510204 L8.14131868,3.19959184 C8.14131868,3.40163265 8.30571429,3.56326531 8.51120879,3.56326531 Z" id="Shape" fill="#FFFFFF"></path>
                                <path d="M2.48461538,6.05387755 C2.69010989,6.05387755 2.85450549,5.8922449 2.85450549,5.69020408 L2.85450549,4.88204082 C2.85450549,4.68 2.69010989,4.51836735 2.48461538,4.51836735 C2.27912088,4.51836735 2.11472527,4.68 2.11472527,4.88204082 L2.11472527,5.69020408 C2.11472527,5.88857143 2.27912088,6.05387755 2.48461538,6.05387755 Z" id="Shape" fill="#FFFFFF"></path>
                                <path d="M4.49472527,6.05387755 C4.70021978,6.05387755 4.86461538,5.8922449 4.86461538,5.69020408 L4.86461538,4.88204082 C4.86461538,4.68 4.70021978,4.51836735 4.49472527,4.51836735 C4.28923077,4.51836735 4.12483516,4.68 4.12483516,4.88204082 L4.12483516,5.69020408 C4.12483516,5.88857143 4.28923077,6.05387755 4.49472527,6.05387755 Z" id="Shape" fill="#FFFFFF"></path>
                                <path d="M6.5010989,6.05387755 C6.70659341,6.05387755 6.87098901,5.8922449 6.87098901,5.69020408 L6.87098901,4.88204082 C6.87098901,4.68 6.70659341,4.51836735 6.5010989,4.51836735 C6.2956044,4.51836735 6.13120879,4.68 6.13120879,4.88204082 L6.13120879,5.69020408 C6.13120879,5.88857143 6.29934066,6.05387755 6.5010989,6.05387755 Z" id="Shape" fill="#FFFFFF"></path>
                                <path d="M8.51120879,6.05387755 C8.7167033,6.05387755 8.8810989,5.8922449 8.8810989,5.69020408 L8.8810989,4.88204082 C8.8810989,4.68 8.7167033,4.51836735 8.51120879,4.51836735 C8.30571429,4.51836735 8.14131868,4.68 8.14131868,4.88204082 L8.14131868,5.69020408 C8.14131868,5.88857143 8.30571429,6.05387755 8.51120879,6.05387755 Z" id="Shape" fill="#FFFFFF"></path>
                                <path d="M2.48461538,8.54081633 C2.69010989,8.54081633 2.85450549,8.37918367 2.85450549,8.17714286 L2.85450549,7.37265306 C2.85450549,7.17061224 2.69010989,7.00897959 2.48461538,7.00897959 C2.27912088,7.00897959 2.11472527,7.17061224 2.11472527,7.37265306 L2.11472527,8.17714286 C2.11472527,8.37918367 2.27912088,8.54081633 2.48461538,8.54081633 Z" id="Shape" fill="#FFFFFF"></path>
                                <path d="M4.49472527,8.54081633 C4.70021978,8.54081633 4.86461538,8.37918367 4.86461538,8.17714286 L4.86461538,7.37265306 C4.86461538,7.17061224 4.70021978,7.00897959 4.49472527,7.00897959 C4.28923077,7.00897959 4.12483516,7.17061224 4.12483516,7.37265306 L4.12483516,8.17714286 C4.12483516,8.37918367 4.28923077,8.54081633 4.49472527,8.54081633 Z" id="Shape" fill="#FFFFFF"></path>
                                <path d="M6.5010989,8.54081633 C6.70659341,8.54081633 6.87098901,8.37918367 6.87098901,8.17714286 L6.87098901,7.37265306 C6.87098901,7.17061224 6.70659341,7.00897959 6.5010989,7.00897959 C6.2956044,7.00897959 6.13120879,7.17061224 6.13120879,7.37265306 L6.13120879,8.17714286 C6.13120879,8.37918367 6.29934066,8.54081633 6.5010989,8.54081633 Z" id="Shape" fill="#FFFFFF"></path>
                                <path d="M8.51120879,8.54081633 C8.7167033,8.54081633 8.8810989,8.37918367 8.8810989,8.17714286 L8.8810989,7.37265306 C8.8810989,7.17061224 8.7167033,7.00897959 8.51120879,7.00897959 C8.30571429,7.00897959 8.14131868,7.17061224 8.14131868,7.37265306 L8.14131868,8.17714286 C8.14131868,8.37918367 8.30571429,8.54081633 8.51120879,8.54081633 Z" id="Shape" fill="#FFFFFF"></path>
                                <path d="M2.48461538,11.0314286 C2.69010989,11.0314286 2.85450549,10.8697959 2.85450549,10.6677551 L2.85450549,9.86326531 C2.85450549,9.66122449 2.69010989,9.49959184 2.48461538,9.49959184 C2.27912088,9.49959184 2.11472527,9.66122449 2.11472527,9.86326531 L2.11472527,10.6677551 C2.11472527,10.8661224 2.27912088,11.0314286 2.48461538,11.0314286 Z" id="Shape" fill="#FFFFFF"></path>
                                <path d="M4.49472527,11.0314286 C4.70021978,11.0314286 4.86461538,10.8697959 4.86461538,10.6677551 L4.86461538,9.86326531 C4.86461538,9.66122449 4.70021978,9.49959184 4.49472527,9.49959184 C4.28923077,9.49959184 4.12483516,9.66122449 4.12483516,9.86326531 L4.12483516,10.6677551 C4.12483516,10.8661224 4.28923077,11.0314286 4.49472527,11.0314286 Z" id="Shape" fill="#FFFFFF"></path>
                                <path d="M6.5010989,11.0314286 C6.70659341,11.0314286 6.87098901,10.8697959 6.87098901,10.6677551 L6.87098901,9.86326531 C6.87098901,9.66122449 6.70659341,9.49959184 6.5010989,9.49959184 C6.2956044,9.49959184 6.13120879,9.66122449 6.13120879,9.86326531 L6.13120879,10.6677551 C6.13120879,10.8661224 6.29934066,11.0314286 6.5010989,11.0314286 Z" id="Shape" fill="#FFFFFF"></path>
                                <path d="M8.51120879,11.0314286 C8.7167033,11.0314286 8.8810989,10.8697959 8.8810989,10.6677551 L8.8810989,9.86326531 C8.8810989,9.66122449 8.7167033,9.49959184 8.51120879,9.49959184 C8.30571429,9.49959184 8.14131868,9.66122449 8.14131868,9.86326531 L8.14131868,10.6677551 C8.14131868,10.8661224 8.30571429,11.0314286 8.51120879,11.0314286 Z" id="Shape" fill="#FFFFFF"></path>
                                <path d="M2.48461538,13.5183673 C2.69010989,13.5183673 2.85450549,13.3567347 2.85450549,13.1546939 L2.85450549,12.3502041 C2.85450549,12.1481633 2.69010989,11.9865306 2.48461538,11.9865306 C2.27912088,11.9865306 2.11472527,12.1481633 2.11472527,12.3502041 L2.11472527,13.1546939 C2.11472527,13.3567347 2.27912088,13.5183673 2.48461538,13.5183673 Z" id="Shape" fill="#FFFFFF"></path>
                                <path d="M4.49472527,13.5183673 C4.70021978,13.5183673 4.86461538,13.3567347 4.86461538,13.1546939 L4.86461538,12.3502041 C4.86461538,12.1481633 4.70021978,11.9865306 4.49472527,11.9865306 C4.28923077,11.9865306 4.12483516,12.1481633 4.12483516,12.3502041 L4.12483516,13.1546939 C4.12483516,13.3567347 4.28923077,13.5183673 4.49472527,13.5183673 Z" id="Shape" fill="#FFFFFF"></path>
                                <path d="M6.5010989,13.5183673 C6.70659341,13.5183673 6.87098901,13.3567347 6.87098901,13.1546939 L6.87098901,12.3502041 C6.87098901,12.1481633 6.70659341,11.9865306 6.5010989,11.9865306 C6.2956044,11.9865306 6.13120879,12.1481633 6.13120879,12.3502041 L6.13120879,13.1546939 C6.13120879,13.3567347 6.29934066,13.5183673 6.5010989,13.5183673 Z" id="Shape" fill="#FFFFFF"></path>
                                <path d="M8.51120879,13.5183673 C8.7167033,13.5183673 8.8810989,13.3567347 8.8810989,13.1546939 L8.8810989,12.3502041 C8.8810989,12.1481633 8.7167033,11.9865306 8.51120879,11.9865306 C8.30571429,11.9865306 8.14131868,12.1481633 8.14131868,12.3502041 L8.14131868,13.1546939 C8.14131868,13.3567347 8.30571429,13.5183673 8.51120879,13.5183673 Z" id="Shape" fill="#FFFFFF"></path>
                                <path d="M2.48461538,16.0089796 C2.69010989,16.0089796 2.85450549,15.8473469 2.85450549,15.6453061 L2.85450549,14.8371429 C2.85450549,14.635102 2.69010989,14.4734694 2.48461538,14.4734694 C2.27912088,14.4734694 2.11472527,14.635102 2.11472527,14.8371429 L2.11472527,15.6453061 C2.11472527,15.8436735 2.27912088,16.0089796 2.48461538,16.0089796 Z" id="Shape" fill="#FFFFFF"></path>
                                <path d="M4.49472527,16.0089796 C4.70021978,16.0089796 4.86461538,15.8473469 4.86461538,15.6453061 L4.86461538,14.8371429 C4.86461538,14.635102 4.70021978,14.4734694 4.49472527,14.4734694 C4.28923077,14.4734694 4.12483516,14.635102 4.12483516,14.8371429 L4.12483516,15.6453061 C4.12483516,15.8436735 4.28923077,16.0089796 4.49472527,16.0089796 Z" id="Shape" fill="#FFFFFF"></path>
                                <path d="M6.5010989,16.0089796 C6.70659341,16.0089796 6.87098901,15.8473469 6.87098901,15.6453061 L6.87098901,14.8371429 C6.87098901,14.635102 6.70659341,14.4734694 6.5010989,14.4734694 C6.2956044,14.4734694 6.13120879,14.635102 6.13120879,14.8371429 L6.13120879,15.6453061 C6.13120879,15.8436735 6.29934066,16.0089796 6.5010989,16.0089796 Z" id="Shape" fill="#FFFFFF"></path>
                                <path d="M8.51120879,16.0089796 C8.7167033,16.0089796 8.8810989,15.8473469 8.8810989,15.6453061 L8.8810989,14.8371429 C8.8810989,14.635102 8.7167033,14.4734694 8.51120879,14.4734694 C8.30571429,14.4734694 8.14131868,14.635102 8.14131868,14.8371429 L8.14131868,15.6453061 C8.14131868,15.8436735 8.30571429,16.0089796 8.51120879,16.0089796 Z" id="Shape" fill="#FFFFFF"></path>
                            </g>
                        </g>
                    </g>
                </g>
            </g>
        </g>
    </g>
</svg>