<?xml version="1.0" encoding="UTF-8" standalone="no"?>
<svg width="12px" height="12px" viewBox="0 0 12 12" version="1.1" xmlns="http://www.w3.org/2000/svg" xmlns:xlink="http://www.w3.org/1999/xlink">
    <!-- Generator: Sketch 41.2 (35397) - http://www.bohemiancoding.com/sketch -->
    <title>Celphone</title>
    <desc>Created with Sketch.</desc>
    <defs></defs>
    <g id="Cortes" stroke="none" stroke-width="1" fill="none" fill-rule="evenodd">
        <g id="Falcultad" transform="translate(-330.000000, -2.000000)" fill="#7BC142">
            <path d="M341.955103,11.4658824 C341.980448,11.6607266 341.921276,11.8301384 341.777834,11.9741176 L340.093779,13.6512318 C340.017807,13.7359377 339.918641,13.808 339.796241,13.8672318 C339.673841,13.9265467 339.553572,13.9646644 339.435434,13.9815848 C339.426993,13.9815848 339.401607,13.9837647 339.359379,13.988 C339.317234,13.9922145 339.262366,13.9943737 339.194834,13.9943737 C339.034407,13.9943737 338.774814,13.9668443 338.416055,13.9117647 C338.057297,13.8566851 337.618366,13.7211349 337.099262,13.5051765 C336.580034,13.2891765 335.991269,12.9651349 335.332862,12.5331765 C334.674455,12.1012388 333.9738,11.5082561 333.230959,10.7543529 C332.640062,10.1698824 332.150462,9.61082353 331.762159,9.07719723 C331.373855,8.54352941 331.061524,8.05011765 330.825166,7.59694118 C330.588786,7.14376471 330.411517,6.73294118 330.293338,6.36447059 C330.175159,5.996 330.094966,5.67835294 330.052759,5.41152941 C330.010552,5.14470588 329.993669,4.93505882 330.00211,4.78258824 C330.010552,4.63011765 330.014772,4.54541176 330.014772,4.52847059 C330.031655,4.40988235 330.069641,4.28917647 330.128731,4.16635294 C330.187821,4.04352941 330.259572,3.944 330.343986,3.86776471 L332.028041,2.17788235 C332.146221,2.05929412 332.281283,2 332.433228,2 C332.542966,2 332.640041,2.03176471 332.724455,2.09529412 C332.808869,2.15882353 332.880621,2.23717647 332.93971,2.33035294 L334.294552,4.90964706 C334.370524,5.04517647 334.391628,5.19341176 334.357862,5.35435294 C334.324097,5.51529412 334.252345,5.65082353 334.142607,5.76094118 L333.522166,6.38352941 C333.505283,6.40047059 333.49051,6.428 333.477848,6.46611765 C333.465186,6.50423529 333.458855,6.536 333.458855,6.56141176 C333.492621,6.73929412 333.568593,6.94258824 333.686772,7.17129412 C333.788069,7.37458824 333.944234,7.62235294 334.155269,7.91458824 C334.366303,8.20682353 334.665972,8.54350865 335.054276,8.92468512 C335.434138,9.3143737 335.771793,9.61715571 336.067241,9.83319723 C336.362628,10.0491142 336.609621,10.208 336.807993,10.3096471 C337.006366,10.4112941 337.15831,10.4727059 337.263807,10.4938201 L337.422041,10.5256055 C337.438924,10.5256055 337.466421,10.5192318 337.504366,10.5065467 C337.542352,10.4938201 337.569786,10.4790173 337.58669,10.4620554 L338.308407,9.72511419 C338.460434,9.58960554 338.637621,9.52184083 338.840234,9.52184083 C338.983779,9.52184083 339.097676,9.54723183 339.18209,9.59807612 L339.194731,9.59807612 L341.63849,11.0465467 C341.815821,11.1567474 341.921317,11.2964706 341.955103,11.4658824 L341.955103,11.4658824 Z" id="Celphone"></path>
        </g>
    </g>
</svg>