<?xml version="1.0" encoding="UTF-8"?>
<svg width="19px" height="19px" viewBox="0 0 19 19" version="1.1" xmlns="http://www.w3.org/2000/svg" xmlns:xlink="http://www.w3.org/1999/xlink">
    <!-- Generator: Sketch 44.1 (41455) - http://www.bohemiancoding.com/sketch -->
    <title>clock copy 2</title>
    <desc>Created with Sketch.</desc>
    <defs></defs>
    <g id="Plantilla-Eventos2" stroke="none" stroke-width="1" fill="none" fill-rule="evenodd">
        <g id="Plantilla-Eventos-2-#2" transform="translate(-806.000000, -2040.000000)" fill="#99B2B7">
            <g id="cronograma" transform="translate(103.000000, 1367.000000)">
                <g id="item" transform="translate(609.000000, 500.000000)">
                    <g id="clock-copy-2" transform="translate(94.000000, 173.000000)">
                        <g id="Layer_1">
                            <path d="M9.49981,0 C4.25327667,0 6.33333329e-05,4.25334 6.33333329e-05,9.49968333 C6.33333329e-05,14.7460267 4.25327667,18.9998733 9.49974667,18.9998733 C14.7462167,18.9998733 18.9997467,14.7462167 18.9997467,9.49968333 C18.9997467,4.25315 14.74628,0 9.49981,0 Z M10.1558167,10.6613433 C10.15531,10.6862967 10.1515733,10.71125 10.14809,10.7362667 C10.14562,10.7550133 10.14448,10.7742033 10.1402367,10.7926333 C10.1359933,10.8118233 10.12871,10.83076 10.1225033,10.84995 C10.1150933,10.87313 10.10819,10.8962467 10.0985,10.9180967 C10.0966633,10.9218967 10.09603,10.92595 10.0943833,10.92975 C10.08007,10.9602767 10.0634767,10.9889033 10.0453,11.01601 C10.04416,11.0176567 10.04264,11.0193033 10.0415,11.02095 C10.02079,11.05135 9.99716667,11.0789633 9.97234,11.1048667 C9.96543667,11.11196 9.95840667,11.1183567 9.95112333,11.12507 C9.92927333,11.1459067 9.90628333,11.16497 9.88183667,11.1823867 C9.8743,11.1878333 9.86708,11.1935333 9.85916333,11.19879 C9.82781333,11.21931 9.79494333,11.23736 9.76074333,11.25218 C9.75333333,11.2554733 9.74560667,11.2574367 9.73807,11.2604133 C9.70919,11.27156 9.67993,11.2808067 9.64972,11.2878367 C9.63889,11.2904333 9.62818667,11.2927767 9.61716667,11.29474 C9.57840667,11.3018333 9.53914,11.30671 9.49936667,11.30671 C9.49132333,11.30671 9.48309,11.30424 9.47504667,11.3039233 C9.43692,11.3024667 9.39917333,11.29949 9.36288333,11.2917633 C9.35154667,11.2892933 9.3404,11.2843533 9.32906333,11.28125 C9.29524333,11.2720667 9.26218333,11.26187 9.23064333,11.2477467 C9.22703333,11.24591 9.22323333,11.2455933 9.21962333,11.2439467 L5.57700667,9.52577667 C5.24881333,9.37105333 5.10821333,8.97946333 5.26293667,8.65127 C5.41766,8.32326667 5.80925,8.18247667 6.13744333,8.3372 L8.84279,9.61298667 L8.84279,3.94243667 C8.84279,3.5796 9.13697333,3.28541667 9.49981,3.28541667 C9.86264667,3.28541667 10.15683,3.5796 10.15683,3.94243667 L10.15683,10.6495 L10.1569567,10.6495 C10.1569567,10.6534267 10.1558167,10.6573533 10.1558167,10.6613433 Z" id="Shape"></path>
                        </g>
                    </g>
                </g>
            </g>
        </g>
    </g>
</svg>