<?xml version="1.0" encoding="UTF-8" standalone="no"?>
<svg width="12px" height="11px" viewBox="0 0 12 11" version="1.1" xmlns="http://www.w3.org/2000/svg" xmlns:xlink="http://www.w3.org/1999/xlink">
    <!-- Generator: Sketch 41.2 (35397) - http://www.bohemiancoding.com/sketch -->
    <title>Comments</title>
    <desc>Created with Sketch.</desc>
    <defs></defs>
    <g id="Cortes" stroke="none" stroke-width="1" fill="none" fill-rule="evenodd">
        <g id="Pregrado" transform="translate(-273.000000, -227.000000)" fill="#9B9B9B">
            <path d="M283.278373,231.35875 C283.278373,231.88125 283.226981,232.445 283.072805,232.94 C282.944325,233.38 282.456103,233.6825 282.044968,233.72375 C281.646681,233.77875 281.235546,233.7925 280.824411,233.80625 C279.899358,233.83375 278.974304,233.88875 278.049251,233.88875 C277.35546,233.88875 276.648822,233.80625 275.955032,233.72375 C275.543897,233.6825 275.042827,233.38 274.914347,232.94 C274.773019,232.445 274.708779,231.88125 274.708779,231.35875 C274.708779,230.83625 274.773019,230.2725 274.914347,229.7775 C275.042827,229.3375 275.543897,229.035 275.955032,228.99375 C276.957173,228.87 277.985011,228.8425 279,228.8425 C280.014989,228.8425 281.042827,228.87 282.044968,228.99375 C282.456103,229.035 282.944325,229.3375 283.072805,229.7775 C283.226981,230.2725 283.278373,230.83625 283.278373,231.35875 L283.278373,231.35875 Z M285,231.3175 C285,230.42375 284.922912,229.475 284.704497,228.60875 C284.550321,227.935 283.920771,227.3575 283.265525,227.26125 C282.85439,227.20625 282.430407,227.17875 282.019272,227.1375 C281.017131,227.055 280.002141,227 279,227 C277.997859,227 276.982869,227.055 275.980728,227.1375 C275.569593,227.17875 275.14561,227.20625 274.734475,227.26125 C274.079229,227.3575 273.449679,227.935 273.282655,228.60875 C273.077088,229.475 273,230.42375 273,231.3175 C273,232.21125 273.077088,233.16 273.282655,234.0125 C273.449679,234.7 274.079229,235.2775 274.734475,235.37375 C275.698073,235.4975 276.687366,235.64875 277.663812,235.64875 C278.074946,235.64875 278.473233,235.635 278.884368,235.6075 L281.556745,238 L281.556745,235.4975 C282.122056,235.45625 282.700214,235.4425 283.265525,235.37375 C283.920771,235.2775 284.550321,234.7 284.704497,234.0125 C284.922912,233.16 285,232.21125 285,231.3175 L285,231.3175 Z" id="Comments"></path>
        </g>
    </g>
</svg>