<svg xmlns="http://www.w3.org/2000/svg" xmlns:xlink="http://www.w3.org/1999/xlink" width="9.972" height="6.281" viewBox="0 0 9.972 6.281"><defs><clipPath id="a"><path d="M115.986-5.848,120.1-10.4a.226.226,0,0,1,.342,0l.456.5a.282.282,0,0,1,.071.189.282.282,0,0,1-.071.189l-4.744,5.242a.226.226,0,0,1-.342,0l-4.744-5.242A.282.282,0,0,1,111-9.7a.282.282,0,0,1,.071-.189l.456-.5a.226.226,0,0,1,.342,0l4.117,4.549Z" transform="translate(-111 10.475)" fill="none" clip-rule="evenodd"/></clipPath><clipPath id="b"><path d="M0,0H122V-17H0Z" transform="translate(0 17)" fill="none"/></clipPath></defs><g transform="translate(0)" clip-path="url(#a)"><g transform="translate(-111 -6.525)" clip-path="url(#b)"><path d="M125.972.806V-15.475H106V.806Z" transform="translate(0 17)" fill="#7ac041"/></g></g></svg>