<?xml version="1.0" encoding="UTF-8" standalone="no"?>
<svg width="37px" height="36px" viewBox="0 0 37 36" version="1.1" xmlns="http://www.w3.org/2000/svg" xmlns:xlink="http://www.w3.org/1999/xlink">
    <!-- Generator: Sketch 41.2 (35397) - http://www.bohemiancoding.com/sketch -->
    <title>EntrevistaHover</title>
    <desc>Created with Sketch.</desc>
    <defs></defs>
    <g id="Cortes" stroke="none" stroke-width="1" fill="none" fill-rule="evenodd">
        <g id="Pregrado" transform="translate(-686.000000, -117.000000)" fill="#FFFFFF">
            <path d="M696.756543,137.646293 L699.673913,137.646293 L699.673913,138.440381 L699.673913,139.234469 L691.630435,139.234469 L691.630435,138.440381 L691.630435,137.646293 L696.756543,137.646293 Z M697.26087,132.881764 L707.717391,132.881764 L707.717391,133.675852 L707.717391,134.46994 L706.918674,134.46994 L703.695652,134.46994 L697.26087,134.46994 L695.652174,134.46994 L691.630435,134.46994 L691.630435,133.675852 L691.630435,132.881764 L695.652174,132.881764 L697.26087,132.881764 Z M721.391304,135.271175 C721.391304,136.141496 720.670609,136.852205 719.785826,136.852205 L717.71463,136.852205 L717.369565,136.852205 L716.105935,136.852205 L716.105935,138.440381 L716.105935,140.978287 L713.347826,138.48485 L713.347826,138.440381 L713.347826,136.852205 L713.347826,135.264028 L713.347826,133.675852 L713.347826,129.698264 C713.347826,127.950476 711.907239,126.529058 710.133652,126.529058 L697.26087,126.529058 L697.26087,122.558617 L697.26087,120.169206 C697.26087,119.298885 697.980761,118.588176 698.866348,118.588176 L719.785826,118.588176 C720.676239,118.588176 721.391304,119.294121 721.391304,120.169206 L721.391304,135.271175 Z M711.73913,144.800234 C711.73913,145.675319 711.024065,146.381263 710.133652,146.381263 L700.15813,146.381263 L697.758761,146.381263 L696.451696,147.548573 L695.979543,147.969439 L693.23913,150.416025 L693.23913,147.969439 L693.23913,147.548573 L693.23913,146.381263 L691.630435,146.381263 L689.214174,146.381263 C688.328587,146.381263 687.608696,145.670554 687.608696,144.800234 L687.608696,143.20491 L687.608696,138.440381 L687.608696,133.675852 L687.608696,129.698264 C687.608696,129.41001 687.691543,129.143991 687.827478,128.911323 C688.104174,128.438046 688.617348,128.117235 689.214174,128.117235 L691.630435,128.117235 L695.652174,128.117235 L697.26087,128.117235 L710.133652,128.117235 C710.726457,128.117235 711.23963,128.439634 711.517935,128.911323 C711.65387,129.143991 711.73913,129.410804 711.73913,129.698264 L711.73913,133.675852 L711.73913,135.264028 L711.73913,136.852205 L711.73913,137.030081 L711.73913,138.440381 L711.73913,139.183648 L711.73913,144.800234 Z M719.785826,117 L698.866348,117 C697.092761,117 695.652174,118.421418 695.652174,120.169206 L695.652174,122.558617 L695.652174,126.529058 L691.630435,126.529058 L689.214174,126.529058 C687.435761,126.529058 686,127.945712 686,129.698264 L686,144.800234 C686,146.548022 687.440587,147.969439 689.214174,147.969439 L691.630435,147.969439 L691.630435,152.204312 C691.630435,152.892786 692.4565,153.25489 692.9745,152.793525 L698.379717,147.969439 L710.133652,147.969439 C710.709565,147.969439 711.241239,147.809034 711.708565,147.548573 C712.683435,147.004622 713.347826,145.985013 713.347826,144.800234 L713.347826,140.638417 L716.366543,143.367698 C716.670587,143.642453 717.081609,143.624983 717.369565,143.426461 C717.570652,143.28829 717.71463,143.065945 717.71463,142.782455 L717.71463,138.440381 L719.785826,138.440381 C721.559413,138.440381 723,137.018963 723,135.271175 L723,120.169206 C723,118.416653 721.564239,117 719.785826,117 L719.785826,117 Z" id="EntrevistaHover"></path>
        </g>
    </g>
</svg>