<?xml version="1.0" encoding="UTF-8" standalone="no"?>
<svg width="37px" height="36px" viewBox="0 0 37 36" version="1.1" xmlns="http://www.w3.org/2000/svg" xmlns:xlink="http://www.w3.org/1999/xlink">
    <!-- Generator: Sketch 41.2 (35397) - http://www.bohemiancoding.com/sketch -->
    <title>EntrevistaNormal</title>
    <desc>Created with Sketch.</desc>
    <defs></defs>
    <g id="Cortes" stroke="none" stroke-width="1" fill="none" fill-rule="evenodd" opacity="0.7">
        <g id="Pregrado" transform="translate(-686.000000, -33.000000)" fill="#FFFFFF">
            <path d="M696.756543,53.646293 L699.673913,53.646293 L699.673913,54.4403812 L699.673913,55.2344694 L691.630435,55.2344694 L691.630435,54.4403812 L691.630435,53.646293 L696.756543,53.646293 Z M697.26087,48.8817638 L707.717391,48.8817638 L707.717391,49.675852 L707.717391,50.4699402 L706.918674,50.4699402 L703.695652,50.4699402 L697.26087,50.4699402 L695.652174,50.4699402 L691.630435,50.4699402 L691.630435,49.675852 L691.630435,48.8817638 L695.652174,48.8817638 L697.26087,48.8817638 Z M721.391304,51.2711752 C721.391304,52.1414959 720.670609,52.8522048 719.785826,52.8522048 L717.71463,52.8522048 L717.369565,52.8522048 L716.105935,52.8522048 L716.105935,54.4403812 L716.105935,56.978287 L713.347826,54.4848501 L713.347826,54.4403812 L713.347826,52.8522048 L713.347826,51.2640284 L713.347826,49.675852 L713.347826,45.6982643 C713.347826,43.9504762 711.907239,42.5290583 710.133652,42.5290583 L697.26087,42.5290583 L697.26087,38.5586173 L697.26087,36.169206 C697.26087,35.2988853 697.980761,34.5881764 698.866348,34.5881764 L719.785826,34.5881764 C720.676239,34.5881764 721.391304,35.2941208 721.391304,36.169206 L721.391304,51.2711752 Z M711.73913,60.8002335 C711.73913,61.6753187 711.024065,62.3812631 710.133652,62.3812631 L700.15813,62.3812631 L697.758761,62.3812631 L696.451696,63.5485727 L695.979543,63.9694395 L693.23913,66.4160252 L693.23913,63.9694395 L693.23913,63.5485727 L693.23913,62.3812631 L691.630435,62.3812631 L689.214174,62.3812631 C688.328587,62.3812631 687.608696,61.6705542 687.608696,60.8002335 L687.608696,59.2049103 L687.608696,54.4403812 L687.608696,49.675852 L687.608696,45.6982643 C687.608696,45.4100103 687.691543,45.1439907 687.827478,44.9113229 C688.104174,44.4380463 688.617348,44.1172347 689.214174,44.1172347 L691.630435,44.1172347 L695.652174,44.1172347 L697.26087,44.1172347 L710.133652,44.1172347 C710.726457,44.1172347 711.23963,44.4396345 711.517935,44.9113229 C711.65387,45.1439907 711.73913,45.4108044 711.73913,45.6982643 L711.73913,49.675852 L711.73913,51.2640284 L711.73913,52.8522048 L711.73913,53.0300806 L711.73913,54.4403812 L711.73913,55.1836477 L711.73913,60.8002335 Z M719.785826,33 L698.866348,33 C697.092761,33 695.652174,34.4214179 695.652174,36.169206 L695.652174,38.5586173 L695.652174,42.5290583 L691.630435,42.5290583 L689.214174,42.5290583 C687.435761,42.5290583 686,43.9457116 686,45.6982643 L686,60.8002335 C686,62.5480216 687.440587,63.9694395 689.214174,63.9694395 L691.630435,63.9694395 L691.630435,68.2043118 C691.630435,68.8927863 692.4565,69.2548905 692.9745,68.7935252 L698.379717,63.9694395 L710.133652,63.9694395 C710.709565,63.9694395 711.241239,63.8090337 711.708565,63.5485727 C712.683435,63.0046223 713.347826,61.9850131 713.347826,60.8002335 L713.347826,56.6384173 L716.366543,59.3676984 C716.670587,59.6424529 717.081609,59.624983 717.369565,59.4264609 C717.570652,59.2882896 717.71463,59.0659449 717.71463,58.7824554 L717.71463,54.4403812 L719.785826,54.4403812 C721.559413,54.4403812 723,53.0189633 723,51.2711752 L723,36.169206 C723,34.4166533 721.564239,33 719.785826,33 L719.785826,33 Z" id="EntrevistaNormal"></path>
        </g>
    </g>
</svg>