<?xml version="1.0" encoding="UTF-8" standalone="no"?>
<svg width="34px" height="34px" viewBox="0 0 34 34" version="1.1" xmlns="http://www.w3.org/2000/svg" xmlns:xlink="http://www.w3.org/1999/xlink">
    <!-- Generator: Sketch 41.2 (35397) - http://www.bohemiancoding.com/sketch -->
    <title>ExamenesyPruebasNormal</title>
    <desc>Created with Sketch.</desc>
    <defs></defs>
    <g id="Cortes" stroke="none" stroke-width="1" fill="none" fill-rule="evenodd" opacity="0.7">
        <g id="Pregrado" transform="translate(-488.000000, -33.000000)" fill="#FFFFFF">
            <path d="M516.283115,64.2137305 L519.260704,61.2369808 L520.15414,65.1071538 L516.283115,64.2137305 Z M506.150862,54.4856967 L505.023905,53.3587559 L501.642237,49.9771364 L500.51528,48.8501956 L493.539145,41.8741609 L496.920016,38.4925415 L503.896151,45.4685761 L505.023905,46.595517 L508.404776,49.9771364 L509.531733,51.1040773 L518.335388,59.9076051 L514.954517,63.2892246 L506.150862,54.4856967 Z M494.979323,63.4023968 L492.308578,64.5468714 L490.453164,62.6914837 L491.598452,60.0191834 L500.514483,51.1040773 L503.896151,54.4856967 L494.979323,63.4023968 Z M490.152695,38.4877595 C489.846647,38.1809192 489.847444,37.6756289 490.157477,37.3648037 L492.411391,35.110922 C492.724612,34.7985028 493.225127,34.7977058 493.534363,35.1061401 L495.793059,37.3648037 L492.411391,40.7464231 L490.152695,38.4877595 Z M514.487475,37.1320832 L517.869143,40.5129057 L509.531733,48.8501956 L506.150862,45.4677792 L514.487475,37.1320832 Z M518.715556,34.5944739 C518.717947,34.5928799 520.402007,36.2832911 520.402007,36.2832911 C520.406789,36.2880731 518.151281,38.5403607 518.151281,38.5403607 L516.460845,36.8499495 L518.715556,34.5944739 Z M520.590099,59.9076051 L510.659487,49.9771364 L517.284146,43.3525734 L517.905008,43.9742239 C518.216635,44.2858462 518.216635,44.7903395 517.903414,45.1035557 L514.775989,48.2301391 C514.465159,48.5417613 514.465159,49.0462546 514.775989,49.3570799 C515.087616,49.6687021 515.592116,49.6687021 515.902946,49.3570799 L519.030371,46.2312935 C519.966048,45.2956298 519.966845,43.7813529 519.032762,42.8472831 L518.411103,42.2256326 L518.9961,41.6398465 L520.123057,40.5129057 L519.278238,39.6680985 L521.533746,37.4126229 C522.159391,36.7853935 522.153015,35.7803918 521.528964,35.1555533 L519.844905,33.471518 C519.214478,32.8411006 518.210259,32.8458825 517.588599,33.467533 L515.333091,35.7230087 L514.487475,34.8774046 L513.360518,36.0043454 L505.023905,44.3408383 L494.66132,33.9791992 C493.728034,33.0467235 492.218517,33.0499114 491.284434,33.9839812 L489.03052,36.2378628 C488.099625,37.1687446 488.094046,38.6838185 489.025738,39.6147004 L491.284434,41.8733639 L491.499624,42.0885507 L492.411391,43.0011018 L499.387526,49.9771364 L490.253914,59.1106172 L488.563479,63.0557071 L489.690436,64.1826479 L488,65.8730592 L489.126957,67 L490.817393,65.3095888 L491.945147,66.4365296 L495.890293,64.7461183 L505.023905,55.6126375 L513.826763,64.4161654 L514.95372,65.5431062 L520.727183,66.8756699 C521.578378,67.0717289 522.120338,66.537747 521.921885,65.6801881 L520.590099,59.9076051 Z" id="ExamenesyPruebasNormal"></path>
        </g>
    </g>
</svg>