<?xml version="1.0" encoding="UTF-8" standalone="no"?>
<svg width="34px" height="34px" viewBox="0 0 34 34" version="1.1" xmlns="http://www.w3.org/2000/svg" xmlns:xlink="http://www.w3.org/1999/xlink">
    <!-- Generator: Sketch 41.2 (35397) - http://www.bohemiancoding.com/sketch -->
    <title>ExamenesyPruebasHover</title>
    <desc>Created with Sketch.</desc>
    <defs></defs>
    <g id="Cortes" stroke="none" stroke-width="1" fill="none" fill-rule="evenodd">
        <g id="Pregrado" transform="translate(-488.000000, -117.000000)" fill="#FFFFFF">
            <path d="M516.283115,148.21373 L519.260704,145.236981 L520.15414,149.107154 L516.283115,148.21373 Z M506.150862,138.485697 L505.023905,137.358756 L501.642237,133.977136 L500.51528,132.850196 L493.539145,125.874161 L496.920016,122.492541 L503.896151,129.468576 L505.023905,130.595517 L508.404776,133.977136 L509.531733,135.104077 L518.335388,143.907605 L514.954517,147.289225 L506.150862,138.485697 Z M494.979323,147.402397 L492.308578,148.546871 L490.453164,146.691484 L491.598452,144.019183 L500.514483,135.104077 L503.896151,138.485697 L494.979323,147.402397 Z M490.152695,122.48776 C489.846647,122.180919 489.847444,121.675629 490.157477,121.364804 L492.411391,119.110922 C492.724612,118.798503 493.225127,118.797706 493.534363,119.10614 L495.793059,121.364804 L492.411391,124.746423 L490.152695,122.48776 Z M514.487475,121.132083 L517.869143,124.512906 L509.531733,132.850196 L506.150862,129.467779 L514.487475,121.132083 Z M518.715556,118.594474 C518.717947,118.59288 518.711571,118.59288 518.717947,118.599256 L520.402007,120.283291 C520.406789,120.288073 520.406789,120.284885 520.406789,120.285682 L518.151281,122.540361 L516.460845,120.849949 L518.715556,118.594474 Z M520.590099,143.907605 L510.659487,133.977136 L517.284146,127.352573 L517.905008,127.974224 C518.216635,128.285846 518.216635,128.790339 517.903414,129.103556 L514.775989,132.230139 C514.465159,132.541761 514.465159,133.046255 514.775989,133.35708 C515.087616,133.668702 515.592116,133.668702 515.902946,133.35708 L519.030371,130.231294 C519.966048,129.29563 519.966845,127.781353 519.032762,126.847283 L518.411103,126.225633 L518.9961,125.639846 L520.123057,124.512906 L519.278238,123.668099 L521.533746,121.412623 C522.159391,120.785393 522.153015,119.780392 521.528964,119.155553 L519.844905,117.471518 C519.214478,116.841101 518.210259,116.845883 517.588599,117.467533 L515.333091,119.723009 L514.487475,118.877405 L513.360518,120.004345 L513.359721,120.004345 L513.359721,120.005142 L505.023905,128.340838 L494.66132,117.979199 C493.728034,117.046723 492.218517,117.049911 491.284434,117.983981 L489.03052,120.237863 C488.099625,121.168745 488.094046,122.683819 489.025738,123.6147 L491.284434,125.873364 L491.499624,126.088551 L492.411391,127.001102 L499.387526,133.977136 L490.253914,143.110617 L488.563479,147.055707 L489.690436,148.182648 L488,149.873059 L489.126957,151 L490.817393,149.309589 L491.945147,150.43653 L495.890293,148.746118 L505.023905,139.612638 L513.826763,148.416165 L514.95372,149.543106 L520.727183,150.87567 C521.578378,151.071729 522.120338,150.537747 521.921885,149.680188 L520.590099,143.907605 Z" id="ExamenesyPruebasHover"></path>
        </g>
    </g>
</svg>