
<svg width="11px" height="7px" viewBox="0 0 11 7" version="1.1" xmlns="http://www.w3.org/2000/svg" xmlns:xlink="http://www.w3.org/1999/xlink">
    <!-- Generator: Sketch 44.1 (41455) - http://www.bohemiancoding.com/sketch -->
    <desc>Created with Sketch.</desc>
    <defs></defs>
    <g id="Plantilla-blog-entrada" stroke="none" stroke-width="1" fill="none" fill-rule="evenodd">
        <g id="Plantilla-blog-#8" transform="translate(-854.000000, -44.000000)" fill="#FFFFFF">
            <g id="header-blog-1-copy" transform="translate(0.000000, -1.000000)">
                <g id="menu-item" transform="translate(756.000000, 40.000000)">
                    <g id="arrow" transform="translate(98.337079, 5.000000)">
                        <path d="M3.49933437,3.66552216 L8.04813514,-0.451413322 C8.15252952,-0.545897193 8.15252952,-0.699090741 8.04813514,-0.793542354 L7.54409098,-1.24976816 C7.49397882,-1.29515526 7.42597456,-1.32063913 7.35508332,-1.32063913 C7.28419209,-1.32063913 7.21618783,-1.29515526 7.16607567,-1.24976816 L1.92418744,3.49445765 C1.81979306,3.58894152 1.81979306,3.74213507 1.92418744,3.83658668 L7.16604003,8.58081248 C7.21615219,8.62619958 7.28415645,8.65168345 7.35504768,8.65168345 C7.42593892,8.65168345 7.49394318,8.62619958 7.54405533,8.58081248 L8.0480995,8.12458668 C8.15249388,8.03010281 8.15249388,7.87690926 8.0480995,7.78245765 L3.49933437,3.66552216 L3.49933437,3.66552216 Z" id="Shape" transform="translate(4.986161, 3.665522) scale(-1, 1) rotate(-90.000000) translate(-4.986161, -3.665522) "></path>
                    </g>
                </g>
            </g>
        </g>
    </g>
</svg>