<?xml version="1.0" encoding="UTF-8" standalone="no"?>
<svg width="16px" height="15px" viewBox="0 0 16 15" version="1.1" xmlns="http://www.w3.org/2000/svg" xmlns:xlink="http://www.w3.org/1999/xlink">
    <!-- Generator: Sketch 41.2 (35397) - http://www.bohemiancoding.com/sketch -->
    <title>Google+ Icon2</title>
    <desc>Created with Sketch.</desc>
    <defs></defs>
    <g id="Cortes" stroke="none" stroke-width="1" fill="none" fill-rule="evenodd">
        <g id="Pregrado" transform="translate(-596.000000, -248.000000)" fill="#D94D39">
            <path d="M602.510204,248 C603.163265,248 603.816327,248.021337 604.44898,248.021337 C604.612245,248.021337 604.816327,248.021337 604.816327,248.256046 C604.816327,248.938834 603.77551,248.938834 603.326531,249.002845 C604,249.493599 604.22449,250.45377 604.22449,251.285917 C604.22449,253.910384 602.244898,254.251778 602.244898,255.019915 C602.244898,255.72404 604.816327,256.769559 604.816327,259.180654 C604.816327,261.869132 602.428571,263 600.183673,263 C598.244898,263 596,262.125178 596,259.756757 C596,257.238976 598.653061,256.534851 600.612245,256.534851 C600.367347,255.830725 600.142857,256.577525 600.142857,255.1266 C598.183673,255.1266 596.795918,253.931721 596.795918,251.819346 C596.795918,250.091038 597.857143,248.832148 599.387755,248.320057 C600.265306,248.021337 601.591837,248 602.510204,248 Z M600.755102,253.697013 C601.734694,253.697013 602.061224,252.758179 602.061224,251.883357 C602.061224,250.773826 601.428571,248.960171 600.142857,248.960171 C599.183673,248.960171 598.836735,249.920341 598.836735,250.773826 C598.836735,251.883357 599.469388,253.697013 600.755102,253.697013 Z M600.469388,261.335704 C601.591837,261.335704 603.183673,260.610242 603.183673,259.244666 C603.183673,257.900427 601.734694,257.324324 600.653061,257.324324 C599.469388,257.324324 597.938776,257.900427 597.938776,259.372688 C597.938776,260.738265 599.367347,261.335704 600.469388,261.335704 Z M609.959184,251.86202 L609.959184,253.995733 L608.591837,253.995733 L608.591837,251.86202 L606.55102,251.86202 L606.55102,250.45377 L608.591837,250.45377 L608.591837,248.320057 L609.959184,248.320057 L609.959184,250.45377 L612,250.45377 L612,251.86202 L609.959184,251.86202 Z" id="Google+-Icon2"></path>
        </g>
    </g>
</svg>