<?xml version="1.0" encoding="UTF-8" standalone="no"?>
<svg width="22px" height="20px" viewBox="0 0 22 20" version="1.1" xmlns="http://www.w3.org/2000/svg" xmlns:xlink="http://www.w3.org/1999/xlink">
    <!-- Generator: Sketch 41.2 (35397) - http://www.bohemiancoding.com/sketch -->
    <title>Google+ Icon</title>
    <desc>Created with Sketch.</desc>
    <defs></defs>
    <g id="Cortes" stroke="none" stroke-width="1" fill="none" fill-rule="evenodd">
        <g id="Falcultad" transform="translate(-643.000000, -121.000000)" fill="#7BC142">
            <path d="M651.680272,121 C652.55102,121 653.421769,121.02845 654.265306,121.02845 C654.482993,121.02845 654.755102,121.02845 654.755102,121.341394 C654.755102,122.251778 653.367347,122.251778 652.768707,122.337127 C653.666667,122.991465 653.965986,124.271693 653.965986,125.381223 C653.965986,128.880512 651.326531,129.335704 651.326531,130.359886 C651.326531,131.29872 654.755102,132.692745 654.755102,135.907539 C654.755102,139.492176 651.571429,141 648.578231,141 C645.993197,141 643,139.83357 643,136.675676 C643,133.318634 646.537415,132.379801 649.14966,132.379801 C648.823129,131.440967 648.52381,132.4367 648.52381,130.502134 C645.911565,130.502134 644.061224,128.908962 644.061224,126.092461 C644.061224,123.788051 645.47619,122.109531 647.517007,121.426743 C648.687075,121.02845 650.455782,121 651.680272,121 Z M649.340136,128.596017 C650.646259,128.596017 651.081633,127.344239 651.081633,126.177809 C651.081633,124.698435 650.238095,122.280228 648.52381,122.280228 C647.244898,122.280228 646.782313,123.560455 646.782313,124.698435 C646.782313,126.177809 647.62585,128.596017 649.340136,128.596017 Z M648.959184,138.780939 C650.455782,138.780939 652.578231,137.813656 652.578231,135.992888 C652.578231,134.200569 650.646259,133.432432 649.204082,133.432432 C647.62585,133.432432 645.585034,134.200569 645.585034,136.163585 C645.585034,137.984353 647.489796,138.780939 648.959184,138.780939 Z M661.612245,126.14936 L661.612245,128.99431 L659.789116,128.99431 L659.789116,126.14936 L657.068027,126.14936 L657.068027,124.271693 L659.789116,124.271693 L659.789116,121.426743 L661.612245,121.426743 L661.612245,124.271693 L664.333333,124.271693 L664.333333,126.14936 L661.612245,126.14936 Z" id="Google+-Icon"></path>
        </g>
    </g>
</svg>