<?xml version="1.0" encoding="UTF-8"?>
<svg width="16px" height="15px" viewBox="0 0 16 15" version="1.1" xmlns="http://www.w3.org/2000/svg" xmlns:xlink="http://www.w3.org/1999/xlink">
    <!-- Generator: Sketch 44.1 (41455) - http://www.bohemiancoding.com/sketch -->
    <title>Google+ Icon</title>
    <desc>Created with Sketch.</desc>
    <defs></defs>
    <g id="Plantilla-blog" stroke="none" stroke-width="1" fill="none" fill-rule="evenodd">
        <g id="Plantilla-blog-#1" transform="translate(-174.000000, -2064.000000)" fill="#C1C1C1">
            <g id="Group-7" transform="translate(100.000000, 1544.000000)">
                <g id="Group-Copy-4" transform="translate(24.000000, 519.000000)">
                    <path d="M56.5102041,1 C57.1632653,1 57.8163265,1.02133713 58.4489796,1.02133713 C58.6122449,1.02133713 58.8163265,1.02133713 58.8163265,1.25604552 C58.8163265,1.93883357 57.7755102,1.93883357 57.3265306,2.00284495 C58,2.49359886 58.2244898,3.45376956 58.2244898,4.2859175 C58.2244898,6.91038407 56.244898,7.25177809 56.244898,8.01991465 C56.244898,8.72403983 58.8163265,9.76955903 58.8163265,12.1806543 C58.8163265,14.8691323 56.4285714,16 54.1836735,16 C52.244898,16 50,15.1251778 50,12.7567568 C50,10.2389758 52.6530612,9.53485064 54.6122449,9.53485064 C54.3673469,8.83072546 54.1428571,9.57752489 54.1428571,8.12660028 C52.1836735,8.12660028 50.7959184,6.93172119 50.7959184,4.81934566 C50.7959184,3.09103841 51.8571429,1.83214794 53.3877551,1.3200569 C54.2653061,1.02133713 55.5918367,1 56.5102041,1 Z M54.755102,6.6970128 C55.7346939,6.6970128 56.0612245,5.75817923 56.0612245,4.88335704 C56.0612245,3.77382646 55.4285714,1.9601707 54.1428571,1.9601707 C53.1836735,1.9601707 52.8367347,2.92034139 52.8367347,3.77382646 C52.8367347,4.88335704 53.4693878,6.6970128 54.755102,6.6970128 Z M54.4693878,14.3357041 C55.5918367,14.3357041 57.1836735,13.6102418 57.1836735,12.2446657 C57.1836735,10.9004267 55.7346939,10.3243243 54.6530612,10.3243243 C53.4693878,10.3243243 51.9387755,10.9004267 51.9387755,12.3726885 C51.9387755,13.7382646 53.3673469,14.3357041 54.4693878,14.3357041 Z M63.9591837,4.86201991 L63.9591837,6.99573257 L62.5918367,6.99573257 L62.5918367,4.86201991 L60.5510204,4.86201991 L60.5510204,3.45376956 L62.5918367,3.45376956 L62.5918367,1.3200569 L63.9591837,1.3200569 L63.9591837,3.45376956 L66,3.45376956 L66,4.86201991 L63.9591837,4.86201991 Z" id="Google+-Icon"></path>
                </g>
            </g>
        </g>
    </g>
</svg>