<?xml version="1.0" encoding="UTF-8" standalone="no"?>
<svg width="56px" height="41px" viewBox="0 0 56 41" version="1.1" xmlns="http://www.w3.org/2000/svg" xmlns:xlink="http://www.w3.org/1999/xlink">
    <!-- Generator: Sketch 41.2 (35397) - http://www.bohemiancoding.com/sketch -->
    <title>icon pregrado</title>
    <desc>Created with Sketch.</desc>
    <defs></defs>
    <g id="Cortes" stroke="none" stroke-width="1" fill="none" fill-rule="evenodd" stroke-linecap="round" stroke-linejoin="round">
        <g id="Falcultad" transform="translate(-410.000000, -52.000000)" stroke="#FEFEFE">
            <g id="icon-pregrado" transform="translate(410.000000, 52.000000)">
                <path d="M26.7990986,19.3945 L16.5151549,19.3945 C15.644169,19.3945 14.9376901,18.7685 14.9376901,17.9965 C14.9376901,17.2225 15.644169,16.5955 16.5151549,16.5955 L26.7990986,16.5955 C27.6700845,16.5955 28.3765634,17.2225 28.3765634,17.9965 C28.3765634,18.7685 27.6700845,19.3945 26.7990986,19.3945 L26.7990986,19.3945 Z" id="Stroke-10" stroke-width="1.146"></path>
                <path d="M35.6987042,27.3564 L18.2913803,27.3564 C17.4215211,27.3564 16.7150423,26.7304 16.7150423,25.9574 C16.7150423,25.1844 17.4215211,24.5584 18.2913803,24.5584 L35.6987042,24.5584 C36.5696901,24.5584 37.276169,25.1844 37.276169,25.9574 C37.276169,26.7304 36.5696901,27.3564 35.6987042,27.3564 L35.6987042,27.3564 Z" id="Stroke-12" stroke-width="1.146"></path>
                <path d="M14.9284507,17.9961 L13.3329577,17.9961 C12.4619718,17.9961 11.7532394,18.6221 11.7532394,19.3931 L11.7532394,24.5581 C11.7532394,25.3311 12.4619718,25.9571 13.3329577,25.9571 L16.715493,25.9571" id="Stroke-14" stroke-width="1.146"></path>
                <path d="M37.0807887,39.6884 L34.4745915,27.3564" id="Stroke-16" stroke-width="1.146"></path>
                <path d="M20.6700845,27.3564 L18.0638873,39.6884" id="Stroke-18" stroke-width="1.146"></path>
                <path d="M19.9482817,30.1318 L35.1967324,30.1318" id="Stroke-20" stroke-width="0.764"></path>
                <path d="M0.645859155,39.6884 L54.5252958,39.6884" id="Stroke-22" stroke-width="1.146"></path>
                <path d="M35.2211831,20.2304 L33.4059718,7.1954 C33.240338,6.0144 32.007662,5.0474 30.6656901,5.0474 L24.8290704,5.0474 C23.4893521,5.0474 22.2566761,6.0144 22.0944225,7.1954 L20.7828732,16.5954" id="Stroke-24" stroke-width="1.146"></path>
                <path d="M18.1348732,11.5332 L18.1371268,11.5172" id="Stroke-26" stroke-width="1.528"></path>
                <path d="M19.1032113,4.8691 L19.2485634,3.8661 C19.4953239,2.1591 21.3477183,0.7641 23.363493,0.7641 L32.1319437,0.7641 C34.1499718,0.7641 36.0001127,2.1591 36.2491268,3.8661 L36.8801127,8.2251" id="Stroke-28" stroke-width="1.528" stroke-dasharray="0.034,6.703"></path>
                <path d="M37.3624789,11.5493 L37.3647324,11.5653" id="Stroke-30" stroke-width="1.528"></path>
            </g>
        </g>
    </g>
</svg>