<?xml version="1.0" encoding="UTF-8" standalone="no"?>
<svg width="38px" height="61px" viewBox="0 0 38 61" version="1.1" xmlns="http://www.w3.org/2000/svg" xmlns:xlink="http://www.w3.org/1999/xlink">
    <!-- Generator: Sketch 41.2 (35397) - http://www.bohemiancoding.com/sketch -->
    <title>IconoAcademico</title>
    <desc>Created with Sketch.</desc>
    <defs></defs>
    <g id="Cortes" stroke="none" stroke-width="1" fill="none" fill-rule="evenodd" stroke-linecap="round" stroke-linejoin="round">
        <g id="IconoAcademico" transform="translate(1.000000, 1.000000)" stroke="#4A4A4A">
            <path d="M20.9189959,28.09175 L7.13536327,28.09175 C5.96797551,28.09175 5.02107755,27.15275 5.02107755,25.99475 C5.02107755,24.83375 5.96797551,23.89325 7.13536327,23.89325 L20.9189959,23.89325 C22.0863837,23.89325 23.0332816,24.83375 23.0332816,25.99475 C23.0332816,27.15275 22.0863837,28.09175 20.9189959,28.09175 Z" id="Stroke-1" stroke-width="1.719"></path>
            <path d="M32.8471918,40.0346 L9.51604898,40.0346 C8.35017143,40.0346 7.40327347,39.0956 7.40327347,37.9361 C7.40327347,36.7766 8.35017143,35.8376 9.51604898,35.8376 L32.8471918,35.8376 C34.0145796,35.8376 34.9614776,36.7766 34.9614776,37.9361 C34.9614776,39.0956 34.0145796,40.0346 32.8471918,40.0346 Z" id="Stroke-3" stroke-width="1.719"></path>
            <path d="M5.00869388,25.99415 L2.8702449,25.99415 C1.70285714,25.99415 0.752938776,26.93315 0.752938776,28.08965 L0.752938776,35.83715 C0.752938776,36.99665 1.70285714,37.93565 2.8702449,37.93565 L7.40387755,37.93565" id="Stroke-5" stroke-width="1.719"></path>
            <path d="M34.6996082,58.5326 L31.2065061,40.0346" id="Stroke-7" stroke-width="1.719"></path>
            <path d="M12.7042408,40.0346 L9.21113878,58.5326" id="Stroke-9" stroke-width="1.719"></path>
            <path d="M11.7368041,44.1977 L32.1743959,44.1977" id="Stroke-11" stroke-width="1.146"></path>
            <path d="M32.2071673,29.3456 L29.7742286,9.7931 C29.5522286,8.0216 27.9000653,6.5711 26.1014122,6.5711 L18.2785551,6.5711 C16.4829224,6.5711 14.8307592,8.0216 14.6132898,9.7931 L12.8554122,23.8931" id="Stroke-16" stroke-width="1.719"></path>
            <path d="M9.30628163,16.2998 L9.30930204,16.2758" id="Stroke-18" stroke-width="2.292"></path>
            <path d="M10.604151,6.30365 L10.7989673,4.79915 C11.129702,2.23865 13.6124776,0.14615 16.3142327,0.14615 L28.0666408,0.14615 C30.7714163,0.14615 33.2511714,2.23865 33.5849265,4.79915 L34.4306408,11.33765" id="Stroke-20" stroke-width="2.292" stroke-dasharray="0.05100000277161598,10.05450010299683"></path>
            <path d="M35.0771592,16.32395 L35.0801796,16.34795" id="Stroke-22" stroke-width="2.292"></path>
        </g>
    </g>
</svg>