<?xml version="1.0" encoding="UTF-8" standalone="no"?>
<svg width="15px" height="19px" viewBox="0 0 15 19" version="1.1" xmlns="http://www.w3.org/2000/svg" xmlns:xlink="http://www.w3.org/1999/xlink">
    <!-- Generator: Sketch 41.2 (35397) - http://www.bohemiancoding.com/sketch -->
    <title>IconPDF</title>
    <desc>Created with Sketch.</desc>
    <defs></defs>
    <g id="Cortes" stroke="none" stroke-width="1" fill="none" fill-rule="evenodd">
        <g id="Falcultad" transform="translate(-410.000000, -120.000000)" fill="#4A4A4A">
            <g id="IconPDF" transform="translate(410.000000, 120.000000)">
                <path d="M14.8316339,3.14018182 L11.8479331,0.130855799 C11.7648425,0.0470532915 11.6522244,0 11.5347047,0 L0.492637795,0 C0.248031496,0 0.0497244094,0.20000627 0.0497244094,0.446708464 L0.0497244094,18.5049279 C0.0497244094,18.7516301 0.248031496,18.9516364 0.492637795,18.9516364 L14.5184646,18.9516364 C14.7631299,18.9516364 14.961378,18.7516301 14.961378,18.5049279 L14.961378,3.45603448 C14.961378,3.3375674 14.9147244,3.22398433 14.8316339,3.14018182 L14.8316339,3.14018182 Z M11.9776181,1.52518182 L13.4491535,3.00938558 L11.9776181,3.00938558 L11.9776181,1.52518182 L11.9776181,1.52518182 Z M0.935551181,0.893416928 L11.0918504,0.893416928 L11.0918504,2.2672837 L0.935551181,2.2672837 L0.935551181,0.893416928 L0.935551181,0.893416928 Z M14.0755512,18.0582194 L0.935551181,18.0582194 L0.935551181,2.2672837 L11.0918504,2.2672837 L11.0918504,3.33410652 C11.0918504,3.58286969 11.2900984,3.78454683 11.5347638,3.78454683 L14.0755512,3.78454683 L14.0755512,18.0582194 L14.0755512,18.0582194 Z" id="Shape"></path>
                <path d="M7.22321801,11 L6,11 L6,15 L7.14344292,15 C7.73162767,15 8.18817983,14.819421 8.51287843,14.458263 C8.83757704,14.097105 9,13.5827966 9,12.9151712 C9,12.2950666 8.84560611,11.8207758 8.53703931,11.4924655 C8.22839885,11.1641552 7.79048297,11 7.22321801,11 L7.22321801,11 Z M7.8058045,13.8276538 C7.6704152,14.0183205 7.45768164,14.1136122 7.1676038,14.1136122 L6.95487023,14.1136122 L6.95487023,11.8728819 L7.23279397,11.8728819 C7.49392295,11.8728819 7.68853586,11.9613373 7.8166327,12.138248 C7.94472954,12.3152421 8.00881479,12.5869443 8.00881479,12.9536047 C8.00888845,13.3456929 7.9411938,13.6370704 7.8058045,13.8276538 L7.8058045,13.8276538 Z" id="Shape"></path>
                <path d="M4.60695003,11.3310615 C4.34494543,11.1103816 3.95284319,11 3.43072947,11 L2,11 L2,15 L3.11685813,15 L3.11685813,13.6730028 L3.43072947,13.6730028 C3.93207926,13.6730028 4.3189259,13.5512829 4.5914417,13.3077596 C4.86378518,13.0643198 5,12.7190854 5,12.2722233 C4.99991384,11.865462 4.86895462,11.5517414 4.60695003,11.3310615 L4.60695003,11.3310615 Z M3.72056289,12.6553075 C3.62156806,12.7465141 3.48819644,12.7921174 3.32044802,12.7921174 L3.11685813,12.7921174 L3.11685813,11.8728819 L3.40531304,11.8728819 C3.71444572,11.8728819 3.86901206,12.0078576 3.86901206,12.277809 C3.8689259,12.4382126 3.81947157,12.564101 3.72056289,12.6553075 L3.72056289,12.6553075 Z" id="Shape"></path>
                <polygon id="Shape" points="10 15 10.9004408 15 10.9004408 13.4979262 11.9143008 13.4979262 11.9143008 12.6306301 10.9004408 12.6306301 10.9004408 11.8672961 12 11.8672961 12 11 10 11"></polygon>
            </g>
        </g>
    </g>
</svg>