<?xml version="1.0" encoding="UTF-8" standalone="no"?>
<svg width="429px" height="236px" viewBox="0 0 429 236" version="1.1" xmlns="http://www.w3.org/2000/svg" xmlns:xlink="http://www.w3.org/1999/xlink">
    <!-- Generator: Sketch 41.2 (35397) - http://www.bohemiancoding.com/sketch -->
    <title>IconoUEB</title>
    <desc>Created with Sketch.</desc>
    <defs>
        <polygon id="path-1" points="0.225 1 75.334 1 75.334 0.5 0.225 0.5"></polygon>
        <polygon id="path-3" points="1.592 1.4043 1.592 0.4043 0.9254 0.4043 0.9254 1.4043 1.592 1.4043"></polygon>
        <polygon id="path-5" points="0.225 1 75.334 1 75.334 0.5 0.225 0.5"></polygon>
        <polygon id="path-7" points="1.592 1.4043 1.592 0.4043 0.9254 0.4043 0.9254 1.4043 1.592 1.4043"></polygon>
        <polygon id="path-9" points="0 161.20622 428.877003 161.20622 428.877003 0.0172358852 0 0.0172358852"></polygon>
    </defs>
    <g id="Cortes" stroke="none" stroke-width="1" fill="none" fill-rule="evenodd">
        <g id="IconoUEB">
            <g id="Page-1-Copy-4" transform="translate(48.000000, 0.000000)">
                <g id="Group-3" transform="translate(1.000000, 8.245610)">
                    <mask id="mask-2" fill="white">
                        <use xlink:href="#path-1"></use>
                    </mask>
                    <g id="Clip-2"></g>
                    <path d="M75.334,0.5 L0.225,0.5" id="Stroke-1" stroke="#221F20" stroke-linecap="round" stroke-linejoin="round" mask="url(#mask-2)"></path>
                </g>
                <g id="Group-6" transform="translate(152.000000, 0.245610)">
                    <mask id="mask-4" fill="white">
                        <use xlink:href="#path-3"></use>
                    </mask>
                    <g id="Clip-5"></g>
                    <path d="M0.9414,0.4043 L0.9254,0.4043" id="Stroke-4" stroke="#221F20" stroke-width="1.3" stroke-linecap="round" stroke-linejoin="round" mask="url(#mask-4)"></path>
                </g>
                <path d="M0.666,0.64991 L0.65,0.64991" id="Stroke-9" stroke="#221F20" stroke-width="1.3" stroke-linecap="round" stroke-linejoin="round"></path>
            </g>
            <g id="Page-1" transform="translate(238.000000, 29.000000)">
                <g id="Group-3" transform="translate(1.000000, 8.245610)">
                    <mask id="mask-6" fill="white">
                        <use xlink:href="#path-5"></use>
                    </mask>
                    <g id="Clip-2"></g>
                    <path d="M75.334,0.5 L0.225,0.5" id="Stroke-1" stroke="#221F20" stroke-linecap="round" stroke-linejoin="round" mask="url(#mask-6)"></path>
                </g>
                <g id="Group-6" transform="translate(152.000000, 0.245610)">
                    <mask id="mask-8" fill="white">
                        <use xlink:href="#path-7"></use>
                    </mask>
                    <g id="Clip-5"></g>
                    <path d="M0.9414,0.4043 L0.9254,0.4043" id="Stroke-4" stroke="#221F20" stroke-width="1.3" stroke-linecap="round" stroke-linejoin="round" mask="url(#mask-8)"></path>
                </g>
                <path d="M146.6113,0.64991 L3.8233,0.64991" id="Stroke-7" stroke="#221F20" stroke-width="1.3" stroke-linecap="round" stroke-linejoin="round" stroke-dasharray="0.032,6.314"></path>
                <path d="M0.666,0.64991 L0.65,0.64991" id="Stroke-9" stroke="#221F20" stroke-width="1.3" stroke-linecap="round" stroke-linejoin="round"></path>
            </g>
            <g id="Page-1" transform="translate(0.000000, 74.000000)">
                <g id="Group-5" transform="translate(1.314985, 134.969943)" stroke="#1E130F" stroke-linecap="round" stroke-linejoin="round">
                    <path d="M0.811608563,25.8538278 L425.91855,25.8538278 M426.881119,0.0111526316 L0.329009174,0.0111526316" id="Stroke-1"></path>
                    <path d="M425.918945,12.9328957 L425.89133,12.9328957" id="Stroke-3" stroke-width="2.5"></path>
                </g>
                <path d="M416.061688,147.902839 L7.24214679,147.902839" id="Stroke-6" stroke="#1E130F" stroke-width="2.5" stroke-linecap="round" stroke-linejoin="round" stroke-dasharray="0.042,8.475"></path>
                <path d="M1.67200306,147.902839 L1.64438838,147.902839" id="Stroke-7" stroke="#1E130F" stroke-width="2.5" stroke-linecap="round" stroke-linejoin="round"></path>
                <path d="M198.86448,124.15696 L198.892095,124.15696" id="Stroke-9" stroke="#1E130F" stroke-width="2" stroke-linecap="round" stroke-linejoin="round"></path>
                <path d="M210.143235,124.15696 L408.057639,124.15696" id="Stroke-10" stroke="#1E130F" stroke-width="2" stroke-linecap="round" stroke-linejoin="round" stroke-dasharray="0.043,8.555999999999999"></path>
                <path d="M413.682092,124.15696 L413.709706,124.15696" id="Stroke-11" stroke="#1E130F" stroke-width="2" stroke-linecap="round" stroke-linejoin="round"></path>
                <polyline id="Stroke-12" stroke="#1E130F" stroke-width="1.5" stroke-linecap="round" stroke-linejoin="round" points="281.181997 67.0729249 281.181997 31.0641192 380.496217 31.0641192 380.496217 67.0729249"></polyline>
                <polyline id="Stroke-13" stroke="#1E130F" stroke-width="1.5" stroke-linecap="round" stroke-linejoin="round" points="269.629593 114.43004 269.629593 96.2887642 275.699563 96.2887642 275.699563 114.43004"></polyline>
                <polyline id="Stroke-14" stroke="#1E130F" stroke-width="1.5" stroke-linecap="round" stroke-linejoin="round" points="255.570566 114.43004 255.570566 96.2887642 261.640535 96.2887642 261.640535 114.43004"></polyline>
                <polyline id="Stroke-15" stroke="#1E130F" stroke-width="1.5" stroke-linecap="round" stroke-linejoin="round" points="220.010749 114.43004 220.010749 96.2887642 226.080719 96.2887642 226.080719 114.43004"></polyline>
                <polyline id="Stroke-16" stroke="#1E130F" stroke-width="1.5" stroke-linecap="round" stroke-linejoin="round" points="300.375119 114.43004 300.375119 96.2887642 306.445089 96.2887642 306.445089 114.43004"></polyline>
                <polyline id="Stroke-17" stroke="#1E130F" stroke-width="1.5" stroke-linecap="round" stroke-linejoin="round" points="315.783847 114.43004 315.783847 96.2887642 321.853817 96.2887642 321.853817 114.43004"></polyline>
                <polyline id="Stroke-18" stroke="#1E130F" stroke-width="1.5" stroke-linecap="round" stroke-linejoin="round" points="346.828532 114.43004 346.828532 96.2887642 352.899817 96.2887642 352.899817 114.43004"></polyline>
                <polyline id="Stroke-19" stroke="#1E130F" stroke-width="1.5" stroke-linecap="round" stroke-linejoin="round" points="361.937969 114.43004 361.937969 96.2887642 368.010569 96.2887642 368.010569 114.43004"></polyline>
                <polyline id="Stroke-20" stroke="#1E130F" stroke-width="1.5" stroke-linecap="round" stroke-linejoin="round" points="392.983969 114.43004 392.983969 96.2887642 399.055254 96.2887642 399.055254 114.43004"></polyline>
                <polygon id="Stroke-21" stroke="#1E130F" stroke-width="1.5" stroke-linecap="round" stroke-linejoin="round" points="361.937706 96.2895753 399.05578 96.2895753 399.05578 67.6709088 361.937706 67.6709088"></polygon>
                <polygon id="Stroke-22" stroke="#1E130F" stroke-linecap="round" stroke-linejoin="round" points="368.677003 81.491047 372.053884 81.491047 372.053884 76.4571547 368.677003 76.4571547"></polygon>
                <polygon id="Stroke-23" stroke="#1E130F" stroke-linecap="round" stroke-linejoin="round" points="368.677003 94.1462422 372.053884 94.1462422 372.053884 89.1123499 368.677003 89.1123499"></polygon>
                <polygon id="Stroke-24" stroke="#1E130F" stroke-linecap="round" stroke-linejoin="round" points="365.297492 87.8196585 368.675688 87.8196585 368.675688 82.7837384 365.297492 82.7837384"></polygon>
                <polygon id="Stroke-25" stroke="#1E130F" stroke-linecap="round" stroke-linejoin="round" points="365.297492 75.1644633 368.675688 75.1644633 368.675688 70.130571 365.297492 70.130571"></polygon>
                <polygon id="Stroke-26" stroke="#1E130F" stroke-linecap="round" stroke-linejoin="round" points="375.430765 81.491047 378.807645 81.491047 378.807645 76.4571547 375.430765 76.4571547"></polygon>
                <polygon id="Stroke-27" stroke="#1E130F" stroke-linecap="round" stroke-linejoin="round" points="375.430765 94.1462422 378.807645 94.1462422 378.807645 89.1123499 375.430765 89.1123499"></polygon>
                <polygon id="Stroke-28" stroke="#1E130F" stroke-linecap="round" stroke-linejoin="round" points="372.053884 87.8196585 375.430765 87.8196585 375.430765 82.7837384 372.053884 82.7837384"></polygon>
                <polygon id="Stroke-29" stroke="#1E130F" stroke-linecap="round" stroke-linejoin="round" points="372.053884 75.1644633 375.430765 75.1644633 375.430765 70.130571 372.053884 70.130571"></polygon>
                <polygon id="Stroke-30" stroke="#1E130F" stroke-linecap="round" stroke-linejoin="round" points="382.185841 81.491047 385.562722 81.491047 385.562722 76.4571547 382.185841 76.4571547"></polygon>
                <polygon id="Stroke-31" stroke="#1E130F" stroke-linecap="round" stroke-linejoin="round" points="382.185841 94.1462422 385.562722 94.1462422 385.562722 89.1123499 382.185841 89.1123499"></polygon>
                <polygon id="Stroke-32" stroke="#1E130F" stroke-linecap="round" stroke-linejoin="round" points="378.80896 87.8196585 382.185841 87.8196585 382.185841 82.7837384 378.80896 82.7837384"></polygon>
                <polygon id="Stroke-33" stroke="#1E130F" stroke-linecap="round" stroke-linejoin="round" points="378.80896 75.1644633 382.185841 75.1644633 382.185841 70.130571 378.80896 70.130571"></polygon>
                <polygon id="Stroke-34" stroke="#1E130F" stroke-linecap="round" stroke-linejoin="round" points="388.940917 81.491047 392.316483 81.491047 392.316483 76.4571547 388.940917 76.4571547"></polygon>
                <polygon id="Stroke-35" stroke="#1E130F" stroke-linecap="round" stroke-linejoin="round" points="388.940917 94.1462422 392.316483 94.1462422 392.316483 89.1123499 388.940917 89.1123499"></polygon>
                <polygon id="Stroke-36" stroke="#1E130F" stroke-linecap="round" stroke-linejoin="round" points="385.562722 87.8196585 388.939602 87.8196585 388.939602 82.7837384 385.562722 82.7837384"></polygon>
                <polygon id="Stroke-37" stroke="#1E130F" stroke-linecap="round" stroke-linejoin="round" points="385.562722 75.1644633 388.939602 75.1644633 388.939602 70.130571 385.562722 70.130571"></polygon>
                <polygon id="Stroke-38" stroke="#1E130F" stroke-linecap="round" stroke-linejoin="round" points="392.316483 87.8196585 395.694679 87.8196585 395.694679 82.7837384 392.316483 82.7837384"></polygon>
                <polygon id="Stroke-39" stroke="#1E130F" stroke-linecap="round" stroke-linejoin="round" points="392.316483 75.1644633 395.694679 75.1644633 395.694679 70.130571 392.316483 70.130571"></polygon>
                <polygon id="Stroke-40" stroke="#1E130F" stroke-width="1.5" stroke-linecap="round" stroke-linejoin="round" points="315.783058 96.2895753 352.901131 96.2895753 352.901131 67.6709088 315.783058 67.6709088"></polygon>
                <polygon id="Stroke-41" stroke="#1E130F" stroke-linecap="round" stroke-linejoin="round" points="322.522355 81.491047 325.899235 81.491047 325.899235 76.4571547 322.522355 76.4571547"></polygon>
                <polygon id="Stroke-42" stroke="#1E130F" stroke-linecap="round" stroke-linejoin="round" points="322.522355 94.1462422 325.899235 94.1462422 325.899235 89.1123499 322.522355 89.1123499"></polygon>
                <polygon id="Stroke-43" stroke="#1E130F" stroke-linecap="round" stroke-linejoin="round" points="319.145474 87.8196585 322.522355 87.8196585 322.522355 82.7837384 319.145474 82.7837384"></polygon>
                <polygon id="Stroke-44" stroke="#1E130F" stroke-linecap="round" stroke-linejoin="round" points="319.145474 75.1644633 322.522355 75.1644633 322.522355 70.130571 319.145474 70.130571"></polygon>
                <polygon id="Stroke-45" stroke="#1E130F" stroke-linecap="round" stroke-linejoin="round" points="329.277431 81.491047 332.654312 81.491047 332.654312 76.4571547 329.277431 76.4571547"></polygon>
                <polygon id="Stroke-46" stroke="#1E130F" stroke-linecap="round" stroke-linejoin="round" points="329.277431 94.1462422 332.654312 94.1462422 332.654312 89.1123499 329.277431 89.1123499"></polygon>
                <polygon id="Stroke-47" stroke="#1E130F" stroke-linecap="round" stroke-linejoin="round" points="325.899235 87.8196585 329.276116 87.8196585 329.276116 82.7837384 325.899235 82.7837384"></polygon>
                <polygon id="Stroke-48" stroke="#1E130F" stroke-linecap="round" stroke-linejoin="round" points="325.899235 75.1644633 329.276116 75.1644633 329.276116 70.130571 325.899235 70.130571"></polygon>
                <polygon id="Stroke-49" stroke="#1E130F" stroke-linecap="round" stroke-linejoin="round" points="336.031193 81.491047 339.408073 81.491047 339.408073 76.4571547 336.031193 76.4571547"></polygon>
                <polygon id="Stroke-50" stroke="#1E130F" stroke-linecap="round" stroke-linejoin="round" points="336.031193 94.1462422 339.408073 94.1462422 339.408073 89.1123499 336.031193 89.1123499"></polygon>
                <polygon id="Stroke-51" stroke="#1E130F" stroke-linecap="round" stroke-linejoin="round" points="332.654312 87.8196585 336.031193 87.8196585 336.031193 82.7837384 332.654312 82.7837384"></polygon>
                <polygon id="Stroke-52" stroke="#1E130F" stroke-linecap="round" stroke-linejoin="round" points="332.654312 75.1644633 336.031193 75.1644633 336.031193 70.130571 332.654312 70.130571"></polygon>
                <polygon id="Stroke-53" stroke="#1E130F" stroke-linecap="round" stroke-linejoin="round" points="342.786269 81.491047 346.16315 81.491047 346.16315 76.4571547 342.786269 76.4571547"></polygon>
                <polygon id="Stroke-54" stroke="#1E130F" stroke-linecap="round" stroke-linejoin="round" points="342.786269 94.1462422 346.16315 94.1462422 346.16315 89.1123499 342.786269 89.1123499"></polygon>
                <polygon id="Stroke-55" stroke="#1E130F" stroke-linecap="round" stroke-linejoin="round" points="339.409388 87.8196585 342.786269 87.8196585 342.786269 82.7837384 339.409388 82.7837384"></polygon>
                <polygon id="Stroke-56" stroke="#1E130F" stroke-linecap="round" stroke-linejoin="round" points="339.409388 75.1644633 342.786269 75.1644633 342.786269 70.130571 339.409388 70.130571"></polygon>
                <polygon id="Stroke-57" stroke="#1E130F" stroke-linecap="round" stroke-linejoin="round" points="346.16315 87.8196585 349.540031 87.8196585 349.540031 82.7837384 346.16315 82.7837384"></polygon>
                <polygon id="Stroke-58" stroke="#1E130F" stroke-linecap="round" stroke-linejoin="round" points="346.16315 75.1644633 349.540031 75.1644633 349.540031 70.130571 346.16315 70.130571"></polygon>
                <polygon id="Stroke-59" stroke="#1E130F" stroke-width="1.5" stroke-linecap="round" stroke-linejoin="round" points="269.327278 96.2895753 306.445352 96.2895753 306.445352 67.6709088 269.327278 67.6709088"></polygon>
                <polygon id="Stroke-60" stroke="#1E130F" stroke-linecap="round" stroke-linejoin="round" points="276.066575 81.491047 279.443456 81.491047 279.443456 76.4571547 276.066575 76.4571547"></polygon>
                <polygon id="Stroke-61" stroke="#1E130F" stroke-linecap="round" stroke-linejoin="round" points="276.066575 94.1462422 279.443456 94.1462422 279.443456 89.1123499 276.066575 89.1123499"></polygon>
                <polygon id="Stroke-62" stroke="#1E130F" stroke-linecap="round" stroke-linejoin="round" points="272.688379 87.8196585 276.06526 87.8196585 276.06526 82.7837384 272.688379 82.7837384"></polygon>
                <polygon id="Stroke-63" stroke="#1E130F" stroke-linecap="round" stroke-linejoin="round" points="272.688379 75.1644633 276.06526 75.1644633 276.06526 70.130571 272.688379 70.130571"></polygon>
                <polygon id="Stroke-64" stroke="#1E130F" stroke-linecap="round" stroke-linejoin="round" points="282.821651 81.491047 286.198532 81.491047 286.198532 76.4571547 282.821651 76.4571547"></polygon>
                <polygon id="Stroke-65" stroke="#1E130F" stroke-linecap="round" stroke-linejoin="round" points="282.821651 94.1462422 286.198532 94.1462422 286.198532 89.1123499 282.821651 89.1123499"></polygon>
                <polygon id="Stroke-66" stroke="#1E130F" stroke-linecap="round" stroke-linejoin="round" points="279.443456 87.8196585 282.820336 87.8196585 282.820336 82.7837384 279.443456 82.7837384"></polygon>
                <polygon id="Stroke-67" stroke="#1E130F" stroke-linecap="round" stroke-linejoin="round" points="279.443456 75.1644633 282.820336 75.1644633 282.820336 70.130571 279.443456 70.130571"></polygon>
                <polygon id="Stroke-68" stroke="#1E130F" stroke-linecap="round" stroke-linejoin="round" points="289.575413 81.491047 292.952294 81.491047 292.952294 76.4571547 289.575413 76.4571547"></polygon>
                <polygon id="Stroke-69" stroke="#1E130F" stroke-linecap="round" stroke-linejoin="round" points="289.575413 94.1462422 292.952294 94.1462422 292.952294 89.1123499 289.575413 89.1123499"></polygon>
                <polygon id="Stroke-70" stroke="#1E130F" stroke-linecap="round" stroke-linejoin="round" points="286.198532 87.8196585 289.575413 87.8196585 289.575413 82.7837384 286.198532 82.7837384"></polygon>
                <polygon id="Stroke-71" stroke="#1E130F" stroke-linecap="round" stroke-linejoin="round" points="286.198532 75.1644633 289.575413 75.1644633 289.575413 70.130571 286.198532 70.130571"></polygon>
                <polygon id="Stroke-72" stroke="#1E130F" stroke-linecap="round" stroke-linejoin="round" points="296.330489 81.491047 299.70737 81.491047 299.70737 76.4571547 296.330489 76.4571547"></polygon>
                <polygon id="Stroke-73" stroke="#1E130F" stroke-linecap="round" stroke-linejoin="round" points="296.330489 94.1462422 299.70737 94.1462422 299.70737 89.1123499 296.330489 89.1123499"></polygon>
                <polygon id="Stroke-74" stroke="#1E130F" stroke-linecap="round" stroke-linejoin="round" points="292.953609 87.8196585 296.330489 87.8196585 296.330489 82.7837384 292.953609 82.7837384"></polygon>
                <polygon id="Stroke-75" stroke="#1E130F" stroke-linecap="round" stroke-linejoin="round" points="292.953609 75.1644633 296.330489 75.1644633 296.330489 70.130571 292.953609 70.130571"></polygon>
                <polygon id="Stroke-76" stroke="#1E130F" stroke-linecap="round" stroke-linejoin="round" points="299.70737 87.8196585 303.084251 87.8196585 303.084251 82.7837384 299.70737 82.7837384"></polygon>
                <polygon id="Stroke-77" stroke="#1E130F" stroke-linecap="round" stroke-linejoin="round" points="299.70737 75.1644633 303.084251 75.1644633 303.084251 70.130571 299.70737 70.130571"></polygon>
                <polygon id="Stroke-78" stroke="#1E130F" stroke-width="1.5" stroke-linecap="round" stroke-linejoin="round" points="220.011407 96.2895753 261.641193 96.2895753 261.641193 62.3582006 220.011407 62.3582006"></polygon>
                <polygon id="Stroke-79" stroke="#1E130F" stroke-linecap="round" stroke-linejoin="round" points="230.750887 81.491047 234.127768 81.491047 234.127768 76.4571547 230.750887 76.4571547"></polygon>
                <polygon id="Stroke-80" stroke="#1E130F" stroke-linecap="round" stroke-linejoin="round" points="230.750887 94.1462422 234.127768 94.1462422 234.127768 89.1123499 230.750887 89.1123499"></polygon>
                <polygon id="Stroke-81" stroke="#1E130F" stroke-linecap="round" stroke-linejoin="round" points="223.881407 81.491047 227.258287 81.491047 227.258287 76.4571547 223.881407 76.4571547"></polygon>
                <polygon id="Stroke-82" stroke="#1E130F" stroke-linecap="round" stroke-linejoin="round" points="223.881407 94.1462422 227.258287 94.1462422 227.258287 89.1123499 223.881407 89.1123499"></polygon>
                <polygon id="Stroke-83" stroke="#1E130F" stroke-linecap="round" stroke-linejoin="round" points="227.374006 87.8196585 230.750887 87.8196585 230.750887 82.7837384 227.374006 82.7837384"></polygon>
                <polygon id="Stroke-84" stroke="#1E130F" stroke-linecap="round" stroke-linejoin="round" points="227.374006 75.1644633 230.750887 75.1644633 230.750887 70.130571 227.374006 70.130571"></polygon>
                <polygon id="Stroke-85" stroke="#1E130F" stroke-linecap="round" stroke-linejoin="round" points="237.505963 81.491047 240.882844 81.491047 240.882844 76.4571547 237.505963 76.4571547"></polygon>
                <polygon id="Stroke-86" stroke="#1E130F" stroke-linecap="round" stroke-linejoin="round" points="237.505963 94.1462422 240.882844 94.1462422 240.882844 89.1123499 237.505963 89.1123499"></polygon>
                <polygon id="Stroke-87" stroke="#1E130F" stroke-linecap="round" stroke-linejoin="round" points="234.127768 87.8196585 237.504648 87.8196585 237.504648 82.7837384 234.127768 82.7837384"></polygon>
                <polygon id="Stroke-88" stroke="#1E130F" stroke-linecap="round" stroke-linejoin="round" points="234.127768 75.1644633 237.504648 75.1644633 237.504648 70.130571 234.127768 70.130571"></polygon>
                <polygon id="Stroke-89" stroke="#1E130F" stroke-linecap="round" stroke-linejoin="round" points="244.259725 81.491047 247.636606 81.491047 247.636606 76.4571547 244.259725 76.4571547"></polygon>
                <polygon id="Stroke-90" stroke="#1E130F" stroke-linecap="round" stroke-linejoin="round" points="244.259725 94.1462422 247.636606 94.1462422 247.636606 89.1123499 244.259725 89.1123499"></polygon>
                <polygon id="Stroke-91" stroke="#1E130F" stroke-linecap="round" stroke-linejoin="round" points="240.882844 87.8196585 244.259725 87.8196585 244.259725 82.7837384 240.882844 82.7837384"></polygon>
                <polygon id="Stroke-92" stroke="#1E130F" stroke-linecap="round" stroke-linejoin="round" points="240.882844 75.1644633 244.259725 75.1644633 244.259725 70.130571 240.882844 70.130571"></polygon>
                <polygon id="Stroke-93" stroke="#1E130F" stroke-linecap="round" stroke-linejoin="round" points="251.014801 81.491047 254.391682 81.491047 254.391682 76.4571547 251.014801 76.4571547"></polygon>
                <polygon id="Stroke-94" stroke="#1E130F" stroke-linecap="round" stroke-linejoin="round" points="251.014801 94.1462422 254.391682 94.1462422 254.391682 89.1123499 251.014801 89.1123499"></polygon>
                <polygon id="Stroke-95" stroke="#1E130F" stroke-linecap="round" stroke-linejoin="round" points="247.63792 87.8196585 251.014801 87.8196585 251.014801 82.7837384 247.63792 82.7837384"></polygon>
                <polygon id="Stroke-96" stroke="#1E130F" stroke-linecap="round" stroke-linejoin="round" points="247.63792 75.1644633 251.014801 75.1644633 251.014801 70.130571 247.63792 70.130571"></polygon>
                <polygon id="Stroke-97" stroke="#1E130F" stroke-linecap="round" stroke-linejoin="round" points="254.391682 87.8196585 257.768563 87.8196585 257.768563 82.7837384 254.391682 82.7837384"></polygon>
                <polygon id="Stroke-98" stroke="#1E130F" stroke-linecap="round" stroke-linejoin="round" points="254.391682 75.1644633 257.768563 75.1644633 257.768563 70.130571 254.391682 70.130571"></polygon>
                <polygon id="Stroke-99" stroke="#1E130F" stroke-linecap="round" stroke-linejoin="round" points="284.846728 38.7501073 377.119205 38.7501073 377.119205 34.2495135 284.846728 34.2495135"></polygon>
                <polygon id="Stroke-100" stroke="#1E130F" stroke-linecap="round" stroke-linejoin="round" points="223.19104 68.0754451 257.768563 68.0754451 257.768563 64.5937963 223.19104 64.5937963"></polygon>
                <polyline id="Stroke-101" stroke="#1E130F" stroke-width="1.5" stroke-linecap="round" stroke-linejoin="round" points="384.304281 114.60828 399.05578 114.60828 403.435994 119.127123 410.375168 119.127123"></polyline>
                <path d="M297.701492,114.60828 L321.853817,114.60828" id="Stroke-102" stroke="#1E130F" stroke-width="1.5" stroke-linecap="round" stroke-linejoin="round"></path>
                <path d="M339.408599,114.60828 L346.829058,114.60828" id="Stroke-103" stroke="#1E130F" stroke-width="1.5" stroke-linecap="round" stroke-linejoin="round"></path>
                <path d="M252.030232,114.60828 L279.416104,114.60828" id="Stroke-104" stroke="#1E130F" stroke-width="1.5" stroke-linecap="round" stroke-linejoin="round"></path>
                <path d="M221.610823,118.931141 L260.041251,118.931141" id="Stroke-105" stroke="#1E130F" stroke-width="1.5" stroke-linecap="round" stroke-linejoin="round"></path>
                <path d="M273.103257,118.931141 L303.550413,118.931141" id="Stroke-106" stroke="#1E130F" stroke-width="1.5" stroke-linecap="round" stroke-linejoin="round"></path>
                <path d="M317.216917,118.931141 L347.664073,118.931141" id="Stroke-107" stroke="#1E130F" stroke-width="1.5" stroke-linecap="round" stroke-linejoin="round"></path>
                <polyline id="Stroke-108" stroke="#1E130F" stroke-width="1.5" stroke-linecap="round" stroke-linejoin="round" points="370.983618 114.60828 360.478205 114.60828 358.674046 119.127123"></polyline>
                <polyline id="Stroke-109" stroke="#1E130F" stroke-width="1.5" stroke-linecap="round" stroke-linejoin="round" points="238.710752 114.60828 220.010355 114.60828 215.745859 118.734753 208.690966 118.734753"></polyline>
                <path d="M377.119336,44.3043206 L284.846859,44.3043206" id="Stroke-110" stroke="#1E130F" stroke-width="2.5" stroke-linecap="round" stroke-linejoin="round" stroke-dasharray="0.042,8.467000000000001"></path>
                <path d="M377.119336,50.0826004 L284.846859,50.0826004" id="Stroke-111" stroke="#1E130F" stroke-width="2.5" stroke-linecap="round" stroke-linejoin="round" stroke-dasharray="0.042,8.467000000000001"></path>
                <path d="M377.119336,55.862908 L284.846859,55.862908" id="Stroke-112" stroke="#1E130F" stroke-width="2.5" stroke-linecap="round" stroke-linejoin="round" stroke-dasharray="0.042,8.467000000000001"></path>
                <path d="M377.119336,61.6411878 L284.846859,61.6411878" id="Stroke-113" stroke="#1E130F" stroke-width="2.5" stroke-linecap="round" stroke-linejoin="round" stroke-dasharray="0.042,8.467000000000001"></path>
                <path d="M368.010832,105.358591 L392.315694,105.358591" id="Stroke-114" stroke="#1E130F" stroke-linecap="round" stroke-linejoin="round"></path>
                <path d="M322.187954,105.358591 L346.495446,105.358591" id="Stroke-115" stroke="#1E130F" stroke-linecap="round" stroke-linejoin="round"></path>
                <path d="M275.733226,105.358591 L300.039404,105.358591" id="Stroke-116" stroke="#1E130F" stroke-linecap="round" stroke-linejoin="round"></path>
                <path d="M226.557532,105.358591 L254.391813,105.358591" id="Stroke-117" stroke="#1E130F" stroke-linecap="round" stroke-linejoin="round"></path>
                <path d="M233.222269,105.358591 L233.222269,112.850118" id="Stroke-118" stroke="#1E130F" stroke-linecap="round" stroke-linejoin="round"></path>
                <path d="M240.827089,105.358591 L240.827089,112.850118" id="Stroke-119" stroke="#1E130F" stroke-linecap="round" stroke-linejoin="round"></path>
                <path d="M248.430725,105.497289 L248.430725,112.986788" id="Stroke-120" stroke="#1E130F" stroke-linecap="round" stroke-linejoin="round"></path>
                <path d="M282.358251,105.358591 L282.358251,112.850118" id="Stroke-121" stroke="#1E130F" stroke-linecap="round" stroke-linejoin="round"></path>
                <path d="M287.887893,105.358591 L287.887893,112.850118" id="Stroke-122" stroke="#1E130F" stroke-linecap="round" stroke-linejoin="round"></path>
                <path d="M293.41622,105.497289 L293.41622,112.986788" id="Stroke-123" stroke="#1E130F" stroke-linecap="round" stroke-linejoin="round"></path>
                <path d="M328.814294,105.358591 L328.814294,112.850118" id="Stroke-124" stroke="#1E130F" stroke-linecap="round" stroke-linejoin="round"></path>
                <path d="M334.343804,105.358591 L334.343804,112.850118" id="Stroke-125" stroke="#1E130F" stroke-linecap="round" stroke-linejoin="round"></path>
                <path d="M339.872131,105.497289 L339.872131,112.986788" id="Stroke-126" stroke="#1E130F" stroke-linecap="round" stroke-linejoin="round"></path>
                <path d="M374.967101,105.358591 L374.967101,112.850118" id="Stroke-127" stroke="#1E130F" stroke-linecap="round" stroke-linejoin="round"></path>
                <path d="M380.496743,105.358591 L380.496743,112.850118" id="Stroke-128" stroke="#1E130F" stroke-linecap="round" stroke-linejoin="round"></path>
                <path d="M386.02507,105.497289 L386.02507,112.986788" id="Stroke-129" stroke="#1E130F" stroke-linecap="round" stroke-linejoin="round"></path>
                <path d="M306.445352,94.1466478 L315.784373,94.1466478" id="Stroke-130" stroke="#1E130F" stroke-width="1.5" stroke-linecap="round" stroke-linejoin="round"></path>
                <path d="M262.118532,94.1466478 L269.327278,94.1466478" id="Stroke-131" stroke="#1E130F" stroke-width="1.5" stroke-linecap="round" stroke-linejoin="round"></path>
                <path d="M352.901263,94.1466478 L361.937838,94.1466478" id="Stroke-132" stroke="#1E130F" stroke-width="1.5" stroke-linecap="round" stroke-linejoin="round"></path>
                <path d="M290.055514,25.189217 L371.621385,25.189217" id="Stroke-133" stroke="#1E130F" stroke-width="2" stroke-linecap="round" stroke-linejoin="round" stroke-dasharray="0.042,8.467000000000001"></path>
                <path d="M224.898284,57.3639508 L224.925899,57.3639508" id="Stroke-134" stroke="#1E130F" stroke-width="2" stroke-linecap="round" stroke-linejoin="round"></path>
                <path d="M235.491407,57.3639508 L251.443486,57.3639508" id="Stroke-135" stroke="#1E130F" stroke-width="2" stroke-linecap="round" stroke-linejoin="round" stroke-dasharray="0.04,8.034000000000001"></path>
                <path d="M256.723807,57.3639508 L256.752737,57.3639508" id="Stroke-136" stroke="#1E130F" stroke-width="2" stroke-linecap="round" stroke-linejoin="round"></path>
                <g id="Group-332" transform="translate(0.000000, 0.124489)">
                    <path d="M63.2682538,88.8408493 C63.1222905,88.7161426 63.1314954,88.5245201 63.2945535,88.410966 L64.1795382,87.791488 C64.2571223,87.7336971 64.2650122,87.6373789 64.1913731,87.5755325 L63.3839725,86.8962359 C63.2406391,86.7715292 63.249844,86.5799067 63.4102722,86.4663526 L64.5819235,85.6410579 C64.7410367,85.5275038 64.7357768,85.3460201 64.6108532,85.2132024 L63.3866024,83.9590383 C63.2656239,83.8383871 63.2735138,83.6964445 63.4063272,83.6031679 C63.4760214,83.5555158 63.6075199,83.4997526 63.8455321,83.5180024 C64.9974587,83.6133067 65.7693547,84.392977 65.6444312,85.2922847 C65.577367,85.7454871 65.3695994,85.9056794 65.2565107,85.9888172 L64.3767859,86.6093091 C64.2926269,86.6650722 64.288682,86.7593627 64.3596911,86.8212091 L65.1684067,87.5045612 C65.31437,87.6272402 65.3038502,87.8208904 65.140792,87.9324167 L64.2571223,88.5518947 C64.1769083,88.6086718 64.1716483,88.7039761 64.2413425,88.7678502 L64.9540642,89.454244 C65.0895076,89.5830062 65.063208,89.7756426 64.890945,89.8800718 L63.8350122,90.4610225 C63.7495382,90.5117163 63.7350734,90.6090483 63.8008226,90.6729225 L64.2571223,91.1991239 C64.3846758,91.3339694 64.3439113,91.5225502 64.1677034,91.6208962 C63.9914954,91.7182282 63.7455933,91.6847703 63.6193547,91.5519526 L62.821159,90.6881306 C62.6857156,90.5573407 62.7172752,90.3677459 62.8869083,90.2643306 L63.9467859,89.6884493 C64.027,89.6367416 64.0414648,89.5414373 63.9730856,89.4765493 L63.2682538,88.8408493 Z" id="Fill-137" fill="#1E130F"></path>
                    <path d="M61.2456758,91.9379351 C60.373841,90.300526 60.0648196,88.6073537 60.0648196,86.8584183 C60.0648196,86.1040949 60.1279388,85.3497714 60.289682,84.6055867 L61.1246972,84.6055867 C60.9221896,85.312258 60.8590703,86.0371791 60.8590703,86.7600724 C60.8590703,88.2768303 61.1062875,89.8888925 61.6730459,91.3488733 C62.2424343,89.8888925 62.4870214,88.2768303 62.4870214,86.7600724 C62.4870214,86.0371791 62.4252171,85.312258 62.2227095,84.6055867 L63.0577248,84.6055867 C63.2220979,85.3497714 63.2839021,86.1040949 63.2839021,86.8584183 C63.2839021,88.6073537 62.9761957,90.300526 62.1004159,91.9379351 L61.2456758,91.9379351 Z" id="Fill-139" fill="#1E130F"></path>
                    <path d="M64.4894801,83.8249025 C64.5460245,83.8715408 64.5394495,83.9496092 64.4763303,83.9932059 C64.413211,84.040858 64.3119572,84.0368025 64.2554128,83.9871226 C64.1949235,83.9374427 64.1988685,83.8603882 64.2646177,83.8147638 C64.329052,83.7711671 64.4263609,83.7752226 64.4894801,83.8249025" id="Fill-141" fill="#1E130F"></path>
                    <path d="M64.6576667,86.40917 C64.7313058,86.3594901 64.8483394,86.3635456 64.9167187,86.4193088 C64.9837829,86.4781136 64.9798379,86.5673346 64.9035688,86.6200562 C64.8272997,86.6748055 64.7089511,86.67075 64.6405719,86.6109313 C64.5748226,86.5541543 64.5774526,86.4629055 64.6576667,86.40917" id="Fill-143" fill="#1E130F"></path>
                    <path d="M64.6576667,86.8527406 C64.7313058,86.7990052 64.8483394,86.8050885 64.9167187,86.8628794 C64.9837829,86.9216842 64.9798379,87.012933 64.9035688,87.0666684 C64.8272997,87.118376 64.7089511,87.1143205 64.6405719,87.0565296 C64.5748226,86.9977248 64.5774526,86.9085038 64.6576667,86.8527406" id="Fill-145" fill="#1E130F"></path>
                    <path d="M65.0454557,87.1992833 C65.1230398,87.1475756 65.2374434,87.1496034 65.3071376,87.2094221 C65.3768318,87.2682268 65.3689419,87.3574479 65.2953028,87.4111833 C65.2203486,87.462891 65.100685,87.4588355 65.0296758,87.4010445 C64.9652416,87.3442675 64.9691865,87.2540326 65.0454557,87.1992833" id="Fill-147" fill="#1E130F"></path>
                    <path d="M64.5382661,88.3557098 C64.6119052,88.2999467 64.7315688,88.3080577 64.799948,88.3658486 C64.8670122,88.4226256 64.8630673,88.5138744 64.7854832,88.5676098 C64.7092141,88.6213452 64.5948104,88.6172897 64.5264312,88.5574711 C64.456737,88.4986663 64.4633119,88.4074175 64.5382661,88.3557098" id="Fill-149" fill="#1E130F"></path>
                    <path d="M64.5190673,88.8032345 C64.5979664,88.7535546 64.71237,88.7616656 64.7781193,88.823512 C64.8438685,88.8843445 64.8320336,88.9735656 64.7531346,89.0252733 C64.6702905,89.0769809 64.5572018,89.0648144 64.4914526,89.0049957 C64.4270183,88.9441632 64.4388532,88.8549422 64.5190673,88.8032345" id="Fill-151" fill="#1E130F"></path>
                    <path d="M64.8914709,89.1636673 C64.973,89.1139874 65.0887187,89.1241261 65.1531529,89.1849587 C65.2162722,89.2488328 65.2018073,89.3360261 65.1229083,89.385706 C65.0440092,89.4353859 64.9282905,89.4252472 64.8638563,89.3654285 C64.800737,89.3025682 64.8138869,89.2113194 64.8914709,89.1636673" id="Fill-153" fill="#1E130F"></path>
                    <path d="M64.9311835,88.0824703 C65.0048226,88.0267072 65.1231713,88.0307627 65.1902355,88.0905813 C65.2599297,88.1473584 65.2533547,88.2365794 65.1784006,88.2903148 C65.1034465,88.3440502 64.9837829,88.3399947 64.9167187,88.2822038 C64.8483394,88.2213713 64.8509694,88.134178 64.9311835,88.0824703" id="Fill-155" fill="#1E130F"></path>
                    <path d="M64.159419,90.282479 C64.240948,90.2348268 64.3579817,90.2520627 64.415841,90.3159369 C64.4763303,90.3787972 64.4579205,90.4690321 64.3763914,90.5146565 C64.2909174,90.5612948 64.1738838,90.5460867 64.1160245,90.4822125 C64.0568502,90.4173244 64.0752599,90.3281034 64.159419,90.282479" id="Fill-157" fill="#1E130F"></path>
                    <path d="M64.1157615,90.7775544 C64.1986055,90.7339578 64.3156391,90.7542353 64.3708685,90.8170956 C64.4287278,90.8829975 64.410318,90.9712047 64.3195841,91.0148013 C64.238055,91.058398 64.1223364,91.0431899 64.0644771,90.9752602 C64.0066177,90.9103722 64.0316024,90.8231789 64.1157615,90.7775544" id="Fill-159" fill="#1E130F"></path>
                    <path d="M64.5973089,90.0403655 C64.6788379,89.9937272 64.7958716,90.0109631 64.8511009,90.076865 C64.9142202,90.1397253 64.8944954,90.2289464 64.8090214,90.2745708 C64.7261774,90.3181674 64.6117737,90.3039732 64.5525994,90.2411129 C64.4921101,90.1772387 64.5131498,90.0859899 64.5973089,90.0403655" id="Fill-161" fill="#1E130F"></path>
                    <path d="M65.492419,85.7398094 C65.5344985,85.6708658 65.6462722,85.6404496 65.7383211,85.6749213 C65.831685,85.710407 65.8685046,85.7955725 65.8251101,85.8645161 C65.7790856,85.9375151 65.664682,85.9679314 65.576578,85.9314319 C65.4845291,85.897974 65.4463945,85.8107807 65.492419,85.7398094" id="Fill-163" fill="#1E130F"></path>
                    <path d="M65.6400917,85.2962388 C65.6479817,85.2171565 65.7334557,85.1573378 65.8333945,85.1613933 C65.9399083,85.1634211 66.0161774,85.2333785 66.0135474,85.3124608 C66.0069725,85.3895154 65.9228135,85.4503479 65.8215596,85.4483201 C65.7189908,85.4432508 65.6387768,85.3753211 65.6400917,85.2962388" id="Fill-165" fill="#1E130F"></path>
                    <path d="M65.6207615,84.789301 C65.5997217,84.7122465 65.664156,84.6392474 65.7693547,84.6230254 C65.8679786,84.6088311 65.9639725,84.6564833 65.9850122,84.7355656 C66.000792,84.8126201 65.9376728,84.8856192 65.833789,84.9018412 C65.7338502,84.9160355 65.6404862,84.8663556 65.6207615,84.789301" id="Fill-167" fill="#1E130F"></path>
                    <path d="M65.4166758,84.3338681 C65.3667064,84.2669523 65.3943211,84.179759 65.485055,84.1381901 C65.5705291,84.0986489 65.6823028,84.1219681 65.7335872,84.1888839 C65.7861865,84.2588413 65.7572569,84.3460346 65.6678379,84.3855757 C65.5810489,84.4251169 65.4666453,84.4028116 65.4166758,84.3338681" id="Fill-169" fill="#1E130F"></path>
                    <path d="M65.1148869,86.0803702 C65.1937859,86.0266348 65.3068746,86.032718 65.3791988,86.0905089 C65.446263,86.1493137 65.442318,86.236507 65.3660489,86.2902424 C65.2897798,86.3439778 65.1753761,86.3399223 65.103052,86.2801037 C65.0346728,86.2233267 65.0399327,86.1341056 65.1148869,86.0803702" id="Fill-171" fill="#1E130F"></path>
                    <path d="M60.0861223,88.8408493 C60.2320856,88.7161426 60.2215657,88.5245201 60.0598226,88.410966 L59.1748379,87.791488 C59.0946239,87.7336971 59.0867339,87.6373789 59.1630031,87.5755325 L59.9677737,86.8962359 C60.115052,86.7715292 60.1058471,86.5799067 59.944104,86.4663526 L58.7724526,85.6410579 C58.6120245,85.5275038 58.6159694,85.3460201 58.7461529,85.2132024 L59.9664587,83.9590383 C60.0861223,83.8383871 60.0782324,83.6964445 59.945419,83.6031679 C59.8809847,83.5555158 59.7468563,83.4997526 59.5035841,83.5180024 C58.3556024,83.6133067 57.5837064,84.392977 57.709945,85.2922847 C57.7743792,85.7454871 57.9847768,85.9056794 58.0978654,85.9888172 L58.9789052,86.6093091 C59.0604343,86.6650722 59.0656942,86.7593627 58.994685,86.8212091 L58.1872844,87.5045612 C58.0386911,87.6272402 58.051841,87.8208904 58.2109541,87.9324167 L59.0946239,88.5518947 C59.1774679,88.6086718 59.1840428,88.7039761 59.1117187,88.7678502 L58.3989969,89.454244 C58.2648685,89.5830062 58.2924832,89.7756426 58.4634312,89.8800718 L59.5193639,90.4610225 C59.602208,90.5117163 59.6206177,90.6090483 59.5535535,90.6729225 L59.0946239,91.1991239 C58.9697003,91.3339694 59.0104648,91.5225502 59.1866728,91.6208962 C59.3628807,91.7182282 59.6087829,91.6847703 59.7323914,91.5519526 L60.5319021,90.6881306 C60.6686606,90.5573407 60.6371009,90.3677459 60.4687829,90.2643306 L59.4102202,89.6884493 C59.3260612,89.6367416 59.3089664,89.5414373 59.3812905,89.4765493 L60.0861223,88.8408493 Z" id="Fill-173" fill="#1E130F"></path>
                    <path d="M58.8647645,83.8249025 C58.8042752,83.8715408 58.8134801,83.9496092 58.8792294,83.9932059 C58.9436636,84.040858 59.0396575,84.0368025 59.1001468,83.9871226 C59.1593211,83.9374427 59.1553761,83.8603882 59.0869969,83.8147638 C59.0238777,83.7711671 58.9239388,83.7752226 58.8647645,83.8249025" id="Fill-175" fill="#1E130F"></path>
                    <path d="M58.699208,86.40917 C58.6242538,86.3594901 58.5072202,86.3635456 58.437526,86.4193088 C58.3717768,86.4781136 58.3757217,86.5673346 58.4533058,86.6200562 C58.5282599,86.6748055 58.6452936,86.67075 58.7123578,86.6109313 C58.780737,86.5541543 58.776792,86.4629055 58.699208,86.40917" id="Fill-177" fill="#1E130F"></path>
                    <path d="M58.699208,86.8527406 C58.6242538,86.7990052 58.5072202,86.8050885 58.437526,86.8628794 C58.3717768,86.9216842 58.3757217,87.012933 58.4533058,87.0666684 C58.5282599,87.118376 58.6452936,87.1143205 58.7123578,87.0565296 C58.780737,86.9977248 58.776792,86.9085038 58.699208,86.8527406" id="Fill-179" fill="#1E130F"></path>
                    <path d="M58.307474,87.1992833 C58.2325199,87.1475756 58.1154862,87.1496034 58.0444771,87.2094221 C57.9774128,87.2682268 57.9853028,87.3574479 58.0589419,87.4111833 C58.135211,87.462891 58.2509297,87.4588355 58.3206239,87.4010445 C58.390318,87.3442675 58.3837431,87.2540326 58.307474,87.1992833" id="Fill-181" fill="#1E130F"></path>
                    <path d="M58.8159786,88.3557098 C58.7423394,88.2999467 58.6239908,88.3080577 58.5569266,88.3658486 C58.4859174,88.4226256 58.4911774,88.5138744 58.5687615,88.5676098 C58.6424006,88.6213452 58.7607492,88.6172897 58.8304434,88.5574711 C58.8975076,88.4986663 58.8909327,88.4074175 58.8159786,88.3557098" id="Fill-183" fill="#1E130F"></path>
                    <path d="M58.8378073,88.8032345 C58.7575933,88.7535546 58.6418746,88.7616656 58.5761254,88.823512 C58.5103761,88.8843445 58.519581,88.9735656 58.6011101,89.0252733 C58.6786942,89.0769809 58.7983578,89.0648144 58.8614771,89.0049957 C58.9259113,88.9441632 58.9153914,88.8549422 58.8378073,88.8032345" id="Fill-185" fill="#1E130F"></path>
                    <path d="M58.4629052,89.1636673 C58.3813761,89.1139874 58.2669725,89.1241261 58.2012232,89.1849587 C58.138104,89.2488328 58.1525688,89.3360261 58.2288379,89.385706 C58.310367,89.4353859 58.4274006,89.4252472 58.4905199,89.3654285 C58.5562691,89.3025682 58.5404893,89.2113194 58.4629052,89.1636673" id="Fill-187" fill="#1E130F"></path>
                    <path d="M58.4230612,88.0824703 C58.346792,88.0267072 58.2323884,88.0307627 58.1640092,88.0905813 C58.094315,88.1473584 58.0995749,88.2365794 58.175844,88.2903148 C58.2507982,88.3440502 58.3678318,88.3399947 58.437526,88.2822038 C58.5045902,88.2213713 58.4993303,88.134178 58.4230612,88.0824703" id="Fill-189" fill="#1E130F"></path>
                    <path d="M59.1948257,90.282479 C59.1119817,90.2348268 58.998893,90.2520627 58.9370887,90.3159369 C58.8792294,90.3787972 58.8963242,90.4690321 58.9791682,90.5146565 C59.0633272,90.5612948 59.1764159,90.5460867 59.2369052,90.4822125 C59.2973945,90.4173244 59.2789847,90.3281034 59.1948257,90.282479" id="Fill-191" fill="#1E130F"></path>
                    <path d="M59.2372997,90.7775544 C59.1557706,90.7339578 59.037422,90.7542353 58.9821927,90.8170956 C58.9243333,90.8829975 58.9466881,90.9712047 59.0321621,91.0148013 C59.1163211,91.058398 59.2320398,91.0431899 59.2898991,90.9752602 C59.3451284,90.9103722 59.3227737,90.8231789 59.2372997,90.7775544" id="Fill-193" fill="#1E130F"></path>
                    <path d="M58.7582508,90.0403655 C58.6754067,89.9937272 58.5596881,90.0109631 58.4991988,90.076865 C58.4387095,90.1397253 58.4597492,90.2289464 58.5425933,90.2745708 C58.6241223,90.3181674 58.7424709,90.3039732 58.8016453,90.2411129 C58.8608196,90.1772387 58.8410948,90.0859899 58.7582508,90.0403655" id="Fill-195" fill="#1E130F"></path>
                    <path d="M57.8644557,85.7398094 C57.8184312,85.6708658 57.7079725,85.6404496 57.6172385,85.6749213 C57.5225596,85.710407 57.4857401,85.7955725 57.5304495,85.8645161 C57.5725291,85.9375151 57.6829878,85.9679314 57.7776667,85.9314319 C57.8684006,85.897974 57.9091651,85.8107807 57.8644557,85.7398094" id="Fill-197" fill="#1E130F"></path>
                    <path d="M57.7103394,85.2962388 C57.7050795,85.2171565 57.6209205,85.1573378 57.5183517,85.1613933 C57.4157829,85.1634211 57.3381988,85.2333785 57.3381988,85.3124608 C57.3474037,85.3895154 57.4341927,85.4503479 57.5354465,85.4483201 C57.6380153,85.4432508 57.7169144,85.3753211 57.7103394,85.2962388" id="Fill-199" fill="#1E130F"></path>
                    <path d="M57.7347982,84.789301 C57.751893,84.7122465 57.6874587,84.6392474 57.5875199,84.6230254 C57.4862661,84.6088311 57.3876422,84.6564833 57.3692324,84.7355656 C57.3508226,84.8126201 57.4178869,84.8856192 57.5178257,84.9018412 C57.6177645,84.9160355 57.7137584,84.8663556 57.7347982,84.789301" id="Fill-201" fill="#1E130F"></path>
                    <path d="M57.9377003,84.3338681 C57.9889847,84.2669523 57.96137,84.179759 57.8719511,84.1381901 C57.7825321,84.0986489 57.6694434,84.1219681 57.618159,84.1888839 C57.5668746,84.2588413 57.5944893,84.3460346 57.6839083,84.3855757 C57.7733272,84.4251169 57.8851009,84.4028116 57.9377003,84.3338681" id="Fill-203" fill="#1E130F"></path>
                    <path d="M58.2368593,86.0803702 C58.1605902,86.0266348 58.0448716,86.032718 57.9778073,86.0905089 C57.9054832,86.1493137 57.9120581,86.236507 57.9870122,86.2902424 C58.0619664,86.3439778 58.18163,86.3399223 58.2473792,86.2801037 C58.3183884,86.2233267 58.3104985,86.1341056 58.2368593,86.0803702" id="Fill-205" fill="#1E130F"></path>
                    <path d="M47.0942049,81.4684529 L58.3438991,71.2262816 C58.3438991,71.2262816 59.3406575,70.1515734 61.6787003,70.1515734 C64.0114832,70.1515734 65.0187615,71.3895156 65.0187615,71.3895156 L76.2605657,81.4684529 L47.0942049,81.4684529 Z" id="Fill-207" fill="#1E130F"></path>
                    <path d="M74.9104709,109.054994 C74.9104709,109.054994 75.1419083,109.007342 75.166893,108.801525 C75.1945076,108.597736 74.8552416,108.439572 74.8552416,108.439572 L64.4576575,105.64533 C64.4576575,105.64533 63.1190031,105.227614 61.4095229,105.227614 C59.7605321,105.227614 58.3653333,105.64533 58.3653333,105.64533 L47.9651193,108.439572 C47.9651193,108.439572 47.6271682,108.597736 47.6534679,108.801525 C47.6810826,109.007342 47.9098899,109.054994 47.9098899,109.054994 L74.9104709,109.054994 Z" id="Fill-209" fill="#1E130F"></path>
                    <path d="M26.360052,125.07504 L26.3876667,125.07504" id="Stroke-211" stroke="#1E130F" stroke-width="2" stroke-linecap="round" stroke-linejoin="round"></path>
                    <path d="M38.013841,125.07504 L90.6198043,125.07504" id="Stroke-213" stroke="#1E130F" stroke-width="2" stroke-linecap="round" stroke-linejoin="round" stroke-dasharray="0.044,8.840999999999999"></path>
                    <path d="M96.4317737,125.07504 L96.4593884,125.07504" id="Stroke-215" stroke="#1E130F" stroke-width="2" stroke-linecap="round" stroke-linejoin="round"></path>
                    <path d="M13.7674954,119.783826 L29.5762416,119.783826" id="Stroke-217" stroke="#1E130F" stroke-width="1.5" stroke-linecap="round" stroke-linejoin="round"></path>
                    <path d="M42.1257982,119.783826 L51.0150948,119.783826" id="Stroke-219" stroke="#1E130F" stroke-width="1.5" stroke-linecap="round" stroke-linejoin="round"></path>
                    <path d="M109.866709,119.783826 L78.6226728,119.783826" id="Stroke-221" stroke="#1E130F" stroke-width="1.5" stroke-linecap="round" stroke-linejoin="round"></path>
                    <path d="M98.3708502,119.162016 L98.3708502,102.110656" id="Stroke-223" stroke="#1E130F" stroke-width="1.5" stroke-linecap="round" stroke-linejoin="round"></path>
                    <path d="M42.1257982,108.781755 L42.1257982,119.784333" id="Stroke-225" stroke="#1E130F" stroke-width="1.5" stroke-linecap="round" stroke-linejoin="round"></path>
                    <path d="M29.5768991,119.783826 L29.5768991,108.781248" id="Stroke-227" stroke="#1E130F" stroke-width="1.5" stroke-linecap="round" stroke-linejoin="round"></path>
                    <path d="M25.4419297,102.45294 L25.4419297,119.78413" id="Stroke-229" stroke="#1E130F" stroke-width="1.5" stroke-linecap="round" stroke-linejoin="round"></path>
                    <path d="M50.047792,80.1753559 L21.9847034,105.500954" id="Stroke-231" stroke="#1E130F" stroke-width="1.5" stroke-linecap="round" stroke-linejoin="round"></path>
                    <path d="M100.836446,104.195488 L73.529474,80.464716" id="Stroke-233" stroke="#1E130F" stroke-width="1.5" stroke-linecap="round" stroke-linejoin="round"></path>
                    <path d="M47.2752783,115.581818 L75.5448196,115.581818" id="Stroke-235" stroke="#1E130F" stroke-width="1.5" stroke-linecap="round" stroke-linejoin="round"></path>
                    <path d="M47.2764618,100.736043 L75.5433731,100.736043" id="Stroke-237" stroke="#1E130F" stroke-width="1.5" stroke-linecap="round" stroke-linejoin="round"></path>
                    <path d="M49.1887125,94.3909057 L73.6316483,94.3909057" id="Stroke-239" stroke="#1E130F" stroke-width="1.5" stroke-linecap="round" stroke-linejoin="round"></path>
                    <path d="M83.0598257,109.054994 L95.3128532,109.054994" id="Stroke-241" stroke="#1E130F" stroke-width="1.5" stroke-linecap="round" stroke-linejoin="round"></path>
                    <path d="M83.0598257,115.581818 L95.3128532,115.581818" id="Stroke-243" stroke="#1E130F" stroke-width="1.5" stroke-linecap="round" stroke-linejoin="round"></path>
                    <path d="M29.5768991,108.587192 L42.1257982,108.587192" id="Stroke-245" stroke="#1E130F" stroke-width="1.5" stroke-linecap="round" stroke-linejoin="round"></path>
                    <path d="M50.9941865,94.3909057 L50.9941865,100.735739" id="Stroke-247" stroke="#1E130F" stroke-linecap="round" stroke-linejoin="round"></path>
                    <path d="M56.2040245,94.3909057 L56.2040245,100.735739" id="Stroke-249" stroke="#1E130F" stroke-linecap="round" stroke-linejoin="round"></path>
                    <path d="M61.4113639,94.3909057 L61.4113639,100.735739" id="Stroke-251" stroke="#1E130F" stroke-linecap="round" stroke-linejoin="round"></path>
                    <path d="M66.6185719,94.3909057 L66.6185719,100.735739" id="Stroke-253" stroke="#1E130F" stroke-linecap="round" stroke-linejoin="round"></path>
                    <path d="M71.8259113,94.3909057 L71.8259113,100.735739" id="Stroke-255" stroke="#1E130F" stroke-linecap="round" stroke-linejoin="round"></path>
                    <path d="M50.7347401,109.239114 L50.7347401,115.58192" id="Stroke-257" stroke="#1E130F" stroke-linecap="round" stroke-linejoin="round"></path>
                    <path d="M56.071737,109.239114 L56.071737,115.58192" id="Stroke-259" stroke="#1E130F" stroke-linecap="round" stroke-linejoin="round"></path>
                    <path d="M61.4100489,109.239114 L61.4100489,115.58192" id="Stroke-261" stroke="#1E130F" stroke-linecap="round" stroke-linejoin="round"></path>
                    <path d="M66.7457309,109.239114 L66.7457309,115.58192" id="Stroke-263" stroke="#1E130F" stroke-linecap="round" stroke-linejoin="round"></path>
                    <path d="M72.0840428,109.239114 L72.0840428,115.58192" id="Stroke-265" stroke="#1E130F" stroke-linecap="round" stroke-linejoin="round"></path>
                    <path d="M85.1208012,109.239114 L85.1208012,115.58192" id="Stroke-267" stroke="#1E130F" stroke-linecap="round" stroke-linejoin="round"></path>
                    <path d="M93.4409725,109.239114 L93.4409725,115.58192" id="Stroke-269" stroke="#1E130F" stroke-linecap="round" stroke-linejoin="round"></path>
                    <path d="M20.9780826,96.2013833 L20.9964924,96.1841475" id="Stroke-271" stroke="#1E130F" stroke-width="2" stroke-linecap="round" stroke-linejoin="round"></path>
                    <path d="M28.1770979,89.5814854 L55.5379847,64.4191208 C55.5379847,64.4191208 57.3316239,62.4897156 61.5211651,62.4897156 C61.9814098,62.4897156 62.4127248,62.5170902 62.8164251,62.5647423" id="Stroke-273" stroke="#1E130F" stroke-width="2" stroke-linecap="round" stroke-linejoin="round" stroke-dasharray="0.042,8.497999999999999"></path>
                    <path d="M67.5098685,64.6955033 C67.5177584,64.7046282 67.5217034,64.7096976 67.5217034,64.7096976" id="Stroke-275" stroke="#1E130F" stroke-width="2" stroke-linecap="round" stroke-linejoin="round"></path>
                    <path d="M156.621911,109.509413 L156.621911,123.436008" id="Stroke-277" stroke="#1E130F" stroke-width="1.5" stroke-linecap="round" stroke-linejoin="round"></path>
                    <path d="M156.542223,103.218315 L156.542223,103.197024" id="Stroke-279" stroke="#1E130F" stroke-width="2" stroke-linecap="round" stroke-linejoin="round"></path>
                    <path d="M156.542223,97.038946 L156.542223,93.9304034" id="Stroke-281" stroke="#1E130F" stroke-width="2" stroke-linecap="round" stroke-linejoin="round" stroke-dasharray="0.03,6.073"></path>
                    <path d="M156.542223,90.8517701 L156.542223,90.8304788" id="Stroke-283" stroke="#1E130F" stroke-width="2" stroke-linecap="round" stroke-linejoin="round"></path>
                    <path d="M170.051719,22.5854984 L176.888324,19.6452591" id="Stroke-285" stroke="#1E130F" stroke-linecap="round" stroke-linejoin="round"></path>
                    <path d="M169.437884,17.9557368 L165.408771,14.4112278" id="Stroke-287" stroke="#1E130F" stroke-linecap="round" stroke-linejoin="round"></path>
                    <polygon id="Stroke-289" stroke="#1E130F" stroke-width="1.5" stroke-linecap="round" stroke-linejoin="round" points="157.593948 12.1378145 169.837771 6.69026091 182.078963 12.1378145 182.078963 23.0369772 169.837771 28.4885863 157.593948 23.0369772"></polygon>
                    <path d="M169.837245,28.1458963 L169.837245,83.9871226" id="Stroke-291" stroke="#1E130F" stroke-width="1.5" stroke-linecap="round" stroke-linejoin="round"></path>
                    <path d="M169.837245,15.2783956 L169.837245,28.1799625" id="Stroke-293" stroke="#1E130F" stroke-linecap="round" stroke-linejoin="round"></path>
                    <path d="M155.815431,7.55154823 L155.840416,7.5403956" id="Stroke-295" stroke="#1E130F" stroke-width="2" stroke-linecap="round" stroke-linejoin="round"></path>
                    <path d="M163.119777,4.29903531 L166.797789,2.6626401" id="Stroke-297" stroke="#1E130F" stroke-width="2" stroke-linecap="round" stroke-linejoin="round" stroke-dasharray="0.032,6.394"></path>
                    <polyline id="Stroke-299" stroke="#1E130F" stroke-width="2" stroke-linecap="round" stroke-linejoin="round" points="170.436878 1.0415544 170.461862 1.03040177 170.485532 1.0415544"></polyline>
                    <path d="M177.766865,4.28321885 L181.443563,5.91961407" id="Stroke-301" stroke="#1E130F" stroke-width="2" stroke-linecap="round" stroke-linejoin="round" stroke-dasharray="0.032,6.394"></path>
                    <path d="M185.084098,7.54069976 L185.109083,7.55185239" id="Stroke-303" stroke="#1E130F" stroke-width="2" stroke-linecap="round" stroke-linejoin="round"></path>
                    <path d="M170.462651,112.56493 L170.462651,123.436718" id="Stroke-305" stroke="#1E130F" stroke-width="1.5" stroke-linecap="round" stroke-linejoin="round"></path>
                    <path d="M130.943679,116.606542 L130.943679,123.436008" id="Stroke-307" stroke="#1E130F" stroke-width="1.5" stroke-linecap="round" stroke-linejoin="round"></path>
                    <path d="M130.862807,112.450058 L130.862807,112.428766" id="Stroke-309" stroke="#1E130F" stroke-width="2" stroke-linecap="round" stroke-linejoin="round"></path>
                    <path d="M130.862807,106.246052 L130.862807,106.22476" id="Stroke-311" stroke="#1E130F" stroke-width="2" stroke-linecap="round" stroke-linejoin="round"></path>
                    <mask id="mask-10" fill="white">
                        <use xlink:href="#path-9"></use>
                    </mask>
                    <g id="Clip-314"></g>
                    <polygon id="Stroke-313" stroke="#1E130F" stroke-width="1.5" stroke-linecap="round" stroke-linejoin="round" mask="url(#mask-10)" points="164.693945 112.533094 188.375505 112.533094 188.375505 94.2853612 164.693945 94.2853612"></polygon>
                    <path d="M176.590612,112.533297 L176.590612,123.436515" id="Stroke-315" stroke="#1E130F" stroke-width="1.5" stroke-linecap="round" stroke-linejoin="round" mask="url(#mask-10)"></path>
                    <path d="M176.590612,97.1072812 L176.590612,112.564829" id="Stroke-316" stroke="#1E130F" stroke-linecap="round" stroke-linejoin="round" mask="url(#mask-10)"></path>
                    <path d="M166.163177,89.8596929 L166.190792,89.8596929" id="Stroke-317" stroke="#1E130F" stroke-width="2" stroke-linecap="round" stroke-linejoin="round" mask="url(#mask-10)"></path>
                    <path d="M176.508425,89.8596929 L181.719709,89.8596929" id="Stroke-318" stroke="#1E130F" stroke-width="2" stroke-linecap="round" stroke-linejoin="round" stroke-dasharray="0.039,7.846" mask="url(#mask-10)"></path>
                    <path d="M186.878131,89.8596929 L186.905746,89.8596929" id="Stroke-319" stroke="#1E130F" stroke-width="2" stroke-linecap="round" stroke-linejoin="round" mask="url(#mask-10)"></path>
                    <path d="M176.590612,108.962934 L182.698716,104.83646" id="Stroke-320" stroke="#1E130F" stroke-linecap="round" stroke-linejoin="round" mask="url(#mask-10)"></path>
                    <path d="M176.534067,103.410343 L172.504954,99.8658339" id="Stroke-321" stroke="#1E130F" stroke-linecap="round" stroke-linejoin="round" mask="url(#mask-10)"></path>
                    <polygon id="Stroke-322" stroke="#1E130F" stroke-width="1.5" stroke-linecap="round" stroke-linejoin="round" mask="url(#mask-10)" points="133.734208 85.7130431 128.340141 72.249789 142.464391 63.9309397 156.583382 72.249789 151.189315 85.7130431"></polygon>
                    <path d="M142.463997,85.6814101 L142.463997,123.43611" id="Stroke-323" stroke="#1E130F" stroke-width="1.5" stroke-linecap="round" stroke-linejoin="round" mask="url(#mask-10)"></path>
                    <path d="M142.463997,71.6911435 L142.463997,85.7170986" id="Stroke-324" stroke="#1E130F" stroke-linecap="round" stroke-linejoin="round" mask="url(#mask-10)"></path>
                    <path d="M125.247165,67.6593658 L125.26952,67.6461855" id="Stroke-325" stroke="#1E130F" stroke-width="2" stroke-linecap="round" stroke-linejoin="round" mask="url(#mask-10)"></path>
                    <path d="M133.83441,62.5999238 L138.159394,60.0510406" id="Stroke-326" stroke="#1E130F" stroke-width="2" stroke-linecap="round" stroke-linejoin="round" stroke-dasharray="0.041,8.198" mask="url(#mask-10)"></path>
                    <polyline id="Stroke-327" stroke="#1E130F" stroke-width="2" stroke-linecap="round" stroke-linejoin="round" mask="url(#mask-10)" points="142.442168 57.5275042 142.464523 57.5143238 142.485563 57.5275042"></polyline>
                    <path d="M151.049927,62.5741714 L155.374911,65.1230546" id="Stroke-328" stroke="#1E130F" stroke-width="2" stroke-linecap="round" stroke-linejoin="round" stroke-dasharray="0.041,8.196999999999999" mask="url(#mask-10)"></path>
                    <path d="M159.657685,67.6464896 L159.68004,67.65967" id="Stroke-329" stroke="#1E130F" stroke-width="2" stroke-linecap="round" stroke-linejoin="round" mask="url(#mask-10)"></path>
                    <path d="M142.463997,80.7684732 L148.572101,76.6419995" id="Stroke-330" stroke="#1E130F" stroke-linecap="round" stroke-linejoin="round" mask="url(#mask-10)"></path>
                    <path d="M142.461367,76.5941445 L138.432254,73.0496355" id="Stroke-331" stroke="#1E130F" stroke-linecap="round" stroke-linejoin="round" mask="url(#mask-10)"></path>
                </g>
            </g>
        </g>
    </g>
</svg>