<?xml version="1.0" encoding="UTF-8" standalone="no"?>
<svg width="430px" height="226px" viewBox="0 0 430 226" version="1.1" xmlns="http://www.w3.org/2000/svg" xmlns:xlink="http://www.w3.org/1999/xlink">
    <!-- Generator: Sketch 41.2 (35397) - http://www.bohemiancoding.com/sketch -->
    <title>IconoInnovacion</title>
    <desc>Created with Sketch.</desc>
    <defs>
        <polygon id="path-1" points="0.225 1 75.334 1 75.334 0.5 0.225 0.5"></polygon>
        <polygon id="path-3" points="1.592 1.4043 1.592 0.4043 0.9254 0.4043 0.9254 1.4043 1.592 1.4043"></polygon>
        <polygon id="path-5" points="0.225 1 75.334 1 75.334 0.5 0.225 0.5"></polygon>
        <polygon id="path-7" points="1.592 1.4043 1.592 0.4043 0.9254 0.4043 0.9254 1.4043 1.592 1.4043"></polygon>
        <polygon id="path-9" points="0 150.986667 429.141211 150.986667 429.141211 0.573546667 0 0.573546667"></polygon>
    </defs>
    <g id="Cortes" stroke="none" stroke-width="1" fill="none" fill-rule="evenodd">
        <g id="IconoInnovacion">
            <g id="Page-1-Copy-4" transform="translate(40.000000, 0.000000)">
                <g id="Group-3" transform="translate(1.000000, 8.245610)">
                    <mask id="mask-2" fill="white">
                        <use xlink:href="#path-1"></use>
                    </mask>
                    <g id="Clip-2"></g>
                    <path d="M75.334,0.5 L0.225,0.5" id="Stroke-1" stroke="#221F20" stroke-linecap="round" stroke-linejoin="round" mask="url(#mask-2)"></path>
                </g>
                <g id="Group-6" transform="translate(152.000000, 0.245610)">
                    <mask id="mask-4" fill="white">
                        <use xlink:href="#path-3"></use>
                    </mask>
                    <g id="Clip-5"></g>
                    <path d="M0.9414,0.4043 L0.9254,0.4043" id="Stroke-4" stroke="#221F20" stroke-width="1.3" stroke-linecap="round" stroke-linejoin="round" mask="url(#mask-4)"></path>
                </g>
                <path d="M0.666,0.64991 L0.65,0.64991" id="Stroke-9" stroke="#221F20" stroke-width="1.3" stroke-linecap="round" stroke-linejoin="round"></path>
            </g>
            <g id="Page-1" transform="translate(230.000000, 21.000000)">
                <g id="Group-3" transform="translate(1.000000, 8.245610)">
                    <mask id="mask-6" fill="white">
                        <use xlink:href="#path-5"></use>
                    </mask>
                    <g id="Clip-2"></g>
                    <path d="M75.334,0.5 L0.225,0.5" id="Stroke-1" stroke="#221F20" stroke-linecap="round" stroke-linejoin="round" mask="url(#mask-6)"></path>
                </g>
                <g id="Group-6" transform="translate(152.000000, 0.245610)">
                    <mask id="mask-8" fill="white">
                        <use xlink:href="#path-7"></use>
                    </mask>
                    <g id="Clip-5"></g>
                    <path d="M0.9414,0.4043 L0.9254,0.4043" id="Stroke-4" stroke="#221F20" stroke-width="1.3" stroke-linecap="round" stroke-linejoin="round" mask="url(#mask-8)"></path>
                </g>
                <path d="M146.6113,0.64991 L3.8233,0.64991" id="Stroke-7" stroke="#221F20" stroke-width="1.3" stroke-linecap="round" stroke-linejoin="round" stroke-dasharray="0.032,6.314"></path>
                <path d="M0.666,0.64991 L0.65,0.64991" id="Stroke-9" stroke="#221F20" stroke-width="1.3" stroke-linecap="round" stroke-linejoin="round"></path>
            </g>
            <g id="Page-1" transform="translate(0.000000, 74.000000)">
                <path d="M53.5618901,130.669941 L371.382763,130.669941" id="Stroke-1" stroke="#1E130F" stroke-linecap="round" stroke-linejoin="round"></path>
                <path d="M53.5618901,146.757621 L371.382763,146.757621" id="Stroke-2" stroke="#1E130F" stroke-linecap="round" stroke-linejoin="round"></path>
                <g id="Group-15" transform="translate(53.101056, 126.093120)" stroke-linecap="round" stroke="#1E130F" stroke-linejoin="round">
                    <polygon id="Stroke-3" points="29.7399586 24.8266667 34.8648318 24.8266667 34.8648318 0.414453333 29.7399586 0.414453333"></polygon>
                    <polygon id="Stroke-5" points="0.10993041 24.8266667 5.23480365 24.8266667 5.23480365 0.414453333 0.10993041 0.414453333"></polygon>
                    <polygon id="Stroke-6" points="93.2527755 24.8266667 98.3776487 24.8266667 98.3776487 0.414453333 93.2527755 0.414453333"></polygon>
                    <polygon id="Stroke-7" points="63.6227473 24.8266667 68.7476206 24.8266667 68.7476206 0.414453333 63.6227473 0.414453333"></polygon>
                    <polygon id="Stroke-8" points="155.727536 24.8266667 160.852409 24.8266667 160.852409 0.414453333 155.727536 0.414453333"></polygon>
                    <polygon id="Stroke-9" points="126.097508 24.8266667 131.222381 24.8266667 131.222381 0.414453333 126.097508 0.414453333"></polygon>
                    <polygon id="Stroke-10" points="219.239142 24.8266667 224.364015 24.8266667 224.364015 0.414453333 219.239142 0.414453333"></polygon>
                    <polygon id="Stroke-11" points="189.609114 24.8266667 194.733987 24.8266667 194.733987 0.414453333 189.609114 0.414453333"></polygon>
                    <polygon id="Stroke-12" points="279.274409 24.8266667 284.399283 24.8266667 284.399283 0.414453333 279.274409 0.414453333"></polygon>
                    <polygon id="Stroke-13" points="249.644381 24.8266667 254.769254 24.8266667 254.769254 0.414453333 249.644381 0.414453333"></polygon>
                    <polygon id="Stroke-14" points="313.155987 24.8266667 318.28086 24.8266667 318.28086 0.414453333 313.155987 0.414453333"></polygon>
                </g>
                <path d="M89.0139972,115.6416 L89.0394338,115.6416" id="Stroke-16" stroke="#1E130F" stroke-width="2" stroke-linecap="round" stroke-linejoin="round"></path>
                <path d="M99.4031606,115.6416 L281.707414,115.6416" id="Stroke-17" stroke="#1E130F" stroke-width="2" stroke-linecap="round" stroke-linejoin="round" stroke-dasharray="0.043,8.555999999999999"></path>
                <path d="M286.888248,115.6416 L286.913685,115.6416" id="Stroke-18" stroke="#1E130F" stroke-width="2" stroke-linecap="round" stroke-linejoin="round"></path>
                <polyline id="Stroke-19" stroke="#1E130F" stroke-width="1.5" stroke-linecap="round" stroke-linejoin="round" points="164.838865 58.5881973 164.838865 22.5986507 256.319851 22.5986507 256.319851 58.5881973"></polyline>
                <polyline id="Stroke-20" stroke="#1E130F" stroke-width="1.5" stroke-linecap="round" stroke-linejoin="round" points="154.197637 105.919984 154.197637 87.7884107 159.788848 87.7884107 159.788848 105.919984"></polyline>
                <polyline id="Stroke-21" stroke="#1E130F" stroke-width="1.5" stroke-linecap="round" stroke-linejoin="round" points="141.24749 105.919984 141.24749 87.7884107 146.838701 87.7884107 146.838701 105.919984"></polyline>
                <polyline id="Stroke-22" stroke="#1E130F" stroke-width="1.5" stroke-linecap="round" stroke-linejoin="round" points="108.492392 105.919984 108.492392 87.7884107 114.083603 87.7884107 114.083603 105.919984"></polyline>
                <polyline id="Stroke-23" stroke="#1E130F" stroke-width="1.5" stroke-linecap="round" stroke-linejoin="round" points="182.518163 105.919984 182.518163 87.7884107 188.109375 87.7884107 188.109375 105.919984"></polyline>
                <polyline id="Stroke-24" stroke="#1E130F" stroke-width="1.5" stroke-linecap="round" stroke-linejoin="round" points="196.711555 105.919984 196.711555 87.7884107 202.302766 87.7884107 202.302766 105.919984"></polyline>
                <polyline id="Stroke-25" stroke="#1E130F" stroke-width="1.5" stroke-linecap="round" stroke-linejoin="round" points="225.307645 105.919984 225.307645 87.7884107 230.900068 87.7884107 230.900068 105.919984"></polyline>
                <polyline id="Stroke-26" stroke="#1E130F" stroke-width="1.5" stroke-linecap="round" stroke-linejoin="round" points="239.225352 105.919984 239.225352 87.7884107 244.818986 87.7884107 244.818986 105.919984"></polyline>
                <polyline id="Stroke-27" stroke="#1E130F" stroke-width="1.5" stroke-linecap="round" stroke-linejoin="round" points="267.822654 105.919984 267.822654 87.7884107 273.415076 87.7884107 273.415076 105.919984"></polyline>
                <polygon id="Stroke-28" stroke="#1E130F" stroke-width="1.5" stroke-linecap="round" stroke-linejoin="round" points="239.225352 87.78912 273.415803 87.78912 273.415803 59.18576 239.225352 59.18576"></polygon>
                <polygon id="Stroke-29" stroke="#1E130F" stroke-linecap="round" stroke-linejoin="round" points="245.431887 72.9985067 248.542423 72.9985067 248.542423 67.9673067 245.431887 67.9673067"></polygon>
                <polygon id="Stroke-30" stroke="#1E130F" stroke-linecap="round" stroke-linejoin="round" points="245.431887 85.6469333 248.542423 85.6469333 248.542423 80.6157333 245.431887 80.6157333"></polygon>
                <polygon id="Stroke-31" stroke="#1E130F" stroke-linecap="round" stroke-linejoin="round" points="242.320141 79.3237333 245.431887 79.3237333 245.431887 74.2905067 242.320141 74.2905067"></polygon>
                <polygon id="Stroke-32" stroke="#1E130F" stroke-linecap="round" stroke-linejoin="round" points="242.320141 66.6753067 245.431887 66.6753067 245.431887 61.6441067 242.320141 61.6441067"></polygon>
                <polygon id="Stroke-33" stroke="#1E130F" stroke-linecap="round" stroke-linejoin="round" points="251.654169 72.9985067 254.764704 72.9985067 254.764704 67.9673067 251.654169 67.9673067"></polygon>
                <polygon id="Stroke-34" stroke="#1E130F" stroke-linecap="round" stroke-linejoin="round" points="251.654169 85.6469333 254.764704 85.6469333 254.764704 80.6157333 251.654169 80.6157333"></polygon>
                <polygon id="Stroke-35" stroke="#1E130F" stroke-linecap="round" stroke-linejoin="round" points="248.543634 79.3237333 251.654169 79.3237333 251.654169 74.2905067 248.543634 74.2905067"></polygon>
                <polygon id="Stroke-36" stroke="#1E130F" stroke-linecap="round" stroke-linejoin="round" points="248.543634 66.6753067 251.654169 66.6753067 251.654169 61.6441067 248.543634 61.6441067"></polygon>
                <polygon id="Stroke-37" stroke="#1E130F" stroke-linecap="round" stroke-linejoin="round" points="257.876451 72.9985067 260.986986 72.9985067 260.986986 67.9673067 257.876451 67.9673067"></polygon>
                <polygon id="Stroke-38" stroke="#1E130F" stroke-linecap="round" stroke-linejoin="round" points="257.876451 85.6469333 260.986986 85.6469333 260.986986 80.6157333 257.876451 80.6157333"></polygon>
                <polygon id="Stroke-39" stroke="#1E130F" stroke-linecap="round" stroke-linejoin="round" points="254.764704 79.3237333 257.875239 79.3237333 257.875239 74.2905067 254.764704 74.2905067"></polygon>
                <polygon id="Stroke-40" stroke="#1E130F" stroke-linecap="round" stroke-linejoin="round" points="254.764704 66.6753067 257.875239 66.6753067 257.875239 61.6441067 254.764704 61.6441067"></polygon>
                <polygon id="Stroke-41" stroke="#1E130F" stroke-linecap="round" stroke-linejoin="round" points="264.098732 72.9985067 267.208056 72.9985067 267.208056 67.9673067 264.098732 67.9673067"></polygon>
                <polygon id="Stroke-42" stroke="#1E130F" stroke-linecap="round" stroke-linejoin="round" points="264.098732 85.6469333 267.208056 85.6469333 267.208056 80.6157333 264.098732 80.6157333"></polygon>
                <polygon id="Stroke-43" stroke="#1E130F" stroke-linecap="round" stroke-linejoin="round" points="260.986986 79.3237333 264.097521 79.3237333 264.097521 74.2905067 260.986986 74.2905067"></polygon>
                <polygon id="Stroke-44" stroke="#1E130F" stroke-linecap="round" stroke-linejoin="round" points="260.986986 66.6753067 264.097521 66.6753067 264.097521 61.6441067 260.986986 61.6441067"></polygon>
                <polygon id="Stroke-45" stroke="#1E130F" stroke-linecap="round" stroke-linejoin="round" points="267.208056 79.3237333 270.319803 79.3237333 270.319803 74.2905067 267.208056 74.2905067"></polygon>
                <polygon id="Stroke-46" stroke="#1E130F" stroke-linecap="round" stroke-linejoin="round" points="267.208056 66.6753067 270.319803 66.6753067 270.319803 61.6441067 267.208056 61.6441067"></polygon>
                <polygon id="Stroke-47" stroke="#1E130F" stroke-width="1.5" stroke-linecap="round" stroke-linejoin="round" points="196.71107 87.78912 230.901521 87.78912 230.901521 59.18576 196.71107 59.18576"></polygon>
                <polygon id="Stroke-48" stroke="#1E130F" stroke-linecap="round" stroke-linejoin="round" points="202.918817 72.9985067 206.029352 72.9985067 206.029352 67.9673067 202.918817 67.9673067"></polygon>
                <polygon id="Stroke-49" stroke="#1E130F" stroke-linecap="round" stroke-linejoin="round" points="202.918817 85.6469333 206.029352 85.6469333 206.029352 80.6157333 202.918817 80.6157333"></polygon>
                <polygon id="Stroke-50" stroke="#1E130F" stroke-linecap="round" stroke-linejoin="round" points="199.80707 79.3237333 202.917606 79.3237333 202.917606 74.2905067 199.80707 74.2905067"></polygon>
                <polygon id="Stroke-51" stroke="#1E130F" stroke-linecap="round" stroke-linejoin="round" points="199.80707 66.6753067 202.917606 66.6753067 202.917606 61.6441067 199.80707 61.6441067"></polygon>
                <polygon id="Stroke-52" stroke="#1E130F" stroke-linecap="round" stroke-linejoin="round" points="209.139887 72.9985067 212.250423 72.9985067 212.250423 67.9673067 209.139887 67.9673067"></polygon>
                <polygon id="Stroke-53" stroke="#1E130F" stroke-linecap="round" stroke-linejoin="round" points="209.139887 85.6469333 212.250423 85.6469333 212.250423 80.6157333 209.139887 80.6157333"></polygon>
                <polygon id="Stroke-54" stroke="#1E130F" stroke-linecap="round" stroke-linejoin="round" points="206.029352 79.3237333 209.139887 79.3237333 209.139887 74.2905067 206.029352 74.2905067"></polygon>
                <polygon id="Stroke-55" stroke="#1E130F" stroke-linecap="round" stroke-linejoin="round" points="206.029352 66.6753067 209.139887 66.6753067 209.139887 61.6441067 206.029352 61.6441067"></polygon>
                <polygon id="Stroke-56" stroke="#1E130F" stroke-linecap="round" stroke-linejoin="round" points="215.362169 72.9985067 218.472704 72.9985067 218.472704 67.9673067 215.362169 67.9673067"></polygon>
                <polygon id="Stroke-57" stroke="#1E130F" stroke-linecap="round" stroke-linejoin="round" points="215.362169 85.6469333 218.472704 85.6469333 218.472704 80.6157333 215.362169 80.6157333"></polygon>
                <polygon id="Stroke-58" stroke="#1E130F" stroke-linecap="round" stroke-linejoin="round" points="212.251634 79.3237333 215.362169 79.3237333 215.362169 74.2905067 212.251634 74.2905067"></polygon>
                <polygon id="Stroke-59" stroke="#1E130F" stroke-linecap="round" stroke-linejoin="round" points="212.251634 66.6753067 215.362169 66.6753067 215.362169 61.6441067 212.251634 61.6441067"></polygon>
                <polygon id="Stroke-60" stroke="#1E130F" stroke-linecap="round" stroke-linejoin="round" points="221.584451 72.9985067 224.694986 72.9985067 224.694986 67.9673067 221.584451 67.9673067"></polygon>
                <polygon id="Stroke-61" stroke="#1E130F" stroke-linecap="round" stroke-linejoin="round" points="221.584451 85.6469333 224.694986 85.6469333 224.694986 80.6157333 221.584451 80.6157333"></polygon>
                <polygon id="Stroke-62" stroke="#1E130F" stroke-linecap="round" stroke-linejoin="round" points="218.473915 79.3237333 221.584451 79.3237333 221.584451 74.2905067 218.473915 74.2905067"></polygon>
                <polygon id="Stroke-63" stroke="#1E130F" stroke-linecap="round" stroke-linejoin="round" points="218.473915 66.6753067 221.584451 66.6753067 221.584451 61.6441067 218.473915 61.6441067"></polygon>
                <polygon id="Stroke-64" stroke="#1E130F" stroke-linecap="round" stroke-linejoin="round" points="224.694986 79.3237333 227.805521 79.3237333 227.805521 74.2905067 224.694986 74.2905067"></polygon>
                <polygon id="Stroke-65" stroke="#1E130F" stroke-linecap="round" stroke-linejoin="round" points="224.694986 66.6753067 227.805521 66.6753067 227.805521 61.6441067 224.694986 61.6441067"></polygon>
                <polygon id="Stroke-66" stroke="#1E130F" stroke-width="1.5" stroke-linecap="round" stroke-linejoin="round" points="153.919408 87.78912 188.109859 87.78912 188.109859 59.18576 153.919408 59.18576"></polygon>
                <polygon id="Stroke-67" stroke="#1E130F" stroke-linecap="round" stroke-linejoin="round" points="160.127155 72.9985067 163.23769 72.9985067 163.23769 67.9673067 160.127155 67.9673067"></polygon>
                <polygon id="Stroke-68" stroke="#1E130F" stroke-linecap="round" stroke-linejoin="round" points="160.127155 85.6469333 163.23769 85.6469333 163.23769 80.6157333 160.127155 80.6157333"></polygon>
                <polygon id="Stroke-69" stroke="#1E130F" stroke-linecap="round" stroke-linejoin="round" points="157.015408 79.3237333 160.125944 79.3237333 160.125944 74.2905067 157.015408 74.2905067"></polygon>
                <polygon id="Stroke-70" stroke="#1E130F" stroke-linecap="round" stroke-linejoin="round" points="157.015408 66.6753067 160.125944 66.6753067 160.125944 61.6441067 157.015408 61.6441067"></polygon>
                <polygon id="Stroke-71" stroke="#1E130F" stroke-linecap="round" stroke-linejoin="round" points="166.348225 72.9985067 169.458761 72.9985067 169.458761 67.9673067 166.348225 67.9673067"></polygon>
                <polygon id="Stroke-72" stroke="#1E130F" stroke-linecap="round" stroke-linejoin="round" points="166.348225 85.6469333 169.458761 85.6469333 169.458761 80.6157333 166.348225 80.6157333"></polygon>
                <polygon id="Stroke-73" stroke="#1E130F" stroke-linecap="round" stroke-linejoin="round" points="163.23769 79.3237333 166.348225 79.3237333 166.348225 74.2905067 163.23769 74.2905067"></polygon>
                <polygon id="Stroke-74" stroke="#1E130F" stroke-linecap="round" stroke-linejoin="round" points="163.23769 66.6753067 166.348225 66.6753067 166.348225 61.6441067 163.23769 61.6441067"></polygon>
                <polygon id="Stroke-75" stroke="#1E130F" stroke-linecap="round" stroke-linejoin="round" points="172.570507 72.9985067 175.681042 72.9985067 175.681042 67.9673067 172.570507 67.9673067"></polygon>
                <polygon id="Stroke-76" stroke="#1E130F" stroke-linecap="round" stroke-linejoin="round" points="172.570507 85.6469333 175.681042 85.6469333 175.681042 80.6157333 172.570507 80.6157333"></polygon>
                <polygon id="Stroke-77" stroke="#1E130F" stroke-linecap="round" stroke-linejoin="round" points="169.459972 79.3237333 172.570507 79.3237333 172.570507 74.2905067 169.459972 74.2905067"></polygon>
                <polygon id="Stroke-78" stroke="#1E130F" stroke-linecap="round" stroke-linejoin="round" points="169.459972 66.6753067 172.570507 66.6753067 172.570507 61.6441067 169.459972 61.6441067"></polygon>
                <polygon id="Stroke-79" stroke="#1E130F" stroke-linecap="round" stroke-linejoin="round" points="178.792789 72.9985067 181.903324 72.9985067 181.903324 67.9673067 178.792789 67.9673067"></polygon>
                <polygon id="Stroke-80" stroke="#1E130F" stroke-linecap="round" stroke-linejoin="round" points="178.792789 85.6469333 181.903324 85.6469333 181.903324 80.6157333 178.792789 80.6157333"></polygon>
                <polygon id="Stroke-81" stroke="#1E130F" stroke-linecap="round" stroke-linejoin="round" points="175.681042 79.3237333 178.791577 79.3237333 178.791577 74.2905067 175.681042 74.2905067"></polygon>
                <polygon id="Stroke-82" stroke="#1E130F" stroke-linecap="round" stroke-linejoin="round" points="175.681042 66.6753067 178.791577 66.6753067 178.791577 61.6441067 175.681042 61.6441067"></polygon>
                <polygon id="Stroke-83" stroke="#1E130F" stroke-linecap="round" stroke-linejoin="round" points="181.903324 79.3237333 185.013859 79.3237333 185.013859 74.2905067 181.903324 74.2905067"></polygon>
                <polygon id="Stroke-84" stroke="#1E130F" stroke-linecap="round" stroke-linejoin="round" points="181.903324 66.6753067 185.013859 66.6753067 185.013859 61.6441067 181.903324 61.6441067"></polygon>
                <polygon id="Stroke-85" stroke="#1E130F" stroke-width="1.5" stroke-linecap="round" stroke-linejoin="round" points="108.493239 87.78912 146.839549 87.78912 146.839549 53.8758933 108.493239 53.8758933"></polygon>
                <polygon id="Stroke-86" stroke="#1E130F" stroke-linecap="round" stroke-linejoin="round" points="118.385662 72.9985067 121.496197 72.9985067 121.496197 67.9673067 118.385662 67.9673067"></polygon>
                <polygon id="Stroke-87" stroke="#1E130F" stroke-linecap="round" stroke-linejoin="round" points="118.385662 85.6469333 121.496197 85.6469333 121.496197 80.6157333 118.385662 80.6157333"></polygon>
                <polygon id="Stroke-88" stroke="#1E130F" stroke-linecap="round" stroke-linejoin="round" points="112.058 72.9985067 115.168535 72.9985067 115.168535 67.9673067 112.058 67.9673067"></polygon>
                <polygon id="Stroke-89" stroke="#1E130F" stroke-linecap="round" stroke-linejoin="round" points="112.058 85.6469333 115.168535 85.6469333 115.168535 80.6157333 112.058 80.6157333"></polygon>
                <polygon id="Stroke-90" stroke="#1E130F" stroke-linecap="round" stroke-linejoin="round" points="115.273915 79.3237333 118.384451 79.3237333 118.384451 74.2905067 115.273915 74.2905067"></polygon>
                <polygon id="Stroke-91" stroke="#1E130F" stroke-linecap="round" stroke-linejoin="round" points="115.273915 66.6753067 118.384451 66.6753067 118.384451 61.6441067 115.273915 61.6441067"></polygon>
                <polygon id="Stroke-92" stroke="#1E130F" stroke-linecap="round" stroke-linejoin="round" points="124.606732 72.9985067 127.717268 72.9985067 127.717268 67.9673067 124.606732 67.9673067"></polygon>
                <polygon id="Stroke-93" stroke="#1E130F" stroke-linecap="round" stroke-linejoin="round" points="124.606732 85.6469333 127.717268 85.6469333 127.717268 80.6157333 124.606732 80.6157333"></polygon>
                <polygon id="Stroke-94" stroke="#1E130F" stroke-linecap="round" stroke-linejoin="round" points="121.496197 79.3237333 124.606732 79.3237333 124.606732 74.2905067 121.496197 74.2905067"></polygon>
                <polygon id="Stroke-95" stroke="#1E130F" stroke-linecap="round" stroke-linejoin="round" points="121.496197 66.6753067 124.606732 66.6753067 124.606732 61.6441067 121.496197 61.6441067"></polygon>
                <polygon id="Stroke-96" stroke="#1E130F" stroke-linecap="round" stroke-linejoin="round" points="130.829014 72.9985067 133.939549 72.9985067 133.939549 67.9673067 130.829014 67.9673067"></polygon>
                <polygon id="Stroke-97" stroke="#1E130F" stroke-linecap="round" stroke-linejoin="round" points="130.829014 85.6469333 133.939549 85.6469333 133.939549 80.6157333 130.829014 80.6157333"></polygon>
                <polygon id="Stroke-98" stroke="#1E130F" stroke-linecap="round" stroke-linejoin="round" points="127.718479 79.3237333 130.829014 79.3237333 130.829014 74.2905067 127.718479 74.2905067"></polygon>
                <polygon id="Stroke-99" stroke="#1E130F" stroke-linecap="round" stroke-linejoin="round" points="127.718479 66.6753067 130.829014 66.6753067 130.829014 61.6441067 127.718479 61.6441067"></polygon>
                <polygon id="Stroke-100" stroke="#1E130F" stroke-linecap="round" stroke-linejoin="round" points="137.051296 72.9985067 140.161831 72.9985067 140.161831 67.9673067 137.051296 67.9673067"></polygon>
                <polygon id="Stroke-101" stroke="#1E130F" stroke-linecap="round" stroke-linejoin="round" points="137.051296 85.6469333 140.161831 85.6469333 140.161831 80.6157333 137.051296 80.6157333"></polygon>
                <polygon id="Stroke-102" stroke="#1E130F" stroke-linecap="round" stroke-linejoin="round" points="133.939549 79.3237333 137.050085 79.3237333 137.050085 74.2905067 133.939549 74.2905067"></polygon>
                <polygon id="Stroke-103" stroke="#1E130F" stroke-linecap="round" stroke-linejoin="round" points="133.939549 66.6753067 137.050085 66.6753067 137.050085 61.6441067 133.939549 61.6441067"></polygon>
                <polygon id="Stroke-104" stroke="#1E130F" stroke-linecap="round" stroke-linejoin="round" points="140.161831 79.3237333 143.272366 79.3237333 143.272366 74.2905067 140.161831 74.2905067"></polygon>
                <polygon id="Stroke-105" stroke="#1E130F" stroke-linecap="round" stroke-linejoin="round" points="140.161831 66.6753067 143.272366 66.6753067 143.272366 61.6441067 140.161831 61.6441067"></polygon>
                <polygon id="Stroke-106" stroke="#1E130F" stroke-linecap="round" stroke-linejoin="round" points="168.214789 30.2804267 253.209437 30.2804267 253.209437 25.78224 168.214789 25.78224"></polygon>
                <polygon id="Stroke-107" stroke="#1E130F" stroke-linecap="round" stroke-linejoin="round" points="111.422085 59.59008 143.272366 59.59008 143.272366 56.1102933 111.422085 56.1102933"></polygon>
                <polyline id="Stroke-108" stroke="#1E130F" stroke-width="1.5" stroke-linecap="round" stroke-linejoin="round" points="259.827561 106.098128 273.415561 106.098128 277.450293 110.614555 283.842152 110.614555"></polyline>
                <path d="M180.055414,106.098128 L202.302766,106.098128" id="Stroke-109" stroke="#1E130F" stroke-width="1.5" stroke-linecap="round" stroke-linejoin="round"></path>
                <path d="M218.472946,106.098128 L225.30813,106.098128" id="Stroke-110" stroke="#1E130F" stroke-width="1.5" stroke-linecap="round" stroke-linejoin="round"></path>
                <path d="M137.986273,106.098128 L163.212132,106.098128" id="Stroke-111" stroke="#1E130F" stroke-width="1.5" stroke-linecap="round" stroke-linejoin="round"></path>
                <path d="M109.966262,110.418576 L145.365558,110.418576" id="Stroke-112" stroke="#1E130F" stroke-width="1.5" stroke-linecap="round" stroke-linejoin="round"></path>
                <path d="M157.397321,110.418576 L185.443011,110.418576" id="Stroke-113" stroke="#1E130F" stroke-width="1.5" stroke-linecap="round" stroke-linejoin="round"></path>
                <path d="M198.031594,110.418576 L226.077285,110.418576" id="Stroke-114" stroke="#1E130F" stroke-width="1.5" stroke-linecap="round" stroke-linejoin="round"></path>
                <polyline id="Stroke-115" stroke="#1E130F" stroke-width="1.5" stroke-linecap="round" stroke-linejoin="round" points="247.557541 106.098128 237.880724 106.098128 236.218865 110.614555"></polyline>
                <polyline id="Stroke-116" stroke="#1E130F" stroke-width="1.5" stroke-linecap="round" stroke-linejoin="round" points="125.717465 106.098128 108.492028 106.098128 104.563887 110.222395 98.0654366 110.222395"></polyline>
                <path d="M253.209315,35.8317707 L168.214668,35.8317707" id="Stroke-117" stroke="#1E130F" stroke-width="2.5" stroke-linecap="round" stroke-linejoin="round" stroke-dasharray="0.042,8.467000000000001"></path>
                <path d="M253.209315,41.60696 L168.214668,41.60696" id="Stroke-118" stroke="#1E130F" stroke-width="2.5" stroke-linecap="round" stroke-linejoin="round" stroke-dasharray="0.042,8.467000000000001"></path>
                <path d="M253.209315,47.384176 L168.214668,47.384176" id="Stroke-119" stroke="#1E130F" stroke-width="2.5" stroke-linecap="round" stroke-linejoin="round" stroke-dasharray="0.042,8.467000000000001"></path>
                <path d="M253.209315,53.1593653 L168.214668,53.1593653" id="Stroke-120" stroke="#1E130F" stroke-width="2.5" stroke-linecap="round" stroke-linejoin="round" stroke-dasharray="0.042,8.467000000000001"></path>
                <path d="M244.819228,96.8533867 L267.207087,96.8533867" id="Stroke-121" stroke="#1E130F" stroke-linecap="round" stroke-linejoin="round"></path>
                <path d="M202.610549,96.8533867 L225.000831,96.8533867" id="Stroke-122" stroke="#1E130F" stroke-linecap="round" stroke-linejoin="round"></path>
                <path d="M159.819856,96.8533867 L182.208927,96.8533867" id="Stroke-123" stroke="#1E130F" stroke-linecap="round" stroke-linejoin="round"></path>
                <path d="M114.522808,96.8533867 L140.16171,96.8533867" id="Stroke-124" stroke="#1E130F" stroke-linecap="round" stroke-linejoin="round"></path>
                <path d="M120.661876,96.8533867 L120.661876,104.340907" id="Stroke-125" stroke="#1E130F" stroke-linecap="round" stroke-linejoin="round"></path>
                <path d="M127.666879,96.8533867 L127.666879,104.340907" id="Stroke-126" stroke="#1E130F" stroke-linecap="round" stroke-linejoin="round"></path>
                <path d="M134.67067,96.9919093 L134.67067,104.477403" id="Stroke-127" stroke="#1E130F" stroke-linecap="round" stroke-linejoin="round"></path>
                <path d="M165.922344,96.8533867 L165.922344,104.340907" id="Stroke-128" stroke="#1E130F" stroke-linecap="round" stroke-linejoin="round"></path>
                <path d="M171.015845,96.8533867 L171.015845,104.340907" id="Stroke-129" stroke="#1E130F" stroke-linecap="round" stroke-linejoin="round"></path>
                <path d="M176.108135,96.9919093 L176.108135,104.477403" id="Stroke-130" stroke="#1E130F" stroke-linecap="round" stroke-linejoin="round"></path>
                <path d="M208.714127,96.8533867 L208.714127,104.340907" id="Stroke-131" stroke="#1E130F" stroke-linecap="round" stroke-linejoin="round"></path>
                <path d="M213.807628,96.8533867 L213.807628,104.340907" id="Stroke-132" stroke="#1E130F" stroke-linecap="round" stroke-linejoin="round"></path>
                <path d="M218.899918,96.9919093 L218.899918,104.477403" id="Stroke-133" stroke="#1E130F" stroke-linecap="round" stroke-linejoin="round"></path>
                <path d="M251.226834,96.8533867 L251.226834,104.340907" id="Stroke-134" stroke="#1E130F" stroke-linecap="round" stroke-linejoin="round"></path>
                <path d="M256.320335,96.8533867 L256.320335,104.340907" id="Stroke-135" stroke="#1E130F" stroke-linecap="round" stroke-linejoin="round"></path>
                <path d="M261.412625,96.9919093 L261.412625,104.477403" id="Stroke-136" stroke="#1E130F" stroke-linecap="round" stroke-linejoin="round"></path>
                <path d="M188.109617,85.6473387 L196.712039,85.6473387" id="Stroke-137" stroke="#1E130F" stroke-width="1.5" stroke-linecap="round" stroke-linejoin="round"></path>
                <path d="M147.278997,85.6473387 L153.919166,85.6473387" id="Stroke-138" stroke="#1E130F" stroke-width="1.5" stroke-linecap="round" stroke-linejoin="round"></path>
                <path d="M230.9014,85.6473387 L239.225231,85.6473387" id="Stroke-139" stroke="#1E130F" stroke-width="1.5" stroke-linecap="round" stroke-linejoin="round"></path>
                <path d="M173.012499,16.7268907 L248.145006,16.7268907" id="Stroke-140" stroke="#1E130F" stroke-width="2" stroke-linecap="round" stroke-linejoin="round" stroke-dasharray="0.042,8.467000000000001"></path>
                <path d="M112.994431,48.8843147 L113.019868,48.8843147" id="Stroke-141" stroke="#1E130F" stroke-width="2" stroke-linecap="round" stroke-linejoin="round"></path>
                <path d="M122.752039,48.8843147 L137.445927,48.8843147" id="Stroke-142" stroke="#1E130F" stroke-width="2" stroke-linecap="round" stroke-linejoin="round" stroke-dasharray="0.04,8.034000000000001"></path>
                <path d="M142.309772,48.8843147 L142.33642,48.8843147" id="Stroke-143" stroke="#1E130F" stroke-width="2" stroke-linecap="round" stroke-linejoin="round"></path>
                <path d="M313.410769,81.0215733 L313.410769,81.0002933" id="Stroke-144" stroke="#1E130F" stroke-width="2" stroke-linecap="round" stroke-linejoin="round"></path>
                <path d="M313.410769,72.5922613 L313.410769,68.347408" id="Stroke-145" stroke="#1E130F" stroke-width="2" stroke-linecap="round" stroke-linejoin="round" stroke-dasharray="0.041,8.297000000000001"></path>
                <path d="M313.410769,64.1431893 L313.410769,64.1219093" id="Stroke-146" stroke="#1E130F" stroke-width="2" stroke-linecap="round" stroke-linejoin="round"></path>
                <path d="M313.485262,87.0936693 L313.485262,116.880603" id="Stroke-147" stroke="#1E130F" stroke-width="1.5" stroke-linecap="round" stroke-linejoin="round"></path>
                <g id="Group-322" transform="translate(0.000000, 0.439787)">
                    <path d="M317.526051,19.8926453 C317.539375,27.096432 310.570952,32.945392 301.962473,32.957552 C293.352783,32.9686987 286.361346,27.1400053 286.349234,19.9382453 C286.333487,12.7364853 293.300699,6.88752533 301.909177,6.87333867 C310.518868,6.862192 317.510304,12.692912 317.526051,19.8926453 Z" id="Stroke-148" stroke="#1E130F" stroke-width="1.5" stroke-linecap="round" stroke-linejoin="round"></path>
                    <path d="M301.962837,32.9154987 L302.01371,116.440512" id="Stroke-150" stroke="#1E130F" stroke-width="1.5" stroke-linecap="round" stroke-linejoin="round"></path>
                    <path d="M301.917899,10.5014773 L301.962715,32.956944" id="Stroke-152" stroke="#1E130F" stroke-linecap="round" stroke-linejoin="round"></path>
                    <path d="M281.76398,17.86 L281.76398,17.83872" id="Stroke-154" stroke="#1E130F" stroke-width="2" stroke-linecap="round" stroke-linejoin="round"></path>
                    <path d="M284.520099,9.63264533 C288.015817,4.82944533 294.48762,1.59893867 301.903,1.587792 C311.205535,1.575632 319.048493,6.63520533 321.394718,13.5268853" id="Stroke-156" stroke="#1E130F" stroke-width="2" stroke-linecap="round" stroke-linejoin="round" stroke-dasharray="0.043,8.513"></path>
                    <path d="M322.11082,17.7808587 L322.11082,17.8021387" id="Stroke-158" stroke="#1E130F" stroke-width="2" stroke-linecap="round" stroke-linejoin="round"></path>
                    <path d="M302.01371,25.6084533 L308.370442,20.94712" id="Stroke-160" stroke="#1E130F" stroke-linecap="round" stroke-linejoin="round"></path>
                    <path d="M301.917899,18.6734027 L296.344856,13.357456" id="Stroke-162" stroke="#1E130F" stroke-linecap="round" stroke-linejoin="round"></path>
                    <path d="M326.517048,58.516048 L326.517048,90.1239413" id="Stroke-164" stroke="#1E130F" stroke-width="1.5" stroke-linecap="round" stroke-linejoin="round"></path>
                    <polygon id="Stroke-166" stroke="#1E130F" stroke-width="1.5" stroke-linecap="round" stroke-linejoin="round" points="331.553741 37.6061173 321.394839 37.6061173 312.515037 52.4180107 317.065769 58.5496907 335.985769 58.5496907 340.53529 52.4180107"></polygon>
                    <path d="M340.98249,45.91464 L340.971589,45.8943733" id="Stroke-168" stroke="#1E130F" stroke-width="2" stroke-linecap="round" stroke-linejoin="round"></path>
                    <path d="M337.614803,39.7149653 L335.920239,36.5938987" id="Stroke-170" stroke="#1E130F" stroke-width="2" stroke-linecap="round" stroke-linejoin="round" stroke-dasharray="0.033,6.699"></path>
                    <polyline id="Stroke-172" stroke="#1E130F" stroke-width="2" stroke-linecap="round" stroke-linejoin="round" points="334.241301 33.5033333 334.2304 33.4830667 334.204963 33.4830667"></polyline>
                    <path d="M326.403552,33.4835733 L322.46451,33.4835733" id="Stroke-174" stroke="#1E130F" stroke-width="2" stroke-linecap="round" stroke-linejoin="round" stroke-dasharray="0.032,6.44"></path>
                    <polyline id="Stroke-176" stroke="#1E130F" stroke-width="2" stroke-linecap="round" stroke-linejoin="round" points="318.564592 33.4835733 318.539155 33.4835733 318.527042 33.5028267"></polyline>
                    <path d="M314.595994,39.683248 L312.610727,42.805328" id="Stroke-178" stroke="#1E130F" stroke-width="2" stroke-linecap="round" stroke-linejoin="round" stroke-dasharray="0.035,6.909"></path>
                    <path d="M310.645203,45.8958933 L310.63309,45.9151467" id="Stroke-180" stroke="#1E130F" stroke-width="2" stroke-linecap="round" stroke-linejoin="round"></path>
                    <path d="M326.689775,42.7143307 L326.717634,58.5517173" id="Stroke-182" stroke="#1E130F" stroke-linecap="round" stroke-linejoin="round"></path>
                    <path d="M326.698011,54.7912373 L332.342518,50.6507573" id="Stroke-184" stroke="#1E130F" stroke-linecap="round" stroke-linejoin="round"></path>
                    <path d="M326.611648,49.279312 L323.283085,45.9150453" id="Stroke-186" stroke="#1E130F" stroke-linecap="round" stroke-linejoin="round"></path>
                    <path d="M130.463211,29.8404373 C130.463211,35.961984 128.577268,40.9252907 126.250423,40.9252907 C123.924789,40.9252907 122.036423,35.961984 122.036423,29.8404373 C122.036423,23.716864 123.924789,18.755584 126.250423,18.755584 C128.577268,18.755584 130.463211,23.716864 130.463211,29.8404373 Z" id="Stroke-188" stroke="#1E130F" stroke-linecap="round" stroke-linejoin="round"></path>
                    <path d="M128.376682,26.7984107 C134.694654,29.8900907 138.860203,33.757984 137.687696,35.4380907 C136.511555,37.1181973 130.43947,35.9721173 124.12271,32.882464 C117.807161,29.790784 113.637977,25.9228907 114.814118,24.242784 C115.989048,22.5626773 122.061132,23.707744 128.376682,26.7984107 Z" id="Stroke-190" stroke="#1E130F" stroke-linecap="round" stroke-linejoin="round"></path>
                    <path d="M124.121862,26.7984107 C117.806313,29.8900907 113.638341,33.757984 114.81327,35.4380907 C115.9882,37.1181973 122.061496,35.9721173 128.377045,32.882464 C134.693806,29.790784 138.861777,25.9228907 137.686848,24.242784 C136.511918,22.5626773 130.438623,23.707744 124.121862,26.7984107 Z" id="Stroke-192" stroke="#1E130F" stroke-linecap="round" stroke-linejoin="round"></path>
                    <path d="M121.427155,21.1557653 C121.427155,21.610752 120.986254,21.978592 120.442394,21.978592 C119.897324,21.978592 119.456423,21.610752 119.456423,21.1557653 C119.456423,20.701792 119.897324,20.3319253 120.442394,20.3319253 C120.986254,20.3319253 121.427155,20.701792 121.427155,21.1557653" id="Fill-194" fill="#1E130F"></path>
                    <path d="M133.245372,21.1557653 C133.245372,21.610752 132.805682,21.978592 132.261823,21.978592 C131.716752,21.978592 131.275851,21.610752 131.275851,21.1557653 C131.275851,20.701792 131.716752,20.3319253 132.261823,20.3319253 C132.805682,20.3319253 133.245372,20.701792 133.245372,21.1557653" id="Fill-196" fill="#1E130F"></path>
                    <path d="M138.835614,29.8404373 C138.835614,30.2933973 138.394713,30.6642773 137.850854,30.6642773 C137.305783,30.6642773 136.864882,30.2933973 136.864882,29.8404373 C136.864882,29.3854507 137.305783,29.0165973 137.850854,29.0165973 C138.394713,29.0165973 138.835614,29.3854507 138.835614,29.8404373" id="Fill-198" fill="#1E130F"></path>
                    <path d="M132.963873,38.4932907 C132.963873,38.9482773 132.524183,39.3171307 131.980324,39.3171307 C131.435254,39.3171307 130.994352,38.9482773 130.994352,38.4932907 C130.994352,38.038304 131.435254,37.6694507 131.980324,37.6694507 C132.524183,37.6694507 132.963873,38.038304 132.963873,38.4932907" id="Fill-200" fill="#1E130F"></path>
                    <path d="M121.685034,38.4932907 C121.685034,38.9482773 121.244132,39.3171307 120.700273,39.3171307 C120.155203,39.3171307 119.714301,38.9482773 119.714301,38.4932907 C119.714301,38.038304 120.155203,37.6694507 120.700273,37.6694507 C121.244132,37.6694507 121.685034,38.038304 121.685034,38.4932907" id="Fill-202" fill="#1E130F"></path>
                    <path d="M115.393346,29.8404373 C115.393346,30.2933973 114.951234,30.6642773 114.407375,30.6642773 C113.863515,30.6642773 113.423825,30.2933973 113.423825,29.8404373 C113.423825,29.3854507 113.863515,29.0165973 114.407375,29.0165973 C114.951234,29.0165973 115.393346,29.3854507 115.393346,29.8404373" id="Fill-204" fill="#1E130F"></path>
                    <path d="M423.843127,104.346075 L423.81769,104.346075" id="Stroke-206" stroke="#1E130F" stroke-width="2.5" stroke-linecap="round" stroke-linejoin="round"></path>
                    <path d="M413.160594,104.346075 L343.523608,104.346075" id="Stroke-208" stroke="#1E130F" stroke-width="2.5" stroke-linecap="round" stroke-linejoin="round" stroke-dasharray="0.044,8.798"></path>
                    <path d="M338.194394,104.346075 L338.168958,104.346075" id="Stroke-210" stroke="#1E130F" stroke-width="2.5" stroke-linecap="round" stroke-linejoin="round"></path>
                    <path d="M329.563023,100.762827 C331.927417,100.762827 333.846065,102.367947 333.846065,104.345973 C333.846065,106.325013 331.927417,107.92912 329.563023,107.92912 C327.198628,107.92912 325.27998,106.325013 325.27998,104.345973 C325.27998,102.367947 327.198628,100.762827 329.563023,100.762827" id="Fill-212" fill="#F4F5F4"></path>
                    <path d="M329.563023,100.762827 C331.927417,100.762827 333.846065,102.367947 333.846065,104.345973 C333.846065,106.325013 331.927417,107.92912 329.563023,107.92912 C327.198628,107.92912 325.27998,106.325013 325.27998,104.345973 C325.27998,102.367947 327.198628,100.762827 329.563023,100.762827 Z" id="Stroke-214" stroke="#1E130F"></path>
                    <path d="M424.254715,100.762827 C426.61911,100.762827 428.537758,102.367947 428.537758,104.345973 C428.537758,106.325013 426.61911,107.92912 424.254715,107.92912 C421.890321,107.92912 419.971673,106.325013 419.971673,104.345973 C419.971673,102.367947 421.890321,100.762827 424.254715,100.762827" id="Fill-216" fill="#F4F5F4"></path>
                    <path d="M424.254715,100.762827 C426.61911,100.762827 428.537758,102.367947 428.537758,104.345973 C428.537758,106.325013 426.61911,107.92912 424.254715,107.92912 C421.890321,107.92912 419.971673,106.325013 419.971673,104.345973 C419.971673,102.367947 421.890321,100.762827 424.254715,100.762827 Z" id="Stroke-218" stroke="#1E130F"></path>
                    <path d="M52.6439915,111.210901 L52.6439915,115.145675" id="Stroke-220" stroke="#1E130F" stroke-width="1.5" stroke-linecap="round" stroke-linejoin="round"></path>
                    <path d="M52.5694986,108.552827 L52.5694986,108.531547" id="Stroke-222" stroke="#1E130F" stroke-width="2" stroke-linecap="round" stroke-linejoin="round"></path>
                    <path d="M52.5694986,102.090901 L52.5694986,102.069621" id="Stroke-224" stroke="#1E130F" stroke-width="2" stroke-linecap="round" stroke-linejoin="round"></path>
                    <path d="M24.065707,114.399253 L24.065707,115.145067" id="Stroke-226" stroke="#1E130F" stroke-width="1.5" stroke-linecap="round" stroke-linejoin="round"></path>
                    <path d="M23.991093,110.244992 L23.991093,110.223712" id="Stroke-228" stroke="#1E130F" stroke-width="2" stroke-linecap="round" stroke-linejoin="round"></path>
                    <path d="M23.991093,104.044304 L23.991093,104.023024" id="Stroke-230" stroke="#1E130F" stroke-width="2" stroke-linecap="round" stroke-linejoin="round"></path>
                    <mask id="mask-10" fill="white">
                        <use xlink:href="#path-9"></use>
                    </mask>
                    <g id="Clip-233"></g>
                    <polygon id="Stroke-232" stroke="#1E130F" stroke-width="1.5" stroke-linecap="round" stroke-linejoin="round" mask="url(#mask-10)" points="59.1098592 110.32768 80.9235775 110.32768 80.9235775 92.0897067 59.1098592 92.0897067"></polygon>
                    <path d="M70.0678338,110.328187 L70.0678338,115.145573" id="Stroke-234" stroke="#1E130F" stroke-width="1.5" stroke-linecap="round" stroke-linejoin="round" mask="url(#mask-10)"></path>
                    <path d="M70.0678338,94.9104213 L70.0678338,110.359701" id="Stroke-235" stroke="#1E130F" stroke-linecap="round" stroke-linejoin="round" mask="url(#mask-10)"></path>
                    <path d="M60.4628451,87.6667093 L60.4882817,87.6667093" id="Stroke-236" stroke="#1E130F" stroke-width="2" stroke-linecap="round" stroke-linejoin="round" mask="url(#mask-10)"></path>
                    <path d="M69.9921296,87.6667093 L74.7923831,87.6667093" id="Stroke-237" stroke="#1E130F" stroke-width="2" stroke-linecap="round" stroke-linejoin="round" stroke-dasharray="0.039,7.846" mask="url(#mask-10)"></path>
                    <path d="M79.5438225,87.6667093 L79.5692592,87.6667093" id="Stroke-238" stroke="#1E130F" stroke-width="2" stroke-linecap="round" stroke-linejoin="round" mask="url(#mask-10)"></path>
                    <path d="M70.0678338,106.759733 L75.6941718,102.635467" id="Stroke-239" stroke="#1E130F" stroke-linecap="round" stroke-linejoin="round" mask="url(#mask-10)"></path>
                    <path d="M70.0157493,101.210112 L66.3056366,97.6664853" id="Stroke-240" stroke="#1E130F" stroke-linecap="round" stroke-linejoin="round" mask="url(#mask-10)"></path>
                    <polygon id="Stroke-241" stroke="#1E130F" stroke-width="1.5" stroke-linecap="round" stroke-linejoin="round" mask="url(#mask-10)" points="33.5511437 91.1351467 28.5825239 77.6790933 41.5927493 69.3646933 54.5981296 77.6790933 49.6295099 91.1351467"></polygon>
                    <path d="M41.5923859,91.1035307 L41.5923859,116.141984" id="Stroke-242" stroke="#1E130F" stroke-width="1.5" stroke-linecap="round" stroke-linejoin="round" mask="url(#mask-10)"></path>
                    <path d="M41.5923859,77.1207467 L41.5923859,91.1392" id="Stroke-243" stroke="#1E130F" stroke-linecap="round" stroke-linejoin="round" mask="url(#mask-10)"></path>
                    <path d="M25.7335014,73.0911253 L25.754093,73.077952" id="Stroke-244" stroke="#1E130F" stroke-width="2" stroke-linecap="round" stroke-linejoin="round" mask="url(#mask-10)"></path>
                    <path d="M33.6434423,68.0343893 L37.6273014,65.4868693" id="Stroke-245" stroke="#1E130F" stroke-width="2" stroke-linecap="round" stroke-linejoin="round" stroke-dasharray="0.041,8.198" mask="url(#mask-10)"></path>
                    <polyline id="Stroke-246" stroke="#1E130F" stroke-width="2" stroke-linecap="round" stroke-linejoin="round" mask="url(#mask-10)" points="41.5722789 62.9646827 41.5928704 62.950496 41.6122507 62.9646827"></polyline>
                    <path d="M49.5011155,68.0086507 L53.4849746,70.5561707" id="Stroke-247" stroke="#1E130F" stroke-width="2" stroke-linecap="round" stroke-linejoin="round" stroke-dasharray="0.041,8.196999999999999" mask="url(#mask-10)"></path>
                    <path d="M57.4299521,73.078256 L57.4505437,73.0914293" id="Stroke-248" stroke="#1E130F" stroke-width="2" stroke-linecap="round" stroke-linejoin="round" mask="url(#mask-10)"></path>
                    <path d="M41.5923859,86.1932213 L47.2187239,82.0689547" id="Stroke-249" stroke="#1E130F" stroke-linecap="round" stroke-linejoin="round" mask="url(#mask-10)"></path>
                    <path d="M41.5888732,82.0211253 L37.8775493,78.478512" id="Stroke-250" stroke="#1E130F" stroke-linecap="round" stroke-linejoin="round" mask="url(#mask-10)"></path>
                    <path d="M15.4116845,62.7549227 L21.0380225,58.6286293" id="Stroke-251" stroke="#1E130F" stroke-linecap="round" stroke-linejoin="round" mask="url(#mask-10)"></path>
                    <path d="M15.3572986,58.339424 L11.6459746,54.7968107" id="Stroke-252" stroke="#1E130F" stroke-linecap="round" stroke-linejoin="round" mask="url(#mask-10)"></path>
                    <polygon id="Stroke-253" stroke="#1E130F" stroke-width="1.5" stroke-linecap="round" stroke-linejoin="round" mask="url(#mask-10)" points="20.1904986 46.7236853 10.605738 46.7236853 2.2310338 60.700592 6.52134366 66.4836853 24.3705831 66.4836853 28.6621042 60.700592"></polygon>
                    <path d="M15.438938,66.451968 L15.438938,115.145675" id="Stroke-254" stroke="#1E130F" stroke-width="1.5" stroke-linecap="round" stroke-linejoin="round" mask="url(#mask-10)"></path>
                    <path d="M15.438938,54.36128 L15.438938,66.4837867" id="Stroke-255" stroke="#1E130F" stroke-linecap="round" stroke-linejoin="round" mask="url(#mask-10)"></path>
                    <path d="M29.878338,50.8125867 L29.8638028,50.7943467" id="Stroke-256" stroke="#1E130F" stroke-width="2" stroke-linecap="round" stroke-linejoin="round" mask="url(#mask-10)"></path>
                    <path d="M26.5898676,46.50896 L24.9364873,44.34448" id="Stroke-257" stroke="#1E130F" stroke-width="2" stroke-linecap="round" stroke-linejoin="round" stroke-dasharray="0.025,5.02" mask="url(#mask-10)"></path>
                    <polyline id="Stroke-258" stroke="#1E130F" stroke-width="2" stroke-linecap="round" stroke-linejoin="round" mask="url(#mask-10)" points="23.2992169 42.20128 23.2846817 42.18304 23.2592451 42.18304"></polyline>
                    <path d="M15.3597211,42.1834453 L11.3698056,42.1834453" id="Stroke-259" stroke="#1E130F" stroke-width="2" stroke-linecap="round" stroke-linejoin="round" stroke-dasharray="0.033,6.522" mask="url(#mask-10)"></path>
                    <polyline id="Stroke-260" stroke="#1E130F" stroke-width="2" stroke-linecap="round" stroke-linejoin="round" mask="url(#mask-10)" points="7.42022535 42.1834453 7.39478873 42.1834453 7.38146479 42.2016853"></polyline>
                    <path d="M4.3104169,46.3832053 L2.75999437,48.4939787" id="Stroke-261" stroke="#1E130F" stroke-width="2" stroke-linecap="round" stroke-linejoin="round" stroke-dasharray="0.024,4.842" mask="url(#mask-10)"></path>
                    <path d="M1.22422817,50.584992 L1.21090423,50.603232" id="Stroke-262" stroke="#1E130F" stroke-width="2" stroke-linecap="round" stroke-linejoin="round" mask="url(#mask-10)"></path>
                    <path d="M397.201175,50.069408 C397.094583,49.9701013 397.101851,49.8160747 397.220555,49.7269013 L397.871006,49.230368 C397.930358,49.1857813 397.933992,49.1097813 397.880696,49.0621547 L397.285963,48.5179947 C397.179372,48.4166613 397.189062,48.2646613 397.307766,48.175488 L398.166555,47.515808 C398.28647,47.4256213 398.282837,47.2807147 398.187146,47.1743147 L397.288386,46.172128 C397.201175,46.0758613 397.20602,45.962368 397.305344,45.889408 C397.353794,45.849888 397.451907,45.8063147 397.627541,45.822528 C398.476639,45.8975147 399.043513,46.5207147 398.949034,47.2371413 C398.899372,47.5989013 398.746752,47.7275947 398.663175,47.7934613 L398.017569,48.287968 C397.955794,48.3315413 397.950949,48.4085547 398.005456,48.458208 L398.598977,49.002368 C398.707992,49.1006613 398.698301,49.2557013 398.578386,49.342848 L397.930358,49.8393813 C397.871006,49.8849813 397.866161,49.9609813 397.920668,50.0096213 L398.441513,50.5578347 C398.542048,50.6632213 398.521456,50.8152213 398.395485,50.8983147 L397.619062,51.3634347 C397.556076,51.4029547 397.543963,51.4809813 397.593625,51.531648 L397.930358,51.951168 C398.022414,52.060608 397.990921,52.2105813 397.861315,52.2875947 C397.732921,52.3656213 397.553654,52.3392747 397.457963,52.2328747 L396.872921,51.5458347 C396.774808,51.4394347 396.796611,51.288448 396.923794,51.2053547 L397.700217,50.7483413 C397.759569,50.704768 397.771682,50.6297813 397.720808,50.5760747 L397.201175,50.069408 Z" id="Fill-263" fill="#1E130F" mask="url(#mask-10)"></path>
                    <path d="M395.715434,52.5414347 C395.071039,51.235248 394.844532,49.8814347 394.844532,48.4881013 C394.844532,47.8861813 394.891772,47.283248 395.010476,46.6884213 L395.6258,46.6884213 C395.476814,47.2548747 395.429575,47.833488 395.429575,48.4090613 C395.429575,49.6199947 395.608842,50.906928 396.030363,52.0722613 C396.447039,50.906928 396.62873,49.6199947 396.62873,48.4090613 C396.62873,47.833488 396.58149,47.2548747 396.432504,46.6884213 L397.047828,46.6884213 C397.167744,47.283248 397.212561,47.8861813 397.212561,48.4881013 C397.212561,49.8814347 396.986054,51.235248 396.34287,52.5414347 L395.715434,52.5414347 Z" id="Fill-264" fill="#1E130F" mask="url(#mask-10)"></path>
                    <path d="M398.098966,46.0656267 C398.141361,46.10312 398.137727,46.1649333 398.090487,46.2024267 C398.043248,46.2378933 397.970572,46.2358667 397.926966,46.1963467 C397.884572,46.1568267 397.886994,46.0950133 397.934234,46.0595467 C397.982685,46.0220533 398.055361,46.0261067 398.098966,46.0656267" id="Fill-265" fill="#1E130F" mask="url(#mask-10)"></path>
                    <path d="M398.22191,48.1278613 C398.275206,48.087328 398.361206,48.0923947 398.414501,48.1379947 C398.462952,48.1856213 398.461741,48.2565547 398.4036,48.2981013 C398.347882,48.3416747 398.263093,48.3376213 398.211008,48.2920213 C398.161346,48.2443947 398.166192,48.172448 398.22191,48.1278613" id="Fill-266" fill="#1E130F" mask="url(#mask-10)"></path>
                    <path d="M398.22191,48.4841493 C398.275206,48.440576 398.361206,48.4446293 398.414501,48.492256 C398.462952,48.537856 398.461741,48.610816 398.4036,48.6523627 C398.347882,48.6939093 398.263093,48.689856 398.211008,48.6462827 C398.161346,48.5966293 398.166192,48.525696 398.22191,48.4841493" id="Fill-267" fill="#1E130F" mask="url(#mask-10)"></path>
                    <path d="M398.509465,48.7592693 C398.565183,48.7177227 398.651183,48.7197493 398.700845,48.767376 C398.749296,48.8139893 398.746873,48.885936 398.693577,48.9274827 C398.636648,48.971056 398.548225,48.9670027 398.499775,48.919376 C398.450113,48.873776 398.452535,48.8028427 398.509465,48.7592693" id="Fill-268" fill="#1E130F" mask="url(#mask-10)"></path>
                    <path d="M398.135668,49.681504 C398.190175,49.6379307 398.277386,49.6429973 398.32947,49.6896107 C398.379132,49.7372373 398.374287,49.8081707 398.317358,49.851744 C398.262851,49.8932907 398.175639,49.8892373 398.1284,49.8436373 C398.076315,49.7960107 398.081161,49.7250773 398.135668,49.681504" id="Fill-269" fill="#1E130F" mask="url(#mask-10)"></path>
                    <path d="M398.119073,50.0397173 C398.180848,50.0001973 398.263214,50.008304 398.312876,50.0559307 C398.360115,50.1045707 398.352848,50.1765173 398.294707,50.218064 C398.235355,50.257584 398.149355,50.2494773 398.102115,50.2018507 C398.054876,50.1521973 398.060932,50.081264 398.119073,50.0397173" id="Fill-270" fill="#1E130F" mask="url(#mask-10)"></path>
                    <path d="M398.395848,50.3267947 C398.4552,50.2893013 398.542411,50.297408 398.588439,50.3450347 C398.634468,50.3957013 398.623566,50.4656213 398.569059,50.504128 C398.506073,50.5446613 398.421285,50.5365547 398.374045,50.488928 C398.329228,50.437248 398.336496,50.3663147 398.395848,50.3267947" id="Fill-271" fill="#1E130F" mask="url(#mask-10)"></path>
                    <path d="M398.425403,49.46384 C398.478699,49.4202667 398.564699,49.4222933 398.615572,49.46992 C398.665234,49.5165333 398.662811,49.58848 398.605882,49.6300267 C398.551375,49.6736 398.462952,49.6695467 398.414501,49.62192 C398.364839,49.57632 398.366051,49.5053867 398.425403,49.46384" id="Fill-272" fill="#1E130F" mask="url(#mask-10)"></path>
                    <path d="M397.85647,51.2193387 C397.917034,51.183872 398.001823,51.1950187 398.045428,51.2466987 C398.090245,51.2983787 398.076921,51.3672853 398.017569,51.405792 C397.953372,51.4432853 397.868583,51.4311253 397.826189,51.3794453 C397.782583,51.3277653 397.794696,51.256832 397.85647,51.2193387" id="Fill-273" fill="#1E130F" mask="url(#mask-10)"></path>
                    <path d="M397.825704,51.6151467 C397.887479,51.5817067 397.972268,51.59488 398.014662,51.64656 C398.054634,51.69824 398.040099,51.7712 397.97469,51.80464 C397.912915,51.8401067 397.828127,51.8269333 397.788155,51.7752533 C397.745761,51.7215467 397.760296,51.6506133 397.825704,51.6151467" id="Fill-274" fill="#1E130F" mask="url(#mask-10)"></path>
                    <path d="M398.180606,51.0274133 C398.239958,50.9919467 398.323535,51.0041067 398.36593,51.0547733 C398.411958,51.1064533 398.398634,51.1773867 398.336859,51.2128533 C398.275085,51.24832 398.190296,51.2371733 398.147901,51.1854933 C398.103085,51.13584 398.116408,51.06288 398.180606,51.0274133" id="Fill-275" fill="#1E130F" mask="url(#mask-10)"></path>
                    <path d="M398.835901,47.595456 C398.868606,47.5397227 398.949761,47.513376 399.017592,47.5417493 C399.086634,47.5701227 399.114493,47.6390293 399.081789,47.6947627 C399.047873,47.7515093 398.965507,47.7758293 398.900099,47.747456 C398.829845,47.720096 398.803197,47.6511893 398.835901,47.595456" id="Fill-276" fill="#1E130F" mask="url(#mask-10)"></path>
                    <path d="M398.947096,47.2411947 C398.95073,47.178368 399.016138,47.1307413 399.091237,47.1347947 C399.165124,47.1347947 399.222054,47.187488 399.222054,47.2533547 C399.217208,47.3141547 399.153011,47.363808 399.079124,47.3617813 C399.001603,47.357728 398.944673,47.3040213 398.947096,47.2411947" id="Fill-277" fill="#1E130F" mask="url(#mask-10)"></path>
                    <path d="M398.931713,46.835456 C398.915966,46.7736427 398.965628,46.7148693 399.043149,46.7027093 C399.114614,46.6905493 399.186079,46.7300693 399.200614,46.7939093 C399.211515,46.8547093 399.164276,46.914496 399.0916,46.926656 C399.01529,46.938816 398.947459,46.8972693 398.931713,46.835456" id="Fill-278" fill="#1E130F" mask="url(#mask-10)"></path>
                    <path d="M398.781515,46.4713653 C398.743966,46.4176587 398.76698,46.3477387 398.829966,46.315312 C398.895375,46.284912 398.977741,46.303152 399.01529,46.3588853 C399.056473,46.4115787 399.03467,46.4814987 398.966839,46.512912 C398.902642,46.5443253 398.819065,46.5270987 398.781515,46.4713653" id="Fill-279" fill="#1E130F" mask="url(#mask-10)"></path>
                    <path d="M398.561428,47.866624 C398.615935,47.8250773 398.700724,47.8281173 398.755231,47.8747307 C398.80247,47.9203307 398.800048,47.991264 398.745541,48.0348373 C398.689823,48.076384 398.602611,48.0723307 398.551738,48.0267307 C398.499654,47.979104 398.504499,47.9081707 398.561428,47.866624" id="Fill-280" fill="#1E130F" mask="url(#mask-10)"></path>
                    <path d="M394.861369,50.069408 C394.967961,49.9701013 394.960693,49.8160747 394.841989,49.7269013 L394.189115,49.230368 C394.132186,49.1857813 394.127341,49.1097813 394.181848,49.0621547 L394.772946,48.5179947 C394.883172,48.4166613 394.875904,48.2646613 394.7572,48.175488 L393.894777,47.515808 C393.776073,47.4256213 393.778496,47.2807147 393.875397,47.1743147 L394.770524,46.172128 C394.861369,46.0758613 394.85289,45.962368 394.7572,45.889408 C394.707538,45.849888 394.609425,45.8063147 394.43258,45.822528 C393.588327,45.8975147 393.019031,46.5207147 393.11351,47.2371413 C393.160749,47.5989013 393.31458,47.7275947 393.396946,47.7934613 L394.046186,48.287968 C394.104327,48.3315413 394.109172,48.4085547 394.057087,48.458208 L393.463566,49.002368 C393.354552,49.1006613 393.366665,49.2557013 393.480524,49.342848 L394.132186,49.8393813 C394.191538,49.8849813 394.197594,49.9609813 394.141876,50.0096213 L393.618608,50.5578347 C393.520496,50.6632213 393.542299,50.8152213 393.667059,50.8983147 L394.444693,51.3634347 C394.506468,51.4029547 394.51858,51.4809813 394.468918,51.531648 L394.132186,51.951168 C394.037707,52.060608 394.0692,52.2105813 394.198806,52.2875947 C394.329623,52.3656213 394.510101,52.3392747 394.600946,52.2328747 L395.189623,51.5458347 C395.290158,51.4394347 395.265932,51.288448 395.139961,51.2053547 L394.363538,50.7483413 C394.300552,50.704768 394.287228,50.6297813 394.340524,50.5760747 L394.861369,50.069408 Z" id="Fill-281" fill="#1E130F" mask="url(#mask-10)"></path>
                    <path d="M393.961276,46.0656267 C393.920093,46.10312 393.923727,46.1649333 393.972177,46.2024267 C394.019417,46.2378933 394.092093,46.2358667 394.135699,46.1963467 C394.178093,46.1568267 394.173248,46.0950133 394.12722,46.0595467 C394.081192,46.0220533 394.00367,46.0261067 393.961276,46.0656267" id="Fill-282" fill="#1E130F" mask="url(#mask-10)"></path>
                    <path d="M393.841724,48.1278613 C393.787217,48.087328 393.698794,48.0923947 393.647921,48.1379947 C393.597048,48.1856213 393.601893,48.2565547 393.660034,48.2981013 C393.714541,48.3416747 393.800541,48.3376213 393.848992,48.2920213 C393.898654,48.2443947 393.898654,48.172448 393.841724,48.1278613" id="Fill-283" fill="#1E130F" mask="url(#mask-10)"></path>
                    <path d="M393.841724,48.4841493 C393.787217,48.440576 393.698794,48.4446293 393.647921,48.492256 C393.597048,48.537856 393.601893,48.610816 393.660034,48.6523627 C393.714541,48.6939093 393.800541,48.689856 393.848992,48.6462827 C393.898654,48.5966293 393.898654,48.525696 393.841724,48.4841493" id="Fill-284" fill="#1E130F" mask="url(#mask-10)"></path>
                    <path d="M393.5532,48.7592693 C393.49627,48.7177227 393.411482,48.7197493 393.359397,48.767376 C393.309735,48.8139893 393.31458,48.885936 393.37151,48.9274827 C393.426017,48.971056 393.513228,48.9670027 393.561679,48.919376 C393.612552,48.873776 393.607707,48.8028427 393.5532,48.7592693" id="Fill-285" fill="#1E130F" mask="url(#mask-10)"></path>
                    <path d="M393.926876,49.681504 C393.872369,49.6379307 393.783946,49.6429973 393.735496,49.6896107 C393.685834,49.7372373 393.688256,49.8081707 393.743975,49.851744 C393.799693,49.8932907 393.884482,49.8892373 393.936566,49.8436373 C393.985017,49.7960107 393.981383,49.7250773 393.926876,49.681504" id="Fill-286" fill="#1E130F" mask="url(#mask-10)"></path>
                    <path d="M393.941169,50.0397173 C393.884239,50.0001973 393.797028,50.008304 393.749789,50.0559307 C393.698915,50.1045707 393.709817,50.1765173 393.767958,50.218064 C393.823676,50.257584 393.91331,50.2494773 393.960549,50.2018507 C394.006577,50.1521973 394.000521,50.081264 393.941169,50.0397173" id="Fill-287" fill="#1E130F" mask="url(#mask-10)"></path>
                    <path d="M393.666696,50.3267947 C393.604921,50.2893013 393.521344,50.297408 393.475315,50.3450347 C393.428076,50.3957013 393.437766,50.4656213 393.493485,50.504128 C393.552837,50.5446613 393.638837,50.5365547 393.686076,50.488928 C393.735738,50.437248 393.723625,50.3663147 393.666696,50.3267947" id="Fill-288" fill="#1E130F" mask="url(#mask-10)"></path>
                    <path d="M393.638352,49.46384 C393.580211,49.4202667 393.496634,49.4222933 393.446972,49.46992 C393.39731,49.5165333 393.398521,49.58848 393.456662,49.6300267 C393.51238,49.6736 393.595958,49.6695467 393.648042,49.62192 C393.697704,49.57632 393.692859,49.5053867 393.638352,49.46384" id="Fill-289" fill="#1E130F" mask="url(#mask-10)"></path>
                    <path d="M394.206073,51.2193387 C394.144299,51.183872 394.05951,51.1950187 394.014693,51.2466987 C393.972299,51.2983787 393.984411,51.3672853 394.046186,51.405792 C394.109172,51.4432853 394.191538,51.4311253 394.236355,51.3794453 C394.279961,51.3277653 394.265425,51.256832 394.206073,51.2193387" id="Fill-290" fill="#1E130F" mask="url(#mask-10)"></path>
                    <path d="M394.236839,51.6151467 C394.172642,51.5817067 394.086642,51.59488 394.04667,51.64656 C394.004276,51.69824 394.020023,51.7712 394.08422,51.80464 C394.149628,51.8401067 394.231994,51.8269333 394.274389,51.7752533 C394.314361,51.7215467 394.298614,51.6506133 394.236839,51.6151467" id="Fill-291" fill="#1E130F" mask="url(#mask-10)"></path>
                    <path d="M393.884361,51.0274133 C393.820163,50.9919467 393.737797,51.0041067 393.69298,51.0547733 C393.650586,51.1064533 393.666332,51.1773867 393.725685,51.2128533 C393.787459,51.24832 393.872248,51.2371733 393.914642,51.1854933 C393.959459,51.13584 393.944924,51.06288 393.884361,51.0274133" id="Fill-292" fill="#1E130F" mask="url(#mask-10)"></path>
                    <path d="M393.224341,47.595456 C393.194059,47.5397227 393.110482,47.513376 393.042651,47.5417493 C392.97482,47.5701227 392.946961,47.6390293 392.980876,47.6947627 C393.011158,47.7515093 393.093524,47.7758293 393.162566,47.747456 C393.229186,47.720096 393.258256,47.6511893 393.224341,47.595456" id="Fill-293" fill="#1E130F" mask="url(#mask-10)"></path>
                    <path d="M393.113146,47.2411947 C393.108301,47.178368 393.046527,47.1307413 392.971428,47.1347947 C392.893907,47.1347947 392.838189,47.187488 392.840611,47.2533547 C392.845456,47.3141547 392.909654,47.363808 392.983541,47.3617813 C393.061062,47.357728 393.117992,47.3040213 393.113146,47.2411947" id="Fill-294" fill="#1E130F" mask="url(#mask-10)"></path>
                    <path d="M393.12962,46.835456 C393.144155,46.7736427 393.098127,46.7148693 393.023028,46.7027093 C392.94793,46.6905493 392.875254,46.7300693 392.86193,46.7939093 C392.848606,46.8547093 392.898268,46.914496 392.970944,46.926656 C393.044831,46.938816 393.113873,46.8972693 393.12962,46.835456" id="Fill-295" fill="#1E130F" mask="url(#mask-10)"></path>
                    <path d="M393.278727,46.4713653 C393.317487,46.4176587 393.296896,46.3477387 393.231487,46.315312 C393.164868,46.284912 393.082501,46.303152 393.044952,46.3588853 C393.008614,46.4115787 393.027994,46.4814987 393.093403,46.512912 C393.156389,46.5443253 393.241177,46.5270987 393.278727,46.4713653" id="Fill-296" fill="#1E130F" mask="url(#mask-10)"></path>
                    <path d="M393.499904,47.866624 C393.446608,47.8250773 393.359397,47.8281173 393.309735,47.8747307 C393.257651,47.9203307 393.258862,47.991264 393.317003,48.0348373 C393.373932,48.076384 393.45751,48.0723307 393.508383,48.0267307 C393.559256,47.979104 393.5532,47.9081707 393.499904,47.866624" id="Fill-297" fill="#1E130F" mask="url(#mask-10)"></path>
                    <path d="M357.200879,23.372432 L357.226315,23.372432" id="Stroke-298" stroke="#1E130F" stroke-width="2" stroke-linecap="round" stroke-linejoin="round" mask="url(#mask-10)"></path>
                    <path d="M367.347668,23.372432 L402.97347,23.372432" id="Stroke-299" stroke="#1E130F" stroke-width="2" stroke-linecap="round" stroke-linejoin="round" stroke-dasharray="0.042,8.356" mask="url(#mask-10)"></path>
                    <path d="M408.033904,23.372432 L408.059341,23.372432" id="Stroke-300" stroke="#1E130F" stroke-width="2" stroke-linecap="round" stroke-linejoin="round" mask="url(#mask-10)"></path>
                    <path d="M351.497141,91.7902667 L351.522577,91.7902667" id="Stroke-301" stroke="#1E130F" stroke-width="2" stroke-linecap="round" stroke-linejoin="round" mask="url(#mask-10)"></path>
                    <path d="M362.231758,91.7902667 L410.688518,91.7902667" id="Stroke-302" stroke="#1E130F" stroke-width="2" stroke-linecap="round" stroke-linejoin="round" stroke-dasharray="0.044,8.840999999999999" mask="url(#mask-10)"></path>
                    <path d="M416.042079,91.7902667 L416.067515,91.7902667" id="Stroke-303" stroke="#1E130F" stroke-width="2" stroke-linecap="round" stroke-linejoin="round" mask="url(#mask-10)"></path>
                    <polyline id="Stroke-304" stroke="#1E130F" stroke-width="1.5" stroke-linecap="round" stroke-linejoin="round" mask="url(#mask-10)" points="377.269645 86.5014773 409.090856 86.5014773 411.4068 89.1047307"></polyline>
                    <polygon id="Stroke-305" stroke="#1E130F" stroke-width="1.5" stroke-linecap="round" stroke-linejoin="round" mask="url(#mask-10)" points="362.046676 80.7565867 403.215239 80.7565867 403.215239 34.2557333 362.046676 34.2557333"></polygon>
                    <polyline id="Stroke-306" stroke="#1E130F" stroke-width="1.5" stroke-linecap="round" stroke-linejoin="round" mask="url(#mask-10)" points="405.16429 86.5014773 405.16429 80.7568907 360.096656 80.7568907 360.096656 86.5014773"></polyline>
                    <path d="M376.413279,48.8265547 L388.848152,48.8265547" id="Stroke-307" stroke="#1E130F" stroke-linecap="round" stroke-linejoin="round" mask="url(#mask-10)"></path>
                    <path d="M376.413279,51.642912 L388.848152,51.642912" id="Stroke-308" stroke="#1E130F" stroke-linecap="round" stroke-linejoin="round" mask="url(#mask-10)"></path>
                    <path d="M376.413279,54.4592693 L388.848152,54.4592693" id="Stroke-309" stroke="#1E130F" stroke-linecap="round" stroke-linejoin="round" mask="url(#mask-10)"></path>
                    <path d="M376.413279,57.277552 L388.848152,57.277552" id="Stroke-310" stroke="#1E130F" stroke-linecap="round" stroke-linejoin="round" mask="url(#mask-10)"></path>
                    <path d="M376.413279,60.0939093 L388.848152,60.0939093" id="Stroke-311" stroke="#1E130F" stroke-linecap="round" stroke-linejoin="round" mask="url(#mask-10)"></path>
                    <path d="M376.413279,62.9102667 L388.848152,62.9102667" id="Stroke-312" stroke="#1E130F" stroke-linecap="round" stroke-linejoin="round" mask="url(#mask-10)"></path>
                    <path d="M376.413279,65.728144 L388.848152,65.728144" id="Stroke-313" stroke="#1E130F" stroke-linecap="round" stroke-linejoin="round" mask="url(#mask-10)"></path>
                    <path d="M376.413279,68.545008 L388.848152,68.545008" id="Stroke-314" stroke="#1E130F" stroke-linecap="round" stroke-linejoin="round" mask="url(#mask-10)"></path>
                    <path d="M376.413279,71.3613653 L388.848152,71.3613653" id="Stroke-315" stroke="#1E130F" stroke-linecap="round" stroke-linejoin="round" mask="url(#mask-10)"></path>
                    <path d="M376.413279,74.1777227 L388.848152,74.1777227" id="Stroke-316" stroke="#1E130F" stroke-linecap="round" stroke-linejoin="round" mask="url(#mask-10)"></path>
                    <path d="M363.87351,86.5014773 L342.49827,86.5014773" id="Stroke-317" stroke="#1E130F" stroke-width="1.5" stroke-linecap="round" stroke-linejoin="round" mask="url(#mask-10)"></path>
                    <polyline id="Stroke-318" stroke="#1E130F" stroke-width="1.5" stroke-linecap="round" stroke-linejoin="round" mask="url(#mask-10)" points="353.08693 66.6053867 353.08693 29.0036267 412.172563 29.0036267 412.172563 66.6053867"></polyline>
                    <path d="M403.214876,66.6053867 L416.067637,66.6053867" id="Stroke-319" stroke="#1E130F" stroke-width="1.5" stroke-linecap="round" stroke-linejoin="round" mask="url(#mask-10)"></path>
                    <path d="M348.241859,66.6053867 L361.095831,66.6053867" id="Stroke-320" stroke="#1E130F" stroke-width="1.5" stroke-linecap="round" stroke-linejoin="round" mask="url(#mask-10)"></path>
                    <polygon id="Stroke-321" stroke="#1E130F" stroke-linecap="round" stroke-linejoin="round" mask="url(#mask-10)" points="376.41231 76.9272 388.847183 76.9272 388.847183 45.9627733 376.41231 45.9627733"></polygon>
                </g>
            </g>
        </g>
    </g>
</svg>