<?xml version="1.0" encoding="UTF-8" standalone="no"?>
<svg width="34px" height="38px" viewBox="0 0 34 38" version="1.1" xmlns="http://www.w3.org/2000/svg" xmlns:xlink="http://www.w3.org/1999/xlink">
    <!-- Generator: Sketch 41.2 (35397) - http://www.bohemiancoding.com/sketch -->
    <title>InscripcionesNormal</title>
    <desc>Created with Sketch.</desc>
    <defs></defs>
    <g id="Cortes" stroke="none" stroke-width="1" fill="none" fill-rule="evenodd" opacity="0.699999988">
        <g id="Pregrado" transform="translate(-88.000000, -29.000000)" fill="#FFFFFF">
            <path d="M120.380952,41.9361702 L117.952381,41.9361702 L113.095238,41.9361702 L108.238095,41.9361702 L106.619048,41.9361702 L103.380952,41.9361702 L101.761905,41.9361702 L96.9047619,41.9361702 L92.047619,41.9361702 L89.6190476,41.9361702 L89.6190476,41.1276596 L89.6190476,36.2830638 C89.6190476,35.6936596 89.9315238,35.1786383 90.4010476,34.8940426 C90.5572857,34.7994468 90.7305238,34.7307234 90.9167143,34.6927234 C91.0219524,34.6708936 91.1320476,34.6595745 91.2445714,34.6595745 L92.047619,34.6595745 L96.0952381,34.6595745 L96.0952381,37.8911915 C96.0952381,38.3334468 96.4570952,38.7021277 96.9047619,38.7021277 C97.3556667,38.7021277 97.7142857,38.3391064 97.7142857,37.8911915 L97.7142857,34.6595745 L101.761905,34.6595745 L108.238095,34.6595745 L112.285714,34.6595745 L112.285714,37.8911915 C112.285714,38.3334468 112.647571,38.7021277 113.095238,38.7021277 C113.546143,38.7021277 113.904762,38.3391064 113.904762,37.8911915 L113.904762,34.6595745 L117.952381,34.6595745 L118.755429,34.6595745 C119.413571,34.6595745 119.974571,35.0508936 120.229571,35.613617 C120.266,35.6928511 120.296762,35.7769362 120.319429,35.8634468 C120.328333,35.8941702 120.341286,35.9232766 120.347762,35.955617 C120.352619,35.9758298 120.351,35.9984681 120.354238,36.0202979 C120.368,36.106 120.380952,36.1925106 120.380952,36.2830638 L120.380952,41.1276596 L120.380952,41.9361702 Z M120.380952,47.5957447 L120.380952,57.2978723 L120.380952,63.7594894 C120.380952,64.6577447 119.655619,65.3829787 118.755429,65.3829787 L103.380952,65.3829787 L91.2445714,65.3829787 C90.3451905,65.3829787 89.6190476,64.6577447 89.6190476,63.7594894 L89.6190476,57.2978723 L89.6190476,50.8297872 L89.6190476,47.5957447 L89.6190476,43.5531915 L96.9047619,43.5531915 L103.380952,43.5531915 L106.619048,43.5531915 L113.095238,43.5531915 L120.380952,43.5531915 L120.380952,47.5957447 Z M121.944952,35.7324681 C121.681857,34.204383 120.359095,33.0425532 118.755429,33.0425532 L117.952381,33.0425532 L113.904762,33.0425532 L113.904762,29.8109362 C113.904762,29.3686809 113.542905,29 113.095238,29 C112.644333,29 112.285714,29.3630213 112.285714,29.8109362 L112.285714,33.0425532 L108.238095,33.0425532 L101.761905,33.0425532 L97.7142857,33.0425532 L97.7142857,29.8109362 C97.7142857,29.3686809 97.3524286,29 96.9047619,29 C96.4538571,29 96.0952381,29.3630213 96.0952381,29.8109362 L96.0952381,33.0425532 L92.047619,33.0425532 L91.2445714,33.0425532 C91.0195238,33.0425532 90.8009524,33.0651915 90.5896667,33.1080426 C90.4050952,33.1460426 90.225381,33.1994043 90.0537619,33.2665106 C88.85,33.7411064 88,34.9118298 88,36.2822553 L88,36.2830638 L88,41.1276596 L88,41.9361702 L88,43.5531915 L88,47.5957447 L88,50.8297872 L88,57.2978723 L88,63.7594894 C88,65.5519574 89.4530952,67 91.2445714,67 L103.380952,67 L118.755429,67 C120.550143,67 122,65.5487234 122,63.7594894 L122,57.2978723 L122,47.5957447 L122,43.5531915 L122,41.9361702 L122,41.1276596 L122,36.2830638 L122,36.2822553 C122,36.0930638 121.975714,35.9119574 121.944952,35.7324681 L121.944952,35.7324681 Z M117.142857,46.787234 L117.142857,47.5957447 L117.142857,51.6382979 L113.095238,51.6382979 L112.285714,51.6382979 L112.285714,47.5957447 L112.285714,46.787234 L113.095238,46.787234 L117.142857,46.787234 Z M112.285714,45.1702128 C111.384714,45.1702128 110.666667,45.8946383 110.666667,46.787234 L110.666667,47.5957447 L110.666667,51.6382979 C110.666667,52.5373617 111.39119,53.2553191 112.285714,53.2553191 L113.095238,53.2553191 L117.142857,53.2553191 C118.043857,53.2553191 118.761905,52.5308936 118.761905,51.6382979 L118.761905,47.5957447 L118.761905,46.787234 C118.761905,45.8881702 118.037381,45.1702128 117.142857,45.1702128 L113.095238,45.1702128 L112.285714,45.1702128 Z M107.428571,51.6382979 L106.619048,51.6382979 L103.380952,51.6382979 L102.571429,51.6382979 L102.571429,50.8297872 L102.571429,47.5957447 L102.571429,46.787234 L103.380952,46.787234 L106.619048,46.787234 L107.428571,46.787234 L107.428571,47.5957447 L107.428571,51.6382979 Z M107.428571,45.1702128 L106.619048,45.1702128 L103.380952,45.1702128 L102.571429,45.1702128 C101.670429,45.1702128 100.952381,45.8946383 100.952381,46.787234 L100.952381,47.5957447 L100.952381,50.8297872 L100.952381,51.6382979 C100.952381,52.5373617 101.676905,53.2553191 102.571429,53.2553191 L103.380952,53.2553191 L106.619048,53.2553191 L107.428571,53.2553191 C108.329571,53.2553191 109.047619,52.5308936 109.047619,51.6382979 L109.047619,47.5957447 L109.047619,46.787234 C109.047619,45.8881702 108.323095,45.1702128 107.428571,45.1702128 L107.428571,45.1702128 Z M97.7142857,50.8297872 L97.7142857,51.6382979 L96.9047619,51.6382979 L92.8571429,51.6382979 L92.8571429,50.8297872 L92.8571429,47.5957447 L92.8571429,46.787234 L96.9047619,46.787234 L97.7142857,46.787234 L97.7142857,47.5957447 L97.7142857,50.8297872 Z M97.7142857,45.1702128 L96.9047619,45.1702128 L92.8571429,45.1702128 C91.9561429,45.1702128 91.2380952,45.8946383 91.2380952,46.787234 L91.2380952,47.5957447 L91.2380952,50.8297872 L91.2380952,51.6382979 C91.2380952,52.5373617 91.962619,53.2553191 92.8571429,53.2553191 L96.9047619,53.2553191 L97.7142857,53.2553191 C98.6152857,53.2553191 99.3333333,52.5308936 99.3333333,51.6382979 L99.3333333,50.8297872 L99.3333333,47.5957447 L99.3333333,46.787234 C99.3333333,45.8881702 98.6088095,45.1702128 97.7142857,45.1702128 L97.7142857,45.1702128 Z M97.7142857,61.3404255 L92.8571429,61.3404255 L92.8571429,57.2978723 L92.8571429,56.4893617 L96.9047619,56.4893617 L97.7142857,56.4893617 L97.7142857,57.2978723 L97.7142857,61.3404255 Z M97.7142857,54.8723404 L96.9047619,54.8723404 L92.8571429,54.8723404 C91.9561429,54.8723404 91.2380952,55.596766 91.2380952,56.4893617 L91.2380952,57.2978723 L91.2380952,61.3404255 C91.2380952,62.2394894 91.962619,62.9574468 92.8571429,62.9574468 L97.7142857,62.9574468 C98.6152857,62.9574468 99.3333333,62.2330213 99.3333333,61.3404255 L99.3333333,57.2978723 L99.3333333,56.4893617 C99.3333333,55.5902979 98.6088095,54.8723404 97.7142857,54.8723404 L97.7142857,54.8723404 Z" id="InscripcionesNormal"></path>
        </g>
    </g>
</svg>