<?xml version="1.0" encoding="UTF-8" standalone="no"?>
<svg width="34px" height="38px" viewBox="0 0 34 38" version="1.1" xmlns="http://www.w3.org/2000/svg" xmlns:xlink="http://www.w3.org/1999/xlink">
    <!-- Generator: Sketch 41.2 (35397) - http://www.bohemiancoding.com/sketch -->
    <title>InscripcionesHover</title>
    <desc>Created with Sketch.</desc>
    <defs></defs>
    <g id="Cortes" stroke="none" stroke-width="1" fill="none" fill-rule="evenodd">
        <g id="Pregrado" transform="translate(-88.000000, -113.000000)" fill="#FFFFFF">
            <path d="M120.380952,125.93617 L117.952381,125.93617 L113.095238,125.93617 L108.238095,125.93617 L106.619048,125.93617 L103.380952,125.93617 L101.761905,125.93617 L96.9047619,125.93617 L92.047619,125.93617 L89.6190476,125.93617 L89.6190476,125.12766 L89.6190476,120.283064 C89.6190476,119.69366 89.9315238,119.178638 90.4010476,118.894043 C90.5572857,118.799447 90.7305238,118.730723 90.9167143,118.692723 C91.0219524,118.670894 91.1320476,118.659574 91.2445714,118.659574 L92.047619,118.659574 L96.0952381,118.659574 L96.0952381,121.891191 C96.0952381,122.333447 96.4570952,122.702128 96.9047619,122.702128 C97.3556667,122.702128 97.7142857,122.339106 97.7142857,121.891191 L97.7142857,118.659574 L101.761905,118.659574 L108.238095,118.659574 L112.285714,118.659574 L112.285714,121.891191 C112.285714,122.333447 112.647571,122.702128 113.095238,122.702128 C113.546143,122.702128 113.904762,122.339106 113.904762,121.891191 L113.904762,118.659574 L117.952381,118.659574 L118.755429,118.659574 C119.413571,118.659574 119.974571,119.050894 120.229571,119.613617 C120.266,119.692851 120.296762,119.776936 120.319429,119.863447 C120.328333,119.89417 120.341286,119.923277 120.347762,119.955617 C120.352619,119.97583 120.351,119.998468 120.354238,120.020298 C120.368,120.106 120.380952,120.192511 120.380952,120.283064 L120.380952,125.12766 L120.380952,125.93617 Z M120.380952,131.595745 L120.380952,141.297872 L120.380952,147.759489 C120.380952,148.657745 119.655619,149.382979 118.755429,149.382979 L103.380952,149.382979 L91.2445714,149.382979 C90.3451905,149.382979 89.6190476,148.657745 89.6190476,147.759489 L89.6190476,141.297872 L89.6190476,134.829787 L89.6190476,131.595745 L89.6190476,127.553191 L96.9047619,127.553191 L103.380952,127.553191 L106.619048,127.553191 L113.095238,127.553191 L120.380952,127.553191 L120.380952,131.595745 Z M121.944952,119.732468 C121.681857,118.204383 120.359095,117.042553 118.755429,117.042553 L117.952381,117.042553 L113.904762,117.042553 L113.904762,113.810936 C113.904762,113.368681 113.542905,113 113.095238,113 C112.644333,113 112.285714,113.363021 112.285714,113.810936 L112.285714,117.042553 L108.238095,117.042553 L101.761905,117.042553 L97.7142857,117.042553 L97.7142857,113.810936 C97.7142857,113.368681 97.3524286,113 96.9047619,113 C96.4538571,113 96.0952381,113.363021 96.0952381,113.810936 L96.0952381,117.042553 L92.047619,117.042553 L91.2445714,117.042553 C91.0195238,117.042553 90.8009524,117.065191 90.5896667,117.108043 C90.4050952,117.146043 90.225381,117.199404 90.0537619,117.266511 C88.85,117.741106 88,118.91183 88,120.282255 L88,120.283064 L88,125.12766 L88,125.93617 L88,127.553191 L88,131.595745 L88,134.829787 L88,141.297872 L88,147.759489 C88,149.551957 89.4530952,151 91.2445714,151 L103.380952,151 L118.755429,151 C120.550143,151 122,149.548723 122,147.759489 L122,141.297872 L122,131.595745 L122,127.553191 L122,125.93617 L122,125.12766 L122,120.283064 L122,120.282255 C122,120.093064 121.975714,119.911957 121.944952,119.732468 L121.944952,119.732468 Z M117.142857,130.787234 L117.142857,131.595745 L117.142857,135.638298 L113.095238,135.638298 L112.285714,135.638298 L112.285714,131.595745 L112.285714,130.787234 L113.095238,130.787234 L117.142857,130.787234 Z M112.285714,129.170213 C111.384714,129.170213 110.666667,129.894638 110.666667,130.787234 L110.666667,131.595745 L110.666667,135.638298 C110.666667,136.537362 111.39119,137.255319 112.285714,137.255319 L113.095238,137.255319 L117.142857,137.255319 C118.043857,137.255319 118.761905,136.530894 118.761905,135.638298 L118.761905,131.595745 L118.761905,130.787234 C118.761905,129.88817 118.037381,129.170213 117.142857,129.170213 L113.095238,129.170213 L112.285714,129.170213 Z M107.428571,135.638298 L106.619048,135.638298 L103.380952,135.638298 L102.571429,135.638298 L102.571429,134.829787 L102.571429,131.595745 L102.571429,130.787234 L103.380952,130.787234 L106.619048,130.787234 L107.428571,130.787234 L107.428571,131.595745 L107.428571,135.638298 Z M107.428571,129.170213 L106.619048,129.170213 L103.380952,129.170213 L102.571429,129.170213 C101.670429,129.170213 100.952381,129.894638 100.952381,130.787234 L100.952381,131.595745 L100.952381,134.829787 L100.952381,135.638298 C100.952381,136.537362 101.676905,137.255319 102.571429,137.255319 L103.380952,137.255319 L106.619048,137.255319 L107.428571,137.255319 C108.329571,137.255319 109.047619,136.530894 109.047619,135.638298 L109.047619,131.595745 L109.047619,130.787234 C109.047619,129.88817 108.323095,129.170213 107.428571,129.170213 L107.428571,129.170213 Z M97.7142857,134.829787 L97.7142857,135.638298 L96.9047619,135.638298 L92.8571429,135.638298 L92.8571429,134.829787 L92.8571429,131.595745 L92.8571429,130.787234 L96.9047619,130.787234 L97.7142857,130.787234 L97.7142857,131.595745 L97.7142857,134.829787 Z M97.7142857,129.170213 L96.9047619,129.170213 L92.8571429,129.170213 C91.9561429,129.170213 91.2380952,129.894638 91.2380952,130.787234 L91.2380952,131.595745 L91.2380952,134.829787 L91.2380952,135.638298 C91.2380952,136.537362 91.962619,137.255319 92.8571429,137.255319 L96.9047619,137.255319 L97.7142857,137.255319 C98.6152857,137.255319 99.3333333,136.530894 99.3333333,135.638298 L99.3333333,134.829787 L99.3333333,131.595745 L99.3333333,130.787234 C99.3333333,129.88817 98.6088095,129.170213 97.7142857,129.170213 L97.7142857,129.170213 Z M97.7142857,145.340426 L92.8571429,145.340426 L92.8571429,141.297872 L92.8571429,140.489362 L96.9047619,140.489362 L97.7142857,140.489362 L97.7142857,141.297872 L97.7142857,145.340426 Z M97.7142857,138.87234 L96.9047619,138.87234 L92.8571429,138.87234 C91.9561429,138.87234 91.2380952,139.596766 91.2380952,140.489362 L91.2380952,141.297872 L91.2380952,145.340426 C91.2380952,146.239489 91.962619,146.957447 92.8571429,146.957447 L97.7142857,146.957447 C98.6152857,146.957447 99.3333333,146.233021 99.3333333,145.340426 L99.3333333,141.297872 L99.3333333,140.489362 C99.3333333,139.590298 98.6088095,138.87234 97.7142857,138.87234 L97.7142857,138.87234 Z" id="InscripcionesHover"></path>
        </g>
    </g>
</svg>