<?xml version="1.0" encoding="UTF-8" standalone="no"?>
<svg width="20px" height="20px" viewBox="0 0 20 20" version="1.1" xmlns="http://www.w3.org/2000/svg" xmlns:xlink="http://www.w3.org/1999/xlink">
    <!-- Generator: Sketch 41.2 (35397) - http://www.bohemiancoding.com/sketch -->
    <title>Instagram</title>
    <desc>Created with Sketch.</desc>
    <defs></defs>
    <g id="Cortes" stroke="none" stroke-width="1" fill="none" fill-rule="evenodd">
        <path d="M18.24,0 L1.76,0 C0.8,0 0,0.8 0,1.76 L0,6.66 L6.66,6.66 C7.66,5.94 8.72,5.32 10,5.32 C11.24,5.32 12.36,5.94 13.34,6.66 L20,6.66 L20,1.76 C20,0.8 19.2,0 18.24,0 L18.24,0 Z M18.66,4.64 C18.66,5.02 18.36,5.34 17.98,5.34 L15.36,5.34 C14.98,5.34 14.66,5.02 14.66,4.64 L14.66,2.02 C14.66,1.64 14.98,1.34 15.36,1.34 L17.98,1.34 C18.36,1.34 18.66,1.64 18.66,2.02 L18.66,4.64 Z M13.34,10.66 C13.34,8.82 11.84,7.34 10,7.34 C8.16,7.34 6.66,8.82 6.66,10.66 C6.66,12.5 8.16,14 10,14 C11.84,14 13.34,12.5 13.34,10.66 L13.34,10.66 Z M15.1,9.34 C15.22,9.74 15.26,10.16 15.26,10.58 C15.26,13.5 12.9,15.86 10,15.86 C7.1,15.86 4.74,13.5 4.74,10.58 C4.74,10.16 4.78,9.74 4.9,9.34 L0,9.34 L0,18.24 C0,19.2 0.8,20 1.76,20 L18.24,20 C19.2,20 20,19.2 20,18.24 L20,9.34 L15.1,9.34 Z" id="Instagram" fill="#7BC142"></path>
    </g>
</svg>