<?xml version="1.0" encoding="UTF-8" standalone="no"?>
<svg width="18px" height="17px" viewBox="0 0 18 17" version="1.1" xmlns="http://www.w3.org/2000/svg" xmlns:xlink="http://www.w3.org/1999/xlink">
    <!-- Generator: Sketch 41.2 (35397) - http://www.bohemiancoding.com/sketch -->
    <title>Linkedin</title>
    <desc>Created with Sketch.</desc>
    <defs></defs>
    <g id="Cortes" stroke="none" stroke-width="1" fill="none" fill-rule="evenodd">
        <g id="Falcultad" transform="translate(-590.000000, -123.000000)" fill="#7BC142">
            <path d="M593.891709,128.32212 L590.217278,128.32212 L590.217278,139.362259 L593.891709,139.362259 L593.891709,128.32212 Z M594.133716,124.906959 C594.109868,123.82448 593.335782,123 592.078782,123 C590.821783,123 590,123.82448 590,124.906959 C590,125.967016 590.797494,126.815237 592.031085,126.815237 L592.054567,126.815237 C593.335782,126.815237 594.133716,125.967016 594.133716,124.906959 Z M607.143112,133.03218 C607.143112,129.641127 605.330406,128.062876 602.912461,128.062876 C600.96158,128.062876 600.088138,129.134437 599.600454,129.886156 L599.600454,128.322413 L595.925583,128.322413 C595.974014,129.358362 595.925583,139.362552 595.925583,139.362552 L599.600454,139.362552 L599.600454,133.196827 C599.600454,132.866874 599.624302,132.537727 599.721458,132.301491 C599.98702,131.642317 600.591671,130.959842 601.60681,130.959842 C602.93697,130.959842 603.468681,131.972197 603.468681,133.455778 L603.468681,139.362259 L607.142965,139.362259 L607.143112,133.03218 Z" id="Linkedin"></path>
        </g>
    </g>
</svg>