<?xml version="1.0" encoding="UTF-8" standalone="no"?>
<svg width="18px" height="17px" viewBox="0 0 18 17" version="1.1" xmlns="http://www.w3.org/2000/svg" xmlns:xlink="http://www.w3.org/1999/xlink">
    <!-- Generator: Sketch 41.2 (35397) - http://www.bohemiancoding.com/sketch -->
    <title>Linkedin2</title>
    <desc>Created with Sketch.</desc>
    <defs></defs>
    <g id="Cortes" stroke="none" stroke-width="1" fill="none" fill-rule="evenodd">
        <g id="Pregrado" transform="translate(-494.000000, -248.000000)" fill="#0077B5">
            <path d="M497.891709,253.32212 L494.217278,253.32212 L494.217278,264.362259 L497.891709,264.362259 L497.891709,253.32212 Z M498.133716,249.906959 C498.109868,248.82448 497.335782,248 496.078782,248 C494.821783,248 494,248.82448 494,249.906959 C494,250.967016 494.797494,251.815237 496.031085,251.815237 L496.054567,251.815237 C497.335782,251.815237 498.133716,250.967016 498.133716,249.906959 Z M511.143112,258.03218 C511.143112,254.641127 509.330406,253.062876 506.912461,253.062876 C504.96158,253.062876 504.088138,254.134437 503.600454,254.886156 L503.600454,253.322413 L499.925583,253.322413 C499.974014,254.358362 499.925583,264.362552 499.925583,264.362552 L503.600454,264.362552 L503.600454,258.196827 C503.600454,257.866874 503.624302,257.537727 503.721458,257.301491 C503.98702,256.642317 504.591671,255.959842 505.60681,255.959842 C506.93697,255.959842 507.468681,256.972197 507.468681,258.455778 L507.468681,264.362259 L511.142965,264.362259 L511.143112,258.03218 Z" id="Linkedin2"></path>
        </g>
    </g>
</svg>