<?xml version="1.0" encoding="UTF-8" standalone="no"?>
<svg width="10px" height="7px" viewBox="0 0 10 7" version="1.1" xmlns="http://www.w3.org/2000/svg" xmlns:xlink="http://www.w3.org/1999/xlink">
    <!-- Generator: Sketch 41.2 (35397) - http://www.bohemiancoding.com/sketch -->
    <title>LittleArrowBlack</title>
    <desc>Created with Sketch.</desc>
    <defs></defs>
    <g id="Cortes" stroke="none" stroke-width="1" fill="none" fill-rule="evenodd">
        <g id="Pregrado" transform="translate(-190.000000, -236.000000)" fill="#4A4A4A">
            <path d="M198.048135,235.023334 C198.15253,234.92885 198.15253,234.775657 198.048135,234.681205 L197.544091,234.224979 C197.493979,234.179592 197.425975,234.154108 197.355083,234.154108 C197.284192,234.154108 197.216188,234.179592 197.166076,234.224979 L191.924187,238.969205 C191.819793,239.063689 191.819793,239.216883 191.924187,239.311334 L197.16604,244.05556 C197.216152,244.100947 197.284156,244.126431 197.355048,244.126431 C197.425939,244.126431 197.493943,244.100947 197.544055,244.05556 L198.048099,243.599334 C198.152494,243.50485 198.152494,243.351657 198.048099,243.257205 L193.499334,239.14027 L198.048135,235.023334 Z" id="LittleArrowBlack" transform="translate(194.986161, 239.140270) scale(-1, 1) rotate(-90.000000) translate(-194.986161, -239.140270) "></path>
        </g>
    </g>
</svg>