<svg xmlns="http://www.w3.org/2000/svg" width="199.083" height="57.24" viewBox="0 0 199.083 57.24"><path d="M.972,7.819C-3.61-3.3-5.224-14.822-5.224-26.7a91.7,91.7,0,0,1,1.181-15.3H.328A68.222,68.222,0,0,0-1.056-27.368,110.547,110.547,0,0,0,3.207,3.84,110.548,110.548,0,0,0,7.471-27.368,68.222,68.222,0,0,0,6.087-42.006h4.369a91.836,91.836,0,0,1,1.184,15.3c0,11.879-1.616,23.4-6.2,34.52Z" transform="translate(19.502 49.421)" fill="#ff893b"/><path d="M.05.04A.971.971,0,1,1-.015,1.411.97.97,0,0,1,.05.04" transform="translate(38.278 19.639)" fill="#ff893b"/><path d="M.05.04A.971.971,0,1,1-.015,1.411.97.97,0,0,1,.05.04" transform="translate(38.278 22.652)" fill="#ff893b"/><path d="M.049.039A.971.971,0,1,1-.013,1.412.976.976,0,0,1,.049.039" transform="translate(40.33 25.001)" fill="#ff893b"/><path d="M.049.04A.971.971,0,1,1-.013,1.411.973.973,0,0,1,.049.04" transform="translate(37.665 32.86)" fill="#ff893b"/><path d="M.055.035A.972.972,0,1,1-.078,1.4.975.975,0,0,1,.055.035" transform="translate(37.556 35.915)" fill="#ff893b"/><path d="M.057.033A.972.972,0,1,1-.1,1.4.969.969,0,0,1,.057.033" transform="translate(39.519 38.36)" fill="#ff893b"/><path d="M.05.039A.971.971,0,1,1-.016,1.411.971.971,0,0,1,.05.039" transform="translate(39.721 30.982)" fill="#ff893b"/><path d="M.064.028A.971.971,0,1,1-.163,1.382.971.971,0,0,1,.064.028" transform="translate(35.669 45.968)" fill="#ff893b"/><path d="M.067.026A.97.97,0,1,1-.2,1.372.971.971,0,0,1,.067.026" transform="translate(35.438 49.342)" fill="#ff893b"/><path d="M.064.028A.971.971,0,1,1-.163,1.38.972.972,0,0,1,.064.028" transform="translate(37.956 44.33)" fill="#ff893b"/><path d="M.015.086a.97.97,0,1,1,.448,1.3A.97.97,0,0,1,.015.086" transform="translate(42.697 15.042)" fill="#ff893b"/><path d="M0,.145A.97.97,0,1,1,.919,1.161.971.971,0,0,1,0,.145" transform="translate(43.509 11.963)" fill="#ff893b"/><path d="M0,.181A.97.97,0,0,1,.776-.953.97.97,0,0,1,1.91-.18.972.972,0,0,1,1.137.953.972.972,0,0,1,0,.181" transform="translate(43.388 8.475)" fill="#ff893b"/><path d="M.021.229A.972.972,0,0,1,.37-1.1.968.968,0,0,1,1.7-.752.967.967,0,0,1,1.348.576.971.971,0,0,1,.021.229" transform="translate(42.298 5.333)" fill="#ff893b"/><path d="M.05.04A.97.97,0,1,1-.014,1.41.97.97,0,0,1,.05.04" transform="translate(40.701 17.393)" fill="#ff893b"/><path d="M.255.04A.971.971,0,0,0-1.115.1a.969.969,0,0,0,.064,1.371A.968.968,0,0,0,.318,1.411.973.973,0,0,0,.255.04" transform="translate(6.867 19.638)" fill="#ff893b"/><path d="M.255.039a.971.971,0,0,0-1.37.066.968.968,0,0,0,.064,1.37A.966.966,0,0,0,.318,1.411.973.973,0,0,0,.255.039" transform="translate(6.867 22.651)" fill="#ff893b"/><path d="M.255.04A.966.966,0,0,0-1.113.106a.969.969,0,0,0,.059,1.37A.973.973,0,0,0,.32,1.411.973.973,0,0,0,.255.04" transform="translate(4.813 25.001)" fill="#ff893b"/><path d="M.255.04A.972.972,0,0,0-1.116.1a.971.971,0,0,0,.063,1.37A.97.97,0,0,0,.318,1.411.972.972,0,0,0,.255.04" transform="translate(7.479 32.859)" fill="#ff893b"/><path d="M.249.034A.972.972,0,0,0-1.116.169.972.972,0,0,0-.985,1.535.969.969,0,0,0,.381,1.4.972.972,0,0,0,.249.034" transform="translate(7.588 35.914)" fill="#ff893b"/><path d="M.247.033A.969.969,0,0,0-1.115.188.968.968,0,0,0-.962,1.551.969.969,0,0,0,.4,1.4.973.973,0,0,0,.247.033" transform="translate(5.626 38.36)" fill="#ff893b"/><path d="M.255.039a.971.971,0,0,0-1.37.066.97.97,0,0,0,.063,1.37A.97.97,0,0,0,.319,1.411.972.972,0,0,0,.255.039" transform="translate(5.424 30.982)" fill="#ff893b"/><path d="M.241.028A.97.97,0,0,0-1.113.257.968.968,0,0,0-.884,1.609.968.968,0,0,0,.468,1.382.974.974,0,0,0,.241.028" transform="translate(9.475 45.968)" fill="#ff893b"/><path d="M.237.026A.972.972,0,0,0-1.109.295.969.969,0,0,0-.841,1.64.967.967,0,0,0,.5,1.373.974.974,0,0,0,.237.026" transform="translate(9.707 49.341)" fill="#ff893b"/><path d="M.24.028a.969.969,0,0,0-1.351.23A.969.969,0,0,0-.882,1.61.97.97,0,0,0,.47,1.38.97.97,0,0,0,.24.028" transform="translate(7.186 44.33)" fill="#ff893b"/><path d="M.289.086a.97.97,0,0,0-1.3-.447.969.969,0,0,0-.45,1.3.968.968,0,0,0,1.3.45.973.973,0,0,0,.45-1.3" transform="translate(2.448 15.041)" fill="#ff893b"/><path d="M.3.145A.971.971,0,0,0-.714-.776.968.968,0,0,0-1.635.241a.97.97,0,0,0,1.017.92A.974.974,0,0,0,.3.145" transform="translate(1.636 11.963)" fill="#ff893b"/><path d="M.3.181A.971.971,0,0,0-.471-.953.97.97,0,0,0-1.605-.18.971.971,0,0,0-.832.953.973.973,0,0,0,.3.181" transform="translate(1.757 8.475)" fill="#ff893b"/><path d="M.284.229A.97.97,0,0,0-.064-1.1a.97.97,0,0,0-1.327.348A.969.969,0,0,0-1.042.576.97.97,0,0,0,.284.229" transform="translate(2.844 5.333)" fill="#ff893b"/><path d="M.255.04A.969.969,0,0,0-1.115.1a.97.97,0,0,0,.062,1.37A.974.974,0,0,0,.32,1.411.974.974,0,0,0,.255.04" transform="translate(4.443 17.393)" fill="#ff893b"/><path d="M1.054.423a.826.826,0,1,1,.053,1.168A.826.826,0,0,1,1.054.423M8.854,43.6,3.316,39.693a1.022,1.022,0,0,1-.16-1.44l3.7-4.337a2.058,2.058,0,0,0-.135-2.908l-4.64-4.224a1.027,1.027,0,0,1-.065-1.448L6.248,20.7a2.057,2.057,0,0,0-.133-2.907L-.028,12.181A2.131,2.131,0,0,1-.16,9.274L6.233.736a1.717,1.717,0,0,0-.111-2.422,2.809,2.809,0,0,0-2.3-.555A10.638,10.638,0,0,0-5.592,9.809c.334,3.071,1.43,4.175,2.032,4.722l4.626,4.225A1.023,1.023,0,0,1,1.131,20.2l-4.226,4.635a2.059,2.059,0,0,0,.134,2.908l4.635,4.226a1.024,1.024,0,0,1,.069,1.449l-3.722,4.665a2.058,2.058,0,0,0,.32,2.892L3.893,44.94a1.024,1.024,0,0,1,.172,1.44l-2.39,3.573a2.058,2.058,0,1,0,3.346,2.4l4.185-5.86A2.059,2.059,0,0,0,8.854,43.6" transform="translate(7.527 2.27)" fill="#ff893b"/><path d="M1.339.606A.828.828,0,0,1,.171.551.826.826,0,0,1,.228-.616a.824.824,0,0,1,1.165.053A.827.827,0,0,1,1.339.606M-1.373-3.226a2.807,2.807,0,0,0-2.3.555,1.717,1.717,0,0,0-.11,2.422L2.609,8.289a2.132,2.132,0,0,1-.135,2.906L-3.67,16.806A2.056,2.056,0,0,0-3.8,19.714l4.23,4.638A1.023,1.023,0,0,1,.361,25.8l-4.64,4.225a2.059,2.059,0,0,0-.135,2.907l3.706,4.337A1.028,1.028,0,0,1-.867,38.71l-5.54,3.9a2.056,2.056,0,0,0-.35,2.889l4.184,5.86a2.056,2.056,0,0,0,2.87.476,2.058,2.058,0,0,0,.474-2.872L-1.62,45.393a1.022,1.022,0,0,1,.174-1.438L4.1,40A2.056,2.056,0,0,0,4.426,37.1L.7,32.438A1.022,1.022,0,0,1,.771,30.99l4.638-4.229a2.06,2.06,0,0,0,.133-2.907L1.315,19.219a1.024,1.024,0,0,1,.065-1.448l4.626-4.224c.6-.549,1.7-1.652,2.031-4.723a10.637,10.637,0,0,0-9.41-12.05" transform="translate(35.475 3.256)" fill="#ff893b"/><path d="M18.4,1.953V-8.728H21.38a10.031,10.031,0,0,1,2.085.212,4.515,4.515,0,0,1,1.516.636A4.782,4.782,0,0,1,26.6-5.988a5.693,5.693,0,0,1,.58,2.611A5.84,5.84,0,0,1,26.6-.763a4.9,4.9,0,0,1-1.617,1.888,4.568,4.568,0,0,1-1.516.642,10.274,10.274,0,0,1-2.085.186Zm5.6.594a4.967,4.967,0,0,0,1.8-.869,5.883,5.883,0,0,0,1.8-2.193A6.475,6.475,0,0,0,28.259-3.4a6.523,6.523,0,0,0-.648-2.882,5.909,5.909,0,0,0-1.8-2.2,5.135,5.135,0,0,0-1.783-.871,10.026,10.026,0,0,0-2.4-.27H17.378V2.839h4.245a8.727,8.727,0,0,0,2.385-.292M6.2-2.116,8.464-7.5,10.7-2.116ZM8.253-9.142,3.131,2.839h1L5.872-1.3h5.154l1.748,4.143h1L8.649-9.142ZM-8.58,1.953V-8.728h2.967a10.055,10.055,0,0,1,2.088.212,4.552,4.552,0,0,1,1.517.636A4.927,4.927,0,0,1-.384-5.988,5.859,5.859,0,0,1,.188-3.378,6.014,6.014,0,0,1-.384-.763,5.05,5.05,0,0,1-2.009,1.125a4.607,4.607,0,0,1-1.517.642,10.3,10.3,0,0,1-2.088.186Zm5.6.594a5.339,5.339,0,0,0,1.806-.869A5.986,5.986,0,0,0,.627-.516,6.555,6.555,0,0,0,1.263-3.4,6.6,6.6,0,0,0,.627-6.281a6.019,6.019,0,0,0-1.8-2.194,5.52,5.52,0,0,0-1.792-.871,9.929,9.929,0,0,0-2.4-.27H-9.634V2.839h4.269a8.761,8.761,0,0,0,2.384-.292M-14.243-9.617h-1.049V2.84h1.049ZM-19.26-.4a3.8,3.8,0,0,0-.2-1.183,3.327,3.327,0,0,0-.607-.989,6.545,6.545,0,0,0-2.28-1.347c-.122-.062-.2-.088-.266-.13A5.632,5.632,0,0,1-24.582-5.2a1.879,1.879,0,0,1-.458-1.325,2.206,2.206,0,0,1,.7-1.683,2.607,2.607,0,0,1,1.82-.662,4.045,4.045,0,0,1,1.372.246,6.51,6.51,0,0,1,1.473.789V-8.953a7.192,7.192,0,0,0-1.389-.623,5.592,5.592,0,0,0-1.408-.21,3.583,3.583,0,0,0-2.573.936,3.082,3.082,0,0,0-.994,2.358,2.829,2.829,0,0,0,.644,1.936,6.7,6.7,0,0,0,2.424,1.483,6.8,6.8,0,0,1,2.181,1.249,2.013,2.013,0,0,1,.467,1.393,2.363,2.363,0,0,1-.7,1.818,2.65,2.65,0,0,1-1.9.668,3.941,3.941,0,0,1-1.5-.337A7,7,0,0,1-26.075.7v1.2a6.675,6.675,0,0,0,1.578.83A4.918,4.918,0,0,0-22.9,3a3.626,3.626,0,0,0,2.612-.95A3.209,3.209,0,0,0-19.26-.4M-36.914-8.763h2.07a3.324,3.324,0,0,1,2.154.6,2.011,2.011,0,0,1,.745,1.675,2.463,2.463,0,0,1-.327,1.334,2.129,2.129,0,0,1-1.019.84,3.9,3.9,0,0,1-.911.256c-.382.036-1.021.058-1.943.058h-.769Zm0,5.613h1A6.943,6.943,0,0,1-34.325-3a1.8,1.8,0,0,1,.875.473,9.313,9.313,0,0,1,.655.831c.27.372.623.869,1,1.477l1.969,3.06h1.116l-3.4-5.239a3.493,3.493,0,0,0-.47-.6,4.493,4.493,0,0,0-.625-.454A3.448,3.448,0,0,0-31.445-4.6a2.966,2.966,0,0,0,.58-1.89A2.73,2.73,0,0,0-31.9-8.809a4.879,4.879,0,0,0-3-.808H-37.9V2.839h.981Zm-5.373,5.138h-5.825V-3.073h5.491v-.8h-5.491V-8.809h5.683v-.808h-6.679V2.839h6.822ZM-57.295,3.045l5.226-12.662h-1.059L-57.38.834l-4.2-10.451h-1.1l5.244,12.662Zm-10.012-.206h1.06V-9.617h-1.06ZM-81.86-8.351l9.12,11h.911V-9.785h-.979V1.054L-81.821-9.785h-1.035V2.653h1ZM-93.117,3.942a5.533,5.533,0,0,0,4.236-1.68,6.451,6.451,0,0,0,1.569-4.522v-8.232H-88.5V-2.2a5.138,5.138,0,0,1-1.232,3.608,4.48,4.48,0,0,1-3.385,1.35,4.386,4.386,0,0,1-3.36-1.35A5.034,5.034,0,0,1-97.746-2.2v-8.295h-1.13v8.232a6.32,6.32,0,0,0,1.553,4.522,5.483,5.483,0,0,0,4.206,1.68M-28.232,22.8a6.621,6.621,0,0,1-1.476,2.166,6.557,6.557,0,0,1-2.215,1.446,7.338,7.338,0,0,1-2.678.5,7.345,7.345,0,0,1-2.656-.5,7.06,7.06,0,0,1-2.206-1.446A6.365,6.365,0,0,1-40.94,22.8a6.2,6.2,0,0,1-.517-2.547,6.494,6.494,0,0,1,.517-2.572,6.6,6.6,0,0,1,1.478-2.134,7.71,7.71,0,0,1,2.267-1.47,6.878,6.878,0,0,1,2.6-.5,6.871,6.871,0,0,1,2.632.5,6.576,6.576,0,0,1,2.225,1.47,6.7,6.7,0,0,1,1.528,2.2,6.38,6.38,0,0,1,.5,2.509,6.253,6.253,0,0,1-.512,2.547m1.286-9.786A10.772,10.772,0,0,0-30.427,10.8a11.778,11.778,0,0,0-4.173-.765,11.44,11.44,0,0,0-4.1.765,10.4,10.4,0,0,0-3.5,2.212A10.021,10.021,0,0,0-44.569,16.3a9.709,9.709,0,0,0-.824,3.87,9.977,9.977,0,0,0,.807,3.984A10.072,10.072,0,0,0-42.2,27.509a10.7,10.7,0,0,0,3.481,2.2,11.507,11.507,0,0,0,4.119.764,11.551,11.551,0,0,0,4.15-.745,11.072,11.072,0,0,0,3.525-2.216,10.319,10.319,0,0,0,2.343-3.274,9.682,9.682,0,0,0,.807-3.9,9.99,9.99,0,0,0-.788-3.972,10.131,10.131,0,0,0-2.383-3.345m64.57,13.772V21.868h9.452V18.433H37.624V13.706h9.748v-3.42H33.628V30.2H47.687V26.787ZM27.57,22.516a3.673,3.673,0,0,1-1.345,3,5.493,5.493,0,0,1-3.669,1.173,6.224,6.224,0,0,1-2.426-.458,4.918,4.918,0,0,1-1.827-1.35,2.605,2.605,0,0,1-.552-1.122,10.639,10.639,0,0,1-.195-2.467V10.2H13.851V21.4a13.487,13.487,0,0,0,.333,3.48,5.7,5.7,0,0,0,1.135,2.153,8.312,8.312,0,0,0,3.133,2.4,10.155,10.155,0,0,0,4.1.811,9.259,9.259,0,0,0,6.262-2.111A6.876,6.876,0,0,0,31.255,22.6V10.2H27.57Zm-19.791.27a6.715,6.715,0,0,1-1.476,2.2L6.282,25a6.879,6.879,0,0,1-2.217,1.534,6.974,6.974,0,0,1-2.611.512,6.7,6.7,0,0,1-2.613-.531A7.182,7.182,0,0,1-3.383,25v-.019a6.415,6.415,0,0,1-1.463-2.2,6.532,6.532,0,0,1-.52-2.617,6.7,6.7,0,0,1,.52-2.647A6.549,6.549,0,0,1-3.4,15.336,7.2,7.2,0,0,1-1.133,13.83a6.548,6.548,0,0,1,2.588-.517,6.521,6.521,0,0,1,2.611.517,6.377,6.377,0,0,1,2.205,1.491,6.794,6.794,0,0,1,1.509,2.26,6.386,6.386,0,0,1,.515,2.589,6.63,6.63,0,0,1-.515,2.617m2.2,4.143a9.493,9.493,0,0,0,2.242-6.275,10.824,10.824,0,0,0-.791-4.095A10.613,10.613,0,0,0,9.06,13.167,10.347,10.347,0,0,0,5.6,10.906a11.221,11.221,0,0,0-4.146-.786,10.979,10.979,0,0,0-4.1.786,10.715,10.715,0,0,0-3.491,2.261,10.3,10.3,0,0,0-2.314,3.354,9.635,9.635,0,0,0-.839,3.943,10.21,10.21,0,0,0,2.228,6.513A10.38,10.38,0,0,0-1.3,30.637,26.251,26.251,0,0,0,3.691,33.5a11.468,11.468,0,0,0,4.44,1.018h.393a1.467,1.467,0,0,0,.324-.032l.163-.024,2.952-2.6-.225-.622-.163-.394-.39.087a9.878,9.878,0,0,1-1.022.158,4.555,4.555,0,0,1-.814.051,10.454,10.454,0,0,1-2.417-.316c-.522-.147-1.122-.357-1.758-.6a11.071,11.071,0,0,0,4.8-3.294m-25.087-8.435h0l-.428-.234a13.565,13.565,0,0,1-2.515-1.782,2.883,2.883,0,0,1-.556-.7.9.9,0,0,1-.166-.479,1.345,1.345,0,0,1,.637-1.166,3.1,3.1,0,0,1,1.869-.515,5.377,5.377,0,0,1,2.028.39,10.325,10.325,0,0,1,2.283,1.374l.8.6V11.691l-.24-.147a11.752,11.752,0,0,0-2.37-.99,9.238,9.238,0,0,0-2.389-.334,6.917,6.917,0,0,0-4.53,1.495,4.94,4.94,0,0,0-1.807,3.894,4.7,4.7,0,0,0,.952,2.946,8.568,8.568,0,0,0,1.58,1.408c.726.547,1.651,1.143,2.774,1.834.709.4,1.276.782,1.719,1.095a6.022,6.022,0,0,1,.9.743,1.994,1.994,0,0,1,.452,1.245,1.578,1.578,0,0,1-.665,1.324,3.268,3.268,0,0,1-2.008.536,5.037,5.037,0,0,1-2.388-.575A9.829,9.829,0,0,1-21.6,24.218l-.868-.941v4.981l.214.141a8.256,8.256,0,0,0,2.608,1.41,9.241,9.241,0,0,0,3.037.463,6.881,6.881,0,0,0,4.53-1.493,4.886,4.886,0,0,0,1.816-3.861,5.706,5.706,0,0,0-.969-3.378,12.148,12.148,0,0,0-3.88-3.045M-51.43,25.918a4.706,4.706,0,0,1-2.857.638h-3.451V21.165h2.965a5.666,5.666,0,0,1,3.231.7,2.308,2.308,0,0,1,.9,2.056,2.278,2.278,0,0,1-.789,1.994m-6.308-13.6h2.328a3.994,3.994,0,0,1,2.465.575,1.778,1.778,0,0,1,.5.7,3.392,3.392,0,0,1,.168,1.121,2.345,2.345,0,0,1-.9,2.072,5.262,5.262,0,0,1-3.065.707h-1.5Zm7.364,6.4a4.831,4.831,0,0,0,1.366-1.242,4.839,4.839,0,0,0,.848-2.939,5.392,5.392,0,0,0-1.862-4.353,7.672,7.672,0,0,0-5.08-1.51H-61.68V30.247h7.705a8.437,8.437,0,0,0,5.409-1.639,5.44,5.44,0,0,0,2.073-4.478,5.52,5.52,0,0,0-1.346-3.709,6.5,6.5,0,0,0-2.536-1.7M-78.71,10.182h-4V30.247h14.049V26.825H-78.71ZM-94.817,21.191h9.393V17.539h-9.393V12.294h9.658v-3.6H-98.8V30.247h13.956V26.6h-9.973Z" transform="translate(151.395 18.054)" fill="#394024"/></svg>