<?xml version="1.0" encoding="UTF-8" standalone="no"?>
<svg width="31px" height="42px" viewBox="0 0 31 42" version="1.1" xmlns="http://www.w3.org/2000/svg" xmlns:xlink="http://www.w3.org/1999/xlink">
    <!-- Generator: Sketch 41.2 (35397) - http://www.bohemiancoding.com/sketch -->
    <title>RequisitosHover</title>
    <desc>Created with Sketch.</desc>
    <defs></defs>
    <g id="Cortes" stroke="none" stroke-width="1" fill="none" fill-rule="evenodd">
        <g id="Pregrado" transform="translate(-287.000000, -110.000000)" fill="#FFFFFF">
            <path d="M299.226981,124.775409 L299.226981,120.970591 C299.226981,120.185 299.855441,119.545455 300.628569,119.545455 C301.401698,119.545455 302.030158,120.185 302.030158,120.970591 L302.030158,125.252682 L302.030158,126.905955 L302.030158,126.960364 L302.030158,136.451409 C302.030158,136.979273 302.45101,137.405955 302.96956,137.405955 C303.48905,137.405955 303.908963,136.979273 303.908963,136.451409 L303.908963,128.869455 C304.364573,128.869455 304.813607,128.701455 305.164944,128.379773 C305.287066,128.269045 305.493735,128.136364 305.787768,128.136364 C306.284712,128.136364 306.686776,128.516273 306.724352,129.020273 C306.734685,129.150091 306.771322,129.270364 306.805141,129.392545 C306.756292,129.508045 306.72717,129.635 306.72717,129.769591 L306.72717,137.405955 C306.72717,137.933818 307.148023,138.3605 307.666573,138.3605 C308.186062,138.3605 308.605975,137.933818 308.605975,137.405955 L308.605975,130.784273 C309.061585,130.782364 309.508741,130.613409 309.859138,130.291727 C309.98126,130.179091 310.188868,130.045455 310.48478,130.045455 C311.011785,130.045455 311.424183,130.468318 311.424183,131.008591 L311.424183,132.633227 L311.424183,132.684773 L311.424183,138.3605 C311.424183,138.888364 311.845035,139.315045 312.363585,139.315045 C312.883075,139.315045 313.302988,138.888364 313.302988,138.3605 L313.302988,134.593864 C313.756719,134.593864 314.204814,134.426818 314.556151,134.107045 C314.678273,133.996318 314.885881,133.863636 315.181793,133.863636 C315.700343,133.863636 316.121195,134.291273 316.121195,134.817227 L316.121195,141.507636 C316.121195,146.240273 312.331645,150.090909 307.674088,150.090909 C304.60506,150.090909 301.772762,148.395636 300.28193,145.664682 C300.238717,145.585455 300.186111,145.504318 300.131625,145.432727 L300.10814,145.400273 L291.923127,133.408318 C291.557699,132.873773 291.635669,131.933545 292.068734,131.487773 C292.246281,131.310227 292.479253,131.211909 292.726316,131.211909 C292.974318,131.211909 293.208229,131.312136 293.386716,131.4935 L296.019861,134.167182 C296.379652,134.532773 296.859687,134.726545 297.348176,134.726545 C297.590542,134.726545 297.834786,134.678818 298.067758,134.581455 C298.769492,134.285545 299.226981,133.589682 299.226981,132.817455 L299.226981,124.775409 Z M295.426158,123.363636 L295.426158,123.364591 L295.426158,123.363636 Z M297.348176,123.364591 L297.348176,132.817455 L294.715031,130.142818 C294.163601,129.5825 293.444959,129.302818 292.726316,129.302818 C292.010491,129.302818 291.296545,129.579636 290.747934,130.130409 C289.665742,131.2415 289.493832,133.201182 290.379688,134.497455 L298.564702,146.488455 C298.589127,146.522818 298.613551,146.558136 298.638915,146.591545 C300.401234,149.817909 303.78684,152 307.674088,152 C313.37814,152 318,147.301727 318,141.507636 L318,141.503818 L318,141.500955 L318,134.817227 C318,133.235545 316.738382,131.954545 315.181793,131.954545 C314.461271,131.954545 313.80275,132.230409 313.302988,132.684773 L313.302988,132.633227 L313.302988,131.008591 C313.302988,129.411636 312.04137,128.136364 310.48478,128.136364 C309.760501,128.136364 309.098222,128.416045 308.59846,128.876136 C308.486671,127.386091 307.271084,126.227273 305.787768,126.227273 C305.067246,126.227273 304.408725,126.504091 303.908963,126.960364 L303.908963,126.905955 L303.908963,123.364591 L297.348176,123.364591 Z M305.87795,123.364591 L305.87795,123.363636 L305.87795,123.364591 Z M303.908963,123.363636 L303.908963,120.970591 C303.908963,119.133091 302.440677,117.636364 300.628569,117.636364 C298.82022,117.636364 297.348176,119.129273 297.348176,120.970591 L297.348176,123.363636 L303.908963,123.363636 Z M293.578636,121.454545 C290.985885,121.454545 288.878805,119.312545 288.878805,116.681818 C288.878805,114.0425 290.97743,111.909091 293.578636,111.909091 L310.482244,111.909091 C313.075934,111.909091 315.182074,114.051091 315.182074,116.681818 C315.182074,119.321136 313.083449,121.454545 310.482244,121.454545 L305.878232,121.454545 L305.878232,123.363636 L310.482244,123.363636 C314.123368,123.363636 317.060879,120.372091 317.060879,116.681818 C317.060879,112.999182 314.115853,110 310.482244,110 L293.578636,110 C289.937512,110 287,112.991545 287,116.681818 C287,120.364455 289.945027,123.363636 293.578636,123.363636 L295.42644,123.363636 L295.42644,121.454545 L293.578636,121.454545 Z" id="RequisitosHover"></path>
        </g>
    </g>
</svg>