<?xml version="1.0" encoding="UTF-8" standalone="no"?>
<svg width="31px" height="42px" viewBox="0 0 31 42" version="1.1" xmlns="http://www.w3.org/2000/svg" xmlns:xlink="http://www.w3.org/1999/xlink">
    <!-- Generator: Sketch 41.2 (35397) - http://www.bohemiancoding.com/sketch -->
    <title>RequisitosNormal</title>
    <desc>Created with Sketch.</desc>
    <defs></defs>
    <g id="Cortes" stroke="none" stroke-width="1" fill="none" fill-rule="evenodd" opacity="0.7">
        <g id="Pregrado" transform="translate(-287.000000, -26.000000)" fill="#FFFFFF">
            <path d="M299.226981,40.7754091 L299.226981,36.9705909 C299.226981,36.185 299.855441,35.5454545 300.628569,35.5454545 C301.401698,35.5454545 302.030158,36.185 302.030158,36.9705909 L302.030158,41.2526818 L302.030158,42.9059545 L302.030158,42.9603636 L302.030158,52.4514091 C302.030158,52.9792727 302.45101,53.4059545 302.96956,53.4059545 C303.48905,53.4059545 303.908963,52.9792727 303.908963,52.4514091 L303.908963,44.8694545 C304.364573,44.8694545 304.813607,44.7014545 305.164944,44.3797727 C305.287066,44.2690455 305.493735,44.1363636 305.787768,44.1363636 C306.284712,44.1363636 306.686776,44.5162727 306.724352,45.0202727 C306.734685,45.1500909 306.771322,45.2703636 306.805141,45.3925455 C306.756292,45.5080455 306.72717,45.635 306.72717,45.7695909 L306.72717,53.4059545 C306.72717,53.9338182 307.148023,54.3605 307.666573,54.3605 C308.186062,54.3605 308.605975,53.9338182 308.605975,53.4059545 L308.605975,46.7842727 C309.061585,46.7823636 309.508741,46.6134091 309.859138,46.2917273 C309.98126,46.1790909 310.188868,46.0454545 310.48478,46.0454545 C311.011785,46.0454545 311.424183,46.4683182 311.424183,47.0085909 L311.424183,48.6332273 L311.424183,48.6847727 L311.424183,54.3605 C311.424183,54.8883636 311.845035,55.3150455 312.363585,55.3150455 C312.883075,55.3150455 313.302988,54.8883636 313.302988,54.3605 L313.302988,50.5938636 C313.756719,50.5938636 314.204814,50.4268182 314.556151,50.1070455 C314.678273,49.9963182 314.885881,49.8636364 315.181793,49.8636364 C315.700343,49.8636364 316.121195,50.2912727 316.121195,50.8172273 L316.121195,57.5076364 C316.121195,62.2402727 312.331645,66.0909091 307.674088,66.0909091 C304.60506,66.0909091 301.772762,64.3956364 300.28193,61.6646818 C300.238717,61.5854545 300.186111,61.5043182 300.131625,61.4327273 L300.10814,61.4002727 L291.923127,49.4083182 C291.557699,48.8737727 291.635669,47.9335455 292.068734,47.4877727 C292.246281,47.3102273 292.479253,47.2119091 292.726316,47.2119091 C292.974318,47.2119091 293.208229,47.3121364 293.386716,47.4935 L296.019861,50.1671818 C296.379652,50.5327727 296.859687,50.7265455 297.348176,50.7265455 C297.590542,50.7265455 297.834786,50.6788182 298.067758,50.5814545 C298.769492,50.2855455 299.226981,49.5896818 299.226981,48.8174545 L299.226981,40.7754091 Z M295.426158,39.3636364 L295.426158,39.3645909 L295.426158,39.3636364 Z M297.348176,39.3645909 L297.348176,48.8174545 L294.715031,46.1428182 C294.163601,45.5825 293.444959,45.3028182 292.726316,45.3028182 C292.010491,45.3028182 291.296545,45.5796364 290.747934,46.1304091 C289.665742,47.2415 289.493832,49.2011818 290.379688,50.4974545 L298.564702,62.4884545 C298.589127,62.5228182 298.613551,62.5581364 298.638915,62.5915455 C300.401234,65.8179091 303.78684,68 307.674088,68 C313.37814,68 318,63.3017273 318,57.5076364 L318,57.5038182 L318,57.5009545 L318,50.8172273 C318,49.2355455 316.738382,47.9545455 315.181793,47.9545455 C314.461271,47.9545455 313.80275,48.2304091 313.302988,48.6847727 L313.302988,48.6332273 L313.302988,47.0085909 C313.302988,45.4116364 312.04137,44.1363636 310.48478,44.1363636 C309.760501,44.1363636 309.098222,44.4160455 308.59846,44.8761364 C308.486671,43.3860909 307.271084,42.2272727 305.787768,42.2272727 C305.067246,42.2272727 304.408725,42.5040909 303.908963,42.9603636 L303.908963,42.9059545 L303.908963,39.3645909 L297.348176,39.3645909 Z M305.87795,39.3645909 L305.87795,39.3636364 L305.87795,39.3645909 Z M303.908963,39.3636364 L303.908963,36.9705909 C303.908963,35.1330909 302.440677,33.6363636 300.628569,33.6363636 C298.82022,33.6363636 297.348176,35.1292727 297.348176,36.9705909 L297.348176,39.3636364 L303.908963,39.3636364 Z M293.578636,37.4545455 C290.985885,37.4545455 288.878805,35.3125455 288.878805,32.6818182 C288.878805,30.0425 290.97743,27.9090909 293.578636,27.9090909 L310.482244,27.9090909 C313.075934,27.9090909 315.182074,30.0510909 315.182074,32.6818182 C315.182074,35.3211364 313.083449,37.4545455 310.482244,37.4545455 L305.878232,37.4545455 L305.878232,39.3636364 L310.482244,39.3636364 C314.123368,39.3636364 317.060879,36.3720909 317.060879,32.6818182 C317.060879,28.9991818 314.115853,26 310.482244,26 L293.578636,26 C289.937512,26 287,28.9915455 287,32.6818182 C287,36.3644545 289.945027,39.3636364 293.578636,39.3636364 L295.42644,39.3636364 L295.42644,37.4545455 L293.578636,37.4545455 Z" id="RequisitosNormal"></path>
        </g>
    </g>
</svg>