<?xml version="1.0" encoding="UTF-8" standalone="no"?>
<svg width="18px" height="16px" viewBox="0 0 18 16" version="1.1" xmlns="http://www.w3.org/2000/svg" xmlns:xlink="http://www.w3.org/1999/xlink">
    <!-- Generator: Sketch 41.2 (35397) - http://www.bohemiancoding.com/sketch -->
    <title>RUBY</title>
    <desc>Created with Sketch.</desc>
    <defs></defs>
    <g id="Cortes" stroke="none" stroke-width="1" fill="none" fill-rule="evenodd">
        <g id="Falcultad" transform="translate(-330.000000, -28.000000)" fill="#4A4A4A">
            <path d="M333.360305,29.5657349 C333.411279,29.4954876 333.476369,29.4279721 333.54734,29.3624079 C333.561064,29.4494366 333.578709,29.5372457 333.61047,29.6270062 L334.969518,33.4636812 L330.78768,33.4636812 C330.790425,33.2478657 330.847281,33.0347822 330.967266,32.8685302 L333.360305,29.5657349 Z M338.251467,28.7805259 L335.528665,32.6948632 L334.349987,29.3674813 C334.262154,29.1196644 334.31705,28.93507 334.48448,28.8441387 C334.630736,28.8035514 334.77464,28.7805259 334.907173,28.7805259 L338.251467,28.7805259 Z M343.524936,28.8484316 C343.6857,28.9401434 343.73589,29.1216157 343.64845,29.3667008 L342.46389,32.6847163 L339.748538,28.7805259 L343.092832,28.7805259 C343.227717,28.7805259 343.37515,28.8055027 343.524936,28.8484316 L343.524936,28.8484316 Z M344.6397,29.5657349 L347.032739,32.8685302 C347.153116,33.0351724 347.209972,33.248256 347.212325,33.4636812 L343.017939,33.4636812 L344.387575,29.6277867 C344.419727,29.537636 344.437372,29.4494366 344.45188,29.3620177 C344.522852,29.4275818 344.588726,29.4954876 344.6397,29.5657349 L344.6397,29.5657349 Z M342.739542,34.244207 L346.916283,34.244207 L340.012427,41.8839943 L342.739542,34.244207 Z M337.952288,41.8832138 L331.080585,34.244207 L335.246347,34.244207 L337.952288,41.8832138 Z M341.907096,34.244207 L338.981181,42.4408996 L336.077617,34.244207 L341.907096,34.244207 Z M335.947829,33.4636812 L338.99961,29.0759549 L342.051784,33.4636812 L335.947829,33.4636812 Z M347.668739,32.4119225 L345.2757,29.1095175 C344.96515,28.6806186 344.417375,28.3219669 343.853523,28.136592 C343.67629,28.0495634 343.46808,28 343.233991,28 L343.092832,28 L334.907173,28 L334.76719,28 C334.53663,28 334.329597,28.0480023 334.153932,28.1334699 C333.587336,28.317674 333.037599,28.6771062 332.724305,29.1095175 L330.331266,32.4119225 C329.845443,33.0831748 329.899946,34.1021513 330.455564,34.7199376 L338.671808,43.8528709 C338.672592,43.8540417 338.673376,43.8548222 338.674552,43.855993 L338.687884,43.870823 C338.691413,43.8747256 338.69651,43.8758964 338.700039,43.879799 C338.7318,43.9129714 338.768266,43.9383385 338.807869,43.9574613 C338.817672,43.9625348 338.827475,43.9672179 338.838062,43.9715108 C338.88237,43.9882921 338.929031,43.9996097 338.976476,44 L338.982358,44 C339.030195,44 339.076856,43.9886824 339.121556,43.9719011 C339.131751,43.9676082 339.141162,43.9633153 339.151356,43.9582419 C339.191744,43.939119 339.22821,43.9133616 339.260363,43.879799 C339.263892,43.8762866 339.268597,43.8751159 339.271734,43.8716035 L339.283497,43.8587248 C339.285065,43.8567735 339.287026,43.8552124 339.288594,43.8528709 L347.54052,34.7203278 C348.099274,34.1021513 348.15613,33.0847358 347.668739,32.4119225 L347.668739,32.4119225 Z" id="RUBY"></path>
        </g>
    </g>
</svg>