<?xml version="1.0" encoding="UTF-8" standalone="no"?>
<svg width="17px" height="15px" viewBox="0 0 17 15" version="1.1" xmlns="http://www.w3.org/2000/svg" xmlns:xlink="http://www.w3.org/1999/xlink">
    <!-- Generator: Sketch 41.2 (35397) - http://www.bohemiancoding.com/sketch -->
    <title>Star</title>
    <desc>Created with Sketch.</desc>
    <defs></defs>
    <g id="Cortes" stroke="none" stroke-width="1" fill="none" fill-rule="evenodd">
        <g id="Falcultad" transform="translate(-410.000000, -152.000000)" fill="#4A4A4A">
            <path d="M421.931691,161.039717 C421.816178,161.119536 421.767505,161.260019 421.809666,161.38773 L423.383656,166.180101 C423.402166,166.234378 423.380571,166.295041 423.331555,166.330161 C423.28014,166.365282 423.210558,166.365282 423.159486,166.333354 L418.69459,163.469426 C418.63632,163.431113 418.568109,163.411956 418.500241,163.411956 C418.432373,163.411956 418.364505,163.431113 418.305891,163.469426 L413.840653,166.333354 C413.777241,166.371668 413.733024,166.371668 413.670297,166.330161 C413.619911,166.295041 413.598659,166.234378 413.616826,166.176908 L415.189788,161.38773 C415.231948,161.260019 415.183275,161.119536 415.067762,161.039717 L410.739288,158.016149 C410.688902,157.977836 410.66765,157.917173 410.687188,157.862896 C410.70604,157.808618 410.761226,157.770305 410.823609,157.767112 L416.12,157.767112 C416.262934,157.763919 416.752698,157.578738 416.8,157.451026 L418.36142,152.719319 C418.402552,152.610764 418.597244,152.610764 418.639062,152.722512 L420.2,157.451026 C420.247302,157.578738 420.397066,157.763919 420.54,157.767112 L426.175844,157.767112 C426.238571,157.770305 426.293413,157.805426 426.312951,157.862896 C426.332146,157.917173 426.311237,157.977836 426.261193,158.012957 L421.931691,161.039717 Z M426.18475,157.136199 L420.88,157.136199 L419.284978,152.517131 C419.168172,152.207491 418.852693,152 418.50022,152 C418.147062,152 417.831583,152.207491 417.715119,152.517131 L416.12,157.136199 L410.814662,157.136199 C410.459791,157.142584 410.148422,157.359651 410.04018,157.675676 C409.931252,157.988508 410.048743,158.333262 410.332709,158.531177 L414.466475,161.423282 L412.965124,165.997659 C412.861335,166.313684 412.983279,166.655246 413.268957,166.849968 C413.549839,167.041498 413.948555,167.047883 414.232863,166.862737 L418.50022,164.123856 L422.767919,166.862737 C422.908018,166.952117 423.071067,167 423.239939,167 C423.416689,167 423.586931,166.948925 423.73251,166.849968 C424.017846,166.655246 424.139105,166.313684 424.035315,165.997659 L422.532937,161.423282 L426.667389,158.531177 C426.951696,158.333262 427.068845,157.988508 426.959575,157.675676 C426.851332,157.359651 426.539964,157.142584 426.18475,157.136199 Z" id="Star"></path>
        </g>
    </g>
</svg>