<?xml version="1.0" encoding="UTF-8" standalone="no"?>
<svg width="18px" height="13px" viewBox="0 0 18 13" version="1.1" xmlns="http://www.w3.org/2000/svg" xmlns:xlink="http://www.w3.org/1999/xlink">
    <!-- Generator: Sketch 41.2 (35397) - http://www.bohemiancoding.com/sketch -->
    <title>Twitter2</title>
    <desc>Created with Sketch.</desc>
    <defs></defs>
    <g id="Cortes" stroke="none" stroke-width="1" fill="none" fill-rule="evenodd">
        <g id="Pregrado" transform="translate(-395.000000, -248.000000)" fill="#00ADF2">
            <path d="M410.461953,254.222411 C410.132616,255.451514 409.512022,256.602575 408.723395,257.604061 C406.408297,260.496662 402.900532,261.626879 399.3472,260.674766 C397.677329,260.227326 396.157564,259.297348 395,258.025306 C395.227778,258.10725 395.474973,258.194396 395.707978,258.256829 C397.10601,258.631431 398.571252,258.522194 399.888624,257.95513 C398.592905,257.587033 397.663119,256.396934 397.589925,255.039062 C397.773641,255.130109 397.962584,255.201647 398.156755,255.253675 C398.428595,255.326514 398.71089,255.360334 399.003639,255.355135 C397.645187,254.677484 396.917038,253.123208 397.34794,251.670396 L397.358395,251.631377 C397.722841,251.979953 398.152259,252.241387 398.651876,252.39617 C397.934933,251.576756 397.686239,250.485515 397.963301,249.451507 C398.109673,248.905239 398.391965,248.395391 398.789266,248 C399.844522,250.352875 401.841504,252.142582 404.270884,252.939905 C404.275364,252.690181 404.318678,252.450864 404.381408,252.216749 C404.841435,250.499906 406.591208,249.484125 408.299913,249.941972 C409.134849,250.165692 409.856272,250.735382 410.271503,251.515772 C411.007112,251.566506 411.735252,251.489777 412.431279,251.299891 C412.010081,251.939802 411.35737,252.434039 410.617282,252.633028 C411.254312,252.740989 411.883874,252.721487 412.514928,252.618743 C411.939887,253.133791 411.269252,253.539584 410.552315,253.807507 C410.535139,253.949277 410.498546,254.085844 410.461953,254.222411 Z" id="Twitter2"></path>
        </g>
    </g>
</svg>