<?xml version="1.0" encoding="UTF-8" standalone="no"?>
<svg width="27px" height="20px" viewBox="0 0 27 20" version="1.1" xmlns="http://www.w3.org/2000/svg" xmlns:xlink="http://www.w3.org/1999/xlink">
    <!-- Generator: Sketch 41.2 (35397) - http://www.bohemiancoding.com/sketch -->
    <title>Twitter</title>
    <desc>Created with Sketch.</desc>
    <defs></defs>
    <g id="Cortes" stroke="none" stroke-width="1" fill="none" fill-rule="evenodd">
        <g id="Falcultad" transform="translate(-528.000000, -121.000000)" fill="#7BC142">
            <path d="M551.872511,130.588905 C551.366342,132.477952 550.410204,134.24643 549.194259,135.784604 C545.624628,140.227256 540.209535,141.957917 534.71991,140.486977 C532.140086,139.795715 529.791121,138.36287 528.000852,136.404835 C528.352793,136.531275 528.734732,136.665753 529.094707,136.762208 C531.25456,137.340938 533.517244,137.175919 535.550644,136.306708 C533.548816,135.738182 532.110488,133.906587 531.994734,131.818759 C532.278645,131.959108 532.57059,132.069472 532.870569,132.149852 C533.29054,132.262383 533.726581,132.314944 534.17869,132.307535 C532.079358,131.262956 530.951708,128.871853 531.614285,126.639063 L531.630354,126.579094 C532.193896,127.115747 532.857606,127.518551 533.629518,127.757522 C532.520643,126.496269 532.134383,124.818024 532.560207,123.228826 C532.785171,122.38925 533.220121,121.605939 533.832918,120.998833 C535.467344,124.618407 538.555035,127.374013 542.308534,128.604724 C542.314953,128.220791 542.381369,127.852935 542.477782,127.493117 C543.184811,124.854448 545.885109,123.296215 548.524929,124.003552 C549.814841,124.349183 550.930135,125.226504 551.572972,126.427158 C552.70914,126.506629 553.833518,126.390115 554.908074,126.099563 C554.258859,127.082563 553.251809,127.841131 552.109222,128.145592 C553.09326,128.312851 554.065508,128.284125 555.039896,128.127422 C554.152838,128.918141 553.117929,129.540693 552.011236,129.951185 C551.984993,130.169117 551.928752,130.379011 551.872511,130.588905 Z" id="Twitter"></path>
        </g>
    </g>
</svg>