<?xml version="1.0" encoding="UTF-8"?>
<svg width="21px" height="15px" viewBox="0 0 21 15" version="1.1" xmlns="http://www.w3.org/2000/svg" xmlns:xlink="http://www.w3.org/1999/xlink">
    <!-- Generator: Sketch 44.1 (41455) - http://www.bohemiancoding.com/sketch -->
    <title>Twitter</title>
    <desc>Created with Sketch.</desc>
    <defs></defs>
    <g id="Plantilla-blog" stroke="none" stroke-width="1" fill="none" fill-rule="evenodd">
        <g id="Plantilla-blog-#1" transform="translate(-143.000000, -2064.000000)" fill="#C1C1C1">
            <g id="Group-7" transform="translate(100.000000, 1544.000000)">
                <g id="Group-Copy-4" transform="translate(24.000000, 519.000000)">
                    <path d="M36.8454747,8.18162049 C36.4653689,9.60019474 35.749108,10.9286965 34.8389109,12.0845647 C32.1669306,15.4230718 28.1184297,16.7275159 24.0173383,15.6286318 C22.0900495,15.1122163 20.3360066,14.0388793 19,12.5707471 C19.2628906,12.6653221 19.5481915,12.765902 19.8171156,12.83796 C21.4306597,13.2703078 23.1217751,13.144232 24.6422246,12.4897522 C23.1467656,12.0649115 22.0736496,10.6913543 21.9891718,9.12416155 C22.2012083,9.22924397 22.4192782,9.31180933 22.6433816,9.37185764 C22.9571263,9.45592528 23.2829378,9.49495882 23.6208162,9.48895825 C22.0529528,8.70684496 21.212557,6.91297089 21.7098846,5.2362017 L21.7219515,5.19116759 C22.1425777,5.5934785 22.6381918,5.89521381 23.2148271,6.07385648 C22.3873648,5.12812752 22.1003339,3.86866639 22.4201055,2.67526266 C22.5890414,2.04478522 22.9148497,1.4563416 23.3733966,1 C24.5913246,3.71557943 26.896149,5.78117745 29.7000276,6.70141039 C29.7051977,6.41319127 29.7551885,6.13698183 29.8275896,5.86677721 C30.3585311,3.88527668 32.3780382,2.71290905 34.3501477,3.2413342 C35.3137921,3.49954195 36.1464245,4.15705179 36.625665,5.05774238 C37.474671,5.11629695 38.315057,5.02773954 39.1183791,4.80858239 C38.6322517,5.54713826 37.8789237,6.11756313 37.0247475,6.34722767 C37.7599785,6.47183112 38.4865894,6.4493226 39.2149237,6.33074104 C38.551237,6.92518523 37.7772221,7.39353222 36.9497663,7.70275758 C36.9299426,7.86638177 36.8877087,8.02400113 36.8454747,8.18162049 Z" id="Twitter"></path>
                </g>
            </g>
        </g>
    </g>
</svg>