<?xml version="1.0" encoding="UTF-8" standalone="no"?>
<svg width="37px" height="24px" viewBox="0 0 37 24" version="1.1" xmlns="http://www.w3.org/2000/svg" xmlns:xlink="http://www.w3.org/1999/xlink">
    <!-- Generator: Sketch 41.2 (35397) - http://www.bohemiancoding.com/sketch -->
    <title>ValoresNormal</title>
    <desc>Created with Sketch.</desc>
    <defs></defs>
    <g id="Cortes" stroke="none" stroke-width="1" fill="none" fill-rule="evenodd" opacity="0.7">
        <g id="Pregrado" transform="translate(-881.000000, -39.000000)" fill="#FFFFFF">
            <path d="M912.499065,57.4 C912.554565,57.0768 912.654304,56.7696 912.771739,56.472 C912.865043,56.2384 912.975239,56.0144 913.10313,55.8 C913.342022,55.3984 913.635609,55.036 913.978261,54.7216 C914.224391,54.4968 914.493848,54.2992 914.782609,54.1288 C915.272457,53.8408 915.810565,53.6264 916.391304,53.528 L916.391304,57.4 L913.978261,57.4 L912.771739,57.4 L912.499065,57.4 Z M890.523478,57.4 L886.630435,57.4 L886.630435,53.528 C887.211978,53.6264 887.750087,53.8408 888.23913,54.1288 C888.932478,54.5368 889.509196,55.1112 889.919413,55.8 C890.208978,56.2864 890.424543,56.8216 890.523478,57.4 L890.523478,57.4 Z M913.102326,42.2 C912.813565,41.7136 912.598,41.1776 912.499065,40.6 L916.391304,40.6 L916.391304,44.4712 C915.810565,44.3728 915.272457,44.1592 914.782609,43.8712 C914.090065,43.4632 913.513348,42.8888 913.102326,42.2 L913.102326,42.2 Z M886.630435,43 L886.630435,40.6 L890.523478,40.6 C890.424543,41.1776 890.208978,41.7136 889.919413,42.2 C889.748087,42.4872 889.549413,42.7552 889.323391,43 C889.007283,43.3416 888.642913,43.6336 888.23913,43.8712 C888.02437,43.9976 887.799152,44.108 887.563478,44.2 C887.264261,44.3168 886.956196,44.4168 886.630435,44.4712 L886.630435,44.2 L886.630435,43 Z M912.369565,61.4 L882.608696,61.4 L882.608696,44.6 L885.021739,44.6 L885.021739,45.3392 L885.021739,46.2 L885.021739,52.6608 L885.021739,57.4 C885.021739,58.2832 885.742435,59 886.630435,59 L891.395391,59 L891.411478,59 L910.76087,59 L911.627152,59 L912.369565,59 L912.369565,61.4 Z M916.391304,51.9168 C915.82987,51.988 915.290152,52.1288 914.782609,52.336 C914.5035,52.4496 914.236457,52.5856 913.978261,52.7376 C913.540696,52.9928 913.135304,53.2976 912.771739,53.6472 C912.631783,53.7824 912.497457,53.924 912.369565,54.0712 C911.92637,54.5832 911.562,55.1648 911.299783,55.8 C911.091457,56.304 910.949891,56.8416 910.879109,57.4 L910.76087,57.4 L893.065217,57.4 L892.149065,57.4 C892.077478,56.84 891.927065,56.3048 891.718739,55.8 C891.071239,54.2336 889.814848,52.9784 888.23913,52.3344 C887.732391,52.1272 887.192674,51.988 886.630435,51.9168 L886.630435,46.2 L886.630435,46.0832 C887.192674,46.012 887.732391,45.8712 888.23913,45.664 C888.877783,45.4032 889.462543,45.0416 889.977326,44.6 C890.12613,44.4728 890.2685,44.34 890.404435,44.2 C890.75513,43.8384 891.061587,43.4352 891.318978,43 C891.470196,42.7432 891.607739,42.4776 891.721957,42.2 C891.930283,41.696 892.071848,41.1592 892.143435,40.6 L893.065217,40.6 L910.76087,40.6 L910.879109,40.6 C910.949891,41.1592 911.091457,41.696 911.299783,42.2 C911.414804,42.4776 911.551543,42.7432 911.703565,43 C912.255348,43.9336 913.039587,44.7136 913.978261,45.2632 C914.236457,45.4136 914.5035,45.5496 914.782609,45.664 C915.290152,45.8712 915.82987,46.012 916.391304,46.0832 L916.391304,51.9168 Z M916.391304,39 L911.627152,39 L891.395391,39 L886.630435,39 C885.742435,39 885.021739,39.7168 885.021739,40.6 L885.021739,43 L882.608696,43 C881.720696,43 881,43.7168 881,44.6 L881,61.4 C881,62.2832 881.720696,63 882.608696,63 L912.369565,63 C913.25837,63 913.978261,62.2832 913.978261,61.4 L913.978261,59 L916.391304,59 C917.280109,59 918,58.2832 918,57.4 L918,52.6608 L918,45.3392 L918,40.6 C918,39.7168 917.280109,39 916.391304,39 Z M901.913365,53.4 C899.695778,53.4 897.891626,51.6056 897.891626,49.4 C897.891626,48.0872 898.53993,46.9296 899.525257,46.2 C900.195278,45.704 901.015713,45.4 901.913365,45.4 C902.811017,45.4 903.631452,45.704 904.301474,46.2 C905.2868,46.9296 905.935104,48.0872 905.935104,49.4 C905.935104,51.6056 904.130952,53.4 901.913365,53.4 Z M904.798561,44.6 C904.541974,44.4464 904.272517,44.312 903.990996,44.2 C903.347517,43.9448 902.647735,43.8 901.913365,43.8 C901.178996,43.8 900.479213,43.9448 899.835735,44.2 C899.554213,44.312 899.284757,44.4464 899.02817,44.6 C898.344474,45.008 897.754887,45.552 897.299626,46.2 C896.660974,47.108 896.28293,48.2104 896.28293,49.4 C896.28293,52.4872 898.808583,55 901.913365,55 C905.018148,55 907.5438,52.4872 907.5438,49.4 C907.5438,48.2104 907.165757,47.108 906.527104,46.2 C906.071843,45.552 905.482257,45.008 904.798561,44.6 Z" id="ValoresNormal"></path>
        </g>
    </g>
</svg>