<svg xmlns="http://www.w3.org/2000/svg" width="1500" height="661.836" viewBox="0 0 1500 661.836"><g transform="translate(22078 22493)"><rect width="1500" height="661.836" transform="translate(-22078 -22493)" fill="none"/><g transform="translate(-21985.641 -22351.133)"><path d="M35.756,287.51c-30.3-73.566-40.98-149.736-40.98-228.3,0-33.873,2.157-67.808,7.813-101.218H31.5C24.522-10.228,22.342,22.35,22.342,54.8c0,68.192,8.464,140.691,28.193,206.389,19.729-65.7,28.2-138.2,28.2-206.389,0-32.453-2.181-65.031-9.155-96.809H98.472C104.12-8.6,106.3,25.347,106.3,59.212c0,78.563-10.684,154.74-40.98,228.3Z" transform="translate(99.648 91.046)"/><path d="M1.829,1.456A6.425,6.425,0,1,1,1.4,10.524a6.414,6.414,0,0,1,.431-9.068" transform="translate(251.648 128.687)"/><path d="M1.829,1.456A6.422,6.422,0,1,1,1.4,10.524a6.414,6.414,0,0,1,.431-9.068" transform="translate(251.648 148.612)"/><path d="M1.817,1.452A6.425,6.425,0,1,1,1.4,10.528a6.413,6.413,0,0,1,.416-9.076" transform="translate(265.227 164.151)"/><path d="M1.817,1.455A6.424,6.424,0,1,1,1.4,10.524a6.432,6.432,0,0,1,.416-9.068" transform="translate(247.608 216.122)"/><path d="M2.031,1.273a6.426,6.426,0,1,1-.879,9.037,6.4,6.4,0,0,1,.879-9.037" transform="translate(246.712 236.478)"/><path d="M2.109,1.215a6.425,6.425,0,1,1-1.028,9.021A6.409,6.409,0,0,1,2.109,1.215" transform="translate(259.626 252.695)"/><path d="M1.824,1.45a6.425,6.425,0,1,1-.431,9.068A6.421,6.421,0,0,1,1.824,1.45" transform="translate(261.198 203.711)"/><path d="M2.34,1.038a6.42,6.42,0,1,1-1.5,8.951,6.419,6.419,0,0,1,1.5-8.951" transform="translate(233.978 303.158)"/><path d="M2.475.944a6.416,6.416,0,1,1-1.757,8.9A6.419,6.419,0,0,1,2.475.944" transform="translate(232.341 325.55)"/><path d="M2.341,1.03a6.421,6.421,0,1,1-1.5,8.943,6.427,6.427,0,0,1,1.5-8.943" transform="translate(249.098 292.331)"/><path d="M.564,3.15a6.415,6.415,0,1,1,2.965,8.582A6.412,6.412,0,0,1,.564,3.15" transform="translate(281.91 96.896)"/><path d="M.006,5.318a6.417,6.417,0,1,1,6.079,6.723A6.418,6.418,0,0,1,.006,5.318" transform="translate(287.738 74.758)"/><path d="M.1,6.642a6.419,6.419,0,1,1,7.5,5.107A6.417,6.417,0,0,1,.1,6.642" transform="translate(286.862 50.603)"/><path d="M.765,8.433a6.418,6.418,0,1,1,8.778,2.291A6.431,6.431,0,0,1,.765,8.433" transform="translate(279.111 28.355)"/><path d="M1.823,1.462a6.416,6.416,0,1,1-.424,9.06,6.415,6.415,0,0,1,.424-9.06" transform="translate(267.681 113.832)"/><path d="M9.369,1.453a6.419,6.419,0,1,0,.416,9.068,6.421,6.421,0,0,0-.416-9.068" transform="translate(37.731 128.685)"/><path d="M9.369,1.45a6.419,6.419,0,1,0,.416,9.068A6.422,6.422,0,0,0,9.369,1.45" transform="translate(37.731 148.612)"/><path d="M9.364,1.455A6.425,6.425,0,1,0,9.8,10.523a6.388,6.388,0,0,0-.431-9.068" transform="translate(24.154 164.149)"/><path d="M9.371,1.453a6.422,6.422,0,1,0,.416,9.068,6.43,6.43,0,0,0-.416-9.068" transform="translate(41.773 216.12)"/><path d="M9.153,1.268a6.423,6.423,0,1,0,.871,9.037,6.427,6.427,0,0,0-.871-9.037" transform="translate(42.673 236.479)"/><path d="M9.083,1.215a6.417,6.417,0,1,0,1.02,9.021,6.409,6.409,0,0,0-1.02-9.021" transform="translate(29.759 252.695)"/><path d="M9.367,1.45a6.422,6.422,0,1,0,.424,9.068A6.421,6.421,0,0,0,9.367,1.45" transform="translate(28.187 203.711)"/><path d="M8.847,1.038a6.416,6.416,0,1,0,1.506,8.951A6.416,6.416,0,0,0,8.847,1.038" transform="translate(55.405 303.155)"/><path d="M8.713.939A6.419,6.419,0,1,0,10.462,9.85,6.425,6.425,0,0,0,8.713.939" transform="translate(57.048 325.547)"/><path d="M8.832,1.03a6.414,6.414,0,1,0,1.522,8.943A6.411,6.411,0,0,0,8.832,1.03" transform="translate(40.283 292.331)"/><path d="M10.64,3.145a6.419,6.419,0,1,0-2.973,8.582A6.418,6.418,0,0,0,10.64,3.145" transform="translate(7.465 96.893)"/><path d="M11.2,5.318a6.421,6.421,0,1,0-6.1,6.723,6.422,6.422,0,0,0,6.1-6.723" transform="translate(1.636 74.758)"/><path d="M11.1,6.642a6.419,6.419,0,1,0-7.5,5.107,6.419,6.419,0,0,0,7.5-5.107" transform="translate(2.511 50.603)"/><path d="M10.433,8.433a6.418,6.418,0,1,0-8.77,2.291,6.415,6.415,0,0,0,8.77-2.291" transform="translate(10.253 28.355)"/><path d="M9.371,1.458A6.422,6.422,0,1,0,9.8,10.526a6.406,6.406,0,0,0-.431-9.068" transform="translate(21.696 113.83)"/><path d="M38.763,15.54a5.461,5.461,0,1,1,.353,7.727,5.462,5.462,0,0,1-.353-7.727M90.349,301.087,53.723,275.255a6.758,6.758,0,0,1-1.059-9.523l24.491-28.679a13.611,13.611,0,0,0-.894-19.235L45.572,189.884a6.789,6.789,0,0,1-.431-9.578l27.973-30.664a13.607,13.607,0,0,0-.879-19.227L31.609,93.3c-5.554-5.06-5.421-13.281-.879-19.227L73.012,17.611c4.15-5.452,3.891-11.8-.737-16.018C69.969-.518,65.4-2.981,57.049-2.079,17.175,2.22-9.6,37.183-5.189,77.613c2.212,20.309,9.46,27.613,13.438,31.229l30.594,27.942a6.767,6.767,0,0,1,.431,9.578l-27.95,30.656a13.617,13.617,0,0,0,.886,19.235L42.866,224.2a6.772,6.772,0,0,1,.455,9.586L18.7,264.642a13.609,13.609,0,0,0,2.118,19.125l36.712,26.185a6.769,6.769,0,0,1,1.137,9.523L42.866,343.1A13.609,13.609,0,1,0,65,358.948L92.671,320.2a13.615,13.615,0,0,0-2.322-19.109" transform="translate(17.989 2.27)"/><path d="M49.254,22.282a5.461,5.461,0,1,1,.353-7.727,5.478,5.478,0,0,1-.353,7.727M31.314-3.064C22.951-3.966,18.394-1.5,16.087.607c-4.613,4.212-4.895,10.567-.73,16.018L57.648,73.09c4.526,5.946,4.66,14.159-.894,19.219L16.127,129.422a13.6,13.6,0,0,0-.879,19.227l27.973,30.672a6.766,6.766,0,0,1-.439,9.57L12.095,216.833A13.615,13.615,0,0,0,11.2,236.06l24.506,28.679a6.8,6.8,0,0,1-1.043,9.539L-1.978,300.1a13.6,13.6,0,0,0-2.314,19.109l27.668,38.752A13.606,13.606,0,1,0,45.5,342.117L29.682,318.482a6.76,6.76,0,0,1,1.153-9.508l36.7-26.193a13.6,13.6,0,0,0,2.126-19.125L45.049,232.8a6.762,6.762,0,0,1,.447-9.578l30.672-27.966a13.621,13.621,0,0,0,.879-19.227L49.089,145.377a6.774,6.774,0,0,1,.431-9.578l30.594-27.934c3.985-3.632,11.225-10.927,13.43-31.237C97.96,36.2,71.187,1.235,31.314-3.064" transform="translate(194.219 3.259)"/><path d="M676.756,71.806V1.166H696.43a66.342,66.342,0,0,1,13.791,1.4,29.857,29.857,0,0,1,10.025,4.2,31.624,31.624,0,0,1,10.692,12.512,37.649,37.649,0,0,1,3.836,17.266,38.625,38.625,0,0,1-3.836,17.289A32.381,32.381,0,0,1,720.246,66.33a30.211,30.211,0,0,1-10.025,4.244,67.95,67.95,0,0,1-13.791,1.232Zm37.057,3.93a32.847,32.847,0,0,0,11.916-5.75,38.906,38.906,0,0,0,11.916-14.5,42.824,42.824,0,0,0,4.283-19.062,43.137,43.137,0,0,0-4.283-19.062,39.08,39.08,0,0,0-11.916-14.52,33.957,33.957,0,0,0-11.79-5.758,66.3,66.3,0,0,0-15.9-1.789H669.963V77.665h28.076a57.713,57.713,0,0,0,15.775-1.93M596.021,44.9,611.011,9.277l14.8,35.622ZM609.615-1.572,575.743,77.665h6.6l11.531-27.4h34.084l11.563,27.4h6.589L612.235-1.572ZM498.294,71.806V1.166h19.619a66.5,66.5,0,0,1,13.806,1.4,30.107,30.107,0,0,1,10.033,4.2A32.588,32.588,0,0,1,552.5,19.287a38.749,38.749,0,0,1,3.781,17.266A39.772,39.772,0,0,1,552.5,53.842,33.4,33.4,0,0,1,541.752,66.33a30.467,30.467,0,0,1-10.033,4.244,68.111,68.111,0,0,1-13.806,1.232Zm37.026,3.93a35.309,35.309,0,0,0,11.947-5.75,39.587,39.587,0,0,0,11.916-14.5,43.353,43.353,0,0,0,4.2-19.07,43.635,43.635,0,0,0-4.2-19.062A39.805,39.805,0,0,0,547.267,2.837a36.506,36.506,0,0,0-11.853-5.758A65.666,65.666,0,0,0,519.552-4.71H491.32V77.665h28.232a57.939,57.939,0,0,0,15.768-1.93M460.844-4.71H453.91V77.673h6.935ZM427.662,56.273a25.158,25.158,0,0,0-1.31-7.821,22,22,0,0,0-4.016-6.542c-2.589-2.879-7.7-5.883-15.077-8.911-.808-.408-1.341-.58-1.757-.863-6.739-2.863-11.1-5.311-13.038-7.641a12.424,12.424,0,0,1-3.028-8.762A14.589,14.589,0,0,1,394.1,4.6,17.243,17.243,0,0,1,406.129.225,26.751,26.751,0,0,1,415.2,1.848a43.052,43.052,0,0,1,9.743,5.217V-.317a47.564,47.564,0,0,0-9.186-4.118,36.982,36.982,0,0,0-9.312-1.388c-7.029,0-12.637,2.063-17.015,6.189a20.383,20.383,0,0,0-6.574,15.595c0,5.217,1.365,9.492,4.26,12.8,2.871,3.271,8.205,6.566,16.034,9.806,7.546,3.2,12.332,5.93,14.426,8.26a13.31,13.31,0,0,1,3.091,9.209c0,5.06-1.459,9.013-4.636,12.026-2.989,2.895-7.272,4.416-12.59,4.416a26.061,26.061,0,0,1-9.908-2.228,46.274,46.274,0,0,1-10.951-6.7v7.939a44.146,44.146,0,0,0,10.433,5.491,32.522,32.522,0,0,0,10.543,1.781c7.044,0,12.739-2.008,17.274-6.283a21.22,21.22,0,0,0,6.825-16.207M310.9.938h13.689c6.158,0,10.818,1.192,14.246,3.946,3.3,2.612,4.926,6.315,4.926,11.076a16.286,16.286,0,0,1-2.165,8.825,14.079,14.079,0,0,1-6.738,5.554,25.78,25.78,0,0,1-6.025,1.694c-2.526.235-6.754.384-12.849.384H310.9Zm0,37.12h6.621a45.919,45.919,0,0,1,10.5.973,11.874,11.874,0,0,1,5.789,3.13,61.593,61.593,0,0,1,4.33,5.5c1.789,2.463,4.118,5.75,6.589,9.766L357.76,77.665h7.382l-22.49-34.649a23.1,23.1,0,0,0-3.107-3.985,29.714,29.714,0,0,0-4.134-3c5.185-1.663,9.092-4.165,11.665-7.57,2.62-3.318,3.836-7.546,3.836-12.5,0-6.684-2.2-11.775-6.84-15.328C339.349-2.921,332.822-4.71,324.2-4.71H304.417V77.665H310.9ZM275.369,72.041H236.845V38.568h36.312V33.289H236.845V.632h37.583V-4.71H230.255V77.665h45.114ZM176.121,79.03,210.683-4.71h-7.005L175.556,64.408,147.763-4.71h-7.287l34.68,83.74Zm-66.215-1.365h7.013V-4.71h-7.013Zm-96.244-74L73.977,76.434H80V-5.824H73.53V65.859L13.92-5.824H7.072V76.434h6.589Zm-74.452,81.3c11.767,0,21.125-3.75,28.013-11.108,6.8-7.405,10.378-17.423,10.378-29.9V-10.491h-7.852V44.366c0,10-2.738,17.948-8.15,23.863-5.664,5.883-13.061,8.927-22.388,8.927s-16.732-3.044-22.223-8.927Q-91.4,59.356-91.4,44.366V-10.491h-7.476V43.95c0,12.606,3.381,22.624,10.268,29.9,6.84,7.358,16.168,11.108,27.817,11.108M368.326,209.68a44.443,44.443,0,0,1-24.4,23.886,48.969,48.969,0,0,1-35.277,0A46.7,46.7,0,0,1,294.055,224a42.1,42.1,0,0,1-9.774-14.324,40.993,40.993,0,0,1-3.42-16.842,42.949,42.949,0,0,1,3.42-17.007,43.656,43.656,0,0,1,9.774-14.112A50.992,50.992,0,0,1,309.045,152a46.781,46.781,0,0,1,34.571,0,43.487,43.487,0,0,1,14.716,9.719,44.325,44.325,0,0,1,10.1,14.528,42.191,42.191,0,0,1,3.279,16.591,41.353,41.353,0,0,1-3.389,16.842m8.5-64.717a71.24,71.24,0,0,0-23.024-14.63,77.893,77.893,0,0,0-27.6-5.06,75.655,75.655,0,0,0-27.118,5.06,68.778,68.778,0,0,0-23.149,14.63,66.273,66.273,0,0,0-15.658,21.721,64.207,64.207,0,0,0-5.452,25.6,65.165,65.165,0,0,0,21.109,48.542,70.755,70.755,0,0,0,23.024,14.528,77.434,77.434,0,0,0,54.692.125,73.226,73.226,0,0,0,23.314-14.653,68.247,68.247,0,0,0,15.493-21.651,64.033,64.033,0,0,0,5.334-25.816,66.071,66.071,0,0,0-5.209-26.271,67,67,0,0,0-15.76-22.121M803.86,236.046V203.515h62.513V180.8H803.86v-31.26h64.466V126.921H777.432V258.646h92.981v-22.6ZM737.37,207.8c-.125,8.472-2.816,14.779-8.9,19.823-5.875,4.966-13.861,7.758-24.263,7.758a41.164,41.164,0,0,1-16.042-3.028,32.522,32.522,0,0,1-12.081-8.927A17.227,17.227,0,0,1,672.442,216c-.808-2.855-1.286-8.362-1.286-16.317V126.333H646.641v74.076c0,10.119.69,17.666,2.2,23.016a37.686,37.686,0,0,0,7.507,14.238,54.974,54.974,0,0,0,20.717,15.9,67.156,67.156,0,0,0,27.142,5.366c16.67,0,30.7-4.652,41.411-13.963,10.841-9.233,16.332-21.808,16.12-36.626V126.333H737.37Zm-130.885,1.789a44.411,44.411,0,0,1-9.759,14.528l-.141.125a45.491,45.491,0,0,1-14.661,10.143,46.124,46.124,0,0,1-17.266,3.389,44.315,44.315,0,0,1-17.281-3.514,47.5,47.5,0,0,1-14.716-10.017v-.125a42.426,42.426,0,0,1-9.672-14.528,43.2,43.2,0,0,1-3.436-17.3,44.311,44.311,0,0,1,3.436-17.509,43.308,43.308,0,0,1,9.594-14.457,47.6,47.6,0,0,1,14.959-9.963,44.914,44.914,0,0,1,34.383,0,42.172,42.172,0,0,1,14.583,9.861,44.931,44.931,0,0,1,9.978,14.944,42.232,42.232,0,0,1,3.4,17.125,43.851,43.851,0,0,1-3.4,17.3m14.52,27.4c9.892-11.8,14.826-25.738,14.826-41.5a71.584,71.584,0,0,0-5.232-27.079,70.187,70.187,0,0,0-15.642-22.443,68.432,68.432,0,0,0-22.883-14.952,74.209,74.209,0,0,0-27.417-5.2,72.607,72.607,0,0,0-27.118,5.2,70.865,70.865,0,0,0-23.086,14.952,68.151,68.151,0,0,0-15.3,22.184,63.719,63.719,0,0,0-5.546,26.075c0,16.3,4.973,30.805,14.732,43.074,9.578,12.151,22.42,20.239,38.077,24.208,11.673,8.26,22.631,14.575,33.033,18.905,10.739,4.542,20.5,6.731,29.362,6.731h2.6a9.7,9.7,0,0,0,2.142-.212l1.075-.157,19.525-17.164-1.49-4.111-1.075-2.6L629,263.47a65.325,65.325,0,0,1-6.762,1.043,30.122,30.122,0,0,1-5.381.337,69.139,69.139,0,0,1-15.987-2.087c-3.452-.973-7.421-2.361-11.625-3.993,12.841-4.777,23.659-11.924,31.762-21.784M455.094,181.2h0l-2.832-1.545c-7.546-4.369-13.061-8.37-16.63-11.782a19.068,19.068,0,0,1-3.679-4.613,5.925,5.925,0,0,1-1.1-3.169,8.894,8.894,0,0,1,4.212-7.711c3.052-2.181,7.005-3.4,12.363-3.4a35.559,35.559,0,0,1,13.414,2.581,68.285,68.285,0,0,1,15.1,9.084l5.319,3.961v-28.4l-1.585-.973a77.718,77.718,0,0,0-15.673-6.55,61.1,61.1,0,0,0-15.8-2.212c-11.853,0-22.043,3.318-29.958,9.884A32.669,32.669,0,0,0,406.3,162.111a31.1,31.1,0,0,0,6.3,19.486,56.662,56.662,0,0,0,10.449,9.311c4.8,3.616,10.919,7.562,18.348,12.128,4.691,2.675,8.441,5.17,11.367,7.24a39.827,39.827,0,0,1,5.946,4.911,13.185,13.185,0,0,1,2.989,8.237c-.188,3.961-1.4,6.44-4.4,8.754-2.879,2.2-7.264,3.546-13.281,3.546a33.311,33.311,0,0,1-15.791-3.8c-4.879-2.495-10.261-6.887-16.034-12.865l-5.742-6.221v32.939l1.412.933a54.6,54.6,0,0,0,17.25,9.327,61.116,61.116,0,0,0,20.082,3.059c11.947,0,22.122-3.326,29.958-9.876a32.315,32.315,0,0,0,12.01-25.534c0-8.629-2.04-16.191-6.409-22.341-4.4-6.3-12.873-12.771-25.659-20.137M214.9,230.3c-3.4,2.6-9.7,4.385-18.9,4.22h-22.82V198.863H192.8c10.316,0,17.454,1.757,21.368,4.652,3.907,2.95,5.954,6.88,5.954,13.595,0,6.574-1.749,10.512-5.217,13.187m-41.717-89.921h15.4c8.1,0,13.406,1.443,16.3,3.8a11.761,11.761,0,0,1,3.3,4.652,22.432,22.432,0,0,1,1.114,7.413c0,6.6-1.953,10.7-5.923,13.7-3.812,2.855-10.582,4.675-20.27,4.675h-9.923Zm48.7,42.3a31.952,31.952,0,0,0,9.037-8.213c3.907-5.311,5.609-11.908,5.609-19.439,0-12.081-4.087-21.988-12.316-28.789-8.221-6.872-19.447-9.986-33.6-9.986h-43.5V258.928h50.958c14.646,0,26.671-3.577,35.771-10.841,9.029-7.264,13.877-17.376,13.712-29.613a36.5,36.5,0,0,0-8.9-24.53,42.968,42.968,0,0,0-16.772-11.273m-187.4-56.441H8.052v132.7h92.91V236.3H34.488Zm-106.521,72.8H-9.912V174.882H-72.032V140.194h63.87V116.37H-98.374V258.928h92.3V234.783H-72.032Z" transform="translate(446.211 60.508)"/></g></g></svg>