<svg xmlns="http://www.w3.org/2000/svg" width="1786" height="1754" viewBox="0 0 1786 1754"><g transform="translate(22862 22007)"><rect width="1786" height="1754" transform="translate(-22862 -22007)" fill="none"/><g transform="translate(-22718.764 -21863.492)"><path d="M94.991,764.025C20.363,582.827-5.917,395.233-5.917,201.721c0-83.428,5.321-167.01,19.237-249.312l71.2.017C67.313,30.687,61.958,110.943,61.958,190.858c0,167.965,20.874,346.537,69.444,508.362,48.6-161.825,69.444-340.4,69.444-508.362,0-79.915-5.3-160.171-22.511-238.432h71.149c13.933,82.286,19.237,165.867,19.237,249.3,0,193.495-26.246,381.105-100.891,562.3Z" transform="translate(618.076 168.379)" fill="#fff"/><path d="M4.828,3.866a15.821,15.821,0,1,1-1.04,22.324A15.84,15.84,0,0,1,4.828,3.866" transform="translate(999.074 316.681)" fill="#fff"/><path d="M4.828,3.859a15.827,15.827,0,1,1-1.04,22.358A15.921,15.921,0,0,1,4.828,3.859" transform="translate(999.074 365.747)" fill="#fff"/><path d="M4.855,3.878A15.8,15.8,0,1,1,3.8,26.2,15.747,15.747,0,0,1,4.855,3.878" transform="translate(1032.513 404.042)" fill="#fff"/><path d="M4.849,3.852A15.826,15.826,0,1,1,3.826,26.21,15.815,15.815,0,0,1,4.849,3.852" transform="translate(989.11 532.03)" fill="#fff"/><path d="M5.413,3.384A15.811,15.811,0,1,1,3.247,25.64,15.809,15.809,0,0,1,5.413,3.384" transform="translate(986.848 582.207)" fill="#fff"/><path d="M5.6,3.224A15.809,15.809,0,1,1,3.08,25.445,15.829,15.829,0,0,1,5.6,3.224" transform="translate(1018.664 622.171)" fill="#fff"/><path d="M4.849,3.866A15.815,15.815,0,1,1,3.826,26.207,15.84,15.84,0,0,1,4.849,3.866" transform="translate(1022.585 501.473)" fill="#fff"/><path d="M6.244,2.75A15.807,15.807,0,1,1,2.51,24.8,15.769,15.769,0,0,1,6.244,2.75" transform="translate(955.438 746.494)" fill="#fff"/><path d="M6.576,2.5A15.817,15.817,0,1,1,2.244,24.447,15.824,15.824,0,0,1,6.576,2.5" transform="translate(951.377 801.658)" fill="#fff"/><path d="M6.243,2.733A15.809,15.809,0,1,1,2.525,24.783,15.807,15.807,0,0,1,6.243,2.733" transform="translate(992.678 719.814)" fill="#fff"/><path d="M1.482,8.366A15.819,15.819,0,1,1,8.832,29.5a15.824,15.824,0,0,1-7.35-21.13" transform="translate(1073.833 238.051)" fill="#fff"/><path d="M.015,14.128A15.82,15.82,0,1,1,15.04,30.7,15.809,15.809,0,0,1,.015,14.128" transform="translate(1088.29 183.106)" fill="#fff"/><path d="M.261,17.644A15.8,15.8,0,1,1,18.713,30.23,15.838,15.838,0,0,1,.261,17.644" transform="translate(1086.129 123.345)" fill="#fff"/><path d="M2.031,22.392a15.806,15.806,0,1,1,21.642,5.645A15.815,15.815,0,0,1,2.031,22.392" transform="translate(1066.923 68.212)" fill="#fff"/><path d="M4.84,3.859A15.814,15.814,0,1,1,3.8,26.217,15.832,15.832,0,0,1,4.84,3.859" transform="translate(1038.556 280.101)" fill="#fff"/><path d="M24.893,3.86A15.821,15.821,0,1,0,25.933,26.2,15.857,15.857,0,0,0,24.893,3.86" transform="translate(470.671 316.678)" fill="#fff"/><path d="M24.893,3.866a15.821,15.821,0,1,0,1.04,22.341,15.841,15.841,0,0,0-1.04-22.341" transform="translate(470.671 365.749)" fill="#fff"/><path d="M24.9,3.872A15.808,15.808,0,1,0,25.94,26.2,15.783,15.783,0,0,0,24.9,3.872" transform="translate(437.222 404.039)" fill="#fff"/><path d="M24.9,3.859A15.82,15.82,0,1,0,25.937,26.2,15.82,15.82,0,0,0,24.9,3.859" transform="translate(480.626 532.032)" fill="#fff"/><path d="M24.316,3.371a15.807,15.807,0,1,0,2.166,22.273A15.783,15.783,0,0,0,24.316,3.371" transform="translate(482.888 582.206)" fill="#fff"/><path d="M24.131,3.236a15.807,15.807,0,1,0,2.49,22.2,15.773,15.773,0,0,0-2.49-22.2" transform="translate(451.097 622.163)" fill="#fff"/><path d="M24.874,3.866a15.8,15.8,0,1,0,1.057,22.324A15.82,15.82,0,0,0,24.874,3.866" transform="translate(447.165 501.464)" fill="#fff"/><path d="M23.526,2.75A15.822,15.822,0,1,0,27.21,24.8,15.83,15.83,0,0,0,23.526,2.75" transform="translate(514.305 746.486)" fill="#fff"/><path d="M23.141,2.492a15.817,15.817,0,1,0,4.366,21.931A15.83,15.83,0,0,0,23.141,2.492" transform="translate(518.379 801.673)" fill="#fff"/><path d="M23.46,2.733a15.8,15.8,0,1,0,3.752,22.051A15.789,15.789,0,0,0,23.46,2.733" transform="translate(477.074 719.819)" fill="#fff"/><path d="M28.287,8.373a15.811,15.811,0,1,0-7.35,21.13,15.794,15.794,0,0,0,7.35-21.13" transform="translate(395.871 238.045)" fill="#fff"/><path d="M29.768,14.144A15.82,15.82,0,1,0,14.709,30.7,15.837,15.837,0,0,0,29.768,14.144" transform="translate(381.409 183.09)" fill="#fff"/><path d="M29.517,17.632a15.812,15.812,0,1,0-18.487,12.6,15.813,15.813,0,0,0,18.487-12.6" transform="translate(383.582 123.348)" fill="#fff"/><path d="M27.754,22.4A15.825,15.825,0,1,0,6.1,28.045,15.857,15.857,0,0,0,27.754,22.4" transform="translate(402.79 68.209)" fill="#fff"/><path d="M24.917,3.859A15.814,15.814,0,1,0,25.94,26.2,15.853,15.853,0,0,0,24.917,3.859" transform="translate(431.175 280.101)" fill="#fff"/><path d="M102.976,41.284a13.466,13.466,0,1,1,.887,19.032,13.537,13.537,0,0,1-.887-19.032m127.1,703.323-90.267-63.594a16.727,16.727,0,0,1-2.575-23.483l60.337-70.621a33.555,33.555,0,0,0-2.2-47.376l-75.566-68.813a16.7,16.7,0,0,1-1.109-23.6l68.9-75.532a33.472,33.472,0,0,0-2.166-47.359L85.376,232.818c-13.66-12.466-13.353-32.71-2.166-47.342L187.376,46.4c10.215-13.421,9.584-29.077-1.842-39.463-5.7-5.2-16.935-11.256-37.485-9.039C49.835,8.472-16.1,94.6-5.249,194.19c5.457,50.036,23.279,67.994,33.085,76.931l75.344,68.8a16.666,16.666,0,0,1,1.091,23.6L35.408,439.034a33.534,33.534,0,0,0,2.183,47.359l75.549,68.881a16.625,16.625,0,0,1,1.074,23.569l-60.627,76.01a33.528,33.528,0,0,0,5.253,47.12l90.369,64.464a16.667,16.667,0,0,1,2.848,23.449l-38.934,58.222a33.519,33.519,0,1,0,54.487,39.054l68.165-95.485a33.518,33.518,0,0,0-5.7-47.069" transform="translate(416.345 2.572)" fill="#fff"/><path d="M130.917,59.211a13.46,13.46,0,1,1,.87-19.049,13.437,13.437,0,0,1-.87,19.049M86.713-3.224C66.146-5.424,54.907.63,49.211,5.815,37.819,16.218,37.154,31.856,47.4,45.277L151.569,184.353c11.136,14.632,11.494,34.875-2.183,47.359L49.313,323.1A33.524,33.524,0,0,0,47.13,370.48l68.915,75.515a16.682,16.682,0,0,1-1.091,23.6L39.388,538.411a33.524,33.524,0,0,0-2.183,47.376l60.32,70.62a16.668,16.668,0,0,1-2.592,23.483L4.7,743.5a33.518,33.518,0,0,0-5.713,47.069l68.165,95.468A33.514,33.514,0,1,0,121.639,847L82.722,788.78a16.646,16.646,0,0,1,2.831-23.449l90.42-64.464a33.572,33.572,0,0,0,5.236-47.12l-60.661-76.01a16.676,16.676,0,0,1,1.074-23.586l75.566-68.881a33.543,33.543,0,0,0,2.183-47.342L130.49,362.4a16.706,16.706,0,0,1,1.074-23.586L206.943,270c9.772-8.919,27.627-26.894,33.068-76.913,10.846-99.6-55.084-185.718-153.3-196.308" transform="translate(848.371 3.69)" fill="#fff"/><path d="M680.223,136.17a68.763,68.763,0,0,1-37.792,36.99,75.483,75.483,0,0,1-54.59-.017,72.559,72.559,0,0,1-22.631-14.8,65.107,65.107,0,0,1-15.11-22.17,63.613,63.613,0,0,1-5.287-26.076A66.635,66.635,0,0,1,550.1,83.763a67.706,67.706,0,0,1,15.11-21.846,79.986,79.986,0,0,1,23.245-15.076,72.684,72.684,0,0,1,53.532.017,67.794,67.794,0,0,1,22.8,15.059,68.724,68.724,0,0,1,15.621,22.511,65.629,65.629,0,0,1,5.116,25.683,64.1,64.1,0,0,1-5.3,26.058M693.372,35.978A109.652,109.652,0,0,0,657.746,13.33,119.662,119.662,0,0,0,615.026,5.5a115.952,115.952,0,0,0-41.97,7.828,105.924,105.924,0,0,0-35.865,22.648,102.9,102.9,0,0,0-24.234,33.63,99.29,99.29,0,0,0-8.476,39.616,101.169,101.169,0,0,0,32.71,75.174,109.731,109.731,0,0,0,35.643,22.477,119.786,119.786,0,0,0,84.69.188,113.348,113.348,0,0,0,36.1-22.665,106.364,106.364,0,0,0,23.961-33.528,98.965,98.965,0,0,0,8.271-39.957,102.3,102.3,0,0,0-8.067-40.691,103.342,103.342,0,0,0-24.421-34.244m661.217,141.036V126.62H1451.4V91.437h-96.815V43.055h99.834V8.026H1313.676V211.975h143.953V177.014Zm-102.972-43.778c-.171,13.149-4.349,22.921-13.763,30.714-9.09,7.674-21.42,12.006-37.57,12.006a64.116,64.116,0,0,1-24.814-4.673,49.8,49.8,0,0,1-18.674-13.831,26.432,26.432,0,0,1-5.679-11.494c-1.262-4.417-1.978-12.927-1.978-25.257V7.122h-38V121.81c0,15.69,1.091,27.355,3.462,35.643a57.776,57.776,0,0,0,11.631,22.051,85,85,0,0,0,32.044,24.609c12.569,5.525,26.724,8.322,42,8.322,25.854,0,47.6-7.214,64.14-21.642,16.8-14.291,25.274-33.767,24.95-56.7V7.122h-37.757ZM1049,136.033a68.277,68.277,0,0,1-15.127,22.494l-.2.188a70.485,70.485,0,0,1-22.7,15.69,71.306,71.306,0,0,1-26.741,5.27,69.205,69.205,0,0,1-26.775-5.457A73.416,73.416,0,0,1,934.686,158.7v-.188a65.035,65.035,0,0,1-14.973-22.494,66.96,66.96,0,0,1-5.321-26.775,68.66,68.66,0,0,1,5.321-27.116,66.073,66.073,0,0,1,14.871-22.375,73.15,73.15,0,0,1,23.159-15.434,69.315,69.315,0,0,1,53.225.017,65.812,65.812,0,0,1,22.58,15.246A69.225,69.225,0,0,1,1049,82.74a65.5,65.5,0,0,1,5.27,26.5,68.129,68.129,0,0,1-5.27,26.792m22.443,42.413c15.331-18.265,22.989-39.838,22.989-64.242a110.728,110.728,0,0,0-8.118-41.936,108.456,108.456,0,0,0-24.2-34.739,106.417,106.417,0,0,0-35.438-23.159,114.9,114.9,0,0,0-42.447-8.032,111.936,111.936,0,0,0-42,8.032,109.7,109.7,0,0,0-35.711,23.142,104.868,104.868,0,0,0-23.705,34.347,98.89,98.89,0,0,0-8.6,40.384c0,25.24,7.691,47.7,22.784,66.7,14.854,18.828,34.722,31.345,58.938,37.485,18.094,12.79,35.063,22.562,51.162,29.282,16.662,7.009,31.771,10.4,45.483,10.4h4.008a15.165,15.165,0,0,0,3.36-.324l1.6-.239,30.254-26.57-2.268-6.378-1.705-4.025-3.991.887a97.17,97.17,0,0,1-10.454,1.6,44.89,44.89,0,0,1-8.356.546,106.685,106.685,0,0,1-24.728-3.24c-5.372-1.518-11.494-3.667-17.992-6.174,19.885-7.4,36.632-18.469,49.133-33.75M814.574,92.068h0L810.192,89.7c-11.7-6.77-20.243-12.961-25.734-18.248a28.968,28.968,0,0,1-5.679-7.146,8.753,8.753,0,0,1-1.722-4.912c.171-5.116,1.842-8.561,6.549-11.921,4.707-3.394,10.812-5.287,19.117-5.287a54.833,54.833,0,0,1,20.772,4.008,105.591,105.591,0,0,1,23.364,14.07l8.271,6.122V22.42l-2.507-1.5a118.974,118.974,0,0,0-24.234-10.147A94.232,94.232,0,0,0,803.95,7.344c-18.384,0-34.176,5.15-46.438,15.314A50.619,50.619,0,0,0,739.042,62.5c0,11.563,3.223,21.71,9.755,30.186,3.65,4.5,8.953,9.141,16.167,14.411,7.418,5.611,16.934,11.733,28.429,18.793,7.231,4.144,13.08,8,17.583,11.187a61.161,61.161,0,0,1,9.192,7.623c3.138,3.82,4.332,7.64,4.656,12.756-.324,6.139-2.166,9.977-6.787,13.558-4.519,3.394-11.273,5.491-20.6,5.491a51.835,51.835,0,0,1-24.473-5.884c-7.538-3.888-15.86-10.676-24.813-19.919l-8.885-9.653v51.008l2.183,1.45a84.691,84.691,0,0,0,26.689,14.428,94.728,94.728,0,0,0,31.107,4.758c18.5,0,34.261-5.167,46.387-15.3,12.245-10.232,18.606-23.841,18.606-39.548,0-13.353-3.155-25.069-9.943-34.585-6.77-9.772-19.9-19.766-39.719-31.192M442.7,168.095c-5.27,4.025-15.042,6.788-29.282,6.532H378.078V119.44h30.39c15.945,0,27.013,2.712,33.1,7.2,6,4.553,9.192,10.625,9.192,21.045,0,10.164-2.712,16.27-8.066,20.414M378.078,28.849h23.858c12.535,0,20.738,2.251,25.24,5.918a17.994,17.994,0,0,1,5.116,7.2,34.7,34.7,0,0,1,1.722,11.477c0,10.215-3.019,16.559-9.175,21.215-5.9,4.434-16.372,7.248-31.379,7.248H378.078Zm75.413,65.521c5.508-3.581,10.4-7.657,14-12.756,6.037-8.2,8.7-18.418,8.7-30.083,0-18.708-6.327-34.04-19.083-44.562-12.739-10.642-30.1-15.451-52.015-15.451H337.745V212.435h78.892c22.682-.017,41.3-5.56,55.374-16.781,14-11.256,21.488-26.928,21.232-45.858,0-14.666-4.758-27.662-13.8-37.979a66.254,66.254,0,0,0-25.956-17.446M163.334,6.969H122.387V212.435H266.272V177.389H163.334ZM-1.595,119.7h96.2V82.3h-96.2V28.576H97.318V-8.294H-42.371v220.73h142.9V175.053H-1.595Z" transform="translate(42.371 1212.111)" fill="#fff"/><path d="M1130.537,119.955V10.571H1161a103.337,103.337,0,0,1,21.369,2.183,46.238,46.238,0,0,1,15.485,6.5,48.922,48.922,0,0,1,16.559,19.39,58.278,58.278,0,0,1,5.935,26.724,59.9,59.9,0,0,1-5.935,26.775,49.909,49.909,0,0,1-16.559,19.322,46.66,46.66,0,0,1-15.485,6.583,104.964,104.964,0,0,1-21.369,1.91Zm57.37,6.088a51.389,51.389,0,0,0,18.435-8.9,60.114,60.114,0,0,0,18.435-22.46,66.115,66.115,0,0,0,6.651-29.52,66.479,66.479,0,0,0-6.651-29.52,60.035,60.035,0,0,0-18.435-22.477,52.373,52.373,0,0,0-18.248-8.919,102.494,102.494,0,0,0-24.609-2.763H1120v127.53h43.488a90.294,90.294,0,0,0,24.421-2.967M1005.5,78.275l23.228-55.136,22.921,55.136Zm21.062-71.934L974.135,129.028h10.181l17.856-42.43,52.765-.017,17.924,42.43h10.2L1030.618,6.342ZM854.229,119.955V10.571h30.339a102.39,102.39,0,0,1,21.351,2.183,46.137,46.137,0,0,1,15.553,6.515,50.465,50.465,0,0,1,16.645,19.373,59.564,59.564,0,0,1,5.849,26.724,61.314,61.314,0,0,1-5.849,26.792,51.712,51.712,0,0,1-16.645,19.322,46.877,46.877,0,0,1-15.553,6.566,104.08,104.08,0,0,1-21.351,1.91Zm57.267,6.088a54.091,54.091,0,0,0,18.521-8.9,61.709,61.709,0,0,0,18.452-22.46,67.1,67.1,0,0,0,6.5-29.52,67.518,67.518,0,0,0-6.5-29.52,61.85,61.85,0,0,0-18.452-22.46,55.6,55.6,0,0,0-18.333-8.936,101.408,101.408,0,0,0-24.558-2.763H843.4v127.53l43.726.017a89.528,89.528,0,0,0,24.37-2.984M796.211,1.481H785.45V129.028h10.761Zm-51.4,94.428a40.05,40.05,0,0,0-2-12.125,34.854,34.854,0,0,0-6.225-10.13c-4.008-4.468-11.9-9.107-23.364-13.8a27.591,27.591,0,0,1-2.677-1.33c-10.488-4.417-17.19-8.22-20.209-11.818-3.206-3.377-4.69-8.067-4.69-13.575a22.6,22.6,0,0,1,7.2-17.225c4.877-4.417,11.068-6.8,18.623-6.8a40.926,40.926,0,0,1,14.07,2.524c4.946,1.705,9.789,4.519,15.11,8.084V8.286a74.412,74.412,0,0,0-14.24-6.378A57.12,57.12,0,0,0,711.982-.258c-10.863,0-19.544,3.223-26.331,9.584-6.856,6.361-10.2,14.462-10.2,24.165,0,8.049,2.132,14.683,6.617,19.817,4.434,5.065,12.722,10.147,24.813,15.178C718.6,73.432,726,77.679,729.223,81.26c3.36,3.854,4.792,8.544,4.792,14.274,0,7.862-2.217,13.95-7.2,18.623-4.622,4.485-11.256,6.822-19.493,6.822a40.462,40.462,0,0,1-15.331-3.445,70.848,70.848,0,0,1-16.935-10.369v12.279a67.666,67.666,0,0,0,16.15,8.527,50.217,50.217,0,0,0,16.321,2.746c10.88,0,19.714-3.1,26.724-9.738,7.026-6.566,10.557-14.871,10.557-25.069m-180.755-85.7h21.164c9.516,0,16.781,1.876,22.068,6.122,5.133,4.025,7.64,9.772,7.64,17.156,0,5.355-1.006,9.96-3.343,13.66a21.92,21.92,0,0,1-10.437,8.6,40.077,40.077,0,0,1-9.328,2.626c-3.922.358-10.454.58-19.919.58h-7.845Zm0,57.489h10.266a71.466,71.466,0,0,1,16.218,1.484,18.434,18.434,0,0,1,8.97,4.877,87.548,87.548,0,0,1,6.719,8.51c2.763,3.82,6.378,8.9,10.2,15.11L636.6,129.011h11.426L613.222,75.376a39.522,39.522,0,0,0-4.809-6.191A50.111,50.111,0,0,0,602,64.547c8.015-2.575,14.07-6.429,18.043-11.716,4.076-5.116,5.969-11.682,5.969-19.339,0-10.352-3.445-18.231-10.625-23.739-7.265-5.508-17.429-8.271-30.731-8.271h-30.68l.017,127.53h10.062Zm-55,52.612H449.4V68.469l56.21.017V60.318H449.4V9.753H507.59V1.481h-68.4v127.53h69.87Zm-153.69,10.829L408.881,1.481H398.018L354.5,108.5,311.452,1.481H300.145l53.72,129.661ZM252.82,129.011h10.846V1.481H252.82ZM103.8,14.442,197.19,127.118h9.363V-.241H196.508V110.746L104.229-.241H93.621V127.118H103.8ZM-11.5,140.318c18.248,0,32.727-5.8,43.419-17.19,10.522-11.477,16.065-26.979,16.065-46.3v-84.3H35.842V77.474c0,15.485-4.263,27.781-12.62,36.956C14.44,123.52,3.013,128.244-11.5,128.244c-14.393,0-25.871-4.724-34.381-13.814Q-58.85,100.667-58.858,77.474V-7.472H-70.421v84.3c0,19.51,5.218,35.046,15.894,46.3,10.608,11.392,25.035,17.19,43.027,17.19" transform="translate(169.503 1014.865)" fill="#fff"/></g></g></svg>