<svg xmlns="http://www.w3.org/2000/svg" width="1000" height="441.225" viewBox="0 0 1000 441.225"><g transform="translate(22078 22493)"><rect width="1000" height="441.224" transform="translate(-22078 -22493)" fill="none"/><g transform="translate(-22016.428 -22398.422)"><path d="M22.1,177.671c-20.2-49.044-27.32-99.824-27.32-152.2A404.293,404.293,0,0,1-.015-42.006H19.256c-4.649,21.185-6.1,42.9-6.1,64.539,0,45.461,5.643,93.794,18.8,137.592,13.153-43.8,18.8-92.131,18.8-137.592,0-21.635-1.454-43.354-6.1-64.539H63.907a404.9,404.9,0,0,1,5.219,67.478c0,52.375-7.123,103.16-27.32,152.2Z" transform="translate(68.173 74.699)" fill="#fff"/><path d="M1.13.9A4.283,4.283,0,1,1,.843,6.945,4.276,4.276,0,0,1,1.13.9" transform="translate(167.855 85.862)" fill="#fff"/><path d="M1.13.9A4.281,4.281,0,1,1,.843,6.945,4.276,4.276,0,0,1,1.13.9" transform="translate(167.855 99.145)" fill="#fff"/><path d="M1.123.9A4.283,4.283,0,1,1,.846,6.948,4.3,4.3,0,0,1,1.123.9" transform="translate(176.907 109.505)" fill="#fff"/><path d="M1.123.9A4.283,4.283,0,1,1,.846,6.945,4.288,4.288,0,0,1,1.123.9" transform="translate(165.161 144.152)" fill="#fff"/><path d="M1.255.787A4.284,4.284,0,1,1,.67,6.811,4.268,4.268,0,0,1,1.255.787" transform="translate(164.574 157.714)" fill="#fff"/><path d="M1.3.751A4.283,4.283,0,1,1,.618,6.765,4.273,4.273,0,0,1,1.3.751" transform="translate(173.187 168.522)" fill="#fff"/><path d="M1.127.9A4.283,4.283,0,1,1,.84,6.942,4.281,4.281,0,0,1,1.127.9" transform="translate(174.221 135.878)" fill="#fff"/><path d="M1.446.641a4.28,4.28,0,1,1-1,5.967,4.279,4.279,0,0,1,1-5.967" transform="translate(156.099 202.156)" fill="#fff"/><path d="M1.529.583A4.277,4.277,0,1,1,.358,6.519,4.28,4.28,0,0,1,1.529.583" transform="translate(155.015 217.079)" fill="#fff"/><path d="M1.447.637a4.281,4.281,0,1,1-1,5.962,4.285,4.285,0,0,1,1-5.962" transform="translate(166.18 194.938)" fill="#fff"/><path d="M.348,1.947A4.277,4.277,0,1,1,2.325,7.668,4.275,4.275,0,0,1,.348,1.947" transform="translate(187.967 64.75)" fill="#fff"/><path d="M0,3.286A4.278,4.278,0,1,1,4.057,7.768,4.279,4.279,0,0,1,0,3.286" transform="translate(191.825 50.098)" fill="#fff"/><path d="M.062,4.1a4.279,4.279,0,1,1,5,3.4,4.278,4.278,0,0,1-5-3.4" transform="translate(191.246 34.059)" fill="#fff"/><path d="M.473,5.211A4.279,4.279,0,1,1,6.325,6.738,4.287,4.287,0,0,1,.473,5.211" transform="translate(186.111 19.314)" fill="#fff"/><path d="M1.127.9a4.278,4.278,0,1,1-.282,6.04A4.276,4.276,0,0,1,1.127.9" transform="translate(178.543 75.959)" fill="#fff"/><path d="M5.79.9a4.28,4.28,0,1,0,.277,6.045A4.281,4.281,0,0,0,5.79.9" transform="translate(25.61 85.861)" fill="#fff"/><path d="M5.79.9a4.28,4.28,0,1,0,.277,6.045A4.281,4.281,0,0,0,5.79.9" transform="translate(25.61 99.145)" fill="#fff"/><path d="M5.786.9a4.283,4.283,0,1,0,.288,6.045A4.259,4.259,0,0,0,5.786.9" transform="translate(16.559 109.503)" fill="#fff"/><path d="M5.791.9a4.281,4.281,0,1,0,.277,6.045A4.287,4.287,0,0,0,5.791.9" transform="translate(28.305 144.151)" fill="#fff"/><path d="M5.657.783a4.282,4.282,0,1,0,.58,6.025A4.285,4.285,0,0,0,5.657.783" transform="translate(28.894 157.715)" fill="#fff"/><path d="M5.613.751a4.278,4.278,0,1,0,.68,6.014A4.273,4.273,0,0,0,5.613.751" transform="translate(20.281 168.522)" fill="#fff"/><path d="M5.789.9a4.281,4.281,0,1,0,.282,6.045A4.281,4.281,0,0,0,5.789.9" transform="translate(19.248 135.878)" fill="#fff"/><path d="M5.467.641a4.277,4.277,0,1,0,1,5.967,4.277,4.277,0,0,0-1-5.967" transform="translate(37.367 202.154)" fill="#fff"/><path d="M5.384.58A4.28,4.28,0,1,0,6.55,6.521,4.284,4.284,0,0,0,5.384.58" transform="translate(38.457 217.077)" fill="#fff"/><path d="M5.458.637A4.276,4.276,0,1,0,6.472,6.6,4.274,4.274,0,0,0,5.458.637" transform="translate(27.285 194.938)" fill="#fff"/><path d="M6.575,1.943A4.279,4.279,0,1,0,4.593,7.665,4.279,4.279,0,0,0,6.575,1.943" transform="translate(5.495 64.749)" fill="#fff"/><path d="M6.92,3.286A4.28,4.28,0,1,0,2.851,7.768,4.281,4.281,0,0,0,6.92,3.286" transform="translate(1.636 50.098)" fill="#fff"/><path d="M6.862,4.1a4.279,4.279,0,1,0-5,3.4,4.279,4.279,0,0,0,5-3.4" transform="translate(2.215 34.059)" fill="#fff"/><path d="M6.447,5.211A4.279,4.279,0,1,0,.6,6.738,4.277,4.277,0,0,0,6.447,5.211" transform="translate(7.344 19.314)" fill="#fff"/><path d="M5.791.9a4.281,4.281,0,1,0,.288,6.045A4.271,4.271,0,0,0,5.791.9" transform="translate(14.92 75.958)" fill="#fff"/><path d="M23.954,9.6a3.641,3.641,0,1,1,.235,5.151A3.641,3.641,0,0,1,23.954,9.6m34.39,190.365L33.927,182.747a4.505,4.505,0,0,1-.706-6.349l16.327-19.12a9.074,9.074,0,0,0-.6-12.823L28.494,125.832a4.526,4.526,0,0,1-.288-6.385L46.855,99a9.071,9.071,0,0,0-.586-12.818L19.185,61.445c-3.7-3.373-3.614-8.854-.586-12.818L46.787,10.984C49.554,7.349,49.381,3.118,46.3.3,44.758-1.1,41.714-2.744,36.145-2.143,9.562.723-8.286,24.032-5.347,50.985-3.873,64.525.96,69.394,3.611,71.8l20.4,18.628a4.511,4.511,0,0,1,.288,6.385L5.661,117.256a9.078,9.078,0,0,0,.591,12.823L26.69,148.712a4.515,4.515,0,0,1,.3,6.391L10.582,175.671a9.073,9.073,0,0,0,1.412,12.75l24.475,17.457a4.513,4.513,0,0,1,.758,6.349L26.69,227.978a9.073,9.073,0,1,0,14.753,10.564l18.45-25.835a9.076,9.076,0,0,0-1.548-12.739" transform="translate(13.881 2.27)" fill="#fff"/><path d="M30.437,13.769a3.641,3.641,0,1,1,.235-5.151,3.652,3.652,0,0,1-.235,5.151m-11.96-16.9C12.9-3.729,9.864-2.087,8.326-.68,5.251,2.128,5.063,6.364,7.84,10L36.033,47.642c3.018,3.964,3.106,9.44-.6,12.813L8.352,85.2a9.067,9.067,0,0,0-.586,12.818l18.649,20.448a4.51,4.51,0,0,1-.293,6.38L5.664,143.47a9.077,9.077,0,0,0-.6,12.818l16.337,19.12a4.531,4.531,0,0,1-.7,6.359L-3.718,198.983A9.066,9.066,0,0,0-5.26,211.722l18.445,25.835a9.07,9.07,0,1,0,14.748-10.564L17.389,211.236a4.507,4.507,0,0,1,.769-6.338l24.47-17.462a9.064,9.064,0,0,0,1.417-12.75L27.634,154.118a4.508,4.508,0,0,1,.3-6.385L48.38,129.089a9.081,9.081,0,0,0,.586-12.818L30.327,95.833a4.516,4.516,0,0,1,.288-6.385l20.4-18.623C53.667,68.4,58.494,63.54,59.964,50,62.908,23.047,45.059-.262,18.477-3.128" transform="translate(131.878 3.257)" fill="#fff"/><path d="M418.212,44.373V-2.72h13.116a44.228,44.228,0,0,1,9.194.936,19.9,19.9,0,0,1,6.683,2.8,21.082,21.082,0,0,1,7.128,8.341,25.1,25.1,0,0,1,2.557,11.51A25.749,25.749,0,0,1,454.333,32.4a21.587,21.587,0,0,1-7.128,8.326,20.14,20.14,0,0,1-6.683,2.829,45.3,45.3,0,0,1-9.194.821Zm24.7,2.62a21.9,21.9,0,0,0,7.944-3.833,25.937,25.937,0,0,0,7.944-9.67,28.549,28.549,0,0,0,2.855-12.708A28.758,28.758,0,0,0,458.8,8.074a26.053,26.053,0,0,0-7.944-9.68A22.638,22.638,0,0,0,443-5.444a44.2,44.2,0,0,0-10.6-1.192H413.683V48.28H432.4a38.475,38.475,0,0,0,10.517-1.286M364.388,26.436l9.994-23.748,9.868,23.748Zm9.063-30.981L350.87,48.28h4.4l7.688-18.267h22.723l7.708,18.267h4.393L375.2-4.545ZM299.237,44.373V-2.72h13.079a44.333,44.333,0,0,1,9.2.936,20.071,20.071,0,0,1,6.689,2.8,21.725,21.725,0,0,1,7.165,8.341,25.833,25.833,0,0,1,2.521,11.51A26.514,26.514,0,0,1,335.374,32.4a22.264,22.264,0,0,1-7.165,8.326,20.311,20.311,0,0,1-6.689,2.829,45.407,45.407,0,0,1-9.2.821Zm24.684,2.62a23.539,23.539,0,0,0,7.965-3.833,26.392,26.392,0,0,0,7.944-9.67,28.9,28.9,0,0,0,2.8-12.713,29.09,29.09,0,0,0-2.8-12.708,26.537,26.537,0,0,0-7.944-9.675,24.337,24.337,0,0,0-7.9-3.839A43.778,43.778,0,0,0,313.41-6.637H294.588V48.28H313.41a38.626,38.626,0,0,0,10.512-1.286m-49.65-53.63h-4.623V48.285h4.623ZM252.149,34.019a16.771,16.771,0,0,0-.873-5.214,14.667,14.667,0,0,0-2.678-4.362c-1.726-1.919-5.13-3.922-10.051-5.941-.539-.272-.894-.387-1.171-.575-4.492-1.909-7.4-3.54-8.692-5.094a8.283,8.283,0,0,1-2.019-5.842,9.726,9.726,0,0,1,3.106-7.421,11.5,11.5,0,0,1,8.022-2.918,17.834,17.834,0,0,1,6.051,1.083,28.7,28.7,0,0,1,6.5,3.478V-3.708a31.709,31.709,0,0,0-6.124-2.746,24.655,24.655,0,0,0-6.208-.926,15.8,15.8,0,0,0-11.343,4.126,13.588,13.588,0,0,0-4.382,10.4,12.472,12.472,0,0,0,2.84,8.535c1.914,2.181,5.47,4.377,10.689,6.537,5.031,2.134,8.221,3.954,9.617,5.507a8.874,8.874,0,0,1,2.06,6.14,10.419,10.419,0,0,1-3.091,8.017c-1.993,1.93-4.848,2.944-8.394,2.944a17.374,17.374,0,0,1-6.605-1.485,30.85,30.85,0,0,1-7.3-4.466v5.292a29.431,29.431,0,0,0,6.955,3.661,21.682,21.682,0,0,0,7.029,1.187c4.7,0,8.493-1.339,11.516-4.189a14.146,14.146,0,0,0,4.55-10.8M174.311-2.871h9.126c4.105,0,7.212.795,9.5,2.631a8.868,8.868,0,0,1,3.284,7.384,10.857,10.857,0,0,1-1.443,5.883,9.386,9.386,0,0,1-4.492,3.7,17.186,17.186,0,0,1-4.016,1.13c-1.684.157-4.5.256-8.566.256h-3.389Zm0,24.747h4.414a30.613,30.613,0,0,1,7,.648,7.916,7.916,0,0,1,3.86,2.087,41.064,41.064,0,0,1,2.887,3.666c1.192,1.642,2.746,3.833,4.393,6.511l8.681,13.493h4.921l-14.993-23.1a15.4,15.4,0,0,0-2.071-2.657,19.811,19.811,0,0,0-2.756-2,15.2,15.2,0,0,0,7.777-5.047,13.076,13.076,0,0,0,2.557-8.331c0-4.456-1.47-7.85-4.56-10.219-3.148-2.369-7.5-3.561-13.247-3.561H169.986V48.28h4.325ZM150.621,44.53H124.938V22.215h24.208V18.7H124.938V-3.075h25.055V-6.637H120.545V48.28h30.076ZM84.455,49.19,107.5-6.637h-4.67L84.079,39.442,65.55-6.637H60.691L83.812,49.19Zm-44.144-.91h4.675V-6.637H40.311ZM-23.851-1.057,16.36,47.459h4.016V-7.379H16.061V40.409L-23.679-7.379h-4.565V47.459h4.393Zm-49.635,54.2c7.845,0,14.083-2.5,18.675-7.405,4.534-4.937,6.919-11.615,6.919-19.935V-10.491h-5.235V26.08c0,6.668-1.825,11.965-5.434,15.909-3.776,3.922-8.707,5.951-14.926,5.951S-84.641,45.911-88.3,41.989q-5.593-5.915-5.59-15.909V-10.491h-4.984V25.8c0,8.4,2.254,15.082,6.846,19.935,4.56,4.905,10.778,7.405,18.544,7.405M212.592,136.29a29.629,29.629,0,0,1-16.27,15.924,32.646,32.646,0,0,1-23.518,0,31.13,31.13,0,0,1-9.727-6.375,28.064,28.064,0,0,1-6.516-9.549,27.329,27.329,0,0,1-2.28-11.228,28.633,28.633,0,0,1,2.28-11.338,29.1,29.1,0,0,1,6.516-9.408,33.995,33.995,0,0,1,9.994-6.48,31.188,31.188,0,0,1,23.047,0,28.991,28.991,0,0,1,9.811,6.48A29.55,29.55,0,0,1,212.665,114a28.128,28.128,0,0,1,2.186,11.061,27.569,27.569,0,0,1-2.259,11.228m5.669-43.145a47.493,47.493,0,0,0-15.349-9.753,51.929,51.929,0,0,0-18.4-3.373,50.437,50.437,0,0,0-18.079,3.373A45.852,45.852,0,0,0,151,93.145a44.182,44.182,0,0,0-10.438,14.481,42.805,42.805,0,0,0-3.635,17.064A43.443,43.443,0,0,0,151,157.052a47.169,47.169,0,0,0,15.349,9.685,51.623,51.623,0,0,0,36.461.084,48.817,48.817,0,0,0,15.542-9.769,45.5,45.5,0,0,0,10.329-14.434,42.688,42.688,0,0,0,3.556-17.211,44.047,44.047,0,0,0-3.472-17.514,44.665,44.665,0,0,0-10.506-14.748m284.687,60.722V132.179h41.675V117.034H502.948V96.194h42.977V81.117h-60.6v87.817h61.987V153.867Zm-44.327-18.832c-.084,5.648-1.877,9.853-5.93,13.215-3.917,3.31-9.241,5.172-16.175,5.172a27.443,27.443,0,0,1-10.695-2.019,21.681,21.681,0,0,1-8.054-5.951,11.486,11.486,0,0,1-2.432-4.947c-.539-1.9-.858-5.575-.858-10.878v-48.9H398.135v49.384c0,6.746.46,11.777,1.47,15.344a25.124,25.124,0,0,0,5,9.492,36.649,36.649,0,0,0,13.811,10.6,44.771,44.771,0,0,0,18.095,3.577c11.113,0,20.469-3.1,27.607-9.309,7.227-6.155,10.888-14.538,10.747-24.417V80.725H458.622Zm-87.257,1.192a29.608,29.608,0,0,1-6.506,9.685l-.094.084a30.327,30.327,0,0,1-9.774,6.762,30.75,30.75,0,0,1-11.511,2.259,29.543,29.543,0,0,1-11.521-2.343A31.665,31.665,0,0,1,322.148,146v-.084a28.284,28.284,0,0,1-6.448-9.685,28.8,28.8,0,0,1-2.291-11.537,29.541,29.541,0,0,1,2.291-11.673,28.872,28.872,0,0,1,6.4-9.638,31.732,31.732,0,0,1,9.973-6.642,29.943,29.943,0,0,1,22.922,0,28.115,28.115,0,0,1,9.722,6.574,29.954,29.954,0,0,1,6.652,9.963,28.155,28.155,0,0,1,2.27,11.416,29.234,29.234,0,0,1-2.27,11.537m9.68,18.267a41.855,41.855,0,0,0,9.884-27.665,47.723,47.723,0,0,0-3.488-18.053,46.79,46.79,0,0,0-10.428-14.962,45.621,45.621,0,0,0-15.255-9.968A49.473,49.473,0,0,0,343.48,80.38,48.4,48.4,0,0,0,325.4,83.847a47.244,47.244,0,0,0-15.391,9.968,45.433,45.433,0,0,0-10.2,14.789,42.479,42.479,0,0,0-3.7,17.383,45.014,45.014,0,0,0,9.821,28.716,45.767,45.767,0,0,0,25.385,16.139,115.739,115.739,0,0,0,22.022,12.6c7.159,3.028,13.665,4.487,19.575,4.487h1.731a6.467,6.467,0,0,0,1.428-.141l.717-.1L389.8,176.245l-.994-2.74-.716-1.736-1.72.382a43.548,43.548,0,0,1-4.508.7,20.082,20.082,0,0,1-3.587.225,46.093,46.093,0,0,1-10.658-1.391c-2.3-.648-4.947-1.574-7.75-2.662,8.561-3.185,15.773-7.949,21.175-14.523M270.438,117.306h0l-1.888-1.03a59.809,59.809,0,0,1-11.087-7.855,12.712,12.712,0,0,1-2.453-3.075,3.95,3.95,0,0,1-.732-2.113,5.929,5.929,0,0,1,2.808-5.141,13.681,13.681,0,0,1,8.242-2.27,23.706,23.706,0,0,1,8.943,1.721,45.524,45.524,0,0,1,10.067,6.056l3.546,2.641V87.309l-1.056-.648a51.812,51.812,0,0,0-10.449-4.367,40.73,40.73,0,0,0-10.533-1.475c-7.9,0-14.7,2.212-19.972,6.589a21.779,21.779,0,0,0-7.965,17.169,20.735,20.735,0,0,0,4.2,12.99,37.776,37.776,0,0,0,6.966,6.208c3.2,2.411,7.28,5.041,12.232,8.085,3.127,1.783,5.627,3.446,7.578,4.827a26.552,26.552,0,0,1,3.964,3.274,8.79,8.79,0,0,1,1.992,5.491,6.958,6.958,0,0,1-2.934,5.836c-1.919,1.47-4.843,2.364-8.854,2.364a22.208,22.208,0,0,1-10.527-2.536c-3.253-1.663-6.84-4.592-10.689-8.577l-3.828-4.147v21.959l.941.622a36.4,36.4,0,0,0,11.5,6.218,40.744,40.744,0,0,0,13.388,2.04c7.965,0,14.748-2.217,19.972-6.584a21.543,21.543,0,0,0,8.007-17.023c0-5.753-1.36-10.794-4.273-14.894-2.934-4.2-8.582-8.514-17.106-13.425M110.31,150.034c-2.27,1.736-6.469,2.923-12.6,2.814H82.5V129.078H95.573c6.877,0,11.636,1.171,14.246,3.1,2.6,1.966,3.969,4.586,3.969,9.063,0,4.382-1.166,7.008-3.478,8.791M82.5,90.086H92.765c5.4,0,8.938.962,10.867,2.536a7.841,7.841,0,0,1,2.2,3.1,14.955,14.955,0,0,1,.743,4.942c0,4.4-1.3,7.133-3.948,9.136-2.542,1.9-7.055,3.117-13.513,3.117H82.5Zm32.466,28.2a21.3,21.3,0,0,0,6.025-5.475c2.6-3.54,3.739-7.939,3.739-12.959,0-8.054-2.725-14.659-8.211-19.193C111.037,76.076,103.554,74,94.119,74h-29v95.122H99.093c9.764,0,17.781-2.385,23.847-7.227a23.984,23.984,0,0,0,9.141-19.742,24.335,24.335,0,0,0-5.936-16.353,28.645,28.645,0,0,0-11.181-7.515M-9.966,80.657H-27.591v88.465H34.35V154.034H-9.966ZM-80.98,129.193h41.414v-16.1H-80.98V89.966H-38.4V74.083H-98.541v95.039h61.532v-16.1H-80.98Z" transform="translate(330.433 43.836)" fill="#fff"/></g></g></svg>