<svg xmlns="http://www.w3.org/2000/svg" width="1627" height="383" viewBox="0 0 1627 383"><g transform="translate(22861 23328)"><rect width="1627" height="383" transform="translate(-22861 -23328)" fill="none"/><g transform="translate(-22798 -23265.275)"><path d="M26.014,209.286C5.393,159.218-1.86,107.381-1.86,53.926a412.666,412.666,0,0,1,5.305-68.89H23.122c-4.751,21.625-6.234,43.8-6.234,65.893,0,46.4,5.755,95.73,19.182,140.448C49.5,146.659,55.251,97.326,55.251,50.929c0-22.089-1.454-44.268-6.219-65.893H68.694a414.276,414.276,0,0,1,5.32,68.89c0,53.455-7.253,105.291-27.874,155.359Z" transform="translate(66.137 48.33)" fill="#fff"/><path d="M1.328,1.05a4.376,4.376,0,1,1-.285,6.174A4.393,4.393,0,0,1,1.328,1.05" transform="translate(171.169 87.506)" fill="#fff"/><path d="M1.328,1.06A4.376,4.376,0,1,1,1.043,7.22,4.365,4.365,0,0,1,1.328,1.06" transform="translate(171.169 101.061)" fill="#fff"/><path d="M1.33,1.06A4.371,4.371,0,0,1,7.219,7.519,4.37,4.37,0,1,1,1.33,1.06" transform="translate(180.415 111.643)" fill="#fff"/><path d="M1.322,1.06a4.376,4.376,0,1,1-.285,6.174A4.365,4.365,0,0,1,1.322,1.06" transform="translate(168.423 147.001)" fill="#fff"/><path d="M1.489.924a4.37,4.37,0,1,1-.6,6.144,4.358,4.358,0,0,1,.6-6.144" transform="translate(167.795 160.864)" fill="#fff"/><path d="M1.528.895A4.367,4.367,0,1,1,.838,7.024,4.347,4.347,0,0,1,1.528.895" transform="translate(176.595 171.898)" fill="#fff"/><path d="M1.328,1.06A4.376,4.376,0,1,1,1.043,7.22,4.365,4.365,0,0,1,1.328,1.06" transform="translate(177.666 138.556)" fill="#fff"/><path d="M1.706.757A4.368,4.368,0,1,1,.687,6.842,4.366,4.366,0,0,1,1.706.757" transform="translate(159.126 206.251)" fill="#fff"/><path d="M1.806.693a4.364,4.364,0,1,1-1.2,6.054A4.353,4.353,0,0,1,1.806.693" transform="translate(158.002 221.491)" fill="#fff"/><path d="M1.706.75A4.374,4.374,0,1,1,.687,6.835,4.365,4.365,0,0,1,1.706.75" transform="translate(169.415 198.883)" fill="#fff"/><path d="M.406,2.3A4.367,4.367,0,1,1,2.429,8.141,4.368,4.368,0,0,1,.406,2.3" transform="translate(191.824 65.784)" fill="#fff"/><path d="M.005,3.864A4.366,4.366,0,1,1,4.141,8.45,4.373,4.373,0,0,1,.005,3.864" transform="translate(195.819 50.622)" fill="#fff"/><path d="M.072,4.841A4.369,4.369,0,1,1,5.167,8.3a4.375,4.375,0,0,1-5.1-3.462" transform="translate(195.217 34.118)" fill="#fff"/><path d="M.555,6.125A4.366,4.366,0,1,1,6.534,7.683,4.363,4.363,0,0,1,.555,6.125" transform="translate(189.913 18.902)" fill="#fff"/><path d="M1.328,1.06A4.37,4.37,0,1,1,1.043,7.22,4.365,4.365,0,0,1,1.328,1.06" transform="translate(182.087 77.397)" fill="#fff"/><path d="M6.83,1.05a4.376,4.376,0,1,0,.285,6.174A4.393,4.393,0,0,0,6.83,1.05" transform="translate(25.233 87.506)" fill="#fff"/><path d="M6.83,1.06A4.376,4.376,0,1,0,7.114,7.22,4.365,4.365,0,0,0,6.83,1.06" transform="translate(25.233 101.061)" fill="#fff"/><path d="M6.817,1.06A4.371,4.371,0,0,0,.928,7.519,4.37,4.37,0,1,0,6.817,1.06" transform="translate(15.996 111.643)" fill="#fff"/><path d="M6.824,1.06a4.376,4.376,0,1,0,.285,6.174A4.365,4.365,0,0,0,6.824,1.06" transform="translate(27.989 147.001)" fill="#fff"/><path d="M6.664.924a4.365,4.365,0,1,0,.6,6.144,4.358,4.358,0,0,0-.6-6.144" transform="translate(28.61 160.864)" fill="#fff"/><path d="M6.615.895A4.367,4.367,0,1,0,7.3,7.024,4.346,4.346,0,0,0,6.615.895" transform="translate(19.827 171.898)" fill="#fff"/><path d="M6.824,1.06A4.376,4.376,0,1,0,7.109,7.22,4.365,4.365,0,0,0,6.824,1.06" transform="translate(18.74 138.556)" fill="#fff"/><path d="M6.443.757A4.368,4.368,0,1,0,7.462,6.842,4.384,4.384,0,0,0,6.443.757" transform="translate(37.291 206.251)" fill="#fff"/><path d="M6.33.693a4.333,4.333,0,0,0-6.039,1.2A4.358,4.358,0,1,0,6.33.693" transform="translate(38.419 221.491)" fill="#fff"/><path d="M6.439.75A4.374,4.374,0,1,0,7.474,6.835,4.367,4.367,0,0,0,6.439.75" transform="translate(26.998 198.883)" fill="#fff"/><path d="M7.752,2.3A4.367,4.367,0,1,0,5.714,8.141,4.381,4.381,0,0,0,7.752,2.3" transform="translate(4.582 65.784)" fill="#fff"/><path d="M8.158,3.864A4.374,4.374,0,1,0,4.007,8.45,4.394,4.394,0,0,0,8.158,3.864" transform="translate(0.583 50.622)" fill="#fff"/><path d="M8.09,4.841A4.369,4.369,0,1,0-.5,3.223,4.334,4.334,0,0,0,2.98,8.3,4.365,4.365,0,0,0,8.09,4.841" transform="translate(1.186 34.118)" fill="#fff"/><path d="M7.593,6.125A4.366,4.366,0,1,0,1.614,7.683,4.371,4.371,0,0,0,7.593,6.125" transform="translate(6.496 18.902)" fill="#fff"/><path d="M6.817,1.06A4.371,4.371,0,0,0,.928,7.519,4.37,4.37,0,1,0,6.817,1.06" transform="translate(14.326 77.397)" fill="#fff"/><path d="M28.2,11.31a3.723,3.723,0,1,1,.255,5.26,3.749,3.749,0,0,1-.255-5.26M63.315,205.633,38.393,188.055a4.6,4.6,0,0,1-.719-6.489l16.664-19.512a9.263,9.263,0,0,0-.6-13.083L32.863,129.954a4.636,4.636,0,0,1-.315-6.534L51.6,102.575A9.275,9.275,0,0,0,51,89.492L23.347,64.226c-3.776-3.447-3.687-9.037-.6-13.083L51.521,12.734c2.832-3.717,2.653-8.032-.51-10.925C49.438.386,46.335-1.293,40.656-.678,13.531,2.259-4.692,26.027-1.695,53.556c1.5,13.817,6.444,18.777,9.141,21.25L28.262,93.823a4.586,4.586,0,0,1,.3,6.5L9.53,121.2a9.25,9.25,0,0,0,.614,13.083L31,153.317a4.619,4.619,0,0,1,.315,6.519l-16.754,21A9.265,9.265,0,0,0,16,193.854l24.982,17.8a4.624,4.624,0,0,1,.779,6.489L31,234.226a9.257,9.257,0,0,0,15.046,10.79l18.837-26.375a9.255,9.255,0,0,0-1.574-13.008" transform="translate(10.416 0.809)" fill="#fff"/><path d="M35.86,16.206a3.713,3.713,0,1,1,.24-5.26,3.721,3.721,0,0,1-.24,5.26M23.646-1.028c-5.68-.614-8.782,1.064-10.355,2.488-3.147,2.877-3.342,7.193-.51,10.91L41.57,50.793c3.072,4.031,3.162,9.621-.614,13.083L13.321,89.127a9.248,9.248,0,0,0-.6,13.083l19.032,20.86a4.6,4.6,0,0,1-.3,6.519L10.579,148.606a9.25,9.25,0,0,0-.614,13.083l16.679,19.527a4.6,4.6,0,0,1-.734,6.474L.988,205.268A9.257,9.257,0,0,0-.586,218.276l18.822,26.375a9.27,9.27,0,1,0,15.076-10.79l-10.775-16.08a4.607,4.607,0,0,1,.794-6.474l24.982-17.818a9.277,9.277,0,0,0,1.439-13.023L33,159.486a4.622,4.622,0,0,1,.3-6.534L54.173,133.92a9.263,9.263,0,0,0,.6-13.083L35.74,99.977a4.618,4.618,0,0,1,.3-6.519l20.815-19C59.568,71.983,64.5,67.023,66,53.206c3-27.529-15.211-51.312-42.35-54.234" transform="translate(129.838 1.166)" fill="#fff"/><path d="M296.39,59.342a30.233,30.233,0,0,1-16.6,16.245,33.341,33.341,0,0,1-23.992,0,31.479,31.479,0,0,1-9.951-6.519,28.405,28.405,0,0,1-6.639-9.726,27.874,27.874,0,0,1-2.338-11.464A29.188,29.188,0,0,1,239.2,36.309a29.84,29.84,0,0,1,6.639-9.621,35.285,35.285,0,0,1,10.22-6.609,31.67,31.67,0,0,1,23.513,0A29.873,29.873,0,0,1,289.6,26.688a30.559,30.559,0,0,1,6.879,9.891,29.28,29.28,0,0,1,2.233,11.3,28.355,28.355,0,0,1-2.323,11.464m5.8-44.029a48.785,48.785,0,0,0-15.66-9.981A53.281,53.281,0,0,0,267.737,1.9a51.653,51.653,0,0,0-18.448,3.432,46.7,46.7,0,0,0-15.75,9.981,44.848,44.848,0,0,0-10.655,14.761A43.568,43.568,0,0,0,219.168,47.5a44.367,44.367,0,0,0,14.372,33.029,47.806,47.806,0,0,0,15.66,9.876,52.576,52.576,0,0,0,37.21.09,49.482,49.482,0,0,0,15.87-9.966A46.6,46.6,0,0,0,312.83,65.8a43.537,43.537,0,0,0,3.627-17.564,45.07,45.07,0,0,0-3.537-17.893,45.442,45.442,0,0,0-10.73-15.031M592.782,77.281V55.146h42.545V39.681H592.782V18.416h43.879V3.01H574.8V92.656H638.07V77.281ZM547.54,58.054c-.09,5.77-1.918,10.071-6.069,13.487-3.986,3.387-9.411,5.29-16.5,5.29a28.2,28.2,0,0,1-10.91-2.068,22.083,22.083,0,0,1-8.212-6.069,11.6,11.6,0,0,1-2.488-5.05c-.57-1.948-.884-5.695-.884-11.1V2.621H485.8V53.033c0,6.879.465,12.019,1.5,15.66a26.053,26.053,0,0,0,5.11,9.7,37.287,37.287,0,0,0,14.1,10.8,45.621,45.621,0,0,0,18.463,3.657c11.359,0,20.905-3.177,28.189-9.5,7.373-6.279,11.1-14.851,10.97-24.937V2.621H547.54Zm-89.076,1.214a29.816,29.816,0,0,1-6.624,9.891l-.1.075a30.77,30.77,0,0,1-9.981,6.909A31.323,31.323,0,0,1,430,78.449a30.028,30.028,0,0,1-11.764-2.4,32.162,32.162,0,0,1-10.011-6.819v-.075a28.6,28.6,0,0,1-6.579-9.891A29.393,29.393,0,0,1,399.314,47.5a30.166,30.166,0,0,1,2.338-11.914,29.091,29.091,0,0,1,6.534-9.846,32.412,32.412,0,0,1,10.175-6.774,30.429,30.429,0,0,1,23.393,0,28.635,28.635,0,0,1,9.921,6.7,30.436,30.436,0,0,1,6.789,10.19A28.468,28.468,0,0,1,460.8,47.5a29.653,29.653,0,0,1-2.338,11.764m9.891,18.658a42.756,42.756,0,0,0,10.086-28.249,48.468,48.468,0,0,0-3.567-18.418,47.6,47.6,0,0,0-10.64-15.286,46.447,46.447,0,0,0-15.57-10.16A50.183,50.183,0,0,0,430,2.261a49.105,49.105,0,0,0-18.448,3.552,48.1,48.1,0,0,0-15.72,10.16,46.471,46.471,0,0,0-10.415,15.106,43.473,43.473,0,0,0-3.776,17.743,45.963,45.963,0,0,0,10.026,29.313,46.748,46.748,0,0,0,25.911,16.485,117.774,117.774,0,0,0,22.479,12.858c7.313,3.087,13.952,4.586,19.991,4.586h1.768a7.145,7.145,0,0,0,1.469-.15l.719-.1,13.278-11.674-1-2.817-.734-1.768-1.753.39a40.971,40.971,0,0,1-4.616.7,19.53,19.53,0,0,1-3.642.24,46.792,46.792,0,0,1-10.88-1.424c-2.368-.674-5.05-1.6-7.928-2.712,8.752-3.252,16.11-8.122,21.625-14.821M355.435,39.951h0l-1.918-1.034A61.192,61.192,0,0,1,342.2,30.9a13.322,13.322,0,0,1-2.5-3.147,4.046,4.046,0,0,1-.749-2.158,6.065,6.065,0,0,1,2.862-5.245,14,14,0,0,1,8.407-2.323,24.22,24.22,0,0,1,9.141,1.753,47.105,47.105,0,0,1,10.28,6.189l3.627,2.7V9.334l-1.094-.659A54.425,54.425,0,0,0,361.5,4.209a41.949,41.949,0,0,0-10.745-1.484c-8.062,0-15,2.248-20.381,6.714a22.211,22.211,0,0,0-8.137,17.519,21.165,21.165,0,0,0,4.286,13.278,39.154,39.154,0,0,0,7.118,6.324c3.252,2.473,7.418,5.155,12.483,8.257,3.177,1.813,5.74,3.522,7.733,4.915a24.7,24.7,0,0,1,4.031,3.357,9.017,9.017,0,0,1,2.053,5.6,7.184,7.184,0,0,1-2.982,5.949c-1.978,1.5-4.96,2.428-9.051,2.428a22.664,22.664,0,0,1-10.745-2.593c-3.327-1.708-6.983-4.691-10.91-8.752l-3.926-4.241V83.9l.974.629a36.787,36.787,0,0,0,11.734,6.339,41.425,41.425,0,0,0,13.667,2.083c8.122,0,15.046-2.248,20.4-6.714a21.98,21.98,0,0,0,8.167-17.369c0-5.874-1.379-11.03-4.376-15.211-2.982-4.286-8.752-8.692-17.459-13.712M192,73.369c-2.323,1.768-6.609,2.982-12.858,2.877H163.6V51.984h13.352c7.013,0,11.869,1.184,14.551,3.162,2.653,2.008,4.046,4.676,4.046,9.246,0,4.481-1.2,7.148-3.552,8.977M163.6,12.182h10.475c5.515,0,9.126.974,11.09,2.578a8.054,8.054,0,0,1,2.263,3.162,15.346,15.346,0,0,1,.749,5.05c0,4.5-1.334,7.283-4.031,9.321-2.593,1.948-7.193,3.192-13.787,3.192H163.6Zm33.149,28.773a21.617,21.617,0,0,0,6.144-5.59c2.653-3.612,3.821-8.107,3.821-13.218,0-8.227-2.787-14.971-8.392-19.6-5.59-4.676-13.233-6.789-22.854-6.789h-29.6V92.851h34.677c9.966,0,18.133-2.443,24.337-7.373a24.511,24.511,0,0,0,9.336-20.156,24.814,24.814,0,0,0-6.069-16.694,29.5,29.5,0,0,0-11.4-7.673M69.218,2.546H51.235V92.851h63.211V77.46H69.218ZM-3.284,52.1h42.29V35.65H-3.284v-23.6H40.19v-16.2H-21.192v97H41.614V76.426h-44.9Z" transform="translate(861.93 74.918)" fill="#fff"/><path d="M492.627,52.265V4.206h13.383a45.454,45.454,0,0,1,9.4.944,20.472,20.472,0,0,1,6.819,2.862,21.566,21.566,0,0,1,7.268,8.512A25.607,25.607,0,0,1,532.1,28.273a26.26,26.26,0,0,1-2.608,11.779,22.05,22.05,0,0,1-7.268,8.5,20.8,20.8,0,0,1-6.819,2.877,46.091,46.091,0,0,1-9.4.839Zm25.206,2.682a22.556,22.556,0,0,0,8.107-3.911,26.648,26.648,0,0,0,8.122-9.876A29.354,29.354,0,0,0,536.97,28.2a29.623,29.623,0,0,0-2.907-12.993,26.767,26.767,0,0,0-8.122-9.876,23.073,23.073,0,0,0-8.033-3.911A45.471,45.471,0,0,0,507.1.189H487.981V56.267H507.1a39.585,39.585,0,0,0,10.73-1.319m-80.16-21L447.879,9.72l10.07,24.232Zm9.246-31.62L423.886,56.267h4.481L436.2,37.594h23.2l7.883,18.672h4.466L448.7,2.332ZM371.181,52.265V4.206h13.337a45.343,45.343,0,0,1,9.4.944,20.556,20.556,0,0,1,6.834,2.862,22.129,22.129,0,0,1,7.3,8.512,26.175,26.175,0,0,1,2.578,11.749,26.85,26.85,0,0,1-2.578,11.779,22.641,22.641,0,0,1-7.3,8.5,20.884,20.884,0,0,1-6.834,2.877,45.988,45.988,0,0,1-9.4.839Zm25.176,2.682a24.1,24.1,0,0,0,8.137-3.911,27.051,27.051,0,0,0,8.107-9.876A29.329,29.329,0,0,0,415.479,28.2,29.6,29.6,0,0,0,412.6,15.205a27.174,27.174,0,0,0-8.107-9.876,24.727,24.727,0,0,0-8.062-3.911A45.242,45.242,0,0,0,385.642.189H366.43V56.267h19.212a39.627,39.627,0,0,0,10.715-1.319M345.69.189h-4.721V56.252h4.721ZM323.091,41.7a17.129,17.129,0,0,0-.869-5.32,15.176,15.176,0,0,0-2.742-4.451c-1.753-1.963-5.23-4-10.25-6.084a10.5,10.5,0,0,1-1.2-.569c-4.6-1.948-7.553-3.612-8.872-5.2a8.386,8.386,0,0,1-2.068-5.964,10.049,10.049,0,0,1,3.162-7.583,11.808,11.808,0,0,1,8.2-2.967,18.193,18.193,0,0,1,6.174,1.094,28.559,28.559,0,0,1,6.624,3.567V3.2A31.735,31.735,0,0,0,315,.384a24.91,24.91,0,0,0-6.324-.929c-4.781,0-8.6,1.394-11.584,4.2a13.892,13.892,0,0,0-4.481,10.61,12.718,12.718,0,0,0,2.922,8.722c1.948,2.218,5.575,4.466,10.895,6.669q7.71,3.259,9.816,5.62a9.03,9.03,0,0,1,2.113,6.264c0,3.462-.989,6.129-3.162,8.182-2.038,1.978-4.945,3-8.572,3a17.592,17.592,0,0,1-6.729-1.5,31.756,31.756,0,0,1-7.448-4.556v5.395a29.213,29.213,0,0,0,7.088,3.732A21.822,21.822,0,0,0,306.711,57c4.781,0,8.662-1.349,11.749-4.286A14.349,14.349,0,0,0,323.091,41.7M243.65,4.041h9.306c4.2,0,7.373.824,9.7,2.682a9.066,9.066,0,0,1,3.357,7.538,10.975,10.975,0,0,1-1.469,6.009,9.472,9.472,0,0,1-4.586,3.776,17.754,17.754,0,0,1-4.091,1.154c-1.723.165-4.6.255-8.767.255H243.65Zm0,25.266h4.511a30.812,30.812,0,0,1,7.133.659,8.078,8.078,0,0,1,3.941,2.128,41.423,41.423,0,0,1,2.952,3.732c1.229,1.693,2.8,3.926,4.481,6.669l8.872,13.772h5.02l-15.3-23.6a17.579,17.579,0,0,0-2.113-2.7,21.821,21.821,0,0,0-2.817-2.038,15.474,15.474,0,0,0,7.928-5.155,13.349,13.349,0,0,0,2.623-8.512c0-4.541-1.5-8-4.661-10.415C263.027,1.418,258.561.189,252.7.189H239.245V56.267h4.406ZM219.463,52.43h-26.21V29.652h24.712v-3.6H193.253V3.846h25.566V.189H188.772V56.267h30.691ZM151.936,57.2,175.449.189h-4.765L151.547,47.23,132.635.189h-4.975l23.6,57.007Zm-45.063-.929h4.766V.2h-4.766ZM41.37,5.9,82.417,55.428h4.106V-.545H82.1V48.219L41.55-.545H36.889V55.428H41.37ZM-9.3,61.227c8.017,0,14.372-2.548,19.062-7.553,4.631-5.05,7.073-11.869,7.073-20.366V-3.737H11.5V33.608c0,6.8-1.873,12.2-5.56,16.23-3.851,4-8.887,6.069-15.241,6.069s-11.389-2.068-15.121-6.069c-3.821-4.031-5.71-9.426-5.71-16.23V-3.737h-5.1V33.308c0,8.587,2.308,15.406,6.983,20.366,4.676,5.005,11.03,7.553,18.942,7.553" transform="translate(272.326 106.581)" fill="#fff"/></g></g></svg>