<svg xmlns="http://www.w3.org/2000/svg" width="1625" height="656" viewBox="0 0 1625 656"><g transform="translate(22781 22796)"><rect width="1625" height="656" transform="translate(-22781 -22796)" fill="none"/><g transform="translate(-22718.764 -22733.396)"><g transform="translate(695.341 47.909)"><path d="M36.3,291.974C6.705,220.105-3.72,145.708-3.72,68.955c0-33.083,2.109-66.242,7.628-98.874H32.139c-6.821,31.05-8.93,62.875-8.93,94.57,0,66.619,8.263,137.444,27.521,201.61C70.021,202.095,78.284,131.27,78.284,64.651c0-31.7-2.119-63.52-8.93-94.57h28.22c5.519,32.632,7.639,65.79,7.639,98.874,0,76.753-10.425,151.151-40.012,223.02Z" transform="translate(3.72 29.919)" fill="#ff893b"/></g><g transform="translate(848.668 125.493)"><path d="M1.853,1.485a6.272,6.272,0,1,1-.409,8.855,6.268,6.268,0,0,1,.409-8.855" transform="translate(0.19 0.152)" fill="#ff893b"/></g><g transform="translate(848.668 144.97)"><path d="M1.853,1.482a6.272,6.272,0,1,1-.409,8.855,6.287,6.287,0,0,1,.409-8.855" transform="translate(0.19 0.152)" fill="#ff893b"/></g><g transform="translate(861.928 160.15)"><path d="M1.853,1.47a6.275,6.275,0,1,1-.409,8.876A6.284,6.284,0,0,1,1.853,1.47" transform="translate(0.19 0.151)" fill="#ff893b"/></g><g transform="translate(844.721 210.919)"><path d="M1.854,1.478a6.276,6.276,0,1,1-.42,8.855,6.283,6.283,0,0,1,.42-8.855" transform="translate(0.19 0.152)" fill="#ff893b"/></g><g transform="translate(843.809 230.828)"><path d="M2.077,1.289a6.271,6.271,0,1,1-.871,8.822,6.232,6.232,0,0,1,.871-8.822" transform="translate(0.213 0.132)" fill="#ff893b"/></g><g transform="translate(856.426 246.68)"><path d="M2.135,1.234a6.266,6.266,0,1,1-.99,8.8,6.258,6.258,0,0,1,.99-8.8" transform="translate(0.219 0.126)" fill="#ff893b"/></g><g transform="translate(857.996 198.796)"><path d="M1.845,1.477a6.276,6.276,0,1,1-.409,8.855,6.274,6.274,0,0,1,.409-8.855" transform="translate(0.189 0.151)" fill="#ff893b"/></g><g transform="translate(831.331 295.997)"><path d="M2.383,1.055A6.269,6.269,0,1,1,.909,9.791,6.261,6.261,0,0,1,2.383,1.055" transform="translate(0.244 0.108)" fill="#ff893b"/></g><g transform="translate(829.713 317.894)"><path d="M2.511.959A6.266,6.266,0,1,1,.8,9.663,6.282,6.282,0,0,1,2.511.959" transform="translate(0.257 0.098)" fill="#ff893b"/></g><g transform="translate(846.104 285.422)"><path d="M2.387,1.05A6.266,6.266,0,1,1,.913,9.786,6.263,6.263,0,0,1,2.387,1.05" transform="translate(0.245 0.108)" fill="#ff893b"/></g><g transform="translate(878.41 94.211)"><path d="M.573,3.194a6.265,6.265,0,1,1,2.9,8.37,6.27,6.27,0,0,1-2.9-8.37" transform="translate(0.059 0.327)" fill="#ff893b"/></g><g transform="translate(884.179 72.265)"><path d="M.006,5.4a6.275,6.275,0,1,1,5.939,6.574A6.273,6.273,0,0,1,.006,5.4" transform="translate(0.001 0.554)" fill="#ff893b"/></g><g transform="translate(883.308 48.481)"><path d="M.1,6.753a6.275,6.275,0,1,1,7.327,4.981A6.282,6.282,0,0,1,.1,6.753" transform="translate(0.01 0.692)" fill="#ff893b"/></g><g transform="translate(875.647 26.502)"><path d="M.768,8.549a6.266,6.266,0,1,1,8.586,2.259A6.287,6.287,0,0,1,.768,8.549" transform="translate(0.079 0.876)" fill="#ff893b"/></g><g transform="translate(864.334 110.995)"><path d="M1.853,1.469a6.272,6.272,0,1,1-.409,8.865,6.3,6.3,0,0,1,.409-8.865" transform="translate(0.19 0.151)" fill="#ff893b"/></g><g transform="translate(638.612 125.493)"><path d="M9.517,1.485a6.272,6.272,0,1,0,.409,8.855,6.255,6.255,0,0,0-.409-8.855" transform="translate(0.975 0.152)" fill="#ff893b"/></g><g transform="translate(638.612 144.97)"><path d="M9.517,1.482a6.272,6.272,0,1,0,.409,8.855,6.274,6.274,0,0,0-.409-8.855" transform="translate(0.975 0.152)" fill="#ff893b"/></g><g transform="translate(625.356 160.15)"><path d="M9.5,1.47a6.268,6.268,0,1,0,.42,8.876A6.309,6.309,0,0,0,9.5,1.47" transform="translate(0.974 0.151)" fill="#ff893b"/></g><g transform="translate(642.568 210.919)"><path d="M9.512,1.478a6.276,6.276,0,1,0,.409,8.855,6.269,6.269,0,0,0-.409-8.855" transform="translate(0.975 0.152)" fill="#ff893b"/></g><g transform="translate(643.473 230.828)"><path d="M9.3,1.289a6.268,6.268,0,1,0,.861,8.822A6.261,6.261,0,0,0,9.3,1.289" transform="translate(0.953 0.132)" fill="#ff893b"/></g><g transform="translate(630.861 246.68)"><path d="M9.228,1.234a6.266,6.266,0,1,0,1,8.8,6.258,6.258,0,0,0-1-8.8" transform="translate(0.946 0.126)" fill="#ff893b"/></g><g transform="translate(629.291 198.796)"><path d="M9.524,1.477a6.279,6.279,0,1,0,.409,8.855,6.287,6.287,0,0,0-.409-8.855" transform="translate(0.976 0.151)" fill="#ff893b"/></g><g transform="translate(655.95 295.997)"><path d="M8.986,1.055A6.272,6.272,0,1,0,10.46,9.791,6.261,6.261,0,0,0,8.986,1.055" transform="translate(0.921 0.108)" fill="#ff893b"/></g><g transform="translate(657.578 317.894)"><path d="M8.848.959a6.266,6.266,0,1,0,1.711,8.7A6.284,6.284,0,0,0,8.848.959" transform="translate(0.907 0.098)" fill="#ff893b"/></g><g transform="translate(641.184 285.422)"><path d="M8.976,1.05a6.266,6.266,0,1,0,1.485,8.736A6.248,6.248,0,0,0,8.976,1.05" transform="translate(0.92 0.108)" fill="#ff893b"/></g><g transform="translate(608.865 94.211)"><path d="M10.815,3.194A6.279,6.279,0,1,0,7.9,11.564a6.3,6.3,0,0,0,2.916-8.37" transform="translate(1.108 0.327)" fill="#ff893b"/></g><g transform="translate(603.084 72.265)"><path d="M11.375,5.4a6.275,6.275,0,1,0-5.96,6.574A6.283,6.283,0,0,0,11.375,5.4" transform="translate(1.166 0.554)" fill="#ff893b"/></g><g transform="translate(603.96 48.481)"><path d="M11.281,6.753A6.27,6.27,0,1,0-1.038,4.408a6.229,6.229,0,0,0,4.981,7.327,6.3,6.3,0,0,0,7.338-4.981" transform="translate(1.156 0.692)" fill="#ff893b"/></g><g transform="translate(611.619 26.502)"><path d="M10.6,8.549a6.27,6.27,0,1,0-8.586,2.259A6.24,6.24,0,0,0,10.6,8.549" transform="translate(1.086 0.876)" fill="#ff893b"/></g><g transform="translate(622.953 110.995)"><path d="M9.51,1.469a6.276,6.276,0,1,0,.409,8.865A6.284,6.284,0,0,0,9.51,1.469" transform="translate(0.975 0.151)" fill="#ff893b"/></g><g transform="translate(615.142)"><path d="M39.34,15.781a5.373,5.373,0,0,1,7.553-.334,5.335,5.335,0,1,1-7.553.334M89.766,294.725,53.972,269.506a6.633,6.633,0,0,1-1.033-9.328l23.928-28.005a13.277,13.277,0,0,0-.871-18.774L46.032,186.093a6.618,6.618,0,0,1-.441-9.349l27.338-29.953a13.308,13.308,0,0,0-.861-18.785L32.379,91.749c-5.422-4.949-5.3-12.986-.871-18.8L72.821,17.8c4.056-5.315,3.8-11.533-.721-15.654C69.841.094,65.376-2.3,57.232-1.433,18.274,2.784-7.881,36.933-3.567,76.407c2.152,19.85,9.231,26.983,13.115,30.523l29.877,27.3a6.61,6.61,0,0,1,.43,9.36L12.55,173.537a13.274,13.274,0,0,0,.871,18.763l29.963,27.327a6.608,6.608,0,0,1,.43,9.349L19.759,259.113a13.292,13.292,0,0,0,2.087,18.7l35.848,25.574a6.622,6.622,0,0,1,1.119,9.306L43.374,335.77a13.289,13.289,0,1,0,21.6,15.482L92.015,313.4a13.308,13.308,0,0,0-2.249-18.677" transform="translate(4.031 1.617)" fill="#ff893b"/></g><g transform="translate(785.794 0.008)"><path d="M50.019,22.622a5.331,5.331,0,1,1,.344-7.553,5.331,5.331,0,0,1-.344,7.553M32.483-2.134c-8.155-.871-12.6,1.528-14.847,3.583-4.529,4.121-4.8,10.339-.721,15.654l41.3,55.15c4.422,5.8,4.573,13.836-.861,18.785L17.668,127.294a13.289,13.289,0,0,0-.871,18.785l27.349,29.953a6.618,6.618,0,0,1-.452,9.349L13.719,212.687a13.278,13.278,0,0,0-.871,18.774L36.8,259.466a6.634,6.634,0,0,1-1.044,9.328L-.031,294.024A13.286,13.286,0,0,0-2.29,312.69L24.736,350.54a13.29,13.29,0,1,0,21.614-15.471L30.89,311.98a6.6,6.6,0,0,1,1.151-9.3L67.89,277.111a13.332,13.332,0,0,0,2.076-18.7L45.91,228.277a6.607,6.607,0,0,1,.43-9.349L76.293,191.6a13.268,13.268,0,0,0,.871-18.774L49.858,142.873a6.629,6.629,0,0,1,.42-9.36l29.9-27.3c3.884-3.54,10.963-10.662,13.115-30.512,4.314-39.485-21.84-73.633-60.809-77.84" transform="translate(5.126 2.318)" fill="#ff893b"/></g><g transform="translate(866.478 418.849)"><path d="M276.838,55.42a29.218,29.218,0,0,1-15.955,15.622,31.985,31.985,0,0,1-23.067,0,30.606,30.606,0,0,1-9.543-6.262,27.04,27.04,0,0,1-6.391-9.36,26.76,26.76,0,0,1-2.249-11.006,27.989,27.989,0,0,1,8.639-20.356,33,33,0,0,1,9.8-6.348,30.334,30.334,0,0,1,22.6,0,28.164,28.164,0,0,1,9.629,6.348,29.7,29.7,0,0,1,6.617,9.489,28,28,0,0,1,2.141,10.866,27.1,27.1,0,0,1-2.227,11.006M282.39,13.1A46.656,46.656,0,0,0,267.338,3.52,51.232,51.232,0,0,0,249.3.217a49.609,49.609,0,0,0-17.72,3.3A45.4,45.4,0,0,0,216.427,13.1a43.478,43.478,0,0,0-10.242,14.2,41.741,41.741,0,0,0-3.572,16.751,42.906,42.906,0,0,0,3.5,17.214,43.371,43.371,0,0,0,10.318,14.524,45.8,45.8,0,0,0,15.062,9.5,50.609,50.609,0,0,0,35.741.086,47.854,47.854,0,0,0,15.256-9.586A44.755,44.755,0,0,0,292.6,61.628a41.478,41.478,0,0,0,3.5-16.87,43.256,43.256,0,0,0-3.389-17.182A44.078,44.078,0,0,0,282.39,13.1M561.635,72.656V51.386h40.884V36.539H561.635V16.086H603.81V1.3H544.356V87.439h60.8V72.656ZM518.159,54.194c-.086,5.53-1.84,9.661-5.81,12.954-3.852,3.249-9.059,5.078-15.869,5.078a26.66,26.66,0,0,1-10.49-1.99,21.21,21.21,0,0,1-7.9-5.831,11.11,11.11,0,0,1-2.388-4.863c-.538-1.851-.839-5.444-.839-10.662V.938H458.824V49.363c0,6.606.452,11.544,1.463,15.041a24.734,24.734,0,0,0,4.906,9.328,35.862,35.862,0,0,0,13.535,10.382,43.791,43.791,0,0,0,17.752,3.518c10.9,0,20.087-3.045,27.08-9.134,7.09-6.046,10.683-14.277,10.544-23.971V.938H518.159Zm-85.576,1.173a29.074,29.074,0,0,1-6.391,9.479l-.086.1A28.482,28.482,0,0,1,405.223,73.8a28.8,28.8,0,0,1-11.307-2.3,31.517,31.517,0,0,1-9.618-6.552v-.1a27.615,27.615,0,0,1-6.326-9.479,28.374,28.374,0,0,1-2.238-11.318A29,29,0,0,1,377.971,32.6a27.826,27.826,0,0,1,6.283-9.457,31.3,31.3,0,0,1,9.78-6.531,29.334,29.334,0,0,1,22.475,0,27.907,27.907,0,0,1,9.532,6.445,29.338,29.338,0,0,1,6.541,9.8A27.666,27.666,0,0,1,434.8,44.048a28.922,28.922,0,0,1-2.216,11.318m9.489,17.924a41.145,41.145,0,0,0,9.694-27.145,46.619,46.619,0,0,0-3.432-17.709,45.8,45.8,0,0,0-10.221-14.686,45.232,45.232,0,0,0-14.955-9.769,48.528,48.528,0,0,0-17.935-3.4,47.526,47.526,0,0,0-17.741,3.4A46.339,46.339,0,0,0,372.4,13.751a44.906,44.906,0,0,0-10.027,14.514,41.972,41.972,0,0,0-3.626,17.063,44.2,44.2,0,0,0,9.64,28.156,44.833,44.833,0,0,0,24.9,15.837,114.2,114.2,0,0,0,21.6,12.351c7.025,2.969,13.405,4.411,19.2,4.411h1.689a6.115,6.115,0,0,0,1.42-.151l.689-.1,12.76-11.221-.958-2.7-.71-1.689-1.689.377c-1.657.344-3.066.527-4.422.678a20.1,20.1,0,0,1-3.507.215,45.621,45.621,0,0,1-10.468-1.356c-2.249-.646-4.852-1.549-7.6-2.6,8.4-3.142,15.482-7.811,20.775-14.245M333.569,36.8h0l-1.829-1.011a56.6,56.6,0,0,1-10.888-7.7,11.526,11.526,0,0,1-2.4-3.034A3.639,3.639,0,0,1,317.722,23a5.819,5.819,0,0,1,2.765-5.067,13.488,13.488,0,0,1,8.069-2.216,23.186,23.186,0,0,1,8.779,1.689,43.793,43.793,0,0,1,9.877,5.939l3.486,2.593V7.371l-1.044-.624A50.783,50.783,0,0,0,339.4,2.465a39.941,39.941,0,0,0-10.318-1.452c-7.768,0-14.438,2.173-19.613,6.455a21.423,21.423,0,0,0-7.8,16.838,20.3,20.3,0,0,0,4.121,12.749,37.724,37.724,0,0,0,6.821,6.089c3.131,2.378,7.144,4.949,12.007,7.929,3.055,1.743,5.53,3.389,7.445,4.734a26.321,26.321,0,0,1,3.862,3.206,8.7,8.7,0,0,1,1.98,5.39,6.855,6.855,0,0,1-2.883,5.713c-1.894,1.452-4.755,2.335-8.693,2.335a21.77,21.77,0,0,1-10.339-2.5c-3.185-1.625-6.692-4.508-10.468-8.413l-3.766-4.067V79.014l.947.624a35.15,35.15,0,0,0,11.264,6.1A40.531,40.531,0,0,0,327.1,87.708c7.8,0,14.449-2.152,19.592-6.434a21.1,21.1,0,0,0,7.854-16.687c0-5.648-1.334-10.608-4.2-14.61-2.873-4.121-8.413-8.36-16.784-13.18M176.512,68.88c-2.227,1.721-6.348,2.9-12.373,2.787H149.217V48.352h12.846c6.735,0,11.415,1.162,13.965,3.034,2.55,1.926,3.884,4.5,3.884,8.9,0,4.3-1.13,6.864-3.4,8.6M149.217,10.1h10.092c5.283,0,8.758.936,10.651,2.475a7.753,7.753,0,0,1,2.152,3.045,14.749,14.749,0,0,1,.732,4.841c0,4.325-1.27,7.015-3.862,8.984-2.507,1.84-6.918,3.056-13.266,3.056h-6.5Zm31.868,27.65a20.853,20.853,0,0,0,5.907-5.369c2.55-3.475,3.669-7.8,3.669-12.728,0-7.886-2.679-14.363-8.048-18.806-5.4-4.5-12.728-6.531-21.991-6.531H132.186V87.632h33.331c9.575,0,17.419-2.345,23.39-7.112a23.5,23.5,0,0,0,8.962-19.344,23.879,23.879,0,0,0-5.831-16.041,28.186,28.186,0,0,0-10.952-7.381M58.531.852H41.252V87.632h60.755V72.839H58.531ZM-11.132,48.47H29.5V32.676H-11.132V9.975H30.644V-5.6H-28.368V87.632H32.01v-15.8H-11.132Z" transform="translate(28.368 5.679)" fill="#394024"/></g><g transform="translate(0 418.844)"><path d="M687.284,72.928V3.91h19.2A65.7,65.7,0,0,1,719.98,5.276,29.247,29.247,0,0,1,729.76,9.4,30.913,30.913,0,0,1,740.218,21.63a36.873,36.873,0,0,1,3.744,16.859,38.013,38.013,0,0,1-3.744,16.9A31.473,31.473,0,0,1,729.76,67.559a28.852,28.852,0,0,1-9.78,4.164,65.96,65.96,0,0,1-13.492,1.2Zm36.193,3.841a32.788,32.788,0,0,0,11.652-5.616,38.084,38.084,0,0,0,11.62-14.169,41.793,41.793,0,0,0,4.185-18.634,42.143,42.143,0,0,0-4.185-18.624,37.95,37.95,0,0,0-11.62-14.18A33.2,33.2,0,0,0,723.6-.06a63.879,63.879,0,0,0-15.5-1.754H680.625V78.651h27.467a56.4,56.4,0,0,0,15.385-1.883M608.411,46.655l14.643-34.816L637.5,46.655ZM621.7,1.252l-33.1,77.4h6.445L606.3,51.873h33.288l11.318,26.779h6.423l-33.073-77.4ZM512.959,72.928V3.91H532.11a65.482,65.482,0,0,1,13.47,1.366A29.334,29.334,0,0,1,555.392,9.4a31.8,31.8,0,0,1,10.5,12.233,37.84,37.84,0,0,1,3.7,16.859,39.03,39.03,0,0,1-3.7,16.9,32.4,32.4,0,0,1-10.5,12.168,28.937,28.937,0,0,1-9.812,4.164,65.737,65.737,0,0,1-13.47,1.2Zm36.15,3.841a34.459,34.459,0,0,0,11.652-5.616,38.929,38.929,0,0,0,11.663-14.169,42.32,42.32,0,0,0,4.11-18.634,42.673,42.673,0,0,0-4.11-18.624,38.788,38.788,0,0,0-11.663-14.18A34.9,34.9,0,0,0,549.216-.06a63.654,63.654,0,0,0-15.493-1.754h-27.6V78.651h27.6a56.618,56.618,0,0,0,15.385-1.883M476.347-1.814H469.58V78.651h6.767ZM443.931,57.747a24.493,24.493,0,0,0-1.27-7.628,22.248,22.248,0,0,0-3.916-6.4c-2.539-2.83-7.531-5.745-14.74-8.7-.8-.409-1.3-.57-1.711-.839-6.6-2.787-10.823-5.2-12.738-7.477-2.012-2.1-2.959-5.067-2.959-8.543a14.257,14.257,0,0,1,4.54-10.866A16.88,16.88,0,0,1,422.9,3.006a26.138,26.138,0,0,1,8.876,1.571,41.5,41.5,0,0,1,9.511,5.1v-7.2a45.431,45.431,0,0,0-8.973-4.035,35.953,35.953,0,0,0-9.1-1.356c-6.853,0-12.33,2.033-16.612,6.068a19.838,19.838,0,0,0-6.434,15.224c0,5.067,1.345,9.285,4.174,12.513,2.8,3.174,8,6.391,15.665,9.565,7.381,3.131,12.039,5.788,14.094,8.069a13.008,13.008,0,0,1,3.023,8.994c0,4.949-1.409,8.811-4.551,11.759-2.9,2.83-7.1,4.314-12.287,4.314a25.321,25.321,0,0,1-9.672-2.195,44.172,44.172,0,0,1-10.7-6.552v7.768a42.748,42.748,0,0,0,10.21,5.369A31.4,31.4,0,0,0,420.4,79.727c6.875,0,12.448-1.969,16.881-6.133a20.834,20.834,0,0,0,6.649-15.848M329.876,3.684H343.25c6.014,0,10.576,1.183,13.922,3.852,3.217,2.561,4.8,6.176,4.8,10.845A16.1,16.1,0,0,1,359.883,27a13.769,13.769,0,0,1-6.6,5.412,23.509,23.509,0,0,1-5.874,1.657c-2.475.237-6.606.377-12.577.377h-4.96Zm0,36.29h6.488a45.966,45.966,0,0,1,10.242.915,11.736,11.736,0,0,1,5.648,3.088,53.441,53.441,0,0,1,4.228,5.358c1.764,2.41,4.035,5.605,6.444,9.532l12.728,19.785h7.208L360.9,44.815a23.988,23.988,0,0,0-3.056-3.927,31.122,31.122,0,0,0-4.024-2.916c5.067-1.6,8.9-4.067,11.394-7.391,2.55-3.238,3.744-7.381,3.744-12.2,0-6.541-2.152-11.5-6.681-14.976C357.688-.06,351.3-1.814,342.873-1.814H323.55V78.651h6.326ZM295.19,73.154H257.545v-32.7h35.472V35.3H257.545V3.4h36.709V-1.814H251.1V78.651h44.09ZM198.232,80l33.75-81.81h-6.843L197.672,65.7,170.517-1.814h-7.133L197.263,80Zm-64.7-1.345h6.843V-1.825h-6.843ZM39.507,6.352,98.422,77.457h5.917V-2.911H97.992V67.1L39.754-2.911H33.073V77.457h6.434Zm-72.74,79.422c11.523,0,20.646-3.636,27.392-10.845C.775,67.688,4.293,57.9,4.293,45.7V-7.473H-3.378V46.138c0,9.769-2.668,17.515-7.972,23.3-5.519,5.745-12.749,8.693-21.883,8.693-9.091,0-16.332-2.948-21.7-8.693-5.476-5.788-8.187-13.535-8.187-23.3V-7.473h-7.305V45.7c0,12.33,3.3,22.12,10.016,29.232,6.7,7.208,15.815,10.845,27.177,10.845" transform="translate(70.427 7.473)" fill="#394024"/></g></g></g></svg>