<svg id="facultad-logo-ueb-vertical-a-una-linea" xmlns="http://www.w3.org/2000/svg" width="1598" height="1064.223" viewBox="0 0 1598 1064.223">
  <defs>
    <style>
      .cls-1 {
        fill: none;
      }

      .cls-2 {
        fill: #ff893b;
      }

      .cls-3 {
        fill: #394024;
      }

      .cls-4 {
        fill: #33371d;
      }
    </style>
  </defs>
  <rect id="Rectangle_89" data-name="Rectangle 89" class="cls-1" width="1598" height="1064.223"/>
  <g id="Capa_3" data-name="Capa 3" transform="translate(58.891 59.036)">
    <g id="Group_121" data-name="Group 121">
      <g id="Group_120" data-name="Group 120">
        <g id="Group_117" data-name="Group 117" transform="translate(595.232)">
          <path id="Path_904" data-name="Path 904" class="cls-2" d="M949.575,1894.885c-29.215-70.922-39.492-144.337-39.492-220.073,0-32.666,2.079-65.371,7.532-97.572h27.851c-6.723,30.635-8.82,62.044-8.82,93.318,0,65.737,8.162,135.632,27.173,198.955,19.031-63.322,27.173-133.218,27.173-198.955,0-31.275-2.069-62.683-8.8-93.318h27.851c5.433,32.2,7.532,64.906,7.532,97.572,0,75.736-10.28,149.152-39.492,220.073Z" transform="translate(-819.049 -1529.959)"/>
          <path id="Path_905" data-name="Path 905" class="cls-2" d="M977.9,1612.149a6.191,6.191,0,1,1-.4,8.74A6.181,6.181,0,0,1,977.9,1612.149Z" transform="translate(-733.554 -1486.693)"/>
          <path id="Path_906" data-name="Path 906" class="cls-2" d="M977.9,1620.5a6.191,6.191,0,1,1-.4,8.742A6.179,6.179,0,0,1,977.9,1620.5Z" transform="translate(-733.554 -1475.841)"/>
          <path id="Path_907" data-name="Path 907" class="cls-2" d="M983.6,1627.019a6.186,6.186,0,1,1-.416,8.742A6.176,6.176,0,0,1,983.6,1627.019Z" transform="translate(-726.155 -1467.373)"/>
          <path id="Path_908" data-name="Path 908" class="cls-2" d="M976.2,1648.806a6.185,6.185,0,1,1-.4,8.74A6.169,6.169,0,0,1,976.2,1648.806Z" transform="translate(-735.756 -1439.065)"/>
          <path id="Path_909" data-name="Path 909" class="cls-2" d="M976.054,1657.153a6.19,6.19,0,1,1-.851,8.7A6.162,6.162,0,0,1,976.054,1657.153Z" transform="translate(-736.263 -1427.958)"/>
          <path id="Path_910" data-name="Path 910" class="cls-2" d="M981.536,1663.89a6.19,6.19,0,1,1-.977,8.7A6.177,6.177,0,0,1,981.536,1663.89Z" transform="translate(-729.233 -1419.125)"/>
          <path id="Path_911" data-name="Path 911" class="cls-2" d="M981.893,1643.592a6.2,6.2,0,1,1-.386,8.742A6.213,6.213,0,0,1,981.893,1643.592Z" transform="translate(-728.352 -1445.826)"/>
          <path id="Path_912" data-name="Path 912" class="cls-2" d="M971.038,1684.849a6.2,6.2,0,1,1-1.451,8.648A6.186,6.186,0,0,1,971.038,1684.849Z" transform="translate(-743.219 -1391.619)"/>
          <path id="Path_913" data-name="Path 913" class="cls-2" d="M970.485,1694.15a6.18,6.18,0,1,1-1.692,8.59A6.179,6.179,0,0,1,970.485,1694.15Z" transform="translate(-744.126 -1379.415)"/>
          <path id="Path_914" data-name="Path 914" class="cls-2" d="M977.376,1680.309a6.193,6.193,0,1,1-1.451,8.627A6.2,6.2,0,0,1,977.376,1680.309Z" transform="translate(-734.985 -1397.521)"/>
          <path id="Path_915" data-name="Path 915" class="cls-2" d="M989.271,1600.593a6.183,6.183,0,1,1,2.86,8.257A6.177,6.177,0,0,1,989.271,1600.593Z" transform="translate(-716.969 -1504.147)"/>
          <path id="Path_916" data-name="Path 916" class="cls-2" d="M991.136,1593.577a6.185,6.185,0,1,1,5.87,6.479A6.193,6.193,0,0,1,991.136,1593.577Z" transform="translate(-713.748 -1516.379)"/>
          <path id="Path_917" data-name="Path 917" class="cls-2" d="M990.867,1584.829a6.185,6.185,0,1,1,7.222,4.914A6.171,6.171,0,0,1,990.867,1584.829Z" transform="translate(-714.232 -1529.639)"/>
          <path id="Path_918" data-name="Path 918" class="cls-2" d="M988.306,1577.366a6.19,6.19,0,1,1,8.482,2.205A6.2,6.2,0,0,1,988.306,1577.366Z" transform="translate(-718.51 -1541.902)"/>
          <path id="Path_919" data-name="Path 919" class="cls-2" d="M984.628,1605.928a6.189,6.189,0,1,1-.414,8.721A6.187,6.187,0,0,1,984.628,1605.928Z" transform="translate(-724.822 -1494.785)"/>
          <path id="Path_920" data-name="Path 920" class="cls-2" d="M896.085,1612.149a6.191,6.191,0,1,0,.407,8.74A6.181,6.181,0,0,0,896.085,1612.149Z" transform="translate(-850.685 -1486.693)"/>
          <path id="Path_921" data-name="Path 921" class="cls-2" d="M896.085,1620.5a6.191,6.191,0,1,0,.407,8.742A6.179,6.179,0,0,0,896.085,1620.5Z" transform="translate(-850.685 -1475.841)"/>
          <path id="Path_922" data-name="Path 922" class="cls-2" d="M890.388,1627.019a6.188,6.188,0,1,0,.407,8.742A6.188,6.188,0,0,0,890.388,1627.019Z" transform="translate(-858.082 -1467.373)"/>
          <path id="Path_923" data-name="Path 923" class="cls-2" d="M897.791,1648.806a6.191,6.191,0,1,0,.386,8.74A6.181,6.181,0,0,0,897.791,1648.806Z" transform="translate(-848.484 -1439.065)"/>
          <path id="Path_924" data-name="Path 924" class="cls-2" d="M897.93,1657.153a6.188,6.188,0,1,0,.842,8.7A6.162,6.162,0,0,0,897.93,1657.153Z" transform="translate(-847.975 -1427.958)"/>
          <path id="Path_925" data-name="Path 925" class="cls-2" d="M892.457,1663.89a6.194,6.194,0,1,0,.966,8.7A6.187,6.187,0,0,0,892.457,1663.89Z" transform="translate(-855.005 -1419.125)"/>
          <path id="Path_926" data-name="Path 926" class="cls-2" d="M892.088,1643.592a6.2,6.2,0,1,0,.4,8.742A6.2,6.2,0,0,0,892.088,1643.592Z" transform="translate(-855.884 -1445.826)"/>
          <path id="Path_927" data-name="Path 927" class="cls-2" d="M902.942,1684.849a6.192,6.192,0,1,0,1.462,8.648A6.186,6.186,0,0,0,902.942,1684.849Z" transform="translate(-841.017 -1391.619)"/>
          <path id="Path_928" data-name="Path 928" class="cls-2" d="M903.5,1694.15a6.183,6.183,0,1,0,1.692,8.59A6.169,6.169,0,0,0,903.5,1694.15Z" transform="translate(-840.11 -1379.415)"/>
          <path id="Path_929" data-name="Path 929" class="cls-2" d="M896.6,1680.309a6.193,6.193,0,1,0,1.451,8.627A6.192,6.192,0,0,0,896.6,1680.309Z" transform="translate(-849.251 -1397.521)"/>
          <path id="Path_930" data-name="Path 930" class="cls-2" d="M884.738,1600.593a6.193,6.193,0,1,0-2.881,8.257A6.193,6.193,0,0,0,884.738,1600.593Z" transform="translate(-867.276 -1504.147)"/>
          <path id="Path_931" data-name="Path 931" class="cls-2" d="M882.857,1593.577a6.187,6.187,0,1,0-5.879,6.479A6.217,6.217,0,0,0,882.857,1593.577Z" transform="translate(-870.49 -1516.379)"/>
          <path id="Path_932" data-name="Path 932" class="cls-2" d="M883.134,1584.829a6.191,6.191,0,1,0-7.234,4.914A6.188,6.188,0,0,0,883.134,1584.829Z" transform="translate(-870.013 -1529.639)"/>
          <path id="Path_933" data-name="Path 933" class="cls-2" d="M885.685,1577.366a6.194,6.194,0,1,0-8.471,2.205A6.2,6.2,0,0,0,885.685,1577.366Z" transform="translate(-865.737 -1541.902)"/>
          <path id="Path_934" data-name="Path 934" class="cls-2" d="M889.367,1605.928a6.188,6.188,0,1,0,.4,8.721A6.183,6.183,0,0,0,889.367,1605.928Z" transform="translate(-859.419 -1494.785)"/>
          <g id="Group_116" data-name="Group 116" transform="translate(11.881)">
            <path id="Path_935" data-name="Path 935" class="cls-2" d="M968.214,1849.094,932.9,1824.225a6.559,6.559,0,0,1-1.014-9.208l23.614-27.635a13.108,13.108,0,0,0-.86-18.527l-29.571-26.941a6.523,6.523,0,0,1-.435-9.227l26.971-29.571a13.109,13.109,0,0,0-.853-18.528l-39.155-35.779c-5.357-4.875-5.231-12.8-.851-18.532l40.75-54.422c4.012-5.263,3.752-11.391-.706-15.453-2.235-2.033-6.633-4.41-14.669-3.541-38.439,4.141-64.249,37.851-60,76.821,2.138,19.574,9.119,26.612,12.949,30.114l29.493,26.922a6.541,6.541,0,0,1,.425,9.243l-26.959,29.552a13.135,13.135,0,0,0,.851,18.53L922.444,1775a6.513,6.513,0,0,1,.425,9.227l-23.731,29.746a13.135,13.135,0,0,0,2.051,18.449l35.372,25.237a6.527,6.527,0,0,1,1.122,9.17l-15.258,22.781a13.12,13.12,0,0,0,21.331,15.281l26.69-37.368A13.124,13.124,0,0,0,968.214,1849.094Zm-49.745-275.251a5.27,5.27,0,1,1,.359,7.447A5.27,5.27,0,0,1,918.469,1573.843Z" transform="translate(-875.658 -1556.676)"/>
            <path id="Path_936" data-name="Path 936" class="cls-2" d="M986.026,1556.86c-8.045-.869-12.435,1.508-14.678,3.541-4.456,4.063-4.718,10.19-.706,15.453l40.759,54.422c4.371,5.728,4.5,13.658-.851,18.532l-39.164,35.779a13.106,13.106,0,0,0-.851,18.528l26.97,29.571a6.515,6.515,0,0,1-.434,9.227L967.5,1768.854a13.1,13.1,0,0,0-.851,18.527l23.6,27.635a6.548,6.548,0,0,1-1.014,9.208l-35.317,24.869a13.135,13.135,0,0,0-2.223,18.431l26.672,37.368a13.121,13.121,0,0,0,21.333-15.281l-15.251-22.781a6.528,6.528,0,0,1,1.113-9.17l35.393-25.237a13.162,13.162,0,0,0,2.049-18.449l-23.74-29.746a6.516,6.516,0,0,1,.425-9.227l29.562-26.959a13.121,13.121,0,0,0,.862-18.53l-26.952-29.552a6.532,6.532,0,0,1,.425-9.243l29.475-26.922c3.84-3.5,10.82-10.54,12.958-30.114C1050.266,1594.711,1024.456,1561,986.026,1556.86Zm17.291,24.43a5.26,5.26,0,1,1,.349-7.447A5.282,5.282,0,0,1,1003.317,1581.29Z" transform="translate(-780.495 -1556.676)"/>
          </g>
        </g>
        <g id="Group_119" data-name="Group 119" transform="translate(0 413.314)">
          <g id="Group_118" data-name="Group 118" transform="translate(855.077)">
            <path id="Path_937" data-name="Path 937" class="cls-3" d="M1000.494,1789.874h40.093v-15.589h-40.093v-22.4h41.224v-15.373H983.5v92h59.561v-15.566h-42.569Zm68.735-46.979H1052.17v85.618h59.956v-14.6h-42.9Zm120.917,36.418a20.894,20.894,0,0,0,5.852-5.3c2.5-3.424,3.605-7.7,3.605-12.552,0-7.792-2.63-14.2-7.939-18.567-5.307-4.431-12.54-6.461-21.689-6.461H1141.92v92.079h32.868c9.448,0,17.215-2.3,23.094-7a23.184,23.184,0,0,0,8.836-19.107,23.474,23.474,0,0,0-5.753-15.819,27.362,27.362,0,0,0-10.82-7.272m-31.427-27.292h9.949c5.233,0,8.645.931,10.51,2.439a7.78,7.78,0,0,1,2.138,3.017,14.014,14.014,0,0,1,.727,4.778c0,4.256-1.267,6.9-3.84,8.836-2.447,1.84-6.817,3.021-13.055,3.021h-6.429Zm26.931,58.024c-2.2,1.683-6.259,2.824-12.2,2.706h-14.736v-22.993h12.667c6.652,0,11.266,1.14,13.81,3.017,2.5,1.895,3.819,4.41,3.819,8.76,0,4.233-1.122,6.79-3.364,8.509m154.992-31.679h0l-1.817-1.007a57.152,57.152,0,0,1-10.735-7.6,11.794,11.794,0,0,1-2.359-2.982,3.691,3.691,0,0,1-.727-2.046,5.745,5.745,0,0,1,2.718-4.969,13.323,13.323,0,0,1,7.979-2.187,22.848,22.848,0,0,1,8.654,1.66,43.459,43.459,0,0,1,9.729,5.861l3.451,2.554v-18.332l-1.026-.621a50.874,50.874,0,0,0-10.112-4.217,39.488,39.488,0,0,0-10.2-1.432c-7.656,0-14.223,2.15-19.348,6.362a21.135,21.135,0,0,0-7.689,16.617,20.149,20.149,0,0,0,4.063,12.591,36.4,36.4,0,0,0,6.739,5.994c3.085,2.339,7.049,4.893,11.846,7.831,3.017,1.722,5.445,3.348,7.33,4.661a27.013,27.013,0,0,1,3.831,3.194,8.5,8.5,0,0,1,1.943,5.316,6.772,6.772,0,0,1-2.833,5.647c-1.876,1.414-4.7,2.283-8.579,2.283a21.69,21.69,0,0,1-10.2-2.458c-3.152-1.6-6.613-4.445-10.347-8.314l-3.713-4v21.254l.929.6a35.013,35.013,0,0,0,11.128,6.033,39.76,39.76,0,0,0,12.949,1.957c7.707,0,14.283-2.127,19.333-6.365a20.8,20.8,0,0,0,7.762-16.479c0-5.569-1.313-10.462-4.148-14.407-2.833-4.061-8.305-8.236-16.555-13m107.068,35.993a40.522,40.522,0,0,0,9.553-26.766,46.1,46.1,0,0,0-3.364-17.5,45.169,45.169,0,0,0-10.1-14.467,44.366,44.366,0,0,0-14.775-9.653,48.108,48.108,0,0,0-17.677-3.345,47.156,47.156,0,0,0-17.5,3.345,46,46,0,0,0-14.9,9.653,44.251,44.251,0,0,0-9.873,14.311,41.16,41.16,0,0,0-3.578,16.826,43.645,43.645,0,0,0,9.487,27.794,44.279,44.279,0,0,0,24.591,15.628,110.7,110.7,0,0,0,21.314,12.2c6.932,2.92,13.228,4.351,18.941,4.351h1.683a5.955,5.955,0,0,0,1.394-.154l.676-.1,12.609-11.083-.957-2.646-.706-1.688-1.653.37a39.547,39.547,0,0,1-4.38.676,19.684,19.684,0,0,1-3.463.214,44.487,44.487,0,0,1-10.317-1.334c-2.235-.639-4.787-1.531-7.5-2.573,8.277-3.095,15.27-7.7,20.491-14.06m-9.37-17.677a28.357,28.357,0,0,1-6.3,9.358l-.087.078a29.211,29.211,0,0,1-9.457,6.558,29.894,29.894,0,0,1-11.14,2.184,28.758,28.758,0,0,1-11.161-2.262,30.682,30.682,0,0,1-9.5-6.479v-.078a27.2,27.2,0,0,1-6.238-9.358,28.123,28.123,0,0,1-2.214-11.181,28.549,28.549,0,0,1,2.214-11.271,27.339,27.339,0,0,1,6.2-9.344,30.5,30.5,0,0,1,9.641-6.419,28.751,28.751,0,0,1,22.195,0,27.042,27.042,0,0,1,9.4,6.342,28.941,28.941,0,0,1,6.449,9.652,27.416,27.416,0,0,1,2.194,11.041,28.632,28.632,0,0,1-2.194,11.181m84.46-1.164c-.087,5.475-1.828,9.535-5.744,12.807-3.792,3.189-8.937,4.987-15.656,4.987a26.311,26.311,0,0,1-10.337-1.954,21.077,21.077,0,0,1-7.815-5.744,11.168,11.168,0,0,1-2.35-4.8c-.531-1.837-.83-5.4-.83-10.542v-47.323h-15.812v47.811c0,6.516.435,11.391,1.43,14.851a24.316,24.316,0,0,0,4.829,9.188,35.359,35.359,0,0,0,13.373,10.25,43.319,43.319,0,0,0,17.513,3.46c10.761,0,19.822-3,26.727-9.008,6.992-5.96,10.531-14.083,10.406-23.637v-52.916H1522.8Zm42.907,18.22v-20.963h40.343v-14.681h-40.343v-20.174h41.6v-14.58h-58.659v84.979h59.993v-14.582Zm-275.573-58.756a45.573,45.573,0,0,0-14.842-9.457,50.294,50.294,0,0,0-17.812-3.267,48.812,48.812,0,0,0-17.5,3.267,44.288,44.288,0,0,0-14.95,9.457,42.708,42.708,0,0,0-10.094,14.023,41.175,41.175,0,0,0-3.523,16.5,42.14,42.14,0,0,0,13.616,31.332,45.736,45.736,0,0,0,14.865,9.379,50.106,50.106,0,0,0,35.285.081,47.55,47.55,0,0,0,15.058-9.459,44.656,44.656,0,0,0,9.988-13.963,41.3,41.3,0,0,0,3.442-16.672,42.359,42.359,0,0,0-3.364-16.939,43.138,43.138,0,0,0-10.174-14.276m-5.481,41.757a28.591,28.591,0,0,1-6.3,9.248,28.244,28.244,0,0,1-9.448,6.164,31.49,31.49,0,0,1-22.765,0,30.266,30.266,0,0,1-9.418-6.164,27.182,27.182,0,0,1-6.3-9.248,26.27,26.27,0,0,1-2.224-10.871,27.335,27.335,0,0,1,2.224-10.963,27.83,27.83,0,0,1,6.3-9.112,33.029,33.029,0,0,1,9.689-6.284,30.02,30.02,0,0,1,22.3,0,30.265,30.265,0,0,1,16.012,15.665,27.369,27.369,0,0,1,2.12,10.694,26.891,26.891,0,0,1-2.2,10.871" transform="translate(-983.502 -1736.434)"/>
          </g>
          <path id="Path_938" data-name="Path 938" class="cls-3" d="M648.323,1828.458c11.361,0,20.365-3.6,27.026-10.715,6.548-7.119,9.981-16.81,9.981-28.817v-52.493h-7.542v52.9c0,9.65-2.651,17.291-7.873,23-5.454,5.686-12.591,8.606-21.593,8.606-8.965,0-16.122-2.92-21.42-8.606-5.4-5.7-8.066-13.345-8.066-23v-52.9h-7.224v52.493c0,12.145,3.26,21.815,9.894,28.817,6.613,7.116,15.587,10.715,26.816,10.715M720.1,1750.09l58.137,70.146h5.819v-79.3h-6.245v69.1l-57.461-69.1h-6.594v79.3H720.1Zm92.776,71.346h6.748v-79.412h-6.748Zm63.842,1.318,33.323-80.73h-6.769l-27.1,66.629-26.787-66.629h-7.038l33.42,80.73ZM972.4,1816H935.246v-32.259h35.016v-5.086H935.246v-31.484H971.49v-5.148H928.9v79.412h43.5Zm34.252-32.744h6.383a44.79,44.79,0,0,1,10.115.91,11.469,11.469,0,0,1,5.571,3.038,56.265,56.265,0,0,1,4.2,5.277c1.722,2.4,3.955,5.553,6.344,9.42l12.561,19.535h7.109l-21.662-33.4a24.068,24.068,0,0,0-3.007-3.87,29.77,29.77,0,0,0-3.975-2.881c4.992-1.607,8.742-4.021,11.237-7.293,2.506-3.21,3.695-7.268,3.695-12.048,0-6.44-2.127-11.354-6.606-14.773-4.525-3.426-10.839-5.148-19.137-5.148h-19.079v79.412h6.256Zm0-35.816h13.182c5.937,0,10.452,1.161,13.74,3.81q4.76,3.8,4.748,10.694a15.917,15.917,0,0,1-2.069,8.509,13.658,13.658,0,0,1-6.507,5.339,23.934,23.934,0,0,1-5.8,1.646c-2.437.23-6.525.366-12.4.366h-4.893Zm112.543,53.359a24.355,24.355,0,0,0-1.258-7.542,21.63,21.63,0,0,0-3.867-6.307c-2.495-2.785-7.417-5.666-14.545-8.585a18.432,18.432,0,0,1-1.681-.833c-6.509-2.748-10.7-5.107-12.582-7.369a11.908,11.908,0,0,1-2.911-8.45,14.029,14.029,0,0,1,4.486-10.717,16.679,16.679,0,0,1,11.6-4.217,25.2,25.2,0,0,1,8.751,1.57,41.275,41.275,0,0,1,9.39,5.008v-7.1a44.552,44.552,0,0,0-8.857-3.962,34.833,34.833,0,0,0-8.974-1.357c-6.769,0-12.184,1.993-16.4,5.978a19.588,19.588,0,0,0-6.344,15.026c0,5.031,1.336,9.146,4.118,12.34,2.768,3.155,7.9,6.323,15.456,9.457,7.28,3.076,11.883,5.7,13.895,7.946a12.794,12.794,0,0,1,2.989,8.9c0,4.874-1.393,8.684-4.488,11.583-2.863,2.805-7,4.256-12.126,4.256a25.057,25.057,0,0,1-9.535-2.147,44.8,44.8,0,0,1-10.567-6.461v7.64a41.176,41.176,0,0,0,10.066,5.3,30.96,30.96,0,0,0,10.154,1.722c6.787,0,12.28-1.934,16.651-6.052a20.481,20.481,0,0,0,6.576-15.628m31.988-58.776h-6.691v79.412h6.691Zm71.793,77.557a33.69,33.69,0,0,0,11.508-5.573,37.833,37.833,0,0,0,11.487-13.961,43.534,43.534,0,0,0,0-36.768,37.954,37.954,0,0,0-11.487-13.982,34.439,34.439,0,0,0-11.4-5.55,62.97,62.97,0,0,0-15.288-1.722H1180.57v79.412h27.221a56.75,56.75,0,0,0,15.182-1.855m-35.682-3.812v-68.1H1206.2a64.723,64.723,0,0,1,13.288,1.354,28.681,28.681,0,0,1,9.68,4.063,31.293,31.293,0,0,1,10.365,12.069,37.161,37.161,0,0,1,3.647,16.631,38.229,38.229,0,0,1-3.647,16.672,31.888,31.888,0,0,1-10.365,12.032,29.13,29.13,0,0,1-9.68,4.1,65.865,65.865,0,0,1-13.288,1.177Zm107.31-70.726-32.656,76.394h6.344L1279.409,1795h32.877l11.149,26.437h6.346l-32.659-76.394Zm-13.113,44.79,14.458-34.328,14.271,34.328Zm113.566,29.748a31.824,31.824,0,0,0,11.478-5.573,37.157,37.157,0,0,0,11.48-13.961,43.007,43.007,0,0,0,0-36.768,37.275,37.275,0,0,0-11.48-13.982,32.469,32.469,0,0,0-11.37-5.55,63.437,63.437,0,0,0-15.32-1.722h-27.074v79.412h27.074a56.7,56.7,0,0,0,15.212-1.855m-35.712-3.812v-68.1H1378.3a64.936,64.936,0,0,1,13.294,1.354,28.686,28.686,0,0,1,9.652,4.063,30.4,30.4,0,0,1,10.317,12.069,36.316,36.316,0,0,1,3.7,16.631,37.346,37.346,0,0,1-3.7,16.672,30.956,30.956,0,0,1-10.317,12.032,29.138,29.138,0,0,1-9.652,4.1,66.067,66.067,0,0,1-13.294,1.177Z" transform="translate(-611.613 -1736.434)"/>
        </g>
        <rect id="Rectangle_27" data-name="Rectangle 27" class="cls-3" width="192.31" height="25.472" transform="translate(643.959 595.058)"/>
      </g>
      <path id="Path_1004" data-name="Path 1004" class="cls-4" d="M-358.7-23.779h26.86c1.264,0,1.659-.4,1.659-1.659v-4.819c0-1.264-.316-1.659-1.659-1.659H-358.7V-47.084h27.571c1.343,0,1.738-.474,1.738-1.738v-4.819c0-1.264-.395-1.659-1.738-1.659H-366.6c-1.264,0-1.659.4-1.659,1.659V-1.659c0,1.264.4,1.659,1.659,1.659h6.241c1.264,0,1.659-.395,1.659-1.659Zm38.71-8.374a63.456,63.456,0,0,1,11.613-1.185c7.268,0,9.164,2.923,9.164,10.349a38.3,38.3,0,0,0-11.613-2.054c-8.532,0-15.326,4.108-15.326,12.719,0,8.848,6.715,13.193,13.825,13.193,8.216,0,12.561-3.792,14.773-6.241L-297-1.659c.474,1.264.869,1.659,1.817,1.659h3.318c1.343,0,1.659-.395,1.659-1.659v-20.3c0-12.482-2.686-19.118-17.775-19.118a78.749,78.749,0,0,0-13.825,1.5c-1.185.316-1.343.79-1.027,2.054l.948,3.792C-321.57-32.469-321.254-32-319.99-32.153Zm11.3,13.509c3.476,0,6.083.869,9.48,2.054v4.977c-2.37,3-6.241,5.609-10.27,5.609-5.451,0-7.742-3.239-7.742-6.32C-317.225-15.958-314.7-18.644-308.693-18.644ZM-263.5-7.189c-6.557,0-11.929-5.53-11.929-12.877s5.372-12.956,11.929-12.956a13.065,13.065,0,0,1,9.085,3.4c.948.869,1.5.632,2.37-.316l2.923-3.16c.79-.948.948-1.343.237-2.054A20.548,20.548,0,0,0-263.5-41.08a20.971,20.971,0,0,0-20.856,21.014A20.9,20.9,0,0,0-263.5.869,20.548,20.548,0,0,0-248.89-5.056c.711-.711.553-1.106-.237-2.054l-2.923-3.16c-.869-.948-1.422-1.185-2.37-.316A13.065,13.065,0,0,1-263.5-7.189Zm49.375,5.53C-213.5-.474-213.182,0-212.155,0h2.844c1.264,0,1.659-.395,1.659-1.659V-38.552c0-1.264-.4-1.659-1.659-1.659H-215c-1.264,0-1.659.395-1.659,1.659v18.96c0,7.5-3,12.4-8.848,12.4-5.53,0-8.611-3.792-8.611-12.087V-38.552c0-1.264-.4-1.659-1.659-1.659h-5.688c-1.264,0-1.659.395-1.659,1.659V-17.38c0,13.588,6.636,18.249,15.326,18.249,6.715,0,10.191-4.266,12.561-7.5Zm17.7,0c0,1.264.395,1.659,1.659,1.659h5.688c1.264,0,1.659-.395,1.659-1.659V-56.643c0-1.264-.316-1.659-1.659-1.659h-5.688c-1.264,0-1.659.4-1.659,1.659Zm44,.553c1.027-.553,1.106-.948.869-2.133l-.711-3.95c-.316-1.659-.632-1.738-2.133-.948a10,10,0,0,1-4.74.948c-4.819,0-7.268-2.844-7.268-9.954V-33.022h12.166c1.264,0,1.659-.4,1.659-1.659v-3.792c0-1.343-.4-1.738-1.659-1.738h-12.166v-7.742c0-1.264-.4-1.659-1.659-1.659h-5.609c-1.343,0-1.659.4-1.659,1.659v7.742h-2.923c-1.264,0-1.659.395-1.659,1.659v3.871c0,1.264.4,1.659,1.659,1.659h2.923V-16.59c0,10.9,4.819,17.459,15.247,17.459A14.526,14.526,0,0,0-152.431-1.106ZM-140.9-32.153a63.456,63.456,0,0,1,11.613-1.185c7.268,0,9.164,2.923,9.164,10.349a38.3,38.3,0,0,0-11.613-2.054c-8.532,0-15.326,4.108-15.326,12.719,0,8.848,6.715,13.193,13.825,13.193,8.216,0,12.561-3.792,14.773-6.241l.553,3.713C-117.433-.395-117.038,0-116.09,0h3.318c1.343,0,1.659-.395,1.659-1.659v-20.3c0-12.482-2.686-19.118-17.775-19.118a78.749,78.749,0,0,0-13.825,1.5c-1.185.316-1.343.79-1.027,2.054l.948,3.792C-142.476-32.469-142.16-32-140.9-32.153Zm11.3,13.509c3.476,0,6.083.869,9.48,2.054v4.977c-2.37,3-6.241,5.609-10.27,5.609-5.451,0-7.742-3.239-7.742-6.32C-138.132-15.958-135.6-18.644-129.6-18.644Zm55.774-15.089A15.444,15.444,0,0,0-87.018-41.08c-10.823,0-18.249,9.48-18.249,21.014,0,11.3,7.426,20.935,18.249,20.935,7.663,0,11.929-4.345,14.694-7.663l1.106,5.135C-70.586-.474-70.27,0-69.243,0h2.765c1.264,0,1.659-.395,1.659-1.659V-56.643c0-1.264-.4-1.659-1.659-1.659h-5.688c-1.343,0-1.659.4-1.659,1.659Zm-11.218,26.7c-6.557,0-11.3-5.688-11.3-13.035,0-7.11,4.74-12.956,11.3-12.956s11.218,6,11.218,12.956S-78.486-7.031-85.043-7.031Zm76.156-26.7A15.444,15.444,0,0,0-22.081-41.08C-32.9-41.08-40.33-31.6-40.33-20.066-40.33-8.769-32.9.869-22.081.869c7.663,0,11.929-4.345,14.694-7.663l1.106,5.135C-5.649-.474-5.333,0-4.306,0h2.765C-.277,0,.118-.395.118-1.659V-56.643c0-1.264-.4-1.659-1.659-1.659H-7.229c-1.343,0-1.659.4-1.659,1.659Zm-11.218,26.7c-6.557,0-11.3-5.688-11.3-13.035,0-7.11,4.74-12.956,11.3-12.956s11.218,6,11.218,12.956S-13.549-7.031-20.106-7.031ZM41.988-9.717c-.79-1.027-1.185-.711-2.37-.158a21.857,21.857,0,0,1-10.823,3,12.34,12.34,0,0,1-12.166-10.27H46.175c1.343,0,1.58-.474,1.58-1.738,0-11.85-6.715-22.2-19.592-22.2A20.971,20.971,0,0,0,7.307-20.066,20.991,20.991,0,0,0,28.558.869c5.767,0,12.324-1.975,15.958-5.53.711-.79.553-1.264-.237-2.212Zm-25.2-13.351c.553-5.135,4.424-10.586,11.139-10.586,6.636,0,10.112,5.451,10.665,10.586Zm80.5,15.721c-11.06,0-18.723-10.033-18.723-20.3,0-10.349,7.663-20.3,18.723-20.3a19.585,19.585,0,0,1,14.536,6.241c.948.948,1.5.79,2.37-.158l3.634-3.95c.869-.948,1.027-1.5.158-2.37a30.553,30.553,0,0,0-20.7-8.137A28.661,28.661,0,0,0,68.927-27.65,28.661,28.661,0,0,0,97.288,1.027a30.553,30.553,0,0,0,20.7-8.137c.948-.948.79-1.422-.079-2.449l-3.634-3.95c-.869-.869-1.422-1.106-2.37-.158A19.664,19.664,0,0,1,97.288-7.347Zm29.7,5.688c0,1.264.395,1.659,1.659,1.659h5.688C135.6,0,136-.395,136-1.659V-38.552c0-1.264-.4-1.659-1.659-1.659h-5.688c-1.264,0-1.659.395-1.659,1.659Zm-1.106-51.113a5.43,5.43,0,0,0,5.53,5.451,5.479,5.479,0,0,0,5.53-5.451,5.615,5.615,0,0,0-5.53-5.609A5.563,5.563,0,0,0,125.886-52.772ZM179.369-9.717c-.79-1.027-1.185-.711-2.37-.158a21.857,21.857,0,0,1-10.823,3,12.34,12.34,0,0,1-12.166-10.27h29.546c1.343,0,1.58-.474,1.58-1.738,0-11.85-6.715-22.2-19.592-22.2a20.971,20.971,0,0,0-20.856,21.014A20.991,20.991,0,0,0,165.939.869c5.767,0,12.324-1.975,15.958-5.53.711-.79.553-1.264-.237-2.212Zm-25.2-13.351c.553-5.135,4.424-10.586,11.139-10.586,6.636,0,10.112,5.451,10.665,10.586Zm44.556-15.484c-.632-1.185-.948-1.659-1.975-1.659h-2.844c-1.264,0-1.659.395-1.659,1.659V-1.659c0,1.264.4,1.659,1.659,1.659h5.688c1.264,0,1.659-.395,1.659-1.659v-18.96c0-7.5,3-12.4,8.848-12.4,5.53,0,8.611,3.792,8.611,12.166v19.2c0,1.264.4,1.659,1.659,1.659h5.688c1.264,0,1.659-.395,1.659-1.659V-22.831c0-13.588-6.636-18.249-15.326-18.249-6.715,0-10.191,4.345-12.561,7.5ZM254.5-7.189c-6.557,0-11.929-5.53-11.929-12.877s5.372-12.956,11.929-12.956a13.065,13.065,0,0,1,9.085,3.4c.948.869,1.5.632,2.37-.316l2.923-3.16c.79-.948.948-1.343.237-2.054A20.548,20.548,0,0,0,254.5-41.08a20.971,20.971,0,0,0-20.856,21.014A20.9,20.9,0,0,0,254.5.869a20.548,20.548,0,0,0,14.615-5.925c.711-.711.553-1.106-.237-2.054l-2.923-3.16c-.869-.948-1.422-1.185-2.37-.316A13.065,13.065,0,0,1,254.5-7.189Zm23.3,5.53c0,1.264.4,1.659,1.659,1.659h5.688c1.264,0,1.659-.395,1.659-1.659V-38.552c0-1.264-.4-1.659-1.659-1.659h-5.688c-1.264,0-1.659.395-1.659,1.659ZM276.7-52.772a5.43,5.43,0,0,0,5.53,5.451,5.479,5.479,0,0,0,5.53-5.451,5.615,5.615,0,0,0-5.53-5.609A5.563,5.563,0,0,0,276.7-52.772Zm25.833,20.619a63.456,63.456,0,0,1,11.613-1.185c7.268,0,9.164,2.923,9.164,10.349a38.3,38.3,0,0,0-11.613-2.054c-8.532,0-15.326,4.108-15.326,12.719,0,8.848,6.715,13.193,13.825,13.193,8.216,0,12.561-3.792,14.773-6.241l.553,3.713C325.993-.395,326.389,0,327.337,0h3.318c1.343,0,1.659-.395,1.659-1.659v-20.3c0-12.482-2.686-19.118-17.775-19.118a78.749,78.749,0,0,0-13.825,1.5c-1.185.316-1.343.79-1.027,2.054l.948,3.792C300.951-32.469,301.267-32,302.531-32.153Zm11.3,13.509c3.476,0,6.083.869,9.48,2.054v4.977c-2.37,3-6.241,5.609-10.27,5.609-5.451,0-7.742-3.239-7.742-6.32C305.3-15.958,307.824-18.644,313.828-18.644ZM354.749-6.162A21.754,21.754,0,0,1,342.5-10.27c-1.264-.948-1.659-.4-2.212.711l-1.738,3c-.553,1.106-.711,1.58.4,2.37A30.435,30.435,0,0,0,355.3.869c10.191,0,16.669-5.214,16.669-12.877,0-8.374-7.189-10.981-15.405-12.008-6.083-.869-9.48-1.659-9.48-4.74,0-3.239,2.291-5.293,7.979-5.293,4.819,0,7.821,1.422,11.218,3.555,1.185.79,1.659.316,2.212-.79l1.738-2.923c.474-1.106.79-1.659-.474-2.449a30.112,30.112,0,0,0-15.247-4.424c-9.559,0-15.958,5.056-15.958,12.8,0,8.453,7.189,10.981,15.4,12.087,6,.79,9.48,2.054,9.48,4.661C363.439-8.453,360.674-6.162,354.749-6.162ZM-425.612,67.982V45.072h13.193c10.981,0,13.746,5.609,13.746,11.139,0,6-2.765,11.771-13.746,11.771Zm13.588,5.372c9.638,0,19.434-4.345,19.434-17.143s-9.8-16.511-19.434-16.511H-430.59c-.948,0-1.264.158-1.264,1.264V93.736c0,.948.237,1.264,1.264,1.264h3.713c1.027,0,1.264-.316,1.264-1.264V73.354ZM-365.1,59.766c.948,0,1.185-.237,1.422-1.185l.474-3.555c.158-.79,0-1.106-1.106-1.106-11.218,0-14.852,6.715-16.432,10.033l-.948-7.9c-.4-.948-.711-1.264-1.343-1.264h-1.975c-.869,0-1.185.316-1.185,1.264V93.736c0,.948.316,1.264,1.185,1.264h3.555c.869,0,1.185-.316,1.185-1.264V74.3C-380.267,66.955-375.368,59.766-365.1,59.766Zm3.792,15.168A20.836,20.836,0,0,0-340.53,95.869a20.836,20.836,0,0,0,20.777-20.935A20.9,20.9,0,0,0-340.53,53.92,20.9,20.9,0,0,0-361.307,74.934Zm20.777,15.642c-8.216,0-14.852-6.952-14.852-15.642s6.636-15.642,14.852-15.642c8.3,0,14.931,6.952,14.931,15.642S-332.234,90.576-340.53,90.576Zm58.539,2.212c0,9.48-3.16,16.432-13.351,16.432a34.7,34.7,0,0,1-13.351-2.686c-.869-.395-1.106-.237-1.343.711l-.79,3c-.237.869-.079,1.106.711,1.422a41.045,41.045,0,0,0,15.642,2.844c12.245,0,18.407-7.189,18.407-22.357v-36.1c0-.948-.316-1.264-1.185-1.264h-1.817c-.711,0-1.027.316-1.343,1.264l-.632,7.347c-1.975-3-6.241-9.48-15.563-9.48-11.06,0-18.249,9.559-18.249,21.014,0,11.534,7.11,20.935,18.249,20.935a16.024,16.024,0,0,0,14.615-9.243Zm-13.43-33.575c8.216,0,13.509,7.821,13.509,15.642,0,7.9-5.293,15.642-13.509,15.642-8.3,0-13.509-7.5-13.509-15.563C-308.929,66.165-303.715,59.213-295.42,59.213Zm53.009.553c.948,0,1.185-.237,1.422-1.185l.474-3.555c.158-.79,0-1.106-1.106-1.106-11.218,0-14.852,6.715-16.432,10.033l-.948-7.9c-.4-.948-.711-1.264-1.343-1.264h-1.975c-.869,0-1.185.316-1.185,1.264V93.736c0,.948.316,1.264,1.185,1.264h3.555c.869,0,1.185-.316,1.185-1.264V74.3C-257.579,66.955-252.682,59.766-242.411,59.766Zm9.48.632a64.6,64.6,0,0,1,12.166-1.264c8.295,0,11.218,3.634,11.218,13.588a34.836,34.836,0,0,0-12.8-2.765c-9.717,0-16.195,4.187-16.195,12.8,0,8.453,6.478,13.114,14.062,13.114A19.487,19.487,0,0,0-208.6,88.364l.316,5.372c.237.948.553,1.264,1.185,1.264h2.291c.869,0,1.185-.316,1.185-1.264V72.88c0-13.035-3.634-18.96-16.906-18.96a74.664,74.664,0,0,0-13.588,1.422c-.948.316-1.185.711-.948,1.58l.632,2.37C-234.2,60.24-233.958,60.635-232.932,60.4Zm11.771,13.983c4.5,0,7.584,1.185,11.613,2.844v6.557c-2.528,3.713-7.663,7.426-13.114,7.426-6.4,0-9.954-3.555-9.954-8.453C-232.616,77.383-228.665,74.381-221.161,74.381Zm59.171-10.744c-1.422-3.792-5.609-9.717-13.351-9.717-7.505,0-11.139,6.162-12.561,9.48l-.632-7.347c-.4-.948-.711-1.264-1.343-1.264h-1.975c-.869,0-1.185.316-1.185,1.264V93.736c0,.948.316,1.264,1.185,1.264h3.555c.869,0,1.185-.316,1.185-1.264V73.828c0-8.374,3.95-14.536,10.349-14.536,6.478,0,10.349,5.688,10.349,13.983V93.736c0,.948.4,1.264,1.185,1.264h3.555c.948,0,1.185-.316,1.185-1.264v-20.3c0-8.69,4.5-14.141,10.349-14.141,5.609,0,10.349,4.582,10.349,13.983V93.736c0,.948.4,1.264,1.185,1.264h3.555c.948,0,1.185-.316,1.185-1.264V71.695c0-12.64-7.11-17.775-14.852-17.775C-156.222,53.92-160.409,60.082-161.99,63.637Zm41-3.239a64.6,64.6,0,0,1,12.166-1.264c8.295,0,11.218,3.634,11.218,13.588a34.836,34.836,0,0,0-12.8-2.765c-9.717,0-16.195,4.187-16.195,12.8,0,8.453,6.478,13.114,14.062,13.114a19.487,19.487,0,0,0,15.879-7.505l.316,5.372c.237.948.553,1.264,1.185,1.264h2.291c.869,0,1.185-.316,1.185-1.264V72.88c0-13.035-3.634-18.96-16.906-18.96a74.664,74.664,0,0,0-13.588,1.422c-.948.316-1.185.711-.948,1.58l.632,2.37C-122.252,60.24-122.015,60.635-120.988,60.4Zm11.771,13.983c4.5,0,7.584,1.185,11.613,2.844v6.557c-2.528,3.713-7.663,7.426-13.114,7.426-6.4,0-9.954-3.555-9.954-8.453C-120.672,77.383-116.722,74.381-109.217,74.381ZM-34.8,63.163A16.024,16.024,0,0,0-49.415,53.92c-11.06,0-18.249,9.4-18.249,20.935,0,11.455,7.189,21.014,18.249,21.014,9.322,0,13.588-6.478,15.563-9.48l.632,7.347c.316.948.632,1.264,1.343,1.264h1.817c.869,0,1.185-.316,1.185-1.264V37.962c0-.948-.316-1.264-1.185-1.264h-3.555c-.869,0-1.185.316-1.185,1.264ZM-48.23,90.576c-8.295,0-13.509-6.952-13.509-15.721,0-8.137,5.214-15.563,13.509-15.563,8.216,0,13.509,7.742,13.509,15.642C-34.721,82.755-40.014,90.576-48.23,90.576Zm63.437-3.792c-.632-.711-.948-.553-1.817-.079a21.7,21.7,0,0,1-12.4,3.95c-7.979,0-14.694-6.32-15.247-13.667H18.684c1.027,0,1.185-.316,1.185-1.264,0-11.85-7.189-21.8-19.513-21.8a20.837,20.837,0,0,0-20.7,21.014A20.855,20.855,0,0,0,.751,95.869c5.846,0,12.245-1.9,15.958-5.53.553-.553.553-1.027,0-1.738ZM-14.1,72.88A14.626,14.626,0,0,1,.277,58.9c8.058,0,13.193,6.873,13.509,13.983ZM81.883,95c.948,0,1.185-.316,1.185-1.264V90.813c0-.948-.237-1.264-1.185-1.264H51.705V69.8H80.461c.948,0,1.264-.316,1.264-1.264V65.612c0-.948-.316-1.264-1.264-1.264H51.705v-19.2H81.883c.869,0,1.185-.316,1.185-1.264V40.964c0-.948-.316-1.264-1.185-1.264H46.728c-.948,0-1.264.316-1.264,1.264V93.736c0,.948.316,1.264,1.264,1.264Zm23.542-3.95a23.455,23.455,0,0,1-13.351-4.424c-.948-.711-1.343-.316-1.738.474l-1.106,1.975c-.474.869-.474,1.264.237,1.738a30.389,30.389,0,0,0,16.274,5.056c10.191,0,16.195-5.214,16.195-12.482,0-7.663-7.584-10.191-15.4-11.3-7.189-1.027-11.139-1.817-11.139-6.162s3.239-7.189,9.875-7.189c5.135,0,8.137,1.185,12.4,3.792.948.632,1.343.237,1.738-.553l1.027-1.9c.4-.711.553-1.185-.4-1.738a29.016,29.016,0,0,0-15.089-4.424c-9.322,0-15.168,4.819-15.168,12.324,0,8.295,7.5,10.112,15.326,11.139,7.189,1.027,11.139,2.844,11.139,6.32C116.249,87.732,113.089,91.05,105.426,91.05Zm47.953,2.923c.711-.395.79-.711.553-1.5l-.474-2.528c-.316-1.106-.553-1.185-1.58-.632a10.04,10.04,0,0,1-5.451,1.185c-6.32,0-9.085-3.4-9.085-12.64V59.687h14.3c.948,0,1.185-.316,1.185-1.264v-2.37c0-1.027-.316-1.264-1.185-1.264h-14.3V46.652c0-.948-.237-1.264-1.185-1.264H132.68c-.948,0-1.185.316-1.185,1.264v8.137h-3.871c-.948,0-1.264.237-1.264,1.264v2.37c0,.948.316,1.264,1.264,1.264H131.5V78.331c0,10.981,3.871,17.538,14.3,17.538A14.779,14.779,0,0,0,153.379,93.973ZM164.044,60.4a64.6,64.6,0,0,1,12.166-1.264c8.295,0,11.218,3.634,11.218,13.588a34.836,34.836,0,0,0-12.8-2.765c-9.717,0-16.195,4.187-16.195,12.8,0,8.453,6.478,13.114,14.062,13.114a19.487,19.487,0,0,0,15.879-7.505l.316,5.372c.237.948.553,1.264,1.185,1.264h2.291c.869,0,1.185-.316,1.185-1.264V72.88c0-13.035-3.634-18.96-16.906-18.96a74.665,74.665,0,0,0-13.588,1.422c-.948.316-1.185.711-.948,1.58l.632,2.37C162.78,60.24,163.017,60.635,164.044,60.4Zm11.771,13.983c4.5,0,7.584,1.185,11.613,2.844v6.557c-2.528,3.713-7.663,7.426-13.114,7.426-6.4,0-9.954-3.555-9.954-8.453C164.36,77.383,168.31,74.381,175.815,74.381Zm57.117-11.218a16.024,16.024,0,0,0-14.615-9.243c-11.06,0-18.249,9.4-18.249,20.935,0,11.455,7.189,21.014,18.249,21.014,9.322,0,13.588-6.478,15.563-9.48l.632,7.347c.316.948.632,1.264,1.343,1.264h1.817c.869,0,1.185-.316,1.185-1.264V37.962c0-.948-.316-1.264-1.185-1.264h-3.555c-.869,0-1.185.316-1.185,1.264ZM219.5,90.576c-8.295,0-13.509-6.952-13.509-15.721,0-8.137,5.214-15.563,13.509-15.563,8.216,0,13.509,7.742,13.509,15.642C233.011,82.755,227.718,90.576,219.5,90.576Zm32.548,3.16c0,.948.316,1.264,1.264,1.264h3.4c.948,0,1.264-.316,1.264-1.264V56.053c0-.948-.237-1.264-1.264-1.264h-3.4c-.948,0-1.264.316-1.264,1.264Zm12.561-51.824a1.02,1.02,0,0,0,.237-1.58l-1.5-2.37c-.474-.711-1.027-.948-1.58-.316l-9.875,10.428c-.869.869-.553,1.343.237,1.343h3.16a3.159,3.159,0,0,0,2.054-.79ZM283.965,91.05a23.455,23.455,0,0,1-13.351-4.424c-.948-.711-1.343-.316-1.738.474l-1.106,1.975c-.474.869-.474,1.264.237,1.738a30.389,30.389,0,0,0,16.274,5.056c10.191,0,16.2-5.214,16.2-12.482,0-7.663-7.584-10.191-15.4-11.3-7.189-1.027-11.139-1.817-11.139-6.162s3.239-7.189,9.875-7.189c5.135,0,8.137,1.185,12.4,3.792.948.632,1.343.237,1.738-.553l1.027-1.9c.395-.711.553-1.185-.395-1.738a29.016,29.016,0,0,0-15.089-4.424c-9.322,0-15.168,4.819-15.168,12.324,0,8.295,7.505,10.112,15.326,11.139,7.189,1.027,11.139,2.844,11.139,6.32C294.788,87.732,291.629,91.05,283.965,91.05Zm47.953,2.923c.711-.395.79-.711.553-1.5L332,89.944c-.316-1.106-.553-1.185-1.58-.632a10.04,10.04,0,0,1-5.451,1.185c-6.32,0-9.085-3.4-9.085-12.64V59.687h14.3c.948,0,1.185-.316,1.185-1.264v-2.37c0-1.027-.316-1.264-1.185-1.264h-14.3V46.652c0-.948-.237-1.264-1.185-1.264H311.22c-.948,0-1.185.316-1.185,1.264v8.137h-3.871c-.948,0-1.264.237-1.264,1.264v2.37c0,.948.316,1.264,1.264,1.264h3.871V78.331c0,10.981,3.871,17.538,14.3,17.538A14.779,14.779,0,0,0,331.918,93.973Zm10.428-.237c0,.948.237,1.264,1.185,1.264h3.476c.948,0,1.264-.316,1.264-1.264V56.053c0-.948-.237-1.264-1.264-1.264h-3.476c-.948,0-1.185.316-1.185,1.264ZM341.082,41.6A4.08,4.08,0,0,0,345.19,45.7a4.109,4.109,0,1,0,0-8.216A4.08,4.08,0,0,0,341.082,41.6ZM379.4,90.5c-8.3,0-14.931-6.794-14.931-15.563,0-8.69,6.636-15.642,14.931-15.642a15.583,15.583,0,0,1,10.981,4.424c.632.632,1.106.474,1.659-.237l1.9-1.975c.632-.711.632-1.106,0-1.659a20.222,20.222,0,0,0-14.615-5.925,20.976,20.976,0,0,0,0,41.949,20.222,20.222,0,0,0,14.615-5.925c.632-.553.632-.948,0-1.659l-1.9-1.975c-.553-.711-1.027-.869-1.659-.237A15.583,15.583,0,0,1,379.4,90.5Zm25.359-30.1a64.6,64.6,0,0,1,12.166-1.264c8.295,0,11.218,3.634,11.218,13.588a34.836,34.836,0,0,0-12.8-2.765c-9.717,0-16.2,4.187-16.2,12.8,0,8.453,6.478,13.114,14.062,13.114a19.487,19.487,0,0,0,15.879-7.505l.316,5.372c.237.948.553,1.264,1.185,1.264h2.291c.869,0,1.185-.316,1.185-1.264V72.88c0-13.035-3.634-18.96-16.906-18.96a74.665,74.665,0,0,0-13.588,1.422c-.948.316-1.185.711-.948,1.58l.632,2.37C403.492,60.24,403.729,60.635,404.756,60.4Zm11.771,13.983c4.5,0,7.584,1.185,11.613,2.844v6.557c-2.528,3.713-7.663,7.426-13.114,7.426-6.4,0-9.954-3.555-9.954-8.453C405.072,77.383,409.022,74.381,416.527,74.381Z" transform="translate(739.706 762.966)"/>
    </g>
  </g>
  <g id="Group_2237" data-name="Group 2237" transform="translate(-482 834)">
    <g id="Group_35" data-name="Group 35" transform="translate(1118.196 146.684)">
      <path id="Path_359" data-name="Path 359" class="cls-4" d="M1129.129,167.183h-2.253l-8.68-19.9h2.566l7.24,16.693,7.25-16.693h2.567Z" transform="translate(-1118.196 -144.306)"/>
      <path id="Path_360" data-name="Path 360" class="cls-4" d="M1125.838,148.64a1.52,1.52,0,0,1-1.575,1.52,1.505,1.505,0,1,1,0-3.01A1.533,1.533,0,0,1,1125.838,148.64Zm-2.706,19.065V153.08h2.3v14.625Z" transform="translate(-1100.14 -144.828)"/>
      <path id="Path_361" data-name="Path 361" class="cls-4" d="M1139.5,163.9c0,4.126-3.428,6.792-7.7,6.792-3.663,0-6.069-1.43-7.22-3.782l1.953-1.49a5.251,5.251,0,0,0,5.267,3.075c2.965,0,5.406-1.9,5.436-4.894v-2.785a6.926,6.926,0,0,1-5.825,2.84,7.7,7.7,0,0,1,0-15.388,7,7,0,0,1,5.825,2.8v-2.432h2.262Zm-2.262-7.948a5.554,5.554,0,0,0-5.471-5.716,5.7,5.7,0,0,0,0,11.386A5.511,5.511,0,0,0,1137.239,155.951Z" transform="translate(-1094.684 -140.379)"/>
      <path id="Path_362" data-name="Path 362" class="cls-4" d="M1131.317,148.64a1.53,1.53,0,0,1-1.58,1.52,1.505,1.505,0,1,1,0-3.01A1.544,1.544,0,0,1,1131.317,148.64Zm-2.71,19.065V153.08h2.292v14.625Z" transform="translate(-1078.337 -144.828)"/>
      <path id="Path_363" data-name="Path 363" class="cls-4" d="M1132.055,165.824a1.884,1.884,0,0,0,2.063,1.948,4.227,4.227,0,0,0,1.764-.448l.468,1.889a4.814,4.814,0,0,1-2.582.747,3.778,3.778,0,0,1-3.992-4.016v-19.26h2.277Z" transform="translate(-1072.063 -146.684)"/>
      <path id="Path_364" data-name="Path 364" class="cls-4" d="M1144.451,153.758v9.5h-2.212v-2.208a6.555,6.555,0,0,1-5.5,2.606c-3.194,0-5.312-1.849-5.312-4.475,0-2.706,2.053-4.594,5.88-4.594h4.928v-.673a3.455,3.455,0,0,0-3.732-3.678c-2.227,0-3.782,1.131-4.106,2.97l-2.162-.488c.464-2.646,2.94-4.45,6.144-4.45C1142.03,148.267,1144.451,150.215,1144.451,153.758Zm-2.212,3.369v-.747h-4.948c-2.417,0-3.7,1.146-3.7,2.771,0,1.54,1.375,2.636,3.473,2.636A4.879,4.879,0,0,0,1142.239,157.127Z" transform="translate(-1065.479 -140.379)"/>
      <path id="Path_365" data-name="Path 365" class="cls-4" d="M1150.077,169.561h-2.258V167.12a6.921,6.921,0,0,1-5.835,2.84,7.7,7.7,0,0,1,0-15.388,6.99,6.99,0,0,1,5.835,2.8V146.684h2.258Zm-2.258-7.305a5.547,5.547,0,0,0-5.467-5.716,5.7,5.7,0,0,0,0,11.386A5.5,5.5,0,0,0,1147.819,162.256Z" transform="translate(-1052.543 -146.684)"/>
      <path id="Path_366" data-name="Path 366" class="cls-4" d="M1151.572,153.758v9.5h-2.2v-2.208a6.57,6.57,0,0,1-5.487,2.606c-3.214,0-5.337-1.849-5.337-4.475,0-2.706,2.053-4.594,5.9-4.594h4.924v-.673a3.457,3.457,0,0,0-3.748-3.678c-2.217,0-3.772,1.131-4.076,2.97l-2.183-.488c.468-2.646,2.95-4.45,6.149-4.45C1149.17,148.267,1151.572,150.215,1151.572,153.758Zm-2.2,3.369v-.747h-4.954c-2.422,0-3.692,1.146-3.692,2.771,0,1.54,1.371,2.636,3.478,2.636A4.881,4.881,0,0,0,1149.369,157.127Z" transform="translate(-1037.14 -140.379)"/>
      <path id="Path_367" data-name="Path 367" class="cls-4" d="M1165.022,167.183h-2.247v-14.6l-7.694,14.6h-1.51l-7.739-14.6v14.6h-2.267v-19.9h2.078l8.666,16.409,8.66-16.409h2.053Z" transform="translate(-1017.144 -144.306)"/>
      <path id="Path_368" data-name="Path 368" class="cls-4" d="M1152,148.64a1.52,1.52,0,0,1-1.575,1.52,1.505,1.505,0,1,1,0-3.01A1.533,1.533,0,0,1,1152,148.64Zm-2.686,19.065V153.08h2.267v14.625Z" transform="translate(-995.954 -144.828)"/>
      <path id="Path_369" data-name="Path 369" class="cls-4" d="M1164.18,154.511v8.745h-2.267V154.91c0-2.7-1.614-4.565-4.066-4.565-3.069,0-5.072,2.063-5.072,5.885v7.026h-2.248V148.631h2.248v2.432a6.246,6.246,0,0,1,5.531-2.8C1161.833,148.267,1164.18,150.778,1164.18,154.511Z" transform="translate(-989.418 -140.379)"/>
      <path id="Path_370" data-name="Path 370" class="cls-4" d="M1168.752,156.414h-12.578a5.326,5.326,0,0,0,5.217,5.257,5.005,5.005,0,0,0,4.983-3.164l2.013.488a7.009,7.009,0,0,1-7,4.659,7.7,7.7,0,0,1,.13-15.388c3.977,0,7.062,2.93,7.231,7.29Zm-12.478-1.709h10.176a4.856,4.856,0,0,0-4.929-4.47A5.251,5.251,0,0,0,1156.274,154.705Z" transform="translate(-975.672 -140.379)"/>
      <path id="Path_371" data-name="Path 371" class="cls-4" d="M1172.828,169.561h-2.278V167.12a6.846,6.846,0,0,1-5.8,2.84,7.7,7.7,0,0,1,0-15.388,6.913,6.913,0,0,1,5.8,2.8V146.684h2.278Zm-2.278-7.305a5.532,5.532,0,0,0-5.447-5.716,5.7,5.7,0,0,0,0,11.386A5.488,5.488,0,0,0,1170.551,162.256Z" transform="translate(-961.824 -146.684)"/>
      <path id="Path_372" data-name="Path 372" class="cls-4" d="M1175.223,162.945h-2.292v-2.362a6.377,6.377,0,0,1-5.512,2.761c-3.538,0-5.9-2.526-5.9-6.254v-8.75h2.3v8.352c0,2.721,1.594,4.515,4.031,4.515,3.069,0,5.083-2.023,5.083-5.84V148.34h2.292Z" transform="translate(-945.651 -140.088)"/>
      <path id="Path_373" data-name="Path 373" class="cls-4" d="M1177.532,158.248l2.087.553a7.092,7.092,0,0,1-6.946,4.854,7.694,7.694,0,0,1,0-15.388,7.1,7.1,0,0,1,6.956,4.849l-2.173.663a4.83,4.83,0,0,0-4.784-3.433,5.609,5.609,0,0,0,0,11.212A5,5,0,0,0,1177.532,158.248Z" transform="translate(-931.616 -140.379)"/>
      <path id="Path_374" data-name="Path 374" class="cls-4" d="M1181.464,153.758v9.5H1179.3v-2.208a6.7,6.7,0,0,1-5.512,2.606c-3.214,0-5.307-1.849-5.307-4.475,0-2.706,2.018-4.594,5.875-4.594h4.944v-.673a3.483,3.483,0,0,0-3.743-3.678c-2.247,0-3.817,1.131-4.111,2.97l-2.182-.488c.484-2.646,2.94-4.45,6.149-4.45C1179.077,148.267,1181.464,150.215,1181.464,153.758Zm-2.167,3.369v-.747h-4.978c-2.422,0-3.693,1.146-3.693,2.771,0,1.54,1.345,2.636,3.463,2.636C1176.964,161.786,1179.3,159.793,1179.3,157.127Z" transform="translate(-917.918 -140.379)"/>
      <path id="Path_375" data-name="Path 375" class="cls-4" d="M1184.2,158.248l2.083.553a7.012,7.012,0,0,1-6.907,4.854,7.694,7.694,0,0,1,0-15.388,7.129,7.129,0,0,1,6.962,4.849l-2.178.663a4.847,4.847,0,0,0-4.784-3.433,5.608,5.608,0,0,0,0,11.212A4.943,4.943,0,0,0,1184.2,158.248Z" transform="translate(-905 -140.379)"/>
      <path id="Path_376" data-name="Path 376" class="cls-4" d="M1178.485,148.64a1.548,1.548,0,1,1-1.56-1.49A1.5,1.5,0,0,1,1178.485,148.64Zm-2.7,19.065V153.08h2.3v14.625Z" transform="translate(-890.382 -144.828)"/>
      <path id="Path_377" data-name="Path 377" class="cls-4" d="M1192.263,160.88a7.752,7.752,0,1,1-7.718-7.644A7.537,7.537,0,0,1,1192.263,160.88Zm-2.2,0a5.559,5.559,0,1,0-11.118,0,5.56,5.56,0,1,0,11.118,0ZM1183.7,151.2l2.392-4.176h2.646l-3.035,4.176Z" transform="translate(-884.925 -145.318)"/>
      <path id="Path_378" data-name="Path 378" class="cls-4" d="M1194.317,154.511v8.745h-2.242V154.91c0-2.7-1.664-4.565-4.076-4.565-3.085,0-5.083,2.063-5.083,5.885v7.026h-2.263V148.631h2.263v2.432a6.241,6.241,0,0,1,5.5-2.8C1191.955,148.267,1194.317,150.778,1194.317,154.511Z" transform="translate(-869.418 -140.379)"/>
    </g>
  </g>
</svg>
