<svg xmlns="http://www.w3.org/2000/svg" width="60" height="60" viewBox="0 0 60 60"><g transform="translate(-595 -1121)"><rect width="60" height="60" transform="translate(595 1121)" fill="none"/><path d="M.194.1A1.1,1.1,0,0,0-.9-1,1.1,1.1,0,0,0-2,.1a1.1,1.1,0,0,0,1.1,1.1A1.1,1.1,0,0,0,.194.1" transform="translate(631.125 1174.248)" fill="#7ac142"/><path d="M.194.1A1.1,1.1,0,0,0-.9-1,1.1,1.1,0,0,0-2,.1a1.1,1.1,0,0,0,1.1,1.1A1.1,1.1,0,0,0,.194.1" transform="translate(636.611 1174.248)" fill="#7ac142"/><path d="M.194.1A1.1,1.1,0,0,0-.9-1,1.1,1.1,0,0,0-2,.1a1.1,1.1,0,0,0,1.1,1.1A1.1,1.1,0,0,0,.194.1" transform="translate(642.096 1174.248)" fill="#7ac142"/><path d="M.194.1A1.1,1.1,0,0,0-.9-1,1.1,1.1,0,0,0-2,.1a1.1,1.1,0,0,0,1.1,1.1A1.1,1.1,0,0,0,.194.1" transform="translate(620.155 1174.248)" fill="#7ac142"/><path d="M.194.1A1.1,1.1,0,0,0-.9-1,1.1,1.1,0,0,0-2,.1a1.1,1.1,0,0,0,1.1,1.1A1.1,1.1,0,0,0,.194.1" transform="translate(625.64 1174.248)" fill="#7ac142"/><path d="M0,1.618A18.281,18.281,0,1,0,18.28-16.664,18.28,18.28,0,0,0,0,1.618Z" transform="translate(611.461 1147.863)" fill="none" stroke="#7ac142" stroke-linecap="round" stroke-linejoin="round" stroke-miterlimit="10" stroke-width="2"/><path d="M0,.8A9.067,9.067,0,1,0,9.066-8.266,9.067,9.067,0,0,0,0,.8Z" transform="translate(620.674 1148.678)" fill="none" stroke="#7ac142" stroke-linecap="round" stroke-linejoin="round" stroke-miterlimit="10" stroke-width="2"/><path d="M0,.383A4.325,4.325,0,1,0,4.323-3.942,4.322,4.322,0,0,0,0,.383" transform="translate(625.417 1149.098)" fill="#f9f8f8"/><path d="M.021.565,2.367-1.051a1.277,1.277,0,0,1,.1-.877,1.3,1.3,0,0,1,.455-.5L2.649-5.337c-.039-.4.228-.587.592-.421L9.369-2.964a1.6,1.6,0,0,1,.8,1.017L10.763,1.1l16.6,9.073c.629.319,1.244.37.926,1s-.724.16-1.353-.158L10.018,3.071,7.682,4.457A1.491,1.491,0,0,1,6.407,4.5L.07,1.3A.4.4,0,0,1,.021.565" transform="translate(601.665 1138.293)" fill="#7ac141"/><path d="M0,.344a1.285,1.285,0,0,1,.455-.5L.183-3.064c-.038-.4.228-.588.592-.421L6.9-.691A1.6,1.6,0,0,1,7.7.325L8.3,3.378l16.6,9.072c.613.312,1.217.368.946.956L-.031.422C-.02.4-.01.371,0,.344" transform="translate(604.131 1136.021)" fill="#7ac141"/></g></svg>