<svg xmlns="http://www.w3.org/2000/svg" width="60" height="60" viewBox="0 0 60 60"><g transform="translate(-683 -401)"><rect width="60" height="60" transform="translate(683 401)" fill="none"/><path d="M0,2.233v7.68H26.33V-14.223H18.65V-23H0v4.388" transform="translate(697.145 439.621)" fill="none" stroke="#7ac142" stroke-linecap="round" stroke-linejoin="round" stroke-miterlimit="10" stroke-width="2"/><path d="M.637.743l-7.2-8.4" transform="translate(722.439 424.688)" fill="none" stroke="#7ac142" stroke-linecap="round" stroke-linejoin="round" stroke-miterlimit="10" stroke-width="2"/><path d="M1.7,1.274l-14.4-14.4-4.8,4.8,14.4,14.4" transform="translate(708.03 437.357)" fill="none" stroke="#7ac142" stroke-linecap="round" stroke-linejoin="round" stroke-miterlimit="10" stroke-width="2"/><path d="M0,.425l4.8-4.8" transform="translate(694.13 432.207)" fill="none" stroke="#7ac142" stroke-linecap="round" stroke-linejoin="round" stroke-miterlimit="10" stroke-width="2"/><path d="M.425,0l2.4,7.2-7.2-2.4" transform="translate(709.304 438.631)" fill="none" stroke="#7ac142" stroke-linecap="round" stroke-linejoin="round" stroke-miterlimit="10" stroke-width="2"/><path d="M0,0H15.359V12.068H13.165V15.7L9.636,12.068H8.777" transform="translate(716.892 413.329)" fill="none" stroke="#7ac142" stroke-linecap="round" stroke-linejoin="round" stroke-miterlimit="10" stroke-width="2"/><path d="M526-763.806h2.194V-766H526Z" transform="translate(209.542 1173.844)" fill="#7ac142"/><path d="M521-763.806h2.194V-766H521Z" transform="translate(209.057 1173.844)" fill="#7ac142"/><path d="M516-763.806h2.194V-766H516Z" transform="translate(208.572 1173.844)" fill="#7ac142"/><path d="M526-758.806h2.194V-761H526Z" transform="translate(209.542 1174.329)" fill="#7ac142"/><path d="M.194.1A1.1,1.1,0,0,0-.9-1,1.1,1.1,0,0,0-2,.1a1.1,1.1,0,0,0,1.1,1.1A1.1,1.1,0,0,0,.194.1" transform="translate(713.407 457.116)" fill="#7ac142"/><path d="M.194.1A1.1,1.1,0,0,0-.9-1,1.1,1.1,0,0,0-2,.1a1.1,1.1,0,0,0,1.1,1.1A1.1,1.1,0,0,0,.194.1" transform="translate(718.892 457.116)" fill="#7ac142"/><path d="M.194.1A1.1,1.1,0,0,0-.9-1,1.1,1.1,0,0,0-2,.1a1.1,1.1,0,0,0,1.1,1.1A1.1,1.1,0,0,0,.194.1" transform="translate(724.377 457.116)" fill="#7ac142"/><path d="M.194.1A1.1,1.1,0,0,0-.9-1,1.1,1.1,0,0,0-2,.1a1.1,1.1,0,0,0,1.1,1.1A1.1,1.1,0,0,0,.194.1" transform="translate(702.436 457.116)" fill="#7ac142"/><path d="M.194.1A1.1,1.1,0,0,0-.9-1,1.1,1.1,0,0,0-2,.1a1.1,1.1,0,0,0,1.1,1.1A1.1,1.1,0,0,0,.194.1" transform="translate(707.921 457.116)" fill="#7ac142"/></g></svg>