<svg xmlns="http://www.w3.org/2000/svg" width="60" height="60" viewBox="0 0 60 60"><g transform="translate(-771 -851)"><rect width="60" height="60" transform="translate(771 851)" fill="none"/><path d="M.194.1A1.1,1.1,0,0,0-.9-1,1.1,1.1,0,0,0-2,.1a1.1,1.1,0,0,0,1.1,1.1A1.1,1.1,0,0,0,.194.1" transform="translate(801.173 903.948)" fill="#7ac142"/><path d="M.194.1A1.1,1.1,0,0,0-.9-1,1.1,1.1,0,0,0-2,.1a1.1,1.1,0,0,0,1.1,1.1A1.1,1.1,0,0,0,.194.1" transform="translate(806.659 903.948)" fill="#7ac142"/><path d="M.194.1A1.1,1.1,0,0,0-.9-1,1.1,1.1,0,0,0-2,.1a1.1,1.1,0,0,0,1.1,1.1A1.1,1.1,0,0,0,.194.1" transform="translate(812.144 903.948)" fill="#7ac142"/><path d="M.194.1A1.1,1.1,0,0,0-.9-1,1.1,1.1,0,0,0-2,.1a1.1,1.1,0,0,0,1.1,1.1A1.1,1.1,0,0,0,.194.1" transform="translate(790.202 903.948)" fill="#7ac142"/><path d="M.194.1A1.1,1.1,0,0,0-.9-1,1.1,1.1,0,0,0-2,.1a1.1,1.1,0,0,0,1.1,1.1A1.1,1.1,0,0,0,.194.1" transform="translate(795.202 877.948)" fill="#7ac142"/><path d="M.194.1A1.1,1.1,0,0,0-.9-1,1.1,1.1,0,0,0-2,.1a1.1,1.1,0,0,0,1.1,1.1A1.1,1.1,0,0,0,.194.1" transform="translate(801.202 877.948)" fill="#7ac142"/><path d="M.194.1A1.1,1.1,0,0,0-.9-1,1.1,1.1,0,0,0-2,.1a1.1,1.1,0,0,0,1.1,1.1A1.1,1.1,0,0,0,.194.1" transform="translate(807.202 877.948)" fill="#7ac142"/><path d="M.194.1A1.1,1.1,0,0,0-.9-1,1.1,1.1,0,0,0-2,.1a1.1,1.1,0,0,0,1.1,1.1A1.1,1.1,0,0,0,.194.1" transform="translate(795.202 882.948)" fill="#7ac142"/><path d="M.194.1A1.1,1.1,0,0,0-.9-1,1.1,1.1,0,0,0-2,.1a1.1,1.1,0,0,0,1.1,1.1A1.1,1.1,0,0,0,.194.1" transform="translate(801.202 882.948)" fill="#7ac142"/><path d="M.194.1A1.1,1.1,0,0,0-.9-1,1.1,1.1,0,0,0-2,.1a1.1,1.1,0,0,0,1.1,1.1A1.1,1.1,0,0,0,.194.1" transform="translate(807.202 882.948)" fill="#7ac142"/><path d="M.194.1A1.1,1.1,0,0,0-.9-1,1.1,1.1,0,0,0-2,.1a1.1,1.1,0,0,0,1.1,1.1A1.1,1.1,0,0,0,.194.1" transform="translate(795.688 903.948)" fill="#7ac142"/><path d="M1.942,1.942H-20V-20H1.942V1.942Z" transform="translate(809.299 887.842)" fill="none" stroke="#7ac142" stroke-linecap="round" stroke-linejoin="round" stroke-miterlimit="10" stroke-width="2"/><path d="M0,0H21.942" transform="translate(789.299 872.23)" fill="none" stroke="#7ac142" stroke-linecap="round" stroke-linejoin="round" stroke-miterlimit="10" stroke-width="2"/><path d="M0,0V6.582" transform="translate(795.882 864.55)" fill="none" stroke="#7ac142" stroke-linecap="round" stroke-linejoin="round" stroke-miterlimit="10" stroke-width="2"/><path d="M0,0V6.582" transform="translate(805.756 864.55)" fill="none" stroke="#7ac142" stroke-linecap="round" stroke-linejoin="round" stroke-miterlimit="10" stroke-width="2"/><path d="M2.428,2.563A20.854,20.854,0,0,0-1.9-20.161a20.854,20.854,0,0,0-23.116-4.551" transform="translate(817.045 883.274)" fill="none" stroke="#7ac142" stroke-linecap="round" stroke-linejoin="round" stroke-miterlimit="10" stroke-width="2"/><path d="M.192,0A20.854,20.854,0,0,0,28.385,27.822" transform="translate(781.401 868.446)" fill="none" stroke="#7ac142" stroke-linecap="round" stroke-linejoin="round" stroke-miterlimit="10" stroke-width="2"/><path d="M0,.147,5.177-1.514,7.471,3.013" transform="translate(776.16 869.812)" fill="none" stroke="#7ac142" stroke-linecap="round" stroke-linejoin="round" stroke-miterlimit="10" stroke-width="2"/><path d="M.661.254-4.516,1.915-6.81-2.612" transform="translate(823.94 884.221)" fill="none" stroke="#7ac142" stroke-linecap="round" stroke-linejoin="round" stroke-miterlimit="10" stroke-width="2"/></g></svg>