<svg xmlns="http://www.w3.org/2000/svg" width="60" height="60" viewBox="0 0 60 60"><g transform="translate(-771 -941)"><rect width="60" height="60" transform="translate(771 941)" fill="none"/><path d="M.194.1A1.1,1.1,0,0,0-.9-1,1.1,1.1,0,0,0-2,.1a1.1,1.1,0,0,0,1.1,1.1A1.1,1.1,0,0,0,.194.1" transform="translate(801.173 995.715)" fill="#7ac142"/><path d="M.194.1A1.1,1.1,0,0,0-.9-1,1.1,1.1,0,0,0-2,.1a1.1,1.1,0,0,0,1.1,1.1A1.1,1.1,0,0,0,.194.1" transform="translate(806.659 995.715)" fill="#7ac142"/><path d="M.194.1A1.1,1.1,0,0,0-.9-1,1.1,1.1,0,0,0-2,.1a1.1,1.1,0,0,0,1.1,1.1A1.1,1.1,0,0,0,.194.1" transform="translate(812.144 995.715)" fill="#7ac142"/><path d="M.194.1A1.1,1.1,0,0,0-.9-1,1.1,1.1,0,0,0-2,.1a1.1,1.1,0,0,0,1.1,1.1A1.1,1.1,0,0,0,.194.1" transform="translate(790.202 995.715)" fill="#7ac142"/><path d="M.194.1A1.1,1.1,0,0,0-.9-1,1.1,1.1,0,0,0-2,.1a1.1,1.1,0,0,0,1.1,1.1A1.1,1.1,0,0,0,.194.1" transform="translate(795.688 995.715)" fill="#7ac142"/><path d="M1.893,3.592h19.2V-37H-19.5V3.592Z" transform="translate(798.927 985.638)" fill="none" stroke="#7ac142" stroke-linecap="round" stroke-linejoin="round" stroke-miterlimit="10" stroke-width="2"/><path d="M593-251.767h10.971V-277H593Z" transform="translate(216.047 1233.317)" fill="none" stroke="#7ac142" stroke-linecap="round" stroke-linejoin="round" stroke-miterlimit="10" stroke-width="2"/><path d="M598.5-255.947h4.388V-273.5H598.5Z" transform="translate(216.581 1233.657)" fill="none" stroke="#7ac142" stroke-linecap="round" stroke-linejoin="round" stroke-miterlimit="10" stroke-width="1"/><path d="M.247,0a5.17,5.17,0,0,0-2.79,4.613A5.6,5.6,0,0,0,.437,9.4" transform="translate(807.979 964.555)" fill="none" stroke="#7ac142" stroke-linecap="round" stroke-linejoin="round" stroke-miterlimit="10" stroke-width="1"/><path d="M605.694-262.015H603.5V-267.5h2.194Z" transform="translate(217.066 1234.239)" fill="none" stroke="#7ac142" stroke-linecap="round" stroke-linejoin="round" stroke-miterlimit="10" stroke-width="1"/><path d="M0,1.75A9.885,9.885,0,0,0,9.885-8.136,9.885,9.885,0,0,0,0-18.021" transform="translate(779.401 978.222)" fill="none" stroke="#7ac142" stroke-linecap="round" stroke-linejoin="round" stroke-miterlimit="10" stroke-width="2"/><path d="M0,.569A3.214,3.214,0,0,0,3.213-2.645,3.213,3.213,0,0,0,0-5.857" transform="translate(779.401 972.731)" fill="#7ac142"/><path d="M.19.095A1.071,1.071,0,0,0-.882-.976,1.07,1.07,0,0,0-1.952.095,1.07,1.07,0,0,0-.882,1.167,1.071,1.071,0,0,0,.19.095" transform="translate(812.41 968.92)" fill="#7ac142"/><path d="M0,.284A3.146,3.146,0,0,1,3.212-2.928" transform="translate(816.884 989.078)" fill="none" stroke="#7ac142" stroke-linecap="round" stroke-linejoin="round" stroke-miterlimit="10" stroke-width="1"/><path d="M.284.284A3.146,3.146,0,0,1-2.928-2.929" transform="translate(819.812 951.596)" fill="none" stroke="#7ac142" stroke-linecap="round" stroke-linejoin="round" stroke-miterlimit="10" stroke-width="1"/></g></svg>