<svg xmlns="http://www.w3.org/2000/svg" width="60" height="60" viewBox="0 0 60 60"><g transform="translate(-595 -941)"><rect width="60" height="60" transform="translate(595 941)" fill="none"/><path d="M.194.1A1.1,1.1,0,0,0-.9-1,1.1,1.1,0,0,0-2,.1a1.1,1.1,0,0,0,1.1,1.1A1.1,1.1,0,0,0,.194.1" transform="translate(625.64 995.715)" fill="#7ac142"/><path d="M.194.1A1.1,1.1,0,0,0-.9-1,1.1,1.1,0,0,0-2,.1a1.1,1.1,0,0,0,1.1,1.1A1.1,1.1,0,0,0,.194.1" transform="translate(631.125 995.715)" fill="#7ac142"/><path d="M.194.1A1.1,1.1,0,0,0-.9-1,1.1,1.1,0,0,0-2,.1a1.1,1.1,0,0,0,1.1,1.1A1.1,1.1,0,0,0,.194.1" transform="translate(636.611 995.715)" fill="#7ac142"/><path d="M.194.1A1.1,1.1,0,0,0-.9-1,1.1,1.1,0,0,0-2,.1a1.1,1.1,0,0,0,1.1,1.1A1.1,1.1,0,0,0,.194.1" transform="translate(614.669 995.715)" fill="#7ac142"/><path d="M.194.1A1.1,1.1,0,0,0-.9-1,1.1,1.1,0,0,0-2,.1a1.1,1.1,0,0,0,1.1,1.1A1.1,1.1,0,0,0,.194.1" transform="translate(620.155 995.715)" fill="#7ac142"/><path d="M0,0S15.931,8.926,22.41,13.516a103.487,103.487,0,0,1,10.046,7.952l4.285-.6s-.975-1.826,1.376-4.383c2.692-2.925,9.076-6.344,9.076-6.344S40,13.207,29.154,10.7C17.572,8.013,0,0,0,0Z" transform="translate(601.367 948.76)" fill="none" stroke="#7ac142" stroke-linecap="round" stroke-linejoin="round" stroke-miterlimit="10" stroke-width="2"/><path d="M2.872,1.9A21.02,21.02,0,0,0-9.766-1.217c-2.69.273-8.516,2.371-8.516,2.371a14.2,14.2,0,0,0-1.263-9.246c-2.434-4.759-10.039-11.475-10.039-11.475" transform="translate(630.951 968.328)" fill="none" stroke="#7ac142" stroke-linecap="round" stroke-linejoin="round" stroke-miterlimit="10" stroke-width="2"/><path d="M0,.93l3.4.594a4.68,4.68,0,0,1,.223-3.857C5.455-5.956,10.2-9.577,10.2-9.577" transform="translate(638.109 968.694)" fill="none" stroke="#7ac142" stroke-linecap="round" stroke-linejoin="round" stroke-miterlimit="10" stroke-width="2"/><path d="M0,0V13.165" transform="translate(626.931 971.676)" fill="none" stroke="#7ac142" stroke-linecap="round" stroke-linejoin="round" stroke-miterlimit="10" stroke-width="2"/><path d="M1,1.834,15.554,3.677-10.3-18.889" transform="translate(611.669 967.648)" fill="none" stroke="#7ac142" stroke-linecap="round" stroke-linejoin="round" stroke-miterlimit="10" stroke-width="2"/><path d="M.567.332l-6.4.162,2.854-3.909" transform="translate(633.06 970.831)" fill="none" stroke="#7ac142" stroke-linecap="round" stroke-linejoin="round" stroke-miterlimit="10" stroke-width="2"/><path d="M4.077,0H-21.037l-3.4,3.291H-42" transform="translate(643.698 984.841)" fill="none" stroke="#7ac142" stroke-linecap="round" stroke-linejoin="round" stroke-miterlimit="10" stroke-width="2"/></g></svg>