<svg xmlns="http://www.w3.org/2000/svg" width="60" height="60" viewBox="0 0 60 60"><g transform="translate(-155 -1121)"><rect width="60" height="60" transform="translate(155 1121)" fill="none"/><path d="M.194.1A1.1,1.1,0,0,0-.9-1,1.1,1.1,0,0,0-2,.1a1.1,1.1,0,0,0,1.1,1.1A1.1,1.1,0,0,0,.194.1" transform="translate(186.807 1174.248)" fill="#7ac142"/><path d="M.194.1A1.1,1.1,0,0,0-.9-1,1.1,1.1,0,0,0-2,.1a1.1,1.1,0,0,0,1.1,1.1A1.1,1.1,0,0,0,.194.1" transform="translate(192.293 1174.248)" fill="#7ac142"/><path d="M.194.1A1.1,1.1,0,0,0-.9-1,1.1,1.1,0,0,0-2,.1a1.1,1.1,0,0,0,1.1,1.1A1.1,1.1,0,0,0,.194.1" transform="translate(197.778 1174.248)" fill="#7ac142"/><path d="M.194.1A1.1,1.1,0,0,0-.9-1,1.1,1.1,0,0,0-2,.1a1.1,1.1,0,0,0,1.1,1.1A1.1,1.1,0,0,0,.194.1" transform="translate(175.836 1174.248)" fill="#7ac142"/><path d="M.194.1A1.1,1.1,0,0,0-.9-1,1.1,1.1,0,0,0-2,.1a1.1,1.1,0,0,0,1.1,1.1A1.1,1.1,0,0,0,.194.1" transform="translate(181.322 1174.248)" fill="#7ac142"/><path d="M.163.552C-3.535,6.97-1.184,16.5,2.906,22.4c2.043,2.952,4.11,5.5,6.942,5.5.054,0,.106-.055.161-.058a8.558,8.558,0,0,0,3.222-.886,8.806,8.806,0,0,1,3.816-.918,8.31,8.31,0,0,1,3.632.869,7.635,7.635,0,0,0,3.479.83c3.189-.058,5.148-2.92,6.875-5.445a24.109,24.109,0,0,0,3.013-6.171l.013-.041a.356.356,0,0,0-.191-.438l-.026-.012A9.142,9.142,0,0,1,28.3,7.257,9.416,9.416,0,0,1,32.749-.612l.035-.022a.347.347,0,0,0,.157-.229.352.352,0,0,0-.055-.274,10.348,10.348,0,0,0-8.14-4.419c-.231-.023-.471-.036-.71-.036a14.19,14.19,0,0,0-5.109,1.277,8.209,8.209,0,0,1-2.448.731,6.1,6.1,0,0,1-2.532-.307c-1.337-.531-2.855-1.8-4.462-1.8H9.373C5.639-5.689,2.108-2.833.163.552Z" transform="translate(168.283 1141.637)" fill="none" stroke="#7ac142" stroke-miterlimit="10" stroke-width="2"/><path d="M.576,0A7.174,7.174,0,0,0-4.179,2.467,6.875,6.875,0,0,0-5.888,7.529a.258.258,0,0,0,.237.226c.11.009.223.013.334.013A6.067,6.067,0,0,0-.829,5.439,7.249,7.249,0,0,0,.844.234.262.262,0,0,0,.576,0Z" transform="translate(188.512 1126.563)" fill="none" stroke="#7ac142" stroke-miterlimit="10" stroke-width="2"/></g></svg>