<svg xmlns="http://www.w3.org/2000/svg" width="60" height="60" viewBox="0 0 60 60"><g transform="translate(-331 -761)"><rect width="60" height="60" transform="translate(331 761)" fill="none"/><path d="M.194.1A1.1,1.1,0,0,0-.9-1,1.1,1.1,0,0,0-2,.1a1.1,1.1,0,0,0,1.1,1.1A1.1,1.1,0,0,0,.194.1" transform="translate(362.34 816.182)" fill="#7ac142"/><path d="M.194.1A1.1,1.1,0,0,0-.9-1,1.1,1.1,0,0,0-2,.1a1.1,1.1,0,0,0,1.1,1.1A1.1,1.1,0,0,0,.194.1" transform="translate(367.826 816.182)" fill="#7ac142"/><path d="M.194.1A1.1,1.1,0,0,0-.9-1,1.1,1.1,0,0,0-2,.1a1.1,1.1,0,0,0,1.1,1.1A1.1,1.1,0,0,0,.194.1" transform="translate(373.311 816.182)" fill="#7ac142"/><path d="M.194.1A1.1,1.1,0,0,0-.9-1,1.1,1.1,0,0,0-2,.1a1.1,1.1,0,0,0,1.1,1.1A1.1,1.1,0,0,0,.194.1" transform="translate(351.37 816.182)" fill="#7ac142"/><path d="M.194.1A1.1,1.1,0,0,0-.9-1,1.1,1.1,0,0,0-2,.1a1.1,1.1,0,0,0,1.1,1.1A1.1,1.1,0,0,0,.194.1" transform="translate(356.855 816.182)" fill="#7ac142"/><path d="M1.022.291H-8.991a1.634,1.634,0,0,1-1.537-1.645A1.635,1.635,0,0,1-8.991-3H1.022A1.635,1.635,0,0,1,2.558-1.353,1.633,1.633,0,0,1,1.022.291Z" transform="translate(360.647 787.464)" fill="none" stroke="#7ac142" stroke-linecap="round" stroke-linejoin="round" stroke-miterlimit="10" stroke-width="2"/><path d="M1.636.291h-16.95a1.633,1.633,0,0,1-1.534-1.646A1.633,1.633,0,0,1-15.314-3H1.636A1.634,1.634,0,0,1,3.172-1.354,1.634,1.634,0,0,1,1.636.291Z" transform="translate(368.699 796.24)" fill="none" stroke="#7ac142" stroke-linecap="round" stroke-linejoin="round" stroke-miterlimit="10" stroke-width="2"/><path d="M.388,0h-1.91C-2.371,0-4,.116-4,.963V6.63c0,.847,1.629,2.147,2.478,2.147H1.485" transform="translate(350.078 786.658)" fill="none" stroke="#7ac142" stroke-linecap="round" stroke-linejoin="round" stroke-miterlimit="10" stroke-width="2"/><path d="M.225,1.2-2.313-12.332" transform="translate(371.455 808.689)" fill="none" stroke="#7ac142" stroke-linecap="round" stroke-linejoin="round" stroke-miterlimit="10" stroke-width="2"/><path d="M.225,0-2.313,13.529" transform="translate(355.476 796.357)" fill="none" stroke="#7ac142" stroke-linecap="round" stroke-linejoin="round" stroke-miterlimit="10" stroke-width="2"/><path d="M0,0H15.359" transform="translate(354.855 799.823)" fill="none" stroke="#7ac142" stroke-linecap="round" stroke-linejoin="round" stroke-miterlimit="10" stroke-width="2"/><path d="M1.244,1.429-.523-12.615a2.549,2.549,0,0,0-2.668-2.1H-8.874a2.543,2.543,0,0,0-2.664,2.1L-12.815-2.431" transform="translate(368.625 787.11)" fill="none" stroke="#7ac142" stroke-linecap="round" stroke-linejoin="round" stroke-miterlimit="10" stroke-width="2"/><path d="M0,0H46.077" transform="translate(338.399 809.696)" fill="none" stroke="#7ac142" stroke-linecap="round" stroke-linejoin="round" stroke-miterlimit="10" stroke-width="2"/></g></svg>