<svg xmlns="http://www.w3.org/2000/svg" width="60" height="60" viewBox="0 0 60 60"><g transform="translate(-419 -761)"><rect width="60" height="60" transform="translate(419 761)" fill="none"/><path d="M.194.1A1.1,1.1,0,0,0-.9-1,1.1,1.1,0,0,0-2,.1a1.1,1.1,0,0,0,1.1,1.1A1.1,1.1,0,0,0,.194.1" transform="translate(450.107 816.182)" fill="#7ac142"/><path d="M.194.1A1.1,1.1,0,0,0-.9-1,1.1,1.1,0,0,0-2,.1a1.1,1.1,0,0,0,1.1,1.1A1.1,1.1,0,0,0,.194.1" transform="translate(455.592 816.182)" fill="#7ac142"/><path d="M.194.1A1.1,1.1,0,0,0-.9-1,1.1,1.1,0,0,0-2,.1a1.1,1.1,0,0,0,1.1,1.1A1.1,1.1,0,0,0,.194.1" transform="translate(461.078 816.182)" fill="#7ac142"/><path d="M.194.1A1.1,1.1,0,0,0-.9-1,1.1,1.1,0,0,0-2,.1a1.1,1.1,0,0,0,1.1,1.1A1.1,1.1,0,0,0,.194.1" transform="translate(439.136 816.182)" fill="#7ac142"/><path d="M.194.1A1.1,1.1,0,0,0-.9-1,1.1,1.1,0,0,0-2,.1a1.1,1.1,0,0,0,1.1,1.1A1.1,1.1,0,0,0,.194.1" transform="translate(444.622 816.182)" fill="#7ac142"/><path d="M0,.68H8.777V-7" transform="translate(430.554 804.629)" fill="none" stroke="#7ac142" stroke-linecap="round" stroke-linejoin="round" stroke-miterlimit="10" stroke-width="2"/><path d="M.874.68H-9V-7" transform="translate(461.495 804.629)" fill="none" stroke="#7ac142" stroke-linecap="round" stroke-linejoin="round" stroke-miterlimit="10" stroke-width="2"/><path d="M0,0V7.68" transform="translate(445.913 797.629)" fill="none" stroke="#7ac142" stroke-linecap="round" stroke-linejoin="round" stroke-miterlimit="10" stroke-width="2"/><path d="M0,0,3.188,3.291,6.479,0" transform="translate(442.724 802.017)" fill="none" stroke="#7ac142" stroke-linecap="round" stroke-linejoin="round" stroke-miterlimit="10" stroke-width="2"/><path d="M2.718,1.929-7.331-4.593a1.36,1.36,0,0,0-.126-.065A10.753,10.753,0,0,0-11.323-18.1a10.758,10.758,0,0,0-14.9,3.072,10.758,10.758,0,0,0,3.071,14.9A10.754,10.754,0,0,0-9.283-1.883a1.074,1.074,0,0,0,.109.09L.873,4.73a1.677,1.677,0,0,0,1.845-2.8Z" transform="translate(463.255 792.571)" fill="none" stroke="#7ac142" stroke-linecap="round" stroke-linejoin="round" stroke-miterlimit="10" stroke-width="2"/><path d="M0,0H46.077" transform="translate(426.165 809.696)" fill="none" stroke="#7ac142" stroke-linecap="round" stroke-linejoin="round" stroke-miterlimit="10" stroke-width="2"/><text transform="translate(441.486 787.687)" fill="#7ac142" font-size="13" font-family="AcherusGrotesque-ExtraBold, Acherus Grotesque" font-weight="800"><tspan x="0" y="0">$</tspan></text></g></svg>