<svg xmlns="http://www.w3.org/2000/svg" width="60" height="60" viewBox="0 0 60 60"><g transform="translate(-947 -671)"><rect width="60" height="60" transform="translate(947 671)" fill="none"/><path d="M.194.1A1.1,1.1,0,0,0-.9-1,1.1,1.1,0,0,0-2,.1a1.1,1.1,0,0,0,1.1,1.1A1.1,1.1,0,0,0,.194.1" transform="translate(976.706 725.415)" fill="#7ac142"/><path d="M.194.1A1.1,1.1,0,0,0-.9-1,1.1,1.1,0,0,0-2,.1a1.1,1.1,0,0,0,1.1,1.1A1.1,1.1,0,0,0,.194.1" transform="translate(982.192 725.415)" fill="#7ac142"/><path d="M.194.1A1.1,1.1,0,0,0-.9-1,1.1,1.1,0,0,0-2,.1a1.1,1.1,0,0,0,1.1,1.1A1.1,1.1,0,0,0,.194.1" transform="translate(987.677 725.415)" fill="#7ac142"/><path d="M.194.1A1.1,1.1,0,0,0-.9-1,1.1,1.1,0,0,0-2,.1a1.1,1.1,0,0,0,1.1,1.1A1.1,1.1,0,0,0,.194.1" transform="translate(965.735 725.415)" fill="#7ac142"/><path d="M.194.1A1.1,1.1,0,0,0-.9-1,1.1,1.1,0,0,0-2,.1a1.1,1.1,0,0,0,1.1,1.1A1.1,1.1,0,0,0,.194.1" transform="translate(971.221 725.415)" fill="#7ac142"/><path d="M.1.254C.692-.658,1.516-1.83,4.524-2.18s11.811-.9,15.769.32S24.32,1.3,24.356,4.167a13.526,13.526,0,0,1-3.421,8.971c-2.294,2.391-6.608,4.236-9.515,4.059A13.6,13.6,0,0,1,2.45,13.71a12.41,12.41,0,0,1-3.4-6.483A12.393,12.393,0,0,1,.1.254Z" transform="translate(974.618 687.202)" fill="none" stroke="#7ac142" stroke-linecap="round" stroke-linejoin="round" stroke-miterlimit="10" stroke-width="2"/><path d="M0,.181A16.906,16.906,0,0,0,2.07-.607,14.11,14.11,0,0,1,8.135-1.858C10.88-1.774,14.908.531,14.908.531" transform="translate(978.789 694.289)" fill="none" stroke="#7ac142" stroke-linecap="round" stroke-linejoin="round" stroke-miterlimit="10" stroke-width="2"/><path d="M0,0A5.038,5.038,0,0,0,1.676,2.071,12.76,12.76,0,0,0,8.3,3.97c2.946.023,4.627-.314,6.2-1.355A7.76,7.76,0,0,0,16.814.225" transform="translate(978.037 693.231)" fill="none" stroke="#7ac142" stroke-linecap="round" stroke-linejoin="round" stroke-miterlimit="10" stroke-width="2"/><path d="M3.883,1.456H-40V-15" transform="translate(994.959 716.377)" fill="none" stroke="#7ac142" stroke-linecap="round" stroke-linejoin="round" stroke-miterlimit="10" stroke-width="2"/><path d="M1.553,0H-16" transform="translate(967.668 701.377)" fill="none" stroke="#7ac142" stroke-linecap="round" stroke-linejoin="round" stroke-miterlimit="10" stroke-width="2"/><path d="M0,0V12.068" transform="translate(985.677 704.668)" fill="none" stroke="#7ac142" stroke-linecap="round" stroke-linejoin="round" stroke-miterlimit="10" stroke-width="2"/><path d="M0,.971V-10" transform="translate(953.862 698.212)" fill="none" stroke="#7ac142" stroke-linecap="round" stroke-linejoin="round" stroke-miterlimit="10" stroke-width="2"/><path d="M0,.874V-9" transform="translate(957.153 698.309)" fill="none" stroke="#7ac142" stroke-linecap="round" stroke-linejoin="round" stroke-miterlimit="10" stroke-width="2"/><path d="M0,.485V-5" transform="translate(967.027 698.697)" fill="none" stroke="#7ac142" stroke-linecap="round" stroke-linejoin="round" stroke-miterlimit="10" stroke-width="2"/><path d="M0,.971V-10" transform="translate(960.444 698.212)" fill="none" stroke="#7ac142" stroke-linecap="round" stroke-linejoin="round" stroke-miterlimit="10" stroke-width="2"/><path d="M0,.874V-9" transform="translate(963.735 698.309)" fill="none" stroke="#7ac142" stroke-linecap="round" stroke-linejoin="round" stroke-miterlimit="10" stroke-width="2"/></g></svg>