<svg xmlns="http://www.w3.org/2000/svg" width="60" height="60" viewBox="0 0 60 60"><g transform="translate(-243 -851)"><rect width="60" height="60" transform="translate(243 851)" fill="none"/><path d="M.194.1A1.1,1.1,0,0,0-.9-1,1.1,1.1,0,0,0-2,.1a1.1,1.1,0,0,0,1.1,1.1A1.1,1.1,0,0,0,.194.1" transform="translate(274.574 903.948)" fill="#7ac142"/><path d="M.194.1A1.1,1.1,0,0,0-.9-1,1.1,1.1,0,0,0-2,.1a1.1,1.1,0,0,0,1.1,1.1A1.1,1.1,0,0,0,.194.1" transform="translate(280.059 903.948)" fill="#7ac142"/><path d="M.194.1A1.1,1.1,0,0,0-.9-1,1.1,1.1,0,0,0-2,.1a1.1,1.1,0,0,0,1.1,1.1A1.1,1.1,0,0,0,.194.1" transform="translate(285.545 903.948)" fill="#7ac142"/><path d="M.194.1A1.1,1.1,0,0,0-.9-1,1.1,1.1,0,0,0-2,.1a1.1,1.1,0,0,0,1.1,1.1A1.1,1.1,0,0,0,.194.1" transform="translate(263.603 903.948)" fill="#7ac142"/><path d="M.194.1A1.1,1.1,0,0,0-.9-1,1.1,1.1,0,0,0-2,.1a1.1,1.1,0,0,0,1.1,1.1A1.1,1.1,0,0,0,.194.1" transform="translate(269.088 903.948)" fill="#7ac142"/><path d="M.194,1.456V-1.835H-2V-11.7A3.447,3.447,0,0,1,.994-15H6.7a3.809,3.809,0,0,1,3.37,3.3v9.868H7.874V3.65" transform="translate(258.118 877.356)" fill="none" stroke="#7ac142" stroke-linecap="round" stroke-linejoin="round" stroke-width="2"/><path d="M.388.194H3.68V-2h7.126A2.482,2.482,0,0,1,13.553.445v5.7c0,1.542-1.209,3.919-2.748,3.919H3.68V7.874H-4" transform="translate(272.185 862.162)" fill="none" stroke="#7ac142" stroke-linecap="round" stroke-linejoin="round" stroke-width="2"/><path d="M1.165.874H-2.126V3.068H-9.253A2.481,2.481,0,0,1-12,.623v-5.7C-12-6.624-10.792-9-9.253-9h7.127v2.194h7.68" transform="translate(271.409 890.007)" fill="none" stroke="#7ac142" stroke-linecap="round" stroke-linejoin="round" stroke-width="2"/><path d="M.194.1v7.68H-2v8.771a3.447,3.447,0,0,0,2.994,3.3H6.7a3.809,3.809,0,0,0,3.37-3.3V6.68H7.874V-1" transform="translate(278.962 872.133)" fill="none" stroke="#7ac142" stroke-linecap="round" stroke-linejoin="round" stroke-width="2"/><path d="M.388.194A2.195,2.195,0,0,0-1.806-2,2.195,2.195,0,0,0-4,.194,2.195,2.195,0,0,0-1.806,2.388,2.195,2.195,0,0,0,.388.194" transform="translate(256.826 886.298)" fill="#7ac142"/><path d="M.388.194A2.195,2.195,0,0,0-1.806-2,2.195,2.195,0,0,0-4,.194,2.195,2.195,0,0,0-1.806,2.388,2.195,2.195,0,0,0,.388.194" transform="translate(293.03 865.453)" fill="#7ac142"/><path d="M.388.194A2.195,2.195,0,0,0-1.806-2,2.195,2.195,0,0,0-4,.194,2.195,2.195,0,0,0-1.806,2.388,2.195,2.195,0,0,0,.388.194" transform="translate(284.253 896.172)" fill="#7ac142"/><path d="M.388.194A2.195,2.195,0,0,0-1.806-2,2.195,2.195,0,0,0-4,.194,2.195,2.195,0,0,0-1.806,2.388,2.195,2.195,0,0,0,.388.194" transform="translate(263.409 857.774)" fill="#7ac142"/></g></svg>