<svg xmlns="http://www.w3.org/2000/svg" width="60" height="60" viewBox="0 0 60 60"><g transform="translate(-331 -941)"><rect width="60" height="60" transform="translate(331 941)" fill="none"/><path d="M.194.1A1.1,1.1,0,0,0-.9-1,1.1,1.1,0,0,0-2,.1a1.1,1.1,0,0,0,1.1,1.1A1.1,1.1,0,0,0,.194.1" transform="translate(362.34 995.715)" fill="#7ac142"/><path d="M.194.1A1.1,1.1,0,0,0-.9-1,1.1,1.1,0,0,0-2,.1a1.1,1.1,0,0,0,1.1,1.1A1.1,1.1,0,0,0,.194.1" transform="translate(367.826 995.715)" fill="#7ac142"/><path d="M.194.1A1.1,1.1,0,0,0-.9-1,1.1,1.1,0,0,0-2,.1a1.1,1.1,0,0,0,1.1,1.1A1.1,1.1,0,0,0,.194.1" transform="translate(373.311 995.715)" fill="#7ac142"/><path d="M.194.1A1.1,1.1,0,0,0-.9-1,1.1,1.1,0,0,0-2,.1a1.1,1.1,0,0,0,1.1,1.1A1.1,1.1,0,0,0,.194.1" transform="translate(351.37 995.715)" fill="#7ac142"/><path d="M.194.1A1.1,1.1,0,0,0-.9-1,1.1,1.1,0,0,0-2,.1a1.1,1.1,0,0,0,1.1,1.1A1.1,1.1,0,0,0,.194.1" transform="translate(356.855 995.715)" fill="#7ac142"/><path d="M1.362,3.4H14.491V-21.723S13.4-35-.151-35H1c-13.552,0-15.038,13.277-15.038,13.277V3.4h15.4Z" transform="translate(360.112 984.735)" fill="none" stroke="#7ac142" stroke-linecap="round" stroke-linejoin="round" stroke-miterlimit="10" stroke-width="2"/><path d="M.988,1.747h11.72s.07-6.193-.422-10.908S5.668-18,.988-18H1.55c-4.679,0-10.805,4.123-11.3,8.839S-10.17,1.747-10.17,1.747H.988Z" transform="translate(359.27 986.385)" fill="none" stroke="#7ac142" stroke-linecap="round" stroke-linejoin="round" stroke-miterlimit="10" stroke-width="2"/><path d="M.594.186c-.15-1.437-2.016-2.1-3.444-2.1h.172c-1.426,0-3.293.748-3.444,2.183" transform="translate(363.554 949.456)" fill="none" stroke="#7ac142" stroke-linecap="round" stroke-linejoin="round" stroke-miterlimit="10" stroke-width="2"/><path d="M0,1.456H2.124c.468,0,1.167.346,1.167-2V-12.794c0-2.348-.7-2.206-1.167-2.206H0" transform="translate(374.602 984.482)" fill="none" stroke="#7ac142" stroke-linecap="round" stroke-linejoin="round" stroke-miterlimit="10" stroke-width="2"/><path d="M.291,1.456H-1.555C-2.024,1.456-3,1.8-3-.546V-12.794C-3-15.141-2.024-15-1.555-15H.291" transform="translate(345.787 984.482)" fill="none" stroke="#7ac142" stroke-linecap="round" stroke-linejoin="round" stroke-miterlimit="10" stroke-width="2"/><path d="M.364.182A2.057,2.057,0,0,1-1.693,2.238,2.057,2.057,0,0,1-3.75.182,2.057,2.057,0,0,1-1.693-1.876,2.057,2.057,0,0,1,.364.182Z" transform="translate(362.483 957.153)" fill="none" stroke="#7ac142" stroke-linecap="round" stroke-linejoin="round" stroke-miterlimit="10" stroke-width="1.5"/></g></svg>