<svg xmlns="http://www.w3.org/2000/svg" width="60" height="60" viewBox="0 0 60 60"><g transform="translate(-507 -851)"><rect width="60" height="60" transform="translate(507 851)" fill="none"/><path d="M.194.1A1.1,1.1,0,0,0-.9-1,1.1,1.1,0,0,0-2,.1a1.1,1.1,0,0,0,1.1,1.1A1.1,1.1,0,0,0,.194.1" transform="translate(537.873 903.948)" fill="#7ac142"/><path d="M.194.1A1.1,1.1,0,0,0-.9-1,1.1,1.1,0,0,0-2,.1a1.1,1.1,0,0,0,1.1,1.1A1.1,1.1,0,0,0,.194.1" transform="translate(543.359 903.948)" fill="#7ac142"/><path d="M.194.1A1.1,1.1,0,0,0-.9-1,1.1,1.1,0,0,0-2,.1a1.1,1.1,0,0,0,1.1,1.1A1.1,1.1,0,0,0,.194.1" transform="translate(548.844 903.948)" fill="#7ac142"/><path d="M.194.1A1.1,1.1,0,0,0-.9-1,1.1,1.1,0,0,0-2,.1a1.1,1.1,0,0,0,1.1,1.1A1.1,1.1,0,0,0,.194.1" transform="translate(526.903 903.948)" fill="#7ac142"/><path d="M.194.1A1.1,1.1,0,0,0-.9-1,1.1,1.1,0,0,0-2,.1a1.1,1.1,0,0,0,1.1,1.1A1.1,1.1,0,0,0,.194.1" transform="translate(532.388 903.948)" fill="#7ac142"/><path d="M1.068.874V-9H-11V14.039" transform="translate(541.388 864.774)" fill="none" stroke="#7ac142" stroke-linecap="round" stroke-linejoin="round" stroke-width="2"/><path d="M.438.219A2.475,2.475,0,0,1-2.037,2.694,2.476,2.476,0,0,1-4.512.219,2.476,2.476,0,0,1-2.037-2.256,2.475,2.475,0,0,1,.438.219" transform="translate(544.833 865.227)" fill="#7ac142"/><path d="M0,1.165v9.874H12.068V-12" transform="translate(530.388 886.424)" fill="none" stroke="#7ac142" stroke-linecap="round" stroke-linejoin="round" stroke-width="2"/><path d="M0,.219A2.475,2.475,0,1,1,2.475,2.694,2.475,2.475,0,0,1,0,.219" transform="translate(527.687 887.516)" fill="#7ac142"/><path d="M1.165,1.165h9.874V-12H-12" transform="translate(545.679 880.939)" fill="none" stroke="#7ac142" stroke-linecap="round" stroke-linejoin="round" stroke-width="2"/><path d="M.219.438A2.475,2.475,0,0,1-2.256-2.037,2.475,2.475,0,0,1,.219-4.512,2.475,2.475,0,0,1,2.694-2.037,2.475,2.475,0,0,1,.219.438" transform="translate(547.06 883.913)" fill="#7ac142"/><path d="M.777,0H-8V13.165H13.942" transform="translate(524.126 868.939)" fill="none" stroke="#7ac142" stroke-linecap="round" stroke-linejoin="round" stroke-width="2"/><path d="M.219,0A2.475,2.475,0,1,1-2.256,2.475,2.475,2.475,0,0,1,.219,0" transform="translate(524.773 866.767)" fill="#7ac142"/><path d="M.163,0-1.678,2.321" transform="translate(542.456 874.477)" fill="none" stroke="#7ac142" stroke-linecap="round" stroke-linejoin="round" stroke-miterlimit="10" stroke-width="2"/><path d="M0,0,1.841,2.208" transform="translate(542.619 874.477)" fill="none" stroke="#7ac142" stroke-linecap="round" stroke-linejoin="round" stroke-miterlimit="10" stroke-width="2"/><path d="M0,.235,1.841-2.42" transform="translate(530.339 878.471)" fill="none" stroke="#7ac142" stroke-linecap="round" stroke-linejoin="round" stroke-miterlimit="10" stroke-width="2"/><path d="M.163.225-1.678-2.316" transform="translate(530.176 878.481)" fill="none" stroke="#7ac142" stroke-linecap="round" stroke-linejoin="round" stroke-miterlimit="10" stroke-width="2"/><path d="M.233.163-2.4-1.678" transform="translate(538.016 881.536)" fill="none" stroke="#7ac142" stroke-linecap="round" stroke-linejoin="round" stroke-miterlimit="10" stroke-width="2"/><path d="M.222,0-2.291,1.841" transform="translate(538.026 881.699)" fill="none" stroke="#7ac142" stroke-linecap="round" stroke-linejoin="round" stroke-miterlimit="10" stroke-width="2"/><path d="M0,0,2.546,1.841" transform="translate(534.022 869.421)" fill="none" stroke="#7ac142" stroke-linecap="round" stroke-linejoin="round" stroke-miterlimit="10" stroke-width="2"/><path d="M0,.163,2.432-1.678" transform="translate(534.022 869.258)" fill="none" stroke="#7ac142" stroke-linecap="round" stroke-linejoin="round" stroke-miterlimit="10" stroke-width="2"/></g></svg>