<svg xmlns="http://www.w3.org/2000/svg" width="60" height="60" viewBox="0 0 60 60"><g transform="translate(-595 -491)"><rect width="60" height="60" transform="translate(595 491)" fill="none"/><path d="M1.942,3.3H-20V-34H16.2v19.747" transform="translate(624.99 533.999)" fill="none" stroke="#7ac142" stroke-linecap="round" stroke-linejoin="round" stroke-width="2"/><path d="M0,0H36.2" transform="translate(604.99 508.776)" fill="none" stroke="#7ac142" stroke-linecap="round" stroke-linejoin="round" stroke-width="2"/><path d="M0,0V8.777" transform="translate(615.96 495.611)" fill="none" stroke="#7ac142" stroke-linecap="round" stroke-linejoin="round" stroke-width="2"/><path d="M0,0V8.777" transform="translate(631.32 495.611)" fill="none" stroke="#7ac142" stroke-linecap="round" stroke-linejoin="round" stroke-width="2"/><path d="M1.043,1.043a6.9,6.9,0,0,0,0-9.761,6.9,6.9,0,0,0-9.759,0,6.9,6.9,0,0,0,0,9.761,6.9,6.9,0,0,0,9.759,0" transform="translate(637.139 531.885)" fill="none" stroke="#7ac142" stroke-linecap="round" stroke-linejoin="round" stroke-width="2"/><path d="M0,0,5.932,5.932" transform="translate(638.476 532.388)" fill="none" stroke="#7ac142" stroke-linecap="round" stroke-linejoin="round" stroke-width="2.415"/><path d="M425.194-667.806H423V-670h2.194Z" transform="translate(199.543 1183.164)" fill="#7ac142"/><path d="M425.194-659.806H423V-662h2.194Z" transform="translate(199.543 1183.941)" fill="#7ac142"/><path d="M425.194-651.806H423V-654h2.194Z" transform="translate(199.543 1184.717)" fill="#7ac142"/><path d="M434.194-667.806H432V-670h2.194Z" transform="translate(200.417 1183.164)" fill="#7ac142"/><path d="M416.194-667.806H414V-670h2.194Z" transform="translate(198.669 1183.164)" fill="#7ac142"/><path d="M416.194-659.806H414V-662h2.194Z" transform="translate(198.669 1183.941)" fill="#7ac142"/><path d="M416.194-651.806H414V-654h2.194Z" transform="translate(198.669 1184.717)" fill="#7ac142"/><path d="M.194.1A1.1,1.1,0,0,0-.9-1,1.1,1.1,0,0,0-2,.1a1.1,1.1,0,0,0,1.1,1.1A1.1,1.1,0,0,0,.194.1" transform="translate(625.64 544.882)" fill="#7ac142"/><path d="M.194.1A1.1,1.1,0,0,0-.9-1,1.1,1.1,0,0,0-2,.1a1.1,1.1,0,0,0,1.1,1.1A1.1,1.1,0,0,0,.194.1" transform="translate(631.125 544.882)" fill="#7ac142"/><path d="M.194.1A1.1,1.1,0,0,0-.9-1,1.1,1.1,0,0,0-2,.1a1.1,1.1,0,0,0,1.1,1.1A1.1,1.1,0,0,0,.194.1" transform="translate(636.611 544.882)" fill="#7ac142"/><path d="M.194.1A1.1,1.1,0,0,0-.9-1,1.1,1.1,0,0,0-2,.1a1.1,1.1,0,0,0,1.1,1.1A1.1,1.1,0,0,0,.194.1" transform="translate(614.669 544.882)" fill="#7ac142"/><path d="M.194.1A1.1,1.1,0,0,0-.9-1,1.1,1.1,0,0,0-2,.1a1.1,1.1,0,0,0,1.1,1.1A1.1,1.1,0,0,0,.194.1" transform="translate(620.155 544.882)" fill="#7ac142"/></g></svg>