<svg xmlns="http://www.w3.org/2000/svg" width="60" height="60" viewBox="0 0 60 60"><g transform="translate(-507 -1031)"><rect width="60" height="60" transform="translate(507 1031)" fill="none"/><path d="M.194.1A1.1,1.1,0,0,0-.9-1,1.1,1.1,0,0,0-2,.1a1.1,1.1,0,0,0,1.1,1.1A1.1,1.1,0,0,0,.194.1" transform="translate(537.873 1085.481)" fill="#7ac142"/><path d="M.194.1A1.1,1.1,0,0,0-.9-1,1.1,1.1,0,0,0-2,.1a1.1,1.1,0,0,0,1.1,1.1A1.1,1.1,0,0,0,.194.1" transform="translate(543.359 1085.481)" fill="#7ac142"/><path d="M.194.1A1.1,1.1,0,0,0-.9-1,1.1,1.1,0,0,0-2,.1a1.1,1.1,0,0,0,1.1,1.1A1.1,1.1,0,0,0,.194.1" transform="translate(548.844 1085.481)" fill="#7ac142"/><path d="M.194.1A1.1,1.1,0,0,0-.9-1,1.1,1.1,0,0,0-2,.1a1.1,1.1,0,0,0,1.1,1.1A1.1,1.1,0,0,0,.194.1" transform="translate(526.903 1085.481)" fill="#7ac142"/><path d="M.194.1A1.1,1.1,0,0,0-.9-1,1.1,1.1,0,0,0-2,.1a1.1,1.1,0,0,0,1.1,1.1A1.1,1.1,0,0,0,.194.1" transform="translate(532.388 1085.481)" fill="#7ac142"/><path d="M.142,0H20.356a2.557,2.557,0,0,1,2.226,2.166V19.306c0,.885-1.132,1.538-2.226,1.538H10.316l-6.288,6.08v-6.08H.142a1.432,1.432,0,0,1-1.6-1.538V2.166C-1.458,1.277-.716,0,.384,0Z" transform="translate(518.584 1051.569)" fill="none" stroke="#7ac142" stroke-linecap="round" stroke-linejoin="round" stroke-miterlimit="10" stroke-width="2"/><path d="M.777,1.165h.977L6.262,4.736V1.165H8.456V-12H-8v4.388" transform="translate(544.971 1054.792)" fill="none" stroke="#7ac142" stroke-linecap="round" stroke-linejoin="round" stroke-miterlimit="10" stroke-width="2"/><path d="M.194.1A1.1,1.1,0,0,0-.9-1,1.1,1.1,0,0,0-2,.1a1.1,1.1,0,0,0,1.1,1.1A1.1,1.1,0,0,0,.194.1" transform="translate(524.389 1056.416)" fill="#7ac142"/><path d="M.194.1A1.1,1.1,0,0,0-.9-1,1.1,1.1,0,0,0-2,.1a1.1,1.1,0,0,0,1.1,1.1A1.1,1.1,0,0,0,.194.1" transform="translate(530.389 1056.416)" fill="#7ac142"/><path d="M.194.1A1.1,1.1,0,0,0-.9-1,1.1,1.1,0,0,0-2,.1a1.1,1.1,0,0,0,1.1,1.1A1.1,1.1,0,0,0,.194.1" transform="translate(536.389 1056.416)" fill="#7ac142"/><path d="M.194.1A1.1,1.1,0,0,0-.9-1,1.1,1.1,0,0,0-2,.1a1.1,1.1,0,0,0,1.1,1.1A1.1,1.1,0,0,0,.194.1" transform="translate(524.389 1062.416)" fill="#7ac142"/><path d="M.194.1A1.1,1.1,0,0,0-.9-1,1.1,1.1,0,0,0-2,.1a1.1,1.1,0,0,0,1.1,1.1A1.1,1.1,0,0,0,.194.1" transform="translate(530.389 1062.416)" fill="#7ac142"/><path d="M.194.1A1.1,1.1,0,0,0-.9-1,1.1,1.1,0,0,0-2,.1a1.1,1.1,0,0,0,1.1,1.1A1.1,1.1,0,0,0,.194.1" transform="translate(536.389 1062.416)" fill="#7ac142"/><path d="M.194.1A1.1,1.1,0,0,0-.9-1,1.1,1.1,0,0,0-2,.1a1.1,1.1,0,0,0,1.1,1.1A1.1,1.1,0,0,0,.194.1" transform="translate(524.389 1068.416)" fill="#7ac142"/><path d="M.194.1A1.1,1.1,0,0,0-.9-1,1.1,1.1,0,0,0-2,.1a1.1,1.1,0,0,0,1.1,1.1A1.1,1.1,0,0,0,.194.1" transform="translate(530.389 1068.416)" fill="#7ac142"/><path d="M.194.1A1.1,1.1,0,0,0-.9-1,1.1,1.1,0,0,0-2,.1a1.1,1.1,0,0,0,1.1,1.1A1.1,1.1,0,0,0,.194.1" transform="translate(536.389 1068.416)" fill="#7ac142"/><path d="M357.194-513Z" transform="translate(183.941 1575.406)" fill="#7ac142"/><path d="M.194.1A1.1,1.1,0,0,0-.9-1,1.1,1.1,0,0,0-2,.1a1.1,1.1,0,0,0,1.1,1.1A1.1,1.1,0,0,0,.194.1" transform="translate(558.311 1044.648)" fill="#7ac142"/><path d="M.194.1A1.1,1.1,0,0,0-.9-1,1.1,1.1,0,0,0-2,.1a1.1,1.1,0,0,0,1.1,1.1A1.1,1.1,0,0,0,.194.1" transform="translate(558.311 1038.648)" fill="#7ac142"/><path d="M.194.1A1.1,1.1,0,0,0-.9-1,1.1,1.1,0,0,0-2,.1a1.1,1.1,0,0,0,1.1,1.1A1.1,1.1,0,0,0,.194.1" transform="translate(552.311 1038.648)" fill="#7ac142"/><path d="M.194.1A1.1,1.1,0,0,0-.9-1,1.1,1.1,0,0,0-2,.1a1.1,1.1,0,0,0,1.1,1.1A1.1,1.1,0,0,0,.194.1" transform="translate(546.311 1038.648)" fill="#7ac142"/></g></svg>