<svg xmlns="http://www.w3.org/2000/svg" width="60" height="60" viewBox="0 0 60 60"><g transform="translate(-859 -851)"><rect width="60" height="60" transform="translate(859 851)" fill="none"/><path d="M.194.1A1.1,1.1,0,0,0-.9-1,1.1,1.1,0,0,0-2,.1a1.1,1.1,0,0,0,1.1,1.1A1.1,1.1,0,0,0,.194.1" transform="translate(888.94 903.948)" fill="#7ac142"/><path d="M.194.1A1.1,1.1,0,0,0-.9-1,1.1,1.1,0,0,0-2,.1a1.1,1.1,0,0,0,1.1,1.1A1.1,1.1,0,0,0,.194.1" transform="translate(894.425 903.948)" fill="#7ac142"/><path d="M.194.1A1.1,1.1,0,0,0-.9-1,1.1,1.1,0,0,0-2,.1a1.1,1.1,0,0,0,1.1,1.1A1.1,1.1,0,0,0,.194.1" transform="translate(899.911 903.948)" fill="#7ac142"/><path d="M.194.1A1.1,1.1,0,0,0-.9-1,1.1,1.1,0,0,0-2,.1a1.1,1.1,0,0,0,1.1,1.1A1.1,1.1,0,0,0,.194.1" transform="translate(877.969 903.948)" fill="#7ac142"/><path d="M.194.1A1.1,1.1,0,0,0-.9-1,1.1,1.1,0,0,0-2,.1a1.1,1.1,0,0,0,1.1,1.1A1.1,1.1,0,0,0,.194.1" transform="translate(883.454 903.948)" fill="#7ac142"/><path d="M0,.6C4.118-3.667,10.161-5.668,17.186-6.132c4.411-.291,7.944.5,9.44,1.871" transform="translate(874.811 879.546)" fill="none" stroke="#7ac142" stroke-linecap="round" stroke-linejoin="round" stroke-miterlimit="10" stroke-width="2"/><path d="M0,0C3.994,0,8.645,4.263,8.645,13.6c0,8-3.134,13.563-7.126,13.563" transform="translate(885.294 864.272)" fill="none" stroke="#7ac142" stroke-linecap="round" stroke-linejoin="round" stroke-miterlimit="10" stroke-width="2"/><path d="M0,.868C9.8-.742,9.472-8.441,15.342-8.917,21.187-9.391,20.729-1.4,19.953.066" transform="translate(878.38 886.524)" fill="none" stroke="#7ac142" stroke-linecap="round" stroke-linejoin="round" stroke-miterlimit="10" stroke-width="2"/><path d="M1.806,0c.488.793-.444,2.715-2.958,2.82a16.453,16.453,0,0,1-7.183-1.2A9.932,9.932,0,0,0-18.606,4.168" transform="translate(894.537 867.093)" fill="none" stroke="#7ac142" stroke-linecap="round" stroke-linejoin="round" stroke-miterlimit="10" stroke-width="2"/><path d="M2.428,1.214A13.719,13.719,0,0,1-11.291,14.933,13.721,13.721,0,0,1-25.01,1.214,13.722,13.722,0,0,1-11.291-12.505,13.721,13.721,0,0,1,2.428,1.214Z" transform="translate(899.328 876.502)" fill="none" stroke="#7ac142" stroke-linecap="round" stroke-linejoin="round" stroke-miterlimit="10" stroke-width="2"/><path d="M2.428,2.563A20.854,20.854,0,0,0-1.9-20.161a20.854,20.854,0,0,0-23.116-4.551" transform="translate(904.812 883.274)" fill="none" stroke="#7ac142" stroke-linecap="round" stroke-linejoin="round" stroke-miterlimit="10" stroke-width="2"/><path d="M.192,0A20.854,20.854,0,0,0,28.385,27.822" transform="translate(869.168 868.446)" fill="none" stroke="#7ac142" stroke-linecap="round" stroke-linejoin="round" stroke-miterlimit="10" stroke-width="2"/><path d="M0,.147,5.177-1.514,7.471,3.013" transform="translate(863.927 869.812)" fill="none" stroke="#7ac142" stroke-linecap="round" stroke-linejoin="round" stroke-miterlimit="10" stroke-width="2"/><path d="M.661.254-4.516,1.915-6.81-2.612" transform="translate(911.706 884.221)" fill="none" stroke="#7ac142" stroke-linecap="round" stroke-linejoin="round" stroke-miterlimit="10" stroke-width="2"/></g></svg>