<svg xmlns="http://www.w3.org/2000/svg" width="60" height="60" viewBox="0 0 60 60"><g transform="translate(-155 -1031)"><rect width="60" height="60" transform="translate(155 1031)" fill="none"/><path d="M.194.1A1.1,1.1,0,0,0-.9-1,1.1,1.1,0,0,0-2,.1a1.1,1.1,0,0,0,1.1,1.1A1.1,1.1,0,0,0,.194.1" transform="translate(186.807 1085.481)" fill="#7ac142"/><path d="M.194.1A1.1,1.1,0,0,0-.9-1,1.1,1.1,0,0,0-2,.1a1.1,1.1,0,0,0,1.1,1.1A1.1,1.1,0,0,0,.194.1" transform="translate(192.293 1085.481)" fill="#7ac142"/><path d="M.194.1A1.1,1.1,0,0,0-.9-1,1.1,1.1,0,0,0-2,.1a1.1,1.1,0,0,0,1.1,1.1A1.1,1.1,0,0,0,.194.1" transform="translate(197.778 1085.481)" fill="#7ac142"/><path d="M.194.1A1.1,1.1,0,0,0-.9-1,1.1,1.1,0,0,0-2,.1a1.1,1.1,0,0,0,1.1,1.1A1.1,1.1,0,0,0,.194.1" transform="translate(175.836 1085.481)" fill="#7ac142"/><path d="M.194.1A1.1,1.1,0,0,0-.9-1,1.1,1.1,0,0,0-2,.1a1.1,1.1,0,0,0,1.1,1.1A1.1,1.1,0,0,0,.194.1" transform="translate(165.836 1051.481)" fill="#7ac142"/><path d="M.194.1A1.1,1.1,0,0,0-.9-1,1.1,1.1,0,0,0-2,.1a1.1,1.1,0,0,0,1.1,1.1A1.1,1.1,0,0,0,.194.1" transform="translate(165.836 1045.481)" fill="#7ac142"/><path d="M.194.1A1.1,1.1,0,0,0-.9-1,1.1,1.1,0,0,0-2,.1a1.1,1.1,0,0,0,1.1,1.1A1.1,1.1,0,0,0,.194.1" transform="translate(168.836 1039.481)" fill="#7ac142"/><path d="M.194.1A1.1,1.1,0,0,0-.9-1,1.1,1.1,0,0,0-2,.1a1.1,1.1,0,0,0,1.1,1.1A1.1,1.1,0,0,0,.194.1" transform="translate(174.836 1036.481)" fill="#7ac142"/><path d="M.194.1A1.1,1.1,0,0,0-.9-1,1.1,1.1,0,0,0-2,.1a1.1,1.1,0,0,0,1.1,1.1A1.1,1.1,0,0,0,.194.1" transform="translate(180.836 1036.481)" fill="#7ac142"/><path d="M.194.1A1.1,1.1,0,0,0-.9-1,1.1,1.1,0,0,0-2,.1a1.1,1.1,0,0,0,1.1,1.1A1.1,1.1,0,0,0,.194.1" transform="translate(181.322 1085.481)" fill="#7ac142"/><path d="M0,1.285s.27-9.04.27-9.041V-9.947c0-1.685.343-3.285,2-3.285s2.391,1.369,2.391,3.051V-4.7c0-.417.736-.677,1.4-.677A2.367,2.367,0,0,1,8.378-2.962,2.913,2.913,0,0,1,10.6-3.62a2.506,2.506,0,0,1,1.736,2.61V.524c0-.416.761-.768,1.422-.768,1.425,0,1.869.893,1.869,2.34V8.717l-3.473,8.358" transform="translate(180.149 1062.8)" fill="none" stroke="#7ac142" stroke-linecap="round" stroke-linejoin="round" stroke-miterlimit="10" stroke-width="2"/><path d="M.668,1.309C.332,1.454-5.06-2.139-5.06-2.139s-1.412-6.382-1.778-8.544a2.3,2.3,0,0,1,1.609-2.761c.829-.24,1.522.645,3.618,3.462" transform="translate(181.744 1074.05)" fill="none" stroke="#7ac142" stroke-linecap="round" stroke-linejoin="round" stroke-miterlimit="10" stroke-width="2"/><path d="M0,0V8.777" transform="translate(184.807 1057.054)" fill="none" stroke="#7ac142" stroke-linecap="round" stroke-miterlimit="10" stroke-width="2"/><path d="M0,0V4.388" transform="translate(188.099 1060.346)" fill="none" stroke="#7ac142" stroke-linecap="round" stroke-miterlimit="10" stroke-width="2"/><path d="M0,0V4.388" transform="translate(192.487 1062.54)" fill="none" stroke="#7ac142" stroke-linecap="round" stroke-miterlimit="10" stroke-width="2"/><path d="M.485,1.068A5.5,5.5,0,0,1-5-4.418v-1.1A5.5,5.5,0,0,1,.485-11H18.039a5.5,5.5,0,0,1,5.485,5.485v1.1a5.5,5.5,0,0,1-5.485,5.485H12.553" transform="translate(176.642 1053.792)" fill="none" stroke="#7ac142" stroke-miterlimit="10" stroke-width="2"/></g></svg>