<svg xmlns="http://www.w3.org/2000/svg" width="60" height="60" viewBox="0 0 60 60"><g transform="translate(-331 -1031)"><rect width="60" height="60" transform="translate(331 1031)" fill="none"/><path d="M.194.1A1.1,1.1,0,0,0-.9-1,1.1,1.1,0,0,0-2,.1a1.1,1.1,0,0,0,1.1,1.1A1.1,1.1,0,0,0,.194.1" transform="translate(362.34 1085.481)" fill="#7ac142"/><path d="M.194.1A1.1,1.1,0,0,0-.9-1,1.1,1.1,0,0,0-2,.1a1.1,1.1,0,0,0,1.1,1.1A1.1,1.1,0,0,0,.194.1" transform="translate(367.826 1085.481)" fill="#7ac142"/><path d="M.194.1A1.1,1.1,0,0,0-.9-1,1.1,1.1,0,0,0-2,.1a1.1,1.1,0,0,0,1.1,1.1A1.1,1.1,0,0,0,.194.1" transform="translate(373.311 1085.481)" fill="#7ac142"/><path d="M.194.1A1.1,1.1,0,0,0-.9-1,1.1,1.1,0,0,0-2,.1a1.1,1.1,0,0,0,1.1,1.1A1.1,1.1,0,0,0,.194.1" transform="translate(351.37 1085.481)" fill="#7ac142"/><path d="M.194.1A1.1,1.1,0,0,0-.9-1,1.1,1.1,0,0,0-2,.1a1.1,1.1,0,0,0,1.1,1.1A1.1,1.1,0,0,0,.194.1" transform="translate(356.855 1085.481)" fill="#7ac142"/><path d="M.97.091A7.272,7.272,0,0,0-.069-.426,7.259,7.259,0,0,0-2.745-.939a7.245,7.245,0,0,0-2.675.513,7.172,7.172,0,0,0-1.04.517A7.272,7.272,0,0,0-8.684,2.15,7.137,7.137,0,0,0-9.993,6.271a7.239,7.239,0,0,0,7.248,7.21A7.24,7.24,0,0,0,4.5,6.271,7.145,7.145,0,0,0,3.2,2.15,7.276,7.276,0,0,0,.97.091Z" transform="translate(367.444 1051.767)" fill="none" stroke="#7ac142" stroke-miterlimit="10" stroke-width="2"/><path d="M210.689-172.864H169V-197h41.689Z" transform="translate(174.884 1243.084)" fill="none" stroke="#7ac142" stroke-linecap="round" stroke-linejoin="round" stroke-miterlimit="10" stroke-width="2"/><path d="M3.592,1.845V5.136H-37V-19h3.291" transform="translate(374.302 1071.666)" fill="none" stroke="#7ac142" stroke-linecap="round" stroke-linejoin="round" stroke-miterlimit="10" stroke-width="2"/><path d="M.534,0A6.189,6.189,0,0,1-5.5,6.034" transform="translate(349.933 1046.084)" fill="none" stroke="#7ac142" stroke-linecap="round" stroke-linejoin="round" stroke-miterlimit="10" stroke-width="2"/><path d="M0,0A6.189,6.189,0,0,1,6.034,6.034" transform="translate(344.433 1063.637)" fill="none" stroke="#7ac142" stroke-linecap="round" stroke-linejoin="round" stroke-miterlimit="10" stroke-width="2"/><path d="M0,.534A6.189,6.189,0,0,1,6.034-5.5" transform="translate(378.443 1069.136)" fill="none" stroke="#7ac142" stroke-linecap="round" stroke-linejoin="round" stroke-miterlimit="10" stroke-width="2"/><path d="M.534.534A6.189,6.189,0,0,1-5.5-5.5" transform="translate(383.941 1051.583)" fill="none" stroke="#7ac142" stroke-linecap="round" stroke-linejoin="round" stroke-miterlimit="10" stroke-width="2"/></g></svg>