<svg xmlns="http://www.w3.org/2000/svg" width="60" height="60" viewBox="0 0 60 60"><g transform="translate(-155 -761)"><rect width="60" height="60" transform="translate(155 761)" fill="none"/><path d="M.194.1A1.1,1.1,0,0,0-.9-1,1.1,1.1,0,0,0-2,.1a1.1,1.1,0,0,0,1.1,1.1A1.1,1.1,0,0,0,.194.1" transform="translate(186.807 816.182)" fill="#7ac142"/><path d="M.194.1A1.1,1.1,0,0,0-.9-1,1.1,1.1,0,0,0-2,.1a1.1,1.1,0,0,0,1.1,1.1A1.1,1.1,0,0,0,.194.1" transform="translate(192.293 816.182)" fill="#7ac142"/><path d="M.194.1A1.1,1.1,0,0,0-.9-1,1.1,1.1,0,0,0-2,.1a1.1,1.1,0,0,0,1.1,1.1A1.1,1.1,0,0,0,.194.1" transform="translate(197.778 816.182)" fill="#7ac142"/><path d="M.194.1A1.1,1.1,0,0,0-.9-1,1.1,1.1,0,0,0-2,.1a1.1,1.1,0,0,0,1.1,1.1A1.1,1.1,0,0,0,.194.1" transform="translate(175.836 816.182)" fill="#7ac142"/><path d="M.194.1A1.1,1.1,0,0,0-.9-1,1.1,1.1,0,0,0-2,.1a1.1,1.1,0,0,0,1.1,1.1A1.1,1.1,0,0,0,.194.1" transform="translate(181.322 816.182)" fill="#7ac142"/><path d="M0,0H26.33" transform="translate(165.06 809.696)" fill="none" stroke="#7ac142" stroke-linecap="round" stroke-linejoin="round" stroke-miterlimit="10" stroke-width="2"/><path d="M1.707.733-6.521-6.714l-11.067-.835L-9.359-.1Z" transform="translate(205.097 779.104)" fill="none" stroke="#7ac142" stroke-linecap="round" stroke-linejoin="round" stroke-miterlimit="10" stroke-width="2"/><path d="M.134,0-1.383,3.538,4.354,8.731l7.68.58L13.55,5.773" transform="translate(189.864 773.81)" fill="none" stroke="#7ac142" stroke-linecap="round" stroke-linejoin="round" stroke-miterlimit="10" stroke-width="2"/><path d="M0,0H12.068" transform="translate(194.681 809.696)" fill="none" stroke="#7ac142" stroke-linecap="round" stroke-linejoin="round" stroke-miterlimit="10" stroke-width="2"/><path d="M.244,0-2.514,4.388" transform="translate(201.583 783.366)" fill="none" stroke="#7ac142" stroke-linecap="round" stroke-linejoin="round" stroke-miterlimit="10" stroke-width="2"/><path d="M0,0V7.914" transform="translate(182.613 800.92)" fill="none" stroke="#7ac142" stroke-linecap="round" stroke-linejoin="round" stroke-miterlimit="10" stroke-width="2"/><path d="M0,0V7.914" transform="translate(191.39 800.92)" fill="none" stroke="#7ac142" stroke-linecap="round" stroke-linejoin="round" stroke-miterlimit="10" stroke-width="2"/><path d="M.227,1.1c.088.217.2.418.439.411A.424.424,0,0,0,1.08,1.08L.759-10.087a1.414,1.414,0,0,1,.3-.924,1,1,0,0,1,.789-.348c.223,0,.9,0,1.044,1.31l.746,7.79a.429.429,0,0,0,.447.384A.427.427,0,0,0,4.5-2.3a1.26,1.26,0,0,1,.374-.9c.242-.24.256-.373.6-.373.707,0,.974.569.974,1.27v.847c0,.234.5.423.735.423s.581-.19.581-.423A1.347,1.347,0,0,1,9.114-2.725a1.363,1.363,0,0,1,.945.373c.242.239.024.558.024.9L9.732-.187v0c0,.234.563.422.8.422s.61-.189.61-.422a.975.975,0,0,1,.353-.594.97.97,0,0,1,.64-.255.928.928,0,0,1,.878.847l.014,5.506A8.244,8.244,0,0,1,12.22,9.07a10.872,10.872,0,0,0-.827,2.607l-9.537,0A27.684,27.684,0,0,0-1.4,4.28q-.275-.466-.547-.909A2.522,2.522,0,0,1-2.078.925,1.282,1.282,0,0,1-.909.245S-.217,0,.227,1.1Z" transform="translate(180.561 789.788)" fill="none" stroke="#7ac142" stroke-linecap="round" stroke-linejoin="round" stroke-miterlimit="10" stroke-width="2"/></g></svg>