<svg xmlns="http://www.w3.org/2000/svg" width="60" height="60" viewBox="0 0 60 60"><g transform="translate(-155 -491)"><rect width="60" height="60" transform="translate(155 491)" fill="none"/><path d="M0,3.689H31.815V-28.126H23.039V-38H0Z" transform="translate(169.448 534.708)" fill="none" stroke="#7ac142" stroke-linecap="round" stroke-linejoin="round" stroke-width="2"/><path d="M.777.874-8-9" transform="translate(200.487 505.708)" fill="none" stroke="#7ac142" stroke-linecap="round" stroke-linejoin="round" stroke-width="2"/><path d="M6.084-4.518,9.252-.378c.234.288.324.378.576.378H11.5c.27,0,.378-.09.18-.378L7.236-6.228l4.482-5.994c.216-.288.072-.378-.18-.378H9.846c-.234,0-.342.09-.558.378l-3.2,4.266L2.862-12.222c-.2-.288-.306-.378-.558-.378H.612c-.252,0-.378.09-.18.378L4.914-6.228.486-.378C.288-.09.414,0,.666,0H2.34c.27,0,.36-.09.576-.378Z" transform="translate(179.269 526.873)" fill="#7ac142"/><path d="M.194.1A1.1,1.1,0,0,0-.9-1,1.1,1.1,0,0,0-2,.1a1.1,1.1,0,0,0,1.1,1.1A1.1,1.1,0,0,0,.194.1" transform="translate(186.807 544.882)" fill="#7ac142"/><path d="M.194.1A1.1,1.1,0,0,0-.9-1,1.1,1.1,0,0,0-2,.1a1.1,1.1,0,0,0,1.1,1.1A1.1,1.1,0,0,0,.194.1" transform="translate(192.293 544.882)" fill="#7ac142"/><path d="M.194.1A1.1,1.1,0,0,0-.9-1,1.1,1.1,0,0,0-2,.1a1.1,1.1,0,0,0,1.1,1.1A1.1,1.1,0,0,0,.194.1" transform="translate(197.778 544.882)" fill="#7ac142"/><path d="M.194.1A1.1,1.1,0,0,0-.9-1,1.1,1.1,0,0,0-2,.1a1.1,1.1,0,0,0,1.1,1.1A1.1,1.1,0,0,0,.194.1" transform="translate(175.836 544.882)" fill="#7ac142"/><path d="M.194.1A1.1,1.1,0,0,0-.9-1,1.1,1.1,0,0,0-2,.1a1.1,1.1,0,0,0,1.1,1.1A1.1,1.1,0,0,0,.194.1" transform="translate(181.322 544.882)" fill="#7ac142"/></g></svg>