<svg xmlns="http://www.w3.org/2000/svg" width="60" height="60" viewBox="0 0 60 60"><g transform="translate(-243 -401)"><rect width="60" height="60" transform="translate(243 401)" fill="none"/><path d="M7.237,13.957H-8.213A6,6,0,0,1-14,7.982v-28.7C-14-23.874-11.37-27-8.213-27h28.7c3.157,0,6.471,3.126,6.471,6.283v28.7c0,3.157-2.928,5.975-5.61,5.975H14.822" transform="translate(266.644 436.856)" fill="none" stroke="#7ac142" stroke-linecap="round" stroke-linejoin="round" stroke-width="2"/><path d="M4.135,11.889V-3.28H7.853s.628-6.068.833-6.068H4.135v-5.082c0-.563,2.3-.986,3.031-.986h1.52V-23H5.84c-7.1,0-9.29,4-9.29,4.819v8.833H-8V-3.28h4.551V11.889" transform="translate(277.33 438.923)" fill="none" stroke="#7ac142" stroke-linecap="round" stroke-linejoin="round" stroke-width="2"/><path d="M.194.1A1.1,1.1,0,0,0-.9-1,1.1,1.1,0,0,0-2,.1a1.1,1.1,0,0,0,1.1,1.1A1.1,1.1,0,0,0,.194.1" transform="translate(274.574 456.436)" fill="#7ac142"/><path d="M.194.1A1.1,1.1,0,0,0-.9-1,1.1,1.1,0,0,0-2,.1a1.1,1.1,0,0,0,1.1,1.1A1.1,1.1,0,0,0,.194.1" transform="translate(278.962 456.436)" fill="#7ac142"/><path d="M.194.1A1.1,1.1,0,0,0-.9-1,1.1,1.1,0,0,0-2,.1a1.1,1.1,0,0,0,1.1,1.1A1.1,1.1,0,0,0,.194.1" transform="translate(283.35 456.436)" fill="#7ac142"/><path d="M.194.1A1.1,1.1,0,0,0-.9-1,1.1,1.1,0,0,0-2,.1a1.1,1.1,0,0,0,1.1,1.1A1.1,1.1,0,0,0,.194.1" transform="translate(265.797 456.436)" fill="#7ac142"/><path d="M.194.1A1.1,1.1,0,0,0-.9-1,1.1,1.1,0,0,0-2,.1a1.1,1.1,0,0,0,1.1,1.1A1.1,1.1,0,0,0,.194.1" transform="translate(270.185 456.436)" fill="#7ac142"/></g></svg>