<svg xmlns="http://www.w3.org/2000/svg" width="60" height="60" viewBox="0 0 60 60"><g transform="translate(-507 -581)"><rect width="60" height="60" transform="translate(507 581)" fill="none"/><path d="M.777,1.165h.975l4.51,3.574V1.165H8.456V-12H-8v3.291" transform="translate(547.165 603.96)" fill="none" stroke="#7ac142" stroke-linecap="round" stroke-linejoin="round" stroke-width="2"/><path d="M0,1.8,19.11-18.581l5.1,5.1L5.1,6.9" transform="translate(519.614 617.441)" fill="none" stroke="#7ac142" stroke-linecap="round" stroke-linejoin="round" stroke-width="2"/><path d="M.451.451l-5.1-5.1" transform="translate(539.548 607.328)" fill="none" stroke="#7ac142" stroke-linecap="round" stroke-linejoin="round" stroke-width="2"/><path d="M.226,0-2.323,7.644,5.321,5.1Z" transform="translate(519.389 619.245)" fill="none" stroke="#7ac142" stroke-linecap="round" stroke-linejoin="round" stroke-width="2"/><path d="M.194.1A1.1,1.1,0,0,0-.9-1,1.1,1.1,0,0,0-2,.1a1.1,1.1,0,0,0,1.1,1.1A1.1,1.1,0,0,0,.194.1" transform="translate(537.873 634.649)" fill="#7ac142"/><path d="M.194.1A1.1,1.1,0,0,0-.9-1,1.1,1.1,0,0,0-2,.1a1.1,1.1,0,0,0,1.1,1.1A1.1,1.1,0,0,0,.194.1" transform="translate(543.359 634.649)" fill="#7ac142"/><path d="M.194.1A1.1,1.1,0,0,0-.9-1,1.1,1.1,0,0,0-2,.1a1.1,1.1,0,0,0,1.1,1.1A1.1,1.1,0,0,0,.194.1" transform="translate(548.844 634.649)" fill="#7ac142"/><path d="M.194.1A1.1,1.1,0,0,0-.9-1,1.1,1.1,0,0,0-2,.1a1.1,1.1,0,0,0,1.1,1.1A1.1,1.1,0,0,0,.194.1" transform="translate(526.903 634.649)" fill="#7ac142"/><path d="M.194.1A1.1,1.1,0,0,0-.9-1,1.1,1.1,0,0,0-2,.1a1.1,1.1,0,0,0,1.1,1.1A1.1,1.1,0,0,0,.194.1" transform="translate(532.388 634.649)" fill="#7ac142"/><path d="M.194.1A1.1,1.1,0,0,0-.9-1,1.1,1.1,0,0,0-2,.1a1.1,1.1,0,0,0,1.1,1.1A1.1,1.1,0,0,0,.194.1" transform="translate(560.311 593.648)" fill="#7ac142"/><path d="M.194.1A1.1,1.1,0,0,0-.9-1,1.1,1.1,0,0,0-2,.1a1.1,1.1,0,0,0,1.1,1.1A1.1,1.1,0,0,0,.194.1" transform="translate(560.311 587.648)" fill="#7ac142"/><path d="M.194.1A1.1,1.1,0,0,0-.9-1,1.1,1.1,0,0,0-2,.1a1.1,1.1,0,0,0,1.1,1.1A1.1,1.1,0,0,0,.194.1" transform="translate(554.311 587.648)" fill="#7ac142"/><path d="M.194.1A1.1,1.1,0,0,0-.9-1,1.1,1.1,0,0,0-2,.1a1.1,1.1,0,0,0,1.1,1.1A1.1,1.1,0,0,0,.194.1" transform="translate(548.311 587.648)" fill="#7ac142"/></g></svg>