<svg xmlns="http://www.w3.org/2000/svg" width="60" height="60" viewBox="0 0 60 60"><g transform="translate(-595 -581)"><rect width="60" height="60" transform="translate(595 581)" fill="none"/><path d="M1.187,1.321c0,8.247-3.645,14.932-6.267,14.932s-7.143-6.686-7.143-14.932S-7.7-13.611-5.08-13.611,1.187-6.926,1.187,1.321Z" transform="translate(621.356 611.179)" fill="none" stroke="#7ac142" stroke-linecap="round" stroke-linejoin="round" stroke-width="2"/><path d="M1.391.449c7.117,4.165,11.6,8.63,10.277,10.893S3.5,12.06-3.617,7.9-15.433-1.475-14.106-3.738-5.728-3.713,1.391.449Z" transform="translate(617.495 608.698)" fill="none" stroke="#7ac142" stroke-linecap="round" stroke-linejoin="round" stroke-width="2"/><path d="M.948.4C-6.169,4.561-10.864,9.771-9.541,12.035s8.167.719,15.285-3.442S17.561-.781,16.235-3.045,8.066-3.765.948.4Z" transform="translate(612.93 608.005)" fill="none" stroke="#7ac142" stroke-linecap="round" stroke-linejoin="round" stroke-width="2"/><path d="M0,.485V-5H16.456V7.068H14.262v3.9l-4.173-3.9H7.68" transform="translate(626.931 596.96)" fill="none" stroke="#7ac142" stroke-linecap="round" stroke-linejoin="round" stroke-width="2"/><path d="M.216.108A1.218,1.218,0,0,0-1-1.111,1.219,1.219,0,0,0-2.223.108,1.219,1.219,0,0,0-1,1.327,1.218,1.218,0,0,0,.216.108" transform="translate(624.766 599.288)" fill="#7ac142"/><path d="M.216.108A1.218,1.218,0,0,0-1-1.111,1.219,1.219,0,0,0-2.223.108,1.219,1.219,0,0,0-1,1.327,1.219,1.219,0,0,0,.216.108" transform="translate(624.766 624.886)" fill="#7ac142"/><path d="M.216.108A1.218,1.218,0,0,0-1-1.111,1.218,1.218,0,0,0-2.222.108,1.218,1.218,0,0,0-1,1.327,1.218,1.218,0,0,0,.216.108" transform="translate(610.137 599.288)" fill="#7ac142"/><path d="M.216.108A1.218,1.218,0,0,0-1-1.111,1.218,1.218,0,0,0-2.222.108,1.219,1.219,0,0,0-1,1.327,1.219,1.219,0,0,0,.216.108" transform="translate(610.137 624.886)" fill="#7ac142"/><path d="M.216.108A1.218,1.218,0,0,0-1-1.111,1.218,1.218,0,0,0-2.222.108,1.218,1.218,0,0,0-1,1.327,1.218,1.218,0,0,0,.216.108" transform="translate(632.079 612.696)" fill="#7ac142"/><path d="M.216.108A1.218,1.218,0,0,0-1-1.111,1.219,1.219,0,0,0-2.223.108,1.219,1.219,0,0,0-1,1.327,1.218,1.218,0,0,0,.216.108" transform="translate(602.824 612.696)" fill="#7ac142"/><path d="M.194.1A1.1,1.1,0,0,0-.9-1,1.1,1.1,0,0,0-2,.1a1.1,1.1,0,0,0,1.1,1.1A1.1,1.1,0,0,0,.194.1" transform="translate(625.64 634.649)" fill="#7ac142"/><path d="M.194.1A1.1,1.1,0,0,0-.9-1,1.1,1.1,0,0,0-2,.1a1.1,1.1,0,0,0,1.1,1.1A1.1,1.1,0,0,0,.194.1" transform="translate(631.125 634.649)" fill="#7ac142"/><path d="M.194.1A1.1,1.1,0,0,0-.9-1,1.1,1.1,0,0,0-2,.1a1.1,1.1,0,0,0,1.1,1.1A1.1,1.1,0,0,0,.194.1" transform="translate(636.611 634.649)" fill="#7ac142"/><path d="M.194.1A1.1,1.1,0,0,0-.9-1,1.1,1.1,0,0,0-2,.1a1.1,1.1,0,0,0,1.1,1.1A1.1,1.1,0,0,0,.194.1" transform="translate(614.669 634.649)" fill="#7ac142"/><path d="M.194.1A1.1,1.1,0,0,0-.9-1,1.1,1.1,0,0,0-2,.1a1.1,1.1,0,0,0,1.1,1.1A1.1,1.1,0,0,0,.194.1" transform="translate(620.155 634.649)" fill="#7ac142"/><path d="M.194.1A1.1,1.1,0,0,0-.9-1,1.1,1.1,0,0,0-2,.1a1.1,1.1,0,0,0,1.1,1.1A1.1,1.1,0,0,0,.194.1" transform="translate(648.311 593.648)" fill="#7ac142"/><path d="M.194.1A1.1,1.1,0,0,0-.9-1,1.1,1.1,0,0,0-2,.1a1.1,1.1,0,0,0,1.1,1.1A1.1,1.1,0,0,0,.194.1" transform="translate(648.311 587.648)" fill="#7ac142"/><path d="M.194.1A1.1,1.1,0,0,0-.9-1,1.1,1.1,0,0,0-2,.1a1.1,1.1,0,0,0,1.1,1.1A1.1,1.1,0,0,0,.194.1" transform="translate(642.311 587.648)" fill="#7ac142"/><path d="M.194.1A1.1,1.1,0,0,0-.9-1,1.1,1.1,0,0,0-2,.1a1.1,1.1,0,0,0,1.1,1.1A1.1,1.1,0,0,0,.194.1" transform="translate(636.311 587.648)" fill="#7ac142"/></g></svg>