<svg xmlns="http://www.w3.org/2000/svg" width="60" height="60" viewBox="0 0 60 60"><g transform="translate(-243 -671)"><rect width="60" height="60" transform="translate(243 671)" fill="none"/><path d="M1.07,1.384,1.3,1.5A6.873,6.873,0,0,1,4.133,4.734c1.285,2.78.27,7.124.23,7.305a.947.947,0,0,0,.61,1.061,1.627,1.627,0,0,0,1.481-.089c.127-.084,3.188-2.094,4.146-4.85a13.231,13.231,0,0,0,.172-5.505A17.033,17.033,0,0,1,10.64-.674a12.807,12.807,0,0,1,.892-2.536c1.31-3.142,3.289-7.884-.914-9.968A9.606,9.606,0,0,0,6.3-14.253a11.66,11.66,0,0,0-3.81.748,5.675,5.675,0,0,1-1.415.365A5.6,5.6,0,0,1-.343-13.5a11.71,11.71,0,0,0-3.811-.748,9.6,9.6,0,0,0-4.321,1.074c-4.205,2.084-2.228,6.826-.918,9.964A12.673,12.673,0,0,1-8.5-.674a16.777,16.777,0,0,1-.138,3.329A13.311,13.311,0,0,0-8.46,8.161c.954,2.756,4.016,4.826,4.149,4.911a1.446,1.446,0,0,0,.753.291h.072A1.225,1.225,0,0,0-2.193,12.29a1.111,1.111,0,0,0-.045-.3c-.173-.787-.93-4.7.247-7.242A6.874,6.874,0,0,1,.84,1.5Z" transform="translate(264.309 706.664)" fill="none" stroke="#7ac142" stroke-linecap="round" stroke-linejoin="round" stroke-width="2"/><path d="M.777,1.165h.977L6.262,4.736V1.165H8.456V-12H-8v5.485" transform="translate(281.671 694.726)" fill="none" stroke="#7ac142" stroke-linecap="round" stroke-linejoin="round" stroke-miterlimit="10" stroke-width="2"/><path d="M.194.1A1.1,1.1,0,0,0-.9-1,1.1,1.1,0,0,0-2,.1a1.1,1.1,0,0,0,1.1,1.1A1.1,1.1,0,0,0,.194.1" transform="translate(274.574 725.415)" fill="#7ac142"/><path d="M.194.1A1.1,1.1,0,0,0-.9-1,1.1,1.1,0,0,0-2,.1a1.1,1.1,0,0,0,1.1,1.1A1.1,1.1,0,0,0,.194.1" transform="translate(280.059 725.415)" fill="#7ac142"/><path d="M.194.1A1.1,1.1,0,0,0-.9-1,1.1,1.1,0,0,0-2,.1a1.1,1.1,0,0,0,1.1,1.1A1.1,1.1,0,0,0,.194.1" transform="translate(285.545 725.415)" fill="#7ac142"/><path d="M.194.1A1.1,1.1,0,0,0-.9-1,1.1,1.1,0,0,0-2,.1a1.1,1.1,0,0,0,1.1,1.1A1.1,1.1,0,0,0,.194.1" transform="translate(263.603 725.415)" fill="#7ac142"/><path d="M.194.1A1.1,1.1,0,0,0-.9-1,1.1,1.1,0,0,0-2,.1a1.1,1.1,0,0,0,1.1,1.1A1.1,1.1,0,0,0,.194.1" transform="translate(269.088 725.415)" fill="#7ac142"/><path d="M.194.1A1.1,1.1,0,0,0-.9-1,1.1,1.1,0,0,0-2,.1a1.1,1.1,0,0,0,1.1,1.1A1.1,1.1,0,0,0,.194.1" transform="translate(295.311 684.648)" fill="#7ac142"/><path d="M.194.1A1.1,1.1,0,0,0-.9-1,1.1,1.1,0,0,0-2,.1a1.1,1.1,0,0,0,1.1,1.1A1.1,1.1,0,0,0,.194.1" transform="translate(295.311 678.648)" fill="#7ac142"/><path d="M.194.1A1.1,1.1,0,0,0-.9-1,1.1,1.1,0,0,0-2,.1a1.1,1.1,0,0,0,1.1,1.1A1.1,1.1,0,0,0,.194.1" transform="translate(289.311 678.648)" fill="#7ac142"/><path d="M.194.1A1.1,1.1,0,0,0-.9-1,1.1,1.1,0,0,0-2,.1a1.1,1.1,0,0,0,1.1,1.1A1.1,1.1,0,0,0,.194.1" transform="translate(283.311 678.648)" fill="#7ac142"/></g></svg>