<svg xmlns="http://www.w3.org/2000/svg" width="60" height="60" viewBox="0 0 60 60"><g transform="translate(-419 -941)"><rect width="60" height="60" transform="translate(419 941)" fill="none"/><path d="M.194.1A1.1,1.1,0,0,0-.9-1,1.1,1.1,0,0,0-2,.1a1.1,1.1,0,0,0,1.1,1.1A1.1,1.1,0,0,0,.194.1" transform="translate(450.107 995.715)" fill="#7ac142"/><path d="M.194.1A1.1,1.1,0,0,0-.9-1,1.1,1.1,0,0,0-2,.1a1.1,1.1,0,0,0,1.1,1.1A1.1,1.1,0,0,0,.194.1" transform="translate(455.592 995.715)" fill="#7ac142"/><path d="M.194.1A1.1,1.1,0,0,0-.9-1,1.1,1.1,0,0,0-2,.1a1.1,1.1,0,0,0,1.1,1.1A1.1,1.1,0,0,0,.194.1" transform="translate(461.078 995.715)" fill="#7ac142"/><path d="M.194.1A1.1,1.1,0,0,0-.9-1,1.1,1.1,0,0,0-2,.1a1.1,1.1,0,0,0,1.1,1.1A1.1,1.1,0,0,0,.194.1" transform="translate(439.136 995.715)" fill="#7ac142"/><path d="M.194.1A1.1,1.1,0,0,0-.9-1,1.1,1.1,0,0,0-2,.1a1.1,1.1,0,0,0,1.1,1.1A1.1,1.1,0,0,0,.194.1" transform="translate(441.136 975.715)" fill="#7ac142"/><path d="M.194.1A1.1,1.1,0,0,0-.9-1,1.1,1.1,0,0,0-2,.1a1.1,1.1,0,0,0,1.1,1.1A1.1,1.1,0,0,0,.194.1" transform="translate(441.136 981.715)" fill="#7ac142"/><path d="M.194.1A1.1,1.1,0,0,0-.9-1,1.1,1.1,0,0,0-2,.1a1.1,1.1,0,0,0,1.1,1.1A1.1,1.1,0,0,0,.194.1" transform="translate(444.622 995.715)" fill="#7ac142"/><path d="M0,1.554S3.82-1.759,3.694-3.738c-.092-1.438-1.747-4.1-1.747-7.1,0-4.1.51-5.171,3.623-5.171h5.743" transform="translate(430.212 985.489)" fill="none" stroke="#7ac142" stroke-linecap="round" stroke-linejoin="round" stroke-miterlimit="10" stroke-width="2"/><path d="M1,.5A5.628,5.628,0,0,1-4.637,6.128,5.631,5.631,0,0,1-10.267.5a5.632,5.632,0,0,1,5.63-5.635A5.629,5.629,0,0,1,1,.5Z" transform="translate(460 959.253)" fill="none" stroke="#7ac142" stroke-linecap="round" stroke-linejoin="round" stroke-miterlimit="10" stroke-width="2"/><path d="M1,.5A5.629,5.629,0,0,1-4.637,6.128,5.631,5.631,0,0,1-10.268.5,5.632,5.632,0,0,1-4.637-5.136,5.63,5.63,0,0,1,1,.5Z" transform="translate(445.694 959.253)" fill="none" stroke="#7ac142" stroke-linecap="round" stroke-linejoin="round" stroke-miterlimit="10" stroke-width="2"/><path d="M.017.328A2.1,2.1,0,0,1-.171-.531c0-1.575,1.808-2.848,4.035-2.848S7.9-2.106,7.9-.531A2.141,2.141,0,0,1,7.625.51" transform="translate(437.434 954.129)" fill="none" stroke="#7ac142" stroke-linecap="round" stroke-linejoin="round" stroke-miterlimit="10" stroke-width="2"/><path d="M0,0H16.308a5.669,5.669,0,0,1,5.634,5.674V17.553" transform="translate(444.816 969.482)" fill="none" stroke="#7ac142" stroke-linecap="round" stroke-linejoin="round" stroke-miterlimit="10" stroke-width="2"/><path d="M.991,1.554S-2.887-1.758-2.761-3.737c.092-1.438,1.717-4.1,1.717-7.1,0-4.1-.54-5.171-3.652-5.171h-5.508" transform="translate(449.535 985.488)" fill="none" stroke="#7ac142" stroke-linecap="round" stroke-linejoin="round" stroke-miterlimit="10" stroke-width="2"/><path d="M0,0H46.077" transform="translate(426.165 987.035)" fill="none" stroke="#7ac142" stroke-linecap="round" stroke-linejoin="round" stroke-miterlimit="10" stroke-width="2"/></g></svg>