<svg xmlns="http://www.w3.org/2000/svg" width="60" height="60" viewBox="0 0 60 60"><g transform="translate(-683 -671)"><rect width="60" height="60" transform="translate(683 671)" fill="none"/><path d="M.194.1A1.1,1.1,0,0,0-.9-1,1.1,1.1,0,0,0-2,.1a1.1,1.1,0,0,0,1.1,1.1A1.1,1.1,0,0,0,.194.1" transform="translate(713.407 725.415)" fill="#7ac142"/><path d="M.194.1A1.1,1.1,0,0,0-.9-1,1.1,1.1,0,0,0-2,.1a1.1,1.1,0,0,0,1.1,1.1A1.1,1.1,0,0,0,.194.1" transform="translate(718.892 725.415)" fill="#7ac142"/><path d="M.194.1A1.1,1.1,0,0,0-.9-1,1.1,1.1,0,0,0-2,.1a1.1,1.1,0,0,0,1.1,1.1A1.1,1.1,0,0,0,.194.1" transform="translate(724.377 725.415)" fill="#7ac142"/><path d="M.194.1A1.1,1.1,0,0,0-.9-1,1.1,1.1,0,0,0-2,.1a1.1,1.1,0,0,0,1.1,1.1A1.1,1.1,0,0,0,.194.1" transform="translate(702.436 725.415)" fill="#7ac142"/><path d="M.194.1A1.1,1.1,0,0,0-.9-1,1.1,1.1,0,0,0-2,.1a1.1,1.1,0,0,0,1.1,1.1A1.1,1.1,0,0,0,.194.1" transform="translate(707.921 725.415)" fill="#7ac142"/><path d="M1.852,3.572V-1.562a65.5,65.5,0,0,0,6.661,0c2.96-.2,2.115-3.553,2.115-3.553V-10.69h5.234L12.7-20.46A16.291,16.291,0,0,0-3.3-36.8,15.666,15.666,0,0,0-19.077-20.963c0,5.732,2.279,10.592,7.764,13.42V3.572" transform="translate(715.04 715.358)" fill="none" stroke="#7ac142" stroke-linecap="round" stroke-linejoin="round" stroke-miterlimit="10" stroke-width="2"/><path d="M.291.145A1.643,1.643,0,0,1-1.354,1.789,1.642,1.642,0,0,1-3,.145,1.645,1.645,0,0,1-1.354-1.5,1.646,1.646,0,0,1,.291.145Z" transform="translate(713.645 692.289)" fill="none" stroke="#7ac142" stroke-linecap="round" stroke-linejoin="round" stroke-miterlimit="10" stroke-width="2"/><path d="M.627,3.019V-12.3s-2.37.109-3.962,0-1.524-1.908-1.524-1.908v-2.521h-1.6l1.7-5.482A8.853,8.853,0,0,1,3.833-31.1c4.744,0,8.01,3.7,8.01,8.446A7.362,7.362,0,0,1,7.21-15.51v5.365" transform="translate(708.585 715.91)" fill="none" stroke="#7ac142" stroke-linecap="round" stroke-linejoin="round" stroke-miterlimit="10" stroke-width="2"/></g></svg>