<svg xmlns="http://www.w3.org/2000/svg" width="60" height="60" viewBox="0 0 60 60"><g transform="translate(-683 -1121)"><rect width="60" height="60" transform="translate(683 1121)" fill="none"/><path d="M.194.1A1.1,1.1,0,0,0-.9-1,1.1,1.1,0,0,0-2,.1a1.1,1.1,0,0,0,1.1,1.1A1.1,1.1,0,0,0,.194.1" transform="translate(713.407 1174.248)" fill="#7ac142"/><path d="M.194.1A1.1,1.1,0,0,0-.9-1,1.1,1.1,0,0,0-2,.1a1.1,1.1,0,0,0,1.1,1.1A1.1,1.1,0,0,0,.194.1" transform="translate(718.892 1174.248)" fill="#7ac142"/><path d="M.194.1A1.1,1.1,0,0,0-.9-1,1.1,1.1,0,0,0-2,.1a1.1,1.1,0,0,0,1.1,1.1A1.1,1.1,0,0,0,.194.1" transform="translate(724.377 1174.248)" fill="#7ac142"/><path d="M.194.1A1.1,1.1,0,0,0-.9-1,1.1,1.1,0,0,0-2,.1a1.1,1.1,0,0,0,1.1,1.1A1.1,1.1,0,0,0,.194.1" transform="translate(702.436 1174.248)" fill="#7ac142"/><path d="M.194.1A1.1,1.1,0,0,0-.9-1,1.1,1.1,0,0,0-2,.1a1.1,1.1,0,0,0,1.1,1.1A1.1,1.1,0,0,0,.194.1" transform="translate(707.921 1174.248)" fill="#7ac142"/><path d="M1.273,2.123c-.066-.03-.129-.058-.193-.09-.2-.094-.386-.2-.569-.309C.418,1.669.326,1.61.239,1.551s-.178-.124-.264-.188c-.044-.033-.086-.065-.128-.1A7.13,7.13,0,0,1-.844.64a6.658,6.658,0,0,1-.6-.713c-.072-.1-.143-.2-.211-.307a6.673,6.673,0,0,1-.529-.994A6.675,6.675,0,0,1-2.72-4.015,6.694,6.694,0,0,1-.523-8.98c.121-.109.244-.212.369-.313.043-.033.084-.066.128-.1.087-.065.176-.126.264-.188a6.583,6.583,0,0,1,.841-.484c.1-.047.2-.092.3-.134a6.684,6.684,0,0,1,2.612-.528,6.683,6.683,0,0,1,3.055.734c.1.049.192.1.285.155.138.081.276.167.41.257.09.061.179.123.263.188l.128.1c.084.067.167.135.248.205q.183.158.353.329c.076.076.15.154.223.233a6.577,6.577,0,0,1,.5.628c.064.088.123.178.181.268s.113.183.168.278c.08.14.157.283.228.43a6.694,6.694,0,0,1,.66,2.908,6.772,6.772,0,0,1-.211,1.679c-.027.106-.058.213-.091.318-.049.157-.1.313-.163.464-.039.1-.082.2-.127.3-.03.065-.06.131-.093.2-.064.129-.131.258-.2.382-.055.093-.109.185-.168.276-.047.072-.094.144-.144.213S9.411-.06,9.365,0c-.031.044-.065.087-.1.129C9.2.213,9.133.3,9.063.377c-.037.041-.071.08-.108.121-.072.079-.147.157-.223.233C8.7.77,8.658.806,8.618.843c-.155.149-.318.289-.486.421-.043.034-.086.066-.128.1-.084.064-.173.126-.263.188s-.181.118-.273.173c-.045.029-.091.057-.137.082-.093.055-.19.106-.285.156A6.682,6.682,0,0,1,3.989,2.7a6.686,6.686,0,0,1-2.5-.483C1.414,2.184,1.343,2.153,1.273,2.123ZM20.8-7.454H18.12a18.666,18.666,0,0,0-1.75-4.174l.009-.012,1.894-1.9a1.077,1.077,0,0,0,0-1.526l-3.295-3.3a1.08,1.08,0,0,0-1.525,0l-1.6,1.895a11.314,11.314,0,0,0-3.887-1.71v-2.691c0-.6-1.08-1.007-1.675-1.007H1.634c-.6,0-.072.41-.072,1.007v2.678a22.187,22.187,0,0,0-4.674,1.751l-.26-.01-2.02-1.892a1.153,1.153,0,0,0-1.587,0l-3.327,3.293a1.08,1.08,0,0,0-.015,1.525l1.887,1.888a17.806,17.806,0,0,0-1.719,4.179h-2.691c-.6,0-.013.5-.013,1.093V-1.7c0,.6-.583,1.458.013,1.458h2.679a12.115,12.115,0,0,0,1.75,3.98l-.009-.087L-10.32,5.5a1.05,1.05,0,0,0,0,1.5l3.3,3.284A1.077,1.077,0,0,0-5.5,10.275l2.385-1.9a21.082,21.082,0,0,0,4.677,1.708v2.691c0,.6-.5,1.4.1,1.4H6.32c.6,0,1.65-.8,1.65-1.4V10.1a11.643,11.643,0,0,0,3.884-1.751l-.135.009,1.824,1.894a1.033,1.033,0,0,0,1.489,0l3.276-3.293A1.079,1.079,0,0,0,18.3,5.432L16.4,3.739A11.792,11.792,0,0,0,18.107-.244H20.8c.6,0,2.392-.888,2.392-1.483V-6.387C23.189-6.983,21.394-7.454,20.8-7.454Z" transform="translate(708.064 1154.529)" fill="none" stroke="#7ac142" stroke-linecap="round" stroke-linejoin="round" stroke-miterlimit="10" stroke-width="2"/></g></svg>