<svg xmlns="http://www.w3.org/2000/svg" width="348" height="348" viewBox="0 0 348 348"><g transform="translate(-1400 -2144)"><g transform="translate(-361 41)"><g transform="translate(1761 2103)" fill="none" stroke="#707070" stroke-width="3"><rect width="348" height="348" stroke="none"/><rect x="1.5" y="1.5" width="345" height="345" fill="none"/></g><line y2="345" transform="translate(1933.5 2104.5)" fill="none" stroke="#707070" stroke-width="1"/><line x2="346" transform="translate(1762.5 2277.5)" fill="none" stroke="#707070" stroke-width="1"/></g><path d="M13.74,6.869a7.87,7.87,0,1,0-7.87,7.869,7.862,7.862,0,0,0,7.87-7.869" transform="translate(1567.457 2452.335)" fill="#7ac142"/><path d="M13.74,6.869a7.87,7.87,0,1,0-7.87,7.869,7.862,7.862,0,0,0,7.87-7.869" transform="translate(1606.804 2452.335)" fill="#7ac142"/><path d="M13.74,6.869a7.87,7.87,0,1,0-7.87,7.869,7.862,7.862,0,0,0,7.87-7.869" transform="translate(1646.157 2452.335)" fill="#7ac142"/><path d="M13.74,6.869a7.87,7.87,0,1,0-7.87,7.869,7.862,7.862,0,0,0,7.87-7.869" transform="translate(1488.758 2452.335)" fill="#7ac142"/><path d="M13.74,6.869a7.87,7.87,0,1,0-7.87,7.869,7.862,7.862,0,0,0,7.87-7.869" transform="translate(1528.104 2452.335)" fill="#7ac142"/><g transform="translate(-332.582 66.496)" opacity="0.149"><g transform="translate(1761 2103)" fill="#77c13a" stroke="#707070" stroke-width="3"><rect width="291.164" height="263.409" stroke="none"/><rect x="1.5" y="1.5" width="288.164" height="260.409" fill="none"/></g></g></g></svg>