<svg xmlns="http://www.w3.org/2000/svg" width="60" height="60" viewBox="0 0 60 60"><g transform="translate(-595 -761)"><rect width="60" height="60" transform="translate(595 761)" fill="none"/><path d="M.194.1A1.1,1.1,0,0,0-.9-1,1.1,1.1,0,0,0-2,.1a1.1,1.1,0,0,0,1.1,1.1A1.1,1.1,0,0,0,.194.1" transform="translate(625.64 816.182)" fill="#7ac142"/><path d="M.194.1A1.1,1.1,0,0,0-.9-1,1.1,1.1,0,0,0-2,.1a1.1,1.1,0,0,0,1.1,1.1A1.1,1.1,0,0,0,.194.1" transform="translate(631.125 816.182)" fill="#7ac142"/><path d="M.194.1A1.1,1.1,0,0,0-.9-1,1.1,1.1,0,0,0-2,.1a1.1,1.1,0,0,0,1.1,1.1A1.1,1.1,0,0,0,.194.1" transform="translate(636.611 816.182)" fill="#7ac142"/><path d="M.194.1A1.1,1.1,0,0,0-.9-1,1.1,1.1,0,0,0-2,.1a1.1,1.1,0,0,0,1.1,1.1A1.1,1.1,0,0,0,.194.1" transform="translate(614.669 816.182)" fill="#7ac142"/><path d="M.194.1A1.1,1.1,0,0,0-.9-1,1.1,1.1,0,0,0-2,.1a1.1,1.1,0,0,0,1.1,1.1A1.1,1.1,0,0,0,.194.1" transform="translate(620.155 816.182)" fill="#7ac142"/><path d="M.864,3.622-1.33,1.427v-11.8C-4.621-12.71-8.9-17.525-8.9-23.087A14.336,14.336,0,0,1,5.457-37.305c7.849,0,14.649,6.365,14.649,14.218,0,5.463-3.883,10.208-7.174,12.591V1.427L10.738,3.622" transform="translate(618.387 806.075)" fill="none" stroke="#7ac142" stroke-linecap="round" stroke-linejoin="round" stroke-width="2"/><path d="M0,.485V-5" transform="translate(621.446 801.531)" fill="none" stroke="#7ac142" stroke-linecap="round" stroke-linejoin="round" stroke-width="2"/><path d="M0,.485V-5" transform="translate(626.931 801.531)" fill="none" stroke="#7ac142" stroke-linecap="round" stroke-linejoin="round" stroke-width="2"/><path d="M1.262,0H-13" transform="translate(630.057 803.114)" fill="none" stroke="#7ac142" stroke-linecap="round" stroke-linejoin="round" stroke-width="2"/><path d="M.782.516A2.567,2.567,0,1,1-1.776,3.082,2.565,2.565,0,0,1,.782.516Zm-2.7,9.039.476,2.213c.163.691.882,1.567,1.586,1.567H1.425c.708,0,1.421-.875,1.584-1.567l.483-2.053a1.273,1.273,0,0,1,1.539-.97l1.88.5a1.743,1.743,0,0,0,1.871-.779l.644-1.123a1.745,1.745,0,0,0-.283-2.007L7.735,3.974a1.243,1.243,0,0,1,0-1.786L9.143.834a1.74,1.74,0,0,0,.283-2L8.782-2.28a1.724,1.724,0,0,0-1.871-.75L5.031-2.5a1.226,1.226,0,0,1-1.539-.891l-.483-1.3c-.163-.678-.877-.633-1.584-.633H.141c-.7,0-1.423-.045-1.586.64l-.476,1.593a1.156,1.156,0,0,1-1.547.739l-1.875-.612a1.7,1.7,0,0,0-1.869.713l-.645,1.092A1.724,1.724,0,0,0-7.578.843l1.411,1.348a1.243,1.243,0,0,1,0,1.783L-7.578,5.33a1.736,1.736,0,0,0-.28,2l.645,1.114A1.72,1.72,0,0,0-5.343,9.2l1.875-.538A1.231,1.231,0,0,1-1.921,9.555Z" transform="translate(623.194 779.906)" fill="none" stroke="#7ac142" stroke-linecap="round" stroke-linejoin="round" stroke-width="2"/></g></svg>