<svg xmlns="http://www.w3.org/2000/svg" width="60" height="60" viewBox="0 0 60 60"><g transform="translate(-155 -401)"><rect width="60" height="60" transform="translate(155 401)" fill="none"/><path d="M4.211,2.105A6.177,6.177,0,0,0-1.968-4.073,6.177,6.177,0,0,0-8.146,2.105,6.177,6.177,0,0,0-1.968,8.284,6.177,6.177,0,0,0,4.211,2.105Z" transform="translate(188.058 428.404)" fill="none" stroke="#7ac142" stroke-linecap="round" stroke-linejoin="round" stroke-width="1.778"/><path d="M1.034.517A1.517,1.517,0,0,0-.483-1,1.517,1.517,0,0,0-2,.517,1.517,1.517,0,0,0-.483,2.034,1.517,1.517,0,0,0,1.034.517" transform="translate(194.182 421.474)" fill="#7ac142"/><path d="M.194.1A1.1,1.1,0,0,0-.9-1,1.1,1.1,0,0,0-2,.1a1.1,1.1,0,0,0,1.1,1.1A1.1,1.1,0,0,0,.194.1" transform="translate(186.807 456.436)" fill="#7ac142"/><path d="M.194.1A1.1,1.1,0,0,0-.9-1,1.1,1.1,0,0,0-2,.1a1.1,1.1,0,0,0,1.1,1.1A1.1,1.1,0,0,0,.194.1" transform="translate(191.196 456.436)" fill="#7ac142"/><path d="M.194.1A1.1,1.1,0,0,0-.9-1,1.1,1.1,0,0,0-2,.1a1.1,1.1,0,0,0,1.1,1.1A1.1,1.1,0,0,0,.194.1" transform="translate(195.584 456.436)" fill="#7ac142"/><path d="M.194.1A1.1,1.1,0,0,0-.9-1,1.1,1.1,0,0,0-2,.1a1.1,1.1,0,0,0,1.1,1.1A1.1,1.1,0,0,0,.194.1" transform="translate(178.031 456.436)" fill="#7ac142"/><path d="M.194.1A1.1,1.1,0,0,0-.9-1,1.1,1.1,0,0,0-2,.1a1.1,1.1,0,0,0,1.1,1.1A1.1,1.1,0,0,0,.194.1" transform="translate(182.419 456.436)" fill="#7ac142"/><g transform="translate(164 409)" fill="none" stroke="#77c13a" stroke-width="2"><rect width="43" height="43" rx="7" stroke="none"/><rect x="1" y="1" width="41" height="41" rx="6" fill="none"/></g><g transform="translate(170 415)" fill="none" stroke="#77c13a" stroke-width="2"><rect width="31" height="31" rx="5" stroke="none"/><rect x="1" y="1" width="29" height="29" rx="4" fill="none"/></g></g></svg>