<svg xmlns="http://www.w3.org/2000/svg" width="60" height="60" viewBox="0 0 60 60"><g transform="translate(-331 -851)"><rect width="60" height="60" transform="translate(331 851)" fill="none"/><path d="M.194.1A1.1,1.1,0,0,0-.9-1,1.1,1.1,0,0,0-2,.1a1.1,1.1,0,0,0,1.1,1.1A1.1,1.1,0,0,0,.194.1" transform="translate(362.34 903.948)" fill="#7ac142"/><path d="M.194.1A1.1,1.1,0,0,0-.9-1,1.1,1.1,0,0,0-2,.1a1.1,1.1,0,0,0,1.1,1.1A1.1,1.1,0,0,0,.194.1" transform="translate(367.826 903.948)" fill="#7ac142"/><path d="M.194.1A1.1,1.1,0,0,0-.9-1,1.1,1.1,0,0,0-2,.1a1.1,1.1,0,0,0,1.1,1.1A1.1,1.1,0,0,0,.194.1" transform="translate(373.311 903.948)" fill="#7ac142"/><path d="M.194.1A1.1,1.1,0,0,0-.9-1,1.1,1.1,0,0,0-2,.1a1.1,1.1,0,0,0,1.1,1.1A1.1,1.1,0,0,0,.194.1" transform="translate(351.37 903.948)" fill="#7ac142"/><path d="M.194.1A1.1,1.1,0,0,0-.9-1,1.1,1.1,0,0,0-2,.1a1.1,1.1,0,0,0,1.1,1.1A1.1,1.1,0,0,0,.194.1" transform="translate(356.855 903.948)" fill="#7ac142"/><path d="M2.938,1.469a16.6,16.6,0,0,1-16.6,16.6,16.6,16.6,0,0,1-16.6-16.6,16.606,16.606,0,0,1,16.6-16.6A16.6,16.6,0,0,1,2.938,1.469Z" transform="translate(373.435 876.394)" fill="none" stroke="#7ac142" stroke-linecap="round" stroke-linejoin="round" stroke-width="2"/><path d="M0,.192C15.173-6.622,21.591,4.8,21.591,4.8" transform="translate(339.847 869.62)" fill="none" stroke="#7ac142" stroke-linecap="round" stroke-linejoin="round" stroke-width="1"/><path d="M1.94,0c.229-.1-9.557,9.4-21.922,4.084" transform="translate(359.83 883.532)" fill="none" stroke="#7ac142" stroke-linecap="round" stroke-linejoin="round" stroke-width="1"/><path d="M0,0C.373.3,5.57,5.559,1.461,13.563" transform="translate(371.279 883.093)" fill="none" stroke="#7ac142" stroke-linecap="round" stroke-linejoin="round" stroke-width="1"/><path d="M0,1.146S4.678-6.113.912-11.809" transform="translate(372.605 873.068)" fill="none" stroke="#7ac142" stroke-linecap="round" stroke-linejoin="round" stroke-width="1"/><path d="M.337,0,.008,3.616l-3.48.231" transform="translate(361.429 870.911)" fill="none" stroke="#7ac142" stroke-linecap="round" stroke-linejoin="round" stroke-width="1"/><path d="M0,0,3.47.829l.033,3.3" transform="translate(358.3 882.703)" fill="none" stroke="#7ac142" stroke-linecap="round" stroke-linejoin="round" stroke-width="1"/><path d="M.363.312-2.972.068l-.767-3.28" transform="translate(375.578 874.146)" fill="none" stroke="#7ac142" stroke-linecap="round" stroke-linejoin="round" stroke-width="1"/><path d="M0,.317.556-3.269,4.194-3.1" transform="translate(370.722 886.361)" fill="none" stroke="#7ac142" stroke-linecap="round" stroke-linejoin="round" stroke-width="1"/><path d="M1.334,1.469c0,9.165-3.378,16.6-7.539,16.6s-7.533-7.435-7.539-16.6,3.379-16.6,7.539-16.6S1.334-7.7,1.334,1.469Z" transform="translate(365.977 876.394)" fill="none" stroke="#7ac142" stroke-linecap="round" stroke-linejoin="round" stroke-width="2"/><path d="M0,0H31.815" transform="translate(343.884 878.813)" fill="none" stroke="#7ac142" stroke-linecap="round" stroke-linejoin="round" stroke-width="2"/><path d="M.292.146A1.653,1.653,0,0,1-1.359,1.8,1.653,1.653,0,0,1-3.012.146,1.653,1.653,0,0,1-1.359-1.506,1.653,1.653,0,0,1,.292.146Z" transform="translate(368.67 877.643)" fill="none" stroke="#7ac142" stroke-linecap="round" stroke-linejoin="round" stroke-width="2"/></g></svg>