<svg xmlns="http://www.w3.org/2000/svg" width="60" height="60" viewBox="0 0 60 60"><g transform="translate(-331 -581)"><rect width="60" height="60" transform="translate(331 581)" fill="none"/><path d="M.969.485A5.477,5.477,0,0,0-4.505-4.994,5.478,5.478,0,0,0-9.981.485,5.475,5.475,0,0,0-4.505,5.958,5.475,5.475,0,0,0,.969.485Z" transform="translate(358.935 613.632)" fill="none" stroke="#7ac142" stroke-linecap="round" stroke-linejoin="round" stroke-width="2"/><path d="M.609.3A3.435,3.435,0,0,0-2.828-3.131,3.439,3.439,0,0,0-6.268.3,3.439,3.439,0,0,0-2.828,3.74,3.434,3.434,0,0,0,.609.3Z" transform="translate(344.44 625.046)" fill="none" stroke="#7ac142" stroke-linecap="round" stroke-linejoin="round" stroke-width="2"/><path d="M.856.428A4.837,4.837,0,0,0-3.978-4.41,4.841,4.841,0,0,0-8.817.428,4.839,4.839,0,0,0-3.978,5.265,4.834,4.834,0,0,0,.856.428Z" transform="translate(372.704 623.521)" fill="none" stroke="#7ac142" stroke-linecap="round" stroke-linejoin="round" stroke-width="2"/><path d="M.744.372a4.2,4.2,0,0,0-4.2-4.2,4.206,4.206,0,0,0-4.2,4.2,4.2,4.2,0,0,0,4.2,4.205A4.2,4.2,0,0,0,.744.372Z" transform="translate(369.4 601.446)" fill="none" stroke="#7ac142" stroke-linecap="round" stroke-linejoin="round" stroke-width="2"/><path d="M.65.325A3.671,3.671,0,0,0-3.019-3.344,3.674,3.674,0,0,0-6.692.325,3.673,3.673,0,0,0-3.019,4,3.67,3.67,0,0,0,.65.325Z" transform="translate(348.364 603.852)" fill="none" stroke="#7ac142" stroke-linecap="round" stroke-linejoin="round" stroke-width="2"/><path d="M0,.479,6.12-4.936" transform="translate(344.165 622.592)" fill="none" stroke="#7ac142" stroke-linecap="round" stroke-linejoin="round" stroke-width="2"/><path d="M0,0,5.721,4.288" transform="translate(359.334 616.528)" fill="none" stroke="#7ac142" stroke-linecap="round" stroke-linejoin="round" stroke-width="2"/><path d="M0,.433,5.3-4.461" transform="translate(357.68 609.297)" fill="none" stroke="#7ac142" stroke-linecap="round" stroke-linejoin="round" stroke-width="2"/><path d="M.261.281-2.693-2.9" transform="translate(350.543 609.757)" fill="none" stroke="#7ac142" stroke-linecap="round" stroke-linejoin="round" stroke-width="2"/><path d="M.777,1.165H1.886L6.262,4.434V1.165H8.456V-12H-8v2.194" transform="translate(371.632 603.96)" fill="none" stroke="#7ac142" stroke-linecap="round" stroke-linejoin="round" stroke-width="2"/><path d="M.194.1A1.1,1.1,0,0,0-.9-1,1.1,1.1,0,0,0-2,.1a1.1,1.1,0,0,0,1.1,1.1A1.1,1.1,0,0,0,.194.1" transform="translate(362.34 634.649)" fill="#7ac142"/><path d="M.194.1A1.1,1.1,0,0,0-.9-1,1.1,1.1,0,0,0-2,.1a1.1,1.1,0,0,0,1.1,1.1A1.1,1.1,0,0,0,.194.1" transform="translate(367.826 634.649)" fill="#7ac142"/><path d="M.194.1A1.1,1.1,0,0,0-.9-1,1.1,1.1,0,0,0-2,.1a1.1,1.1,0,0,0,1.1,1.1A1.1,1.1,0,0,0,.194.1" transform="translate(373.311 634.649)" fill="#7ac142"/><path d="M.194.1A1.1,1.1,0,0,0-.9-1,1.1,1.1,0,0,0-2,.1a1.1,1.1,0,0,0,1.1,1.1A1.1,1.1,0,0,0,.194.1" transform="translate(385.311 593.649)" fill="#7ac142"/><path d="M.194.1A1.1,1.1,0,0,0-.9-1,1.1,1.1,0,0,0-2,.1a1.1,1.1,0,0,0,1.1,1.1A1.1,1.1,0,0,0,.194.1" transform="translate(385.311 587.649)" fill="#7ac142"/><path d="M.194.1A1.1,1.1,0,0,0-.9-1,1.1,1.1,0,0,0-2,.1a1.1,1.1,0,0,0,1.1,1.1A1.1,1.1,0,0,0,.194.1" transform="translate(379.311 587.649)" fill="#7ac142"/><path d="M.194.1A1.1,1.1,0,0,0-.9-1,1.1,1.1,0,0,0-2,.1a1.1,1.1,0,0,0,1.1,1.1A1.1,1.1,0,0,0,.194.1" transform="translate(373.311 587.649)" fill="#7ac142"/><path d="M.194.1A1.1,1.1,0,0,0-.9-1,1.1,1.1,0,0,0-2,.1a1.1,1.1,0,0,0,1.1,1.1A1.1,1.1,0,0,0,.194.1" transform="translate(351.37 634.649)" fill="#7ac142"/><path d="M.194.1A1.1,1.1,0,0,0-.9-1,1.1,1.1,0,0,0-2,.1a1.1,1.1,0,0,0,1.1,1.1A1.1,1.1,0,0,0,.194.1" transform="translate(356.855 634.649)" fill="#7ac142"/></g></svg>