<svg xmlns="http://www.w3.org/2000/svg" width="60" height="60" viewBox="0 0 60 60"><g transform="translate(-859 -761)"><rect width="60" height="60" transform="translate(859 761)" fill="none"/><path d="M.194.1A1.1,1.1,0,0,0-.9-1,1.1,1.1,0,0,0-2,.1a1.1,1.1,0,0,0,1.1,1.1A1.1,1.1,0,0,0,.194.1" transform="translate(888.94 816.182)" fill="#7ac142"/><path d="M.194.1A1.1,1.1,0,0,0-.9-1,1.1,1.1,0,0,0-2,.1a1.1,1.1,0,0,0,1.1,1.1A1.1,1.1,0,0,0,.194.1" transform="translate(894.425 816.182)" fill="#7ac142"/><path d="M.194.1A1.1,1.1,0,0,0-.9-1,1.1,1.1,0,0,0-2,.1a1.1,1.1,0,0,0,1.1,1.1A1.1,1.1,0,0,0,.194.1" transform="translate(899.911 816.182)" fill="#7ac142"/><path d="M.194.1A1.1,1.1,0,0,0-.9-1,1.1,1.1,0,0,0-2,.1a1.1,1.1,0,0,0,1.1,1.1A1.1,1.1,0,0,0,.194.1" transform="translate(877.969 816.182)" fill="#7ac142"/><path d="M.194.1A1.1,1.1,0,0,0-.9-1,1.1,1.1,0,0,0-2,.1a1.1,1.1,0,0,0,1.1,1.1A1.1,1.1,0,0,0,.194.1" transform="translate(883.454 816.182)" fill="#7ac142"/><path d="M.336.168a1.9,1.9,0,0,1-1.9,1.9,1.9,1.9,0,0,1-1.9-1.9,1.9,1.9,0,0,1,1.9-1.9,1.9,1.9,0,0,1,1.9,1.9" transform="translate(887.646 787.967)" fill="#7ac142"/><path d="M.336.168a1.893,1.893,0,0,1-1.9,1.9,1.9,1.9,0,0,1-1.9-1.9,1.905,1.905,0,0,1,1.9-1.9,1.9,1.9,0,0,1,1.9,1.9" transform="translate(887.646 801.906)" fill="#7ac142"/><path d="M.336.168a1.9,1.9,0,0,1-1.9,1.9,1.9,1.9,0,0,1-1.9-1.9,1.9,1.9,0,0,1,1.9-1.9,1.9,1.9,0,0,1,1.9,1.9" transform="translate(888.395 775.213)" fill="#7ac142"/><path d="M.336.168a1.9,1.9,0,0,1-1.9,1.9,1.9,1.9,0,0,1-1.9-1.9,1.9,1.9,0,0,1,1.9-1.9,1.9,1.9,0,0,1,1.9,1.9" transform="translate(874.332 788.214)" fill="#7ac142"/><path d="M.336.168a1.9,1.9,0,0,1-1.9,1.9,1.9,1.9,0,0,1-1.9-1.9,1.9,1.9,0,0,1,1.9-1.9,1.9,1.9,0,0,1,1.9,1.9" transform="translate(899.919 790.114)" fill="#7ac142"/><path d="M1.257.628A7.107,7.107,0,0,1-5.849,7.735a7.105,7.105,0,0,1-7.1-7.107,7.1,7.1,0,0,1,7.1-7.1A7.1,7.1,0,0,1,1.257.628Z" transform="translate(891.933 787.507)" fill="none" stroke="#7ac142" stroke-linecap="round" stroke-linejoin="round" stroke-width="2"/><path d="M.789.394A4.459,4.459,0,0,1-3.667,4.853,4.464,4.464,0,0,1-8.129.394,4.461,4.461,0,0,1-3.667-4.063,4.456,4.456,0,0,1,.789.394Z" transform="translate(873.127 773.167)" fill="none" stroke="#7ac142" stroke-linecap="round" stroke-linejoin="round" stroke-width="2"/><path d="M1.111.555A6.28,6.28,0,0,1-5.165,6.832,6.281,6.281,0,0,1-11.439.555,6.276,6.276,0,0,1-5.165-5.721,6.275,6.275,0,0,1,1.111.555Z" transform="translate(909.793 774.826)" fill="none" stroke="#7ac142" stroke-linecap="round" stroke-linejoin="round" stroke-width="2"/><path d="M.965.483A5.45,5.45,0,0,1-4.486,5.931,5.455,5.455,0,0,1-9.941.483,5.454,5.454,0,0,1-4.486-4.971,5.45,5.45,0,0,1,.965.483Z" transform="translate(905.506 803.607)" fill="none" stroke="#7ac142" stroke-linecap="round" stroke-linejoin="round" stroke-width="2"/><path d="M.843.422a4.762,4.762,0,0,1-4.758,4.76A4.768,4.768,0,0,1-8.681.422,4.767,4.767,0,0,1-3.915-4.344,4.761,4.761,0,0,1,.843.422Z" transform="translate(878.218 800.607)" fill="none" stroke="#7ac142" stroke-linecap="round" stroke-linejoin="round" stroke-width="2"/><path d="M0,0,7.937,7.024" transform="translate(872.771 776.52)" fill="none" stroke="#7ac142" stroke-linecap="round" stroke-linejoin="round" stroke-width="2"/><path d="M0,.492,7.424-5.071" transform="translate(892.448 784.512)" fill="none" stroke="#7ac142" stroke-linecap="round" stroke-linejoin="round" stroke-width="2"/><path d="M0,0,6.878,6.35" transform="translate(890.304 793.824)" fill="none" stroke="#7ac142" stroke-linecap="round" stroke-linejoin="round" stroke-width="2"/><path d="M.339,0-3.489,4.121" transform="translate(881.044 793.428)" fill="none" stroke="#7ac142" stroke-linecap="round" stroke-linejoin="round" stroke-width="2"/></g></svg>