<svg xmlns="http://www.w3.org/2000/svg" width="60" height="60" viewBox="0 0 60 60"><g transform="translate(-419 -401)"><rect width="60" height="60" transform="translate(419 401)" fill="none"/><path d="M.194.1A1.1,1.1,0,0,0-.9-1,1.1,1.1,0,0,0-2,.1a1.1,1.1,0,0,0,1.1,1.1A1.1,1.1,0,0,0,.194.1" transform="translate(450.107 457.116)" fill="#7ac142"/><path d="M.194.1A1.1,1.1,0,0,0-.9-1,1.1,1.1,0,0,0-2,.1a1.1,1.1,0,0,0,1.1,1.1A1.1,1.1,0,0,0,.194.1" transform="translate(455.592 457.116)" fill="#7ac142"/><path d="M.194.1A1.1,1.1,0,0,0-.9-1,1.1,1.1,0,0,0-2,.1a1.1,1.1,0,0,0,1.1,1.1A1.1,1.1,0,0,0,.194.1" transform="translate(461.078 457.116)" fill="#7ac142"/><path d="M.194.1A1.1,1.1,0,0,0-.9-1,1.1,1.1,0,0,0-2,.1a1.1,1.1,0,0,0,1.1,1.1A1.1,1.1,0,0,0,.194.1" transform="translate(439.136 457.116)" fill="#7ac142"/><path d="M.194.1A1.1,1.1,0,0,0-.9-1,1.1,1.1,0,0,0-2,.1a1.1,1.1,0,0,0,1.1,1.1A1.1,1.1,0,0,0,.194.1" transform="translate(444.622 457.116)" fill="#7ac142"/><g transform="translate(428 409)" fill="none" stroke="#77c13a" stroke-width="2"><rect width="43" height="43" rx="7" stroke="none"/><rect x="1" y="1" width="41" height="41" rx="6" fill="none"/></g><path d="M2.61-.81c0,.63.18.81.81.81H6.39c.63,0,.81-.18.81-.81V-14.46c0-.63-.18-.81-.81-.81H3.42c-.63,0-.81.18-.81.81ZM2.25-19.83a2.574,2.574,0,0,0,2.61,2.61,2.625,2.625,0,0,0,2.67-2.61A2.676,2.676,0,0,0,4.86-22.5,2.625,2.625,0,0,0,2.25-19.83Zm11.16,5.37c-.33-.57-.48-.81-.96-.81H11.01c-.63,0-.81.18-.81.81V-.81c0,.63.18.81.81.81h2.97c.63,0,.81-.18.81-.81V-7.62c0-2.73.57-3.9,2.43-3.9,1.8,0,2.31,1.17,2.31,3.9V-.81c0,.63.18.81.81.81h2.97c.63,0,.81-.18.81-.81V-8.52c0-5.52-2.31-7.08-5.73-7.08a5.443,5.443,0,0,0-4.38,2.22Z" transform="translate(436 441)" fill="#7ac142"/></g></svg>