<svg xmlns="http://www.w3.org/2000/svg" width="60" height="60" viewBox="0 0 60 60"><g transform="translate(-155 -941)"><rect width="60" height="60" transform="translate(155 941)" fill="none"/><path d="M.194.1A1.1,1.1,0,0,0-.9-1,1.1,1.1,0,0,0-2,.1a1.1,1.1,0,0,0,1.1,1.1A1.1,1.1,0,0,0,.194.1" transform="translate(186.807 995.715)" fill="#7ac142"/><path d="M.194.1A1.1,1.1,0,0,0-.9-1,1.1,1.1,0,0,0-2,.1a1.1,1.1,0,0,0,1.1,1.1A1.1,1.1,0,0,0,.194.1" transform="translate(192.293 995.715)" fill="#7ac142"/><path d="M.194.1A1.1,1.1,0,0,0-.9-1,1.1,1.1,0,0,0-2,.1a1.1,1.1,0,0,0,1.1,1.1A1.1,1.1,0,0,0,.194.1" transform="translate(197.778 995.715)" fill="#7ac142"/><path d="M.194.1A1.1,1.1,0,0,0-.9-1,1.1,1.1,0,0,0-2,.1a1.1,1.1,0,0,0,1.1,1.1A1.1,1.1,0,0,0,.194.1" transform="translate(175.836 995.715)" fill="#7ac142"/><path d="M.194.1A1.1,1.1,0,0,0-.9-1,1.1,1.1,0,0,0-2,.1a1.1,1.1,0,0,0,1.1,1.1A1.1,1.1,0,0,0,.194.1" transform="translate(181.322 995.715)" fill="#7ac142"/><path d="M.912,1.01A5.48,5.48,0,0,1,5.14-.68,5.7,5.7,0,0,1,7.371,10.256m-.324,9.927c-.312-3.692,4.121-4.471,6.019-2.19.92-.622,2.193-.889,2.46-2.19-1.807-2.173-.166-5.533,3.547-4.638a27.752,27.752,0,0,0,1.1-3.279,2.909,2.909,0,0,1,0-5.738,27.113,27.113,0,0,0-1.1-3.28c-3.934.857-5.216-2.547-3.547-4.92a4.822,4.822,0,0,0-2.737-2.043C11.131-5.568,6.653-6.014,7.047-10.4H3.214c.324,4.388-4.109,4.593-6,2.307-.922.628-2.2.958-2.472,2.252,1.8,2.173.167,5.574-3.547,4.68m0,.031c-.206.517-.4,1.046-.587,1.592" transform="translate(188.314 957.943)" fill="none" stroke="#7ac142" stroke-linecap="round" stroke-linejoin="round" stroke-miterlimit="10" stroke-width="2"/><path d="M.142,0H21.3a2.612,2.612,0,0,1,2.276,2.166V19.306c0,.885-1.182,1.538-2.276,1.538H10.316l-6.288,6.08v-6.08H.142a1.432,1.432,0,0,1-1.6-1.538V2.166C-1.458,1.277-.716,0,.384,0Z" transform="translate(168.712 961.802)" fill="none" stroke="#7ac142" stroke-linecap="round" stroke-linejoin="round" stroke-miterlimit="10" stroke-width="2"/><path d="M.194.1A1.1,1.1,0,0,0-.9-1,1.1,1.1,0,0,0-2,.1a1.1,1.1,0,0,0,1.1,1.1A1.1,1.1,0,0,0,.194.1" transform="translate(174.389 966.416)" fill="#7ac142"/><path d="M.194.1A1.1,1.1,0,0,0-.9-1,1.1,1.1,0,0,0-2,.1a1.1,1.1,0,0,0,1.1,1.1A1.1,1.1,0,0,0,.194.1" transform="translate(180.389 966.416)" fill="#7ac142"/><path d="M.194.1A1.1,1.1,0,0,0-.9-1,1.1,1.1,0,0,0-2,.1a1.1,1.1,0,0,0,1.1,1.1A1.1,1.1,0,0,0,.194.1" transform="translate(186.389 966.416)" fill="#7ac142"/><path d="M.194.1A1.1,1.1,0,0,0-.9-1,1.1,1.1,0,0,0-2,.1a1.1,1.1,0,0,0,1.1,1.1A1.1,1.1,0,0,0,.194.1" transform="translate(174.389 972.416)" fill="#7ac142"/><path d="M.194.1A1.1,1.1,0,0,0-.9-1,1.1,1.1,0,0,0-2,.1a1.1,1.1,0,0,0,1.1,1.1A1.1,1.1,0,0,0,.194.1" transform="translate(180.389 972.416)" fill="#7ac142"/><path d="M.194.1A1.1,1.1,0,0,0-.9-1,1.1,1.1,0,0,0-2,.1a1.1,1.1,0,0,0,1.1,1.1A1.1,1.1,0,0,0,.194.1" transform="translate(186.389 972.416)" fill="#7ac142"/><path d="M.194.1A1.1,1.1,0,0,0-.9-1,1.1,1.1,0,0,0-2,.1a1.1,1.1,0,0,0,1.1,1.1A1.1,1.1,0,0,0,.194.1" transform="translate(174.389 978.416)" fill="#7ac142"/><path d="M.194.1A1.1,1.1,0,0,0-.9-1,1.1,1.1,0,0,0-2,.1a1.1,1.1,0,0,0,1.1,1.1A1.1,1.1,0,0,0,.194.1" transform="translate(180.389 978.416)" fill="#7ac142"/><path d="M.194.1A1.1,1.1,0,0,0-.9-1,1.1,1.1,0,0,0-2,.1a1.1,1.1,0,0,0,1.1,1.1A1.1,1.1,0,0,0,.194.1" transform="translate(186.389 978.416)" fill="#7ac142"/><path d="M357.194-513Z" transform="translate(-167.059 1484.406)" fill="#7ac142"/></g></svg>