<svg xmlns="http://www.w3.org/2000/svg" width="60" height="60" viewBox="0 0 60 60"><g transform="translate(-683 -1031)"><rect width="60" height="60" transform="translate(683 1031)" fill="none"/><path d="M.194.1A1.1,1.1,0,0,0-.9-1,1.1,1.1,0,0,0-2,.1a1.1,1.1,0,0,0,1.1,1.1A1.1,1.1,0,0,0,.194.1" transform="translate(713.407 1085.481)" fill="#7ac142"/><path d="M.194.1A1.1,1.1,0,0,0-.9-1,1.1,1.1,0,0,0-2,.1a1.1,1.1,0,0,0,1.1,1.1A1.1,1.1,0,0,0,.194.1" transform="translate(718.892 1085.481)" fill="#7ac142"/><path d="M.194.1A1.1,1.1,0,0,0-.9-1,1.1,1.1,0,0,0-2,.1a1.1,1.1,0,0,0,1.1,1.1A1.1,1.1,0,0,0,.194.1" transform="translate(724.377 1085.481)" fill="#7ac142"/><path d="M.194.1A1.1,1.1,0,0,0-.9-1,1.1,1.1,0,0,0-2,.1a1.1,1.1,0,0,0,1.1,1.1A1.1,1.1,0,0,0,.194.1" transform="translate(702.436 1085.481)" fill="#7ac142"/><path d="M.194.1A1.1,1.1,0,0,0-.9-1,1.1,1.1,0,0,0-2,.1a1.1,1.1,0,0,0,1.1,1.1A1.1,1.1,0,0,0,.194.1" transform="translate(707.921 1085.481)" fill="#7ac142"/><path d="M3.689,2.233V-5.7L-8.292-23H-26.648L-38-5.7V2.233Z" transform="translate(729.659 1075.666)" fill="none" stroke="#7ac142" stroke-linecap="round" stroke-linejoin="round" stroke-miterlimit="10" stroke-width="2"/><path d="M1.268.561C-.645.568-2.353.616-2.851.616c-1.6,0-1.654,5.9-2.983,6.789-1.39.933-6.032-1.424-7-2.789-.641-.9.147-2,1.336-3.959,1.7-2.8,4.1-6.356,5.088-6.385,1.908-.055,29.6-.053,31.9-.053.987,0,3.394,3.664,5.093,6.463,1.191,1.964,1.989,3.124,1.347,4.022-.968,1.366-5.425,3.436-6.814,2.5-1.33-.893-4.127-6.43-4.875-6.43H17.21" transform="translate(702.973 1047.501)" fill="none" stroke="#7ac142" stroke-linecap="round" stroke-linejoin="round" stroke-miterlimit="10" stroke-width="2"/><path d="M1.274.637a7.2,7.2,0,0,0-7.2-7.2,7.2,7.2,0,0,0-7.2,7.2,7.2,7.2,0,0,0,7.2,7.2A7.2,7.2,0,0,0,1.274.637Z" transform="translate(717.88 1064.646)" fill="none" stroke="#7ac142" stroke-linecap="round" stroke-linejoin="round" stroke-miterlimit="10" stroke-width="2"/></g></svg>