<svg xmlns="http://www.w3.org/2000/svg" width="60" height="60" viewBox="0 0 60 60"><g transform="translate(-243 -491)"><rect width="60" height="60" transform="translate(243 491)" fill="none"/><path d="M.114,1.729c.115.1.235.193.347.293C1.326.985,2.186-.056,3.047-1.091c-.08-.071-.158-.139-.241-.208C1.91-.288,1.017.718.114,1.729M19.607-3.755c-1.235-.953-2.507-.663-3.728-.636a3.991,3.991,0,0,0,3.728.636M8.6-13c.789-1.122.71-3.4-.217-4.19A10.742,10.742,0,0,0,8.6-13M11.33-5.033c-.963-1.154-1.932-2.3-2.866-3.417C7.7-6.89,6.9-5.232,6.1-3.593c1.781-.5,3.529-.974,5.234-1.44M9.91-15.691c-.185,1.383-.4,2.761-.539,4.148a2.833,2.833,0,0,0,.165,1.417,9.1,9.1,0,0,0,3.657,4.473,1.941,1.941,0,0,0,.925.2c1.505.009,3.018-.082,4.511,0,1.014.052,1.47.585,1.484,1.383.036,1.236-.455,1.76-1.7,1.707A12.982,12.982,0,0,1,13.5-3.824,1.8,1.8,0,0,0,12.427-4Q9.151-3.28,5.894-2.442a1.825,1.825,0,0,0-.834.662C4.083-.485,3.2.9,2.149,2.126a1.967,1.967,0,0,1-2.591.648c-.7-.327-.92-.753-.555-1.414A5.483,5.483,0,0,1,.3-.288c.979-.773,2.077-1.38,3.112-2.076a1.932,1.932,0,0,0,.653-.6c1.16-2.24,2.31-4.489,3.408-6.767a2.2,2.2,0,0,0,.1-1.2c-.219-1.729-.583-3.445-.7-5.174-.077-1.291.442-1.722,1.54-1.7.874.015,1.38.64,1.432,1.759.008.12,0,.233,0,.353.015,0,.039.008.061.008" transform="translate(264.968 528.781)" fill="#7ac142" fill-rule="evenodd"/><path d="M.194.1A1.1,1.1,0,0,0-.9-1,1.1,1.1,0,0,0-2,.1a1.1,1.1,0,0,0,1.1,1.1A1.1,1.1,0,0,0,.194.1" transform="translate(274.574 544.882)" fill="#7ac142"/><path d="M.194.1A1.1,1.1,0,0,0-.9-1,1.1,1.1,0,0,0-2,.1a1.1,1.1,0,0,0,1.1,1.1A1.1,1.1,0,0,0,.194.1" transform="translate(280.059 544.882)" fill="#7ac142"/><path d="M.194.1A1.1,1.1,0,0,0-.9-1,1.1,1.1,0,0,0-2,.1a1.1,1.1,0,0,0,1.1,1.1A1.1,1.1,0,0,0,.194.1" transform="translate(285.545 544.882)" fill="#7ac142"/><path d="M.194.1A1.1,1.1,0,0,0-.9-1,1.1,1.1,0,0,0-2,.1a1.1,1.1,0,0,0,1.1,1.1A1.1,1.1,0,0,0,.194.1" transform="translate(263.603 544.882)" fill="#7ac142"/><path d="M.194.1A1.1,1.1,0,0,0-.9-1,1.1,1.1,0,0,0-2,.1a1.1,1.1,0,0,0,1.1,1.1A1.1,1.1,0,0,0,.194.1" transform="translate(269.088 544.882)" fill="#7ac142"/><path d="M0,3.689H31.815V-28.126H23.039V-38H0Z" transform="translate(257.215 534.708)" fill="none" stroke="#7ac142" stroke-linecap="round" stroke-linejoin="round" stroke-miterlimit="10" stroke-width="2"/><path d="M.777.874-8-9" transform="translate(288.253 505.708)" fill="none" stroke="#7ac142" stroke-linecap="round" stroke-linejoin="round" stroke-miterlimit="10" stroke-width="2"/></g></svg>