<svg xmlns="http://www.w3.org/2000/svg" width="60" height="60" viewBox="0 0 60 60"><g transform="translate(-331 -401)"><rect width="60" height="60" transform="translate(331 401)" fill="none"/><path d="M2.632,1.288A14.714,14.714,0,0,1-12.239,15.839,14.713,14.713,0,0,1-27.108,1.288,14.713,14.713,0,0,1-12.239-13.264,14.714,14.714,0,0,1,2.632,1.288Z" transform="translate(372.647 428.43)" fill="none" stroke="#7ac142" stroke-linecap="round" stroke-linejoin="round" stroke-width="2"/><path d="M0,1.018S2.255-6.4,2.629-10.482" transform="translate(357.55 437.428)" fill="none" stroke="#7ac142" stroke-linecap="round" stroke-linejoin="round" stroke-width="2"/><path d="M.361.862S1.865,4.2,6,1.972,9-9.9,2.239-8.785s-6.76,7.05-4.882,8.9" transform="translate(359.066 430.908)" fill="none" stroke="#7ac142" stroke-linecap="round" stroke-linejoin="round" stroke-width="2"/><path d="M.194.1A1.1,1.1,0,0,0-.9-1,1.1,1.1,0,0,0-2,.1a1.1,1.1,0,0,0,1.1,1.1A1.1,1.1,0,0,0,.194.1" transform="translate(362.34 456.436)" fill="#7ac142"/><path d="M.194.1A1.1,1.1,0,0,0-.9-1,1.1,1.1,0,0,0-2,.1a1.1,1.1,0,0,0,1.1,1.1A1.1,1.1,0,0,0,.194.1" transform="translate(366.729 456.436)" fill="#7ac142"/><path d="M.194.1A1.1,1.1,0,0,0-.9-1,1.1,1.1,0,0,0-2,.1a1.1,1.1,0,0,0,1.1,1.1A1.1,1.1,0,0,0,.194.1" transform="translate(371.117 456.436)" fill="#7ac142"/><path d="M.194.1A1.1,1.1,0,0,0-.9-1,1.1,1.1,0,0,0-2,.1a1.1,1.1,0,0,0,1.1,1.1A1.1,1.1,0,0,0,.194.1" transform="translate(353.564 456.436)" fill="#7ac142"/><path d="M.194.1A1.1,1.1,0,0,0-.9-1,1.1,1.1,0,0,0-2,.1a1.1,1.1,0,0,0,1.1,1.1A1.1,1.1,0,0,0,.194.1" transform="translate(357.952 456.436)" fill="#7ac142"/><g transform="translate(339 409)" fill="none" stroke="#77c13a" stroke-width="2"><rect width="43" height="43" rx="7" stroke="none"/><rect x="1" y="1" width="41" height="41" rx="6" fill="none"/></g></g></svg>