<svg xmlns="http://www.w3.org/2000/svg" width="60" height="60" viewBox="0 0 60 60"><g transform="translate(-507 -761)"><rect width="60" height="60" transform="translate(507 761)" fill="none"/><path d="M.194.1A1.1,1.1,0,0,0-.9-1,1.1,1.1,0,0,0-2,.1a1.1,1.1,0,0,0,1.1,1.1A1.1,1.1,0,0,0,.194.1" transform="translate(537.873 816.182)" fill="#7ac142"/><path d="M.194.1A1.1,1.1,0,0,0-.9-1,1.1,1.1,0,0,0-2,.1a1.1,1.1,0,0,0,1.1,1.1A1.1,1.1,0,0,0,.194.1" transform="translate(543.359 816.182)" fill="#7ac142"/><path d="M.194.1A1.1,1.1,0,0,0-.9-1,1.1,1.1,0,0,0-2,.1a1.1,1.1,0,0,0,1.1,1.1A1.1,1.1,0,0,0,.194.1" transform="translate(548.844 816.182)" fill="#7ac142"/><path d="M.194.1A1.1,1.1,0,0,0-.9-1,1.1,1.1,0,0,0-2,.1a1.1,1.1,0,0,0,1.1,1.1A1.1,1.1,0,0,0,.194.1" transform="translate(526.903 816.182)" fill="#7ac142"/><path d="M.194.1A1.1,1.1,0,0,0-.9-1,1.1,1.1,0,0,0-2,.1a1.1,1.1,0,0,0,1.1,1.1A1.1,1.1,0,0,0,.194.1" transform="translate(532.388 816.182)" fill="#7ac142"/><path d="M.993,2.3a2.559,2.559,0,0,0-.025.306A1.814,1.814,0,0,0,.9,2.3C.93,2.3.961,2.3.993,2.3ZM23.117-11.983c-.1-.225-.239-.416-.355-.623a5.41,5.41,0,0,0,.018-4.419,5.431,5.431,0,0,0-7.172-2.741c-.093.042-.17.1-.259.148a3.236,3.236,0,0,0-3.776-1.8,4.486,4.486,0,0,0-3.913-2.317,4.489,4.489,0,0,0-4.308,3.269,7.512,7.512,0,0,0-6.918-.41,7.535,7.535,0,0,0-4.318,8.257A8.393,8.393,0,0,0-9.5-3.383,8.336,8.336,0,0,0-5.978.464a3.268,3.268,0,0,0,.265,1.12A3.227,3.227,0,0,0-2.25,3.448a1.7,1.7,0,0,0,2.223.816A1.7,1.7,0,0,0,.961,2.8a2.9,2.9,0,0,0,.25,1.109,2.939,2.939,0,0,0,5.427-.149,3.943,3.943,0,0,0,.914-.185,3.219,3.219,0,0,0,.11.335,2.938,2.938,0,1,0,5.365-2.4,1.287,1.287,0,0,0-.071-.124c.048-.11.29-.227.327-.343.1.033.506.058.506.082v.588h-.247c.012,0,.033-.265.045-.262A4.374,4.374,0,0,0,17.82,4.338a4.561,4.561,0,0,0,4.5-4.572,4.568,4.568,0,0,0-1.266-3.151A7.285,7.285,0,0,0,23.117-11.983Z" transform="translate(529.765 792.628)" fill="none" stroke="#7ac142" stroke-linecap="round" stroke-linejoin="round" stroke-width="2"/><path d="M1.572,1.935c-.038.032-.185.14-.355.268C1.033,2.038.8,1.836.675,1.724c.444-.2.9-.419,1.337-.641.114.129.1.377-.441.851M-6.05,2.2c-.108.1-.207.185-.309.276-.084-.081-.165-.165-.252-.242-.233-.21-.527-.576-.6-.63A3.453,3.453,0,0,1-7.819.779c.265-.042.52-.09.723-.116.648-.09.85-.052,1.476-.137A5.887,5.887,0,0,1-4.867.492a1.786,1.786,0,0,1-.617,1.078c-.072.058-.321.411-.566.63m.021-13.548a15.746,15.746,0,0,1,1.343-1.214c.037.182.056.3.056.3a5.551,5.551,0,0,0,.177.759,9.355,9.355,0,0,1,.259,2.163c-.122,3.137-.25,7.817-.261,8.023A1.249,1.249,0,0,1-5.037-.6c-.447-.1-.707-.165-.82-.181a1.166,1.166,0,0,1-.815-.856c-.008-1.45-.031-4.14-.068-6.336a12.893,12.893,0,0,1,.289-2.8,3.023,3.023,0,0,1,.422-.578M-3.652-13.5A.487.487,0,0,1-3.6-13.55c-.066.212-.132.368-.144.4a1.435,1.435,0,0,0-.054.188c-.038-.1-.079-.205-.12-.306.091-.083.185-.167.261-.236m1.178-2.1c.315.273,1.106.974,1.535,1.363.28.256.6.51.9.76a5.708,5.708,0,0,0-.741.376,6.08,6.08,0,0,0-.657.517,4.5,4.5,0,0,0-.3-.546,2.53,2.53,0,0,1-.705-1.179c-.033-.3-.018-.732-.041-1.075-.005-.075,0-.147,0-.222Zm5,2.018a5.729,5.729,0,0,1-.1.606,4.209,4.209,0,0,0-.566-.579c.228-.2.472-.422.694-.626,0,.217,0,.431-.024.6M-1.012-2.236c0-.163.018-.126.015-.285-.013-1.722,0-5.322.005-7.192a7.3,7.3,0,0,1,.134-1.374,2.252,2.252,0,0,1,.473-.653,9.856,9.856,0,0,1,1.2-.99c.058.059.126.121.174.176a2.212,2.212,0,0,1,.444.671,7.482,7.482,0,0,1,.114,1.18,3.451,3.451,0,0,0-.06.583c0,.6,0,6.055-.013,8.3,0,.161-.015.144-.015.307a4.352,4.352,0,0,1-.05.626,2.423,2.423,0,0,1-.182.5L-.009-.651A6.165,6.165,0,0,1-.74-1.317a1.375,1.375,0,0,1-.272-.919M.348.711a1.607,1.607,0,0,1-.368.331c-.011.005-.033.024-.049.034C-.337.727-.192.551-.108.487.277.482.561.469.561.469H.6C.518.548.443.628.348.711M10.654,1.935l-2.479-.7L7.126.756c-1.009-.456-1.537-.84-1.7-.9a.934.934,0,0,1-.483-.523C4.93-1.208,4.8-5.6,4.7-8.593a9.091,9.091,0,0,1,.256-2.177,2.943,2.943,0,0,1,.423-.578c.386-.442,1.026-.915,1.548-1.392.313-.3.6-.561.83-.764.129-.116.383-.331.617-.533a4.85,4.85,0,0,0,.426-.431s.231-.495-.426-.264c.16-.067-.249.165-.4.265-.127.082-.431.3-.6.4-.394.236-.645.473-.96.7-.416.29-1.041.865-1.424,1.193-.2.167-.365.312-.515.451a1.037,1.037,0,0,0-.116-.245c-.059-.091-.237-.4-.28-.447a1.649,1.649,0,0,1-.523-1.118c-.015-.278-.066-.693-.056-1.239,0-.054,0-.129,0-.191.12-.094.244-.19.363-.273.566-.353,1.391-.815,1.391-.815s.1-.4-.3-.265a15.137,15.137,0,0,0-1.482.656C3.4-16.784,3.251-18.34,3.2-18.907c-.185-.49-.533-.528-.634.144.01.16.1,1.3.078,1.664-.023.291-.1.643-.1.828-.011.374.014.746.027,1.126-.337.2-.669.408-.97.6-.134.088-.335.236-.573.4a6.223,6.223,0,0,1-.564-.3c-.568-.37-1.076-.8-1.344-.993-.488-.344-1.064-.733-1.584-1.054.008-.171.02-.34.018-.509-.005-.188-.083-.54-.1-.83-.025-.36.038-1.744.046-1.907-.018-.123-.4-.431-.713.126-.046.473-.116,1.627-.16,2.641-.319-.142-.624-.262-.814-.348-.211.024-.183.3-.183.3a8.721,8.721,0,0,0,.977.642c-.009.343-.011.648-.009.866.005.451-.022.789-.039,1.059a4.024,4.024,0,0,0-.406.2c-.135.081-.272.174-.409.265a1.622,1.622,0,0,0-.289-.37,10.762,10.762,0,0,0-.772-1l-.523-.755-.461-.523s-.491-.578-.551-.636c-.418-.342-.449.1-.449.1a2.931,2.931,0,0,0,.487.962c.23.2.425.6.551.713.234.2.542.858.857,1.148a2.173,2.173,0,0,1,.462.836.321.321,0,0,1-.035.023c-.416.29-1,.83-1.386,1.16a7.372,7.372,0,0,0-.584.551,1.3,1.3,0,0,0-.092-.2c-.061-.091-.237-.4-.281-.447a1.631,1.631,0,0,1-.523-1.118c-.015-.278-.063-.693-.056-1.239.018-.917-.116-3.359-.187-4.1-.211-.691-.624-.317-.642-.193.005.161,0,1.612-.029,1.971-.02.291-.1.643-.1.828-.008.531.068,1.047.031,1.607-.024.348-.008.779-.042,1.075a3.38,3.38,0,0,1-.3,1.18.03.03,0,0,0-.007.013,5.855,5.855,0,0,0-.95-.8c-.292-.194-.665-.3-.994-.5-.585-.347-1.108-.759-1.385-.936-.541-.35-1.193-.754-1.759-1.069a10.906,10.906,0,0,0-1.4-.624c-.558-.105-.4.255-.4.255s.6.3,1.3.738c.334.225.7.585.83.689.325.259.971.833,1.415,1.2.671.561,1.542,1.118,2,1.611a2.187,2.187,0,0,1,.47.649c.057.174-.344.671-.308,1.335,0,1.284-.439,5.992-.439,8.042v.027c0,.419.06.728-.268.8A7.362,7.362,0,0,1-12.3-.516c-.338.094-.747.16-1.116.264l-2.6.432a.777.777,0,0,0-.055.18c-.2.115-.2.23.386.161a12.961,12.961,0,0,1,2.17-.111c1.029-.033,1.4-.066,1.4-.066L-10.61.207a2.241,2.241,0,0,1-.479.375,2.9,2.9,0,0,0-.732.715c-.226.307-.491.676-.707.907A3.048,3.048,0,0,1-13,2.67a5.65,5.65,0,0,0-.666.655c-.325.342-.752.877-.545.867a6.081,6.081,0,0,0,1.138-.839c.187-.182,1.9-1.3,2.285-1.55.225-.144.772-.462,1.31-.744.147-.043.292-.088.427-.124.261.274.529.6.88.968.744.595.72.562,1.3,1.027-.029.026-.046.039-.074.067-.287.389-1.07.82-.765,1.126.1.1.8-.426,1.309-.824a3.982,3.982,0,0,0,1.033.651c.236-.083-.112-.512-.386-.886-.064-.059-.1-.1-.159-.151.715-.575.528-.414,1.342-1.063A5.34,5.34,0,0,1-2.512.462,3.631,3.631,0,0,1-.788,1.523,10.73,10.73,0,0,1-2.106,2c-.332.143-.576.252-.8.361l-.261.1-.993.334s-.606.152-.329.362a.874.874,0,0,0,.325.011c-.083.092-.142.166-.112.188a13.07,13.07,0,0,0,2.338-.728c.418-.18,1.266-.416,1.687-.6.021-.01.027-.009.048-.018.47.374.51.4.848.667-.194.183-.346.353-.665.643-.287.389-.866.822-.595,1.094C-.514,4.519.6,3.5.96,3.214c.069-.057.122-.1.176-.145.353.258.8.532.967.688a.587.587,0,0,0,.133.083c.014.013.046.035.056.047.07.066.111.049.126,0,.17-.005.234-.193-.276-.843-.19-.172-.325-.3-.449-.409.129-.1.292-.229.655-.52.72-.579,1.58-1.5,2.02-1.465a11.321,11.321,0,0,1,1.195.36c.617.237.941.284,1.579.53.394.149,1.015.285,1.391.429.294.087.524.149.736.2a2.9,2.9,0,0,0,.4.146c.076.016.084-.007.091-.034a5.706,5.706,0,0,0,.99.117c.765.032-.093-.464-.093-.464" transform="translate(540.088 806.364)" fill="#7ac142"/></g></svg>