<svg xmlns="http://www.w3.org/2000/svg" width="60" height="60" viewBox="0 0 60 60"><g transform="translate(-595 -671)"><rect width="60" height="60" transform="translate(595 671)" fill="none"/><path d="M.194.1A1.1,1.1,0,0,0-.9-1,1.1,1.1,0,0,0-2,.1a1.1,1.1,0,0,0,1.1,1.1A1.1,1.1,0,0,0,.194.1" transform="translate(625.64 725.415)" fill="#7ac142"/><path d="M.194.1A1.1,1.1,0,0,0-.9-1,1.1,1.1,0,0,0-2,.1a1.1,1.1,0,0,0,1.1,1.1A1.1,1.1,0,0,0,.194.1" transform="translate(631.125 725.415)" fill="#7ac142"/><path d="M.194.1A1.1,1.1,0,0,0-.9-1,1.1,1.1,0,0,0-2,.1a1.1,1.1,0,0,0,1.1,1.1A1.1,1.1,0,0,0,.194.1" transform="translate(636.611 725.415)" fill="#7ac142"/><path d="M.194.1A1.1,1.1,0,0,0-.9-1,1.1,1.1,0,0,0-2,.1a1.1,1.1,0,0,0,1.1,1.1A1.1,1.1,0,0,0,.194.1" transform="translate(614.669 725.415)" fill="#7ac142"/><path d="M.194.1A1.1,1.1,0,0,0-.9-1,1.1,1.1,0,0,0-2,.1a1.1,1.1,0,0,0,1.1,1.1A1.1,1.1,0,0,0,.194.1" transform="translate(620.155 725.415)" fill="#7ac142"/><path d="M403-485.806h25.233V-488H403Z" transform="translate(197.601 1205.833)" fill="#7ac142"/><path d="M.018.949V-1.6A12.035,12.035,0,0,0,2.2-.477a5.027,5.027,0,0,0,1.725.32A2.541,2.541,0,0,0,5.2-.415a.84.84,0,0,0,.432-.765.852.852,0,0,0-.27-.659A4.108,4.108,0,0,0,4.1-2.432,9.557,9.557,0,0,1,.735-4.189,3.057,3.057,0,0,1-.187-6.476a2.869,2.869,0,0,1,1.2-2.383,5.007,5.007,0,0,1,3.123-.917,8.322,8.322,0,0,1,1.955.238,9.734,9.734,0,0,1,1.941.7v2.349a13.273,13.273,0,0,0-2.071-.86A5.792,5.792,0,0,0,4.29-7.629a2.635,2.635,0,0,0-1.247.236.745.745,0,0,0-.43.68A.88.88,0,0,0,3-6.039a4.138,4.138,0,0,0,1.161.6c.112.043.276.105.5.188A14.586,14.586,0,0,1,7.008-4.211,3.07,3.07,0,0,1,8.134-3.03a3.564,3.564,0,0,1,.378,1.687,2.962,2.962,0,0,1-1.2,2.5,5.4,5.4,0,0,1-3.327.909,7.609,7.609,0,0,1-2.059-.28A7.68,7.68,0,0,1,.018.949" transform="translate(602.982 709.188)" fill="#7ac142"/><path d="M.248,1.013V-8.31h-2.8v-2.128H6.072V-8.31h-2.8V1.013Z" transform="translate(619.434 710.044)" fill="#7ac142"/><path d="M0,.115A1.247,1.247,0,0,1,.376-.8a1.245,1.245,0,0,1,.918-.378,1.253,1.253,0,0,1,.923.375,1.251,1.251,0,0,1,.372.92,1.239,1.239,0,0,1-.372.914,1.251,1.251,0,0,1-.923.373,1.251,1.251,0,0,1-.918-.375A1.243,1.243,0,0,1,0,.115M.088,2.6h2.42V10.27H.088Z" transform="translate(626.948 700.786)" fill="#7ac142"/><path d="M0,.115A1.25,1.25,0,0,1,.375-.8a1.247,1.247,0,0,1,.918-.378,1.255,1.255,0,0,1,.924.375,1.254,1.254,0,0,1,.371.92,1.243,1.243,0,0,1-.371.914,1.253,1.253,0,0,1-.924.373,1.252,1.252,0,0,1-.918-.375A1.246,1.246,0,0,1,0,.115M.087,2.6h2.42V10.27H.087Z" transform="translate(630.979 700.786)" fill="#7ac142"/><path d="M0,.115A1.25,1.25,0,0,1,.375-.8a1.25,1.25,0,0,1,.92-.378,1.252,1.252,0,0,1,.922.375,1.246,1.246,0,0,1,.371.92,1.234,1.234,0,0,1-.371.914A1.25,1.25,0,0,1,1.3,1.4a1.256,1.256,0,0,1-.92-.375A1.246,1.246,0,0,1,0,.115M.089,2.6h2.42V10.27H.089Z" transform="translate(612.849 700.786)" fill="#7ac142"/><path d="M0,.524A6.089,6.089,0,0,1,.452-1.838,5.608,5.608,0,0,1,1.8-3.772a5.64,5.64,0,0,1,1.97-1.221,7.107,7.107,0,0,1,2.451-.4,7.112,7.112,0,0,1,2.475.408,5.727,5.727,0,0,1,1.974,1.216A5.694,5.694,0,0,1,12-1.838,6.031,6.031,0,0,1,12.458.524,6.015,6.015,0,0,1,12,2.877,5.567,5.567,0,0,1,10.666,4.8,5.9,5.9,0,0,1,8.679,6.029a6.983,6.983,0,0,1-2.462.414,6.982,6.982,0,0,1-2.445-.41A5.842,5.842,0,0,1,1.8,4.8,5.592,5.592,0,0,1,.455,2.877,6.035,6.035,0,0,1,0,.524m2.949,0a3.537,3.537,0,0,0,.923,2.517,3.063,3.063,0,0,0,2.346.986,3.074,3.074,0,0,0,2.355-.986A3.537,3.537,0,0,0,9.5.524,3.56,3.56,0,0,0,8.573-2,3.07,3.07,0,0,0,6.217-3,3.059,3.059,0,0,0,3.872-2,3.56,3.56,0,0,0,2.949.524" transform="translate(634.927 704.808)" fill="#7ac142"/></g></svg>