<svg xmlns="http://www.w3.org/2000/svg" width="60" height="60" viewBox="0 0 60 60"><g transform="translate(-771 -761)"><rect width="60" height="60" transform="translate(771 761)" fill="none"/><path d="M.194.1A1.1,1.1,0,0,0-.9-1,1.1,1.1,0,0,0-2,.1a1.1,1.1,0,0,0,1.1,1.1A1.1,1.1,0,0,0,.194.1" transform="translate(801.173 816.182)" fill="#7ac142"/><path d="M.194.1A1.1,1.1,0,0,0-.9-1,1.1,1.1,0,0,0-2,.1a1.1,1.1,0,0,0,1.1,1.1A1.1,1.1,0,0,0,.194.1" transform="translate(806.659 816.182)" fill="#7ac142"/><path d="M.194.1A1.1,1.1,0,0,0-.9-1,1.1,1.1,0,0,0-2,.1a1.1,1.1,0,0,0,1.1,1.1A1.1,1.1,0,0,0,.194.1" transform="translate(812.144 816.182)" fill="#7ac142"/><path d="M.194.1A1.1,1.1,0,0,0-.9-1,1.1,1.1,0,0,0-2,.1a1.1,1.1,0,0,0,1.1,1.1A1.1,1.1,0,0,0,.194.1" transform="translate(790.202 816.182)" fill="#7ac142"/><path d="M.194.1A1.1,1.1,0,0,0-.9-1,1.1,1.1,0,0,0-2,.1a1.1,1.1,0,0,0,1.1,1.1A1.1,1.1,0,0,0,.194.1" transform="translate(795.688 816.182)" fill="#7ac142"/><path d="M.666.333A3.764,3.764,0,0,1-3.1,4.1,3.764,3.764,0,0,1-6.863.333,3.763,3.763,0,0,1-3.1-3.433,3.763,3.763,0,0,1,.666.333Z" transform="translate(802.868 776.795)" fill="none" stroke="#7ac142" stroke-linecap="round" stroke-linejoin="round" stroke-width="2"/><path d="M.291,2.524V-8.447H-3v-12.72C-3-23.245-.651-26,1.426-26h7.7c2.082,0,4.33,2.755,4.33,4.834v12.72H10.165V2.524" transform="translate(794.494 808.269)" fill="none" stroke="#7ac142" stroke-linecap="round" stroke-linejoin="round" stroke-width="2"/><path d="M0,0A3.766,3.766,0,0,1,3.767,3.765,3.767,3.767,0,0,1,0,7.531" transform="translate(806.69 769.259)" fill="none" stroke="#7ac142" stroke-linecap="round" stroke-linejoin="round" stroke-width="2"/><path d="M0,0H2.418A4.354,4.354,0,0,1,6.582,4.025V15.359" transform="translate(806.853 778.978)" fill="none" stroke="#7ac142" stroke-linecap="round" stroke-linejoin="round" stroke-width="2"/><path d="M.334,0a3.766,3.766,0,1,0,0,7.531" transform="translate(792.626 769.259)" fill="none" stroke="#7ac142" stroke-linecap="round" stroke-linejoin="round" stroke-width="2"/><path d="M.68,0H-1.532C-3.61,0-7,1.946-7,4.025V15.359" transform="translate(791.911 778.978)" fill="none" stroke="#7ac142" stroke-linecap="round" stroke-linejoin="round" stroke-width="2"/><path d="M585.1-415.9H584V-417h1.1Z" transform="translate(215.173 1215.726)" fill="#7ac142"/><path d="M585.1-421.9H584V-423h1.1Z" transform="translate(215.173 1215.143)" fill="#7ac142"/><path d="M585.1-426.9H584V-428h1.1Z" transform="translate(215.173 1214.658)" fill="#7ac142"/></g></svg>