<svg xmlns="http://www.w3.org/2000/svg" width="60" height="60" viewBox="0 0 60 60"><g transform="translate(-507 -401)"><rect width="60" height="60" transform="translate(507 401)" fill="none"/><path d="M2.6.247A24.841,24.841,0,0,1-.387.915a6.172,6.172,0,0,0,1.639-2.6.323.323,0,0,0-.476-.374A11.47,11.47,0,0,1-2.267-.812a.708.708,0,0,1-.191.025.807.807,0,0,1-.532-.2A6.228,6.228,0,0,0-7.108-2.54a6.7,6.7,0,0,0-1.971.3A6.017,6.017,0,0,0-13.143,2.1,6.6,6.6,0,0,0-13.29,4.38a.218.218,0,0,1-.056.172.232.232,0,0,1-.171.08l-.023,0c-4.417-.41-11.215-5.975-11.215-5.975a.325.325,0,0,0-.533.043,6.173,6.173,0,0,0-.843,3.119,6.181,6.181,0,0,0,1.855,4.421,5.564,5.564,0,0,1-1.42-.547.326.326,0,0,0-.484.28,6.213,6.213,0,0,0,3.635,5.723c-.044,0-.088,0-.133,0a5.642,5.642,0,0,1-1.049-.1.326.326,0,0,0-.371.419c.713,2.219,2.631,4.542,4.927,4.912-1.906,1.276-4.123,2.632-6.432,2.632h-.721c-.221,0-.408-.541-.465-.325s.048.092.236.2a16.977,16.977,0,0,0,8.584,2.136,17.428,17.428,0,0,0,7.334-1.635,16.355,16.355,0,0,0,5.368-4.053A17.657,17.657,0,0,0-2,10.373a17.329,17.329,0,0,0,1.1-6.026v-.1A1.074,1.074,0,0,1-.488,3.43,12.341,12.341,0,0,0,1.994.723C2.178.452,2.9.114,2.6.247Z" transform="translate(548.848 421.198)" fill="none" stroke="#7ac142" stroke-linecap="round" stroke-linejoin="round" stroke-width="2"/><path d="M.194.1A1.1,1.1,0,0,0-.9-1,1.1,1.1,0,0,0-2,.1a1.1,1.1,0,0,0,1.1,1.1A1.1,1.1,0,0,0,.194.1" transform="translate(537.873 456.436)" fill="#7ac142"/><path d="M.194.1A1.1,1.1,0,0,0-.9-1,1.1,1.1,0,0,0-2,.1a1.1,1.1,0,0,0,1.1,1.1A1.1,1.1,0,0,0,.194.1" transform="translate(542.262 456.436)" fill="#7ac142"/><path d="M.194.1A1.1,1.1,0,0,0-.9-1,1.1,1.1,0,0,0-2,.1a1.1,1.1,0,0,0,1.1,1.1A1.1,1.1,0,0,0,.194.1" transform="translate(546.65 456.436)" fill="#7ac142"/><path d="M.194.1A1.1,1.1,0,0,0-.9-1,1.1,1.1,0,0,0-2,.1a1.1,1.1,0,0,0,1.1,1.1A1.1,1.1,0,0,0,.194.1" transform="translate(529.097 456.436)" fill="#7ac142"/><path d="M.194.1A1.1,1.1,0,0,0-.9-1,1.1,1.1,0,0,0-2,.1a1.1,1.1,0,0,0,1.1,1.1A1.1,1.1,0,0,0,.194.1" transform="translate(533.485 456.436)" fill="#7ac142"/><g transform="translate(515 409)" fill="none" stroke="#77c13a" stroke-width="2"><rect width="43" height="43" rx="7" stroke="none"/><rect x="1" y="1" width="41" height="41" rx="6" fill="none"/></g></g></svg>