<svg xmlns="http://www.w3.org/2000/svg" width="60" height="60" viewBox="0 0 60 60"><g transform="translate(-331 -491)"><rect width="60" height="60" transform="translate(331 491)" fill="none"/><path d="M2.774-12.9a.469.469,0,0,0-.532-.4H.418c-.285,0-.342.1-.209.4l5,12.806c.133.266.19.38.285.38h.19c.114,0,.171-.133.285-.38L9.158-9.158,12.35-.095c.114.247.19.38.285.38h.171c.114,0,.19-.133.3-.38l5-12.806c.133-.3.076-.4-.209-.4H16.074a.469.469,0,0,0-.532.4L12.6-4.541,9.614-13.148c-.114-.266-.171-.4-.323-.4H9.025c-.152,0-.209.133-.323.4L5.719-4.541Z" transform="translate(351.941 528.979)" fill="#7ac142"/><path d="M.194.1A1.1,1.1,0,0,0-.9-1,1.1,1.1,0,0,0-2,.1a1.1,1.1,0,0,0,1.1,1.1A1.1,1.1,0,0,0,.194.1" transform="translate(362.34 544.882)" fill="#7ac142"/><path d="M.194.1A1.1,1.1,0,0,0-.9-1,1.1,1.1,0,0,0-2,.1a1.1,1.1,0,0,0,1.1,1.1A1.1,1.1,0,0,0,.194.1" transform="translate(367.826 544.882)" fill="#7ac142"/><path d="M.194.1A1.1,1.1,0,0,0-.9-1,1.1,1.1,0,0,0-2,.1a1.1,1.1,0,0,0,1.1,1.1A1.1,1.1,0,0,0,.194.1" transform="translate(373.311 544.882)" fill="#7ac142"/><path d="M.194.1A1.1,1.1,0,0,0-.9-1,1.1,1.1,0,0,0-2,.1a1.1,1.1,0,0,0,1.1,1.1A1.1,1.1,0,0,0,.194.1" transform="translate(351.37 544.882)" fill="#7ac142"/><path d="M.194.1A1.1,1.1,0,0,0-.9-1,1.1,1.1,0,0,0-2,.1a1.1,1.1,0,0,0,1.1,1.1A1.1,1.1,0,0,0,.194.1" transform="translate(356.855 544.882)" fill="#7ac142"/><path d="M0,3.689H31.815V-28.126H23.039V-38H0Z" transform="translate(344.981 534.708)" fill="none" stroke="#7ac142" stroke-linecap="round" stroke-linejoin="round" stroke-miterlimit="10" stroke-width="2"/><path d="M.777.874-8-9" transform="translate(376.02 505.708)" fill="none" stroke="#7ac142" stroke-linecap="round" stroke-linejoin="round" stroke-miterlimit="10" stroke-width="2"/></g></svg>