<svg xmlns="http://www.w3.org/2000/svg" width="60" height="60" viewBox="0 0 60 60"><g transform="translate(-419 -491)"><rect width="60" height="60" transform="translate(419 491)" fill="none"/><path d="M6.149,0c.187,0,.242-.055.242-.231V-.9c0-.187-.055-.231-.242-.231H2.255L6.457-7.3c.066-.1.088-.11.088-.187V-7.6c0-.077-.022-.1-.1-.1H.77c-.187,0-.231.055-.231.231V-6.8c0,.187.044.242.231.242H4.521L.308-.4C.253-.3.22-.286.22-.209V-.1c0,.077.033.1.1.1ZM7.733-.231c0,.176.055.231.231.231h.869c.176,0,.231-.055.231-.231V-7.469c0-.176-.044-.231-.231-.231H7.964c-.176,0-.231.055-.231.231Zm4.6-3.927V-6.589h1.518c1.144,0,1.518.528,1.518,1.2,0,.693-.374,1.232-1.518,1.232ZM13.9-3.047c1.287,0,2.75-.561,2.75-2.343S15.191-7.7,13.9-7.7H11.231c-.176,0-.231.044-.231.231V-.231c0,.176.044.231.231.231H12.1c.176,0,.231-.055.231-.231V-3.047Z" transform="translate(439.106 527.552)" fill="#7ac142"/><path d="M.194.1A1.1,1.1,0,0,0-.9-1,1.1,1.1,0,0,0-2,.1a1.1,1.1,0,0,0,1.1,1.1A1.1,1.1,0,0,0,.194.1" transform="translate(450.107 544.882)" fill="#7ac142"/><path d="M.194.1A1.1,1.1,0,0,0-.9-1,1.1,1.1,0,0,0-2,.1a1.1,1.1,0,0,0,1.1,1.1A1.1,1.1,0,0,0,.194.1" transform="translate(455.592 544.882)" fill="#7ac142"/><path d="M.194.1A1.1,1.1,0,0,0-.9-1,1.1,1.1,0,0,0-2,.1a1.1,1.1,0,0,0,1.1,1.1A1.1,1.1,0,0,0,.194.1" transform="translate(461.078 544.882)" fill="#7ac142"/><path d="M.194.1A1.1,1.1,0,0,0-.9-1,1.1,1.1,0,0,0-2,.1a1.1,1.1,0,0,0,1.1,1.1A1.1,1.1,0,0,0,.194.1" transform="translate(439.136 544.882)" fill="#7ac142"/><path d="M.194.1A1.1,1.1,0,0,0-.9-1,1.1,1.1,0,0,0-2,.1a1.1,1.1,0,0,0,1.1,1.1A1.1,1.1,0,0,0,.194.1" transform="translate(444.622 544.882)" fill="#7ac142"/><path d="M0,3.689H31.815V-28.126H23.039V-38H0Z" transform="translate(432.748 534.708)" fill="none" stroke="#7ac142" stroke-linecap="round" stroke-linejoin="round" stroke-miterlimit="10" stroke-width="2"/><path d="M.777.874-8-9" transform="translate(463.786 505.708)" fill="none" stroke="#7ac142" stroke-linecap="round" stroke-linejoin="round" stroke-miterlimit="10" stroke-width="2"/></g></svg>